<?xml version="1.0" encoding="UTF-8"?>
<svg xmlns="http://www.w3.org/2000/svg" xmlns:xlink="http://www.w3.org/1999/xlink" width="442.666667" height="158.666667" viewBox="0 0 442.666667 158.666667" version="1.1">
<g id="surface1">
<path style="fill-rule:nonzero;fill:rgb(39.215687%,74.901962%,100%);fill-opacity:1;stroke-width:1;stroke-linecap:round;stroke-linejoin:round;stroke:rgb(0%,0%,0%);stroke-opacity:1;stroke-miterlimit:10;" d="M 161.500977 1385.999023 L 213.5 1328.500977 L 287.500977 1340 L 298.499023 1411.499023 L 197.500977 1446.5 Z M 161.500977 1385.999023 " transform="matrix(1.333333,0,0,1.333333,-214.666667,-1770.666667)"/>
<path style=" stroke:none;fill-rule:nonzero;fill:rgb(39.215687%,74.901962%,100%);fill-opacity:1;" d="M 284.574219 48.125 L 308.1875 22.015625 C 320.234375 8.691406 338.183594 2.328125 355.933594 5.089844 L 387.574219 10.003906 C 410.546875 13.574219 428.5625 31.613281 432.097656 54.59375 L 434.0625 67.390625 C 437.980469 92.84375 423.144531 117.457031 398.8125 125.890625 L 347.230469 143.765625 C 323.316406 152.050781 296.875 142.394531 283.933594 120.644531 L 278.296875 111.171875 C 266.324219 91.058594 268.871094 65.488281 284.574219 48.125 Z M 284.574219 48.125 "/>
<path style="fill:none;stroke-width:1;stroke-linecap:round;stroke-linejoin:round;stroke:rgb(0%,0%,0%);stroke-opacity:1;stroke-miterlimit:10;" d="M 374.430664 1364.09668 L 392.140625 1344.511719 C 401.175781 1334.518555 414.637695 1329.746094 427.950195 1331.817383 L 451.680664 1335.50293 C 468.910156 1338.180664 482.421875 1351.709961 485.073242 1368.945312 L 486.546875 1378.540039 C 489.485352 1397.632812 478.358398 1416.092773 460.109375 1422.417969 L 421.422852 1435.824219 C 403.487305 1442.038086 383.65625 1434.795898 373.950195 1418.483398 L 369.722656 1411.378906 C 360.743164 1396.293945 362.65332 1377.116211 374.430664 1364.09668 Z M 374.430664 1364.09668 " transform="matrix(1.333333,0,0,1.333333,-214.666667,-1770.666667)"/>
<path style="fill:none;stroke-width:1;stroke-linecap:round;stroke-linejoin:round;stroke:rgb(0%,0%,0%);stroke-opacity:1;stroke-miterlimit:10;" d="M 392.008789 1384.786133 L 267.992188 1390.214844 " transform="matrix(1.333333,0,0,1.333333,-214.666667,-1770.666667)"/>
<path style=" stroke:none;fill-rule:nonzero;fill:rgb(0%,0%,0%);fill-opacity:1;" d="M 141.363281 80.175781 C 142.996094 81.671875 143.105469 84.203125 141.609375 85.832031 C 140.121094 87.457031 137.589844 87.574219 135.957031 86.078125 C 134.332031 84.589844 134.21875 82.058594 135.714844 80.425781 C 137.203125 78.796875 139.734375 78.6875 141.363281 80.175781 "/>
<path style="fill:none;stroke-width:1;stroke-linecap:butt;stroke-linejoin:miter;stroke:rgb(0%,0%,0%);stroke-opacity:1;stroke-miterlimit:10;" d="M 267.022461 1388.137695 C 268.24707 1389.253906 268.329102 1391.152344 267.207031 1392.371094 C 266.09082 1393.592773 264.192383 1393.680664 262.967773 1392.558594 C 261.749023 1391.442383 261.664062 1389.543945 262.786133 1388.319336 C 263.902344 1387.097656 265.800781 1387.015625 267.022461 1388.137695 " transform="matrix(1.333333,0,0,1.333333,-214.666667,-1770.666667)"/>
<path style=" stroke:none;fill-rule:nonzero;fill:rgb(0%,0%,0%);fill-opacity:1;" d="M 309.300781 78.488281 C 307.671875 76.996094 307.5625 74.464844 309.058594 72.832031 C 310.546875 71.207031 313.078125 71.09375 314.707031 72.589844 C 316.332031 74.078125 316.449219 76.609375 314.953125 78.238281 C 313.464844 79.871094 310.933594 79.980469 309.300781 78.488281 "/>
<path style="fill:none;stroke-width:1;stroke-linecap:butt;stroke-linejoin:miter;stroke:rgb(0%,0%,0%);stroke-opacity:1;stroke-miterlimit:10;" d="M 392.975586 1386.863281 C 391.753906 1385.74707 391.671875 1383.848633 392.793945 1382.629883 C 393.910156 1381.405273 395.808594 1381.320312 397.030273 1382.442383 C 398.249023 1383.558594 398.336914 1385.457031 397.214844 1386.678711 C 396.098633 1387.90332 394.200195 1387.985352 392.975586 1386.863281 " transform="matrix(1.333333,0,0,1.333333,-214.666667,-1770.666667)"/>
<path style="fill:none;stroke-width:2;stroke-linecap:round;stroke-linejoin:round;stroke:rgb(100%,14.901961%,0%);stroke-opacity:1;stroke-miterlimit:10;" d="M 364.510742 1385.987305 L 295.499023 1389.250977 " transform="matrix(1.333333,0,0,1.333333,-214.666667,-1770.666667)"/>
</g>
</svg>
