<?xml version="1.0" encoding="UTF-8"?>
<svg xmlns="http://www.w3.org/2000/svg" xmlns:xlink="http://www.w3.org/1999/xlink" width="326.827087" height="244.474996" viewBox="0 0 326.827087 244.474996" version="1.1">
<defs>
<clipPath id="clip1">
  <path d="M 164 9.601562 L 317.226562 9.601562 L 317.226562 149 L 164 149 Z M 164 9.601562 "/>
</clipPath>
<clipPath id="clip2">
  <path d="M 116 9.601562 L 317.226562 9.601562 L 317.226562 188 L 116 188 Z M 116 9.601562 "/>
</clipPath>
<clipPath id="clip3">
  <path d="M 80 9.601562 L 182 9.601562 L 182 194.398438 L 80 194.398438 Z M 80 9.601562 "/>
</clipPath>
<clipPath id="clip4">
  <path d="M 56.828125 95 L 130 95 L 130 194.398438 L 56.828125 194.398438 Z M 56.828125 95 "/>
</clipPath>
<clipPath id="clip5">
  <path d="M 56.828125 155 L 91 155 L 91 194.398438 L 56.828125 194.398438 Z M 56.828125 155 "/>
</clipPath>
<clipPath id="clip6">
  <path d="M 56.828125 192 L 59 192 L 59 194.398438 L 56.828125 194.398438 Z M 56.828125 192 "/>
</clipPath>
</defs>
<g id="surface1">
<path style=" stroke:none;fill-rule:nonzero;fill:rgb(100%,100%,100%);fill-opacity:1;" d="M 0 244.476562 L 326.828125 244.476562 L 326.828125 0 L 0 0 Z M 0 244.476562 "/>
<path style=" stroke:none;fill-rule:nonzero;fill:rgb(100%,100%,100%);fill-opacity:1;" d="M 56.828125 194.398438 L 317.226562 194.398438 L 317.226562 9.601562 L 56.828125 9.601562 Z M 56.828125 194.398438 "/>
<path style="fill:none;stroke-width:0.8;stroke-linecap:butt;stroke-linejoin:round;stroke:rgb(0%,0%,0%);stroke-opacity:1;stroke-miterlimit:4;" d="M 0.000785828 -0.00117493 L 0.000785828 3.499802 " transform="matrix(1.333333,0,0,1.333333,117.858327,194.400004)"/>
<path style=" stroke:none;fill-rule:nonzero;fill:rgb(0%,0%,0%);fill-opacity:1;" d="M 109.441406 209.132812 L 117.789062 209.132812 L 117.789062 210.238281 L 109.441406 210.238281 Z M 109.441406 209.132812 "/>
<path style=" stroke:none;fill-rule:nonzero;fill:rgb(0%,0%,0%);fill-opacity:1;" d="M 124.242188 205.289062 L 120.921875 210.480469 L 124.242188 210.480469 Z M 123.894531 204.144531 L 125.550781 204.144531 L 125.550781 210.480469 L 126.9375 210.480469 L 126.9375 211.574219 L 125.550781 211.574219 L 125.550781 213.863281 L 124.242188 213.863281 L 124.242188 211.574219 L 119.855469 211.574219 L 119.855469 210.304688 Z M 123.894531 204.144531 "/>
<path style="fill:none;stroke-width:0.8;stroke-linecap:butt;stroke-linejoin:round;stroke:rgb(0%,0%,0%);stroke-opacity:1;stroke-miterlimit:4;" d="M 0.000778198 -0.00117493 L 0.000778198 3.499802 " transform="matrix(1.333333,0,0,1.333333,199.233337,194.400004)"/>
<path style=" stroke:none;fill-rule:nonzero;fill:rgb(0%,0%,0%);fill-opacity:1;" d="M 190.816406 209.132812 L 199.164062 209.132812 L 199.164062 210.238281 L 190.816406 210.238281 Z M 190.816406 209.132812 "/>
<path style=" stroke:none;fill-rule:nonzero;fill:rgb(0%,0%,0%);fill-opacity:1;" d="M 203.136719 212.757812 L 207.726562 212.757812 L 207.726562 213.863281 L 201.554688 213.863281 L 201.554688 212.757812 C 202.054688 212.242188 202.734375 211.546875 203.59375 210.679688 C 204.457031 209.808594 204.996094 209.246094 205.21875 208.992188 C 205.640625 208.523438 205.933594 208.121094 206.101562 207.792969 C 206.269531 207.464844 206.351562 207.144531 206.351562 206.828125 C 206.351562 206.308594 206.171875 205.890625 205.808594 205.566406 C 205.445312 205.238281 204.972656 205.074219 204.390625 205.074219 C 203.980469 205.074219 203.542969 205.148438 203.085938 205.289062 C 202.628906 205.433594 202.140625 205.648438 201.617188 205.941406 L 201.617188 204.613281 C 202.148438 204.398438 202.640625 204.238281 203.101562 204.132812 C 203.5625 204.023438 203.984375 203.96875 204.367188 203.96875 C 205.375 203.96875 206.175781 204.222656 206.773438 204.726562 C 207.375 205.226562 207.671875 205.898438 207.671875 206.742188 C 207.671875 207.140625 207.597656 207.519531 207.449219 207.878906 C 207.300781 208.234375 207.027344 208.65625 206.632812 209.144531 C 206.523438 209.269531 206.179688 209.632812 205.597656 210.234375 C 205.015625 210.835938 204.195312 211.679688 203.136719 212.757812 Z M 203.136719 212.757812 "/>
<path style="fill:none;stroke-width:0.8;stroke-linecap:butt;stroke-linejoin:round;stroke:rgb(0%,0%,0%);stroke-opacity:1;stroke-miterlimit:4;" d="M 0.000778198 -0.00117493 L 0.000778198 3.499802 " transform="matrix(1.333333,0,0,1.333333,280.608337,194.400004)"/>
<path style=" stroke:none;fill-rule:nonzero;fill:rgb(0%,0%,0%);fill-opacity:1;" d="M 280.605469 205.011719 C 279.929688 205.011719 279.417969 205.34375 279.078125 206.011719 C 278.738281 206.675781 278.566406 207.675781 278.566406 209.015625 C 278.566406 210.347656 278.738281 211.347656 279.078125 212.011719 C 279.417969 212.679688 279.929688 213.011719 280.605469 213.011719 C 281.285156 213.011719 281.796875 212.679688 282.136719 212.011719 C 282.480469 211.347656 282.648438 210.347656 282.648438 209.015625 C 282.648438 207.675781 282.480469 206.675781 282.136719 206.011719 C 281.796875 205.34375 281.285156 205.011719 280.605469 205.011719 Z M 280.605469 203.96875 C 281.695312 203.96875 282.527344 204.398438 283.101562 205.261719 C 283.675781 206.125 283.964844 207.375 283.964844 209.015625 C 283.964844 210.652344 283.675781 211.898438 283.101562 212.761719 C 282.527344 213.625 281.695312 214.054688 280.605469 214.054688 C 279.515625 214.054688 278.683594 213.625 278.109375 212.761719 C 277.535156 211.898438 277.246094 210.652344 277.246094 209.015625 C 277.246094 207.375 277.535156 206.125 278.109375 205.261719 C 278.683594 204.398438 279.515625 203.96875 280.605469 203.96875 Z M 280.605469 203.96875 "/>
<path style=" stroke:none;fill-rule:nonzero;fill:rgb(0%,0%,0%);fill-opacity:1;" d="M 186.160156 224.808594 L 183.519531 228.359375 L 186.292969 232.101562 L 184.882812 232.101562 L 182.757812 229.238281 L 180.636719 232.101562 L 179.222656 232.101562 L 182.054688 228.289062 L 179.464844 224.808594 L 180.878906 224.808594 L 182.808594 227.410156 L 184.742188 224.808594 Z M 186.160156 224.808594 "/>
<path style=" stroke:none;fill-rule:nonzero;fill:rgb(0%,0%,0%);fill-opacity:1;" d="M 188.382812 230.996094 L 190.53125 230.996094 L 190.53125 223.578125 L 188.195312 224.046875 L 188.195312 222.851562 L 190.519531 222.382812 L 191.835938 222.382812 L 191.835938 230.996094 L 193.980469 230.996094 L 193.980469 232.101562 L 188.382812 232.101562 Z M 188.382812 230.996094 "/>
<path style="fill:none;stroke-width:0.8;stroke-linecap:butt;stroke-linejoin:round;stroke:rgb(0%,0%,0%);stroke-opacity:1;stroke-miterlimit:4;" d="M 0.000782013 -0.00117493 L -3.500195 -0.00117493 " transform="matrix(1.333333,0,0,1.333333,56.827082,194.400004)"/>
<path style=" stroke:none;fill-rule:nonzero;fill:rgb(0%,0%,0%);fill-opacity:1;" d="M 29.25 194.730469 L 37.597656 194.730469 L 37.597656 195.839844 L 29.25 195.839844 Z M 29.25 194.730469 "/>
<path style=" stroke:none;fill-rule:nonzero;fill:rgb(0%,0%,0%);fill-opacity:1;" d="M 44.417969 194.222656 C 45.050781 194.359375 45.539062 194.640625 45.894531 195.066406 C 46.246094 195.492188 46.425781 196.015625 46.425781 196.640625 C 46.425781 197.597656 46.09375 198.339844 45.433594 198.867188 C 44.773438 199.394531 43.835938 199.65625 42.621094 199.65625 C 42.214844 199.65625 41.796875 199.613281 41.363281 199.535156 C 40.929688 199.453125 40.484375 199.332031 40.027344 199.171875 L 40.027344 197.902344 C 40.390625 198.117188 40.789062 198.277344 41.222656 198.382812 C 41.65625 198.492188 42.109375 198.546875 42.585938 198.546875 C 43.40625 198.546875 44.035156 198.382812 44.46875 198.058594 C 44.898438 197.734375 45.117188 197.261719 45.117188 196.640625 C 45.117188 196.066406 44.914062 195.617188 44.511719 195.296875 C 44.113281 194.972656 43.554688 194.8125 42.839844 194.8125 L 41.707031 194.8125 L 41.707031 193.730469 L 42.890625 193.730469 C 43.535156 193.730469 44.03125 193.601562 44.375 193.34375 C 44.71875 193.085938 44.886719 192.710938 44.886719 192.226562 C 44.886719 191.726562 44.710938 191.34375 44.355469 191.078125 C 44.003906 190.808594 43.5 190.675781 42.839844 190.675781 C 42.476562 190.675781 42.089844 190.714844 41.679688 190.792969 C 41.265625 190.871094 40.8125 190.992188 40.316406 191.15625 L 40.316406 189.988281 C 40.816406 189.847656 41.285156 189.742188 41.722656 189.675781 C 42.15625 189.605469 42.570312 189.570312 42.957031 189.570312 C 43.953125 189.570312 44.742188 189.796875 45.324219 190.25 C 45.90625 190.703125 46.195312 191.316406 46.195312 192.089844 C 46.195312 192.628906 46.042969 193.082031 45.734375 193.453125 C 45.425781 193.824219 44.988281 194.082031 44.417969 194.222656 Z M 44.417969 194.222656 "/>
<path style="fill:none;stroke-width:0.8;stroke-linecap:butt;stroke-linejoin:round;stroke:rgb(0%,0%,0%);stroke-opacity:1;stroke-miterlimit:4;" d="M 0.000782013 0.000183105 L -3.500195 0.000183105 " transform="matrix(1.333333,0,0,1.333333,56.827082,147.015381)"/>
<path style=" stroke:none;fill-rule:nonzero;fill:rgb(0%,0%,0%);fill-opacity:1;" d="M 29.25 147.347656 L 37.597656 147.347656 L 37.597656 148.453125 L 29.25 148.453125 Z M 29.25 147.347656 "/>
<path style=" stroke:none;fill-rule:nonzero;fill:rgb(0%,0%,0%);fill-opacity:1;" d="M 41.566406 150.976562 L 46.15625 150.976562 L 46.15625 152.082031 L 39.988281 152.082031 L 39.988281 150.976562 C 40.484375 150.457031 41.164062 149.765625 42.027344 148.894531 C 42.886719 148.023438 43.429688 147.464844 43.652344 147.210938 C 44.070312 146.738281 44.367188 146.339844 44.53125 146.011719 C 44.699219 145.683594 44.785156 145.359375 44.785156 145.042969 C 44.785156 144.527344 44.601562 144.105469 44.242188 143.78125 C 43.878906 143.453125 43.40625 143.292969 42.824219 143.292969 C 42.410156 143.292969 41.976562 143.363281 41.519531 143.507812 C 41.0625 143.648438 40.570312 143.867188 40.050781 144.15625 L 40.050781 142.828125 C 40.582031 142.617188 41.074219 142.457031 41.535156 142.347656 C 41.996094 142.238281 42.417969 142.183594 42.800781 142.183594 C 43.804688 142.183594 44.609375 142.4375 45.207031 142.941406 C 45.804688 143.445312 46.105469 144.117188 46.105469 144.957031 C 46.105469 145.359375 46.03125 145.738281 45.878906 146.09375 C 45.730469 146.453125 45.460938 146.875 45.0625 147.359375 C 44.957031 147.488281 44.609375 147.851562 44.027344 148.453125 C 43.449219 149.054688 42.628906 149.894531 41.566406 150.976562 Z M 41.566406 150.976562 "/>
<path style="fill:none;stroke-width:0.8;stroke-linecap:butt;stroke-linejoin:round;stroke:rgb(0%,0%,0%);stroke-opacity:1;stroke-miterlimit:4;" d="M 0.000782013 -0.00139618 L -3.500195 -0.00139618 " transform="matrix(1.333333,0,0,1.333333,56.827082,99.630768)"/>
<path style=" stroke:none;fill-rule:nonzero;fill:rgb(0%,0%,0%);fill-opacity:1;" d="M 29.25 99.964844 L 37.597656 99.964844 L 37.597656 101.070312 L 29.25 101.070312 Z M 29.25 99.964844 "/>
<path style=" stroke:none;fill-rule:nonzero;fill:rgb(0%,0%,0%);fill-opacity:1;" d="M 40.664062 103.589844 L 42.8125 103.589844 L 42.8125 96.171875 L 40.472656 96.640625 L 40.472656 95.445312 L 42.800781 94.976562 L 44.113281 94.976562 L 44.113281 103.589844 L 46.261719 103.589844 L 46.261719 104.695312 L 40.664062 104.695312 Z M 40.664062 103.589844 "/>
<path style="fill:none;stroke-width:0.8;stroke-linecap:butt;stroke-linejoin:round;stroke:rgb(0%,0%,0%);stroke-opacity:1;stroke-miterlimit:4;" d="M 0.000782013 -0.0000495911 L -3.500195 -0.0000495911 " transform="matrix(1.333333,0,0,1.333333,56.827082,52.24616)"/>
<path style=" stroke:none;fill-rule:nonzero;fill:rgb(0%,0%,0%);fill-opacity:1;" d="M 43.246094 48.457031 C 42.570312 48.457031 42.0625 48.789062 41.722656 49.457031 C 41.378906 50.121094 41.210938 51.125 41.210938 52.460938 C 41.210938 53.792969 41.378906 54.792969 41.722656 55.460938 C 42.0625 56.125 42.570312 56.460938 43.246094 56.460938 C 43.929688 56.460938 44.441406 56.125 44.78125 55.460938 C 45.121094 54.792969 45.292969 53.792969 45.292969 52.460938 C 45.292969 51.125 45.121094 50.121094 44.78125 49.457031 C 44.441406 48.789062 43.929688 48.457031 43.246094 48.457031 Z M 43.246094 47.414062 C 44.339844 47.414062 45.171875 47.847656 45.746094 48.710938 C 46.320312 49.570312 46.609375 50.820312 46.609375 52.460938 C 46.609375 54.097656 46.320312 55.347656 45.746094 56.210938 C 45.171875 57.070312 44.339844 57.5 43.246094 57.5 C 42.160156 57.5 41.328125 57.070312 40.753906 56.210938 C 40.175781 55.347656 39.890625 54.097656 39.890625 52.460938 C 39.890625 50.820312 40.175781 49.570312 40.753906 48.710938 C 41.328125 47.847656 42.160156 47.414062 43.246094 47.414062 Z M 43.246094 47.414062 "/>
<path style=" stroke:none;fill-rule:nonzero;fill:rgb(0%,0%,0%);fill-opacity:1;" d="M 12.441406 102.867188 L 15.988281 105.507812 L 19.730469 102.734375 L 19.730469 104.144531 L 16.867188 106.269531 L 19.730469 108.390625 L 19.730469 109.804688 L 15.917969 106.972656 L 12.441406 109.5625 L 12.441406 108.148438 L 15.039062 106.214844 L 12.441406 104.285156 Z M 12.441406 102.867188 "/>
<path style=" stroke:none;fill-rule:nonzero;fill:rgb(0%,0%,0%);fill-opacity:1;" d="M 18.625 99.738281 L 18.625 95.148438 L 19.730469 95.148438 L 19.730469 101.320312 L 18.625 101.320312 C 18.109375 100.820312 17.414062 100.140625 16.546875 99.28125 C 15.675781 98.417969 15.113281 97.875 14.859375 97.65625 C 14.386719 97.234375 13.988281 96.941406 13.660156 96.773438 C 13.332031 96.605469 13.011719 96.523438 12.695312 96.523438 C 12.175781 96.523438 11.757812 96.703125 11.429688 97.066406 C 11.105469 97.429688 10.941406 97.898438 10.941406 98.480469 C 10.941406 98.894531 11.011719 99.332031 11.15625 99.789062 C 11.300781 100.246094 11.515625 100.734375 11.808594 101.253906 L 10.480469 101.253906 C 10.265625 100.726562 10.105469 100.230469 9.996094 99.773438 C 9.890625 99.3125 9.835938 98.890625 9.835938 98.507812 C 9.835938 97.5 10.085938 96.699219 10.589844 96.097656 C 11.09375 95.5 11.765625 95.199219 12.609375 95.199219 C 13.007812 95.199219 13.386719 95.277344 13.746094 95.425781 C 14.101562 95.574219 14.523438 95.847656 15.011719 96.242188 C 15.136719 96.351562 15.5 96.695312 16.101562 97.277344 C 16.703125 97.859375 17.542969 98.679688 18.625 99.738281 Z M 18.625 99.738281 "/>
<path style="fill:none;stroke-width:1.5;stroke-linecap:square;stroke-linejoin:round;stroke:rgb(100%,49.803922%,5.490196%);stroke-opacity:1;stroke-miterlimit:4;" d="M 57.878906 110.261719 L 88.394531 81.832031 L 112.807617 64.772461 L 132.336914 54.536133 L 147.960938 48.395508 L 160.458984 44.712891 L 170.458008 42.500977 L 178.458984 41.173828 L 184.857422 40.379883 L 189.978516 39.902344 L 194.074219 39.615234 L 197.349609 39.442383 L 199.97168 39.339844 L 202.069336 39.27832 L 203.745117 39.240234 L 205.086914 39.216797 L 206.162109 39.205078 L 207.020508 39.196289 L 207.708984 39.19043 L 208.256836 39.1875 L 208.696289 39.1875 " transform="matrix(1.333333,0,0,1.333333,0,0.000000000000014211)"/>
<path style="fill-rule:nonzero;fill:rgb(100%,49.803922%,5.490196%);fill-opacity:1;stroke-width:1;stroke-linecap:butt;stroke-linejoin:round;stroke:rgb(100%,49.803922%,5.490196%);stroke-opacity:1;stroke-miterlimit:4;" d="M 0.000782013 3.000183 C 0.794727 3.000183 1.559376 2.683777 2.121876 2.121277 C 2.684376 1.558777 3.000782 0.797058 3.000782 0.000183105 C 3.000782 -0.796692 2.684376 -1.558411 2.121876 -2.120911 C 1.559376 -2.683411 0.794727 -2.999817 0.000782013 -2.999817 C -0.796093 -2.999817 -1.557812 -2.683411 -2.120312 -2.120911 C -2.682812 -1.558411 -2.999218 -0.796692 -2.999218 0.000183105 C -2.999218 0.797058 -2.682812 1.558777 -2.120312 2.121277 C -1.557812 2.683777 -0.796093 3.000183 0.000782013 3.000183 Z M 0.000782013 3.000183 " transform="matrix(1.333333,0,0,1.333333,77.170832,147.015381)"/>
<path style="fill-rule:nonzero;fill:rgb(100%,49.803922%,5.490196%);fill-opacity:1;stroke-width:1;stroke-linecap:butt;stroke-linejoin:round;stroke:rgb(100%,49.803922%,5.490196%);stroke-opacity:1;stroke-miterlimit:4;" d="M 0.000785828 3.001259 C 0.794731 3.001259 1.55938 2.684853 2.12188 2.122353 C 2.68438 1.559853 3.000786 0.795204 3.000786 0.00125885 C 3.000786 -0.795616 2.68438 -1.557335 2.12188 -2.122765 C 1.55938 -2.685265 0.794731 -2.998741 0.000785828 -2.998741 C -0.796089 -2.998741 -1.557808 -2.685265 -2.120308 -2.122765 C -2.682808 -1.557335 -2.999214 -0.795616 -2.999214 0.00125885 C -2.999214 0.795204 -2.682808 1.559853 -2.120308 2.122353 C -1.557808 2.684853 -0.796089 3.001259 0.000785828 3.001259 Z M 0.000785828 3.001259 " transform="matrix(1.333333,0,0,1.333333,117.858327,109.107697)"/>
<path style="fill-rule:nonzero;fill:rgb(100%,49.803922%,5.490196%);fill-opacity:1;stroke-width:1;stroke-linecap:butt;stroke-linejoin:round;stroke:rgb(100%,49.803922%,5.490196%);stroke-opacity:1;stroke-miterlimit:4;" d="M 0.00136566 3.000153 C 0.795311 3.000153 1.559959 2.683746 2.122459 2.121246 C 2.684959 1.558746 3.001366 0.797028 3.001366 0.000152588 C 3.001366 -0.796722 2.684959 -1.558441 2.122459 -2.120941 C 1.559959 -2.683441 0.795311 -2.999847 0.00136566 -2.999847 C -0.795509 -2.999847 -1.560158 -2.683441 -2.122658 -2.120941 C -2.685158 -1.558441 -2.998634 -0.796722 -2.998634 0.000152588 C -2.998634 0.797028 -2.685158 1.558746 -2.122658 2.121246 C -1.560158 2.683746 -0.795509 3.000153 0.00136566 3.000153 Z M 0.00136566 3.000153 " transform="matrix(1.333333,0,0,1.333333,150.408335,86.363078)"/>
<path style="fill-rule:nonzero;fill:rgb(100%,49.803922%,5.490196%);fill-opacity:1;stroke-width:1;stroke-linecap:butt;stroke-linejoin:round;stroke:rgb(100%,49.803922%,5.490196%);stroke-opacity:1;stroke-miterlimit:4;" d="M 0.000671387 2.998901 C 0.794617 2.998901 1.559265 2.682495 2.121765 2.119995 C 2.684265 1.557495 3.000671 0.795776 3.000671 -0.00109863 C 3.000671 -0.795044 2.684265 -1.559692 2.121765 -2.122192 C 1.559265 -2.684692 0.794617 -3.001099 0.000671387 -3.001099 C -0.796204 -3.001099 -1.557922 -2.684692 -2.120422 -2.122192 C -2.682922 -1.559692 -2.999329 -0.795044 -2.999329 -0.00109863 C -2.999329 0.795776 -2.682922 1.557495 -2.120422 2.119995 C -1.557922 2.682495 -0.796204 2.998901 0.000671387 2.998901 Z M 0.000671387 2.998901 " transform="matrix(1.333333,0,0,1.333333,176.448324,72.716309)"/>
<path style="fill-rule:nonzero;fill:rgb(100%,49.803922%,5.490196%);fill-opacity:1;stroke-width:1;stroke-linecap:butt;stroke-linejoin:round;stroke:rgb(100%,49.803922%,5.490196%);stroke-opacity:1;stroke-miterlimit:4;" d="M 0.000686646 2.999321 C 0.794632 2.999321 1.55928 2.682915 2.12178 2.120415 C 2.68428 1.557915 3.000687 0.796196 3.000687 -0.000679016 C 3.000687 -0.794624 2.68428 -1.559273 2.12178 -2.121773 C 1.55928 -2.684273 0.794632 -3.000679 0.000686646 -3.000679 C -0.796188 -3.000679 -1.557907 -2.684273 -2.120407 -2.121773 C -2.682907 -1.559273 -2.999313 -0.794624 -2.999313 -0.000679016 C -2.999313 0.796196 -2.682907 1.557915 -2.120407 2.120415 C -1.557907 2.682915 -0.796188 2.999321 0.000686646 2.999321 Z M 0.000686646 2.999321 " transform="matrix(1.333333,0,0,1.333333,197.280334,64.528249)"/>
<path style="fill-rule:nonzero;fill:rgb(100%,49.803922%,5.490196%);fill-opacity:1;stroke-width:1;stroke-linecap:butt;stroke-linejoin:round;stroke:rgb(100%,49.803922%,5.490196%);stroke-opacity:1;stroke-miterlimit:4;" d="M -0.000457764 3.001331 C 0.796417 3.001331 1.558136 2.684925 2.120636 2.122425 C 2.683136 1.559925 2.999542 0.795277 2.999542 0.00133133 C 2.999542 -0.795544 2.683136 -1.560192 2.120636 -2.122692 C 1.558136 -2.685192 0.796417 -2.998669 -0.000457764 -2.998669 C -0.794403 -2.998669 -1.559052 -2.685192 -2.121552 -2.122692 C -2.684052 -1.560192 -3.000458 -0.795544 -3.000458 0.00133133 C -3.000458 0.795277 -2.684052 1.559925 -2.121552 2.122425 C -1.559052 2.684925 -0.794403 3.001331 -0.000457764 3.001331 Z M -0.000457764 3.001331 " transform="matrix(1.333333,0,0,1.333333,213.945923,59.615412)"/>
<path style="fill-rule:nonzero;fill:rgb(100%,49.803922%,5.490196%);fill-opacity:1;stroke-width:1;stroke-linecap:butt;stroke-linejoin:round;stroke:rgb(100%,49.803922%,5.490196%);stroke-opacity:1;stroke-miterlimit:4;" d="M -0.000793457 3.000195 C 0.796082 3.000195 1.5578 2.683788 2.1203 2.121288 C 2.6828 1.558788 2.999207 0.79707 2.999207 0.00019455 C 2.999207 -0.79668 2.6828 -1.558399 2.1203 -2.120899 C 1.5578 -2.683399 0.796082 -2.999805 -0.000793457 -2.999805 C -0.794739 -2.999805 -1.559387 -2.683399 -2.121887 -2.120899 C -2.684387 -1.558399 -3.000793 -0.79668 -3.000793 0.00019455 C -3.000793 0.79707 -2.684387 1.558788 -2.121887 2.121288 C -1.559387 2.683788 -0.794739 3.000195 -0.000793457 3.000195 Z M -0.000793457 3.000195 " transform="matrix(1.333333,0,0,1.333333,227.278402,56.667709)"/>
<path style="fill-rule:nonzero;fill:rgb(100%,49.803922%,5.490196%);fill-opacity:1;stroke-width:1;stroke-linecap:butt;stroke-linejoin:round;stroke:rgb(100%,49.803922%,5.490196%);stroke-opacity:1;stroke-miterlimit:4;" d="M 0.000686646 2.999512 C 0.794632 2.999512 1.55928 2.683105 2.12178 2.120605 C 2.68428 1.558105 3.000687 0.796387 3.000687 -0.000488281 C 3.000687 -0.794434 2.68428 -1.559082 2.12178 -2.121582 C 1.55928 -2.684082 0.794632 -3.000488 0.000686646 -3.000488 C -0.796188 -3.000488 -1.557907 -2.684082 -2.120407 -2.121582 C -2.682907 -1.559082 -2.999313 -0.794434 -2.999313 -0.000488281 C -2.999313 0.796387 -2.682907 1.558105 -2.120407 2.120605 C -1.557907 2.683105 -0.796188 2.999512 0.000686646 2.999512 Z M 0.000686646 2.999512 " transform="matrix(1.333333,0,0,1.333333,237.944397,54.899089)"/>
<path style="fill-rule:nonzero;fill:rgb(100%,49.803922%,5.490196%);fill-opacity:1;stroke-width:1;stroke-linecap:butt;stroke-linejoin:round;stroke:rgb(100%,49.803922%,5.490196%);stroke-opacity:1;stroke-miterlimit:4;" d="M -0.000457764 3.001446 C 0.796417 3.001446 1.558136 2.68504 2.120636 2.12254 C 2.683136 1.56004 2.999542 0.795391 2.999542 0.00144577 C 2.999542 -0.795429 2.683136 -1.560078 2.120636 -2.122578 C 1.558136 -2.685078 0.796417 -2.998554 -0.000457764 -2.998554 C -0.794403 -2.998554 -1.559052 -2.685078 -2.121552 -2.122578 C -2.684052 -1.560078 -3.000458 -0.795429 -3.000458 0.00144577 C -3.000458 0.795391 -2.684052 1.56004 -2.121552 2.12254 C -1.559052 2.68504 -0.794403 3.001446 -0.000457764 3.001446 Z M -0.000457764 3.001446 " transform="matrix(1.333333,0,0,1.333333,246.477173,53.837916)"/>
<path style="fill-rule:nonzero;fill:rgb(100%,49.803922%,5.490196%);fill-opacity:1;stroke-width:1;stroke-linecap:butt;stroke-linejoin:round;stroke:rgb(100%,49.803922%,5.490196%);stroke-opacity:1;stroke-miterlimit:4;" d="M 0.000961304 3.001434 C 0.794907 3.001434 1.559555 2.685028 2.122055 2.122528 C 2.684555 1.560028 3.000961 0.79538 3.000961 0.00143433 C 3.000961 -0.795441 2.684555 -1.560089 2.122055 -2.122589 C 1.559555 -2.685089 0.794907 -2.998566 0.000961304 -2.998566 C -0.795914 -2.998566 -1.557632 -2.685089 -2.120132 -2.122589 C -2.682632 -1.560089 -2.999039 -0.795441 -2.999039 0.00143433 C -2.999039 0.79538 -2.682632 1.560028 -2.120132 2.122528 C -1.557632 2.685028 -0.795914 3.001434 0.000961304 3.001434 Z M 0.000961304 3.001434 " transform="matrix(1.333333,0,0,1.333333,253.303406,53.201213)"/>
<path style="fill-rule:nonzero;fill:rgb(100%,49.803922%,5.490196%);fill-opacity:1;stroke-width:1;stroke-linecap:butt;stroke-linejoin:round;stroke:rgb(100%,49.803922%,5.490196%);stroke-opacity:1;stroke-miterlimit:4;" d="M 0.000915527 3.000843 C 0.794861 3.000843 1.559509 2.684437 2.122009 2.121937 C 2.684509 1.559437 3.000916 0.794788 3.000916 0.000843048 C 3.000916 -0.796032 2.684509 -1.557751 2.122009 -2.120251 C 1.559509 -2.682751 0.794861 -2.999157 0.000915527 -2.999157 C -0.795959 -2.999157 -1.557678 -2.682751 -2.120178 -2.120251 C -2.682678 -1.557751 -2.999084 -0.796032 -2.999084 0.000843048 C -2.999084 0.794788 -2.682678 1.559437 -2.120178 2.121937 C -1.557678 2.684437 -0.795959 3.000843 0.000915527 3.000843 Z M 0.000915527 3.000843 " transform="matrix(1.333333,0,0,1.333333,258.764404,52.819188)"/>
<path style="fill-rule:nonzero;fill:rgb(100%,49.803922%,5.490196%);fill-opacity:1;stroke-width:1;stroke-linecap:butt;stroke-linejoin:round;stroke:rgb(100%,49.803922%,5.490196%);stroke-opacity:1;stroke-miterlimit:4;" d="M -0.000274658 2.999901 C 0.7966 2.999901 1.558319 2.683495 2.120819 2.120995 C 2.683319 1.558495 2.999725 0.796776 2.999725 -0.0000991821 C 2.999725 -0.796974 2.683319 -1.558693 2.120819 -2.121193 C 1.558319 -2.683693 0.7966 -3.000099 -0.000274658 -3.000099 C -0.79422 -3.000099 -1.558868 -2.683693 -2.121368 -2.121193 C -2.683868 -1.558693 -3.000275 -0.796974 -3.000275 -0.0000991821 C -3.000275 0.796776 -2.683868 1.558495 -2.121368 2.120995 C -1.558868 2.683495 -0.79422 2.999901 -0.000274658 2.999901 Z M -0.000274658 2.999901 " transform="matrix(1.333333,0,0,1.333333,263.133179,52.589976)"/>
<path style="fill-rule:nonzero;fill:rgb(100%,49.803922%,5.490196%);fill-opacity:1;stroke-width:1;stroke-linecap:butt;stroke-linejoin:round;stroke:rgb(100%,49.803922%,5.490196%);stroke-opacity:1;stroke-miterlimit:4;" d="M 0.000518799 3.000507 C 0.794464 3.000507 1.559113 2.684101 2.121613 2.121601 C 2.684113 1.559101 3.000519 0.794453 3.000519 0.000507355 C 3.000519 -0.796368 2.684113 -1.558086 2.121613 -2.120586 C 1.559113 -2.683086 0.794464 -2.999493 0.000518799 -2.999493 C -0.796356 -2.999493 -1.558075 -2.683086 -2.120575 -2.120586 C -2.683075 -1.558086 -2.999481 -0.796368 -2.999481 0.000507355 C -2.999481 0.794453 -2.683075 1.559101 -2.120575 2.121601 C -1.558075 2.684101 -0.796356 3.000507 0.000518799 3.000507 Z M 0.000518799 3.000507 " transform="matrix(1.333333,0,0,1.333333,266.628215,52.452449)"/>
<path style="fill-rule:nonzero;fill:rgb(100%,49.803922%,5.490196%);fill-opacity:1;stroke-width:1;stroke-linecap:butt;stroke-linejoin:round;stroke:rgb(100%,49.803922%,5.490196%);stroke-opacity:1;stroke-miterlimit:4;" d="M 0.00115967 3.00087 C 0.795105 3.00087 1.559753 2.684464 2.122253 2.121964 C 2.684753 1.559464 3.00116 0.794815 3.00116 0.000869751 C 3.00116 -0.796005 2.684753 -1.557724 2.122253 -2.120224 C 1.559753 -2.682724 0.795105 -2.99913 0.00115967 -2.99913 C -0.795715 -2.99913 -1.557434 -2.682724 -2.119934 -2.120224 C -2.685364 -1.557724 -2.99884 -0.796005 -2.99884 0.000869751 C -2.99884 0.794815 -2.685364 1.559464 -2.119934 2.121964 C -1.557434 2.684464 -0.795715 3.00087 0.00115967 3.00087 Z M 0.00115967 3.00087 " transform="matrix(1.333333,0,0,1.333333,269.424235,52.369934)"/>
<path style="fill-rule:nonzero;fill:rgb(100%,49.803922%,5.490196%);fill-opacity:1;stroke-width:1;stroke-linecap:butt;stroke-linejoin:round;stroke:rgb(100%,49.803922%,5.490196%);stroke-opacity:1;stroke-miterlimit:4;" d="M -0.000671387 2.999916 C 0.796204 2.999916 1.557922 2.68351 2.120422 2.12101 C 2.682922 1.55851 2.999329 0.796791 2.999329 -0.0000839233 C 2.999329 -0.796959 2.682922 -1.558678 2.120422 -2.121178 C 1.557922 -2.683678 0.796204 -3.000084 -0.000671387 -3.000084 C -0.794617 -3.000084 -1.559265 -2.683678 -2.121765 -2.121178 C -2.684265 -1.558678 -3.000671 -0.796959 -3.000671 -0.0000839233 C -3.000671 0.796791 -2.684265 1.55851 -2.121765 2.12101 C -1.559265 2.68351 -0.794617 2.999916 -0.000671387 2.999916 Z M -0.000671387 2.999916 " transform="matrix(1.333333,0,0,1.333333,271.661051,52.320424)"/>
<path style="fill-rule:nonzero;fill:rgb(100%,49.803922%,5.490196%);fill-opacity:1;stroke-width:1;stroke-linecap:butt;stroke-linejoin:round;stroke:rgb(100%,49.803922%,5.490196%);stroke-opacity:1;stroke-miterlimit:4;" d="M -0.000961304 2.99876 C 0.795914 2.99876 1.557632 2.685284 2.120132 2.122784 C 2.682632 1.557354 2.999039 0.795635 2.999039 -0.00123978 C 2.999039 -0.795185 2.682632 -1.559834 2.120132 -2.122334 C 1.557632 -2.684834 0.795914 -3.00124 -0.000961304 -3.00124 C -0.794907 -3.00124 -1.559555 -2.684834 -2.122055 -2.122334 C -2.684555 -1.559834 -3.000961 -0.795185 -3.000961 -0.00123978 C -3.000961 0.795635 -2.684555 1.557354 -2.122055 2.122784 C -1.559555 2.685284 -0.794907 2.99876 -0.000961304 2.99876 Z M -0.000961304 2.99876 " transform="matrix(1.333333,0,0,1.333333,273.4505,52.290716)"/>
<path style="fill-rule:nonzero;fill:rgb(100%,49.803922%,5.490196%);fill-opacity:1;stroke-width:1;stroke-linecap:butt;stroke-linejoin:round;stroke:rgb(100%,49.803922%,5.490196%);stroke-opacity:1;stroke-miterlimit:4;" d="M 0.000549316 3.000408 C 0.794495 3.000408 1.559143 2.684002 2.121643 2.121502 C 2.684143 1.559002 3.000549 0.794353 3.000549 0.000408173 C 3.000549 -0.796467 2.684143 -1.558186 2.121643 -2.120686 C 1.559143 -2.683186 0.794495 -2.999592 0.000549316 -2.999592 C -0.796326 -2.999592 -1.558044 -2.683186 -2.120544 -2.120686 C -2.683044 -1.558186 -2.999451 -0.796467 -2.999451 0.000408173 C -2.999451 0.794353 -2.683044 1.559002 -2.120544 2.121502 C -1.558044 2.684002 -0.796326 3.000408 0.000549316 3.000408 Z M 0.000549316 3.000408 " transform="matrix(1.333333,0,0,1.333333,274.88208,52.272893)"/>
<path style="fill-rule:nonzero;fill:rgb(100%,49.803922%,5.490196%);fill-opacity:1;stroke-width:1;stroke-linecap:butt;stroke-linejoin:round;stroke:rgb(100%,49.803922%,5.490196%);stroke-opacity:1;stroke-miterlimit:4;" d="M 0.0000152588 2.999641 C 0.79689 2.999641 1.558609 2.683235 2.121109 2.120735 C 2.683609 1.558235 3.000015 0.796516 3.000015 -0.000358582 C 3.000015 -0.794304 2.683609 -1.558952 2.121109 -2.121452 C 1.558609 -2.683952 0.79689 -3.000359 0.0000152588 -3.000359 C -0.79686 -3.000359 -1.558578 -2.683952 -2.121078 -2.121452 C -2.683578 -1.558952 -2.999985 -0.794304 -2.999985 -0.000358582 C -2.999985 0.796516 -2.683578 1.558235 -2.121078 2.120735 C -1.558578 2.683235 -0.79686 2.999641 0.0000152588 2.999641 Z M 0.0000152588 2.999641 " transform="matrix(1.333333,0,0,1.333333,276.027323,52.262197)"/>
<path style="fill-rule:nonzero;fill:rgb(100%,49.803922%,5.490196%);fill-opacity:1;stroke-width:1;stroke-linecap:butt;stroke-linejoin:round;stroke:rgb(100%,49.803922%,5.490196%);stroke-opacity:1;stroke-miterlimit:4;" d="M 0.00134277 2.998592 C 0.795288 2.998592 1.559937 2.685116 2.122437 2.122616 C 2.684937 1.560116 3.001343 0.795467 3.001343 -0.00140762 C 3.001343 -0.795353 2.684937 -1.560001 2.122437 -2.122501 C 1.559937 -2.685001 0.795288 -3.001408 0.00134277 -3.001408 C -0.795532 -3.001408 -1.560181 -2.685001 -2.122681 -2.122501 C -2.685181 -1.560001 -2.998657 -0.795353 -2.998657 -0.00140762 C -2.998657 0.795467 -2.685181 1.560116 -2.122681 2.122616 C -1.560181 2.685116 -0.795532 2.998592 0.00134277 2.998592 Z M 0.00134277 2.998592 " transform="matrix(1.333333,0,0,1.333333,276.943522,52.255783)"/>
<path style="fill-rule:nonzero;fill:rgb(100%,49.803922%,5.490196%);fill-opacity:1;stroke-width:1;stroke-linecap:butt;stroke-linejoin:round;stroke:rgb(100%,49.803922%,5.490196%);stroke-opacity:1;stroke-miterlimit:4;" d="M -0.000534058 2.99855 C 0.796341 2.99855 1.55806 2.685074 2.12056 2.122574 C 2.68306 1.560074 2.999466 0.795425 2.999466 -0.00144958 C 2.999466 -0.795395 2.68306 -1.560043 2.12056 -2.122543 C 1.55806 -2.685043 0.796341 -3.00145 -0.000534058 -3.00145 C -0.794479 -3.00145 -1.559128 -2.685043 -2.121628 -2.122543 C -2.684128 -1.560043 -3.000534 -0.795395 -3.000534 -0.00144958 C -3.000534 0.795425 -2.684128 1.560074 -2.121628 2.122574 C -1.559128 2.685074 -0.794479 2.99855 -0.000534058 2.99855 Z M -0.000534058 2.99855 " transform="matrix(1.333333,0,0,1.333333,277.676493,52.251933)"/>
<path style="fill-rule:nonzero;fill:rgb(100%,49.803922%,5.490196%);fill-opacity:1;stroke-width:1;stroke-linecap:butt;stroke-linejoin:round;stroke:rgb(100%,49.803922%,5.490196%);stroke-opacity:1;stroke-miterlimit:4;" d="M -0.000854492 3.000282 C 0.796021 3.000282 1.557739 2.683876 2.120239 2.121376 C 2.682739 1.558876 2.999146 0.794228 2.999146 0.000282288 C 2.999146 -0.796593 2.682739 -1.558311 2.120239 -2.120811 C 1.557739 -2.683311 0.796021 -2.999718 -0.000854492 -2.999718 C -0.7948 -2.999718 -1.559448 -2.683311 -2.121948 -2.120811 C -2.684448 -1.558311 -3.000854 -0.796593 -3.000854 0.000282288 C -3.000854 0.794228 -2.684448 1.558876 -2.121948 2.121376 C -1.559448 2.683876 -0.7948 3.000282 -0.000854492 3.000282 Z M -0.000854492 3.000282 " transform="matrix(1.333333,0,0,1.333333,278.262858,52.249624)"/>
<g clip-path="url(#clip1)" clip-rule="nonzero">
<path style="fill:none;stroke-width:1.5;stroke-linecap:butt;stroke-linejoin:round;stroke:rgb(12.156863%,46.666667%,70.588237%);stroke-opacity:1;stroke-miterlimit:4;" d="M 237.919922 106.564453 L 237.380859 106.708008 L 234.870117 107.34668 L 231.817383 108.029297 L 228.764648 108.621094 L 225.714844 109.12207 L 222.662109 109.532227 L 219.612305 109.851562 L 216.55957 110.080078 L 213.506836 110.214844 L 210.457031 110.261719 L 207.404297 110.214844 L 204.354492 110.080078 L 201.301758 109.851562 L 198.249023 109.532227 L 195.199219 109.12207 L 192.146484 108.621094 L 189.09668 108.029297 L 186.043945 107.34668 L 183.530273 106.708008 L 182.991211 106.564453 L 179.941406 105.650391 L 176.888672 104.642578 L 173.838867 103.538086 L 172.860352 103.154297 L 170.786133 102.290039 L 167.733398 100.918945 L 164.99707 99.600586 L 164.683594 99.439453 L 161.630859 97.769531 L 158.671875 96.046875 L 158.581055 95.988281 L 155.52832 93.981445 L 153.383789 92.493164 L 152.475586 91.819336 L 149.425781 89.428711 L 148.828125 88.939453 L 146.373047 86.765625 L 144.881836 85.385742 L 143.323242 83.821289 L 141.421875 81.832031 L 140.270508 80.516602 L 138.386719 78.27832 L 137.217773 76.754883 L 135.723633 74.72168 L 134.167969 72.383789 L 133.388672 71.167969 L 131.355469 67.614258 L 131.115234 67.142578 L 129.618164 64.060547 L 128.121094 60.506836 L 128.06543 60.345703 L 126.899414 56.953125 L 125.900391 53.399414 L 125.124023 49.845703 L 125.012695 49.136719 L 124.584961 46.291992 L 124.262695 42.738281 L 124.157227 39.18457 L 124.262695 35.630859 L 124.584961 32.077148 L 125.012695 29.232422 L 125.124023 28.523437 L 125.900391 24.969727 L 126.899414 21.416016 L 128.06543 18.023437 L 128.121094 17.862305 L 129.618164 14.308594 L 131.115234 11.226562 L 131.355469 10.754883 L 133.388672 7.201172 " transform="matrix(1.333333,0,0,1.333333,0,0.000000000000014211)"/>
</g>
<g clip-path="url(#clip2)" clip-rule="nonzero">
<path style="fill:none;stroke-width:1.5;stroke-linecap:butt;stroke-linejoin:round;stroke:rgb(12.156863%,46.666667%,70.588237%);stroke-opacity:1;stroke-miterlimit:4;" d="M 237.919922 137.109375 L 234.870117 137.657227 L 231.817383 138.143555 L 228.764648 138.5625 L 227.657227 138.691406 L 225.714844 138.911133 L 222.662109 139.192383 L 219.612305 139.40918 L 216.55957 139.564453 L 213.506836 139.658203 L 210.457031 139.69043 L 207.404297 139.658203 L 204.354492 139.564453 L 201.301758 139.40918 L 198.249023 139.192383 L 195.199219 138.911133 L 193.256836 138.691406 L 192.146484 138.5625 L 189.09668 138.143555 L 186.043945 137.657227 L 182.991211 137.109375 L 179.941406 136.494141 L 176.888672 135.817383 L 174.102539 135.137695 L 173.838867 135.070312 L 170.786133 134.232422 L 167.733398 133.327148 L 164.683594 132.354492 L 162.418945 131.583984 L 161.630859 131.305664 L 158.581055 130.157227 L 155.52832 128.935547 L 153.383789 128.030273 L 152.475586 127.631836 L 149.425781 126.216797 L 146.373047 124.731445 L 145.87793 124.476562 L 143.323242 123.117187 L 140.270508 121.415039 L 139.426758 120.922852 L 137.217773 119.581055 L 134.167969 117.644531 L 133.749023 117.369141 L 131.115234 115.549805 L 128.698242 113.81543 L 128.06543 113.337891 L 125.012695 110.956055 L 124.157227 110.261719 L 121.959961 108.392578 L 120.046875 106.708008 L 118.910156 105.650391 L 116.308594 103.154297 L 115.857422 102.697266 L 112.904297 99.600586 L 112.807617 99.492187 L 109.801758 96.046875 L 109.754883 95.988281 L 106.977539 92.493164 L 106.702148 92.124023 L 104.402344 88.939453 L 103.652344 87.820312 L 102.061523 85.385742 L 100.599609 82.96875 L 99.931641 81.832031 L 98.006836 78.27832 L 97.549805 77.34668 L 96.287109 74.72168 L 94.740234 71.167969 L 94.49707 70.541016 L 93.386719 67.614258 L 92.197266 64.060547 L 91.444336 61.464844 L 91.174805 60.506836 L 90.325195 56.953125 L 89.630859 53.399414 L 89.088867 49.845703 L 88.702148 46.291992 L 88.470703 42.738281 L 88.394531 39.18457 L 88.470703 35.630859 L 88.702148 32.077148 L 89.088867 28.523437 L 89.630859 24.969727 L 90.325195 21.416016 L 91.174805 17.862305 L 91.444336 16.904297 L 92.197266 14.308594 L 93.386719 10.754883 L 94.49707 7.828125 L 94.740234 7.201172 " transform="matrix(1.333333,0,0,1.333333,0,0.000000000000014211)"/>
</g>
<g clip-path="url(#clip3)" clip-rule="nonzero">
<path style="fill:none;stroke-width:1.5;stroke-linecap:butt;stroke-linejoin:round;stroke:rgb(12.156863%,46.666667%,70.588237%);stroke-opacity:1;stroke-miterlimit:4;" d="M 135.723633 145.798828 L 134.167969 145.045898 L 131.115234 143.510742 L 128.698242 142.245117 L 128.06543 141.902344 L 125.012695 140.188477 L 122.443359 138.691406 L 121.959961 138.401367 L 118.910156 136.494141 L 116.80957 135.137695 L 115.857422 134.501953 L 112.807617 132.389648 L 111.679688 131.583984 L 109.754883 130.157227 L 106.977539 128.030273 L 106.702148 127.813477 L 103.652344 125.311523 L 102.662109 124.476562 L 100.599609 122.663086 L 98.677734 120.922852 L 97.549805 119.856445 L 94.986328 117.369141 L 94.49707 116.874023 L 91.564453 113.81543 L 91.444336 113.686523 L 88.394531 110.261719 L 85.456055 106.708008 L 85.341797 106.564453 L 82.731445 103.154297 L 82.291992 102.544922 L 80.208984 99.600586 L 79.239258 98.147461 L 77.871094 96.046875 L 76.186523 93.295898 L 75.706055 92.493164 L 73.719727 88.939453 L 73.136719 87.820312 L 71.894531 85.385742 L 70.21875 81.832031 L 70.083984 81.521484 L 68.707031 78.27832 L 67.327148 74.72168 L 67.03418 73.880859 L 66.102539 71.167969 L 65.009766 67.614258 L 64.045898 64.060547 L 63.981445 63.788086 L 63.225586 60.506836 L 62.53418 56.953125 L 61.96875 53.399414 L 61.526367 49.845703 L 61.212891 46.291992 L 61.025391 42.738281 L 60.960938 39.18457 L 61.025391 35.630859 L 61.212891 32.077148 L 61.526367 28.523437 L 61.96875 24.969727 L 62.53418 21.416016 L 63.225586 17.862305 L 63.981445 14.581055 L 64.045898 14.308594 L 65.009766 10.754883 L 66.102539 7.201172 " transform="matrix(1.333333,0,0,1.333333,0,0.000000000000014211)"/>
</g>
<g clip-path="url(#clip4)" clip-rule="nonzero">
<path style="fill:none;stroke-width:1.5;stroke-linecap:butt;stroke-linejoin:round;stroke:rgb(12.156863%,46.666667%,70.588237%);stroke-opacity:1;stroke-miterlimit:4;" d="M 96.287109 145.798828 L 94.49707 144.474609 L 91.564453 142.245117 L 91.444336 142.151367 L 88.394531 139.69043 L 87.1875 138.691406 L 85.341797 137.109375 L 83.100586 135.137695 L 82.291992 134.402344 L 79.274414 131.583984 L 79.239258 131.548828 L 76.186523 128.519531 L 75.706055 128.030273 L 73.136719 125.311523 L 72.363281 124.476562 L 70.083984 121.907227 L 69.231445 120.922852 L 67.03418 118.277344 L 66.292969 117.369141 L 63.981445 114.392578 L 63.541992 113.81543 L 60.960938 110.261719 L 60.928711 110.214844 L 58.555664 106.708008 L 57.878906 105.650391 L 56.305664 103.154297 L 54.826172 100.666992 L 54.205078 99.600586 L 52.248047 96.046875 L 51.776367 95.129883 L 50.4375 92.493164 L 48.75293 88.939453 L 48.723633 88.87207 L 47.211914 85.385742 L 45.785156 81.832031 L 45.670898 81.521484 L 44.496094 78.27832 L 43.321289 74.72168 L 42.621094 72.383789 " transform="matrix(1.333333,0,0,1.333333,0,0.000000000000014211)"/>
</g>
<g clip-path="url(#clip5)" clip-rule="nonzero">
<path style="fill:none;stroke-width:1.5;stroke-linecap:butt;stroke-linejoin:round;stroke:rgb(12.156863%,46.666667%,70.588237%);stroke-opacity:1;stroke-miterlimit:4;" d="M 67.327148 145.798828 L 67.03418 145.529297 L 63.981445 142.666992 L 63.541992 142.245117 L 60.928711 139.658203 L 59.973633 138.691406 L 57.878906 136.494141 L 56.610352 135.137695 L 54.826172 133.160156 L 53.43457 131.583984 L 51.776367 129.632812 L 50.4375 128.030273 L 48.723633 125.891602 L 47.610352 124.476562 L 45.670898 121.907227 L 44.944336 120.922852 L 42.621094 117.644531 " transform="matrix(1.333333,0,0,1.333333,0,0.000000000000014211)"/>
</g>
<g clip-path="url(#clip6)" clip-rule="nonzero">
<path style="fill:none;stroke-width:1.5;stroke-linecap:butt;stroke-linejoin:round;stroke:rgb(12.156863%,46.666667%,70.588237%);stroke-opacity:1;stroke-miterlimit:4;" d="M 43.321289 145.798828 L 42.621094 145.045898 " transform="matrix(1.333333,0,0,1.333333,0,0.000000000000014211)"/>
</g>
<path style="fill:none;stroke-width:0.8;stroke-linecap:square;stroke-linejoin:miter;stroke:rgb(0%,0%,0%);stroke-opacity:1;stroke-miterlimit:4;" d="M 42.621094 145.798828 L 42.621094 7.201172 " transform="matrix(1.333333,0,0,1.333333,0,0.000000000000014211)"/>
<path style="fill:none;stroke-width:0.8;stroke-linecap:square;stroke-linejoin:miter;stroke:rgb(0%,0%,0%);stroke-opacity:1;stroke-miterlimit:4;" d="M 237.919922 145.798828 L 237.919922 7.201172 " transform="matrix(1.333333,0,0,1.333333,0,0.000000000000014211)"/>
<path style="fill:none;stroke-width:0.8;stroke-linecap:square;stroke-linejoin:miter;stroke:rgb(0%,0%,0%);stroke-opacity:1;stroke-miterlimit:4;" d="M 42.621094 145.798828 L 237.919922 145.798828 " transform="matrix(1.333333,0,0,1.333333,0,0.000000000000014211)"/>
<path style="fill:none;stroke-width:0.8;stroke-linecap:square;stroke-linejoin:miter;stroke:rgb(0%,0%,0%);stroke-opacity:1;stroke-miterlimit:4;" d="M 42.621094 7.201172 L 237.919922 7.201172 " transform="matrix(1.333333,0,0,1.333333,0,0.000000000000014211)"/>
</g>
</svg>
