<?xml version="1.0" encoding="UTF-8"?>
<svg xmlns="http://www.w3.org/2000/svg" xmlns:xlink="http://www.w3.org/1999/xlink" width="332.620829" height="244.474996" viewBox="0 0 332.620829 244.474996" version="1.1">
<defs>
<clipPath id="clip1">
  <path d="M 73 9.601562 L 76 9.601562 L 76 194.398438 L 73 194.398438 Z M 73 9.601562 "/>
</clipPath>
<clipPath id="clip2">
  <path d="M 132 9.601562 L 135 9.601562 L 135 194.398438 L 132 194.398438 Z M 132 9.601562 "/>
</clipPath>
<clipPath id="clip3">
  <path d="M 192 9.601562 L 194 9.601562 L 194 194.398438 L 192 194.398438 Z M 192 9.601562 "/>
</clipPath>
<clipPath id="clip4">
  <path d="M 251 9.601562 L 253 9.601562 L 253 194.398438 L 251 194.398438 Z M 251 9.601562 "/>
</clipPath>
<clipPath id="clip5">
  <path d="M 310 9.601562 L 312 9.601562 L 312 194.398438 L 310 194.398438 Z M 310 9.601562 "/>
</clipPath>
<clipPath id="clip6">
  <path d="M 62.621094 185 L 323.019531 185 L 323.019531 187 L 62.621094 187 Z M 62.621094 185 "/>
</clipPath>
<clipPath id="clip7">
  <path d="M 62.621094 151 L 323.019531 151 L 323.019531 154 L 62.621094 154 Z M 62.621094 151 "/>
</clipPath>
<clipPath id="clip8">
  <path d="M 62.621094 118 L 323.019531 118 L 323.019531 120 L 62.621094 120 Z M 62.621094 118 "/>
</clipPath>
<clipPath id="clip9">
  <path d="M 62.621094 84 L 323.019531 84 L 323.019531 86 L 62.621094 86 Z M 62.621094 84 "/>
</clipPath>
<clipPath id="clip10">
  <path d="M 62.621094 50 L 323.019531 50 L 323.019531 53 L 62.621094 53 Z M 62.621094 50 "/>
</clipPath>
<clipPath id="clip11">
  <path d="M 62.621094 17 L 323.019531 17 L 323.019531 19 L 62.621094 19 Z M 62.621094 17 "/>
</clipPath>
</defs>
<g id="surface1">
<path style=" stroke:none;fill-rule:nonzero;fill:rgb(100%,100%,100%);fill-opacity:1;" d="M 0 244.476562 L 332.621094 244.476562 L 332.621094 0 L 0 0 Z M 0 244.476562 "/>
<path style=" stroke:none;fill-rule:nonzero;fill:rgb(100%,100%,100%);fill-opacity:1;" d="M 62.621094 194.398438 L 323.019531 194.398438 L 323.019531 9.601562 L 62.621094 9.601562 Z M 62.621094 194.398438 "/>
<g clip-path="url(#clip1)" clip-rule="nonzero">
<path style="fill:none;stroke-width:0.8;stroke-linecap:square;stroke-linejoin:round;stroke:rgb(69.01961%,69.01961%,69.01961%);stroke-opacity:1;stroke-miterlimit:4;" d="M 55.842773 145.798828 L 55.842773 7.201172 " transform="matrix(1.333333,0,0,1.333333,0,-0.000000000000014211)"/>
</g>
<path style="fill:none;stroke-width:0.8;stroke-linecap:butt;stroke-linejoin:round;stroke:rgb(0%,0%,0%);stroke-opacity:1;stroke-miterlimit:4;" d="M -0.000125885 -0.00117493 L -0.000125885 3.499802 " transform="matrix(1.333333,0,0,1.333333,74.457199,194.400004)"/>
<path style=" stroke:none;fill-rule:nonzero;fill:rgb(0%,0%,0%);fill-opacity:1;" d="M 61.800781 209.132812 L 70.144531 209.132812 L 70.144531 210.238281 L 61.800781 210.238281 Z M 61.800781 209.132812 "/>
<path style=" stroke:none;fill-rule:nonzero;fill:rgb(0%,0%,0%);fill-opacity:1;" d="M 73.214844 212.757812 L 75.363281 212.757812 L 75.363281 205.339844 L 73.023438 205.808594 L 73.023438 204.613281 L 75.347656 204.144531 L 76.664062 204.144531 L 76.664062 212.757812 L 78.8125 212.757812 L 78.8125 213.863281 L 73.214844 213.863281 Z M 73.214844 212.757812 "/>
<path style=" stroke:none;fill-rule:nonzero;fill:rgb(0%,0%,0%);fill-opacity:1;" d="M 84.28125 205.011719 C 83.601562 205.011719 83.09375 205.34375 82.753906 206.011719 C 82.414062 206.675781 82.242188 207.675781 82.242188 209.015625 C 82.242188 210.347656 82.414062 211.347656 82.753906 212.011719 C 83.09375 212.679688 83.601562 213.011719 84.28125 213.011719 C 84.960938 213.011719 85.472656 212.679688 85.8125 212.011719 C 86.15625 211.347656 86.324219 210.347656 86.324219 209.015625 C 86.324219 207.675781 86.15625 206.675781 85.8125 206.011719 C 85.472656 205.34375 84.960938 205.011719 84.28125 205.011719 Z M 84.28125 203.96875 C 85.371094 203.96875 86.203125 204.398438 86.777344 205.261719 C 87.351562 206.125 87.640625 207.375 87.640625 209.015625 C 87.640625 210.652344 87.351562 211.898438 86.777344 212.761719 C 86.203125 213.625 85.371094 214.054688 84.28125 214.054688 C 83.191406 214.054688 82.359375 213.625 81.785156 212.761719 C 81.210938 211.898438 80.921875 210.652344 80.921875 209.015625 C 80.921875 207.375 81.210938 206.125 81.785156 205.261719 C 82.359375 204.398438 83.191406 203.96875 84.28125 203.96875 Z M 84.28125 203.96875 "/>
<g clip-path="url(#clip2)" clip-rule="nonzero">
<path style="fill:none;stroke-width:0.8;stroke-linecap:square;stroke-linejoin:round;stroke:rgb(69.01961%,69.01961%,69.01961%);stroke-opacity:1;stroke-miterlimit:4;" d="M 100.230469 145.798828 L 100.230469 7.201172 " transform="matrix(1.333333,0,0,1.333333,0,-0.000000000000014211)"/>
</g>
<path style="fill:none;stroke-width:0.8;stroke-linecap:butt;stroke-linejoin:round;stroke:rgb(0%,0%,0%);stroke-opacity:1;stroke-miterlimit:4;" d="M 0.00120544 -0.00117493 L 0.00120544 3.499802 " transform="matrix(1.333333,0,0,1.333333,133.639018,194.400004)"/>
<path style=" stroke:none;fill-rule:nonzero;fill:rgb(0%,0%,0%);fill-opacity:1;" d="M 125.222656 209.132812 L 133.570312 209.132812 L 133.570312 210.238281 L 125.222656 210.238281 Z M 125.222656 209.132812 "/>
<path style=" stroke:none;fill-rule:nonzero;fill:rgb(0%,0%,0%);fill-opacity:1;" d="M 136.421875 204.144531 L 141.585938 204.144531 L 141.585938 205.253906 L 137.625 205.253906 L 137.625 207.632812 C 137.816406 207.566406 138.007812 207.519531 138.199219 207.488281 C 138.390625 207.457031 138.582031 207.441406 138.773438 207.441406 C 139.855469 207.441406 140.714844 207.738281 141.347656 208.332031 C 141.984375 208.925781 142.300781 209.730469 142.300781 210.746094 C 142.300781 211.792969 141.976562 212.605469 141.324219 213.183594 C 140.671875 213.765625 139.753906 214.054688 138.570312 214.054688 C 138.160156 214.054688 137.746094 214.019531 137.324219 213.949219 C 136.898438 213.878906 136.464844 213.777344 136.011719 213.636719 L 136.011719 212.316406 C 136.402344 212.527344 136.804688 212.683594 137.222656 212.789062 C 137.640625 212.894531 138.078125 212.945312 138.542969 212.945312 C 139.292969 212.945312 139.890625 212.75 140.328125 212.355469 C 140.765625 211.960938 140.984375 211.421875 140.984375 210.746094 C 140.984375 210.070312 140.765625 209.535156 140.328125 209.140625 C 139.890625 208.742188 139.292969 208.546875 138.542969 208.546875 C 138.191406 208.546875 137.839844 208.585938 137.492188 208.664062 C 137.140625 208.742188 136.785156 208.863281 136.421875 209.027344 Z M 136.421875 204.144531 "/>
<g clip-path="url(#clip3)" clip-rule="nonzero">
<path style="fill:none;stroke-width:0.8;stroke-linecap:square;stroke-linejoin:round;stroke:rgb(69.01961%,69.01961%,69.01961%);stroke-opacity:1;stroke-miterlimit:4;" d="M 144.615234 145.798828 L 144.615234 7.201172 " transform="matrix(1.333333,0,0,1.333333,0,-0.000000000000014211)"/>
</g>
<path style="fill:none;stroke-width:0.8;stroke-linecap:butt;stroke-linejoin:round;stroke:rgb(0%,0%,0%);stroke-opacity:1;stroke-miterlimit:4;" d="M -0.000396729 -0.00117493 L -0.000396729 3.499802 " transform="matrix(1.333333,0,0,1.333333,192.820841,194.400004)"/>
<path style=" stroke:none;fill-rule:nonzero;fill:rgb(0%,0%,0%);fill-opacity:1;" d="M 192.816406 205.011719 C 192.140625 205.011719 191.632812 205.34375 191.289062 206.011719 C 190.949219 206.675781 190.777344 207.675781 190.777344 209.015625 C 190.777344 210.347656 190.949219 211.347656 191.289062 212.011719 C 191.632812 212.679688 192.140625 213.011719 192.816406 213.011719 C 193.5 213.011719 194.007812 212.679688 194.351562 212.011719 C 194.691406 211.347656 194.863281 210.347656 194.863281 209.015625 C 194.863281 207.675781 194.691406 206.675781 194.351562 206.011719 C 194.007812 205.34375 193.5 205.011719 192.816406 205.011719 Z M 192.816406 203.96875 C 193.90625 203.96875 194.738281 204.398438 195.316406 205.261719 C 195.890625 206.125 196.175781 207.375 196.175781 209.015625 C 196.175781 210.652344 195.890625 211.898438 195.316406 212.761719 C 194.738281 213.625 193.90625 214.054688 192.816406 214.054688 C 191.726562 214.054688 190.894531 213.625 190.320312 212.761719 C 189.746094 211.898438 189.457031 210.652344 189.457031 209.015625 C 189.457031 207.375 189.746094 206.125 190.320312 205.261719 C 190.894531 204.398438 191.726562 203.96875 192.816406 203.96875 Z M 192.816406 203.96875 "/>
<g clip-path="url(#clip4)" clip-rule="nonzero">
<path style="fill:none;stroke-width:0.8;stroke-linecap:square;stroke-linejoin:round;stroke:rgb(69.01961%,69.01961%,69.01961%);stroke-opacity:1;stroke-miterlimit:4;" d="M 189.00293 145.798828 L 189.00293 7.201172 " transform="matrix(1.333333,0,0,1.333333,0,-0.000000000000014211)"/>
</g>
<path style="fill:none;stroke-width:0.8;stroke-linecap:butt;stroke-linejoin:round;stroke:rgb(0%,0%,0%);stroke-opacity:1;stroke-miterlimit:4;" d="M 0.000946045 -0.00117493 L 0.000946045 3.499802 " transform="matrix(1.333333,0,0,1.333333,252.002645,194.400004)"/>
<path style=" stroke:none;fill-rule:nonzero;fill:rgb(0%,0%,0%);fill-opacity:1;" d="M 249.199219 204.144531 L 254.363281 204.144531 L 254.363281 205.253906 L 250.40625 205.253906 L 250.40625 207.632812 C 250.59375 207.566406 250.785156 207.519531 250.976562 207.488281 C 251.167969 207.457031 251.359375 207.441406 251.550781 207.441406 C 252.636719 207.441406 253.496094 207.738281 254.128906 208.332031 C 254.761719 208.925781 255.078125 209.730469 255.078125 210.746094 C 255.078125 211.792969 254.753906 212.605469 254.101562 213.183594 C 253.453125 213.765625 252.535156 214.054688 251.347656 214.054688 C 250.941406 214.054688 250.523438 214.019531 250.101562 213.949219 C 249.679688 213.878906 249.242188 213.777344 248.789062 213.636719 L 248.789062 212.316406 C 249.179688 212.527344 249.582031 212.683594 250 212.789062 C 250.417969 212.894531 250.859375 212.945312 251.320312 212.945312 C 252.074219 212.945312 252.667969 212.75 253.105469 212.355469 C 253.542969 211.960938 253.761719 211.421875 253.761719 210.746094 C 253.761719 210.070312 253.542969 209.535156 253.105469 209.140625 C 252.667969 208.742188 252.074219 208.546875 251.320312 208.546875 C 250.96875 208.546875 250.621094 208.585938 250.269531 208.664062 C 249.921875 208.742188 249.566406 208.863281 249.199219 209.027344 Z M 249.199219 204.144531 "/>
<g clip-path="url(#clip5)" clip-rule="nonzero">
<path style="fill:none;stroke-width:0.8;stroke-linecap:square;stroke-linejoin:round;stroke:rgb(69.01961%,69.01961%,69.01961%);stroke-opacity:1;stroke-miterlimit:4;" d="M 233.387695 145.798828 L 233.387695 7.201172 " transform="matrix(1.333333,0,0,1.333333,0,-0.000000000000014211)"/>
</g>
<path style="fill:none;stroke-width:0.8;stroke-linecap:butt;stroke-linejoin:round;stroke:rgb(0%,0%,0%);stroke-opacity:1;stroke-miterlimit:4;" d="M -0.000656128 -0.00117493 L -0.000656128 3.499802 " transform="matrix(1.333333,0,0,1.333333,311.184469,194.400004)"/>
<path style=" stroke:none;fill-rule:nonzero;fill:rgb(0%,0%,0%);fill-opacity:1;" d="M 304.355469 212.757812 L 306.503906 212.757812 L 306.503906 205.339844 L 304.164062 205.808594 L 304.164062 204.613281 L 306.492188 204.144531 L 307.804688 204.144531 L 307.804688 212.757812 L 309.953125 212.757812 L 309.953125 213.863281 L 304.355469 213.863281 Z M 304.355469 212.757812 "/>
<path style=" stroke:none;fill-rule:nonzero;fill:rgb(0%,0%,0%);fill-opacity:1;" d="M 315.421875 205.011719 C 314.746094 205.011719 314.234375 205.34375 313.894531 206.011719 C 313.554688 206.675781 313.382812 207.675781 313.382812 209.015625 C 313.382812 210.347656 313.554688 211.347656 313.894531 212.011719 C 314.234375 212.679688 314.746094 213.011719 315.421875 213.011719 C 316.105469 213.011719 316.613281 212.679688 316.953125 212.011719 C 317.296875 211.347656 317.46875 210.347656 317.46875 209.015625 C 317.46875 207.675781 317.296875 206.675781 316.953125 206.011719 C 316.613281 205.34375 316.105469 205.011719 315.421875 205.011719 Z M 315.421875 203.96875 C 316.511719 203.96875 317.34375 204.398438 317.917969 205.261719 C 318.496094 206.125 318.78125 207.375 318.78125 209.015625 C 318.78125 210.652344 318.496094 211.898438 317.917969 212.761719 C 317.34375 213.625 316.511719 214.054688 315.421875 214.054688 C 314.332031 214.054688 313.5 213.625 312.925781 212.761719 C 312.351562 211.898438 312.0625 210.652344 312.0625 209.015625 C 312.0625 207.375 312.351562 206.125 312.925781 205.261719 C 313.5 204.398438 314.332031 203.96875 315.421875 203.96875 Z M 315.421875 203.96875 "/>
<path style=" stroke:none;fill-rule:nonzero;fill:rgb(0%,0%,0%);fill-opacity:1;" d="M 196.195312 224.808594 L 193.554688 228.359375 L 196.328125 232.101562 L 194.917969 232.101562 L 192.792969 229.238281 L 190.671875 232.101562 L 189.257812 232.101562 L 192.089844 228.289062 L 189.5 224.808594 L 190.914062 224.808594 L 192.847656 227.410156 L 194.777344 224.808594 Z M 196.195312 224.808594 "/>
<g clip-path="url(#clip6)" clip-rule="nonzero">
<path style="fill:none;stroke-width:0.8;stroke-linecap:square;stroke-linejoin:round;stroke:rgb(69.01961%,69.01961%,69.01961%);stroke-opacity:1;stroke-miterlimit:4;" d="M 46.96582 139.5 L 242.264648 139.5 " transform="matrix(1.333333,0,0,1.333333,0,-0.000000000000014211)"/>
</g>
<path style="fill:none;stroke-width:0.8;stroke-linecap:butt;stroke-linejoin:round;stroke:rgb(0%,0%,0%);stroke-opacity:1;stroke-miterlimit:4;" d="M 0.00019455 -0.000000000000028422 L -3.500782 -0.000000000000028422 " transform="matrix(1.333333,0,0,1.333333,62.620834,186)"/>
<path style=" stroke:none;fill-rule:nonzero;fill:rgb(0%,0%,0%);fill-opacity:1;" d="M 49.042969 182.210938 C 48.367188 182.210938 47.855469 182.542969 47.515625 183.210938 C 47.175781 183.875 47.003906 184.878906 47.003906 186.214844 C 47.003906 187.546875 47.175781 188.546875 47.515625 189.214844 C 47.855469 189.878906 48.367188 190.214844 49.042969 190.214844 C 49.722656 190.214844 50.234375 189.878906 50.574219 189.214844 C 50.917969 188.546875 51.085938 187.546875 51.085938 186.214844 C 51.085938 184.878906 50.917969 183.875 50.574219 183.210938 C 50.234375 182.542969 49.722656 182.210938 49.042969 182.210938 Z M 49.042969 181.167969 C 50.132812 181.167969 50.964844 181.601562 51.539062 182.464844 C 52.113281 183.324219 52.402344 184.574219 52.402344 186.214844 C 52.402344 187.851562 52.113281 189.101562 51.539062 189.964844 C 50.964844 190.824219 50.132812 191.253906 49.042969 191.253906 C 47.953125 191.253906 47.121094 190.824219 46.546875 189.964844 C 45.972656 189.101562 45.683594 187.851562 45.683594 186.214844 C 45.683594 184.574219 45.972656 183.324219 46.546875 182.464844 C 47.121094 181.601562 47.953125 181.167969 49.042969 181.167969 Z M 49.042969 181.167969 "/>
<g clip-path="url(#clip7)" clip-rule="nonzero">
<path style="fill:none;stroke-width:0.8;stroke-linecap:square;stroke-linejoin:round;stroke:rgb(69.01961%,69.01961%,69.01961%);stroke-opacity:1;stroke-miterlimit:4;" d="M 46.96582 114.298828 L 242.264648 114.298828 " transform="matrix(1.333333,0,0,1.333333,0,-0.000000000000014211)"/>
</g>
<path style="fill:none;stroke-width:0.8;stroke-linecap:butt;stroke-linejoin:round;stroke:rgb(0%,0%,0%);stroke-opacity:1;stroke-miterlimit:4;" d="M 0.00019455 -0.00117493 L -3.500782 -0.00117493 " transform="matrix(1.333333,0,0,1.333333,62.620834,152.400004)"/>
<path style=" stroke:none;fill-rule:nonzero;fill:rgb(0%,0%,0%);fill-opacity:1;" d="M 38.878906 156.359375 L 43.46875 156.359375 L 43.46875 157.464844 L 37.296875 157.464844 L 37.296875 156.359375 C 37.796875 155.84375 38.476562 155.148438 39.335938 154.28125 C 40.199219 153.410156 40.742188 152.847656 40.960938 152.59375 C 41.382812 152.121094 41.675781 151.722656 41.84375 151.394531 C 42.011719 151.066406 42.097656 150.746094 42.097656 150.429688 C 42.097656 149.910156 41.914062 149.492188 41.550781 149.164062 C 41.191406 148.839844 40.71875 148.675781 40.136719 148.675781 C 39.722656 148.675781 39.289062 148.746094 38.828125 148.890625 C 38.371094 149.035156 37.882812 149.25 37.363281 149.542969 L 37.363281 148.214844 C 37.890625 148 38.386719 147.839844 38.847656 147.730469 C 39.308594 147.625 39.726562 147.570312 40.109375 147.570312 C 41.117188 147.570312 41.921875 147.820312 42.519531 148.324219 C 43.117188 148.828125 43.417969 149.5 43.417969 150.34375 C 43.417969 150.742188 43.339844 151.121094 43.191406 151.480469 C 43.042969 151.835938 42.769531 152.257812 42.375 152.746094 C 42.265625 152.871094 41.921875 153.234375 41.339844 153.835938 C 40.757812 154.4375 39.9375 155.277344 38.878906 156.359375 Z M 38.878906 156.359375 "/>
<path style=" stroke:none;fill-rule:nonzero;fill:rgb(0%,0%,0%);fill-opacity:1;" d="M 49.042969 148.613281 C 48.363281 148.613281 47.855469 148.945312 47.515625 149.613281 C 47.175781 150.277344 47.003906 151.277344 47.003906 152.617188 C 47.003906 153.949219 47.175781 154.945312 47.515625 155.613281 C 47.855469 156.28125 48.363281 156.613281 49.042969 156.613281 C 49.722656 156.613281 50.234375 156.28125 50.574219 155.613281 C 50.917969 154.945312 51.085938 153.949219 51.085938 152.617188 C 51.085938 151.277344 50.917969 150.277344 50.574219 149.613281 C 50.234375 148.945312 49.722656 148.613281 49.042969 148.613281 Z M 49.042969 147.570312 C 50.132812 147.570312 50.964844 148 51.539062 148.863281 C 52.113281 149.726562 52.402344 150.976562 52.402344 152.617188 C 52.402344 154.25 52.113281 155.5 51.539062 156.363281 C 50.964844 157.226562 50.132812 157.65625 49.042969 157.65625 C 47.953125 157.65625 47.121094 157.226562 46.546875 156.363281 C 45.96875 155.5 45.683594 154.25 45.683594 152.617188 C 45.683594 150.976562 45.96875 149.726562 46.546875 148.863281 C 47.121094 148 47.953125 147.570312 49.042969 147.570312 Z M 49.042969 147.570312 "/>
<g clip-path="url(#clip8)" clip-rule="nonzero">
<path style="fill:none;stroke-width:0.8;stroke-linecap:square;stroke-linejoin:round;stroke:rgb(69.01961%,69.01961%,69.01961%);stroke-opacity:1;stroke-miterlimit:4;" d="M 46.96582 89.100586 L 242.264648 89.100586 " transform="matrix(1.333333,0,0,1.333333,0,-0.000000000000014211)"/>
</g>
<path style="fill:none;stroke-width:0.8;stroke-linecap:butt;stroke-linejoin:round;stroke:rgb(0%,0%,0%);stroke-opacity:1;stroke-miterlimit:4;" d="M 0.00019455 0.000587463 L -3.500782 0.000587463 " transform="matrix(1.333333,0,0,1.333333,62.620834,118.799998)"/>
<path style=" stroke:none;fill-rule:nonzero;fill:rgb(0%,0%,0%);fill-opacity:1;" d="M 41.359375 115.289062 L 38.039062 120.480469 L 41.359375 120.480469 Z M 41.015625 114.144531 L 42.667969 114.144531 L 42.667969 120.480469 L 44.054688 120.480469 L 44.054688 121.574219 L 42.667969 121.574219 L 42.667969 123.867188 L 41.359375 123.867188 L 41.359375 121.574219 L 36.972656 121.574219 L 36.972656 120.304688 Z M 41.015625 114.144531 "/>
<path style=" stroke:none;fill-rule:nonzero;fill:rgb(0%,0%,0%);fill-opacity:1;" d="M 49.042969 115.011719 C 48.363281 115.011719 47.855469 115.34375 47.515625 116.011719 C 47.175781 116.675781 47.003906 117.679688 47.003906 119.015625 C 47.003906 120.347656 47.175781 121.347656 47.515625 122.011719 C 47.855469 122.679688 48.363281 123.011719 49.042969 123.011719 C 49.722656 123.011719 50.234375 122.679688 50.574219 122.011719 C 50.917969 121.347656 51.085938 120.347656 51.085938 119.015625 C 51.085938 117.679688 50.917969 116.675781 50.574219 116.011719 C 50.234375 115.34375 49.722656 115.011719 49.042969 115.011719 Z M 49.042969 113.96875 C 50.132812 113.96875 50.964844 114.402344 51.539062 115.261719 C 52.113281 116.125 52.402344 117.375 52.402344 119.015625 C 52.402344 120.652344 52.113281 121.902344 51.539062 122.761719 C 50.964844 123.625 50.132812 124.054688 49.042969 124.054688 C 47.953125 124.054688 47.121094 123.625 46.546875 122.761719 C 45.96875 121.902344 45.683594 120.652344 45.683594 119.015625 C 45.683594 117.375 45.96875 116.125 46.546875 115.261719 C 47.121094 114.402344 47.953125 113.96875 49.042969 113.96875 Z M 49.042969 113.96875 "/>
<g clip-path="url(#clip9)" clip-rule="nonzero">
<path style="fill:none;stroke-width:0.8;stroke-linecap:square;stroke-linejoin:round;stroke:rgb(69.01961%,69.01961%,69.01961%);stroke-opacity:1;stroke-miterlimit:4;" d="M 46.96582 63.899414 L 242.264648 63.899414 " transform="matrix(1.333333,0,0,1.333333,0,-0.000000000000014211)"/>
</g>
<path style="fill:none;stroke-width:0.8;stroke-linecap:butt;stroke-linejoin:round;stroke:rgb(0%,0%,0%);stroke-opacity:1;stroke-miterlimit:4;" d="M 0.00019455 -0.000587463 L -3.500782 -0.000587463 " transform="matrix(1.333333,0,0,1.333333,62.620834,85.200002)"/>
<path style=" stroke:none;fill-rule:nonzero;fill:rgb(0%,0%,0%);fill-opacity:1;" d="M 40.722656 84.882812 C 40.132812 84.882812 39.664062 85.085938 39.320312 85.488281 C 38.972656 85.890625 38.800781 86.445312 38.800781 87.148438 C 38.800781 87.84375 38.972656 88.398438 39.320312 88.804688 C 39.664062 89.210938 40.132812 89.414062 40.722656 89.414062 C 41.3125 89.414062 41.78125 89.210938 42.125 88.804688 C 42.46875 88.398438 42.640625 87.84375 42.640625 87.148438 C 42.640625 86.445312 42.46875 85.890625 42.125 85.488281 C 41.78125 85.085938 41.3125 84.882812 40.722656 84.882812 Z M 43.332031 80.757812 L 43.332031 81.957031 C 43.003906 81.800781 42.667969 81.683594 42.332031 81.601562 C 41.996094 81.519531 41.664062 81.476562 41.332031 81.476562 C 40.464844 81.476562 39.800781 81.769531 39.34375 82.355469 C 38.886719 82.941406 38.625 83.828125 38.558594 85.011719 C 38.816406 84.632812 39.136719 84.34375 39.523438 84.144531 C 39.910156 83.941406 40.335938 83.839844 40.800781 83.839844 C 41.777344 83.839844 42.546875 84.136719 43.113281 84.730469 C 43.679688 85.320312 43.964844 86.128906 43.964844 87.148438 C 43.964844 88.144531 43.667969 88.945312 43.078125 89.550781 C 42.488281 90.152344 41.703125 90.457031 40.722656 90.457031 C 39.597656 90.457031 38.738281 90.023438 38.144531 89.164062 C 37.550781 88.300781 37.253906 87.050781 37.253906 85.414062 C 37.253906 83.878906 37.617188 82.65625 38.347656 81.742188 C 39.074219 80.828125 40.054688 80.371094 41.28125 80.371094 C 41.613281 80.371094 41.945312 80.402344 42.28125 80.46875 C 42.617188 80.53125 42.96875 80.628906 43.332031 80.757812 Z M 43.332031 80.757812 "/>
<path style=" stroke:none;fill-rule:nonzero;fill:rgb(0%,0%,0%);fill-opacity:1;" d="M 49.042969 81.410156 C 48.363281 81.410156 47.855469 81.746094 47.515625 82.410156 C 47.175781 83.078125 47.003906 84.078125 47.003906 85.414062 C 47.003906 86.746094 47.175781 87.746094 47.515625 88.414062 C 47.855469 89.082031 48.363281 89.414062 49.042969 89.414062 C 49.722656 89.414062 50.234375 89.082031 50.574219 88.414062 C 50.917969 87.746094 51.085938 86.746094 51.085938 85.414062 C 51.085938 84.078125 50.917969 83.078125 50.574219 82.410156 C 50.234375 81.746094 49.722656 81.410156 49.042969 81.410156 Z M 49.042969 80.371094 C 50.132812 80.371094 50.964844 80.800781 51.539062 81.664062 C 52.113281 82.523438 52.402344 83.773438 52.402344 85.414062 C 52.402344 87.050781 52.113281 88.300781 51.539062 89.164062 C 50.964844 90.023438 50.132812 90.457031 49.042969 90.457031 C 47.953125 90.457031 47.121094 90.023438 46.546875 89.164062 C 45.96875 88.300781 45.683594 87.050781 45.683594 85.414062 C 45.683594 83.773438 45.96875 82.523438 46.546875 81.664062 C 47.121094 80.800781 47.953125 80.371094 49.042969 80.371094 Z M 49.042969 80.371094 "/>
<g clip-path="url(#clip10)" clip-rule="nonzero">
<path style="fill:none;stroke-width:0.8;stroke-linecap:square;stroke-linejoin:round;stroke:rgb(69.01961%,69.01961%,69.01961%);stroke-opacity:1;stroke-miterlimit:4;" d="M 46.96582 38.701172 L 242.264648 38.701172 " transform="matrix(1.333333,0,0,1.333333,0,-0.000000000000014211)"/>
</g>
<path style="fill:none;stroke-width:0.8;stroke-linecap:butt;stroke-linejoin:round;stroke:rgb(0%,0%,0%);stroke-opacity:1;stroke-miterlimit:4;" d="M 0.00019455 0.00117111 L -3.500782 0.00117111 " transform="matrix(1.333333,0,0,1.333333,62.620834,51.600001)"/>
<path style=" stroke:none;fill-rule:nonzero;fill:rgb(0%,0%,0%);fill-opacity:1;" d="M 40.558594 52.050781 C 39.933594 52.050781 39.441406 52.214844 39.082031 52.550781 C 38.726562 52.886719 38.546875 53.34375 38.546875 53.929688 C 38.546875 54.515625 38.726562 54.976562 39.082031 55.3125 C 39.441406 55.644531 39.933594 55.8125 40.558594 55.8125 C 41.183594 55.8125 41.675781 55.644531 42.035156 55.308594 C 42.398438 54.972656 42.578125 54.511719 42.578125 53.929688 C 42.578125 53.34375 42.398438 52.886719 42.039062 52.550781 C 41.683594 52.214844 41.1875 52.050781 40.558594 52.050781 Z M 39.242188 51.492188 C 38.679688 51.351562 38.242188 51.089844 37.925781 50.703125 C 37.609375 50.316406 37.453125 49.84375 37.453125 49.289062 C 37.453125 48.511719 37.730469 47.898438 38.285156 47.445312 C 38.835938 46.996094 39.597656 46.769531 40.558594 46.769531 C 41.527344 46.769531 42.285156 46.996094 42.835938 47.445312 C 43.390625 47.898438 43.664062 48.511719 43.664062 49.289062 C 43.664062 49.84375 43.507812 50.316406 43.191406 50.703125 C 42.878906 51.089844 42.441406 51.351562 41.882812 51.492188 C 42.515625 51.636719 43.007812 51.925781 43.359375 52.355469 C 43.714844 52.785156 43.890625 53.3125 43.890625 53.929688 C 43.890625 54.875 43.605469 55.597656 43.027344 56.101562 C 42.453125 56.605469 41.628906 56.855469 40.558594 56.855469 C 39.488281 56.855469 38.664062 56.605469 38.085938 56.101562 C 37.511719 55.597656 37.226562 54.875 37.226562 53.929688 C 37.226562 53.3125 37.402344 52.785156 37.757812 52.355469 C 38.117188 51.925781 38.609375 51.636719 39.242188 51.492188 Z M 38.761719 49.414062 C 38.761719 49.917969 38.917969 50.308594 39.234375 50.589844 C 39.546875 50.871094 39.992188 51.011719 40.558594 51.011719 C 41.125 51.011719 41.566406 50.871094 41.882812 50.589844 C 42.203125 50.308594 42.363281 49.917969 42.363281 49.414062 C 42.363281 48.910156 42.203125 48.515625 41.882812 48.234375 C 41.566406 47.953125 41.125 47.8125 40.558594 47.8125 C 39.992188 47.8125 39.546875 47.953125 39.234375 48.234375 C 38.917969 48.515625 38.761719 48.910156 38.761719 49.414062 Z M 38.761719 49.414062 "/>
<path style=" stroke:none;fill-rule:nonzero;fill:rgb(0%,0%,0%);fill-opacity:1;" d="M 49.042969 47.8125 C 48.363281 47.8125 47.855469 48.144531 47.515625 48.8125 C 47.175781 49.476562 47.003906 50.476562 47.003906 51.816406 C 47.003906 53.148438 47.175781 54.148438 47.515625 54.8125 C 47.855469 55.480469 48.363281 55.8125 49.042969 55.8125 C 49.722656 55.8125 50.234375 55.480469 50.574219 54.8125 C 50.917969 54.148438 51.085938 53.148438 51.085938 51.816406 C 51.085938 50.476562 50.917969 49.476562 50.574219 48.8125 C 50.234375 48.144531 49.722656 47.8125 49.042969 47.8125 Z M 49.042969 46.769531 C 50.132812 46.769531 50.964844 47.199219 51.539062 48.0625 C 52.113281 48.925781 52.402344 50.175781 52.402344 51.816406 C 52.402344 53.453125 52.113281 54.699219 51.539062 55.5625 C 50.964844 56.425781 50.132812 56.855469 49.042969 56.855469 C 47.953125 56.855469 47.121094 56.425781 46.546875 55.5625 C 45.96875 54.699219 45.683594 53.453125 45.683594 51.816406 C 45.683594 50.175781 45.96875 48.925781 46.546875 48.0625 C 47.121094 47.199219 47.953125 46.769531 49.042969 46.769531 Z M 49.042969 46.769531 "/>
<g clip-path="url(#clip11)" clip-rule="nonzero">
<path style="fill:none;stroke-width:0.8;stroke-linecap:square;stroke-linejoin:round;stroke:rgb(69.01961%,69.01961%,69.01961%);stroke-opacity:1;stroke-miterlimit:4;" d="M 46.96582 13.5 L 242.264648 13.5 " transform="matrix(1.333333,0,0,1.333333,0,-0.000000000000014211)"/>
</g>
<path style="fill:none;stroke-width:0.8;stroke-linecap:butt;stroke-linejoin:round;stroke:rgb(0%,0%,0%);stroke-opacity:1;stroke-miterlimit:4;" d="M 0.00019455 0.000000000000008882 L -3.500782 0.000000000000008882 " transform="matrix(1.333333,0,0,1.333333,62.620834,18)"/>
<path style=" stroke:none;fill-rule:nonzero;fill:rgb(0%,0%,0%);fill-opacity:1;" d="M 29.492188 21.960938 L 31.640625 21.960938 L 31.640625 14.542969 L 29.300781 15.011719 L 29.300781 13.8125 L 31.628906 13.34375 L 32.941406 13.34375 L 32.941406 21.960938 L 35.089844 21.960938 L 35.089844 23.066406 L 29.492188 23.066406 Z M 29.492188 21.960938 "/>
<path style=" stroke:none;fill-rule:nonzero;fill:rgb(0%,0%,0%);fill-opacity:1;" d="M 40.558594 14.210938 C 39.882812 14.210938 39.371094 14.542969 39.03125 15.210938 C 38.691406 15.875 38.519531 16.878906 38.519531 18.214844 C 38.519531 19.546875 38.691406 20.546875 39.03125 21.214844 C 39.371094 21.878906 39.882812 22.214844 40.558594 22.214844 C 41.238281 22.214844 41.75 21.878906 42.089844 21.214844 C 42.433594 20.546875 42.605469 19.546875 42.605469 18.214844 C 42.605469 16.878906 42.433594 15.875 42.089844 15.210938 C 41.75 14.542969 41.238281 14.210938 40.558594 14.210938 Z M 40.558594 13.167969 C 41.648438 13.167969 42.480469 13.601562 43.054688 14.464844 C 43.632812 15.324219 43.917969 16.574219 43.917969 18.214844 C 43.917969 19.851562 43.632812 21.101562 43.054688 21.964844 C 42.480469 22.824219 41.648438 23.253906 40.558594 23.253906 C 39.46875 23.253906 38.636719 22.824219 38.0625 21.964844 C 37.488281 21.101562 37.199219 19.851562 37.199219 18.214844 C 37.199219 16.574219 37.488281 15.324219 38.0625 14.464844 C 38.636719 13.601562 39.46875 13.167969 40.558594 13.167969 Z M 40.558594 13.167969 "/>
<path style=" stroke:none;fill-rule:nonzero;fill:rgb(0%,0%,0%);fill-opacity:1;" d="M 49.042969 14.210938 C 48.363281 14.210938 47.855469 14.542969 47.515625 15.210938 C 47.171875 15.875 47.003906 16.878906 47.003906 18.214844 C 47.003906 19.546875 47.171875 20.546875 47.515625 21.214844 C 47.855469 21.878906 48.363281 22.214844 49.042969 22.214844 C 49.722656 22.214844 50.234375 21.878906 50.574219 21.214844 C 50.917969 20.546875 51.085938 19.546875 51.085938 18.214844 C 51.085938 16.878906 50.917969 15.875 50.574219 15.210938 C 50.234375 14.542969 49.722656 14.210938 49.042969 14.210938 Z M 49.042969 13.167969 C 50.132812 13.167969 50.964844 13.601562 51.539062 14.464844 C 52.113281 15.324219 52.402344 16.574219 52.402344 18.214844 C 52.402344 19.851562 52.113281 21.101562 51.539062 21.964844 C 50.964844 22.824219 50.132812 23.253906 49.042969 23.253906 C 47.953125 23.253906 47.121094 22.824219 46.546875 21.964844 C 45.96875 21.101562 45.683594 19.851562 45.683594 18.214844 C 45.683594 16.574219 45.96875 15.324219 46.546875 14.464844 C 47.121094 13.601562 47.953125 13.167969 49.042969 13.167969 Z M 49.042969 13.167969 "/>
<path style=" stroke:none;fill-rule:nonzero;fill:rgb(0%,0%,0%);fill-opacity:1;" d="M 9.601562 108.546875 L 10.597656 108.546875 L 10.597656 109.691406 C 10.597656 110.121094 10.683594 110.421875 10.859375 110.589844 C 11.03125 110.753906 11.34375 110.839844 11.796875 110.839844 L 12.441406 110.839844 L 12.441406 108.867188 L 13.371094 108.867188 L 13.371094 110.839844 L 19.730469 110.839844 L 19.730469 112.042969 L 13.371094 112.042969 L 13.371094 113.1875 L 12.441406 113.1875 L 12.441406 112.042969 L 11.929688 112.042969 C 11.121094 112.042969 10.527344 111.855469 10.160156 111.476562 C 9.785156 111.097656 9.601562 110.5 9.601562 109.679688 Z M 9.601562 108.546875 "/>
<path style=" stroke:none;fill-rule:nonzero;fill:rgb(0%,0%,0%);fill-opacity:1;" d="M 9.613281 104.667969 C 10.613281 105.246094 11.597656 105.679688 12.578125 105.964844 C 13.554688 106.246094 14.542969 106.386719 15.546875 106.386719 C 16.546875 106.386719 17.539062 106.242188 18.523438 105.960938 C 19.507812 105.675781 20.496094 105.242188 21.488281 104.667969 L 21.488281 105.710938 C 20.46875 106.359375 19.464844 106.847656 18.480469 107.167969 C 17.496094 107.492188 16.519531 107.65625 15.546875 107.65625 C 14.578125 107.65625 13.601562 107.496094 12.621094 107.171875 C 11.640625 106.851562 10.636719 106.363281 9.613281 105.710938 Z M 9.613281 104.667969 "/>
<path style=" stroke:none;fill-rule:nonzero;fill:rgb(0%,0%,0%);fill-opacity:1;" d="M 12.441406 96.28125 L 15.988281 98.917969 L 19.730469 96.144531 L 19.730469 97.558594 L 16.867188 99.679688 L 19.730469 101.800781 L 19.730469 103.214844 L 15.917969 100.382812 L 12.441406 102.972656 L 12.441406 101.5625 L 15.039062 99.628906 L 12.441406 97.695312 Z M 12.441406 96.28125 "/>
<path style=" stroke:none;fill-rule:nonzero;fill:rgb(0%,0%,0%);fill-opacity:1;" d="M 9.613281 94.640625 L 9.613281 93.597656 C 10.636719 92.949219 11.640625 92.460938 12.621094 92.136719 C 13.601562 91.8125 14.578125 91.652344 15.546875 91.652344 C 16.519531 91.652344 17.496094 91.8125 18.480469 92.136719 C 19.464844 92.460938 20.46875 92.949219 21.488281 93.597656 L 21.488281 94.640625 C 20.496094 94.0625 19.507812 93.632812 18.523438 93.347656 C 17.539062 93.0625 16.546875 92.921875 15.546875 92.921875 C 14.542969 92.921875 13.554688 93.0625 12.578125 93.347656 C 11.597656 93.632812 10.613281 94.0625 9.613281 94.640625 Z M 9.613281 94.640625 "/>
<path style="fill:none;stroke-width:1.5;stroke-linecap:square;stroke-linejoin:round;stroke:rgb(12.156863%,46.666667%,70.588237%);stroke-opacity:1;stroke-miterlimit:4;" d="M 55.842773 13.5 L 60.459961 26.264648 L 64.898437 37.892578 L 69.249023 48.679688 L 73.508789 58.658203 L 77.680664 67.866211 L 81.764648 76.341797 L 85.669922 83.947266 L 89.487305 90.908203 L 93.216797 97.259766 L 96.855469 103.03125 L 100.40625 108.251953 L 103.869141 112.954102 L 107.241211 117.166992 L 110.52832 120.919922 L 113.72168 124.242188 L 116.830078 127.157227 L 119.847656 129.691406 L 122.865234 131.935547 L 125.794922 133.836914 L 128.636719 135.418945 L 131.387695 136.702148 L 134.141602 137.745117 L 136.804687 138.524414 L 139.467773 139.075195 L 142.130859 139.400391 L 144.793945 139.5 L 147.457031 139.371094 L 150.120117 139.016602 L 152.783203 138.433594 L 155.446289 137.625 L 158.197266 136.549805 L 160.951172 135.234375 L 163.790039 133.620117 L 166.631836 131.750977 L 169.561523 129.550781 L 172.579102 126.999023 L 175.59668 124.154297 L 178.705078 120.919922 L 181.901367 117.272461 L 185.185547 113.185547 L 188.557617 108.626953 L 192.020508 103.570312 L 195.571289 97.986328 L 199.209961 91.842773 L 202.939453 85.113281 L 206.756836 77.759766 L 210.662109 69.755859 L 214.658203 61.063477 L 218.830078 51.439453 L 223.089844 41.036133 L 227.44043 29.818359 L 231.878906 17.748047 L 233.299805 13.751953 " transform="matrix(1.333333,0,0,1.333333,0,-0.000000000000014211)"/>
<path style="fill:none;stroke-width:1.5;stroke-linecap:square;stroke-linejoin:round;stroke:rgb(100%,49.803922%,5.490196%);stroke-opacity:1;stroke-miterlimit:4;" d="M 233.387695 13.5 L 197.879883 94.139648 L 176.575195 123.169922 L 163.790039 133.620117 L 156.120117 137.384766 L 151.517578 138.738281 L 148.757812 139.224609 L 147.099609 139.400391 L 146.106445 139.464844 L 145.508789 139.488281 L 145.151367 139.494141 " transform="matrix(1.333333,0,0,1.333333,0,-0.000000000000014211)"/>
<path style="fill-rule:nonzero;fill:rgb(100%,49.803922%,5.490196%);fill-opacity:1;stroke-width:1;stroke-linecap:butt;stroke-linejoin:round;stroke:rgb(100%,49.803922%,5.490196%);stroke-opacity:1;stroke-miterlimit:4;" d="M -0.000656128 3 C 0.796219 3 1.557938 2.683594 2.120438 2.121094 C 2.682938 1.558594 2.999344 0.796875 2.999344 0.000000000000008882 C 2.999344 -0.796875 2.682938 -1.558594 2.120438 -2.121094 C 1.557938 -2.683594 0.796219 -3 -0.000656128 -3 C -0.794601 -3 -1.55925 -2.683594 -2.12175 -2.121094 C -2.68425 -1.558594 -3.000656 -0.796875 -3.000656 0.000000000000008882 C -3.000656 0.796875 -2.68425 1.558594 -2.12175 2.121094 C -1.55925 2.683594 -0.794601 3 -0.000656128 3 Z M -0.000656128 3 " transform="matrix(1.333333,0,0,1.333333,311.184469,18)"/>
<path style="fill-rule:nonzero;fill:rgb(100%,49.803922%,5.490196%);fill-opacity:1;stroke-width:1;stroke-linecap:butt;stroke-linejoin:round;stroke:rgb(100%,49.803922%,5.490196%);stroke-opacity:1;stroke-miterlimit:4;" d="M 0.00062561 2.999649 C 0.794571 2.999649 1.559219 2.683243 2.121719 2.120743 C 2.684219 1.558243 3.000626 0.796524 3.000626 -0.000350952 C 3.000626 -0.794296 2.684219 -1.558945 2.121719 -2.121445 C 1.559219 -2.683945 0.794571 -3.000351 0.00062561 -3.000351 C -0.796249 -3.000351 -1.557968 -2.683945 -2.120468 -2.121445 C -2.682968 -1.558945 -2.999374 -0.794296 -2.999374 -0.000350952 C -2.999374 0.796524 -2.682968 1.558243 -2.120468 2.120743 C -1.557968 2.683243 -0.796249 2.999649 0.00062561 2.999649 Z M 0.00062561 2.999649 " transform="matrix(1.333333,0,0,1.333333,263.83901,125.519999)"/>
<path style="fill-rule:nonzero;fill:rgb(100%,49.803922%,5.490196%);fill-opacity:1;stroke-width:1;stroke-linecap:butt;stroke-linejoin:round;stroke:rgb(100%,49.803922%,5.490196%);stroke-opacity:1;stroke-miterlimit:4;" d="M 0.00138855 2.999519 C 0.795334 2.999519 1.559982 2.683113 2.122482 2.120613 C 2.684982 1.558113 3.001389 0.796394 3.001389 -0.000480652 C 3.001389 -0.794426 2.684982 -1.559074 2.122482 -2.121574 C 1.559982 -2.684074 0.795334 -3.000481 0.00138855 -3.000481 C -0.795486 -3.000481 -1.560135 -2.684074 -2.122635 -2.121574 C -2.685135 -1.559074 -2.998611 -0.794426 -2.998611 -0.000480652 C -2.998611 0.796394 -2.685135 1.558113 -2.122635 2.120613 C -1.560135 2.683113 -0.795486 2.999519 0.00138855 2.999519 Z M 0.00138855 2.999519 " transform="matrix(1.333333,0,0,1.333333,235.431742,164.227203)"/>
<path style="fill-rule:nonzero;fill:rgb(100%,49.803922%,5.490196%);fill-opacity:1;stroke-width:1;stroke-linecap:butt;stroke-linejoin:round;stroke:rgb(100%,49.803922%,5.490196%);stroke-opacity:1;stroke-miterlimit:4;" d="M -0.000488281 2.998779 C 0.796387 2.998779 1.558105 2.685303 2.120605 2.119873 C 2.683105 1.557373 2.999512 0.795654 2.999512 -0.0012207 C 2.999512 -0.795166 2.683105 -1.559814 2.120605 -2.122314 C 1.558105 -2.684814 0.796387 -3.001221 -0.000488281 -3.001221 C -0.794434 -3.001221 -1.559082 -2.684814 -2.121582 -2.122314 C -2.684082 -1.559814 -3.000488 -0.795166 -3.000488 -0.0012207 C -3.000488 0.795654 -2.684082 1.557373 -2.121582 2.119873 C -1.559082 2.685303 -0.794434 2.998779 -0.000488281 2.998779 Z M -0.000488281 2.998779 " transform="matrix(1.333333,0,0,1.333333,218.38737,178.161784)"/>
<path style="fill-rule:nonzero;fill:rgb(100%,49.803922%,5.490196%);fill-opacity:1;stroke-width:1;stroke-linecap:butt;stroke-linejoin:round;stroke:rgb(100%,49.803922%,5.490196%);stroke-opacity:1;stroke-miterlimit:4;" d="M -0.000457764 3.001083 C 0.796417 3.001083 1.558136 2.684677 2.120636 2.122177 C 2.683136 1.559677 2.999542 0.795029 2.999542 0.00108337 C 2.999542 -0.795792 2.683136 -1.55751 2.120636 -2.12001 C 1.558136 -2.68251 0.796417 -2.998917 -0.000457764 -2.998917 C -0.794403 -2.998917 -1.559052 -2.68251 -2.121552 -2.12001 C -2.684052 -1.55751 -3.000458 -0.795792 -3.000458 0.00108337 C -3.000458 0.795029 -2.684052 1.559677 -2.121552 2.122177 C -1.559052 2.684677 -0.794403 3.001083 -0.000457764 3.001083 Z M -0.000457764 3.001083 " transform="matrix(1.333333,0,0,1.333333,208.160767,183.178243)"/>
<path style="fill-rule:nonzero;fill:rgb(100%,49.803922%,5.490196%);fill-opacity:1;stroke-width:1;stroke-linecap:butt;stroke-linejoin:round;stroke:rgb(100%,49.803922%,5.490196%);stroke-opacity:1;stroke-miterlimit:4;" d="M -0.00100708 3.000153 C 0.795868 3.000153 1.557587 2.683746 2.120087 2.121246 C 2.682587 1.558746 2.998993 0.797028 2.998993 0.000152588 C 2.998993 -0.796722 2.682587 -1.558441 2.120087 -2.120941 C 1.557587 -2.683441 0.795868 -2.999847 -0.00100708 -2.999847 C -0.794952 -2.999847 -1.559601 -2.683441 -2.122101 -2.120941 C -2.684601 -1.558441 -3.001007 -0.796722 -3.001007 0.000152588 C -3.001007 0.797028 -2.684601 1.558746 -2.122101 2.121246 C -1.559601 2.683746 -0.794952 3.000153 -0.00100708 3.000153 Z M -0.00100708 3.000153 " transform="matrix(1.333333,0,0,1.333333,202.02478,184.984172)"/>
<path style="fill-rule:nonzero;fill:rgb(100%,49.803922%,5.490196%);fill-opacity:1;stroke-width:1;stroke-linecap:butt;stroke-linejoin:round;stroke:rgb(100%,49.803922%,5.490196%);stroke-opacity:1;stroke-miterlimit:4;" d="M 0.000411987 2.998886 C 0.794357 2.998886 1.559006 2.68248 2.121506 2.11998 C 2.684006 1.55748 3.000412 0.795761 3.000412 -0.00111389 C 3.000412 -0.795059 2.684006 -1.559708 2.121506 -2.122208 C 1.559006 -2.684708 0.794357 -3.001114 0.000411987 -3.001114 C -0.796463 -3.001114 -1.558182 -2.684708 -2.120682 -2.122208 C -2.683182 -1.559708 -2.999588 -0.795059 -2.999588 -0.00111389 C -2.999588 0.795761 -2.683182 1.55748 -2.120682 2.11998 C -1.558182 2.68248 -0.796463 2.998886 0.000411987 2.998886 Z M 0.000411987 2.998886 " transform="matrix(1.333333,0,0,1.333333,198.343201,185.634298)"/>
<path style="fill-rule:nonzero;fill:rgb(100%,49.803922%,5.490196%);fill-opacity:1;stroke-width:1;stroke-linecap:butt;stroke-linejoin:round;stroke:rgb(100%,49.803922%,5.490196%);stroke-opacity:1;stroke-miterlimit:4;" d="M -0.00108337 2.99913 C 0.795792 2.99913 1.55751 2.682724 2.12001 2.120224 C 2.68251 1.557724 2.998917 0.796005 2.998917 -0.000869751 C 2.998917 -0.794815 2.68251 -1.559464 2.12001 -2.121964 C 1.55751 -2.684464 0.795792 -3.00087 -0.00108337 -3.00087 C -0.795029 -3.00087 -1.559677 -2.684464 -2.122177 -2.121964 C -2.684677 -1.559464 -3.001083 -0.794815 -3.001083 -0.000869751 C -3.001083 0.796005 -2.684677 1.557724 -2.122177 2.120224 C -1.559677 2.682724 -0.795029 2.99913 -0.00108337 2.99913 Z M -0.00108337 2.99913 " transform="matrix(1.333333,0,0,1.333333,196.134257,185.868347)"/>
<path style="fill-rule:nonzero;fill:rgb(100%,49.803922%,5.490196%);fill-opacity:1;stroke-width:1;stroke-linecap:butt;stroke-linejoin:round;stroke:rgb(100%,49.803922%,5.490196%);stroke-opacity:1;stroke-miterlimit:4;" d="M -0.000213623 3.000397 C 0.796661 3.000397 1.55838 2.68399 2.12088 2.12149 C 2.68338 1.55899 2.999786 0.794342 2.999786 0.000396729 C 2.999786 -0.796478 2.68338 -1.558197 2.12088 -2.120697 C 1.55838 -2.683197 0.796661 -2.999603 -0.000213623 -2.999603 C -0.794159 -2.999603 -1.558807 -2.683197 -2.121307 -2.120697 C -2.683807 -1.558197 -3.000214 -0.796478 -3.000214 0.000396729 C -3.000214 0.794342 -2.683807 1.55899 -2.121307 2.12149 C -1.558807 2.68399 -0.794159 3.000397 -0.000213623 3.000397 Z M -0.000213623 3.000397 " transform="matrix(1.333333,0,0,1.333333,194.808879,185.952596)"/>
<path style="fill-rule:nonzero;fill:rgb(100%,49.803922%,5.490196%);fill-opacity:1;stroke-width:1;stroke-linecap:butt;stroke-linejoin:round;stroke:rgb(100%,49.803922%,5.490196%);stroke-opacity:1;stroke-miterlimit:4;" d="M 0.00146484 3.001083 C 0.79541 3.001083 1.560059 2.684677 2.122559 2.122177 C 2.685059 1.559677 3.001465 0.795029 3.001465 0.00108337 C 3.001465 -0.795792 2.685059 -1.55751 2.122559 -2.12001 C 1.560059 -2.68251 0.79541 -2.998917 0.00146484 -2.998917 C -0.79541 -2.998917 -1.560059 -2.68251 -2.122559 -2.12001 C -2.685059 -1.55751 -2.998535 -0.795792 -2.998535 0.00108337 C -2.998535 0.795029 -2.685059 1.559677 -2.122559 2.122177 C -1.560059 2.684677 -0.79541 3.001083 0.00146484 3.001083 Z M 0.00146484 3.001083 " transform="matrix(1.333333,0,0,1.333333,194.013672,185.982931)"/>
<path style="fill-rule:nonzero;fill:rgb(100%,49.803922%,5.490196%);fill-opacity:1;stroke-width:1;stroke-linecap:butt;stroke-linejoin:round;stroke:rgb(100%,49.803922%,5.490196%);stroke-opacity:1;stroke-miterlimit:4;" d="M -0.0010376 2.998749 C 0.795837 2.998749 1.557556 2.685272 2.120056 2.122772 C 2.682556 1.557343 2.998962 0.795624 2.998962 -0.00125122 C 2.998962 -0.795197 2.682556 -1.559845 2.120056 -2.122345 C 1.557556 -2.684845 0.795837 -3.001251 -0.0010376 -3.001251 C -0.794983 -3.001251 -1.559631 -2.684845 -2.122131 -2.122345 C -2.684631 -1.559845 -3.001038 -0.795197 -3.001038 -0.00125122 C -3.001038 0.795624 -2.684631 1.557343 -2.122131 2.122772 C -1.559631 2.685272 -0.794983 2.998749 -0.0010376 2.998749 Z M -0.0010376 2.998749 " transform="matrix(1.333333,0,0,1.333333,193.53654,185.993856)"/>
<path style="fill:none;stroke-width:0.8;stroke-linecap:square;stroke-linejoin:miter;stroke:rgb(0%,0%,0%);stroke-opacity:1;stroke-miterlimit:4;" d="M 46.96582 145.798828 L 46.96582 7.201172 " transform="matrix(1.333333,0,0,1.333333,0,-0.000000000000014211)"/>
<path style="fill:none;stroke-width:0.8;stroke-linecap:square;stroke-linejoin:miter;stroke:rgb(0%,0%,0%);stroke-opacity:1;stroke-miterlimit:4;" d="M 242.264648 145.798828 L 242.264648 7.201172 " transform="matrix(1.333333,0,0,1.333333,0,-0.000000000000014211)"/>
<path style="fill:none;stroke-width:0.8;stroke-linecap:square;stroke-linejoin:miter;stroke:rgb(0%,0%,0%);stroke-opacity:1;stroke-miterlimit:4;" d="M 46.96582 145.798828 L 242.264648 145.798828 " transform="matrix(1.333333,0,0,1.333333,0,-0.000000000000014211)"/>
<path style="fill:none;stroke-width:0.8;stroke-linecap:square;stroke-linejoin:miter;stroke:rgb(0%,0%,0%);stroke-opacity:1;stroke-miterlimit:4;" d="M 46.96582 7.201172 L 242.264648 7.201172 " transform="matrix(1.333333,0,0,1.333333,0,-0.000000000000014211)"/>
</g>
</svg>
