<?xml version="1.0" encoding="UTF-8"?>
<svg xmlns="http://www.w3.org/2000/svg" xmlns:xlink="http://www.w3.org/1999/xlink" width="315.654175" height="244.474996" viewBox="0 0 315.654175 244.474996" version="1.1">
<defs>
<clipPath id="clip1">
  <path d="M 56 9.601562 L 59 9.601562 L 59 194.398438 L 56 194.398438 Z M 56 9.601562 "/>
</clipPath>
<clipPath id="clip2">
  <path d="M 116 9.601562 L 118 9.601562 L 118 194.398438 L 116 194.398438 Z M 116 9.601562 "/>
</clipPath>
<clipPath id="clip3">
  <path d="M 175 9.601562 L 177 9.601562 L 177 194.398438 L 175 194.398438 Z M 175 9.601562 "/>
</clipPath>
<clipPath id="clip4">
  <path d="M 234 9.601562 L 237 9.601562 L 237 194.398438 L 234 194.398438 Z M 234 9.601562 "/>
</clipPath>
<clipPath id="clip5">
  <path d="M 294 9.601562 L 296 9.601562 L 296 194.398438 L 294 194.398438 Z M 294 9.601562 "/>
</clipPath>
<clipPath id="clip6">
  <path d="M 45.652344 185 L 306.054688 185 L 306.054688 187 L 45.652344 187 Z M 45.652344 185 "/>
</clipPath>
<clipPath id="clip7">
  <path d="M 45.652344 147 L 306.054688 147 L 306.054688 150 L 45.652344 150 Z M 45.652344 147 "/>
</clipPath>
<clipPath id="clip8">
  <path d="M 45.652344 110 L 306.054688 110 L 306.054688 113 L 45.652344 113 Z M 45.652344 110 "/>
</clipPath>
<clipPath id="clip9">
  <path d="M 45.652344 73 L 306.054688 73 L 306.054688 75 L 45.652344 75 Z M 45.652344 73 "/>
</clipPath>
<clipPath id="clip10">
  <path d="M 45.652344 35 L 306.054688 35 L 306.054688 38 L 45.652344 38 Z M 45.652344 35 "/>
</clipPath>
</defs>
<g id="surface1">
<path style=" stroke:none;fill-rule:nonzero;fill:rgb(100%,100%,100%);fill-opacity:1;" d="M 0 244.476562 L 315.652344 244.476562 L 315.652344 0 L 0 0 Z M 0 244.476562 "/>
<path style=" stroke:none;fill-rule:nonzero;fill:rgb(100%,100%,100%);fill-opacity:1;" d="M 45.652344 194.398438 L 306.054688 194.398438 L 306.054688 9.601562 L 45.652344 9.601562 Z M 45.652344 194.398438 "/>
<g clip-path="url(#clip1)" clip-rule="nonzero">
<path style="fill:none;stroke-width:0.8;stroke-linecap:square;stroke-linejoin:round;stroke:rgb(69.01961%,69.01961%,69.01961%);stroke-opacity:1;stroke-miterlimit:4;" d="M 43.119141 145.798828 L 43.119141 7.201172 " transform="matrix(1.333333,0,0,1.333333,0,0.000000000000014211)"/>
</g>
<path style="fill:none;stroke-width:0.8;stroke-linecap:butt;stroke-linejoin:round;stroke:rgb(0%,0%,0%);stroke-opacity:1;stroke-miterlimit:4;" d="M 0.00124359 -0.00117493 L 0.00124359 3.499802 " transform="matrix(1.333333,0,0,1.333333,57.490529,194.400004)"/>
<path style=" stroke:none;fill-rule:nonzero;fill:rgb(0%,0%,0%);fill-opacity:1;" d="M 49.074219 209.132812 L 57.421875 209.132812 L 57.421875 210.238281 L 49.074219 210.238281 Z M 49.074219 209.132812 "/>
<path style=" stroke:none;fill-rule:nonzero;fill:rgb(0%,0%,0%);fill-opacity:1;" d="M 61.394531 212.757812 L 65.980469 212.757812 L 65.980469 213.863281 L 59.8125 213.863281 L 59.8125 212.757812 C 60.308594 212.242188 60.988281 211.546875 61.851562 210.679688 C 62.714844 209.808594 63.253906 209.246094 63.476562 208.992188 C 63.898438 208.523438 64.191406 208.121094 64.355469 207.792969 C 64.523438 207.464844 64.609375 207.144531 64.609375 206.828125 C 64.609375 206.308594 64.429688 205.890625 64.066406 205.566406 C 63.703125 205.238281 63.230469 205.074219 62.648438 205.074219 C 62.238281 205.074219 61.800781 205.148438 61.34375 205.289062 C 60.886719 205.433594 60.398438 205.648438 59.875 205.941406 L 59.875 204.613281 C 60.40625 204.398438 60.898438 204.238281 61.359375 204.132812 C 61.820312 204.023438 62.242188 203.96875 62.625 203.96875 C 63.628906 203.96875 64.433594 204.222656 65.03125 204.726562 C 65.628906 205.226562 65.929688 205.898438 65.929688 206.742188 C 65.929688 207.140625 65.855469 207.519531 65.707031 207.878906 C 65.554688 208.234375 65.285156 208.65625 64.886719 209.144531 C 64.78125 209.269531 64.433594 209.632812 63.851562 210.234375 C 63.273438 210.835938 62.453125 211.679688 61.394531 212.757812 Z M 61.394531 212.757812 "/>
<g clip-path="url(#clip2)" clip-rule="nonzero">
<path style="fill:none;stroke-width:0.8;stroke-linecap:square;stroke-linejoin:round;stroke:rgb(69.01961%,69.01961%,69.01961%);stroke-opacity:1;stroke-miterlimit:4;" d="M 87.615234 145.798828 L 87.615234 7.201172 " transform="matrix(1.333333,0,0,1.333333,0,0.000000000000014211)"/>
</g>
<path style="fill:none;stroke-width:0.8;stroke-linecap:butt;stroke-linejoin:round;stroke:rgb(0%,0%,0%);stroke-opacity:1;stroke-miterlimit:4;" d="M -0.000267029 -0.00117493 L -0.000267029 3.499802 " transform="matrix(1.333333,0,0,1.333333,116.820669,194.400004)"/>
<path style=" stroke:none;fill-rule:nonzero;fill:rgb(0%,0%,0%);fill-opacity:1;" d="M 108.40625 209.132812 L 116.75 209.132812 L 116.75 210.238281 L 108.40625 210.238281 Z M 108.40625 209.132812 "/>
<path style=" stroke:none;fill-rule:nonzero;fill:rgb(0%,0%,0%);fill-opacity:1;" d="M 119.820312 212.757812 L 121.964844 212.757812 L 121.964844 205.339844 L 119.628906 205.808594 L 119.628906 204.613281 L 121.953125 204.144531 L 123.269531 204.144531 L 123.269531 212.757812 L 125.417969 212.757812 L 125.417969 213.863281 L 119.820312 213.863281 Z M 119.820312 212.757812 "/>
<g clip-path="url(#clip3)" clip-rule="nonzero">
<path style="fill:none;stroke-width:0.8;stroke-linecap:square;stroke-linejoin:round;stroke:rgb(69.01961%,69.01961%,69.01961%);stroke-opacity:1;stroke-miterlimit:4;" d="M 132.114258 145.798828 L 132.114258 7.201172 " transform="matrix(1.333333,0,0,1.333333,0,0.000000000000014211)"/>
</g>
<path style="fill:none;stroke-width:0.8;stroke-linecap:butt;stroke-linejoin:round;stroke:rgb(0%,0%,0%);stroke-opacity:1;stroke-miterlimit:4;" d="M 0.00114441 -0.00117493 L 0.00114441 3.499802 " transform="matrix(1.333333,0,0,1.333333,176.150818,194.400004)"/>
<path style=" stroke:none;fill-rule:nonzero;fill:rgb(0%,0%,0%);fill-opacity:1;" d="M 176.148438 205.011719 C 175.46875 205.011719 174.960938 205.34375 174.621094 206.011719 C 174.28125 206.675781 174.109375 207.675781 174.109375 209.015625 C 174.109375 210.347656 174.28125 211.347656 174.621094 212.011719 C 174.960938 212.679688 175.46875 213.011719 176.148438 213.011719 C 176.828125 213.011719 177.339844 212.679688 177.679688 212.011719 C 178.023438 211.347656 178.191406 210.347656 178.191406 209.015625 C 178.191406 207.675781 178.023438 206.675781 177.679688 206.011719 C 177.339844 205.34375 176.828125 205.011719 176.148438 205.011719 Z M 176.148438 203.96875 C 177.238281 203.96875 178.070312 204.398438 178.644531 205.261719 C 179.21875 206.125 179.507812 207.375 179.507812 209.015625 C 179.507812 210.652344 179.21875 211.898438 178.644531 212.761719 C 178.070312 213.625 177.238281 214.054688 176.148438 214.054688 C 175.058594 214.054688 174.226562 213.625 173.652344 212.761719 C 173.074219 211.898438 172.789062 210.652344 172.789062 209.015625 C 172.789062 207.375 173.074219 206.125 173.652344 205.261719 C 174.226562 204.398438 175.058594 203.96875 176.148438 203.96875 Z M 176.148438 203.96875 "/>
<g clip-path="url(#clip4)" clip-rule="nonzero">
<path style="fill:none;stroke-width:0.8;stroke-linecap:square;stroke-linejoin:round;stroke:rgb(69.01961%,69.01961%,69.01961%);stroke-opacity:1;stroke-miterlimit:4;" d="M 176.610352 145.798828 L 176.610352 7.201172 " transform="matrix(1.333333,0,0,1.333333,0,0.000000000000014211)"/>
</g>
<path style="fill:none;stroke-width:0.8;stroke-linecap:butt;stroke-linejoin:round;stroke:rgb(0%,0%,0%);stroke-opacity:1;stroke-miterlimit:4;" d="M -0.000366211 -0.00117493 L -0.000366211 3.499802 " transform="matrix(1.333333,0,0,1.333333,235.480957,194.400004)"/>
<path style=" stroke:none;fill-rule:nonzero;fill:rgb(0%,0%,0%);fill-opacity:1;" d="M 232.894531 212.757812 L 235.042969 212.757812 L 235.042969 205.339844 L 232.703125 205.808594 L 232.703125 204.613281 L 235.027344 204.144531 L 236.34375 204.144531 L 236.34375 212.757812 L 238.492188 212.757812 L 238.492188 213.863281 L 232.894531 213.863281 Z M 232.894531 212.757812 "/>
<g clip-path="url(#clip5)" clip-rule="nonzero">
<path style="fill:none;stroke-width:0.8;stroke-linecap:square;stroke-linejoin:round;stroke:rgb(69.01961%,69.01961%,69.01961%);stroke-opacity:1;stroke-miterlimit:4;" d="M 221.109375 145.798828 L 221.109375 7.201172 " transform="matrix(1.333333,0,0,1.333333,0,0.000000000000014211)"/>
</g>
<path style="fill:none;stroke-width:0.8;stroke-linecap:butt;stroke-linejoin:round;stroke:rgb(0%,0%,0%);stroke-opacity:1;stroke-miterlimit:4;" d="M 0.00105286 -0.00117493 L 0.00105286 3.499802 " transform="matrix(1.333333,0,0,1.333333,294.811096,194.400004)"/>
<path style=" stroke:none;fill-rule:nonzero;fill:rgb(0%,0%,0%);fill-opacity:1;" d="M 293.128906 212.757812 L 297.71875 212.757812 L 297.71875 213.863281 L 291.546875 213.863281 L 291.546875 212.757812 C 292.046875 212.242188 292.726562 211.546875 293.585938 210.679688 C 294.449219 209.808594 294.992188 209.246094 295.210938 208.992188 C 295.632812 208.523438 295.925781 208.121094 296.09375 207.792969 C 296.261719 207.464844 296.34375 207.144531 296.34375 206.828125 C 296.34375 206.308594 296.164062 205.890625 295.800781 205.566406 C 295.4375 205.238281 294.964844 205.074219 294.382812 205.074219 C 293.972656 205.074219 293.535156 205.148438 293.078125 205.289062 C 292.621094 205.433594 292.132812 205.648438 291.609375 205.941406 L 291.609375 204.613281 C 292.140625 204.398438 292.632812 204.238281 293.09375 204.132812 C 293.554688 204.023438 293.976562 203.96875 294.359375 203.96875 C 295.367188 203.96875 296.167969 204.222656 296.765625 204.726562 C 297.367188 205.226562 297.664062 205.898438 297.664062 206.742188 C 297.664062 207.140625 297.589844 207.519531 297.441406 207.878906 C 297.292969 208.234375 297.019531 208.65625 296.625 209.144531 C 296.515625 209.269531 296.171875 209.632812 295.589844 210.234375 C 295.007812 210.835938 294.1875 211.679688 293.128906 212.757812 Z M 293.128906 212.757812 "/>
<path style=" stroke:none;fill-rule:nonzero;fill:rgb(0%,0%,0%);fill-opacity:1;" d="M 179.226562 224.808594 L 176.589844 228.359375 L 179.363281 232.101562 L 177.949219 232.101562 L 175.828125 229.238281 L 173.707031 232.101562 L 172.292969 232.101562 L 175.125 228.289062 L 172.535156 224.808594 L 173.945312 224.808594 L 175.878906 227.410156 L 177.8125 224.808594 Z M 179.226562 224.808594 "/>
<g clip-path="url(#clip6)" clip-rule="nonzero">
<path style="fill:none;stroke-width:0.8;stroke-linecap:square;stroke-linejoin:round;stroke:rgb(69.01961%,69.01961%,69.01961%);stroke-opacity:1;stroke-miterlimit:4;" d="M 34.239258 139.5 L 229.541016 139.5 " transform="matrix(1.333333,0,0,1.333333,0,0.000000000000014211)"/>
</g>
<path style="fill:none;stroke-width:0.8;stroke-linecap:butt;stroke-linejoin:round;stroke:rgb(0%,0%,0%);stroke-opacity:1;stroke-miterlimit:4;" d="M -0.00136566 0 L -3.499413 0 " transform="matrix(1.333333,0,0,1.333333,45.654165,186)"/>
<path style=" stroke:none;fill-rule:nonzero;fill:rgb(0%,0%,0%);fill-opacity:1;" d="M 32.074219 182.210938 C 31.398438 182.210938 30.890625 182.542969 30.546875 183.210938 C 30.207031 183.875 30.039062 184.878906 30.039062 186.214844 C 30.039062 187.546875 30.207031 188.546875 30.546875 189.214844 C 30.890625 189.878906 31.398438 190.214844 32.074219 190.214844 C 32.757812 190.214844 33.269531 189.878906 33.609375 189.214844 C 33.949219 188.546875 34.121094 187.546875 34.121094 186.214844 C 34.121094 184.878906 33.949219 183.875 33.609375 183.210938 C 33.269531 182.542969 32.757812 182.210938 32.074219 182.210938 Z M 32.074219 181.167969 C 33.164062 181.167969 33.996094 181.601562 34.574219 182.464844 C 35.148438 183.324219 35.433594 184.574219 35.433594 186.214844 C 35.433594 187.851562 35.148438 189.101562 34.574219 189.964844 C 33.996094 190.824219 33.164062 191.253906 32.074219 191.253906 C 30.984375 191.253906 30.152344 190.824219 29.578125 189.964844 C 29.003906 189.101562 28.714844 187.851562 28.714844 186.214844 C 28.714844 184.574219 29.003906 183.324219 29.578125 182.464844 C 30.152344 181.601562 30.984375 181.167969 32.074219 181.167969 Z M 32.074219 181.167969 "/>
<g clip-path="url(#clip7)" clip-rule="nonzero">
<path style="fill:none;stroke-width:0.8;stroke-linecap:square;stroke-linejoin:round;stroke:rgb(69.01961%,69.01961%,69.01961%);stroke-opacity:1;stroke-miterlimit:4;" d="M 34.239258 111.500977 L 229.541016 111.500977 " transform="matrix(1.333333,0,0,1.333333,0,0.000000000000014211)"/>
</g>
<path style="fill:none;stroke-width:0.8;stroke-linecap:butt;stroke-linejoin:round;stroke:rgb(0%,0%,0%);stroke-opacity:1;stroke-miterlimit:4;" d="M -0.00136566 0.000976562 L -3.499413 0.000976562 " transform="matrix(1.333333,0,0,1.333333,45.654165,148.666667)"/>
<path style=" stroke:none;fill-rule:nonzero;fill:rgb(0%,0%,0%);fill-opacity:1;" d="M 30.394531 152.625 L 34.984375 152.625 L 34.984375 153.730469 L 28.816406 153.730469 L 28.816406 152.625 C 29.3125 152.109375 29.992188 151.417969 30.855469 150.546875 C 31.714844 149.675781 32.257812 149.113281 32.480469 148.863281 C 32.898438 148.390625 33.195312 147.988281 33.359375 147.660156 C 33.527344 147.332031 33.613281 147.011719 33.613281 146.695312 C 33.613281 146.179688 33.429688 145.757812 33.070312 145.433594 C 32.707031 145.105469 32.234375 144.941406 31.652344 144.941406 C 31.238281 144.941406 30.804688 145.015625 30.347656 145.15625 C 29.890625 145.300781 29.398438 145.519531 28.878906 145.808594 L 28.878906 144.480469 C 29.410156 144.269531 29.902344 144.105469 30.363281 144 C 30.824219 143.890625 31.246094 143.835938 31.628906 143.835938 C 32.632812 143.835938 33.4375 144.089844 34.035156 144.59375 C 34.632812 145.09375 34.933594 145.769531 34.933594 146.609375 C 34.933594 147.007812 34.859375 147.386719 34.707031 147.746094 C 34.558594 148.105469 34.289062 148.523438 33.890625 149.011719 C 33.785156 149.136719 33.4375 149.5 32.855469 150.101562 C 32.277344 150.703125 31.457031 151.546875 30.394531 152.625 Z M 30.394531 152.625 "/>
<g clip-path="url(#clip8)" clip-rule="nonzero">
<path style="fill:none;stroke-width:0.8;stroke-linecap:square;stroke-linejoin:round;stroke:rgb(69.01961%,69.01961%,69.01961%);stroke-opacity:1;stroke-miterlimit:4;" d="M 34.239258 83.499023 L 229.541016 83.499023 " transform="matrix(1.333333,0,0,1.333333,0,0.000000000000014211)"/>
</g>
<path style="fill:none;stroke-width:0.8;stroke-linecap:butt;stroke-linejoin:round;stroke:rgb(0%,0%,0%);stroke-opacity:1;stroke-miterlimit:4;" d="M -0.00136566 -0.000976563 L -3.499413 -0.000976563 " transform="matrix(1.333333,0,0,1.333333,45.654165,111.333333)"/>
<path style=" stroke:none;fill-rule:nonzero;fill:rgb(0%,0%,0%);fill-opacity:1;" d="M 32.878906 107.824219 L 29.554688 113.011719 L 32.878906 113.011719 Z M 32.53125 106.679688 L 34.183594 106.679688 L 34.183594 113.011719 L 35.574219 113.011719 L 35.574219 114.105469 L 34.183594 114.105469 L 34.183594 116.398438 L 32.878906 116.398438 L 32.878906 114.105469 L 28.488281 114.105469 L 28.488281 112.839844 Z M 32.53125 106.679688 "/>
<g clip-path="url(#clip9)" clip-rule="nonzero">
<path style="fill:none;stroke-width:0.8;stroke-linecap:square;stroke-linejoin:round;stroke:rgb(69.01961%,69.01961%,69.01961%);stroke-opacity:1;stroke-miterlimit:4;" d="M 34.239258 55.5 L 229.541016 55.5 " transform="matrix(1.333333,0,0,1.333333,0,0.000000000000014211)"/>
</g>
<path style="fill:none;stroke-width:0.8;stroke-linecap:butt;stroke-linejoin:round;stroke:rgb(0%,0%,0%);stroke-opacity:1;stroke-miterlimit:4;" d="M -0.00136566 -0.000000000000014211 L -3.499413 -0.000000000000014211 " transform="matrix(1.333333,0,0,1.333333,45.654165,74)"/>
<path style=" stroke:none;fill-rule:nonzero;fill:rgb(0%,0%,0%);fill-opacity:1;" d="M 32.238281 73.683594 C 31.648438 73.683594 31.179688 73.882812 30.835938 74.289062 C 30.492188 74.691406 30.320312 75.242188 30.320312 75.945312 C 30.320312 76.644531 30.492188 77.199219 30.835938 77.605469 C 31.179688 78.011719 31.648438 78.214844 32.238281 78.214844 C 32.828125 78.214844 33.296875 78.011719 33.640625 77.605469 C 33.984375 77.199219 34.160156 76.644531 34.160156 75.945312 C 34.160156 75.242188 33.984375 74.691406 33.640625 74.289062 C 33.296875 73.882812 32.828125 73.683594 32.238281 73.683594 Z M 34.851562 69.558594 L 34.851562 70.757812 C 34.519531 70.601562 34.1875 70.484375 33.851562 70.402344 C 33.515625 70.316406 33.179688 70.277344 32.851562 70.277344 C 31.980469 70.277344 31.320312 70.570312 30.859375 71.15625 C 30.402344 71.742188 30.140625 72.625 30.078125 73.8125 C 30.332031 73.433594 30.652344 73.144531 31.039062 72.941406 C 31.425781 72.742188 31.851562 72.640625 32.316406 72.640625 C 33.292969 72.640625 34.066406 72.9375 34.632812 73.53125 C 35.199219 74.121094 35.480469 74.925781 35.480469 75.945312 C 35.480469 76.945312 35.1875 77.746094 34.597656 78.351562 C 34.003906 78.953125 33.21875 79.253906 32.238281 79.253906 C 31.113281 79.253906 30.253906 78.824219 29.660156 77.964844 C 29.066406 77.101562 28.769531 75.851562 28.769531 74.214844 C 28.769531 72.679688 29.132812 71.453125 29.863281 70.539062 C 30.589844 69.625 31.570312 69.167969 32.796875 69.167969 C 33.128906 69.167969 33.460938 69.203125 33.796875 69.269531 C 34.132812 69.332031 34.484375 69.429688 34.851562 69.558594 Z M 34.851562 69.558594 "/>
<g clip-path="url(#clip10)" clip-rule="nonzero">
<path style="fill:none;stroke-width:0.8;stroke-linecap:square;stroke-linejoin:round;stroke:rgb(69.01961%,69.01961%,69.01961%);stroke-opacity:1;stroke-miterlimit:4;" d="M 34.239258 27.500977 L 229.541016 27.500977 " transform="matrix(1.333333,0,0,1.333333,0,0.000000000000014211)"/>
</g>
<path style="fill:none;stroke-width:0.8;stroke-linecap:butt;stroke-linejoin:round;stroke:rgb(0%,0%,0%);stroke-opacity:1;stroke-miterlimit:4;" d="M -0.00136566 0.000976562 L -3.499413 0.000976562 " transform="matrix(1.333333,0,0,1.333333,45.654165,36.666667)"/>
<path style=" stroke:none;fill-rule:nonzero;fill:rgb(0%,0%,0%);fill-opacity:1;" d="M 32.074219 37.117188 C 31.449219 37.117188 30.957031 37.28125 30.601562 37.617188 C 30.242188 37.953125 30.066406 38.414062 30.066406 38.996094 C 30.066406 39.582031 30.242188 40.042969 30.601562 40.378906 C 30.957031 40.710938 31.449219 40.878906 32.074219 40.878906 C 32.699219 40.878906 33.191406 40.710938 33.550781 40.375 C 33.914062 40.039062 34.09375 39.578125 34.09375 38.996094 C 34.09375 38.414062 33.914062 37.953125 33.554688 37.617188 C 33.199219 37.28125 32.707031 37.117188 32.074219 37.117188 Z M 30.761719 36.558594 C 30.195312 36.417969 29.757812 36.15625 29.441406 35.769531 C 29.128906 35.382812 28.972656 34.910156 28.972656 34.355469 C 28.972656 33.578125 29.246094 32.964844 29.800781 32.511719 C 30.355469 32.0625 31.113281 31.835938 32.074219 31.835938 C 33.042969 31.835938 33.804688 32.0625 34.355469 32.511719 C 34.90625 32.964844 35.179688 33.578125 35.179688 34.355469 C 35.179688 34.910156 35.023438 35.382812 34.707031 35.769531 C 34.394531 36.15625 33.957031 36.417969 33.398438 36.558594 C 34.03125 36.703125 34.523438 36.992188 34.878906 37.425781 C 35.230469 37.851562 35.410156 38.378906 35.410156 38.996094 C 35.410156 39.941406 35.121094 40.664062 34.546875 41.167969 C 33.972656 41.671875 33.148438 41.921875 32.074219 41.921875 C 31.003906 41.921875 30.179688 41.671875 29.605469 41.167969 C 29.027344 40.664062 28.742188 39.941406 28.742188 38.996094 C 28.742188 38.378906 28.917969 37.851562 29.273438 37.425781 C 29.632812 36.992188 30.128906 36.703125 30.761719 36.558594 Z M 30.277344 34.480469 C 30.277344 34.984375 30.4375 35.375 30.75 35.65625 C 31.066406 35.9375 31.507812 36.082031 32.074219 36.082031 C 32.640625 36.082031 33.082031 35.9375 33.398438 35.65625 C 33.71875 35.375 33.878906 34.984375 33.878906 34.480469 C 33.878906 33.976562 33.71875 33.582031 33.398438 33.300781 C 33.082031 33.019531 32.640625 32.878906 32.074219 32.878906 C 31.507812 32.878906 31.066406 33.019531 30.75 33.300781 C 30.4375 33.582031 30.277344 33.976562 30.277344 34.480469 Z M 30.277344 34.480469 "/>
<path style=" stroke:none;fill-rule:nonzero;fill:rgb(0%,0%,0%);fill-opacity:1;" d="M 9.601562 108.546875 L 10.597656 108.546875 L 10.597656 109.691406 C 10.597656 110.121094 10.683594 110.421875 10.859375 110.589844 C 11.03125 110.753906 11.34375 110.839844 11.796875 110.839844 L 12.441406 110.839844 L 12.441406 108.867188 L 13.371094 108.867188 L 13.371094 110.839844 L 19.730469 110.839844 L 19.730469 112.042969 L 13.371094 112.042969 L 13.371094 113.1875 L 12.441406 113.1875 L 12.441406 112.042969 L 11.929688 112.042969 C 11.121094 112.042969 10.527344 111.855469 10.160156 111.476562 C 9.785156 111.097656 9.601562 110.5 9.601562 109.679688 Z M 9.601562 108.546875 "/>
<path style=" stroke:none;fill-rule:nonzero;fill:rgb(0%,0%,0%);fill-opacity:1;" d="M 9.613281 104.667969 C 10.613281 105.246094 11.597656 105.679688 12.578125 105.964844 C 13.554688 106.246094 14.542969 106.386719 15.546875 106.386719 C 16.546875 106.386719 17.539062 106.242188 18.523438 105.960938 C 19.507812 105.675781 20.496094 105.242188 21.488281 104.667969 L 21.488281 105.710938 C 20.46875 106.359375 19.464844 106.847656 18.480469 107.167969 C 17.496094 107.492188 16.519531 107.65625 15.546875 107.65625 C 14.578125 107.65625 13.601562 107.496094 12.621094 107.171875 C 11.640625 106.851562 10.636719 106.363281 9.613281 105.710938 Z M 9.613281 104.667969 "/>
<path style=" stroke:none;fill-rule:nonzero;fill:rgb(0%,0%,0%);fill-opacity:1;" d="M 12.441406 96.28125 L 15.988281 98.917969 L 19.730469 96.144531 L 19.730469 97.558594 L 16.867188 99.679688 L 19.730469 101.800781 L 19.730469 103.214844 L 15.917969 100.382812 L 12.441406 102.972656 L 12.441406 101.5625 L 15.039062 99.628906 L 12.441406 97.695312 Z M 12.441406 96.28125 "/>
<path style=" stroke:none;fill-rule:nonzero;fill:rgb(0%,0%,0%);fill-opacity:1;" d="M 9.613281 94.640625 L 9.613281 93.597656 C 10.636719 92.949219 11.640625 92.460938 12.621094 92.136719 C 13.601562 91.8125 14.578125 91.652344 15.546875 91.652344 C 16.519531 91.652344 17.496094 91.8125 18.480469 92.136719 C 19.464844 92.460938 20.46875 92.949219 21.488281 93.597656 L 21.488281 94.640625 C 20.496094 94.0625 19.507812 93.632812 18.523438 93.347656 C 17.539062 93.0625 16.546875 92.921875 15.546875 92.921875 C 14.542969 92.921875 13.554688 93.0625 12.578125 93.347656 C 11.597656 93.632812 10.613281 94.0625 9.613281 94.640625 Z M 9.613281 94.640625 "/>
<path style="fill:none;stroke-width:1.5;stroke-linecap:square;stroke-linejoin:round;stroke:rgb(12.156863%,46.666667%,70.588237%);stroke-opacity:1;stroke-miterlimit:4;" d="M 43.119141 13.5 L 48.902344 24.18457 L 54.688477 34.394531 L 60.47168 44.129883 L 65.8125 52.699219 L 71.150391 60.864258 L 76.491211 68.625 L 81.832031 75.984375 L 87.169922 82.939453 L 92.06543 88.959961 L 96.960938 94.643555 L 101.853516 99.987305 L 106.749023 104.991211 L 111.644531 109.658203 L 116.094727 113.604492 L 120.544922 117.272461 L 124.992188 120.662109 L 129.442383 123.770508 L 133.892578 126.597656 L 138.342773 129.146484 L 142.792969 131.414062 L 146.797852 133.21582 L 150.802734 134.789062 L 154.807617 136.139648 L 158.8125 137.258789 L 162.817383 138.155273 L 166.822266 138.823242 L 170.827148 139.262695 L 174.832031 139.476562 L 178.836914 139.464844 L 182.841797 139.224609 L 186.84375 138.758789 L 190.848633 138.067383 L 194.853516 137.147461 L 198.858398 135.999023 L 202.863281 134.62793 L 206.868164 133.025391 L 210.873047 131.200195 L 214.87793 129.146484 L 219.328125 126.597656 L 220.664062 125.777344 " transform="matrix(1.333333,0,0,1.333333,0,0.000000000000014211)"/>
<path style="fill:none;stroke-width:1.5;stroke-linecap:butt;stroke-linejoin:round;stroke:rgb(74.901962%,0%,74.901962%);stroke-opacity:1;stroke-dasharray:5.55,2.4;stroke-miterlimit:4;" d="M 65.367188 51.999023 L 176.610352 139.5 " transform="matrix(1.333333,0,0,1.333333,0,0.000000000000014211)"/>
<path style="fill:none;stroke-width:0.8;stroke-linecap:square;stroke-linejoin:miter;stroke:rgb(0%,0%,0%);stroke-opacity:1;stroke-miterlimit:4;" d="M 34.239258 145.798828 L 34.239258 7.201172 " transform="matrix(1.333333,0,0,1.333333,0,0.000000000000014211)"/>
<path style="fill:none;stroke-width:0.8;stroke-linecap:square;stroke-linejoin:miter;stroke:rgb(0%,0%,0%);stroke-opacity:1;stroke-miterlimit:4;" d="M 229.541016 145.798828 L 229.541016 7.201172 " transform="matrix(1.333333,0,0,1.333333,0,0.000000000000014211)"/>
<path style="fill:none;stroke-width:0.8;stroke-linecap:square;stroke-linejoin:miter;stroke:rgb(0%,0%,0%);stroke-opacity:1;stroke-miterlimit:4;" d="M 34.239258 145.798828 L 229.541016 145.798828 " transform="matrix(1.333333,0,0,1.333333,0,0.000000000000014211)"/>
<path style="fill:none;stroke-width:0.8;stroke-linecap:square;stroke-linejoin:miter;stroke:rgb(0%,0%,0%);stroke-opacity:1;stroke-miterlimit:4;" d="M 34.239258 7.201172 L 229.541016 7.201172 " transform="matrix(1.333333,0,0,1.333333,0,0.000000000000014211)"/>
</g>
</svg>
