<?xml version="1.0" encoding="UTF-8"?>
<svg xmlns="http://www.w3.org/2000/svg" xmlns:xlink="http://www.w3.org/1999/xlink" width="326.827087" height="244.474996" viewBox="0 0 326.827087 244.474996" version="1.1">
<defs>
<clipPath id="clip1">
  <path d="M 67 9.601562 L 70 9.601562 L 70 194.398438 L 67 194.398438 Z M 67 9.601562 "/>
</clipPath>
<clipPath id="clip2">
  <path d="M 127 9.601562 L 129 9.601562 L 129 194.398438 L 127 194.398438 Z M 127 9.601562 "/>
</clipPath>
<clipPath id="clip3">
  <path d="M 186 9.601562 L 189 9.601562 L 189 194.398438 L 186 194.398438 Z M 186 9.601562 "/>
</clipPath>
<clipPath id="clip4">
  <path d="M 245 9.601562 L 248 9.601562 L 248 194.398438 L 245 194.398438 Z M 245 9.601562 "/>
</clipPath>
<clipPath id="clip5">
  <path d="M 305 9.601562 L 307 9.601562 L 307 194.398438 L 305 194.398438 Z M 305 9.601562 "/>
</clipPath>
<clipPath id="clip6">
  <path d="M 56.828125 153 L 317.226562 153 L 317.226562 156 L 56.828125 156 Z M 56.828125 153 "/>
</clipPath>
<clipPath id="clip7">
  <path d="M 56.828125 100 L 317.226562 100 L 317.226562 103 L 56.828125 103 Z M 56.828125 100 "/>
</clipPath>
<clipPath id="clip8">
  <path d="M 56.828125 47 L 317.226562 47 L 317.226562 50 L 56.828125 50 Z M 56.828125 47 "/>
</clipPath>
</defs>
<g id="surface1">
<path style=" stroke:none;fill-rule:nonzero;fill:rgb(100%,100%,100%);fill-opacity:1;" d="M 0 244.476562 L 326.828125 244.476562 L 326.828125 0 L 0 0 Z M 0 244.476562 "/>
<path style=" stroke:none;fill-rule:nonzero;fill:rgb(100%,100%,100%);fill-opacity:1;" d="M 56.828125 194.398438 L 317.226562 194.398438 L 317.226562 9.601562 L 56.828125 9.601562 Z M 56.828125 194.398438 "/>
<g clip-path="url(#clip1)" clip-rule="nonzero">
<path style="fill:none;stroke-width:0.8;stroke-linecap:square;stroke-linejoin:round;stroke:rgb(69.01961%,69.01961%,69.01961%);stroke-opacity:1;stroke-miterlimit:4;" d="M 51.498047 145.798828 L 51.498047 7.201172 " transform="matrix(1.333333,0,0,1.333333,0,0.000000000000014211)"/>
</g>
<path style="fill:none;stroke-width:0.8;stroke-linecap:butt;stroke-linejoin:round;stroke:rgb(0%,0%,0%);stroke-opacity:1;stroke-miterlimit:4;" d="M 0.000461578 -0.00117493 L 0.000461578 3.499802 " transform="matrix(1.333333,0,0,1.333333,68.663447,194.400004)"/>
<path style=" stroke:none;fill-rule:nonzero;fill:rgb(0%,0%,0%);fill-opacity:1;" d="M 60.246094 209.132812 L 68.59375 209.132812 L 68.59375 210.238281 L 60.246094 210.238281 Z M 60.246094 209.132812 "/>
<path style=" stroke:none;fill-rule:nonzero;fill:rgb(0%,0%,0%);fill-opacity:1;" d="M 72.566406 212.757812 L 77.15625 212.757812 L 77.15625 213.863281 L 70.984375 213.863281 L 70.984375 212.757812 C 71.484375 212.242188 72.164062 211.546875 73.023438 210.679688 C 73.886719 209.808594 74.429688 209.246094 74.648438 208.992188 C 75.070312 208.523438 75.363281 208.121094 75.53125 207.792969 C 75.699219 207.464844 75.78125 207.144531 75.78125 206.828125 C 75.78125 206.308594 75.601562 205.890625 75.238281 205.566406 C 74.875 205.238281 74.402344 205.074219 73.820312 205.074219 C 73.410156 205.074219 72.972656 205.148438 72.515625 205.289062 C 72.058594 205.433594 71.570312 205.648438 71.050781 205.941406 L 71.050781 204.613281 C 71.578125 204.398438 72.074219 204.238281 72.53125 204.132812 C 72.992188 204.023438 73.414062 203.96875 73.796875 203.96875 C 74.804688 203.96875 75.605469 204.222656 76.207031 204.726562 C 76.804688 205.226562 77.101562 205.898438 77.101562 206.742188 C 77.101562 207.140625 77.027344 207.519531 76.878906 207.878906 C 76.730469 208.234375 76.457031 208.65625 76.0625 209.144531 C 75.953125 209.269531 75.609375 209.632812 75.027344 210.234375 C 74.445312 210.835938 73.625 211.679688 72.566406 212.757812 Z M 72.566406 212.757812 "/>
<g clip-path="url(#clip2)" clip-rule="nonzero">
<path style="fill:none;stroke-width:0.8;stroke-linecap:square;stroke-linejoin:round;stroke:rgb(69.01961%,69.01961%,69.01961%);stroke-opacity:1;stroke-miterlimit:4;" d="M 95.994141 145.798828 L 95.994141 7.201172 " transform="matrix(1.333333,0,0,1.333333,0,0.000000000000014211)"/>
</g>
<path style="fill:none;stroke-width:0.8;stroke-linecap:butt;stroke-linejoin:round;stroke:rgb(0%,0%,0%);stroke-opacity:1;stroke-miterlimit:4;" d="M -0.00105286 -0.00117493 L -0.00105286 3.499802 " transform="matrix(1.333333,0,0,1.333333,127.993591,194.400004)"/>
<path style=" stroke:none;fill-rule:nonzero;fill:rgb(0%,0%,0%);fill-opacity:1;" d="M 119.578125 209.132812 L 127.921875 209.132812 L 127.921875 210.238281 L 119.578125 210.238281 Z M 119.578125 209.132812 "/>
<path style=" stroke:none;fill-rule:nonzero;fill:rgb(0%,0%,0%);fill-opacity:1;" d="M 130.992188 212.757812 L 133.140625 212.757812 L 133.140625 205.339844 L 130.800781 205.808594 L 130.800781 204.613281 L 133.125 204.144531 L 134.441406 204.144531 L 134.441406 212.757812 L 136.589844 212.757812 L 136.589844 213.863281 L 130.992188 213.863281 Z M 130.992188 212.757812 "/>
<g clip-path="url(#clip3)" clip-rule="nonzero">
<path style="fill:none;stroke-width:0.8;stroke-linecap:square;stroke-linejoin:round;stroke:rgb(69.01961%,69.01961%,69.01961%);stroke-opacity:1;stroke-miterlimit:4;" d="M 140.493164 145.798828 L 140.493164 7.201172 " transform="matrix(1.333333,0,0,1.333333,0,0.000000000000014211)"/>
</g>
<path style="fill:none;stroke-width:0.8;stroke-linecap:butt;stroke-linejoin:round;stroke:rgb(0%,0%,0%);stroke-opacity:1;stroke-miterlimit:4;" d="M 0.000366211 -0.00117493 L 0.000366211 3.499802 " transform="matrix(1.333333,0,0,1.333333,187.32373,194.400004)"/>
<path style=" stroke:none;fill-rule:nonzero;fill:rgb(0%,0%,0%);fill-opacity:1;" d="M 187.320312 205.011719 C 186.644531 205.011719 186.132812 205.34375 185.792969 206.011719 C 185.453125 206.675781 185.28125 207.675781 185.28125 209.015625 C 185.28125 210.347656 185.453125 211.347656 185.792969 212.011719 C 186.132812 212.679688 186.644531 213.011719 187.320312 213.011719 C 188 213.011719 188.511719 212.679688 188.851562 212.011719 C 189.195312 211.347656 189.367188 210.347656 189.367188 209.015625 C 189.367188 207.675781 189.195312 206.675781 188.851562 206.011719 C 188.511719 205.34375 188 205.011719 187.320312 205.011719 Z M 187.320312 203.96875 C 188.410156 203.96875 189.242188 204.398438 189.816406 205.261719 C 190.390625 206.125 190.679688 207.375 190.679688 209.015625 C 190.679688 210.652344 190.390625 211.898438 189.816406 212.761719 C 189.242188 213.625 188.410156 214.054688 187.320312 214.054688 C 186.230469 214.054688 185.398438 213.625 184.824219 212.761719 C 184.25 211.898438 183.960938 210.652344 183.960938 209.015625 C 183.960938 207.375 184.25 206.125 184.824219 205.261719 C 185.398438 204.398438 186.230469 203.96875 187.320312 203.96875 Z M 187.320312 203.96875 "/>
<g clip-path="url(#clip4)" clip-rule="nonzero">
<path style="fill:none;stroke-width:0.8;stroke-linecap:square;stroke-linejoin:round;stroke:rgb(69.01961%,69.01961%,69.01961%);stroke-opacity:1;stroke-miterlimit:4;" d="M 184.989258 145.798828 L 184.989258 7.201172 " transform="matrix(1.333333,0,0,1.333333,0,0.000000000000014211)"/>
</g>
<path style="fill:none;stroke-width:0.8;stroke-linecap:butt;stroke-linejoin:round;stroke:rgb(0%,0%,0%);stroke-opacity:1;stroke-miterlimit:4;" d="M -0.00114441 -0.00117493 L -0.00114441 3.499802 " transform="matrix(1.333333,0,0,1.333333,246.65387,194.400004)"/>
<path style=" stroke:none;fill-rule:nonzero;fill:rgb(0%,0%,0%);fill-opacity:1;" d="M 244.066406 212.757812 L 246.214844 212.757812 L 246.214844 205.339844 L 243.875 205.808594 L 243.875 204.613281 L 246.203125 204.144531 L 247.515625 204.144531 L 247.515625 212.757812 L 249.664062 212.757812 L 249.664062 213.863281 L 244.066406 213.863281 Z M 244.066406 212.757812 "/>
<g clip-path="url(#clip5)" clip-rule="nonzero">
<path style="fill:none;stroke-width:0.8;stroke-linecap:square;stroke-linejoin:round;stroke:rgb(69.01961%,69.01961%,69.01961%);stroke-opacity:1;stroke-miterlimit:4;" d="M 229.488281 145.798828 L 229.488281 7.201172 " transform="matrix(1.333333,0,0,1.333333,0,0.000000000000014211)"/>
</g>
<path style="fill:none;stroke-width:0.8;stroke-linecap:butt;stroke-linejoin:round;stroke:rgb(0%,0%,0%);stroke-opacity:1;stroke-miterlimit:4;" d="M 0.000259399 -0.00117493 L 0.000259399 3.499802 " transform="matrix(1.333333,0,0,1.333333,305.984029,194.400004)"/>
<path style=" stroke:none;fill-rule:nonzero;fill:rgb(0%,0%,0%);fill-opacity:1;" d="M 304.300781 212.757812 L 308.890625 212.757812 L 308.890625 213.863281 L 302.71875 213.863281 L 302.71875 212.757812 C 303.21875 212.242188 303.898438 211.546875 304.757812 210.679688 C 305.621094 209.808594 306.164062 209.246094 306.382812 208.992188 C 306.804688 208.523438 307.097656 208.121094 307.265625 207.792969 C 307.433594 207.464844 307.515625 207.144531 307.515625 206.828125 C 307.515625 206.308594 307.335938 205.890625 306.972656 205.566406 C 306.609375 205.238281 306.140625 205.074219 305.558594 205.074219 C 305.144531 205.074219 304.710938 205.148438 304.25 205.289062 C 303.792969 205.433594 303.304688 205.648438 302.785156 205.941406 L 302.785156 204.613281 C 303.3125 204.398438 303.808594 204.238281 304.265625 204.132812 C 304.726562 204.023438 305.148438 203.96875 305.53125 203.96875 C 306.539062 203.96875 307.339844 204.222656 307.941406 204.726562 C 308.539062 205.226562 308.839844 205.898438 308.839844 206.742188 C 308.839844 207.140625 308.761719 207.519531 308.613281 207.878906 C 308.464844 208.234375 308.191406 208.65625 307.796875 209.144531 C 307.6875 209.269531 307.34375 209.632812 306.761719 210.234375 C 306.179688 210.835938 305.359375 211.679688 304.300781 212.757812 Z M 304.300781 212.757812 "/>
<path style=" stroke:none;fill-rule:nonzero;fill:rgb(0%,0%,0%);fill-opacity:1;" d="M 190.398438 224.808594 L 187.761719 228.359375 L 190.535156 232.101562 L 189.121094 232.101562 L 187 229.238281 L 184.878906 232.101562 L 183.464844 232.101562 L 186.296875 228.289062 L 183.707031 224.808594 L 185.117188 224.808594 L 187.050781 227.410156 L 188.984375 224.808594 Z M 190.398438 224.808594 "/>
<g clip-path="url(#clip6)" clip-rule="nonzero">
<path style="fill:none;stroke-width:0.8;stroke-linecap:square;stroke-linejoin:round;stroke:rgb(69.01961%,69.01961%,69.01961%);stroke-opacity:1;stroke-miterlimit:4;" d="M 42.621094 115.696289 L 237.919922 115.696289 " transform="matrix(1.333333,0,0,1.333333,0,0.000000000000014211)"/>
</g>
<path style="fill:none;stroke-width:0.8;stroke-linecap:butt;stroke-linejoin:round;stroke:rgb(0%,0%,0%);stroke-opacity:1;stroke-miterlimit:4;" d="M 0.000782013 -0.00108337 L -3.500195 -0.00108337 " transform="matrix(1.333333,0,0,1.333333,56.827082,154.263163)"/>
<path style=" stroke:none;fill-rule:nonzero;fill:rgb(0%,0%,0%);fill-opacity:1;" d="M 29.25 154.59375 L 37.597656 154.59375 L 37.597656 155.703125 L 29.25 155.703125 Z M 29.25 154.59375 "/>
<path style=" stroke:none;fill-rule:nonzero;fill:rgb(0%,0%,0%);fill-opacity:1;" d="M 40.449219 149.609375 L 45.613281 149.609375 L 45.613281 150.714844 L 41.652344 150.714844 L 41.652344 153.097656 C 41.84375 153.03125 42.035156 152.984375 42.222656 152.953125 C 42.414062 152.917969 42.605469 152.902344 42.800781 152.902344 C 43.882812 152.902344 44.742188 153.199219 45.375 153.796875 C 46.011719 154.390625 46.328125 155.195312 46.328125 156.210938 C 46.328125 157.257812 46.003906 158.070312 45.351562 158.648438 C 44.699219 159.230469 43.78125 159.519531 42.597656 159.519531 C 42.1875 159.519531 41.773438 159.484375 41.347656 159.414062 C 40.925781 159.34375 40.488281 159.242188 40.039062 159.101562 L 40.039062 157.777344 C 40.429688 157.992188 40.832031 158.148438 41.25 158.253906 C 41.664062 158.359375 42.105469 158.410156 42.570312 158.410156 C 43.320312 158.410156 43.914062 158.210938 44.351562 157.820312 C 44.792969 157.425781 45.011719 156.886719 45.011719 156.210938 C 45.011719 155.535156 44.792969 155 44.351562 154.605469 C 43.914062 154.207031 43.320312 154.011719 42.570312 154.011719 C 42.21875 154.011719 41.867188 154.050781 41.519531 154.125 C 41.167969 154.203125 40.8125 154.324219 40.449219 154.492188 Z M 40.449219 149.609375 "/>
<g clip-path="url(#clip7)" clip-rule="nonzero">
<path style="fill:none;stroke-width:0.8;stroke-linecap:square;stroke-linejoin:round;stroke:rgb(69.01961%,69.01961%,69.01961%);stroke-opacity:1;stroke-miterlimit:4;" d="M 42.621094 76.025391 L 237.919922 76.025391 " transform="matrix(1.333333,0,0,1.333333,0,0.000000000000014211)"/>
</g>
<path style="fill:none;stroke-width:0.8;stroke-linecap:butt;stroke-linejoin:round;stroke:rgb(0%,0%,0%);stroke-opacity:1;stroke-miterlimit:4;" d="M 0.000782013 -0.000930786 L -3.500195 -0.000930786 " transform="matrix(1.333333,0,0,1.333333,56.827082,101.368429)"/>
<path style=" stroke:none;fill-rule:nonzero;fill:rgb(0%,0%,0%);fill-opacity:1;" d="M 43.246094 97.578125 C 42.570312 97.578125 42.0625 97.914062 41.722656 98.578125 C 41.378906 99.246094 41.210938 100.246094 41.210938 101.585938 C 41.210938 102.914062 41.378906 103.914062 41.722656 104.582031 C 42.0625 105.25 42.570312 105.582031 43.246094 105.582031 C 43.929688 105.582031 44.441406 105.25 44.78125 104.582031 C 45.121094 103.914062 45.292969 102.914062 45.292969 101.585938 C 45.292969 100.246094 45.121094 99.246094 44.78125 98.578125 C 44.441406 97.914062 43.929688 97.578125 43.246094 97.578125 Z M 43.246094 96.539062 C 44.339844 96.539062 45.171875 96.96875 45.746094 97.832031 C 46.320312 98.691406 46.609375 99.945312 46.609375 101.585938 C 46.609375 103.21875 46.320312 104.46875 45.746094 105.332031 C 45.171875 106.191406 44.339844 106.625 43.246094 106.625 C 42.160156 106.625 41.328125 106.191406 40.753906 105.332031 C 40.175781 104.46875 39.890625 103.21875 39.890625 101.585938 C 39.890625 99.945312 40.175781 98.691406 40.753906 97.832031 C 41.328125 96.96875 42.160156 96.539062 43.246094 96.539062 Z M 43.246094 96.539062 "/>
<g clip-path="url(#clip8)" clip-rule="nonzero">
<path style="fill:none;stroke-width:0.8;stroke-linecap:square;stroke-linejoin:round;stroke:rgb(69.01961%,69.01961%,69.01961%);stroke-opacity:1;stroke-miterlimit:4;" d="M 42.621094 36.354492 L 237.919922 36.354492 " transform="matrix(1.333333,0,0,1.333333,0,0.000000000000014211)"/>
</g>
<path style="fill:none;stroke-width:0.8;stroke-linecap:butt;stroke-linejoin:round;stroke:rgb(0%,0%,0%);stroke-opacity:1;stroke-miterlimit:4;" d="M 0.000782013 -0.000782013 L -3.500195 -0.000782013 " transform="matrix(1.333333,0,0,1.333333,56.827082,48.473699)"/>
<path style=" stroke:none;fill-rule:nonzero;fill:rgb(0%,0%,0%);fill-opacity:1;" d="M 40.449219 43.820312 L 45.613281 43.820312 L 45.613281 44.925781 L 41.652344 44.925781 L 41.652344 47.308594 C 41.84375 47.242188 42.035156 47.195312 42.226562 47.164062 C 42.417969 47.128906 42.609375 47.113281 42.800781 47.113281 C 43.882812 47.113281 44.742188 47.410156 45.378906 48.007812 C 46.011719 48.601562 46.328125 49.40625 46.328125 50.421875 C 46.328125 51.464844 46.003906 52.28125 45.351562 52.859375 C 44.699219 53.4375 43.78125 53.730469 42.597656 53.730469 C 42.191406 53.730469 41.773438 53.695312 41.351562 53.625 C 40.929688 53.554688 40.492188 53.449219 40.039062 53.3125 L 40.039062 51.988281 C 40.429688 52.203125 40.832031 52.359375 41.25 52.464844 C 41.667969 52.570312 42.105469 52.621094 42.570312 52.621094 C 43.320312 52.621094 43.917969 52.421875 44.355469 52.027344 C 44.792969 51.632812 45.011719 51.097656 45.011719 50.421875 C 45.011719 49.746094 44.792969 49.207031 44.355469 48.8125 C 43.917969 48.417969 43.320312 48.21875 42.570312 48.21875 C 42.21875 48.21875 41.867188 48.257812 41.519531 48.335938 C 41.171875 48.414062 40.8125 48.535156 40.449219 48.703125 Z M 40.449219 43.820312 "/>
<path style=" stroke:none;fill-rule:nonzero;fill:rgb(0%,0%,0%);fill-opacity:1;" d="M 9.601562 108.546875 L 10.597656 108.546875 L 10.597656 109.691406 C 10.597656 110.121094 10.683594 110.421875 10.859375 110.589844 C 11.03125 110.753906 11.34375 110.839844 11.796875 110.839844 L 12.441406 110.839844 L 12.441406 108.867188 L 13.371094 108.867188 L 13.371094 110.839844 L 19.730469 110.839844 L 19.730469 112.042969 L 13.371094 112.042969 L 13.371094 113.1875 L 12.441406 113.1875 L 12.441406 112.042969 L 11.929688 112.042969 C 11.121094 112.042969 10.527344 111.855469 10.160156 111.476562 C 9.785156 111.097656 9.601562 110.5 9.601562 109.679688 Z M 9.601562 108.546875 "/>
<path style=" stroke:none;fill-rule:nonzero;fill:rgb(0%,0%,0%);fill-opacity:1;" d="M 9.613281 104.667969 C 10.613281 105.246094 11.597656 105.679688 12.578125 105.964844 C 13.554688 106.246094 14.542969 106.386719 15.546875 106.386719 C 16.546875 106.386719 17.539062 106.242188 18.523438 105.960938 C 19.507812 105.675781 20.496094 105.242188 21.488281 104.667969 L 21.488281 105.710938 C 20.46875 106.359375 19.464844 106.847656 18.480469 107.167969 C 17.496094 107.492188 16.519531 107.65625 15.546875 107.65625 C 14.578125 107.65625 13.601562 107.496094 12.621094 107.171875 C 11.640625 106.851562 10.636719 106.363281 9.613281 105.710938 Z M 9.613281 104.667969 "/>
<path style=" stroke:none;fill-rule:nonzero;fill:rgb(0%,0%,0%);fill-opacity:1;" d="M 12.441406 96.28125 L 15.988281 98.917969 L 19.730469 96.144531 L 19.730469 97.558594 L 16.867188 99.679688 L 19.730469 101.800781 L 19.730469 103.214844 L 15.917969 100.382812 L 12.441406 102.972656 L 12.441406 101.5625 L 15.039062 99.628906 L 12.441406 97.695312 Z M 12.441406 96.28125 "/>
<path style=" stroke:none;fill-rule:nonzero;fill:rgb(0%,0%,0%);fill-opacity:1;" d="M 9.613281 94.640625 L 9.613281 93.597656 C 10.636719 92.949219 11.640625 92.460938 12.621094 92.136719 C 13.601562 91.8125 14.578125 91.652344 15.546875 91.652344 C 16.519531 91.652344 17.496094 91.8125 18.480469 92.136719 C 19.464844 92.460938 20.46875 92.949219 21.488281 93.597656 L 21.488281 94.640625 C 20.496094 94.0625 19.507812 93.632812 18.523438 93.347656 C 17.539062 93.0625 16.546875 92.921875 15.546875 92.921875 C 14.542969 92.921875 13.554688 93.0625 12.578125 93.347656 C 11.597656 93.632812 10.613281 94.0625 9.613281 94.640625 Z M 9.613281 94.640625 "/>
<path style="fill:none;stroke-width:1.5;stroke-linecap:square;stroke-linejoin:round;stroke:rgb(12.156863%,46.666667%,70.588237%);stroke-opacity:1;stroke-miterlimit:4;" d="M 51.498047 139.5 L 54.612305 133.066406 L 57.726562 127.081055 L 60.84082 121.532227 L 63.958008 116.399414 L 67.072266 111.667969 L 70.186523 107.320312 L 73.300781 103.344727 L 76.415039 99.717773 L 79.532227 96.427734 L 82.646484 93.457031 L 85.760742 90.791016 L 88.875 88.412109 L 91.989258 86.302734 L 95.106445 84.445312 L 98.220703 82.828125 L 101.780273 81.251953 L 105.339844 79.939453 L 108.899414 78.867187 L 112.458984 78.008789 L 116.463867 77.276367 L 120.914062 76.702148 L 125.80957 76.3125 L 131.592773 76.089844 L 140.047852 76.025391 L 151.171875 75.916992 L 156.958008 75.624023 L 161.850586 75.149414 L 166.300781 74.478516 L 170.305664 73.640625 L 173.865234 72.679687 L 177.424805 71.490234 L 180.984375 70.045898 L 184.101562 68.557617 L 187.21582 66.84082 L 190.330078 64.87793 L 193.444336 62.657227 L 196.558594 60.155273 L 199.675781 57.360352 L 202.790039 54.254883 L 205.904297 50.824219 L 209.018555 47.047852 L 212.132812 42.914062 L 215.25 38.405273 L 218.364258 33.503906 L 221.478516 28.195312 L 224.592773 22.458984 L 227.707031 16.286133 L 229.042969 13.5 " transform="matrix(1.333333,0,0,1.333333,0,0.000000000000014211)"/>
<path style="fill:none;stroke-width:0.8;stroke-linecap:square;stroke-linejoin:miter;stroke:rgb(0%,0%,0%);stroke-opacity:1;stroke-miterlimit:4;" d="M 42.621094 145.798828 L 42.621094 7.201172 " transform="matrix(1.333333,0,0,1.333333,0,0.000000000000014211)"/>
<path style="fill:none;stroke-width:0.8;stroke-linecap:square;stroke-linejoin:miter;stroke:rgb(0%,0%,0%);stroke-opacity:1;stroke-miterlimit:4;" d="M 237.919922 145.798828 L 237.919922 7.201172 " transform="matrix(1.333333,0,0,1.333333,0,0.000000000000014211)"/>
<path style="fill:none;stroke-width:0.8;stroke-linecap:square;stroke-linejoin:miter;stroke:rgb(0%,0%,0%);stroke-opacity:1;stroke-miterlimit:4;" d="M 42.621094 145.798828 L 237.919922 145.798828 " transform="matrix(1.333333,0,0,1.333333,0,0.000000000000014211)"/>
<path style="fill:none;stroke-width:0.8;stroke-linecap:square;stroke-linejoin:miter;stroke:rgb(0%,0%,0%);stroke-opacity:1;stroke-miterlimit:4;" d="M 42.621094 7.201172 L 237.919922 7.201172 " transform="matrix(1.333333,0,0,1.333333,0,0.000000000000014211)"/>
<path style="fill:none;stroke-width:1;stroke-linecap:round;stroke-linejoin:round;stroke:rgb(0%,0%,0%);stroke-opacity:1;stroke-miterlimit:4;" d="M 146.261719 104.138672 C 144.480469 95.947266 142.77832 88.119141 141.155273 80.657227 " transform="matrix(1.333333,0,0,1.333333,0,0.000000000000014211)"/>
<path style="fill:none;stroke-width:1;stroke-linecap:round;stroke-linejoin:round;stroke:rgb(0%,0%,0%);stroke-opacity:1;stroke-miterlimit:4;" d="M 140.050781 84.993164 L 141.155273 80.657227 L 143.958984 84.140625 " transform="matrix(1.333333,0,0,1.333333,0,0.000000000000014211)"/>
<path style=" stroke:none;fill-rule:nonzero;fill:rgb(0%,0%,0%);fill-opacity:1;" d="M 162.375 147.1875 L 162.375 148.320312 C 162.039062 148.144531 161.6875 148.015625 161.320312 147.929688 C 160.957031 147.84375 160.582031 147.796875 160.1875 147.796875 C 159.59375 147.796875 159.148438 147.890625 158.851562 148.070312 C 158.554688 148.253906 158.40625 148.527344 158.40625 148.890625 C 158.40625 149.171875 158.511719 149.386719 158.722656 149.546875 C 158.9375 149.703125 159.363281 149.855469 160.007812 150 L 160.417969 150.089844 C 161.269531 150.273438 161.871094 150.527344 162.230469 150.859375 C 162.589844 151.191406 162.769531 151.65625 162.769531 152.25 C 162.769531 152.929688 162.5 153.464844 161.964844 153.859375 C 161.425781 154.253906 160.691406 154.453125 159.753906 154.453125 C 159.363281 154.453125 158.957031 154.414062 158.53125 154.339844 C 158.109375 154.261719 157.664062 154.148438 157.195312 153.996094 L 157.195312 152.757812 C 157.636719 152.988281 158.074219 153.164062 158.503906 153.277344 C 158.933594 153.390625 159.359375 153.449219 159.78125 153.449219 C 160.34375 153.449219 160.777344 153.351562 161.082031 153.160156 C 161.382812 152.964844 161.535156 152.695312 161.535156 152.34375 C 161.535156 152.015625 161.425781 151.769531 161.207031 151.59375 C 160.988281 151.421875 160.507812 151.253906 159.765625 151.09375 L 159.347656 150.996094 C 158.609375 150.839844 158.070312 150.597656 157.742188 150.277344 C 157.410156 149.953125 157.246094 149.507812 157.246094 148.945312 C 157.246094 148.257812 157.488281 147.730469 157.976562 147.355469 C 158.460938 146.984375 159.152344 146.796875 160.046875 146.796875 C 160.488281 146.796875 160.90625 146.828125 161.296875 146.894531 C 161.6875 146.957031 162.046875 147.054688 162.375 147.1875 Z M 162.375 147.1875 "/>
<path style=" stroke:none;fill-rule:nonzero;fill:rgb(0%,0%,0%);fill-opacity:1;" d="M 167.988281 150.597656 C 167.019531 150.597656 166.351562 150.710938 165.976562 150.929688 C 165.601562 151.152344 165.417969 151.527344 165.417969 152.0625 C 165.417969 152.488281 165.558594 152.824219 165.835938 153.074219 C 166.117188 153.324219 166.5 153.449219 166.980469 153.449219 C 167.644531 153.449219 168.175781 153.214844 168.578125 152.742188 C 168.980469 152.273438 169.179688 151.644531 169.179688 150.867188 L 169.179688 150.597656 Z M 170.378906 150.101562 L 170.378906 154.261719 L 169.179688 154.261719 L 169.179688 153.15625 C 168.90625 153.597656 168.566406 153.925781 168.160156 154.136719 C 167.75 154.347656 167.25 154.453125 166.660156 154.453125 C 165.914062 154.453125 165.320312 154.242188 164.878906 153.824219 C 164.4375 153.402344 164.21875 152.84375 164.21875 152.140625 C 164.21875 151.320312 164.492188 150.703125 165.042969 150.285156 C 165.589844 149.871094 166.410156 149.660156 167.5 149.660156 L 169.179688 149.660156 L 169.179688 149.542969 C 169.179688 148.992188 169 148.566406 168.636719 148.261719 C 168.273438 147.960938 167.765625 147.8125 167.109375 147.8125 C 166.695312 147.8125 166.289062 147.859375 165.890625 147.960938 C 165.496094 148.0625 165.117188 148.210938 164.753906 148.410156 L 164.753906 147.304688 C 165.191406 147.132812 165.617188 147.007812 166.027344 146.921875 C 166.441406 146.839844 166.84375 146.796875 167.234375 146.796875 C 168.289062 146.796875 169.078125 147.070312 169.597656 147.617188 C 170.117188 148.164062 170.378906 148.992188 170.378906 150.101562 Z M 170.378906 150.101562 "/>
<path style=" stroke:none;fill-rule:nonzero;fill:rgb(0%,0%,0%);fill-opacity:1;" d="M 177.644531 148.078125 L 177.644531 144.132812 L 178.839844 144.132812 L 178.839844 154.261719 L 177.644531 154.261719 L 177.644531 153.167969 C 177.390625 153.601562 177.074219 153.925781 176.6875 154.136719 C 176.304688 154.347656 175.84375 154.453125 175.304688 154.453125 C 174.425781 154.453125 173.707031 154.101562 173.152344 153.398438 C 172.601562 152.695312 172.324219 151.769531 172.324219 150.625 C 172.324219 149.476562 172.601562 148.554688 173.152344 147.851562 C 173.707031 147.148438 174.425781 146.796875 175.304688 146.796875 C 175.84375 146.796875 176.304688 146.902344 176.6875 147.113281 C 177.074219 147.324219 177.390625 147.644531 177.644531 148.078125 Z M 173.5625 150.625 C 173.5625 151.503906 173.742188 152.195312 174.105469 152.695312 C 174.46875 153.199219 174.964844 153.449219 175.601562 153.449219 C 176.234375 153.449219 176.730469 153.199219 177.09375 152.695312 C 177.460938 152.195312 177.644531 151.503906 177.644531 150.625 C 177.644531 149.742188 177.460938 149.050781 177.09375 148.550781 C 176.730469 148.050781 176.234375 147.796875 175.601562 147.796875 C 174.964844 147.796875 174.46875 148.050781 174.105469 148.550781 C 173.742188 149.050781 173.5625 149.742188 173.5625 150.625 Z M 173.5625 150.625 "/>
<path style=" stroke:none;fill-rule:nonzero;fill:rgb(0%,0%,0%);fill-opacity:1;" d="M 186.105469 148.078125 L 186.105469 144.132812 L 187.304688 144.132812 L 187.304688 154.261719 L 186.105469 154.261719 L 186.105469 153.167969 C 185.855469 153.601562 185.539062 153.925781 185.152344 154.136719 C 184.769531 154.347656 184.308594 154.453125 183.769531 154.453125 C 182.890625 154.453125 182.171875 154.101562 181.617188 153.398438 C 181.066406 152.695312 180.789062 151.769531 180.789062 150.625 C 180.789062 149.476562 181.066406 148.554688 181.617188 147.851562 C 182.171875 147.148438 182.890625 146.796875 183.769531 146.796875 C 184.308594 146.796875 184.769531 146.902344 185.152344 147.113281 C 185.539062 147.324219 185.855469 147.644531 186.105469 148.078125 Z M 182.027344 150.625 C 182.027344 151.503906 182.207031 152.195312 182.570312 152.695312 C 182.933594 153.199219 183.429688 153.449219 184.0625 153.449219 C 184.695312 153.449219 185.195312 153.199219 185.558594 152.695312 C 185.925781 152.195312 186.105469 151.503906 186.105469 150.625 C 186.105469 149.742188 185.925781 149.050781 185.558594 148.550781 C 185.195312 148.050781 184.695312 147.796875 184.0625 147.796875 C 183.429688 147.796875 182.933594 148.050781 182.570312 148.550781 C 182.207031 149.050781 182.027344 149.742188 182.027344 150.625 Z M 182.027344 150.625 "/>
<path style=" stroke:none;fill-rule:nonzero;fill:rgb(0%,0%,0%);fill-opacity:1;" d="M 189.773438 144.132812 L 190.96875 144.132812 L 190.96875 154.261719 L 189.773438 154.261719 Z M 189.773438 144.132812 "/>
<path style=" stroke:none;fill-rule:nonzero;fill:rgb(0%,0%,0%);fill-opacity:1;" d="M 199.714844 150.316406 L 199.714844 150.902344 L 194.207031 150.902344 C 194.257812 151.726562 194.507812 152.355469 194.953125 152.789062 C 195.394531 153.21875 196.015625 153.4375 196.808594 153.4375 C 197.269531 153.4375 197.714844 153.378906 198.148438 153.265625 C 198.578125 153.15625 199.007812 152.984375 199.433594 152.757812 L 199.433594 153.890625 C 199.003906 154.074219 198.5625 154.214844 198.113281 154.308594 C 197.660156 154.40625 197.203125 154.453125 196.738281 154.453125 C 195.574219 154.453125 194.652344 154.113281 193.976562 153.4375 C 193.296875 152.761719 192.957031 151.84375 192.957031 150.6875 C 192.957031 149.496094 193.277344 148.546875 193.921875 147.847656 C 194.566406 147.148438 195.4375 146.796875 196.53125 146.796875 C 197.511719 146.796875 198.289062 147.113281 198.859375 147.746094 C 199.429688 148.375 199.714844 149.234375 199.714844 150.316406 Z M 198.515625 149.964844 C 198.507812 149.3125 198.324219 148.789062 197.964844 148.398438 C 197.609375 148.007812 197.132812 147.8125 196.542969 147.8125 C 195.875 147.8125 195.339844 148 194.941406 148.378906 C 194.539062 148.753906 194.308594 149.289062 194.246094 149.972656 Z M 198.515625 149.964844 "/>
<path style=" stroke:none;fill-rule:nonzero;fill:rgb(0%,0%,0%);fill-opacity:1;" d="M 207.078125 153.167969 L 207.078125 157.035156 L 205.871094 157.035156 L 205.871094 146.972656 L 207.078125 146.972656 L 207.078125 148.078125 C 207.328125 147.644531 207.648438 147.324219 208.03125 147.113281 C 208.414062 146.902344 208.875 146.796875 209.40625 146.796875 C 210.292969 146.796875 211.011719 147.148438 211.566406 147.851562 C 212.121094 148.554688 212.398438 149.476562 212.398438 150.625 C 212.398438 151.769531 212.121094 152.695312 211.566406 153.398438 C 211.011719 154.101562 210.292969 154.453125 209.40625 154.453125 C 208.875 154.453125 208.414062 154.347656 208.03125 154.136719 C 207.648438 153.925781 207.328125 153.601562 207.078125 153.167969 Z M 211.152344 150.625 C 211.152344 149.742188 210.972656 149.050781 210.609375 148.550781 C 210.246094 148.050781 209.75 147.796875 209.117188 147.796875 C 208.480469 147.796875 207.984375 148.050781 207.621094 148.550781 C 207.257812 149.050781 207.078125 149.742188 207.078125 150.625 C 207.078125 151.503906 207.257812 152.195312 207.621094 152.695312 C 207.984375 153.199219 208.480469 153.449219 209.117188 153.449219 C 209.75 153.449219 210.246094 153.199219 210.609375 152.695312 C 210.972656 152.195312 211.152344 151.503906 211.152344 150.625 Z M 211.152344 150.625 "/>
<path style=" stroke:none;fill-rule:nonzero;fill:rgb(0%,0%,0%);fill-opacity:1;" d="M 217.207031 147.8125 C 216.566406 147.8125 216.058594 148.0625 215.683594 148.5625 C 215.308594 149.066406 215.125 149.75 215.125 150.625 C 215.125 151.496094 215.308594 152.183594 215.679688 152.683594 C 216.050781 153.183594 216.5625 153.4375 217.207031 153.4375 C 217.847656 153.4375 218.351562 153.183594 218.722656 152.683594 C 219.097656 152.179688 219.285156 151.492188 219.285156 150.625 C 219.285156 149.757812 219.097656 149.074219 218.722656 148.570312 C 218.351562 148.0625 217.847656 147.8125 217.207031 147.8125 Z M 217.207031 146.796875 C 218.25 146.796875 219.066406 147.136719 219.660156 147.8125 C 220.257812 148.488281 220.554688 149.425781 220.554688 150.625 C 220.554688 151.816406 220.257812 152.753906 219.660156 153.433594 C 219.066406 154.113281 218.25 154.453125 217.207031 154.453125 C 216.160156 154.453125 215.339844 154.113281 214.75 153.433594 C 214.15625 152.753906 213.859375 151.816406 213.859375 150.625 C 213.859375 149.425781 214.15625 148.488281 214.75 147.8125 C 215.339844 147.136719 216.160156 146.796875 217.207031 146.796875 Z M 217.207031 146.796875 "/>
<path style=" stroke:none;fill-rule:nonzero;fill:rgb(0%,0%,0%);fill-opacity:1;" d="M 222.539062 146.972656 L 223.738281 146.972656 L 223.738281 154.261719 L 222.539062 154.261719 Z M 222.539062 144.132812 L 223.738281 144.132812 L 223.738281 145.652344 L 222.539062 145.652344 Z M 222.539062 144.132812 "/>
<path style=" stroke:none;fill-rule:nonzero;fill:rgb(0%,0%,0%);fill-opacity:1;" d="M 232.304688 149.859375 L 232.304688 154.261719 L 231.109375 154.261719 L 231.109375 149.902344 C 231.109375 149.210938 230.972656 148.695312 230.703125 148.351562 C 230.433594 148.007812 230.03125 147.839844 229.492188 147.839844 C 228.847656 147.839844 228.335938 148.042969 227.960938 148.457031 C 227.589844 148.867188 227.402344 149.429688 227.402344 150.140625 L 227.402344 154.261719 L 226.199219 154.261719 L 226.199219 146.972656 L 227.402344 146.972656 L 227.402344 148.105469 C 227.691406 147.664062 228.027344 147.339844 228.414062 147.121094 C 228.804688 146.90625 229.253906 146.796875 229.761719 146.796875 C 230.597656 146.796875 231.230469 147.054688 231.660156 147.574219 C 232.089844 148.089844 232.304688 148.855469 232.304688 149.859375 Z M 232.304688 149.859375 "/>
<path style=" stroke:none;fill-rule:nonzero;fill:rgb(0%,0%,0%);fill-opacity:1;" d="M 235.878906 144.902344 L 235.878906 146.972656 L 238.347656 146.972656 L 238.347656 147.902344 L 235.878906 147.902344 L 235.878906 151.859375 C 235.878906 152.457031 235.960938 152.835938 236.125 153.007812 C 236.285156 153.175781 236.617188 153.261719 237.117188 153.261719 L 238.347656 153.261719 L 238.347656 154.261719 L 237.117188 154.261719 C 236.191406 154.261719 235.554688 154.089844 235.203125 153.746094 C 234.851562 153.402344 234.675781 152.773438 234.675781 151.859375 L 234.675781 147.902344 L 233.796875 147.902344 L 233.796875 146.972656 L 234.675781 146.972656 L 234.675781 144.902344 Z M 235.878906 144.902344 "/>
</g>
</svg>
