<?xml version="1.0" encoding="UTF-8"?>
<svg xmlns="http://www.w3.org/2000/svg" xmlns:xlink="http://www.w3.org/1999/xlink" width="792" height="170.666667" viewBox="0 0 792 170.666667" version="1.1">
<g id="surface1">
<path style="fill-rule:nonzero;fill:rgb(39.215687%,74.901962%,100%);fill-opacity:1;stroke-width:1;stroke-linecap:round;stroke-linejoin:round;stroke:rgb(0%,0%,0%);stroke-opacity:1;stroke-miterlimit:10;" d="M 161.500977 1200.500977 L 213.5 1143 L 287.500977 1154.499023 L 298.499023 1226.000977 L 197.500977 1260.999023 Z M 161.500977 1200.500977 " transform="matrix(1.333333,0,0,1.333333,-214.666667,-1512)"/>
<path style="fill:none;stroke-width:1;stroke-linecap:round;stroke-linejoin:round;stroke:rgb(0%,0%,0%);stroke-opacity:1;stroke-miterlimit:10;" d="M 276.139648 1174.854492 L 267.860352 1213.643555 " transform="matrix(1.333333,0,0,1.333333,-214.666667,-1512)"/>
<path style=" stroke:none;fill-rule:nonzero;fill:rgb(0%,0%,0%);fill-opacity:1;" d="M 139.46875 106.746094 C 141.316406 105.546875 143.796875 106.074219 145 107.925781 C 146.199219 109.78125 145.671875 112.261719 143.816406 113.457031 C 141.964844 114.660156 139.484375 114.128906 138.285156 112.277344 C 137.082031 110.421875 137.613281 107.949219 139.46875 106.746094 "/>
<path style="fill:none;stroke-width:1;stroke-linecap:butt;stroke-linejoin:miter;stroke:rgb(0%,0%,0%);stroke-opacity:1;stroke-miterlimit:10;" d="M 265.601562 1214.05957 C 266.987305 1213.160156 268.847656 1213.555664 269.75 1214.944336 C 270.649414 1216.335938 270.253906 1218.196289 268.862305 1219.092773 C 267.473633 1219.995117 265.613281 1219.59668 264.713867 1218.210938 C 263.811523 1216.816406 264.209961 1214.961914 265.601562 1214.05957 " transform="matrix(1.333333,0,0,1.333333,-214.666667,-1512)"/>
<path style=" stroke:none;fill-rule:nonzero;fill:rgb(0%,0%,0%);fill-opacity:1;" d="M 156.53125 53.921875 C 154.683594 55.121094 152.203125 54.59375 151 52.738281 C 149.800781 50.886719 150.328125 48.40625 152.183594 47.207031 C 154.035156 46.003906 156.515625 46.535156 157.714844 48.390625 C 158.917969 50.246094 158.386719 52.71875 156.53125 53.921875 "/>
<path style="fill:none;stroke-width:1;stroke-linecap:butt;stroke-linejoin:miter;stroke:rgb(0%,0%,0%);stroke-opacity:1;stroke-miterlimit:10;" d="M 278.398438 1174.441406 C 277.012695 1175.34082 275.152344 1174.945312 274.25 1173.553711 C 273.350586 1172.165039 273.746094 1170.304688 275.137695 1169.405273 C 276.526367 1168.50293 278.386719 1168.901367 279.286133 1170.290039 C 280.188477 1171.68457 279.790039 1173.539062 278.398438 1174.441406 " transform="matrix(1.333333,0,0,1.333333,-214.666667,-1512)"/>
<path style=" stroke:none;fill-rule:nonzero;fill:rgb(39.215687%,74.901962%,100%);fill-opacity:1;" d="M 284.574219 59.457031 L 308.1875 33.347656 C 320.234375 20.027344 338.183594 13.660156 355.933594 16.421875 L 387.574219 21.339844 C 410.546875 24.90625 428.5625 42.949219 432.097656 65.925781 L 434.0625 78.722656 C 437.980469 104.175781 423.144531 128.792969 398.8125 137.222656 L 347.230469 155.097656 C 323.316406 163.386719 296.875 153.730469 283.933594 131.980469 L 278.296875 122.503906 C 266.324219 102.390625 268.871094 76.824219 284.574219 59.457031 Z M 284.574219 59.457031 "/>
<path style="fill:none;stroke-width:1;stroke-linecap:round;stroke-linejoin:round;stroke:rgb(0%,0%,0%);stroke-opacity:1;stroke-miterlimit:10;" d="M 374.430664 1178.598633 L 392.140625 1159.010742 C 401.175781 1149.020508 414.637695 1144.245117 427.950195 1146.316406 L 451.680664 1150.004883 C 468.910156 1152.679688 482.421875 1166.211914 485.073242 1183.444336 L 486.546875 1193.039062 C 489.485352 1212.131836 478.358398 1230.594727 460.109375 1236.916992 L 421.422852 1250.323242 C 403.487305 1256.540039 383.65625 1249.297852 373.950195 1232.985352 L 369.722656 1225.87793 C 360.743164 1210.792969 362.65332 1191.618164 374.430664 1178.598633 Z M 374.430664 1178.598633 " transform="matrix(1.333333,0,0,1.333333,-214.666667,-1512)"/>
<path style="fill:none;stroke-width:1;stroke-linecap:round;stroke-linejoin:round;stroke:rgb(0%,0%,0%);stroke-opacity:1;stroke-miterlimit:10;" d="M 400.261719 1174.854492 L 391.976562 1213.643555 " transform="matrix(1.333333,0,0,1.333333,-214.666667,-1512)"/>
<path style=" stroke:none;fill-rule:nonzero;fill:rgb(0%,0%,0%);fill-opacity:1;" d="M 304.957031 106.746094 C 306.8125 105.546875 309.292969 106.074219 310.488281 107.925781 C 311.691406 109.78125 311.160156 112.261719 309.308594 113.457031 C 307.453125 114.660156 304.980469 114.128906 303.777344 112.277344 C 302.574219 110.421875 303.105469 107.949219 304.957031 106.746094 "/>
<path style="fill:none;stroke-width:1;stroke-linecap:butt;stroke-linejoin:miter;stroke:rgb(0%,0%,0%);stroke-opacity:1;stroke-miterlimit:10;" d="M 389.717773 1214.05957 C 391.109375 1213.160156 392.969727 1213.555664 393.866211 1214.944336 C 394.768555 1216.335938 394.370117 1218.196289 392.981445 1219.092773 C 391.589844 1219.995117 389.735352 1219.59668 388.833008 1218.210938 C 387.930664 1216.816406 388.329102 1214.961914 389.717773 1214.05957 " transform="matrix(1.333333,0,0,1.333333,-214.666667,-1512)"/>
<path style=" stroke:none;fill-rule:nonzero;fill:rgb(0%,0%,0%);fill-opacity:1;" d="M 322.027344 53.921875 C 320.171875 55.121094 317.691406 54.59375 316.496094 52.738281 C 315.292969 50.886719 315.824219 48.40625 317.675781 47.207031 C 319.53125 46.003906 322.003906 46.535156 323.207031 48.390625 C 324.40625 50.246094 323.878906 52.71875 322.027344 53.921875 "/>
<path style="fill:none;stroke-width:1;stroke-linecap:butt;stroke-linejoin:miter;stroke:rgb(0%,0%,0%);stroke-opacity:1;stroke-miterlimit:10;" d="M 402.520508 1174.441406 C 401.128906 1175.34082 399.268555 1174.945312 398.37207 1173.553711 C 397.469727 1172.165039 397.868164 1170.304688 399.256836 1169.405273 C 400.648438 1168.50293 402.50293 1168.901367 403.405273 1170.290039 C 404.304688 1171.68457 403.90918 1173.539062 402.520508 1174.441406 " transform="matrix(1.333333,0,0,1.333333,-214.666667,-1512)"/>
<path style=" stroke:none;fill-rule:nonzero;fill:rgb(39.215687%,74.901962%,100%);fill-opacity:1;" d="M 641.828125 132.03125 L 698.667969 112.332031 L 684 17 L 667.875 14.496094 C 664.296875 16.894531 660.984375 19.746094 658.027344 23.015625 L 634.410156 49.125 C 618.714844 66.488281 616.167969 92.058594 628.136719 112.171875 L 633.777344 121.644531 C 636.0625 125.5 638.78125 128.96875 641.828125 132.03125 Z M 641.828125 132.03125 "/>
<path style="fill:none;stroke-width:1;stroke-linecap:round;stroke-linejoin:round;stroke:rgb(0%,0%,0%);stroke-opacity:1;stroke-miterlimit:10;" d="M 642.371094 1233.023438 L 685.000977 1218.249023 L 674 1146.75 L 661.90625 1144.87207 C 659.222656 1146.670898 656.738281 1148.80957 654.520508 1151.261719 L 636.807617 1170.84668 C 625.036133 1183.866211 623.125977 1203.043945 632.102539 1218.128906 L 636.333008 1225.233398 C 638.046875 1228.12207 640.085938 1230.726562 642.371094 1233.023438 Z M 642.371094 1233.023438 " transform="matrix(1.333333,0,0,1.333333,-214.666667,-1512)"/>
<path style="fill:none;stroke-width:1;stroke-linecap:round;stroke-linejoin:round;stroke:rgb(0%,0%,0%);stroke-opacity:1;stroke-miterlimit:10;" d="M 662.641602 1167.105469 L 654.359375 1205.894531 " transform="matrix(1.333333,0,0,1.333333,-214.666667,-1512)"/>
<path style=" stroke:none;fill-rule:nonzero;fill:rgb(0%,0%,0%);fill-opacity:1;" d="M 654.800781 96.410156 C 656.652344 95.214844 659.128906 95.738281 660.332031 97.59375 C 661.53125 99.449219 661.003906 101.925781 659.152344 103.125 C 657.296875 104.328125 654.816406 103.796875 653.621094 101.941406 C 652.417969 100.089844 652.949219 97.613281 654.800781 96.410156 "/>
<path style="fill:none;stroke-width:1;stroke-linecap:butt;stroke-linejoin:miter;stroke:rgb(0%,0%,0%);stroke-opacity:1;stroke-miterlimit:10;" d="M 652.100586 1206.307617 C 653.489258 1205.411133 655.34668 1205.803711 656.249023 1207.195312 C 657.148438 1208.586914 656.75293 1210.444336 655.364258 1211.34375 C 653.972656 1212.246094 652.112305 1211.847656 651.21582 1210.461914 C 650.313477 1209.067383 650.711914 1207.209961 652.100586 1206.307617 " transform="matrix(1.333333,0,0,1.333333,-214.666667,-1512)"/>
<path style=" stroke:none;fill-rule:nonzero;fill:rgb(0%,0%,0%);fill-opacity:1;" d="M 671.863281 43.589844 C 670.015625 44.785156 667.535156 44.261719 666.332031 42.40625 C 665.136719 40.550781 665.660156 38.074219 667.515625 36.875 C 669.371094 35.671875 671.847656 36.203125 673.046875 38.058594 C 674.25 39.910156 673.71875 42.386719 671.863281 43.589844 "/>
<path style="fill:none;stroke-width:1;stroke-linecap:butt;stroke-linejoin:miter;stroke:rgb(0%,0%,0%);stroke-opacity:1;stroke-miterlimit:10;" d="M 664.897461 1166.692383 C 663.511719 1167.588867 661.651367 1167.196289 660.749023 1165.804688 C 659.852539 1164.413086 660.245117 1162.555664 661.636719 1161.65625 C 663.02832 1160.753906 664.885742 1161.152344 665.785156 1162.538086 C 666.6875 1163.932617 666.289062 1165.790039 664.897461 1166.692383 " transform="matrix(1.333333,0,0,1.333333,-214.666667,-1512)"/>
<path style="fill:none;stroke-width:1;stroke-linecap:round;stroke-linejoin:round;stroke:rgb(0%,0%,0%);stroke-opacity:1;stroke-dasharray:1,4;stroke-miterlimit:10;" d="M 636.546875 1170.84668 L 654.256836 1151.261719 C 663.297852 1141.268555 676.753906 1136.496094 690.069336 1138.567383 L 713.799805 1142.25293 C 731.032227 1144.930664 744.538086 1158.459961 747.192383 1175.695312 L 748.668945 1185.290039 C 751.604492 1204.382812 740.480469 1222.842773 722.231445 1229.167969 L 683.539062 1242.574219 C 665.606445 1248.788086 645.772461 1241.545898 636.066406 1225.233398 L 631.838867 1218.128906 C 622.862305 1203.043945 624.772461 1183.866211 636.546875 1170.84668 Z M 636.546875 1170.84668 " transform="matrix(1.333333,0,0,1.333333,-214.666667,-1512)"/>
<path style="fill:none;stroke-width:1;stroke-linecap:round;stroke-linejoin:round;stroke:rgb(0%,0%,0%);stroke-opacity:1;stroke-dasharray:1,4;stroke-miterlimit:10;" d="M 547.739258 1192.749023 L 599.738281 1135.250977 L 673.739258 1146.75 L 684.737305 1218.249023 L 583.739258 1253.25 Z M 547.739258 1192.749023 " transform="matrix(1.333333,0,0,1.333333,-214.666667,-1512)"/>
</g>
</svg>
