<?xml version="1.0" encoding="UTF-8"?>
<svg xmlns="http://www.w3.org/2000/svg" xmlns:xlink="http://www.w3.org/1999/xlink" width="326.827087" height="244.474996" viewBox="0 0 326.827087 244.474996" version="1.1">
<defs>
<clipPath id="clip1">
  <path d="M 67 9.601562 L 70 9.601562 L 70 194.398438 L 67 194.398438 Z M 67 9.601562 "/>
</clipPath>
<clipPath id="clip2">
  <path d="M 147 9.601562 L 149 9.601562 L 149 194.398438 L 147 194.398438 Z M 147 9.601562 "/>
</clipPath>
<clipPath id="clip3">
  <path d="M 226 9.601562 L 228 9.601562 L 228 194.398438 L 226 194.398438 Z M 226 9.601562 "/>
</clipPath>
<clipPath id="clip4">
  <path d="M 305 9.601562 L 307 9.601562 L 307 194.398438 L 305 194.398438 Z M 305 9.601562 "/>
</clipPath>
<clipPath id="clip5">
  <path d="M 56.828125 182 L 317.226562 182 L 317.226562 185 L 56.828125 185 Z M 56.828125 182 "/>
</clipPath>
<clipPath id="clip6">
  <path d="M 56.828125 127 L 317.226562 127 L 317.226562 129 L 56.828125 129 Z M 56.828125 127 "/>
</clipPath>
<clipPath id="clip7">
  <path d="M 56.828125 71 L 317.226562 71 L 317.226562 74 L 56.828125 74 Z M 56.828125 71 "/>
</clipPath>
<clipPath id="clip8">
  <path d="M 56.828125 16 L 317.226562 16 L 317.226562 19 L 56.828125 19 Z M 56.828125 16 "/>
</clipPath>
</defs>
<g id="surface1">
<path style=" stroke:none;fill-rule:nonzero;fill:rgb(100%,100%,100%);fill-opacity:1;" d="M 0 244.476562 L 326.828125 244.476562 L 326.828125 0 L 0 0 Z M 0 244.476562 "/>
<path style=" stroke:none;fill-rule:nonzero;fill:rgb(100%,100%,100%);fill-opacity:1;" d="M 56.828125 194.398438 L 317.226562 194.398438 L 317.226562 9.601562 L 56.828125 9.601562 Z M 56.828125 194.398438 "/>
<g clip-path="url(#clip1)" clip-rule="nonzero">
<path style="fill:none;stroke-width:0.8;stroke-linecap:square;stroke-linejoin:round;stroke:rgb(69.01961%,69.01961%,69.01961%);stroke-opacity:1;stroke-miterlimit:4;" d="M 51.498047 145.798828 L 51.498047 7.201172 " transform="matrix(1.333333,0,0,1.333333,0,0.000000000000014211)"/>
</g>
<path style="fill:none;stroke-width:0.8;stroke-linecap:butt;stroke-linejoin:round;stroke:rgb(0%,0%,0%);stroke-opacity:1;stroke-miterlimit:4;" d="M 0.000461578 -0.00117493 L 0.000461578 3.499802 " transform="matrix(1.333333,0,0,1.333333,68.663447,194.400004)"/>
<path style=" stroke:none;fill-rule:nonzero;fill:rgb(0%,0%,0%);fill-opacity:1;" d="M 60.246094 209.132812 L 68.59375 209.132812 L 68.59375 210.238281 L 60.246094 210.238281 Z M 60.246094 209.132812 "/>
<path style=" stroke:none;fill-rule:nonzero;fill:rgb(0%,0%,0%);fill-opacity:1;" d="M 71.660156 212.757812 L 73.808594 212.757812 L 73.808594 205.339844 L 71.472656 205.808594 L 71.472656 204.613281 L 73.796875 204.144531 L 75.113281 204.144531 L 75.113281 212.757812 L 77.257812 212.757812 L 77.257812 213.863281 L 71.660156 213.863281 Z M 71.660156 212.757812 "/>
<g clip-path="url(#clip2)" clip-rule="nonzero">
<path style="fill:none;stroke-width:0.8;stroke-linecap:square;stroke-linejoin:round;stroke:rgb(69.01961%,69.01961%,69.01961%);stroke-opacity:1;stroke-miterlimit:4;" d="M 110.876953 145.798828 L 110.876953 7.201172 " transform="matrix(1.333333,0,0,1.333333,0,0.000000000000014211)"/>
</g>
<path style="fill:none;stroke-width:0.8;stroke-linecap:butt;stroke-linejoin:round;stroke:rgb(0%,0%,0%);stroke-opacity:1;stroke-miterlimit:4;" d="M -0.00038147 -0.00117493 L -0.00038147 3.499802 " transform="matrix(1.333333,0,0,1.333333,147.836446,194.400004)"/>
<path style=" stroke:none;fill-rule:nonzero;fill:rgb(0%,0%,0%);fill-opacity:1;" d="M 147.832031 205.011719 C 147.15625 205.011719 146.648438 205.34375 146.304688 206.011719 C 145.964844 206.675781 145.792969 207.675781 145.792969 209.015625 C 145.792969 210.347656 145.964844 211.347656 146.304688 212.011719 C 146.648438 212.679688 147.15625 213.011719 147.832031 213.011719 C 148.515625 213.011719 149.023438 212.679688 149.367188 212.011719 C 149.707031 211.347656 149.878906 210.347656 149.878906 209.015625 C 149.878906 207.675781 149.707031 206.675781 149.367188 206.011719 C 149.023438 205.34375 148.515625 205.011719 147.832031 205.011719 Z M 147.832031 203.96875 C 148.921875 203.96875 149.753906 204.398438 150.332031 205.261719 C 150.90625 206.125 151.191406 207.375 151.191406 209.015625 C 151.191406 210.652344 150.90625 211.898438 150.332031 212.761719 C 149.753906 213.625 148.921875 214.054688 147.832031 214.054688 C 146.742188 214.054688 145.910156 213.625 145.335938 212.761719 C 144.761719 211.898438 144.472656 210.652344 144.472656 209.015625 C 144.472656 207.375 144.761719 206.125 145.335938 205.261719 C 145.910156 204.398438 146.742188 203.96875 147.832031 203.96875 Z M 147.832031 203.96875 "/>
<g clip-path="url(#clip3)" clip-rule="nonzero">
<path style="fill:none;stroke-width:0.8;stroke-linecap:square;stroke-linejoin:round;stroke:rgb(69.01961%,69.01961%,69.01961%);stroke-opacity:1;stroke-miterlimit:4;" d="M 170.255859 145.798828 L 170.255859 7.201172 " transform="matrix(1.333333,0,0,1.333333,0,0.000000000000014211)"/>
</g>
<path style="fill:none;stroke-width:0.8;stroke-linecap:butt;stroke-linejoin:round;stroke:rgb(0%,0%,0%);stroke-opacity:1;stroke-miterlimit:4;" d="M -0.0012207 -0.00117493 L -0.0012207 3.499802 " transform="matrix(1.333333,0,0,1.333333,227.00944,194.400004)"/>
<path style=" stroke:none;fill-rule:nonzero;fill:rgb(0%,0%,0%);fill-opacity:1;" d="M 224.421875 212.757812 L 226.570312 212.757812 L 226.570312 205.339844 L 224.230469 205.808594 L 224.230469 204.613281 L 226.558594 204.144531 L 227.871094 204.144531 L 227.871094 212.757812 L 230.019531 212.757812 L 230.019531 213.863281 L 224.421875 213.863281 Z M 224.421875 212.757812 "/>
<g clip-path="url(#clip4)" clip-rule="nonzero">
<path style="fill:none;stroke-width:0.8;stroke-linecap:square;stroke-linejoin:round;stroke:rgb(69.01961%,69.01961%,69.01961%);stroke-opacity:1;stroke-miterlimit:4;" d="M 229.637695 145.798828 L 229.637695 7.201172 " transform="matrix(1.333333,0,0,1.333333,0,0.000000000000014211)"/>
</g>
<path style="fill:none;stroke-width:0.8;stroke-linecap:butt;stroke-linejoin:round;stroke:rgb(0%,0%,0%);stroke-opacity:1;stroke-miterlimit:4;" d="M 0.000854492 -0.00117493 L 0.000854492 3.499802 " transform="matrix(1.333333,0,0,1.333333,306.182454,194.400004)"/>
<path style=" stroke:none;fill-rule:nonzero;fill:rgb(0%,0%,0%);fill-opacity:1;" d="M 304.5 212.757812 L 309.089844 212.757812 L 309.089844 213.863281 L 302.917969 213.863281 L 302.917969 212.757812 C 303.417969 212.242188 304.097656 211.546875 304.957031 210.679688 C 305.820312 209.808594 306.363281 209.246094 306.582031 208.992188 C 307.003906 208.523438 307.296875 208.121094 307.464844 207.792969 C 307.632812 207.464844 307.714844 207.144531 307.714844 206.828125 C 307.714844 206.308594 307.535156 205.890625 307.171875 205.566406 C 306.808594 205.238281 306.335938 205.074219 305.753906 205.074219 C 305.34375 205.074219 304.90625 205.148438 304.449219 205.289062 C 303.992188 205.433594 303.503906 205.648438 302.984375 205.941406 L 302.984375 204.613281 C 303.511719 204.398438 304.007812 204.238281 304.464844 204.132812 C 304.925781 204.023438 305.347656 203.96875 305.730469 203.96875 C 306.738281 203.96875 307.539062 204.222656 308.140625 204.726562 C 308.738281 205.226562 309.035156 205.898438 309.035156 206.742188 C 309.035156 207.140625 308.960938 207.519531 308.8125 207.878906 C 308.664062 208.234375 308.390625 208.65625 307.996094 209.144531 C 307.886719 209.269531 307.542969 209.632812 306.960938 210.234375 C 306.378906 210.835938 305.558594 211.679688 304.5 212.757812 Z M 304.5 212.757812 "/>
<path style=" stroke:none;fill-rule:nonzero;fill:rgb(0%,0%,0%);fill-opacity:1;" d="M 190.398438 224.808594 L 187.761719 228.359375 L 190.535156 232.101562 L 189.121094 232.101562 L 187 229.238281 L 184.878906 232.101562 L 183.464844 232.101562 L 186.296875 228.289062 L 183.707031 224.808594 L 185.117188 224.808594 L 187.050781 227.410156 L 188.984375 224.808594 Z M 190.398438 224.808594 "/>
<g clip-path="url(#clip5)" clip-rule="nonzero">
<path style="fill:none;stroke-width:0.8;stroke-linecap:square;stroke-linejoin:round;stroke:rgb(69.01961%,69.01961%,69.01961%);stroke-opacity:1;stroke-miterlimit:4;" d="M 42.621094 137.560547 L 237.919922 137.560547 " transform="matrix(1.333333,0,0,1.333333,0,0.000000000000014211)"/>
</g>
<path style="fill:none;stroke-width:0.8;stroke-linecap:butt;stroke-linejoin:round;stroke:rgb(0%,0%,0%);stroke-opacity:1;stroke-miterlimit:4;" d="M 0.000782013 -0.000305176 L -3.500195 -0.000305176 " transform="matrix(1.333333,0,0,1.333333,56.827082,183.414469)"/>
<path style=" stroke:none;fill-rule:nonzero;fill:rgb(0%,0%,0%);fill-opacity:1;" d="M 29.25 183.746094 L 37.597656 183.746094 L 37.597656 184.851562 L 29.25 184.851562 Z M 29.25 183.746094 "/>
<path style=" stroke:none;fill-rule:nonzero;fill:rgb(0%,0%,0%);fill-opacity:1;" d="M 40.664062 187.375 L 42.8125 187.375 L 42.8125 179.957031 L 40.472656 180.425781 L 40.472656 179.226562 L 42.800781 178.757812 L 44.113281 178.757812 L 44.113281 187.375 L 46.261719 187.375 L 46.261719 188.480469 L 40.664062 188.480469 Z M 40.664062 187.375 "/>
<g clip-path="url(#clip6)" clip-rule="nonzero">
<path style="fill:none;stroke-width:0.8;stroke-linecap:square;stroke-linejoin:round;stroke:rgb(69.01961%,69.01961%,69.01961%);stroke-opacity:1;stroke-miterlimit:4;" d="M 42.621094 96.055664 L 237.919922 96.055664 " transform="matrix(1.333333,0,0,1.333333,0,0.000000000000014211)"/>
</g>
<path style="fill:none;stroke-width:0.8;stroke-linecap:butt;stroke-linejoin:round;stroke:rgb(0%,0%,0%);stroke-opacity:1;stroke-miterlimit:4;" d="M 0.000782013 0.000366211 L -3.500195 0.000366211 " transform="matrix(1.333333,0,0,1.333333,56.827082,128.07373)"/>
<path style=" stroke:none;fill-rule:nonzero;fill:rgb(0%,0%,0%);fill-opacity:1;" d="M 43.246094 124.285156 C 42.570312 124.285156 42.0625 124.617188 41.722656 125.285156 C 41.378906 125.949219 41.210938 126.953125 41.210938 128.289062 C 41.210938 129.621094 41.378906 130.621094 41.722656 131.289062 C 42.0625 131.953125 42.570312 132.289062 43.246094 132.289062 C 43.929688 132.289062 44.441406 131.953125 44.78125 131.289062 C 45.121094 130.621094 45.292969 129.621094 45.292969 128.289062 C 45.292969 126.953125 45.121094 125.949219 44.78125 125.285156 C 44.441406 124.617188 43.929688 124.285156 43.246094 124.285156 Z M 43.246094 123.242188 C 44.339844 123.242188 45.171875 123.675781 45.746094 124.539062 C 46.320312 125.398438 46.609375 126.648438 46.609375 128.289062 C 46.609375 129.925781 46.320312 131.175781 45.746094 132.039062 C 45.171875 132.898438 44.339844 133.328125 43.246094 133.328125 C 42.160156 133.328125 41.328125 132.898438 40.753906 132.039062 C 40.175781 131.175781 39.890625 129.925781 39.890625 128.289062 C 39.890625 126.648438 40.175781 125.398438 40.753906 124.539062 C 41.328125 123.675781 42.160156 123.242188 43.246094 123.242188 Z M 43.246094 123.242188 "/>
<g clip-path="url(#clip7)" clip-rule="nonzero">
<path style="fill:none;stroke-width:0.8;stroke-linecap:square;stroke-linejoin:round;stroke:rgb(69.01961%,69.01961%,69.01961%);stroke-opacity:1;stroke-miterlimit:4;" d="M 42.621094 54.550781 L 237.919922 54.550781 " transform="matrix(1.333333,0,0,1.333333,0,0.000000000000014211)"/>
</g>
<path style="fill:none;stroke-width:0.8;stroke-linecap:butt;stroke-linejoin:round;stroke:rgb(0%,0%,0%);stroke-opacity:1;stroke-miterlimit:4;" d="M 0.000782013 0.0010376 L -3.500195 0.0010376 " transform="matrix(1.333333,0,0,1.333333,56.827082,72.732992)"/>
<path style=" stroke:none;fill-rule:nonzero;fill:rgb(0%,0%,0%);fill-opacity:1;" d="M 40.664062 76.691406 L 42.8125 76.691406 L 42.8125 69.277344 L 40.476562 69.746094 L 40.476562 68.546875 L 42.800781 68.078125 L 44.113281 68.078125 L 44.113281 76.691406 L 46.261719 76.691406 L 46.261719 77.796875 L 40.664062 77.796875 Z M 40.664062 76.691406 "/>
<g clip-path="url(#clip8)" clip-rule="nonzero">
<path style="fill:none;stroke-width:0.8;stroke-linecap:square;stroke-linejoin:round;stroke:rgb(69.01961%,69.01961%,69.01961%);stroke-opacity:1;stroke-miterlimit:4;" d="M 42.621094 13.042969 L 237.919922 13.042969 " transform="matrix(1.333333,0,0,1.333333,0,0.000000000000014211)"/>
</g>
<path style="fill:none;stroke-width:0.8;stroke-linecap:butt;stroke-linejoin:round;stroke:rgb(0%,0%,0%);stroke-opacity:1;stroke-miterlimit:4;" d="M 0.000782013 -0.0012207 L -3.500195 -0.0012207 " transform="matrix(1.333333,0,0,1.333333,56.827082,17.392253)"/>
<path style=" stroke:none;fill-rule:nonzero;fill:rgb(0%,0%,0%);fill-opacity:1;" d="M 41.570312 21.351562 L 46.160156 21.351562 L 46.160156 22.457031 L 39.988281 22.457031 L 39.988281 21.351562 C 40.484375 20.835938 41.164062 20.140625 42.027344 19.273438 C 42.890625 18.402344 43.429688 17.839844 43.652344 17.585938 C 44.074219 17.113281 44.367188 16.714844 44.535156 16.386719 C 44.703125 16.058594 44.785156 15.738281 44.785156 15.421875 C 44.785156 14.902344 44.605469 14.484375 44.242188 14.15625 C 43.878906 13.832031 43.40625 13.667969 42.824219 13.667969 C 42.414062 13.667969 41.976562 13.738281 41.519531 13.882812 C 41.0625 14.027344 40.574219 14.242188 40.050781 14.535156 L 40.050781 13.207031 C 40.582031 12.992188 41.074219 12.832031 41.535156 12.722656 C 41.996094 12.617188 42.417969 12.5625 42.800781 12.5625 C 43.808594 12.5625 44.609375 12.8125 45.207031 13.316406 C 45.808594 13.820312 46.105469 14.492188 46.105469 15.335938 C 46.105469 15.734375 46.03125 16.113281 45.882812 16.472656 C 45.734375 16.828125 45.460938 17.25 45.066406 17.738281 C 44.957031 17.863281 44.609375 18.226562 44.027344 18.828125 C 43.449219 19.429688 42.628906 20.269531 41.570312 21.351562 Z M 41.570312 21.351562 "/>
<path style=" stroke:none;fill-rule:nonzero;fill:rgb(0%,0%,0%);fill-opacity:1;" d="M 9.601562 108.546875 L 10.597656 108.546875 L 10.597656 109.691406 C 10.597656 110.121094 10.683594 110.421875 10.859375 110.589844 C 11.03125 110.753906 11.34375 110.839844 11.796875 110.839844 L 12.441406 110.839844 L 12.441406 108.867188 L 13.371094 108.867188 L 13.371094 110.839844 L 19.730469 110.839844 L 19.730469 112.042969 L 13.371094 112.042969 L 13.371094 113.1875 L 12.441406 113.1875 L 12.441406 112.042969 L 11.929688 112.042969 C 11.121094 112.042969 10.527344 111.855469 10.160156 111.476562 C 9.785156 111.097656 9.601562 110.5 9.601562 109.679688 Z M 9.601562 108.546875 "/>
<path style=" stroke:none;fill-rule:nonzero;fill:rgb(0%,0%,0%);fill-opacity:1;" d="M 9.613281 104.667969 C 10.613281 105.246094 11.597656 105.679688 12.578125 105.964844 C 13.554688 106.246094 14.542969 106.386719 15.546875 106.386719 C 16.546875 106.386719 17.539062 106.242188 18.523438 105.960938 C 19.507812 105.675781 20.496094 105.242188 21.488281 104.667969 L 21.488281 105.710938 C 20.46875 106.359375 19.464844 106.847656 18.480469 107.167969 C 17.496094 107.492188 16.519531 107.65625 15.546875 107.65625 C 14.578125 107.65625 13.601562 107.496094 12.621094 107.171875 C 11.640625 106.851562 10.636719 106.363281 9.613281 105.710938 Z M 9.613281 104.667969 "/>
<path style=" stroke:none;fill-rule:nonzero;fill:rgb(0%,0%,0%);fill-opacity:1;" d="M 12.441406 96.28125 L 15.988281 98.917969 L 19.730469 96.144531 L 19.730469 97.558594 L 16.867188 99.679688 L 19.730469 101.800781 L 19.730469 103.214844 L 15.917969 100.382812 L 12.441406 102.972656 L 12.441406 101.5625 L 15.039062 99.628906 L 12.441406 97.695312 Z M 12.441406 96.28125 "/>
<path style=" stroke:none;fill-rule:nonzero;fill:rgb(0%,0%,0%);fill-opacity:1;" d="M 9.613281 94.640625 L 9.613281 93.597656 C 10.636719 92.949219 11.640625 92.460938 12.621094 92.136719 C 13.601562 91.8125 14.578125 91.652344 15.546875 91.652344 C 16.519531 91.652344 17.496094 91.8125 18.480469 92.136719 C 19.464844 92.460938 20.46875 92.949219 21.488281 93.597656 L 21.488281 94.640625 C 20.496094 94.0625 19.507812 93.632812 18.523438 93.347656 C 17.539062 93.0625 16.546875 92.921875 15.546875 92.921875 C 14.542969 92.921875 13.554688 93.0625 12.578125 93.347656 C 11.597656 93.632812 10.613281 94.0625 9.613281 94.640625 Z M 9.613281 94.640625 "/>
<path style="fill:none;stroke-width:1.5;stroke-linecap:square;stroke-linejoin:round;stroke:rgb(12.156863%,46.666667%,70.588237%);stroke-opacity:1;stroke-miterlimit:4;" d="M 51.498047 54.550781 L 53.279297 55.974609 L 55.060547 57.732422 L 56.841797 59.786133 L 59.217773 62.915039 L 62.185547 67.318359 L 65.748047 73.060547 L 73.467773 85.669922 L 76.438477 90.067383 L 78.811523 93.246094 L 81.1875 96.055664 L 83.563477 98.449219 L 85.344727 99.949219 L 87.125977 101.185547 L 88.907227 102.155273 L 90.688477 102.852539 L 92.469727 103.286133 L 94.250977 103.461914 L 96.032227 103.391602 L 97.813477 103.089844 L 99.594727 102.577148 L 101.970703 101.601562 L 104.34668 100.350586 L 107.314453 98.501953 L 113.25293 94.40918 L 116.81543 92.106445 L 119.191406 90.796875 L 121.564453 89.748047 L 123.345703 89.167969 L 125.129883 88.792969 L 126.911133 88.643555 L 128.692383 88.737305 L 130.473633 89.083008 L 132.254883 89.692383 L 134.036133 90.571289 L 135.817383 91.719727 L 137.598633 93.134766 L 139.379883 94.804687 L 141.755859 97.40918 L 144.128906 100.40918 L 146.504883 103.751953 L 149.475586 108.304687 L 154.224609 116.091797 L 159.568359 124.792969 L 162.539062 129.196289 L 164.912109 132.325195 L 166.693359 134.378906 L 168.474609 136.136719 L 170.255859 137.560547 L 172.037109 138.615234 L 173.226562 139.098633 L 174.413086 139.397461 L 175.602539 139.5 L 176.789062 139.40332 L 177.975586 139.098633 L 179.165039 138.583008 L 180.351562 137.853516 L 181.538086 136.907227 L 182.727539 135.738281 L 184.508789 133.573242 L 186.290039 130.913086 L 188.071289 127.769531 L 189.852539 124.154297 L 191.633789 120.09082 L 194.009766 114.011719 L 196.382812 107.255859 L 199.353516 97.998047 L 202.916016 85.992187 L 210.041016 60.770508 L 214.198242 46.617187 L 217.166016 37.350586 L 219.541992 30.676758 L 221.323242 26.203125 L 223.104492 22.248047 L 224.885742 18.867187 L 226.075195 16.959961 L 227.261719 15.345703 L 228.448242 14.036133 L 229.042969 13.5 " transform="matrix(1.333333,0,0,1.333333,0,0.000000000000014211)"/>
<path style="fill:none;stroke-width:0.8;stroke-linecap:square;stroke-linejoin:miter;stroke:rgb(0%,0%,0%);stroke-opacity:1;stroke-miterlimit:4;" d="M 42.621094 145.798828 L 42.621094 7.201172 " transform="matrix(1.333333,0,0,1.333333,0,0.000000000000014211)"/>
<path style="fill:none;stroke-width:0.8;stroke-linecap:square;stroke-linejoin:miter;stroke:rgb(0%,0%,0%);stroke-opacity:1;stroke-miterlimit:4;" d="M 237.919922 145.798828 L 237.919922 7.201172 " transform="matrix(1.333333,0,0,1.333333,0,0.000000000000014211)"/>
<path style="fill:none;stroke-width:0.8;stroke-linecap:square;stroke-linejoin:miter;stroke:rgb(0%,0%,0%);stroke-opacity:1;stroke-miterlimit:4;" d="M 42.621094 145.798828 L 237.919922 145.798828 " transform="matrix(1.333333,0,0,1.333333,0,0.000000000000014211)"/>
<path style="fill:none;stroke-width:0.8;stroke-linecap:square;stroke-linejoin:miter;stroke:rgb(0%,0%,0%);stroke-opacity:1;stroke-miterlimit:4;" d="M 42.621094 7.201172 L 237.919922 7.201172 " transform="matrix(1.333333,0,0,1.333333,0,0.000000000000014211)"/>
<path style="fill:none;stroke-width:1;stroke-linecap:round;stroke-linejoin:round;stroke:rgb(0%,0%,0%);stroke-opacity:1;stroke-miterlimit:4;" d="M 99.328125 126.055664 C 97.444336 120.149414 95.671875 114.597656 94.010742 109.400391 " transform="matrix(1.333333,0,0,1.333333,0,0.000000000000014211)"/>
<path style="fill:none;stroke-width:1;stroke-linecap:round;stroke-linejoin:round;stroke:rgb(0%,0%,0%);stroke-opacity:1;stroke-miterlimit:4;" d="M 93.322266 113.821289 L 94.010742 109.400391 L 97.133789 112.602539 " transform="matrix(1.333333,0,0,1.333333,0,0.000000000000014211)"/>
<path style=" stroke:none;fill-rule:nonzero;fill:rgb(0%,0%,0%);fill-opacity:1;" d="M 88.128906 173.285156 L 89.328125 173.285156 L 89.328125 183.414062 L 88.128906 183.414062 Z M 88.128906 173.285156 "/>
<path style=" stroke:none;fill-rule:nonzero;fill:rgb(0%,0%,0%);fill-opacity:1;" d="M 94.660156 176.960938 C 94.015625 176.960938 93.507812 177.214844 93.136719 177.714844 C 92.761719 178.214844 92.574219 178.902344 92.574219 179.773438 C 92.574219 180.648438 92.761719 181.332031 93.132812 181.835938 C 93.503906 182.335938 94.011719 182.585938 94.660156 182.585938 C 95.296875 182.585938 95.804688 182.335938 96.175781 181.832031 C 96.550781 181.328125 96.734375 180.644531 96.734375 179.773438 C 96.734375 178.910156 96.550781 178.226562 96.175781 177.722656 C 95.804688 177.214844 95.296875 176.960938 94.660156 176.960938 Z M 94.660156 175.949219 C 95.699219 175.949219 96.519531 176.285156 97.113281 176.964844 C 97.707031 177.640625 98.007812 178.578125 98.007812 179.773438 C 98.007812 180.96875 97.707031 181.90625 97.113281 182.585938 C 96.519531 183.265625 95.699219 183.605469 94.660156 183.605469 C 93.613281 183.605469 92.792969 183.265625 92.199219 182.585938 C 91.609375 181.90625 91.3125 180.96875 91.3125 179.773438 C 91.3125 178.578125 91.609375 177.640625 92.199219 176.964844 C 92.792969 176.285156 93.613281 175.949219 94.660156 175.949219 Z M 94.660156 175.949219 "/>
<path style=" stroke:none;fill-rule:nonzero;fill:rgb(0%,0%,0%);fill-opacity:1;" d="M 105.238281 176.402344 L 105.238281 177.523438 C 104.902344 177.335938 104.5625 177.195312 104.21875 177.101562 C 103.878906 177.007812 103.535156 176.960938 103.1875 176.960938 C 102.410156 176.960938 101.808594 177.207031 101.375 177.703125 C 100.949219 178.195312 100.734375 178.882812 100.734375 179.773438 C 100.734375 180.664062 100.949219 181.355469 101.375 181.851562 C 101.808594 182.339844 102.410156 182.585938 103.1875 182.585938 C 103.535156 182.585938 103.878906 182.539062 104.21875 182.449219 C 104.5625 182.355469 104.902344 182.214844 105.238281 182.027344 L 105.238281 183.136719 C 104.90625 183.289062 104.558594 183.40625 104.199219 183.484375 C 103.84375 183.566406 103.460938 183.605469 103.058594 183.605469 C 101.960938 183.605469 101.085938 183.257812 100.4375 182.570312 C 99.792969 181.878906 99.46875 180.945312 99.46875 179.773438 C 99.46875 178.585938 99.796875 177.652344 100.449219 176.972656 C 101.105469 176.289062 102 175.949219 103.136719 175.949219 C 103.503906 175.949219 103.863281 175.984375 104.214844 176.0625 C 104.566406 176.136719 104.910156 176.25 105.238281 176.402344 Z M 105.238281 176.402344 "/>
<path style=" stroke:none;fill-rule:nonzero;fill:rgb(0%,0%,0%);fill-opacity:1;" d="M 110.636719 179.75 C 109.667969 179.75 108.996094 179.859375 108.625 180.082031 C 108.25 180.300781 108.0625 180.679688 108.0625 181.214844 C 108.0625 181.640625 108.203125 181.976562 108.484375 182.226562 C 108.765625 182.476562 109.144531 182.601562 109.625 182.601562 C 110.292969 182.601562 110.824219 182.363281 111.226562 181.894531 C 111.628906 181.421875 111.828125 180.796875 111.828125 180.015625 L 111.828125 179.75 Z M 113.027344 179.253906 L 113.027344 183.414062 L 111.828125 183.414062 L 111.828125 182.308594 C 111.554688 182.75 111.214844 183.078125 110.804688 183.289062 C 110.398438 183.5 109.898438 183.605469 109.308594 183.605469 C 108.5625 183.605469 107.96875 183.394531 107.527344 182.976562 C 107.085938 182.554688 106.867188 181.996094 106.867188 181.292969 C 106.867188 180.472656 107.140625 179.855469 107.6875 179.4375 C 108.238281 179.019531 109.058594 178.8125 110.148438 178.8125 L 111.828125 178.8125 L 111.828125 178.695312 C 111.828125 178.140625 111.648438 177.714844 111.285156 177.414062 C 110.921875 177.113281 110.414062 176.960938 109.757812 176.960938 C 109.339844 176.960938 108.933594 177.011719 108.539062 177.113281 C 108.144531 177.210938 107.765625 177.363281 107.402344 177.5625 L 107.402344 176.453125 C 107.839844 176.285156 108.265625 176.160156 108.675781 176.074219 C 109.089844 175.988281 109.492188 175.949219 109.878906 175.949219 C 110.9375 175.949219 111.722656 176.222656 112.246094 176.769531 C 112.765625 177.316406 113.027344 178.144531 113.027344 179.253906 Z M 113.027344 179.253906 "/>
<path style=" stroke:none;fill-rule:nonzero;fill:rgb(0%,0%,0%);fill-opacity:1;" d="M 115.492188 173.285156 L 116.691406 173.285156 L 116.691406 183.414062 L 115.492188 183.414062 Z M 115.492188 173.285156 "/>
<path style=" stroke:none;fill-rule:nonzero;fill:rgb(0%,0%,0%);fill-opacity:1;" d="M 129.113281 177.523438 C 129.414062 176.984375 129.769531 176.585938 130.1875 176.332031 C 130.605469 176.074219 131.09375 175.949219 131.660156 175.949219 C 132.417969 175.949219 133.003906 176.214844 133.417969 176.746094 C 133.828125 177.277344 134.035156 178.03125 134.035156 179.011719 L 134.035156 183.414062 L 132.832031 183.414062 L 132.832031 179.050781 C 132.832031 178.351562 132.707031 177.835938 132.457031 177.496094 C 132.210938 177.160156 131.835938 176.988281 131.328125 176.988281 C 130.707031 176.988281 130.214844 177.195312 129.855469 177.609375 C 129.496094 178.019531 129.316406 178.582031 129.316406 179.292969 L 129.316406 183.414062 L 128.109375 183.414062 L 128.109375 179.050781 C 128.109375 178.347656 127.988281 177.828125 127.738281 177.492188 C 127.492188 177.15625 127.109375 176.988281 126.59375 176.988281 C 125.980469 176.988281 125.496094 177.195312 125.132812 177.609375 C 124.773438 178.023438 124.59375 178.585938 124.59375 179.292969 L 124.59375 183.414062 L 123.390625 183.414062 L 123.390625 176.121094 L 124.59375 176.121094 L 124.59375 177.257812 C 124.867188 176.808594 125.195312 176.480469 125.578125 176.265625 C 125.960938 176.054688 126.414062 175.949219 126.9375 175.949219 C 127.46875 175.949219 127.917969 176.082031 128.289062 176.351562 C 128.660156 176.621094 128.933594 177.011719 129.113281 177.523438 Z M 129.113281 177.523438 "/>
<path style=" stroke:none;fill-rule:nonzero;fill:rgb(0%,0%,0%);fill-opacity:1;" d="M 136.421875 176.121094 L 137.621094 176.121094 L 137.621094 183.414062 L 136.421875 183.414062 Z M 136.421875 173.285156 L 137.621094 173.285156 L 137.621094 174.800781 L 136.421875 174.800781 Z M 136.421875 173.285156 "/>
<path style=" stroke:none;fill-rule:nonzero;fill:rgb(0%,0%,0%);fill-opacity:1;" d="M 146.191406 179.011719 L 146.191406 183.414062 L 144.992188 183.414062 L 144.992188 179.050781 C 144.992188 178.363281 144.859375 177.847656 144.589844 177.503906 C 144.320312 177.160156 143.914062 176.988281 143.378906 176.988281 C 142.730469 176.988281 142.21875 177.195312 141.847656 177.609375 C 141.472656 178.019531 141.285156 178.582031 141.285156 179.292969 L 141.285156 183.414062 L 140.082031 183.414062 L 140.082031 176.121094 L 141.285156 176.121094 L 141.285156 177.257812 C 141.574219 176.816406 141.910156 176.488281 142.300781 176.273438 C 142.6875 176.054688 143.136719 175.949219 143.644531 175.949219 C 144.480469 175.949219 145.117188 176.207031 145.542969 176.726562 C 145.976562 177.242188 146.191406 178.003906 146.191406 179.011719 Z M 146.191406 179.011719 "/>
<path style=" stroke:none;fill-rule:nonzero;fill:rgb(0%,0%,0%);fill-opacity:1;" d="M 148.578125 176.121094 L 149.777344 176.121094 L 149.777344 183.414062 L 148.578125 183.414062 Z M 148.578125 173.285156 L 149.777344 173.285156 L 149.777344 174.800781 L 148.578125 174.800781 Z M 148.578125 173.285156 "/>
<path style=" stroke:none;fill-rule:nonzero;fill:rgb(0%,0%,0%);fill-opacity:1;" d="M 157.960938 177.523438 C 158.261719 176.984375 158.617188 176.585938 159.035156 176.332031 C 159.453125 176.074219 159.941406 175.949219 160.507812 175.949219 C 161.265625 175.949219 161.851562 176.214844 162.265625 176.746094 C 162.675781 177.277344 162.882812 178.03125 162.882812 179.011719 L 162.882812 183.414062 L 161.679688 183.414062 L 161.679688 179.050781 C 161.679688 178.351562 161.554688 177.835938 161.304688 177.496094 C 161.058594 177.160156 160.683594 176.988281 160.175781 176.988281 C 159.554688 176.988281 159.0625 177.195312 158.703125 177.609375 C 158.34375 178.019531 158.164062 178.582031 158.164062 179.292969 L 158.164062 183.414062 L 156.957031 183.414062 L 156.957031 179.050781 C 156.957031 178.347656 156.835938 177.828125 156.585938 177.492188 C 156.339844 177.15625 155.957031 176.988281 155.441406 176.988281 C 154.828125 176.988281 154.34375 177.195312 153.980469 177.609375 C 153.621094 178.023438 153.441406 178.585938 153.441406 179.292969 L 153.441406 183.414062 L 152.238281 183.414062 L 152.238281 176.121094 L 153.441406 176.121094 L 153.441406 177.257812 C 153.714844 176.808594 154.042969 176.480469 154.425781 176.265625 C 154.808594 176.054688 155.261719 175.949219 155.785156 175.949219 C 156.316406 175.949219 156.765625 176.082031 157.136719 176.351562 C 157.507812 176.621094 157.78125 177.011719 157.960938 177.523438 Z M 157.960938 177.523438 "/>
<path style=" stroke:none;fill-rule:nonzero;fill:rgb(0%,0%,0%);fill-opacity:1;" d="M 165.148438 180.539062 L 165.148438 176.121094 L 166.347656 176.121094 L 166.347656 180.492188 C 166.347656 181.183594 166.480469 181.699219 166.75 182.046875 C 167.019531 182.390625 167.421875 182.5625 167.960938 182.5625 C 168.605469 182.5625 169.117188 182.355469 169.492188 181.945312 C 169.867188 181.53125 170.058594 180.96875 170.058594 180.257812 L 170.058594 176.121094 L 171.253906 176.121094 L 171.253906 183.414062 L 170.058594 183.414062 L 170.058594 182.292969 C 169.765625 182.738281 169.429688 183.066406 169.042969 183.28125 C 168.660156 183.496094 168.214844 183.605469 167.707031 183.605469 C 166.871094 183.605469 166.234375 183.34375 165.796875 182.824219 C 165.363281 182.300781 165.148438 181.539062 165.148438 180.539062 Z M 168.164062 175.949219 Z M 168.164062 175.949219 "/>
<path style=" stroke:none;fill-rule:nonzero;fill:rgb(0%,0%,0%);fill-opacity:1;" d="M 179.398438 177.523438 C 179.699219 176.984375 180.058594 176.585938 180.472656 176.332031 C 180.890625 176.074219 181.382812 175.949219 181.945312 175.949219 C 182.703125 175.949219 183.289062 176.214844 183.703125 176.746094 C 184.117188 177.277344 184.320312 178.03125 184.320312 179.011719 L 184.320312 183.414062 L 183.117188 183.414062 L 183.117188 179.050781 C 183.117188 178.351562 182.992188 177.835938 182.746094 177.496094 C 182.496094 177.160156 182.121094 176.988281 181.613281 176.988281 C 180.992188 176.988281 180.5 177.195312 180.140625 177.609375 C 179.78125 178.019531 179.601562 178.582031 179.601562 179.292969 L 179.601562 183.414062 L 178.398438 183.414062 L 178.398438 179.050781 C 178.398438 178.347656 178.273438 177.828125 178.027344 177.492188 C 177.777344 177.15625 177.398438 176.988281 176.878906 176.988281 C 176.269531 176.988281 175.78125 177.195312 175.417969 177.609375 C 175.058594 178.023438 174.878906 178.585938 174.878906 179.292969 L 174.878906 183.414062 L 173.675781 183.414062 L 173.675781 176.121094 L 174.878906 176.121094 L 174.878906 177.257812 C 175.152344 176.808594 175.480469 176.480469 175.863281 176.265625 C 176.246094 176.054688 176.699219 175.949219 177.222656 175.949219 C 177.753906 175.949219 178.207031 176.082031 178.574219 176.351562 C 178.945312 176.621094 179.222656 177.011719 179.398438 177.523438 Z M 179.398438 177.523438 "/>
<path style="fill:none;stroke-width:1;stroke-linecap:round;stroke-linejoin:round;stroke:rgb(0%,0%,0%);stroke-opacity:1;stroke-miterlimit:4;" d="M 185.797852 68.912109 C 182.692383 90.445312 179.639648 111.606445 176.639648 132.401367 " transform="matrix(1.333333,0,0,1.333333,0,0.000000000000014211)"/>
<path style="fill:none;stroke-width:1;stroke-linecap:round;stroke-linejoin:round;stroke:rgb(0%,0%,0%);stroke-opacity:1;stroke-miterlimit:4;" d="M 179.191406 128.727539 L 176.639648 132.401367 L 175.230469 128.15625 " transform="matrix(1.333333,0,0,1.333333,0,0.000000000000014211)"/>
<path style=" stroke:none;fill-rule:nonzero;fill:rgb(0%,0%,0%);fill-opacity:1;" d="M 201.394531 80.070312 C 201.394531 79.203125 201.214844 78.53125 200.855469 78.054688 C 200.5 77.574219 199.996094 77.335938 199.351562 77.335938 C 198.710938 77.335938 198.210938 77.574219 197.851562 78.054688 C 197.492188 78.53125 197.3125 79.203125 197.3125 80.070312 C 197.3125 80.933594 197.492188 81.605469 197.851562 82.082031 C 198.210938 82.558594 198.710938 82.800781 199.351562 82.800781 C 199.996094 82.800781 200.5 82.558594 200.855469 82.082031 C 201.214844 81.605469 201.394531 80.933594 201.394531 80.070312 Z M 202.59375 82.898438 C 202.59375 84.136719 202.316406 85.058594 201.765625 85.664062 C 201.214844 86.269531 200.371094 86.574219 199.234375 86.574219 C 198.8125 86.574219 198.414062 86.542969 198.042969 86.480469 C 197.667969 86.417969 197.304688 86.320312 196.953125 86.191406 L 196.953125 85.027344 C 197.304688 85.214844 197.652344 85.355469 197.996094 85.445312 C 198.339844 85.539062 198.6875 85.585938 199.042969 85.585938 C 199.832031 85.585938 200.417969 85.378906 200.808594 84.96875 C 201.199219 84.558594 201.394531 83.941406 201.394531 83.113281 L 201.394531 82.519531 C 201.148438 82.949219 200.832031 83.269531 200.445312 83.480469 C 200.058594 83.695312 199.597656 83.800781 199.058594 83.800781 C 198.164062 83.800781 197.445312 83.460938 196.898438 82.78125 C 196.347656 82.097656 196.074219 81.195312 196.074219 80.070312 C 196.074219 78.941406 196.347656 78.039062 196.898438 77.355469 C 197.445312 76.675781 198.164062 76.335938 199.058594 76.335938 C 199.597656 76.335938 200.058594 76.441406 200.445312 76.652344 C 200.832031 76.867188 201.148438 77.1875 201.394531 77.617188 L 201.394531 76.507812 L 202.59375 76.507812 Z M 202.59375 82.898438 "/>
<path style=" stroke:none;fill-rule:nonzero;fill:rgb(0%,0%,0%);fill-opacity:1;" d="M 205.058594 73.667969 L 206.257812 73.667969 L 206.257812 83.800781 L 205.058594 83.800781 Z M 205.058594 73.667969 "/>
<path style=" stroke:none;fill-rule:nonzero;fill:rgb(0%,0%,0%);fill-opacity:1;" d="M 211.589844 77.347656 C 210.949219 77.347656 210.441406 77.601562 210.066406 78.101562 C 209.691406 78.601562 209.507812 79.289062 209.507812 80.160156 C 209.507812 81.035156 209.691406 81.71875 210.0625 82.222656 C 210.433594 82.722656 210.945312 82.972656 211.589844 82.972656 C 212.226562 82.972656 212.734375 82.722656 213.105469 82.21875 C 213.480469 81.714844 213.667969 81.03125 213.667969 80.160156 C 213.667969 79.296875 213.480469 78.613281 213.105469 78.105469 C 212.734375 77.601562 212.226562 77.347656 211.589844 77.347656 Z M 211.589844 76.335938 C 212.632812 76.335938 213.449219 76.671875 214.042969 77.351562 C 214.640625 78.027344 214.9375 78.964844 214.9375 80.160156 C 214.9375 81.355469 214.640625 82.292969 214.042969 82.972656 C 213.449219 83.652344 212.632812 83.992188 211.589844 83.992188 C 210.542969 83.992188 209.722656 83.652344 209.132812 82.972656 C 208.539062 82.292969 208.242188 81.355469 208.242188 80.160156 C 208.242188 78.964844 208.539062 78.027344 209.132812 77.351562 C 209.722656 76.671875 210.542969 76.335938 211.589844 76.335938 Z M 211.589844 76.335938 "/>
<path style=" stroke:none;fill-rule:nonzero;fill:rgb(0%,0%,0%);fill-opacity:1;" d="M 222.15625 80.160156 C 222.15625 79.28125 221.976562 78.589844 221.613281 78.089844 C 221.25 77.585938 220.753906 77.335938 220.121094 77.335938 C 219.484375 77.335938 218.988281 77.585938 218.625 78.089844 C 218.261719 78.589844 218.082031 79.28125 218.082031 80.160156 C 218.082031 81.042969 218.261719 81.734375 218.625 82.234375 C 218.988281 82.734375 219.484375 82.988281 220.121094 82.988281 C 220.753906 82.988281 221.25 82.734375 221.613281 82.234375 C 221.976562 81.734375 222.15625 81.042969 222.15625 80.160156 Z M 218.082031 77.617188 C 218.332031 77.183594 218.652344 76.859375 219.035156 76.652344 C 219.417969 76.441406 219.878906 76.335938 220.410156 76.335938 C 221.296875 76.335938 222.015625 76.6875 222.570312 77.386719 C 223.125 78.089844 223.402344 79.015625 223.402344 80.160156 C 223.402344 81.308594 223.125 82.230469 222.570312 82.9375 C 222.015625 83.640625 221.296875 83.992188 220.410156 83.992188 C 219.878906 83.992188 219.417969 83.886719 219.035156 83.675781 C 218.652344 83.464844 218.332031 83.140625 218.082031 82.707031 L 218.082031 83.800781 L 216.875 83.800781 L 216.875 73.667969 L 218.082031 73.667969 Z M 218.082031 77.617188 "/>
<path style=" stroke:none;fill-rule:nonzero;fill:rgb(0%,0%,0%);fill-opacity:1;" d="M 228.699219 80.136719 C 227.730469 80.136719 227.0625 80.246094 226.6875 80.46875 C 226.3125 80.6875 226.128906 81.066406 226.128906 81.601562 C 226.128906 82.027344 226.265625 82.363281 226.546875 82.613281 C 226.828125 82.863281 227.210938 82.988281 227.691406 82.988281 C 228.355469 82.988281 228.886719 82.75 229.289062 82.28125 C 229.691406 81.808594 229.890625 81.183594 229.890625 80.402344 L 229.890625 80.136719 Z M 231.089844 79.640625 L 231.089844 83.800781 L 229.890625 83.800781 L 229.890625 82.695312 C 229.617188 83.136719 229.277344 83.464844 228.867188 83.675781 C 228.460938 83.886719 227.960938 83.992188 227.371094 83.992188 C 226.625 83.992188 226.03125 83.78125 225.589844 83.363281 C 225.148438 82.941406 224.929688 82.382812 224.929688 81.679688 C 224.929688 80.859375 225.203125 80.242188 225.753906 79.824219 C 226.300781 79.40625 227.121094 79.199219 228.210938 79.199219 L 229.890625 79.199219 L 229.890625 79.082031 C 229.890625 78.527344 229.710938 78.101562 229.347656 77.800781 C 228.984375 77.5 228.476562 77.347656 227.820312 77.347656 C 227.40625 77.347656 227 77.398438 226.601562 77.5 C 226.207031 77.597656 225.828125 77.75 225.464844 77.949219 L 225.464844 76.839844 C 225.902344 76.671875 226.328125 76.542969 226.738281 76.460938 C 227.152344 76.375 227.554688 76.335938 227.945312 76.335938 C 229 76.335938 229.789062 76.609375 230.308594 77.15625 C 230.828125 77.699219 231.089844 78.53125 231.089844 79.640625 Z M 231.089844 79.640625 "/>
<path style=" stroke:none;fill-rule:nonzero;fill:rgb(0%,0%,0%);fill-opacity:1;" d="M 233.554688 73.667969 L 234.753906 73.667969 L 234.753906 83.800781 L 233.554688 83.800781 Z M 233.554688 73.667969 "/>
<path style=" stroke:none;fill-rule:nonzero;fill:rgb(0%,0%,0%);fill-opacity:1;" d="M 247.175781 77.910156 C 247.476562 77.371094 247.835938 76.972656 248.25 76.71875 C 248.667969 76.460938 249.15625 76.335938 249.722656 76.335938 C 250.480469 76.335938 251.066406 76.601562 251.480469 77.132812 C 251.894531 77.664062 252.097656 78.417969 252.097656 79.398438 L 252.097656 83.800781 L 250.894531 83.800781 L 250.894531 79.4375 C 250.894531 78.738281 250.769531 78.222656 250.523438 77.882812 C 250.273438 77.546875 249.898438 77.375 249.390625 77.375 C 248.769531 77.375 248.277344 77.582031 247.917969 77.996094 C 247.558594 78.40625 247.378906 78.96875 247.378906 79.679688 L 247.378906 83.800781 L 246.175781 83.800781 L 246.175781 79.4375 C 246.175781 78.734375 246.050781 78.214844 245.804688 77.878906 C 245.554688 77.542969 245.175781 77.375 244.65625 77.375 C 244.042969 77.375 243.558594 77.582031 243.195312 77.996094 C 242.835938 78.410156 242.65625 78.972656 242.65625 79.679688 L 242.65625 83.800781 L 241.453125 83.800781 L 241.453125 76.507812 L 242.65625 76.507812 L 242.65625 77.644531 C 242.929688 77.195312 243.257812 76.867188 243.640625 76.652344 C 244.023438 76.441406 244.476562 76.335938 245 76.335938 C 245.53125 76.335938 245.980469 76.46875 246.351562 76.738281 C 246.722656 77.007812 247 77.398438 247.175781 77.910156 Z M 247.175781 77.910156 "/>
<path style=" stroke:none;fill-rule:nonzero;fill:rgb(0%,0%,0%);fill-opacity:1;" d="M 254.488281 76.507812 L 255.683594 76.507812 L 255.683594 83.800781 L 254.488281 83.800781 Z M 254.488281 73.667969 L 255.683594 73.667969 L 255.683594 75.1875 L 254.488281 75.1875 Z M 254.488281 73.667969 "/>
<path style=" stroke:none;fill-rule:nonzero;fill:rgb(0%,0%,0%);fill-opacity:1;" d="M 264.253906 79.398438 L 264.253906 83.800781 L 263.054688 83.800781 L 263.054688 79.4375 C 263.054688 78.75 262.921875 78.230469 262.652344 77.890625 C 262.382812 77.546875 261.980469 77.375 261.441406 77.375 C 260.792969 77.375 260.285156 77.582031 259.910156 77.996094 C 259.535156 78.40625 259.351562 78.96875 259.351562 79.679688 L 259.351562 83.800781 L 258.144531 83.800781 L 258.144531 76.507812 L 259.351562 76.507812 L 259.351562 77.644531 C 259.636719 77.203125 259.976562 76.875 260.363281 76.660156 C 260.75 76.441406 261.199219 76.335938 261.707031 76.335938 C 262.546875 76.335938 263.179688 76.59375 263.609375 77.113281 C 264.039062 77.628906 264.253906 78.390625 264.253906 79.398438 Z M 264.253906 79.398438 "/>
<path style=" stroke:none;fill-rule:nonzero;fill:rgb(0%,0%,0%);fill-opacity:1;" d="M 266.640625 76.507812 L 267.839844 76.507812 L 267.839844 83.800781 L 266.640625 83.800781 Z M 266.640625 73.667969 L 267.839844 73.667969 L 267.839844 75.1875 L 266.640625 75.1875 Z M 266.640625 73.667969 "/>
<path style=" stroke:none;fill-rule:nonzero;fill:rgb(0%,0%,0%);fill-opacity:1;" d="M 276.023438 77.910156 C 276.324219 77.371094 276.683594 76.972656 277.097656 76.71875 C 277.515625 76.460938 278.003906 76.335938 278.570312 76.335938 C 279.328125 76.335938 279.914062 76.601562 280.328125 77.132812 C 280.742188 77.664062 280.945312 78.417969 280.945312 79.398438 L 280.945312 83.800781 L 279.742188 83.800781 L 279.742188 79.4375 C 279.742188 78.738281 279.617188 78.222656 279.371094 77.882812 C 279.121094 77.546875 278.746094 77.375 278.238281 77.375 C 277.617188 77.375 277.125 77.582031 276.765625 77.996094 C 276.40625 78.40625 276.226562 78.96875 276.226562 79.679688 L 276.226562 83.800781 L 275.023438 83.800781 L 275.023438 79.4375 C 275.023438 78.734375 274.898438 78.214844 274.652344 77.878906 C 274.402344 77.542969 274.023438 77.375 273.503906 77.375 C 272.890625 77.375 272.40625 77.582031 272.042969 77.996094 C 271.683594 78.410156 271.503906 78.972656 271.503906 79.679688 L 271.503906 83.800781 L 270.300781 83.800781 L 270.300781 76.507812 L 271.503906 76.507812 L 271.503906 77.644531 C 271.777344 77.195312 272.105469 76.867188 272.488281 76.652344 C 272.871094 76.441406 273.324219 76.335938 273.847656 76.335938 C 274.378906 76.335938 274.828125 76.46875 275.199219 76.738281 C 275.570312 77.007812 275.847656 77.398438 276.023438 77.910156 Z M 276.023438 77.910156 "/>
<path style=" stroke:none;fill-rule:nonzero;fill:rgb(0%,0%,0%);fill-opacity:1;" d="M 283.210938 80.925781 L 283.210938 76.507812 L 284.410156 76.507812 L 284.410156 80.878906 C 284.410156 81.570312 284.542969 82.085938 284.8125 82.433594 C 285.082031 82.777344 285.484375 82.949219 286.023438 82.949219 C 286.671875 82.949219 287.179688 82.742188 287.554688 82.332031 C 287.933594 81.917969 288.121094 81.355469 288.121094 80.644531 L 288.121094 76.507812 L 289.316406 76.507812 L 289.316406 83.800781 L 288.121094 83.800781 L 288.121094 82.679688 C 287.828125 83.125 287.492188 83.453125 287.109375 83.667969 C 286.722656 83.882812 286.277344 83.992188 285.769531 83.992188 C 284.933594 83.992188 284.296875 83.730469 283.863281 83.210938 C 283.429688 82.6875 283.210938 81.925781 283.210938 80.925781 Z M 286.226562 76.335938 Z M 286.226562 76.335938 "/>
<path style=" stroke:none;fill-rule:nonzero;fill:rgb(0%,0%,0%);fill-opacity:1;" d="M 297.460938 77.910156 C 297.761719 77.371094 298.121094 76.972656 298.539062 76.71875 C 298.953125 76.460938 299.445312 76.335938 300.007812 76.335938 C 300.769531 76.335938 301.355469 76.601562 301.765625 77.132812 C 302.179688 77.664062 302.386719 78.417969 302.386719 79.398438 L 302.386719 83.800781 L 301.179688 83.800781 L 301.179688 79.4375 C 301.179688 78.738281 301.058594 78.222656 300.808594 77.882812 C 300.5625 77.546875 300.183594 77.375 299.675781 77.375 C 299.054688 77.375 298.566406 77.582031 298.203125 77.996094 C 297.84375 78.40625 297.664062 78.96875 297.664062 79.679688 L 297.664062 83.800781 L 296.460938 83.800781 L 296.460938 79.4375 C 296.460938 78.734375 296.335938 78.214844 296.089844 77.878906 C 295.84375 77.542969 295.460938 77.375 294.945312 77.375 C 294.332031 77.375 293.84375 77.582031 293.484375 77.996094 C 293.125 78.410156 292.945312 78.972656 292.945312 79.679688 L 292.945312 83.800781 L 291.738281 83.800781 L 291.738281 76.507812 L 292.945312 76.507812 L 292.945312 77.644531 C 293.21875 77.195312 293.546875 76.867188 293.925781 76.652344 C 294.308594 76.441406 294.761719 76.335938 295.289062 76.335938 C 295.816406 76.335938 296.269531 76.46875 296.640625 76.738281 C 297.011719 77.007812 297.285156 77.398438 297.460938 77.910156 Z M 297.460938 77.910156 "/>
</g>
</svg>
