<?xml version="1.0" encoding="UTF-8"?>
<svg xmlns="http://www.w3.org/2000/svg" xmlns:xlink="http://www.w3.org/1999/xlink" width="326.827087" height="244.474996" viewBox="0 0 326.827087 244.474996" version="1.1">
<defs>
<clipPath id="clip1">
  <path d="M 67 9.601562 L 70 9.601562 L 70 194.398438 L 67 194.398438 Z M 67 9.601562 "/>
</clipPath>
<clipPath id="clip2">
  <path d="M 127 9.601562 L 129 9.601562 L 129 194.398438 L 127 194.398438 Z M 127 9.601562 "/>
</clipPath>
<clipPath id="clip3">
  <path d="M 186 9.601562 L 188 9.601562 L 188 194.398438 L 186 194.398438 Z M 186 9.601562 "/>
</clipPath>
<clipPath id="clip4">
  <path d="M 245 9.601562 L 247 9.601562 L 247 194.398438 L 245 194.398438 Z M 245 9.601562 "/>
</clipPath>
<clipPath id="clip5">
  <path d="M 304 9.601562 L 307 9.601562 L 307 194.398438 L 304 194.398438 Z M 304 9.601562 "/>
</clipPath>
<clipPath id="clip6">
  <path d="M 56.828125 161 L 317.226562 161 L 317.226562 163 L 56.828125 163 Z M 56.828125 161 "/>
</clipPath>
<clipPath id="clip7">
  <path d="M 56.828125 101 L 317.226562 101 L 317.226562 103 L 56.828125 103 Z M 56.828125 101 "/>
</clipPath>
<clipPath id="clip8">
  <path d="M 56.828125 41 L 317.226562 41 L 317.226562 43 L 56.828125 43 Z M 56.828125 41 "/>
</clipPath>
</defs>
<g id="surface1">
<path style=" stroke:none;fill-rule:nonzero;fill:rgb(100%,100%,100%);fill-opacity:1;" d="M 0 244.476562 L 326.828125 244.476562 L 326.828125 0 L 0 0 Z M 0 244.476562 "/>
<path style=" stroke:none;fill-rule:nonzero;fill:rgb(100%,100%,100%);fill-opacity:1;" d="M 56.828125 194.398438 L 317.226562 194.398438 L 317.226562 9.601562 L 56.828125 9.601562 Z M 56.828125 194.398438 "/>
<g clip-path="url(#clip1)" clip-rule="nonzero">
<path style="fill:none;stroke-width:0.8;stroke-linecap:square;stroke-linejoin:round;stroke:rgb(69.01961%,69.01961%,69.01961%);stroke-opacity:1;stroke-miterlimit:4;" d="M 51.498047 145.798828 L 51.498047 7.201172 " transform="matrix(1.333333,0,0,1.333333,0,0.000000000000014211)"/>
</g>
<path style="fill:none;stroke-width:0.8;stroke-linecap:butt;stroke-linejoin:round;stroke:rgb(0%,0%,0%);stroke-opacity:1;stroke-miterlimit:4;" d="M 0.000461578 -0.00117493 L 0.000461578 3.499802 " transform="matrix(1.333333,0,0,1.333333,68.663447,194.400004)"/>
<path style=" stroke:none;fill-rule:nonzero;fill:rgb(0%,0%,0%);fill-opacity:1;" d="M 56.007812 209.132812 L 64.351562 209.132812 L 64.351562 210.238281 L 56.007812 210.238281 Z M 56.007812 209.132812 "/>
<path style=" stroke:none;fill-rule:nonzero;fill:rgb(0%,0%,0%);fill-opacity:1;" d="M 67.417969 212.757812 L 69.566406 212.757812 L 69.566406 205.339844 L 67.230469 205.808594 L 67.230469 204.613281 L 69.554688 204.144531 L 70.871094 204.144531 L 70.871094 212.757812 L 73.019531 212.757812 L 73.019531 213.863281 L 67.417969 213.863281 Z M 67.417969 212.757812 "/>
<path style=" stroke:none;fill-rule:nonzero;fill:rgb(0%,0%,0%);fill-opacity:1;" d="M 78.484375 205.011719 C 77.808594 205.011719 77.300781 205.34375 76.960938 206.011719 C 76.617188 206.675781 76.449219 207.675781 76.449219 209.015625 C 76.449219 210.347656 76.617188 211.347656 76.960938 212.011719 C 77.300781 212.679688 77.808594 213.011719 78.484375 213.011719 C 79.167969 213.011719 79.679688 212.679688 80.019531 212.011719 C 80.359375 211.347656 80.53125 210.347656 80.53125 209.015625 C 80.53125 207.675781 80.359375 206.675781 80.019531 206.011719 C 79.679688 205.34375 79.167969 205.011719 78.484375 205.011719 Z M 78.484375 203.96875 C 79.578125 203.96875 80.410156 204.398438 80.984375 205.261719 C 81.558594 206.125 81.847656 207.375 81.847656 209.015625 C 81.847656 210.652344 81.558594 211.898438 80.984375 212.761719 C 80.410156 213.625 79.578125 214.054688 78.484375 214.054688 C 77.398438 214.054688 76.566406 213.625 75.992188 212.761719 C 75.414062 211.898438 75.128906 210.652344 75.128906 209.015625 C 75.128906 207.375 75.414062 206.125 75.992188 205.261719 C 76.566406 204.398438 77.398438 203.96875 78.484375 203.96875 Z M 78.484375 203.96875 "/>
<g clip-path="url(#clip2)" clip-rule="nonzero">
<path style="fill:none;stroke-width:0.8;stroke-linecap:square;stroke-linejoin:round;stroke:rgb(69.01961%,69.01961%,69.01961%);stroke-opacity:1;stroke-miterlimit:4;" d="M 95.882812 145.798828 L 95.882812 7.201172 " transform="matrix(1.333333,0,0,1.333333,0,0.000000000000014211)"/>
</g>
<path style="fill:none;stroke-width:0.8;stroke-linecap:butt;stroke-linejoin:round;stroke:rgb(0%,0%,0%);stroke-opacity:1;stroke-miterlimit:4;" d="M -0.00113678 -0.00117493 L -0.00113678 3.499802 " transform="matrix(1.333333,0,0,1.333333,127.845266,194.400004)"/>
<path style=" stroke:none;fill-rule:nonzero;fill:rgb(0%,0%,0%);fill-opacity:1;" d="M 119.429688 209.132812 L 127.777344 209.132812 L 127.777344 210.238281 L 119.429688 210.238281 Z M 119.429688 209.132812 "/>
<path style=" stroke:none;fill-rule:nonzero;fill:rgb(0%,0%,0%);fill-opacity:1;" d="M 130.628906 204.144531 L 135.792969 204.144531 L 135.792969 205.253906 L 131.832031 205.253906 L 131.832031 207.632812 C 132.023438 207.566406 132.214844 207.519531 132.402344 207.488281 C 132.59375 207.457031 132.785156 207.441406 132.980469 207.441406 C 134.0625 207.441406 134.921875 207.738281 135.554688 208.332031 C 136.191406 208.925781 136.507812 209.730469 136.507812 210.746094 C 136.507812 211.792969 136.183594 212.605469 135.53125 213.183594 C 134.878906 213.765625 133.960938 214.054688 132.777344 214.054688 C 132.367188 214.054688 131.953125 214.019531 131.527344 213.949219 C 131.105469 213.878906 130.667969 213.777344 130.21875 213.636719 L 130.21875 212.316406 C 130.609375 212.527344 131.011719 212.683594 131.429688 212.789062 C 131.84375 212.894531 132.285156 212.945312 132.75 212.945312 C 133.5 212.945312 134.09375 212.75 134.53125 212.355469 C 134.972656 211.960938 135.191406 211.421875 135.191406 210.746094 C 135.191406 210.070312 134.972656 209.535156 134.53125 209.140625 C 134.09375 208.742188 133.5 208.546875 132.75 208.546875 C 132.398438 208.546875 132.046875 208.585938 131.699219 208.664062 C 131.347656 208.742188 130.992188 208.863281 130.628906 209.027344 Z M 130.628906 204.144531 "/>
<g clip-path="url(#clip3)" clip-rule="nonzero">
<path style="fill:none;stroke-width:0.8;stroke-linecap:square;stroke-linejoin:round;stroke:rgb(69.01961%,69.01961%,69.01961%);stroke-opacity:1;stroke-miterlimit:4;" d="M 140.270508 145.798828 L 140.270508 7.201172 " transform="matrix(1.333333,0,0,1.333333,0,0.000000000000014211)"/>
</g>
<path style="fill:none;stroke-width:0.8;stroke-linecap:butt;stroke-linejoin:round;stroke:rgb(0%,0%,0%);stroke-opacity:1;stroke-miterlimit:4;" d="M 0.000198364 -0.00117493 L 0.000198364 3.499802 " transform="matrix(1.333333,0,0,1.333333,187.027079,194.400004)"/>
<path style=" stroke:none;fill-rule:nonzero;fill:rgb(0%,0%,0%);fill-opacity:1;" d="M 187.023438 205.011719 C 186.347656 205.011719 185.835938 205.34375 185.496094 206.011719 C 185.15625 206.675781 184.984375 207.675781 184.984375 209.015625 C 184.984375 210.347656 185.15625 211.347656 185.496094 212.011719 C 185.835938 212.679688 186.347656 213.011719 187.023438 213.011719 C 187.703125 213.011719 188.214844 212.679688 188.554688 212.011719 C 188.898438 211.347656 189.070312 210.347656 189.070312 209.015625 C 189.070312 207.675781 188.898438 206.675781 188.554688 206.011719 C 188.214844 205.34375 187.703125 205.011719 187.023438 205.011719 Z M 187.023438 203.96875 C 188.113281 203.96875 188.945312 204.398438 189.519531 205.261719 C 190.097656 206.125 190.382812 207.375 190.382812 209.015625 C 190.382812 210.652344 190.097656 211.898438 189.519531 212.761719 C 188.945312 213.625 188.113281 214.054688 187.023438 214.054688 C 185.933594 214.054688 185.101562 213.625 184.527344 212.761719 C 183.953125 211.898438 183.664062 210.652344 183.664062 209.015625 C 183.664062 207.375 183.953125 206.125 184.527344 205.261719 C 185.101562 204.398438 185.933594 203.96875 187.023438 203.96875 Z M 187.023438 203.96875 "/>
<g clip-path="url(#clip4)" clip-rule="nonzero">
<path style="fill:none;stroke-width:0.8;stroke-linecap:square;stroke-linejoin:round;stroke:rgb(69.01961%,69.01961%,69.01961%);stroke-opacity:1;stroke-miterlimit:4;" d="M 184.655273 145.798828 L 184.655273 7.201172 " transform="matrix(1.333333,0,0,1.333333,0,0.000000000000014211)"/>
</g>
<path style="fill:none;stroke-width:0.8;stroke-linecap:butt;stroke-linejoin:round;stroke:rgb(0%,0%,0%);stroke-opacity:1;stroke-miterlimit:4;" d="M -0.00140381 -0.00117493 L -0.00140381 3.499802 " transform="matrix(1.333333,0,0,1.333333,246.208903,194.400004)"/>
<path style=" stroke:none;fill-rule:nonzero;fill:rgb(0%,0%,0%);fill-opacity:1;" d="M 243.40625 204.144531 L 248.570312 204.144531 L 248.570312 205.253906 L 244.609375 205.253906 L 244.609375 207.632812 C 244.800781 207.566406 244.992188 207.519531 245.183594 207.488281 C 245.375 207.457031 245.566406 207.441406 245.757812 207.441406 C 246.839844 207.441406 247.699219 207.738281 248.332031 208.332031 C 248.96875 208.925781 249.285156 209.730469 249.285156 210.746094 C 249.285156 211.792969 248.960938 212.605469 248.308594 213.183594 C 247.65625 213.765625 246.738281 214.054688 245.554688 214.054688 C 245.144531 214.054688 244.730469 214.019531 244.308594 213.949219 C 243.882812 213.878906 243.449219 213.777344 242.996094 213.636719 L 242.996094 212.316406 C 243.386719 212.527344 243.789062 212.683594 244.207031 212.789062 C 244.625 212.894531 245.0625 212.945312 245.527344 212.945312 C 246.277344 212.945312 246.875 212.75 247.3125 212.355469 C 247.75 211.960938 247.96875 211.421875 247.96875 210.746094 C 247.96875 210.070312 247.75 209.535156 247.3125 209.140625 C 246.875 208.742188 246.277344 208.546875 245.527344 208.546875 C 245.175781 208.546875 244.824219 208.585938 244.476562 208.664062 C 244.128906 208.742188 243.769531 208.863281 243.40625 209.027344 Z M 243.40625 204.144531 "/>
<g clip-path="url(#clip5)" clip-rule="nonzero">
<path style="fill:none;stroke-width:0.8;stroke-linecap:square;stroke-linejoin:round;stroke:rgb(69.01961%,69.01961%,69.01961%);stroke-opacity:1;stroke-miterlimit:4;" d="M 229.042969 145.798828 L 229.042969 7.201172 " transform="matrix(1.333333,0,0,1.333333,0,0.000000000000014211)"/>
</g>
<path style="fill:none;stroke-width:0.8;stroke-linecap:butt;stroke-linejoin:round;stroke:rgb(0%,0%,0%);stroke-opacity:1;stroke-miterlimit:4;" d="M -0.0000762939 -0.00117493 L -0.0000762939 3.499802 " transform="matrix(1.333333,0,0,1.333333,305.390727,194.400004)"/>
<path style=" stroke:none;fill-rule:nonzero;fill:rgb(0%,0%,0%);fill-opacity:1;" d="M 298.5625 212.757812 L 300.710938 212.757812 L 300.710938 205.339844 L 298.371094 205.808594 L 298.371094 204.613281 L 300.695312 204.144531 L 302.011719 204.144531 L 302.011719 212.757812 L 304.160156 212.757812 L 304.160156 213.863281 L 298.5625 213.863281 Z M 298.5625 212.757812 "/>
<path style=" stroke:none;fill-rule:nonzero;fill:rgb(0%,0%,0%);fill-opacity:1;" d="M 309.628906 205.011719 C 308.953125 205.011719 308.441406 205.34375 308.101562 206.011719 C 307.761719 206.675781 307.589844 207.675781 307.589844 209.015625 C 307.589844 210.347656 307.761719 211.347656 308.101562 212.011719 C 308.441406 212.679688 308.953125 213.011719 309.628906 213.011719 C 310.308594 213.011719 310.820312 212.679688 311.160156 212.011719 C 311.503906 211.347656 311.671875 210.347656 311.671875 209.015625 C 311.671875 207.675781 311.503906 206.675781 311.160156 206.011719 C 310.820312 205.34375 310.308594 205.011719 309.628906 205.011719 Z M 309.628906 203.96875 C 310.71875 203.96875 311.550781 204.398438 312.125 205.261719 C 312.699219 206.125 312.988281 207.375 312.988281 209.015625 C 312.988281 210.652344 312.699219 211.898438 312.125 212.761719 C 311.550781 213.625 310.71875 214.054688 309.628906 214.054688 C 308.539062 214.054688 307.707031 213.625 307.132812 212.761719 C 306.558594 211.898438 306.269531 210.652344 306.269531 209.015625 C 306.269531 207.375 306.558594 206.125 307.132812 205.261719 C 307.707031 204.398438 308.539062 203.96875 309.628906 203.96875 Z M 309.628906 203.96875 "/>
<path style=" stroke:none;fill-rule:nonzero;fill:rgb(0%,0%,0%);fill-opacity:1;" d="M 190.398438 224.808594 L 187.761719 228.359375 L 190.535156 232.101562 L 189.121094 232.101562 L 187 229.238281 L 184.878906 232.101562 L 183.464844 232.101562 L 186.296875 228.289062 L 183.707031 224.808594 L 185.117188 224.808594 L 187.050781 227.410156 L 188.984375 224.808594 Z M 190.398438 224.808594 "/>
<g clip-path="url(#clip6)" clip-rule="nonzero">
<path style="fill:none;stroke-width:0.8;stroke-linecap:square;stroke-linejoin:round;stroke:rgb(69.01961%,69.01961%,69.01961%);stroke-opacity:1;stroke-miterlimit:4;" d="M 42.621094 121.640625 L 237.919922 121.640625 " transform="matrix(1.333333,0,0,1.333333,0,0.000000000000014211)"/>
</g>
<path style="fill:none;stroke-width:0.8;stroke-linecap:butt;stroke-linejoin:round;stroke:rgb(0%,0%,0%);stroke-opacity:1;stroke-miterlimit:4;" d="M 0.000782013 -0.000343323 L -3.500195 -0.000343323 " transform="matrix(1.333333,0,0,1.333333,56.827082,162.187958)"/>
<path style=" stroke:none;fill-rule:nonzero;fill:rgb(0%,0%,0%);fill-opacity:1;" d="M 29.25 162.519531 L 37.597656 162.519531 L 37.597656 163.625 L 29.25 163.625 Z M 29.25 162.519531 "/>
<path style=" stroke:none;fill-rule:nonzero;fill:rgb(0%,0%,0%);fill-opacity:1;" d="M 40.449219 157.53125 L 45.613281 157.53125 L 45.613281 158.640625 L 41.652344 158.640625 L 41.652344 161.023438 C 41.84375 160.957031 42.035156 160.910156 42.222656 160.875 C 42.414062 160.84375 42.605469 160.828125 42.800781 160.828125 C 43.882812 160.828125 44.742188 161.125 45.375 161.71875 C 46.011719 162.316406 46.328125 163.121094 46.328125 164.136719 C 46.328125 165.179688 46.003906 165.992188 45.351562 166.574219 C 44.699219 167.152344 43.78125 167.441406 42.597656 167.441406 C 42.1875 167.441406 41.773438 167.410156 41.347656 167.339844 C 40.925781 167.269531 40.488281 167.164062 40.039062 167.027344 L 40.039062 165.703125 C 40.429688 165.917969 40.832031 166.074219 41.25 166.179688 C 41.664062 166.28125 42.105469 166.335938 42.570312 166.335938 C 43.320312 166.335938 43.914062 166.136719 44.351562 165.742188 C 44.792969 165.347656 45.011719 164.8125 45.011719 164.136719 C 45.011719 163.457031 44.792969 162.921875 44.351562 162.527344 C 43.914062 162.132812 43.320312 161.933594 42.570312 161.933594 C 42.21875 161.933594 41.867188 161.972656 41.519531 162.050781 C 41.167969 162.128906 40.8125 162.25 40.449219 162.417969 Z M 40.449219 157.53125 "/>
<g clip-path="url(#clip7)" clip-rule="nonzero">
<path style="fill:none;stroke-width:0.8;stroke-linecap:square;stroke-linejoin:round;stroke:rgb(69.01961%,69.01961%,69.01961%);stroke-opacity:1;stroke-miterlimit:4;" d="M 42.621094 76.5 L 237.919922 76.5 " transform="matrix(1.333333,0,0,1.333333,0,0.000000000000014211)"/>
</g>
<path style="fill:none;stroke-width:0.8;stroke-linecap:butt;stroke-linejoin:round;stroke:rgb(0%,0%,0%);stroke-opacity:1;stroke-miterlimit:4;" d="M 0.000782013 -0.000000000000014211 L -3.500195 -0.000000000000014211 " transform="matrix(1.333333,0,0,1.333333,56.827082,102)"/>
<path style=" stroke:none;fill-rule:nonzero;fill:rgb(0%,0%,0%);fill-opacity:1;" d="M 43.246094 98.210938 C 42.570312 98.210938 42.0625 98.542969 41.722656 99.210938 C 41.378906 99.875 41.210938 100.878906 41.210938 102.214844 C 41.210938 103.546875 41.378906 104.546875 41.722656 105.214844 C 42.0625 105.878906 42.570312 106.214844 43.246094 106.214844 C 43.929688 106.214844 44.441406 105.878906 44.78125 105.214844 C 45.121094 104.546875 45.292969 103.546875 45.292969 102.214844 C 45.292969 100.878906 45.121094 99.875 44.78125 99.210938 C 44.441406 98.542969 43.929688 98.210938 43.246094 98.210938 Z M 43.246094 97.167969 C 44.339844 97.167969 45.171875 97.601562 45.746094 98.464844 C 46.320312 99.324219 46.609375 100.574219 46.609375 102.214844 C 46.609375 103.851562 46.320312 105.101562 45.746094 105.964844 C 45.171875 106.824219 44.339844 107.253906 43.246094 107.253906 C 42.160156 107.253906 41.328125 106.824219 40.753906 105.964844 C 40.175781 105.101562 39.890625 103.851562 39.890625 102.214844 C 39.890625 100.574219 40.175781 99.324219 40.753906 98.464844 C 41.328125 97.601562 42.160156 97.167969 43.246094 97.167969 Z M 43.246094 97.167969 "/>
<g clip-path="url(#clip8)" clip-rule="nonzero">
<path style="fill:none;stroke-width:0.8;stroke-linecap:square;stroke-linejoin:round;stroke:rgb(69.01961%,69.01961%,69.01961%);stroke-opacity:1;stroke-miterlimit:4;" d="M 42.621094 31.359375 L 237.919922 31.359375 " transform="matrix(1.333333,0,0,1.333333,0,0.000000000000014211)"/>
</g>
<path style="fill:none;stroke-width:0.8;stroke-linecap:butt;stroke-linejoin:round;stroke:rgb(0%,0%,0%);stroke-opacity:1;stroke-miterlimit:4;" d="M 0.000782013 0.000341415 L -3.500195 0.000341415 " transform="matrix(1.333333,0,0,1.333333,56.827082,41.812045)"/>
<path style=" stroke:none;fill-rule:nonzero;fill:rgb(0%,0%,0%);fill-opacity:1;" d="M 40.449219 37.15625 L 45.613281 37.15625 L 45.613281 38.265625 L 41.652344 38.265625 L 41.652344 40.644531 C 41.84375 40.582031 42.035156 40.53125 42.226562 40.5 C 42.417969 40.46875 42.609375 40.453125 42.800781 40.453125 C 43.882812 40.453125 44.742188 40.75 45.378906 41.34375 C 46.011719 41.9375 46.328125 42.742188 46.328125 43.757812 C 46.328125 44.804688 46.003906 45.617188 45.351562 46.199219 C 44.699219 46.777344 43.78125 47.066406 42.597656 47.066406 C 42.191406 47.066406 41.773438 47.03125 41.351562 46.964844 C 40.929688 46.894531 40.492188 46.789062 40.039062 46.652344 L 40.039062 45.328125 C 40.429688 45.539062 40.832031 45.699219 41.25 45.800781 C 41.667969 45.90625 42.105469 45.957031 42.570312 45.957031 C 43.320312 45.957031 43.917969 45.761719 44.355469 45.367188 C 44.792969 44.972656 45.011719 44.4375 45.011719 43.757812 C 45.011719 43.082031 44.792969 42.546875 44.355469 42.152344 C 43.917969 41.757812 43.320312 41.558594 42.570312 41.558594 C 42.21875 41.558594 41.867188 41.597656 41.519531 41.675781 C 41.171875 41.753906 40.8125 41.875 40.449219 42.039062 Z M 40.449219 37.15625 "/>
<path style=" stroke:none;fill-rule:nonzero;fill:rgb(0%,0%,0%);fill-opacity:1;" d="M 9.601562 108.546875 L 10.597656 108.546875 L 10.597656 109.691406 C 10.597656 110.121094 10.683594 110.421875 10.859375 110.589844 C 11.03125 110.753906 11.34375 110.839844 11.796875 110.839844 L 12.441406 110.839844 L 12.441406 108.867188 L 13.371094 108.867188 L 13.371094 110.839844 L 19.730469 110.839844 L 19.730469 112.042969 L 13.371094 112.042969 L 13.371094 113.1875 L 12.441406 113.1875 L 12.441406 112.042969 L 11.929688 112.042969 C 11.121094 112.042969 10.527344 111.855469 10.160156 111.476562 C 9.785156 111.097656 9.601562 110.5 9.601562 109.679688 Z M 9.601562 108.546875 "/>
<path style=" stroke:none;fill-rule:nonzero;fill:rgb(0%,0%,0%);fill-opacity:1;" d="M 9.613281 104.667969 C 10.613281 105.246094 11.597656 105.679688 12.578125 105.964844 C 13.554688 106.246094 14.542969 106.386719 15.546875 106.386719 C 16.546875 106.386719 17.539062 106.242188 18.523438 105.960938 C 19.507812 105.675781 20.496094 105.242188 21.488281 104.667969 L 21.488281 105.710938 C 20.46875 106.359375 19.464844 106.847656 18.480469 107.167969 C 17.496094 107.492188 16.519531 107.65625 15.546875 107.65625 C 14.578125 107.65625 13.601562 107.496094 12.621094 107.171875 C 11.640625 106.851562 10.636719 106.363281 9.613281 105.710938 Z M 9.613281 104.667969 "/>
<path style=" stroke:none;fill-rule:nonzero;fill:rgb(0%,0%,0%);fill-opacity:1;" d="M 12.441406 96.28125 L 15.988281 98.917969 L 19.730469 96.144531 L 19.730469 97.558594 L 16.867188 99.679688 L 19.730469 101.800781 L 19.730469 103.214844 L 15.917969 100.382812 L 12.441406 102.972656 L 12.441406 101.5625 L 15.039062 99.628906 L 12.441406 97.695312 Z M 12.441406 96.28125 "/>
<path style=" stroke:none;fill-rule:nonzero;fill:rgb(0%,0%,0%);fill-opacity:1;" d="M 9.613281 94.640625 L 9.613281 93.597656 C 10.636719 92.949219 11.640625 92.460938 12.621094 92.136719 C 13.601562 91.8125 14.578125 91.652344 15.546875 91.652344 C 16.519531 91.652344 17.496094 91.8125 18.480469 92.136719 C 19.464844 92.460938 20.46875 92.949219 21.488281 93.597656 L 21.488281 94.640625 C 20.496094 94.0625 19.507812 93.632812 18.523438 93.347656 C 17.539062 93.0625 16.546875 92.921875 15.546875 92.921875 C 14.542969 92.921875 13.554688 93.0625 12.578125 93.347656 C 11.597656 93.632812 10.613281 94.0625 9.613281 94.640625 Z M 9.613281 94.640625 "/>
<path style="fill:none;stroke-width:1.5;stroke-linecap:square;stroke-linejoin:round;stroke:rgb(12.156863%,46.666667%,70.588237%);stroke-opacity:1;stroke-miterlimit:4;" d="M 51.498047 76.5 L 54.515625 62.586914 L 57.09082 51.75293 L 59.308594 43.327148 L 61.350586 36.407227 L 63.216797 30.837891 L 64.992188 26.232422 L 66.588867 22.6875 L 68.097656 19.87207 L 69.518555 17.695312 L 70.760742 16.168945 L 72.00293 14.991211 L 73.157227 14.206055 L 74.223633 13.740234 L 75.290039 13.520508 L 76.353516 13.538086 L 77.419922 13.790039 L 78.483398 14.261719 L 79.637695 15.020508 L 80.882812 16.104492 L 82.212891 17.560547 L 83.72168 19.552734 L 85.40918 22.166016 L 87.272461 25.479492 L 89.402344 29.727539 L 91.977539 35.367187 L 95.52832 43.725586 L 103.163086 61.839844 L 106.004883 67.939453 L 108.401367 72.588867 L 110.53125 76.262695 L 112.485352 79.204102 L 114.260742 81.498047 L 115.945312 83.326172 L 117.544922 84.738281 L 119.053711 85.77832 L 120.474609 86.501953 L 121.895508 86.979492 L 123.313477 87.216797 L 124.734375 87.225586 L 126.155273 87.011719 L 127.664062 86.554687 L 129.263672 85.836914 L 131.039062 84.785156 L 132.990234 83.358398 L 135.298828 81.380859 L 138.316406 78.474609 L 145.951172 70.983398 L 148.259766 69.09375 L 150.213867 67.763672 L 151.989258 66.814453 L 153.585938 66.202148 L 155.094727 65.856445 L 156.515625 65.750977 L 157.936523 65.871094 L 159.357422 66.228516 L 160.775391 66.829102 L 162.196289 67.675781 L 163.705078 68.850586 L 165.216797 70.306641 L 166.813477 72.152344 L 168.588867 74.557617 L 170.452148 77.463867 L 172.494141 81.067383 L 174.802734 85.608398 L 177.46582 91.359375 L 180.84082 99.205078 L 190.072266 120.999023 L 192.556641 126.155273 L 194.686523 130.081055 L 196.552734 133.060547 L 198.149414 135.222656 L 199.658203 136.895508 L 200.991211 138.046875 L 202.233398 138.832031 L 203.387695 139.294922 L 204.454102 139.488281 L 205.517578 139.447266 L 206.583984 139.166016 L 207.647461 138.638672 L 208.713867 137.862305 L 209.868164 136.734375 L 211.110352 135.181641 L 212.443359 133.12793 L 213.864258 130.491211 L 215.373047 127.189453 L 216.969727 123.137695 L 218.657227 118.259766 L 220.520508 112.174805 L 222.5625 104.724609 L 224.783203 95.774414 L 227.355469 84.418945 L 228.955078 76.924805 " transform="matrix(1.333333,0,0,1.333333,0,0.000000000000014211)"/>
<path style="fill:none;stroke-width:1.5;stroke-linecap:square;stroke-linejoin:round;stroke:rgb(100%,49.803922%,5.490196%);stroke-opacity:1;stroke-miterlimit:4;" d="M 229.042969 76.5 L 145.376953 71.496094 L 129.55957 85.678711 L 120.035156 86.305664 L 128.34375 86.279297 L 120.679688 86.586914 L 127.614258 86.575195 L 121.142578 86.756836 L 127.098633 86.753906 L 121.5 86.871094 L 126.703125 86.871094 " transform="matrix(1.333333,0,0,1.333333,0,0.000000000000014211)"/>
<path style="fill-rule:nonzero;fill:rgb(100%,49.803922%,5.490196%);fill-opacity:1;stroke-width:1;stroke-linecap:butt;stroke-linejoin:round;stroke:rgb(100%,49.803922%,5.490196%);stroke-opacity:1;stroke-miterlimit:4;" d="M -0.0000762939 3 C 0.796799 3 1.558517 2.683594 2.121017 2.121094 C 2.683517 1.558594 2.999924 0.796875 2.999924 -0.000000000000014211 C 2.999924 -0.796875 2.683517 -1.558594 2.121017 -2.121094 C 1.558517 -2.683594 0.796799 -3 -0.0000762939 -3 C -0.796951 -3 -1.55867 -2.683594 -2.12117 -2.121094 C -2.68367 -1.558594 -3.000076 -0.796875 -3.000076 -0.000000000000014211 C -3.000076 0.796875 -2.68367 1.558594 -2.12117 2.121094 C -1.55867 2.683594 -0.796951 3 -0.0000762939 3 Z M -0.0000762939 3 " transform="matrix(1.333333,0,0,1.333333,305.390727,102)"/>
<path style="fill-rule:nonzero;fill:rgb(100%,49.803922%,5.490196%);fill-opacity:1;stroke-width:1;stroke-linecap:butt;stroke-linejoin:round;stroke:rgb(100%,49.803922%,5.490196%);stroke-opacity:1;stroke-miterlimit:4;" d="M 0.000244141 2.99968 C 0.794189 2.99968 1.558838 2.683273 2.121338 2.120773 C 2.683838 1.558273 3.000244 0.796555 3.000244 -0.000320435 C 3.000244 -0.794266 2.683838 -1.558914 2.121338 -2.121414 C 1.558838 -2.683914 0.794189 -3.00032 0.000244141 -3.00032 C -0.796631 -3.00032 -1.55835 -2.683914 -2.12085 -2.121414 C -2.68335 -1.558914 -2.999756 -0.794266 -2.999756 -0.000320435 C -2.999756 0.796555 -2.68335 1.558273 -2.12085 2.120773 C -1.55835 2.683273 -0.796631 2.99968 0.000244141 2.99968 Z M 0.000244141 2.99968 " transform="matrix(1.333333,0,0,1.333333,193.835612,95.328552)"/>
<path style="fill-rule:nonzero;fill:rgb(100%,49.803922%,5.490196%);fill-opacity:1;stroke-width:1;stroke-linecap:butt;stroke-linejoin:round;stroke:rgb(100%,49.803922%,5.490196%);stroke-opacity:1;stroke-miterlimit:4;" d="M 0.000473022 2.999352 C 0.794418 2.999352 1.559067 2.682945 2.121567 2.120445 C 2.684067 1.557945 3.000473 0.796227 3.000473 -0.000648499 C 3.000473 -0.794594 2.684067 -1.559242 2.121567 -2.121742 C 1.559067 -2.684242 0.794418 -3.000648 0.000473022 -3.000648 C -0.796402 -3.000648 -1.558121 -2.684242 -2.120621 -2.121742 C -2.683121 -1.559242 -2.999527 -0.794594 -2.999527 -0.000648499 C -2.999527 0.796227 -2.683121 1.557945 -2.120621 2.120445 C -1.558121 2.682945 -0.796402 2.999352 0.000473022 2.999352 Z M 0.000473022 2.999352 " transform="matrix(1.333333,0,0,1.333333,172.745463,114.239146)"/>
<path style="fill-rule:nonzero;fill:rgb(100%,49.803922%,5.490196%);fill-opacity:1;stroke-width:1;stroke-linecap:butt;stroke-linejoin:round;stroke:rgb(100%,49.803922%,5.490196%);stroke-opacity:1;stroke-miterlimit:4;" d="M 0.00145721 3.000946 C 0.795403 3.000946 1.560051 2.68454 2.122551 2.12204 C 2.685051 1.55954 3.001457 0.794891 3.001457 0.000946045 C 3.001457 -0.795929 2.685051 -1.557648 2.122551 -2.120148 C 1.560051 -2.682648 0.795403 -2.999054 0.00145721 -2.999054 C -0.795418 -2.999054 -1.560066 -2.682648 -2.122566 -2.120148 C -2.685066 -1.557648 -2.998543 -0.795929 -2.998543 0.000946045 C -2.998543 0.794891 -2.685066 1.55954 -2.122566 2.12204 C -1.560066 2.68454 -0.795418 3.000946 0.00145721 3.000946 Z M 0.00145721 3.000946 " transform="matrix(1.333333,0,0,1.333333,160.044932,115.072957)"/>
<path style="fill-rule:nonzero;fill:rgb(100%,49.803922%,5.490196%);fill-opacity:1;stroke-width:1;stroke-linecap:butt;stroke-linejoin:round;stroke:rgb(100%,49.803922%,5.490196%);stroke-opacity:1;stroke-miterlimit:4;" d="M -0.000701904 3.001022 C 0.796173 3.001022 1.557892 2.684616 2.120392 2.122116 C 2.682892 1.559616 2.999298 0.794968 2.999298 0.00102234 C 2.999298 -0.795853 2.682892 -1.557571 2.120392 -2.120071 C 1.557892 -2.682571 0.796173 -2.998978 -0.000701904 -2.998978 C -0.794647 -2.998978 -1.559296 -2.682571 -2.121796 -2.120071 C -2.684296 -1.557571 -3.000702 -0.795853 -3.000702 0.00102234 C -3.000702 0.794968 -2.684296 1.559616 -2.121796 2.122116 C -1.559296 2.684616 -0.794647 3.001022 -0.000701904 3.001022 Z M -0.000701904 3.001022 " transform="matrix(1.333333,0,0,1.333333,171.125936,115.037699)"/>
<path style="fill-rule:nonzero;fill:rgb(100%,49.803922%,5.490196%);fill-opacity:1;stroke-width:1;stroke-linecap:butt;stroke-linejoin:round;stroke:rgb(100%,49.803922%,5.490196%);stroke-opacity:1;stroke-miterlimit:4;" d="M -0.000526428 2.999969 C 0.796349 2.999969 1.558067 2.683563 2.120567 2.121063 C 2.683067 1.558563 2.999474 0.796844 2.999474 -0.0000305176 C 2.999474 -0.796906 2.683067 -1.558624 2.120567 -2.121124 C 1.558067 -2.683624 0.796349 -3.000031 -0.000526428 -3.000031 C -0.794472 -3.000031 -1.55912 -2.683624 -2.12162 -2.121124 C -2.68412 -1.558624 -3.000526 -0.796906 -3.000526 -0.0000305176 C -3.000526 0.796844 -2.68412 1.558563 -2.12162 2.121063 C -1.55912 2.683563 -0.794472 2.999969 -0.000526428 2.999969 Z M -0.000526428 2.999969 " transform="matrix(1.333333,0,0,1.333333,160.906952,115.449259)"/>
<path style="fill-rule:nonzero;fill:rgb(100%,49.803922%,5.490196%);fill-opacity:1;stroke-width:1;stroke-linecap:butt;stroke-linejoin:round;stroke:rgb(100%,49.803922%,5.490196%);stroke-opacity:1;stroke-miterlimit:4;" d="M 0.00106049 3.00071 C 0.795006 3.00071 1.559654 2.684303 2.122154 2.121803 C 2.684654 1.559303 3.00106 0.794655 3.00106 0.000709534 C 3.00106 -0.796165 2.684654 -1.557884 2.122154 -2.120384 C 1.559654 -2.682884 0.795006 -2.99929 0.00106049 -2.99929 C -0.795815 -2.99929 -1.557533 -2.682884 -2.120033 -2.120384 C -2.682533 -1.557884 -2.99894 -0.796165 -2.99894 0.000709534 C -2.99894 0.794655 -2.682533 1.559303 -2.120033 2.121803 C -1.557533 2.684303 -0.795815 3.00071 0.00106049 3.00071 Z M 0.00106049 3.00071 " transform="matrix(1.333333,0,0,1.333333,170.15093,115.432648)"/>
<path style="fill-rule:nonzero;fill:rgb(100%,49.803922%,5.490196%);fill-opacity:1;stroke-width:1;stroke-linecap:butt;stroke-linejoin:round;stroke:rgb(100%,49.803922%,5.490196%);stroke-opacity:1;stroke-miterlimit:4;" d="M -0.000457764 2.999077 C 0.796417 2.999077 1.558136 2.682671 2.120636 2.120171 C 2.683136 1.557671 2.999542 0.795952 2.999542 -0.000923157 C 2.999542 -0.794868 2.683136 -1.559517 2.120636 -2.122017 C 1.558136 -2.684517 0.796417 -3.000923 -0.000457764 -3.000923 C -0.794403 -3.000923 -1.559052 -2.684517 -2.121552 -2.122017 C -2.684052 -1.559517 -3.000458 -0.794868 -3.000458 -0.000923157 C -3.000458 0.795952 -2.684052 1.557671 -2.121552 2.120171 C -1.559052 2.682671 -0.794403 2.999077 -0.000457764 2.999077 Z M -0.000457764 2.999077 " transform="matrix(1.333333,0,0,1.333333,161.524048,115.677012)"/>
<path style="fill-rule:nonzero;fill:rgb(100%,49.803922%,5.490196%);fill-opacity:1;stroke-width:1;stroke-linecap:butt;stroke-linejoin:round;stroke:rgb(100%,49.803922%,5.490196%);stroke-opacity:1;stroke-miterlimit:4;" d="M 0.00108337 3.001152 C 0.795029 3.001152 1.559677 2.684746 2.122177 2.122246 C 2.684677 1.559746 3.001083 0.795097 3.001083 0.00115204 C 3.001083 -0.795723 2.684677 -1.557442 2.122177 -2.119942 C 1.559677 -2.682442 0.795029 -2.998848 0.00108337 -2.998848 C -0.795792 -2.998848 -1.55751 -2.682442 -2.12001 -2.119942 C -2.68251 -1.557442 -2.998917 -0.795723 -2.998917 0.00115204 C -2.998917 0.795097 -2.68251 1.559746 -2.12001 2.122246 C -1.55751 2.684746 -0.795792 3.001152 0.00108337 3.001152 Z M 0.00108337 3.001152 " transform="matrix(1.333333,0,0,1.333333,169.463399,115.670339)"/>
<path style="fill-rule:nonzero;fill:rgb(100%,49.803922%,5.490196%);fill-opacity:1;stroke-width:1;stroke-linecap:butt;stroke-linejoin:round;stroke:rgb(100%,49.803922%,5.490196%);stroke-opacity:1;stroke-miterlimit:4;" d="M -0.000610352 2.999069 C 0.796265 2.999069 1.557983 2.682663 2.120483 2.120163 C 2.682983 1.557663 2.99939 0.795944 2.99939 -0.000930786 C 2.99939 -0.794876 2.682983 -1.559525 2.120483 -2.122025 C 1.557983 -2.684525 0.796265 -3.000931 -0.000610352 -3.000931 C -0.794556 -3.000931 -1.559204 -2.684525 -2.121704 -2.122025 C -2.684204 -1.559525 -3.00061 -0.794876 -3.00061 -0.000930786 C -3.00061 0.795944 -2.684204 1.557663 -2.121704 2.120163 C -1.559204 2.682663 -0.794556 2.999069 -0.000610352 2.999069 Z M -0.000610352 2.999069 " transform="matrix(1.333333,0,0,1.333333,162.000814,115.829366)"/>
<path style="fill-rule:nonzero;fill:rgb(100%,49.803922%,5.490196%);fill-opacity:1;stroke-width:1;stroke-linecap:butt;stroke-linejoin:round;stroke:rgb(100%,49.803922%,5.490196%);stroke-opacity:1;stroke-miterlimit:4;" d="M -0.00125122 2.999947 C 0.795624 2.999947 1.557343 2.68354 2.122772 2.12104 C 2.685272 1.55854 2.998749 0.796822 2.998749 -0.0000534058 C 2.998749 -0.796928 2.685272 -1.558647 2.122772 -2.121147 C 1.557343 -2.683647 0.795624 -3.000053 -0.00125122 -3.000053 C -0.795197 -3.000053 -1.559845 -2.683647 -2.122345 -2.121147 C -2.684845 -1.558647 -3.001251 -0.796928 -3.001251 -0.0000534058 C -3.001251 0.796822 -2.684845 1.55854 -2.122345 2.12104 C -1.559845 2.68354 -0.795197 2.999947 -0.00125122 2.999947 Z M -0.00125122 2.999947 " transform="matrix(1.333333,0,0,1.333333,168.939168,115.828196)"/>
<path style="fill:none;stroke-width:0.8;stroke-linecap:square;stroke-linejoin:miter;stroke:rgb(0%,0%,0%);stroke-opacity:1;stroke-miterlimit:4;" d="M 42.621094 145.798828 L 42.621094 7.201172 " transform="matrix(1.333333,0,0,1.333333,0,0.000000000000014211)"/>
<path style="fill:none;stroke-width:0.8;stroke-linecap:square;stroke-linejoin:miter;stroke:rgb(0%,0%,0%);stroke-opacity:1;stroke-miterlimit:4;" d="M 237.919922 145.798828 L 237.919922 7.201172 " transform="matrix(1.333333,0,0,1.333333,0,0.000000000000014211)"/>
<path style="fill:none;stroke-width:0.8;stroke-linecap:square;stroke-linejoin:miter;stroke:rgb(0%,0%,0%);stroke-opacity:1;stroke-miterlimit:4;" d="M 42.621094 145.798828 L 237.919922 145.798828 " transform="matrix(1.333333,0,0,1.333333,0,0.000000000000014211)"/>
<path style="fill:none;stroke-width:0.8;stroke-linecap:square;stroke-linejoin:miter;stroke:rgb(0%,0%,0%);stroke-opacity:1;stroke-miterlimit:4;" d="M 42.621094 7.201172 L 237.919922 7.201172 " transform="matrix(1.333333,0,0,1.333333,0,0.000000000000014211)"/>
</g>
</svg>
