<?xml version="1.0" encoding="UTF-8"?>
<svg xmlns="http://www.w3.org/2000/svg" xmlns:xlink="http://www.w3.org/1999/xlink" width="351.085938" height="244.474996" viewBox="0 0 351.085938 244.474996" version="1.1">
<defs>
<clipPath id="clip1">
  <path d="M 80 9.601562 L 83 9.601562 L 83 194.398438 L 80 194.398438 Z M 80 9.601562 "/>
</clipPath>
<clipPath id="clip2">
  <path d="M 148 9.601562 L 150 9.601562 L 150 194.398438 L 148 194.398438 Z M 148 9.601562 "/>
</clipPath>
<clipPath id="clip3">
  <path d="M 216 9.601562 L 218 9.601562 L 218 194.398438 L 216 194.398438 Z M 216 9.601562 "/>
</clipPath>
<clipPath id="clip4">
  <path d="M 283 9.601562 L 286 9.601562 L 286 194.398438 L 283 194.398438 Z M 283 9.601562 "/>
</clipPath>
<clipPath id="clip5">
  <path d="M 69.546875 188 L 329.949219 188 L 329.949219 190 L 69.546875 190 Z M 69.546875 188 "/>
</clipPath>
<clipPath id="clip6">
  <path d="M 69.546875 145 L 329.949219 145 L 329.949219 148 L 69.546875 148 Z M 69.546875 145 "/>
</clipPath>
<clipPath id="clip7">
  <path d="M 69.546875 102 L 329.949219 102 L 329.949219 105 L 69.546875 105 Z M 69.546875 102 "/>
</clipPath>
<clipPath id="clip8">
  <path d="M 69.546875 60 L 329.949219 60 L 329.949219 62 L 69.546875 62 Z M 69.546875 60 "/>
</clipPath>
<clipPath id="clip9">
  <path d="M 69.546875 17 L 329.949219 17 L 329.949219 19 L 69.546875 19 Z M 69.546875 17 "/>
</clipPath>
</defs>
<g id="surface1">
<path style=" stroke:none;fill-rule:nonzero;fill:rgb(100%,100%,100%);fill-opacity:1;" d="M 0 244.476562 L 351.085938 244.476562 L 351.085938 0 L 0 0 Z M 0 244.476562 "/>
<path style=" stroke:none;fill-rule:nonzero;fill:rgb(100%,100%,100%);fill-opacity:1;" d="M 69.546875 194.398438 L 329.949219 194.398438 L 329.949219 9.601562 L 69.546875 9.601562 Z M 69.546875 194.398438 "/>
<g clip-path="url(#clip1)" clip-rule="nonzero">
<path style="fill:none;stroke-width:0.8;stroke-linecap:square;stroke-linejoin:round;stroke:rgb(69.01961%,69.01961%,69.01961%);stroke-opacity:1;stroke-miterlimit:4;" d="M 61.037109 145.798828 L 61.037109 7.201172 " transform="matrix(1.333333,0,0,1.333333,0,0.000000000000014211)"/>
</g>
<path style="fill:none;stroke-width:0.8;stroke-linecap:butt;stroke-linejoin:round;stroke:rgb(0%,0%,0%);stroke-opacity:1;stroke-miterlimit:4;" d="M -0.00110245 -0.00117493 L -0.00110245 3.499802 " transform="matrix(1.333333,0,0,1.333333,81.384282,194.400004)"/>
<path style=" stroke:none;fill-rule:nonzero;fill:rgb(0%,0%,0%);fill-opacity:1;" d="M 72.96875 209.132812 L 81.316406 209.132812 L 81.316406 210.238281 L 72.96875 210.238281 Z M 72.96875 209.132812 "/>
<path style=" stroke:none;fill-rule:nonzero;fill:rgb(0%,0%,0%);fill-opacity:1;" d="M 85.285156 212.757812 L 89.875 212.757812 L 89.875 213.863281 L 83.707031 213.863281 L 83.707031 212.757812 C 84.203125 212.242188 84.882812 211.546875 85.746094 210.679688 C 86.605469 209.808594 87.148438 209.246094 87.371094 208.992188 C 87.789062 208.523438 88.085938 208.121094 88.25 207.792969 C 88.417969 207.464844 88.503906 207.144531 88.503906 206.828125 C 88.503906 206.308594 88.320312 205.890625 87.960938 205.566406 C 87.597656 205.238281 87.125 205.074219 86.542969 205.074219 C 86.128906 205.074219 85.695312 205.148438 85.238281 205.289062 C 84.78125 205.433594 84.289062 205.648438 83.769531 205.941406 L 83.769531 204.613281 C 84.300781 204.398438 84.792969 204.238281 85.253906 204.132812 C 85.714844 204.023438 86.136719 203.96875 86.519531 203.96875 C 87.523438 203.96875 88.328125 204.222656 88.925781 204.726562 C 89.523438 205.226562 89.824219 205.898438 89.824219 206.742188 C 89.824219 207.140625 89.75 207.519531 89.597656 207.878906 C 89.449219 208.234375 89.179688 208.65625 88.78125 209.144531 C 88.675781 209.269531 88.328125 209.632812 87.746094 210.234375 C 87.167969 210.835938 86.347656 211.679688 85.285156 212.757812 Z M 85.285156 212.757812 "/>
<g clip-path="url(#clip2)" clip-rule="nonzero">
<path style="fill:none;stroke-width:0.8;stroke-linecap:square;stroke-linejoin:round;stroke:rgb(69.01961%,69.01961%,69.01961%);stroke-opacity:1;stroke-miterlimit:4;" d="M 111.837891 145.798828 L 111.837891 7.201172 " transform="matrix(1.333333,0,0,1.333333,0,0.000000000000014211)"/>
</g>
<path style="fill:none;stroke-width:0.8;stroke-linecap:butt;stroke-linejoin:round;stroke:rgb(0%,0%,0%);stroke-opacity:1;stroke-miterlimit:4;" d="M -0.000167847 -0.00117493 L -0.000167847 3.499802 " transform="matrix(1.333333,0,0,1.333333,149.117411,194.400004)"/>
<path style=" stroke:none;fill-rule:nonzero;fill:rgb(0%,0%,0%);fill-opacity:1;" d="M 149.113281 205.011719 C 148.4375 205.011719 147.929688 205.34375 147.585938 206.011719 C 147.246094 206.675781 147.074219 207.675781 147.074219 209.015625 C 147.074219 210.347656 147.246094 211.347656 147.585938 212.011719 C 147.929688 212.679688 148.4375 213.011719 149.113281 213.011719 C 149.796875 213.011719 150.304688 212.679688 150.648438 212.011719 C 150.988281 211.347656 151.160156 210.347656 151.160156 209.015625 C 151.160156 207.675781 150.988281 206.675781 150.648438 206.011719 C 150.304688 205.34375 149.796875 205.011719 149.113281 205.011719 Z M 149.113281 203.96875 C 150.203125 203.96875 151.035156 204.398438 151.609375 205.261719 C 152.1875 206.125 152.472656 207.375 152.472656 209.015625 C 152.472656 210.652344 152.1875 211.898438 151.609375 212.761719 C 151.035156 213.625 150.203125 214.054688 149.113281 214.054688 C 148.023438 214.054688 147.191406 213.625 146.617188 212.761719 C 146.042969 211.898438 145.753906 210.652344 145.753906 209.015625 C 145.753906 207.375 146.042969 206.125 146.617188 205.261719 C 147.191406 204.398438 148.023438 203.96875 149.113281 203.96875 Z M 149.113281 203.96875 "/>
<g clip-path="url(#clip3)" clip-rule="nonzero">
<path style="fill:none;stroke-width:0.8;stroke-linecap:square;stroke-linejoin:round;stroke:rgb(69.01961%,69.01961%,69.01961%);stroke-opacity:1;stroke-miterlimit:4;" d="M 162.638672 145.798828 L 162.638672 7.201172 " transform="matrix(1.333333,0,0,1.333333,0,0.000000000000014211)"/>
</g>
<path style="fill:none;stroke-width:0.8;stroke-linecap:butt;stroke-linejoin:round;stroke:rgb(0%,0%,0%);stroke-opacity:1;stroke-miterlimit:4;" d="M 0.000778198 -0.00117493 L 0.000778198 3.499802 " transform="matrix(1.333333,0,0,1.333333,216.850525,194.400004)"/>
<path style=" stroke:none;fill-rule:nonzero;fill:rgb(0%,0%,0%);fill-opacity:1;" d="M 215.167969 212.757812 L 219.757812 212.757812 L 219.757812 213.863281 L 213.585938 213.863281 L 213.585938 212.757812 C 214.085938 212.242188 214.765625 211.546875 215.625 210.679688 C 216.488281 209.808594 217.03125 209.246094 217.25 208.992188 C 217.671875 208.523438 217.964844 208.121094 218.132812 207.792969 C 218.300781 207.464844 218.382812 207.144531 218.382812 206.828125 C 218.382812 206.308594 218.203125 205.890625 217.839844 205.566406 C 217.476562 205.238281 217.003906 205.074219 216.421875 205.074219 C 216.011719 205.074219 215.574219 205.148438 215.117188 205.289062 C 214.660156 205.433594 214.171875 205.648438 213.652344 205.941406 L 213.652344 204.613281 C 214.179688 204.398438 214.675781 204.238281 215.132812 204.132812 C 215.59375 204.023438 216.015625 203.96875 216.398438 203.96875 C 217.40625 203.96875 218.207031 204.222656 218.808594 204.726562 C 219.40625 205.226562 219.703125 205.898438 219.703125 206.742188 C 219.703125 207.140625 219.628906 207.519531 219.480469 207.878906 C 219.332031 208.234375 219.058594 208.65625 218.664062 209.144531 C 218.554688 209.269531 218.210938 209.632812 217.628906 210.234375 C 217.046875 210.835938 216.226562 211.679688 215.167969 212.757812 Z M 215.167969 212.757812 "/>
<g clip-path="url(#clip4)" clip-rule="nonzero">
<path style="fill:none;stroke-width:0.8;stroke-linecap:square;stroke-linejoin:round;stroke:rgb(69.01961%,69.01961%,69.01961%);stroke-opacity:1;stroke-miterlimit:4;" d="M 213.436523 145.798828 L 213.436523 7.201172 " transform="matrix(1.333333,0,0,1.333333,0,0.000000000000014211)"/>
</g>
<path style="fill:none;stroke-width:0.8;stroke-linecap:butt;stroke-linejoin:round;stroke:rgb(0%,0%,0%);stroke-opacity:1;stroke-miterlimit:4;" d="M -0.0012207 -0.00117493 L -0.0012207 3.499802 " transform="matrix(1.333333,0,0,1.333333,284.583659,194.400004)"/>
<path style=" stroke:none;fill-rule:nonzero;fill:rgb(0%,0%,0%);fill-opacity:1;" d="M 285.382812 205.289062 L 282.0625 210.480469 L 285.382812 210.480469 Z M 285.035156 204.144531 L 286.691406 204.144531 L 286.691406 210.480469 L 288.078125 210.480469 L 288.078125 211.574219 L 286.691406 211.574219 L 286.691406 213.863281 L 285.382812 213.863281 L 285.382812 211.574219 L 280.992188 211.574219 L 280.992188 210.304688 Z M 285.035156 204.144531 "/>
<path style=" stroke:none;fill-rule:nonzero;fill:rgb(0%,0%,0%);fill-opacity:1;" d="M 203.121094 224.808594 L 200.484375 228.359375 L 203.257812 232.101562 L 201.84375 232.101562 L 199.722656 229.238281 L 197.601562 232.101562 L 196.183594 232.101562 L 199.019531 228.289062 L 196.425781 224.808594 L 197.839844 224.808594 L 199.773438 227.410156 L 201.707031 224.808594 Z M 203.121094 224.808594 "/>
<g clip-path="url(#clip5)" clip-rule="nonzero">
<path style="fill:none;stroke-width:0.8;stroke-linecap:square;stroke-linejoin:round;stroke:rgb(69.01961%,69.01961%,69.01961%);stroke-opacity:1;stroke-miterlimit:4;" d="M 52.160156 141.808594 L 247.461914 141.808594 " transform="matrix(1.333333,0,0,1.333333,0,0.000000000000014211)"/>
</g>
<path style="fill:none;stroke-width:0.8;stroke-linecap:butt;stroke-linejoin:round;stroke:rgb(0%,0%,0%);stroke-opacity:1;stroke-miterlimit:4;" d="M -0.000782013 0.000717163 L -3.498829 0.000717163 " transform="matrix(1.333333,0,0,1.333333,69.547918,189.077169)"/>
<path style=" stroke:none;fill-rule:nonzero;fill:rgb(0%,0%,0%);fill-opacity:1;" d="M 29.25 189.410156 L 37.597656 189.410156 L 37.597656 190.515625 L 29.25 190.515625 Z M 29.25 189.410156 "/>
<path style=" stroke:none;fill-rule:nonzero;fill:rgb(0%,0%,0%);fill-opacity:1;" d="M 40.664062 193.035156 L 42.8125 193.035156 L 42.8125 185.621094 L 40.472656 186.089844 L 40.472656 184.890625 L 42.800781 184.421875 L 44.113281 184.421875 L 44.113281 193.035156 L 46.261719 193.035156 L 46.261719 194.144531 L 40.664062 194.144531 Z M 40.664062 193.035156 "/>
<path style=" stroke:none;fill-rule:nonzero;fill:rgb(0%,0%,0%);fill-opacity:1;" d="M 48.917969 192.488281 L 50.292969 192.488281 L 50.292969 194.144531 L 48.917969 194.144531 Z M 48.917969 192.488281 "/>
<path style=" stroke:none;fill-rule:nonzero;fill:rgb(0%,0%,0%);fill-opacity:1;" d="M 55.96875 185.289062 C 55.292969 185.289062 54.78125 185.621094 54.441406 186.289062 C 54.101562 186.953125 53.929688 187.957031 53.929688 189.292969 C 53.929688 190.625 54.101562 191.625 54.441406 192.289062 C 54.78125 192.957031 55.292969 193.289062 55.96875 193.289062 C 56.648438 193.289062 57.160156 192.957031 57.5 192.289062 C 57.84375 191.625 58.015625 190.625 58.015625 189.292969 C 58.015625 187.957031 57.84375 186.953125 57.5 186.289062 C 57.160156 185.621094 56.648438 185.289062 55.96875 185.289062 Z M 55.96875 184.246094 C 57.058594 184.246094 57.890625 184.679688 58.464844 185.539062 C 59.042969 186.402344 59.328125 187.652344 59.328125 189.292969 C 59.328125 190.929688 59.042969 192.179688 58.464844 193.039062 C 57.890625 193.902344 57.058594 194.332031 55.96875 194.332031 C 54.878906 194.332031 54.046875 193.902344 53.472656 193.039062 C 52.898438 192.179688 52.609375 190.929688 52.609375 189.292969 C 52.609375 187.652344 52.898438 186.402344 53.472656 185.539062 C 54.046875 184.679688 54.878906 184.246094 55.96875 184.246094 Z M 55.96875 184.246094 "/>
<g clip-path="url(#clip6)" clip-rule="nonzero">
<path style="fill:none;stroke-width:0.8;stroke-linecap:square;stroke-linejoin:round;stroke:rgb(69.01961%,69.01961%,69.01961%);stroke-opacity:1;stroke-miterlimit:4;" d="M 52.160156 109.728516 L 247.461914 109.728516 " transform="matrix(1.333333,0,0,1.333333,0,0.000000000000014211)"/>
</g>
<path style="fill:none;stroke-width:0.8;stroke-linecap:butt;stroke-linejoin:round;stroke:rgb(0%,0%,0%);stroke-opacity:1;stroke-miterlimit:4;" d="M -0.000782013 -0.000907898 L -3.498829 -0.000907898 " transform="matrix(1.333333,0,0,1.333333,69.547918,146.305898)"/>
<path style=" stroke:none;fill-rule:nonzero;fill:rgb(0%,0%,0%);fill-opacity:1;" d="M 29.25 146.636719 L 37.597656 146.636719 L 37.597656 147.746094 L 29.25 147.746094 Z M 29.25 146.636719 "/>
<path style=" stroke:none;fill-rule:nonzero;fill:rgb(0%,0%,0%);fill-opacity:1;" d="M 43.246094 142.515625 C 42.570312 142.515625 42.0625 142.851562 41.71875 143.515625 C 41.378906 144.183594 41.210938 145.183594 41.210938 146.523438 C 41.210938 147.851562 41.378906 148.851562 41.71875 149.519531 C 42.0625 150.1875 42.570312 150.519531 43.246094 150.519531 C 43.929688 150.519531 44.441406 150.1875 44.78125 149.519531 C 45.121094 148.851562 45.292969 147.851562 45.292969 146.523438 C 45.292969 145.183594 45.121094 144.183594 44.78125 143.515625 C 44.441406 142.851562 43.929688 142.515625 43.246094 142.515625 Z M 43.246094 141.476562 C 44.335938 141.476562 45.167969 141.90625 45.746094 142.769531 C 46.320312 143.628906 46.605469 144.882812 46.605469 146.523438 C 46.605469 148.15625 46.320312 149.40625 45.746094 150.269531 C 45.167969 151.128906 44.335938 151.5625 43.246094 151.5625 C 42.15625 151.5625 41.324219 151.128906 40.75 150.269531 C 40.175781 149.40625 39.886719 148.15625 39.886719 146.523438 C 39.886719 144.882812 40.175781 143.628906 40.75 142.769531 C 41.324219 141.90625 42.15625 141.476562 43.246094 141.476562 Z M 43.246094 141.476562 "/>
<path style=" stroke:none;fill-rule:nonzero;fill:rgb(0%,0%,0%);fill-opacity:1;" d="M 48.917969 149.71875 L 50.292969 149.71875 L 50.292969 151.371094 L 48.917969 151.371094 Z M 48.917969 149.71875 "/>
<path style=" stroke:none;fill-rule:nonzero;fill:rgb(0%,0%,0%);fill-opacity:1;" d="M 53.171875 141.652344 L 58.332031 141.652344 L 58.332031 142.757812 L 54.375 142.757812 L 54.375 145.140625 C 54.566406 145.074219 54.753906 145.027344 54.945312 144.996094 C 55.136719 144.960938 55.328125 144.945312 55.519531 144.945312 C 56.605469 144.945312 57.464844 145.242188 58.097656 145.839844 C 58.730469 146.433594 59.050781 147.238281 59.050781 148.253906 C 59.050781 149.296875 58.722656 150.113281 58.074219 150.691406 C 57.421875 151.273438 56.503906 151.5625 55.316406 151.5625 C 54.910156 151.5625 54.492188 151.527344 54.070312 151.457031 C 53.648438 151.386719 53.210938 151.285156 52.761719 151.144531 L 52.761719 149.820312 C 53.148438 150.035156 53.554688 150.191406 53.96875 150.296875 C 54.386719 150.402344 54.828125 150.453125 55.292969 150.453125 C 56.042969 150.453125 56.636719 150.253906 57.074219 149.859375 C 57.511719 149.464844 57.734375 148.929688 57.734375 148.253906 C 57.734375 147.578125 57.511719 147.039062 57.074219 146.648438 C 56.636719 146.25 56.042969 146.054688 55.292969 146.054688 C 54.941406 146.054688 54.589844 146.089844 54.238281 146.167969 C 53.890625 146.246094 53.535156 146.367188 53.171875 146.535156 Z M 53.171875 141.652344 "/>
<g clip-path="url(#clip7)" clip-rule="nonzero">
<path style="fill:none;stroke-width:0.8;stroke-linecap:square;stroke-linejoin:round;stroke:rgb(69.01961%,69.01961%,69.01961%);stroke-opacity:1;stroke-miterlimit:4;" d="M 52.160156 77.651367 L 247.461914 77.651367 " transform="matrix(1.333333,0,0,1.333333,0,0.000000000000014211)"/>
</g>
<path style="fill:none;stroke-width:0.8;stroke-linecap:butt;stroke-linejoin:round;stroke:rgb(0%,0%,0%);stroke-opacity:1;stroke-miterlimit:4;" d="M -0.000782013 0.000396729 L -3.498829 0.000396729 " transform="matrix(1.333333,0,0,1.333333,69.547918,103.534627)"/>
<path style=" stroke:none;fill-rule:nonzero;fill:rgb(0%,0%,0%);fill-opacity:1;" d="M 43.246094 99.746094 C 42.570312 99.746094 42.0625 100.078125 41.722656 100.746094 C 41.378906 101.410156 41.210938 102.414062 41.210938 103.75 C 41.210938 105.082031 41.378906 106.082031 41.722656 106.75 C 42.0625 107.414062 42.570312 107.75 43.246094 107.75 C 43.929688 107.75 44.441406 107.414062 44.78125 106.75 C 45.121094 106.082031 45.292969 105.082031 45.292969 103.75 C 45.292969 102.414062 45.121094 101.410156 44.78125 100.746094 C 44.441406 100.078125 43.929688 99.746094 43.246094 99.746094 Z M 43.246094 98.703125 C 44.339844 98.703125 45.171875 99.136719 45.746094 100 C 46.320312 100.859375 46.609375 102.109375 46.609375 103.75 C 46.609375 105.386719 46.320312 106.636719 45.746094 107.5 C 45.171875 108.359375 44.339844 108.789062 43.246094 108.789062 C 42.160156 108.789062 41.328125 108.359375 40.753906 107.5 C 40.175781 106.636719 39.890625 105.386719 39.890625 103.75 C 39.890625 102.109375 40.175781 100.859375 40.753906 100 C 41.328125 99.136719 42.160156 98.703125 43.246094 98.703125 Z M 43.246094 98.703125 "/>
<path style=" stroke:none;fill-rule:nonzero;fill:rgb(0%,0%,0%);fill-opacity:1;" d="M 48.917969 106.945312 L 50.292969 106.945312 L 50.292969 108.601562 L 48.917969 108.601562 Z M 48.917969 106.945312 "/>
<path style=" stroke:none;fill-rule:nonzero;fill:rgb(0%,0%,0%);fill-opacity:1;" d="M 55.96875 99.746094 C 55.292969 99.746094 54.785156 100.078125 54.441406 100.746094 C 54.101562 101.410156 53.933594 102.414062 53.933594 103.75 C 53.933594 105.082031 54.101562 106.082031 54.441406 106.75 C 54.785156 107.414062 55.292969 107.75 55.96875 107.75 C 56.652344 107.75 57.164062 107.414062 57.503906 106.75 C 57.84375 106.082031 58.015625 105.082031 58.015625 103.75 C 58.015625 102.414062 57.84375 101.410156 57.503906 100.746094 C 57.164062 100.078125 56.652344 99.746094 55.96875 99.746094 Z M 55.96875 98.703125 C 57.058594 98.703125 57.890625 99.136719 58.46875 100 C 59.042969 100.859375 59.328125 102.109375 59.328125 103.75 C 59.328125 105.386719 59.042969 106.636719 58.46875 107.5 C 57.890625 108.359375 57.058594 108.789062 55.96875 108.789062 C 54.878906 108.789062 54.046875 108.359375 53.472656 107.5 C 52.898438 106.636719 52.609375 105.386719 52.609375 103.75 C 52.609375 102.109375 52.898438 100.859375 53.472656 100 C 54.046875 99.136719 54.878906 98.703125 55.96875 98.703125 Z M 55.96875 98.703125 "/>
<g clip-path="url(#clip8)" clip-rule="nonzero">
<path style="fill:none;stroke-width:0.8;stroke-linecap:square;stroke-linejoin:round;stroke:rgb(69.01961%,69.01961%,69.01961%);stroke-opacity:1;stroke-miterlimit:4;" d="M 52.160156 45.571289 L 247.461914 45.571289 " transform="matrix(1.333333,0,0,1.333333,0,0.000000000000014211)"/>
</g>
<path style="fill:none;stroke-width:0.8;stroke-linecap:butt;stroke-linejoin:round;stroke:rgb(0%,0%,0%);stroke-opacity:1;stroke-miterlimit:4;" d="M -0.000782013 -0.00122452 L -3.498829 -0.00122452 " transform="matrix(1.333333,0,0,1.333333,69.547918,60.763351)"/>
<path style=" stroke:none;fill-rule:nonzero;fill:rgb(0%,0%,0%);fill-opacity:1;" d="M 43.246094 56.976562 C 42.570312 56.976562 42.0625 57.308594 41.722656 57.976562 C 41.378906 58.640625 41.210938 59.640625 41.210938 60.980469 C 41.210938 62.3125 41.378906 63.308594 41.722656 63.976562 C 42.0625 64.644531 42.570312 64.976562 43.246094 64.976562 C 43.929688 64.976562 44.441406 64.644531 44.78125 63.976562 C 45.121094 63.308594 45.292969 62.3125 45.292969 60.980469 C 45.292969 59.640625 45.121094 58.640625 44.78125 57.976562 C 44.441406 57.308594 43.929688 56.976562 43.246094 56.976562 Z M 43.246094 55.933594 C 44.339844 55.933594 45.171875 56.363281 45.746094 57.226562 C 46.320312 58.089844 46.609375 59.339844 46.609375 60.980469 C 46.609375 62.613281 46.320312 63.863281 45.746094 64.726562 C 45.171875 65.589844 44.339844 66.019531 43.246094 66.019531 C 42.160156 66.019531 41.328125 65.589844 40.753906 64.726562 C 40.175781 63.863281 39.890625 62.613281 39.890625 60.980469 C 39.890625 59.339844 40.175781 58.089844 40.753906 57.226562 C 41.328125 56.363281 42.160156 55.933594 43.246094 55.933594 Z M 43.246094 55.933594 "/>
<path style=" stroke:none;fill-rule:nonzero;fill:rgb(0%,0%,0%);fill-opacity:1;" d="M 48.917969 64.175781 L 50.292969 64.175781 L 50.292969 65.828125 L 48.917969 65.828125 Z M 48.917969 64.175781 "/>
<path style=" stroke:none;fill-rule:nonzero;fill:rgb(0%,0%,0%);fill-opacity:1;" d="M 53.171875 56.109375 L 58.332031 56.109375 L 58.332031 57.214844 L 54.375 57.214844 L 54.375 59.597656 C 54.566406 59.53125 54.757812 59.484375 54.945312 59.453125 C 55.136719 59.421875 55.328125 59.402344 55.519531 59.402344 C 56.605469 59.402344 57.464844 59.703125 58.097656 60.296875 C 58.734375 60.890625 59.050781 61.695312 59.050781 62.710938 C 59.050781 63.757812 58.726562 64.570312 58.074219 65.148438 C 57.421875 65.730469 56.503906 66.019531 55.320312 66.019531 C 54.910156 66.019531 54.496094 65.984375 54.070312 65.914062 C 53.648438 65.84375 53.210938 65.742188 52.761719 65.601562 L 52.761719 64.277344 C 53.152344 64.492188 53.554688 64.648438 53.972656 64.753906 C 54.386719 64.859375 54.828125 64.910156 55.292969 64.910156 C 56.042969 64.910156 56.636719 64.714844 57.074219 64.320312 C 57.515625 63.925781 57.734375 63.386719 57.734375 62.710938 C 57.734375 62.035156 57.515625 61.5 57.074219 61.105469 C 56.636719 60.707031 56.042969 60.511719 55.292969 60.511719 C 54.941406 60.511719 54.589844 60.550781 54.238281 60.625 C 53.890625 60.703125 53.535156 60.828125 53.171875 60.992188 Z M 53.171875 56.109375 "/>
<g clip-path="url(#clip9)" clip-rule="nonzero">
<path style="fill:none;stroke-width:0.8;stroke-linecap:square;stroke-linejoin:round;stroke:rgb(69.01961%,69.01961%,69.01961%);stroke-opacity:1;stroke-miterlimit:4;" d="M 52.160156 13.494141 L 247.461914 13.494141 " transform="matrix(1.333333,0,0,1.333333,0,0.000000000000014211)"/>
</g>
<path style="fill:none;stroke-width:0.8;stroke-linecap:butt;stroke-linejoin:round;stroke:rgb(0%,0%,0%);stroke-opacity:1;stroke-miterlimit:4;" d="M -0.000782013 0.0000839233 L -3.498829 0.0000839233 " transform="matrix(1.333333,0,0,1.333333,69.547918,17.992076)"/>
<path style=" stroke:none;fill-rule:nonzero;fill:rgb(0%,0%,0%);fill-opacity:1;" d="M 40.664062 21.953125 L 42.8125 21.953125 L 42.8125 14.535156 L 40.476562 15.003906 L 40.476562 13.804688 L 42.800781 13.335938 L 44.113281 13.335938 L 44.113281 21.953125 L 46.261719 21.953125 L 46.261719 23.058594 L 40.664062 23.058594 Z M 40.664062 21.953125 "/>
<path style=" stroke:none;fill-rule:nonzero;fill:rgb(0%,0%,0%);fill-opacity:1;" d="M 48.917969 21.402344 L 50.292969 21.402344 L 50.292969 23.058594 L 48.917969 23.058594 Z M 48.917969 21.402344 "/>
<path style=" stroke:none;fill-rule:nonzero;fill:rgb(0%,0%,0%);fill-opacity:1;" d="M 55.96875 14.203125 C 55.292969 14.203125 54.785156 14.535156 54.441406 15.203125 C 54.101562 15.867188 53.933594 16.871094 53.933594 18.207031 C 53.933594 19.539062 54.101562 20.539062 54.441406 21.207031 C 54.785156 21.871094 55.292969 22.207031 55.96875 22.207031 C 56.652344 22.207031 57.164062 21.871094 57.503906 21.207031 C 57.84375 20.539062 58.015625 19.539062 58.015625 18.207031 C 58.015625 16.871094 57.84375 15.867188 57.503906 15.203125 C 57.164062 14.535156 56.652344 14.203125 55.96875 14.203125 Z M 55.96875 13.160156 C 57.058594 13.160156 57.890625 13.59375 58.46875 14.457031 C 59.042969 15.316406 59.328125 16.566406 59.328125 18.207031 C 59.328125 19.84375 59.042969 21.09375 58.46875 21.957031 C 57.890625 22.816406 57.058594 23.246094 55.96875 23.246094 C 54.878906 23.246094 54.046875 22.816406 53.472656 21.957031 C 52.898438 21.09375 52.609375 19.84375 52.609375 18.207031 C 52.609375 16.566406 52.898438 15.316406 53.472656 14.457031 C 54.046875 13.59375 54.878906 13.160156 55.96875 13.160156 Z M 55.96875 13.160156 "/>
<path style=" stroke:none;fill-rule:nonzero;fill:rgb(0%,0%,0%);fill-opacity:1;" d="M 9.601562 108.546875 L 10.597656 108.546875 L 10.597656 109.691406 C 10.597656 110.121094 10.683594 110.421875 10.859375 110.589844 C 11.03125 110.753906 11.34375 110.839844 11.796875 110.839844 L 12.441406 110.839844 L 12.441406 108.867188 L 13.371094 108.867188 L 13.371094 110.839844 L 19.730469 110.839844 L 19.730469 112.042969 L 13.371094 112.042969 L 13.371094 113.1875 L 12.441406 113.1875 L 12.441406 112.042969 L 11.929688 112.042969 C 11.121094 112.042969 10.527344 111.855469 10.160156 111.476562 C 9.785156 111.097656 9.601562 110.5 9.601562 109.679688 Z M 9.601562 108.546875 "/>
<path style=" stroke:none;fill-rule:nonzero;fill:rgb(0%,0%,0%);fill-opacity:1;" d="M 9.613281 104.667969 C 10.613281 105.246094 11.597656 105.679688 12.578125 105.964844 C 13.554688 106.246094 14.542969 106.386719 15.546875 106.386719 C 16.546875 106.386719 17.539062 106.242188 18.523438 105.960938 C 19.507812 105.675781 20.496094 105.242188 21.488281 104.667969 L 21.488281 105.710938 C 20.46875 106.359375 19.464844 106.847656 18.480469 107.167969 C 17.496094 107.492188 16.519531 107.65625 15.546875 107.65625 C 14.578125 107.65625 13.601562 107.496094 12.621094 107.171875 C 11.640625 106.851562 10.636719 106.363281 9.613281 105.710938 Z M 9.613281 104.667969 "/>
<path style=" stroke:none;fill-rule:nonzero;fill:rgb(0%,0%,0%);fill-opacity:1;" d="M 12.441406 96.28125 L 15.988281 98.917969 L 19.730469 96.144531 L 19.730469 97.558594 L 16.867188 99.679688 L 19.730469 101.800781 L 19.730469 103.214844 L 15.917969 100.382812 L 12.441406 102.972656 L 12.441406 101.5625 L 15.039062 99.628906 L 12.441406 97.695312 Z M 12.441406 96.28125 "/>
<path style=" stroke:none;fill-rule:nonzero;fill:rgb(0%,0%,0%);fill-opacity:1;" d="M 9.613281 94.640625 L 9.613281 93.597656 C 10.636719 92.949219 11.640625 92.460938 12.621094 92.136719 C 13.601562 91.8125 14.578125 91.652344 15.546875 91.652344 C 16.519531 91.652344 17.496094 91.8125 18.480469 92.136719 C 19.464844 92.460938 20.46875 92.949219 21.488281 93.597656 L 21.488281 94.640625 C 20.496094 94.0625 19.507812 93.632812 18.523438 93.347656 C 17.539062 93.0625 16.546875 92.921875 15.546875 92.921875 C 14.542969 92.921875 13.554688 93.0625 12.578125 93.347656 C 11.597656 93.632812 10.613281 94.0625 9.613281 94.640625 Z M 9.613281 94.640625 "/>
<path style="fill:none;stroke-width:1.5;stroke-linecap:square;stroke-linejoin:round;stroke:rgb(12.156863%,46.666667%,70.588237%);stroke-opacity:1;stroke-miterlimit:4;" d="M 61.037109 139.5 L 64.848633 138.711914 L 68.150391 137.821289 L 71.197266 136.78125 L 73.992188 135.606445 L 76.532227 134.311523 L 79.072266 132.770508 L 81.357422 131.135742 L 83.645508 129.237305 L 85.930664 127.042969 L 88.21582 124.523437 L 90.500977 121.649414 L 92.789062 118.400391 L 95.074219 114.755859 L 97.359375 110.71582 L 99.899414 105.764648 L 102.694336 99.799805 L 105.741211 92.759766 L 109.804688 82.772461 L 118.696289 60.738281 L 121.998047 53.273437 L 124.792969 47.501953 L 127.333008 42.741211 L 129.873047 38.472656 L 132.158203 35.047852 L 134.443359 32.009766 L 136.731445 29.337891 L 139.016602 27.00293 L 141.301758 24.975586 L 143.586914 23.226562 L 146.126953 21.574219 L 148.666992 20.185547 L 151.461914 18.919922 L 154.508789 17.800781 L 157.810547 16.839844 L 161.367188 16.040039 L 165.430664 15.351562 L 170.258789 14.771484 L 176.100586 14.302734 L 183.46582 13.948242 L 193.625977 13.699219 L 209.882812 13.549805 L 238.584961 13.5 " transform="matrix(1.333333,0,0,1.333333,0,0.000000000000014211)"/>
<path style="fill:none;stroke-width:0.8;stroke-linecap:square;stroke-linejoin:miter;stroke:rgb(0%,0%,0%);stroke-opacity:1;stroke-miterlimit:4;" d="M 52.160156 145.798828 L 52.160156 7.201172 " transform="matrix(1.333333,0,0,1.333333,0,0.000000000000014211)"/>
<path style="fill:none;stroke-width:0.8;stroke-linecap:square;stroke-linejoin:miter;stroke:rgb(0%,0%,0%);stroke-opacity:1;stroke-miterlimit:4;" d="M 247.461914 145.798828 L 247.461914 7.201172 " transform="matrix(1.333333,0,0,1.333333,0,0.000000000000014211)"/>
<path style="fill:none;stroke-width:0.8;stroke-linecap:square;stroke-linejoin:miter;stroke:rgb(0%,0%,0%);stroke-opacity:1;stroke-miterlimit:4;" d="M 52.160156 145.798828 L 247.461914 145.798828 " transform="matrix(1.333333,0,0,1.333333,0,0.000000000000014211)"/>
<path style="fill:none;stroke-width:0.8;stroke-linecap:square;stroke-linejoin:miter;stroke:rgb(0%,0%,0%);stroke-opacity:1;stroke-miterlimit:4;" d="M 52.160156 7.201172 L 247.461914 7.201172 " transform="matrix(1.333333,0,0,1.333333,0,0.000000000000014211)"/>
<path style="fill:none;stroke-width:1;stroke-linecap:round;stroke-linejoin:round;stroke:rgb(0%,0%,0%);stroke-opacity:1;stroke-miterlimit:4;" d="M 209.961914 66.058594 C 211.075195 49.204102 212.165039 32.71875 213.231445 16.608398 " transform="matrix(1.333333,0,0,1.333333,0,0.000000000000014211)"/>
<path style="fill:none;stroke-width:1;stroke-linecap:round;stroke-linejoin:round;stroke:rgb(0%,0%,0%);stroke-opacity:1;stroke-miterlimit:4;" d="M 210.972656 20.466797 L 213.231445 16.608398 L 214.962891 20.730469 " transform="matrix(1.333333,0,0,1.333333,0,0.000000000000014211)"/>
<path style=" stroke:none;fill-rule:nonzero;fill:rgb(0%,0%,0%);fill-opacity:1;" d="M 217.25 96.242188 L 218.515625 96.242188 L 220.796875 102.363281 L 223.074219 96.242188 L 224.34375 96.242188 L 221.609375 103.535156 L 219.980469 103.535156 Z M 217.25 96.242188 "/>
<path style=" stroke:none;fill-rule:nonzero;fill:rgb(0%,0%,0%);fill-opacity:1;" d="M 229.3125 99.871094 C 228.34375 99.871094 227.671875 99.980469 227.300781 100.203125 C 226.925781 100.421875 226.738281 100.800781 226.738281 101.335938 C 226.738281 101.757812 226.878906 102.097656 227.160156 102.347656 C 227.441406 102.597656 227.820312 102.71875 228.300781 102.71875 C 228.96875 102.71875 229.5 102.484375 229.902344 102.015625 C 230.304688 101.542969 230.503906 100.917969 230.503906 100.136719 L 230.503906 99.871094 Z M 231.703125 99.375 L 231.703125 103.535156 L 230.503906 103.535156 L 230.503906 102.429688 C 230.230469 102.871094 229.890625 103.195312 229.480469 103.40625 C 229.074219 103.617188 228.574219 103.722656 227.984375 103.722656 C 227.238281 103.722656 226.644531 103.515625 226.203125 103.09375 C 225.761719 102.675781 225.542969 102.113281 225.542969 101.410156 C 225.542969 100.59375 225.816406 99.972656 226.363281 99.558594 C 226.914062 99.140625 227.734375 98.933594 228.824219 98.933594 L 230.503906 98.933594 L 230.503906 98.8125 C 230.503906 98.261719 230.324219 97.835938 229.960938 97.535156 C 229.597656 97.234375 229.089844 97.082031 228.433594 97.082031 C 228.015625 97.082031 227.609375 97.132812 227.214844 97.234375 C 226.820312 97.332031 226.441406 97.484375 226.078125 97.683594 L 226.078125 96.574219 C 226.515625 96.40625 226.9375 96.277344 227.351562 96.195312 C 227.765625 96.109375 228.164062 96.066406 228.554688 96.066406 C 229.609375 96.066406 230.398438 96.339844 230.921875 96.890625 C 231.441406 97.433594 231.703125 98.261719 231.703125 99.375 Z M 231.703125 99.375 "/>
<path style=" stroke:none;fill-rule:nonzero;fill:rgb(0%,0%,0%);fill-opacity:1;" d="M 240.230469 99.132812 L 240.230469 103.535156 L 239.03125 103.535156 L 239.03125 99.171875 C 239.03125 98.480469 238.898438 97.964844 238.628906 97.625 C 238.359375 97.28125 237.957031 97.109375 237.417969 97.109375 C 236.769531 97.109375 236.261719 97.316406 235.886719 97.726562 C 235.511719 98.140625 235.328125 98.703125 235.328125 99.414062 L 235.328125 103.535156 L 234.121094 103.535156 L 234.121094 96.242188 L 235.328125 96.242188 L 235.328125 97.375 C 235.613281 96.9375 235.953125 96.609375 236.339844 96.394531 C 236.726562 96.175781 237.175781 96.066406 237.683594 96.066406 C 238.523438 96.066406 239.15625 96.328125 239.585938 96.84375 C 240.015625 97.363281 240.230469 98.125 240.230469 99.132812 Z M 240.230469 99.132812 "/>
<path style=" stroke:none;fill-rule:nonzero;fill:rgb(0%,0%,0%);fill-opacity:1;" d="M 242.617188 96.242188 L 243.816406 96.242188 L 243.816406 103.535156 L 242.617188 103.535156 Z M 242.617188 93.402344 L 243.816406 93.402344 L 243.816406 94.921875 L 242.617188 94.921875 Z M 242.617188 93.402344 "/>
<path style=" stroke:none;fill-rule:nonzero;fill:rgb(0%,0%,0%);fill-opacity:1;" d="M 250.972656 96.457031 L 250.972656 97.589844 C 250.632812 97.417969 250.28125 97.289062 249.917969 97.203125 C 249.554688 97.113281 249.175781 97.070312 248.785156 97.070312 C 248.1875 97.070312 247.742188 97.160156 247.445312 97.34375 C 247.148438 97.523438 247 97.796875 247 98.164062 C 247 98.441406 247.105469 98.660156 247.320312 98.816406 C 247.53125 98.976562 247.960938 99.128906 248.601562 99.269531 L 249.011719 99.363281 C 249.863281 99.542969 250.464844 99.800781 250.824219 100.132812 C 251.183594 100.464844 251.363281 100.925781 251.363281 101.523438 C 251.363281 102.199219 251.09375 102.738281 250.558594 103.132812 C 250.023438 103.527344 249.285156 103.722656 248.347656 103.722656 C 247.957031 103.722656 247.550781 103.6875 247.128906 103.609375 C 246.703125 103.535156 246.257812 103.417969 245.789062 103.269531 L 245.789062 102.03125 C 246.234375 102.261719 246.667969 102.433594 247.097656 102.550781 C 247.527344 102.664062 247.953125 102.71875 248.375 102.71875 C 248.9375 102.71875 249.371094 102.625 249.675781 102.429688 C 249.980469 102.238281 250.132812 101.964844 250.132812 101.613281 C 250.132812 101.289062 250.023438 101.039062 249.800781 100.867188 C 249.585938 100.691406 249.101562 100.523438 248.359375 100.363281 L 247.945312 100.265625 C 247.203125 100.109375 246.664062 99.871094 246.335938 99.546875 C 246.007812 99.222656 245.839844 98.78125 245.839844 98.214844 C 245.839844 97.53125 246.085938 97 246.570312 96.628906 C 247.058594 96.253906 247.746094 96.066406 248.640625 96.066406 C 249.082031 96.066406 249.5 96.101562 249.890625 96.164062 C 250.28125 96.230469 250.640625 96.328125 250.972656 96.457031 Z M 250.972656 96.457031 "/>
<path style=" stroke:none;fill-rule:nonzero;fill:rgb(0%,0%,0%);fill-opacity:1;" d="M 259.332031 99.132812 L 259.332031 103.535156 L 258.132812 103.535156 L 258.132812 99.171875 C 258.132812 98.480469 258 97.964844 257.730469 97.625 C 257.460938 97.28125 257.058594 97.109375 256.519531 97.109375 C 255.871094 97.109375 255.363281 97.316406 254.988281 97.726562 C 254.613281 98.140625 254.429688 98.703125 254.429688 99.414062 L 254.429688 103.535156 L 253.222656 103.535156 L 253.222656 93.402344 L 254.429688 93.402344 L 254.429688 97.375 C 254.714844 96.9375 255.054688 96.609375 255.441406 96.394531 C 255.828125 96.175781 256.277344 96.066406 256.785156 96.066406 C 257.625 96.066406 258.257812 96.328125 258.6875 96.84375 C 259.117188 97.363281 259.332031 98.125 259.332031 99.132812 Z M 259.332031 99.132812 "/>
<path style=" stroke:none;fill-rule:nonzero;fill:rgb(0%,0%,0%);fill-opacity:1;" d="M 261.71875 96.242188 L 262.917969 96.242188 L 262.917969 103.535156 L 261.71875 103.535156 Z M 261.71875 93.402344 L 262.917969 93.402344 L 262.917969 94.921875 L 261.71875 94.921875 Z M 261.71875 93.402344 "/>
<path style=" stroke:none;fill-rule:nonzero;fill:rgb(0%,0%,0%);fill-opacity:1;" d="M 271.488281 99.132812 L 271.488281 103.535156 L 270.289062 103.535156 L 270.289062 99.171875 C 270.289062 98.480469 270.15625 97.964844 269.886719 97.625 C 269.617188 97.28125 269.210938 97.109375 268.675781 97.109375 C 268.027344 97.109375 267.515625 97.316406 267.144531 97.726562 C 266.769531 98.140625 266.582031 98.703125 266.582031 99.414062 L 266.582031 103.535156 L 265.378906 103.535156 L 265.378906 96.242188 L 266.582031 96.242188 L 266.582031 97.375 C 266.871094 96.9375 267.207031 96.609375 267.59375 96.394531 C 267.984375 96.175781 268.433594 96.066406 268.941406 96.066406 C 269.777344 96.066406 270.410156 96.328125 270.839844 96.84375 C 271.273438 97.363281 271.488281 98.125 271.488281 99.132812 Z M 271.488281 99.132812 "/>
<path style=" stroke:none;fill-rule:nonzero;fill:rgb(0%,0%,0%);fill-opacity:1;" d="M 278.671875 99.804688 C 278.671875 98.933594 278.492188 98.261719 278.136719 97.785156 C 277.777344 97.308594 277.277344 97.070312 276.628906 97.070312 C 275.988281 97.070312 275.488281 97.308594 275.128906 97.785156 C 274.769531 98.261719 274.589844 98.933594 274.589844 99.804688 C 274.589844 100.667969 274.769531 101.339844 275.128906 101.816406 C 275.488281 102.292969 275.988281 102.53125 276.628906 102.53125 C 277.277344 102.53125 277.777344 102.292969 278.136719 101.816406 C 278.492188 101.339844 278.671875 100.667969 278.671875 99.804688 Z M 279.871094 102.628906 C 279.871094 103.871094 279.59375 104.792969 279.042969 105.398438 C 278.492188 106.003906 277.648438 106.308594 276.511719 106.308594 C 276.089844 106.308594 275.695312 106.277344 275.320312 106.214844 C 274.945312 106.152344 274.585938 106.054688 274.234375 105.925781 L 274.234375 104.757812 C 274.585938 104.949219 274.933594 105.089844 275.273438 105.179688 C 275.617188 105.273438 275.96875 105.316406 276.324219 105.316406 C 277.109375 105.316406 277.695312 105.113281 278.085938 104.703125 C 278.476562 104.292969 278.671875 103.675781 278.671875 102.84375 L 278.671875 102.25 C 278.425781 102.683594 278.109375 103.003906 277.722656 103.214844 C 277.335938 103.429688 276.875 103.535156 276.335938 103.535156 C 275.441406 103.535156 274.722656 103.195312 274.175781 102.515625 C 273.628906 101.832031 273.355469 100.929688 273.355469 99.804688 C 273.355469 98.675781 273.628906 97.769531 274.175781 97.089844 C 274.722656 96.410156 275.441406 96.066406 276.335938 96.066406 C 276.875 96.066406 277.335938 96.175781 277.722656 96.386719 C 278.109375 96.597656 278.425781 96.921875 278.671875 97.347656 L 278.671875 96.242188 L 279.871094 96.242188 Z M 279.871094 102.628906 "/>
<path style=" stroke:none;fill-rule:nonzero;fill:rgb(0%,0%,0%);fill-opacity:1;" d="M 291.375 99.804688 C 291.375 98.933594 291.195312 98.261719 290.835938 97.785156 C 290.480469 97.308594 289.976562 97.070312 289.332031 97.070312 C 288.6875 97.070312 288.1875 97.308594 287.832031 97.785156 C 287.472656 98.261719 287.292969 98.933594 287.292969 99.804688 C 287.292969 100.667969 287.472656 101.339844 287.832031 101.816406 C 288.1875 102.292969 288.6875 102.53125 289.332031 102.53125 C 289.976562 102.53125 290.480469 102.292969 290.835938 101.816406 C 291.195312 101.339844 291.375 100.667969 291.375 99.804688 Z M 292.574219 102.628906 C 292.574219 103.871094 292.296875 104.792969 291.746094 105.398438 C 291.195312 106.003906 290.351562 106.308594 289.214844 106.308594 C 288.792969 106.308594 288.394531 106.277344 288.023438 106.214844 C 287.648438 106.152344 287.285156 106.054688 286.933594 105.925781 L 286.933594 104.757812 C 287.285156 104.949219 287.632812 105.089844 287.976562 105.179688 C 288.320312 105.273438 288.667969 105.316406 289.023438 105.316406 C 289.8125 105.316406 290.398438 105.113281 290.789062 104.703125 C 291.179688 104.292969 291.375 103.675781 291.375 102.84375 L 291.375 102.25 C 291.128906 102.683594 290.8125 103.003906 290.425781 103.214844 C 290.039062 103.429688 289.574219 103.535156 289.039062 103.535156 C 288.144531 103.535156 287.425781 103.195312 286.875 102.515625 C 286.328125 101.832031 286.054688 100.929688 286.054688 99.804688 C 286.054688 98.675781 286.328125 97.769531 286.875 97.089844 C 287.425781 96.410156 288.144531 96.066406 289.039062 96.066406 C 289.574219 96.066406 290.039062 96.175781 290.425781 96.386719 C 290.8125 96.597656 291.128906 96.921875 291.375 97.347656 L 291.375 96.242188 L 292.574219 96.242188 Z M 292.574219 102.628906 "/>
<path style=" stroke:none;fill-rule:nonzero;fill:rgb(0%,0%,0%);fill-opacity:1;" d="M 299.265625 97.363281 C 299.128906 97.285156 298.984375 97.226562 298.824219 97.191406 C 298.667969 97.152344 298.492188 97.132812 298.304688 97.132812 C 297.625 97.132812 297.105469 97.355469 296.742188 97.796875 C 296.378906 98.234375 296.199219 98.867188 296.199219 99.691406 L 296.199219 103.535156 L 294.996094 103.535156 L 294.996094 96.242188 L 296.199219 96.242188 L 296.199219 97.375 C 296.453125 96.933594 296.777344 96.605469 297.183594 96.390625 C 297.585938 96.175781 298.078125 96.066406 298.65625 96.066406 C 298.738281 96.066406 298.828125 96.074219 298.929688 96.085938 C 299.027344 96.09375 299.136719 96.109375 299.257812 96.132812 Z M 299.265625 97.363281 "/>
<path style=" stroke:none;fill-rule:nonzero;fill:rgb(0%,0%,0%);fill-opacity:1;" d="M 303.835938 99.871094 C 302.867188 99.871094 302.199219 99.980469 301.824219 100.203125 C 301.449219 100.421875 301.265625 100.800781 301.265625 101.335938 C 301.265625 101.757812 301.402344 102.097656 301.683594 102.347656 C 301.964844 102.597656 302.347656 102.71875 302.828125 102.71875 C 303.492188 102.71875 304.023438 102.484375 304.425781 102.015625 C 304.828125 101.542969 305.027344 100.917969 305.027344 100.136719 L 305.027344 99.871094 Z M 306.226562 99.375 L 306.226562 103.535156 L 305.027344 103.535156 L 305.027344 102.429688 C 304.753906 102.871094 304.414062 103.195312 304.003906 103.40625 C 303.597656 103.617188 303.097656 103.722656 302.507812 103.722656 C 301.761719 103.722656 301.167969 103.515625 300.726562 103.09375 C 300.285156 102.675781 300.066406 102.113281 300.066406 101.410156 C 300.066406 100.59375 300.339844 99.972656 300.890625 99.558594 C 301.4375 99.140625 302.257812 98.933594 303.347656 98.933594 L 305.027344 98.933594 L 305.027344 98.8125 C 305.027344 98.261719 304.847656 97.835938 304.484375 97.535156 C 304.121094 97.234375 303.613281 97.082031 302.957031 97.082031 C 302.539062 97.082031 302.132812 97.132812 301.738281 97.234375 C 301.34375 97.332031 300.964844 97.484375 300.601562 97.683594 L 300.601562 96.574219 C 301.039062 96.40625 301.464844 96.277344 301.875 96.195312 C 302.289062 96.109375 302.691406 96.066406 303.082031 96.066406 C 304.136719 96.066406 304.925781 96.339844 305.445312 96.890625 C 305.964844 97.433594 306.226562 98.261719 306.226562 99.375 Z M 306.226562 99.375 "/>
<path style=" stroke:none;fill-rule:nonzero;fill:rgb(0%,0%,0%);fill-opacity:1;" d="M 313.492188 97.347656 L 313.492188 93.402344 L 314.6875 93.402344 L 314.6875 103.535156 L 313.492188 103.535156 L 313.492188 102.441406 C 313.238281 102.875 312.921875 103.195312 312.535156 103.40625 C 312.152344 103.617188 311.691406 103.722656 311.152344 103.722656 C 310.273438 103.722656 309.554688 103.371094 309 102.671875 C 308.449219 101.964844 308.171875 101.039062 308.171875 99.894531 C 308.171875 98.75 308.449219 97.824219 309 97.121094 C 309.554688 96.417969 310.273438 96.066406 311.152344 96.066406 C 311.691406 96.066406 312.152344 96.171875 312.535156 96.382812 C 312.921875 96.59375 313.238281 96.914062 313.492188 97.347656 Z M 309.410156 99.894531 C 309.410156 100.777344 309.589844 101.464844 309.953125 101.96875 C 310.316406 102.46875 310.8125 102.71875 311.445312 102.71875 C 312.082031 102.71875 312.578125 102.46875 312.941406 101.96875 C 313.308594 101.464844 313.492188 100.777344 313.492188 99.894531 C 313.492188 99.015625 313.308594 98.324219 312.941406 97.820312 C 312.578125 97.320312 312.082031 97.070312 311.445312 97.070312 C 310.8125 97.070312 310.316406 97.320312 309.953125 97.820312 C 309.589844 98.324219 309.410156 99.015625 309.410156 99.894531 Z M 309.410156 99.894531 "/>
<path style=" stroke:none;fill-rule:nonzero;fill:rgb(0%,0%,0%);fill-opacity:1;" d="M 317.15625 96.242188 L 318.355469 96.242188 L 318.355469 103.535156 L 317.15625 103.535156 Z M 317.15625 93.402344 L 318.355469 93.402344 L 318.355469 94.921875 L 317.15625 94.921875 Z M 317.15625 93.402344 "/>
<path style=" stroke:none;fill-rule:nonzero;fill:rgb(0%,0%,0%);fill-opacity:1;" d="M 327.097656 99.589844 L 327.097656 100.175781 L 321.589844 100.175781 C 321.644531 101 321.890625 101.628906 322.335938 102.058594 C 322.78125 102.492188 323.398438 102.707031 324.195312 102.707031 C 324.652344 102.707031 325.097656 102.652344 325.53125 102.539062 C 325.964844 102.425781 326.394531 102.257812 326.820312 102.03125 L 326.820312 103.164062 C 326.386719 103.347656 325.949219 103.484375 325.496094 103.582031 C 325.042969 103.675781 324.585938 103.722656 324.125 103.722656 C 322.960938 103.722656 322.039062 103.386719 321.359375 102.710938 C 320.679688 102.03125 320.339844 101.113281 320.339844 99.960938 C 320.339844 98.765625 320.660156 97.820312 321.304688 97.121094 C 321.949219 96.417969 322.820312 96.066406 323.914062 96.066406 C 324.894531 96.066406 325.671875 96.382812 326.242188 97.015625 C 326.8125 97.644531 327.097656 98.503906 327.097656 99.589844 Z M 325.898438 99.238281 C 325.890625 98.582031 325.707031 98.058594 325.351562 97.671875 C 324.992188 97.277344 324.519531 97.082031 323.925781 97.082031 C 323.257812 97.082031 322.722656 97.269531 322.324219 97.648438 C 321.921875 98.027344 321.691406 98.558594 321.628906 99.246094 Z M 325.898438 99.238281 "/>
<path style=" stroke:none;fill-rule:nonzero;fill:rgb(0%,0%,0%);fill-opacity:1;" d="M 335.125 99.132812 L 335.125 103.535156 L 333.929688 103.535156 L 333.929688 99.171875 C 333.929688 98.480469 333.792969 97.964844 333.523438 97.625 C 333.253906 97.28125 332.851562 97.109375 332.3125 97.109375 C 331.667969 97.109375 331.15625 97.316406 330.78125 97.726562 C 330.410156 98.140625 330.222656 98.703125 330.222656 99.414062 L 330.222656 103.535156 L 329.019531 103.535156 L 329.019531 96.242188 L 330.222656 96.242188 L 330.222656 97.375 C 330.507812 96.9375 330.847656 96.609375 331.234375 96.394531 C 331.625 96.175781 332.070312 96.066406 332.582031 96.066406 C 333.417969 96.066406 334.050781 96.328125 334.480469 96.84375 C 334.910156 97.363281 335.125 98.125 335.125 99.132812 Z M 335.125 99.132812 "/>
<path style=" stroke:none;fill-rule:nonzero;fill:rgb(0%,0%,0%);fill-opacity:1;" d="M 338.699219 94.171875 L 338.699219 96.242188 L 341.167969 96.242188 L 341.167969 97.175781 L 338.699219 97.175781 L 338.699219 101.132812 C 338.699219 101.726562 338.78125 102.109375 338.945312 102.277344 C 339.105469 102.449219 339.4375 102.53125 339.9375 102.53125 L 341.167969 102.53125 L 341.167969 103.535156 L 339.9375 103.535156 C 339.011719 103.535156 338.375 103.363281 338.023438 103.019531 C 337.671875 102.671875 337.496094 102.042969 337.496094 101.132812 L 337.496094 97.175781 L 336.617188 97.175781 L 336.617188 96.242188 L 337.496094 96.242188 L 337.496094 94.171875 Z M 338.699219 94.171875 "/>
</g>
</svg>
