<?xml version="1.0" encoding="UTF-8"?>
<svg xmlns="http://www.w3.org/2000/svg" xmlns:xlink="http://www.w3.org/1999/xlink" width="341.104167" height="248.425456" viewBox="0 0 341.104167 248.425456" version="1.1">
<defs>
<clipPath id="clip1">
  <path d="M 104 13.550781 L 107 13.550781 L 107 198.351562 L 104 198.351562 Z M 104 13.550781 "/>
</clipPath>
<clipPath id="clip2">
  <path d="M 152 13.550781 L 155 13.550781 L 155 198.351562 L 152 198.351562 Z M 152 13.550781 "/>
</clipPath>
<clipPath id="clip3">
  <path d="M 200 13.550781 L 203 13.550781 L 203 198.351562 L 200 198.351562 Z M 200 13.550781 "/>
</clipPath>
<clipPath id="clip4">
  <path d="M 248 13.550781 L 250 13.550781 L 250 198.351562 L 248 198.351562 Z M 248 13.550781 "/>
</clipPath>
<clipPath id="clip5">
  <path d="M 296 13.550781 L 298 13.550781 L 298 198.351562 L 296 198.351562 Z M 296 13.550781 "/>
</clipPath>
<clipPath id="clip6">
  <path d="M 71.105469 189 L 331.503906 189 L 331.503906 191 L 71.105469 191 Z M 71.105469 189 "/>
</clipPath>
<clipPath id="clip7">
  <path d="M 71.105469 145 L 331.503906 145 L 331.503906 147 L 71.105469 147 Z M 71.105469 145 "/>
</clipPath>
<clipPath id="clip8">
  <path d="M 71.105469 101 L 331.503906 101 L 331.503906 104 L 71.105469 104 Z M 71.105469 101 "/>
</clipPath>
<clipPath id="clip9">
  <path d="M 71.105469 57 L 331.503906 57 L 331.503906 60 L 71.105469 60 Z M 71.105469 57 "/>
</clipPath>
<clipPath id="clip10">
  <path d="M 71.105469 13.550781 L 331.503906 13.550781 L 331.503906 16 L 71.105469 16 Z M 71.105469 13.550781 "/>
</clipPath>
</defs>
<g id="surface1">
<path style=" stroke:none;fill-rule:nonzero;fill:rgb(100%,100%,100%);fill-opacity:1;" d="M 0 248.425781 L 341.105469 248.425781 L 341.105469 0 L 0 0 Z M 0 248.425781 "/>
<path style=" stroke:none;fill-rule:nonzero;fill:rgb(100%,100%,100%);fill-opacity:1;" d="M 71.105469 198.351562 L 331.503906 198.351562 L 331.503906 13.550781 L 71.105469 13.550781 Z M 71.105469 198.351562 "/>
<g clip-path="url(#clip1)" clip-rule="nonzero">
<path style="fill:none;stroke-width:0.8;stroke-linecap:square;stroke-linejoin:round;stroke:rgb(69.01961%,69.01961%,69.01961%);stroke-opacity:1;stroke-miterlimit:4;" d="M 79.291992 148.763672 L 79.291992 10.163086 " transform="matrix(1.333333,0,0,1.333333,0.000000000000028422,0)"/>
</g>
<path style="fill:none;stroke-width:0.8;stroke-linecap:butt;stroke-linejoin:round;stroke:rgb(0%,0%,0%);stroke-opacity:1;stroke-miterlimit:4;" d="M 0.000320435 0.000839233 L 0.000320435 3.498886 " transform="matrix(1.333333,0,0,1.333333,105.722229,198.350444)"/>
<path style=" stroke:none;fill-rule:nonzero;fill:rgb(0%,0%,0%);fill-opacity:1;" d="M 93.066406 213.082031 L 101.410156 213.082031 L 101.410156 214.1875 L 93.066406 214.1875 Z M 93.066406 213.082031 "/>
<path style=" stroke:none;fill-rule:nonzero;fill:rgb(0%,0%,0%);fill-opacity:1;" d="M 104.265625 208.09375 L 109.425781 208.09375 L 109.425781 209.203125 L 105.46875 209.203125 L 105.46875 211.582031 C 105.660156 211.519531 105.847656 211.46875 106.039062 211.4375 C 106.230469 211.40625 106.421875 211.390625 106.613281 211.390625 C 107.699219 211.390625 108.558594 211.6875 109.191406 212.28125 C 109.824219 212.875 110.144531 213.679688 110.144531 214.695312 C 110.144531 215.742188 109.816406 216.554688 109.164062 217.136719 C 108.515625 217.714844 107.597656 218.003906 106.410156 218.003906 C 106.003906 218.003906 105.585938 217.96875 105.164062 217.902344 C 104.742188 217.832031 104.304688 217.726562 103.851562 217.589844 L 103.851562 216.265625 C 104.242188 216.476562 104.648438 216.636719 105.0625 216.738281 C 105.480469 216.84375 105.921875 216.894531 106.382812 216.894531 C 107.136719 216.894531 107.730469 216.699219 108.167969 216.304688 C 108.605469 215.910156 108.828125 215.375 108.828125 214.695312 C 108.828125 214.019531 108.605469 213.484375 108.167969 213.089844 C 107.730469 212.695312 107.136719 212.496094 106.382812 212.496094 C 106.035156 212.496094 105.683594 212.535156 105.332031 212.613281 C 104.984375 212.691406 104.628906 212.8125 104.265625 212.976562 Z M 104.265625 208.09375 "/>
<path style=" stroke:none;fill-rule:nonzero;fill:rgb(0%,0%,0%);fill-opacity:1;" d="M 115.542969 208.960938 C 114.867188 208.960938 114.359375 209.292969 114.019531 209.960938 C 113.675781 210.625 113.507812 211.628906 113.507812 212.964844 C 113.507812 214.296875 113.675781 215.296875 114.019531 215.964844 C 114.359375 216.628906 114.867188 216.964844 115.542969 216.964844 C 116.226562 216.964844 116.738281 216.628906 117.078125 215.964844 C 117.417969 215.296875 117.589844 214.296875 117.589844 212.964844 C 117.589844 211.628906 117.417969 210.625 117.078125 209.960938 C 116.738281 209.292969 116.226562 208.960938 115.542969 208.960938 Z M 115.542969 207.917969 C 116.636719 207.917969 117.46875 208.351562 118.042969 209.214844 C 118.617188 210.074219 118.90625 211.324219 118.90625 212.964844 C 118.90625 214.601562 118.617188 215.851562 118.042969 216.714844 C 117.46875 217.574219 116.636719 218.003906 115.542969 218.003906 C 114.457031 218.003906 113.625 217.574219 113.050781 216.714844 C 112.472656 215.851562 112.1875 214.601562 112.1875 212.964844 C 112.1875 211.324219 112.472656 210.074219 113.050781 209.214844 C 113.625 208.351562 114.457031 207.917969 115.542969 207.917969 Z M 115.542969 207.917969 "/>
<g clip-path="url(#clip2)" clip-rule="nonzero">
<path style="fill:none;stroke-width:0.8;stroke-linecap:square;stroke-linejoin:round;stroke:rgb(69.01961%,69.01961%,69.01961%);stroke-opacity:1;stroke-miterlimit:4;" d="M 115.133789 148.763672 L 115.133789 10.163086 " transform="matrix(1.333333,0,0,1.333333,0.000000000000028422,0)"/>
</g>
<path style="fill:none;stroke-width:0.8;stroke-linecap:butt;stroke-linejoin:round;stroke:rgb(0%,0%,0%);stroke-opacity:1;stroke-miterlimit:4;" d="M -0.00110626 0.000839233 L -0.00110626 3.498886 " transform="matrix(1.333333,0,0,1.333333,153.513194,198.350444)"/>
<path style=" stroke:none;fill-rule:nonzero;fill:rgb(0%,0%,0%);fill-opacity:1;" d="M 140.855469 213.082031 L 149.203125 213.082031 L 149.203125 214.1875 L 140.855469 214.1875 Z M 140.855469 213.082031 "/>
<path style=" stroke:none;fill-rule:nonzero;fill:rgb(0%,0%,0%);fill-opacity:1;" d="M 153.171875 216.707031 L 157.761719 216.707031 L 157.761719 217.816406 L 151.59375 217.816406 L 151.59375 216.707031 C 152.089844 216.191406 152.769531 215.5 153.632812 214.628906 C 154.496094 213.757812 155.035156 213.195312 155.257812 212.945312 C 155.679688 212.472656 155.972656 212.070312 156.136719 211.746094 C 156.304688 211.417969 156.390625 211.09375 156.390625 210.777344 C 156.390625 210.261719 156.210938 209.839844 155.847656 209.515625 C 155.484375 209.1875 155.011719 209.027344 154.429688 209.027344 C 154.015625 209.027344 153.582031 209.097656 153.125 209.238281 C 152.667969 209.382812 152.179688 209.601562 151.65625 209.890625 L 151.65625 208.5625 C 152.1875 208.351562 152.679688 208.191406 153.140625 208.082031 C 153.601562 207.972656 154.023438 207.917969 154.40625 207.917969 C 155.410156 207.917969 156.214844 208.171875 156.8125 208.675781 C 157.410156 209.179688 157.710938 209.851562 157.710938 210.691406 C 157.710938 211.09375 157.636719 211.472656 157.484375 211.828125 C 157.335938 212.1875 157.066406 212.609375 156.667969 213.09375 C 156.5625 213.21875 156.214844 213.585938 155.632812 214.1875 C 155.054688 214.789062 154.234375 215.628906 153.171875 216.707031 Z M 153.171875 216.707031 "/>
<path style=" stroke:none;fill-rule:nonzero;fill:rgb(0%,0%,0%);fill-opacity:1;" d="M 160.539062 208.09375 L 165.699219 208.09375 L 165.699219 209.203125 L 161.742188 209.203125 L 161.742188 211.582031 C 161.933594 211.519531 162.121094 211.46875 162.3125 211.4375 C 162.503906 211.40625 162.695312 211.390625 162.886719 211.390625 C 163.972656 211.390625 164.832031 211.6875 165.464844 212.28125 C 166.101562 212.875 166.417969 213.679688 166.417969 214.695312 C 166.417969 215.742188 166.089844 216.554688 165.441406 217.136719 C 164.789062 217.714844 163.871094 218.003906 162.6875 218.003906 C 162.277344 218.003906 161.863281 217.96875 161.4375 217.902344 C 161.015625 217.832031 160.578125 217.726562 160.128906 217.589844 L 160.128906 216.265625 C 160.519531 216.476562 160.921875 216.636719 161.339844 216.738281 C 161.753906 216.84375 162.195312 216.894531 162.660156 216.894531 C 163.410156 216.894531 164.003906 216.699219 164.441406 216.304688 C 164.882812 215.910156 165.101562 215.375 165.101562 214.695312 C 165.101562 214.019531 164.882812 213.484375 164.441406 213.089844 C 164.003906 212.695312 163.410156 212.496094 162.660156 212.496094 C 162.308594 212.496094 161.957031 212.535156 161.605469 212.613281 C 161.257812 212.691406 160.902344 212.8125 160.539062 212.976562 Z M 160.539062 208.09375 "/>
<g clip-path="url(#clip3)" clip-rule="nonzero">
<path style="fill:none;stroke-width:0.8;stroke-linecap:square;stroke-linejoin:round;stroke:rgb(69.01961%,69.01961%,69.01961%);stroke-opacity:1;stroke-miterlimit:4;" d="M 150.978516 148.763672 L 150.978516 10.163086 " transform="matrix(1.333333,0,0,1.333333,0.000000000000028422,0)"/>
</g>
<path style="fill:none;stroke-width:0.8;stroke-linecap:butt;stroke-linejoin:round;stroke:rgb(0%,0%,0%);stroke-opacity:1;stroke-miterlimit:4;" d="M 0.000396729 0.000839233 L 0.000396729 3.498886 " transform="matrix(1.333333,0,0,1.333333,201.304159,198.350444)"/>
<path style=" stroke:none;fill-rule:nonzero;fill:rgb(0%,0%,0%);fill-opacity:1;" d="M 201.300781 208.960938 C 200.625 208.960938 200.113281 209.292969 199.773438 209.960938 C 199.433594 210.625 199.261719 211.628906 199.261719 212.964844 C 199.261719 214.296875 199.433594 215.296875 199.773438 215.964844 C 200.113281 216.628906 200.625 216.964844 201.300781 216.964844 C 201.980469 216.964844 202.492188 216.628906 202.832031 215.964844 C 203.175781 215.296875 203.347656 214.296875 203.347656 212.964844 C 203.347656 211.628906 203.175781 210.625 202.832031 209.960938 C 202.492188 209.292969 201.980469 208.960938 201.300781 208.960938 Z M 201.300781 207.917969 C 202.390625 207.917969 203.222656 208.351562 203.796875 209.214844 C 204.371094 210.074219 204.660156 211.324219 204.660156 212.964844 C 204.660156 214.601562 204.371094 215.851562 203.796875 216.714844 C 203.222656 217.574219 202.390625 218.003906 201.300781 218.003906 C 200.210938 218.003906 199.378906 217.574219 198.804688 216.714844 C 198.230469 215.851562 197.941406 214.601562 197.941406 212.964844 C 197.941406 211.324219 198.230469 210.074219 198.804688 209.214844 C 199.378906 208.351562 200.210938 207.917969 201.300781 207.917969 Z M 201.300781 207.917969 "/>
<g clip-path="url(#clip4)" clip-rule="nonzero">
<path style="fill:none;stroke-width:0.8;stroke-linecap:square;stroke-linejoin:round;stroke:rgb(69.01961%,69.01961%,69.01961%);stroke-opacity:1;stroke-miterlimit:4;" d="M 186.820312 148.763672 L 186.820312 10.163086 " transform="matrix(1.333333,0,0,1.333333,0.000000000000028422,0)"/>
</g>
<path style="fill:none;stroke-width:0.8;stroke-linecap:butt;stroke-linejoin:round;stroke:rgb(0%,0%,0%);stroke-opacity:1;stroke-miterlimit:4;" d="M -0.0010376 0.000839233 L -0.0010376 3.498886 " transform="matrix(1.333333,0,0,1.333333,249.095133,198.350444)"/>
<path style=" stroke:none;fill-rule:nonzero;fill:rgb(0%,0%,0%);fill-opacity:1;" d="M 243.171875 216.707031 L 247.757812 216.707031 L 247.757812 217.816406 L 241.589844 217.816406 L 241.589844 216.707031 C 242.085938 216.191406 242.765625 215.5 243.628906 214.628906 C 244.492188 213.757812 245.03125 213.195312 245.253906 212.945312 C 245.675781 212.472656 245.96875 212.070312 246.132812 211.746094 C 246.304688 211.417969 246.386719 211.09375 246.386719 210.777344 C 246.386719 210.261719 246.207031 209.839844 245.84375 209.515625 C 245.480469 209.1875 245.007812 209.027344 244.425781 209.027344 C 244.015625 209.027344 243.578125 209.097656 243.121094 209.238281 C 242.664062 209.382812 242.175781 209.601562 241.652344 209.890625 L 241.652344 208.5625 C 242.183594 208.351562 242.675781 208.191406 243.136719 208.082031 C 243.597656 207.972656 244.019531 207.917969 244.402344 207.917969 C 245.410156 207.917969 246.210938 208.171875 246.808594 208.675781 C 247.410156 209.179688 247.707031 209.851562 247.707031 210.691406 C 247.707031 211.09375 247.632812 211.472656 247.484375 211.828125 C 247.335938 212.1875 247.0625 212.609375 246.664062 213.09375 C 246.558594 213.21875 246.210938 213.585938 245.628906 214.1875 C 245.050781 214.789062 244.230469 215.628906 243.171875 216.707031 Z M 243.171875 216.707031 "/>
<path style=" stroke:none;fill-rule:nonzero;fill:rgb(0%,0%,0%);fill-opacity:1;" d="M 250.535156 208.09375 L 255.695312 208.09375 L 255.695312 209.203125 L 251.738281 209.203125 L 251.738281 211.582031 C 251.929688 211.519531 252.121094 211.46875 252.308594 211.4375 C 252.5 211.40625 252.691406 211.390625 252.882812 211.390625 C 253.96875 211.390625 254.828125 211.6875 255.460938 212.28125 C 256.097656 212.875 256.414062 213.679688 256.414062 214.695312 C 256.414062 215.742188 256.089844 216.554688 255.4375 217.136719 C 254.785156 217.714844 253.867188 218.003906 252.683594 218.003906 C 252.273438 218.003906 251.859375 217.96875 251.433594 217.902344 C 251.011719 217.832031 250.574219 217.726562 250.125 217.589844 L 250.125 216.265625 C 250.515625 216.476562 250.917969 216.636719 251.335938 216.738281 C 251.75 216.84375 252.191406 216.894531 252.65625 216.894531 C 253.40625 216.894531 254 216.699219 254.4375 216.304688 C 254.878906 215.910156 255.097656 215.375 255.097656 214.695312 C 255.097656 214.019531 254.878906 213.484375 254.4375 213.089844 C 254 212.695312 253.40625 212.496094 252.65625 212.496094 C 252.304688 212.496094 251.953125 212.535156 251.601562 212.613281 C 251.253906 212.691406 250.898438 212.8125 250.535156 212.976562 Z M 250.535156 208.09375 "/>
<g clip-path="url(#clip5)" clip-rule="nonzero">
<path style="fill:none;stroke-width:0.8;stroke-linecap:square;stroke-linejoin:round;stroke:rgb(69.01961%,69.01961%,69.01961%);stroke-opacity:1;stroke-miterlimit:4;" d="M 222.665039 148.763672 L 222.665039 10.163086 " transform="matrix(1.333333,0,0,1.333333,0.000000000000028422,0)"/>
</g>
<path style="fill:none;stroke-width:0.8;stroke-linecap:butt;stroke-linejoin:round;stroke:rgb(0%,0%,0%);stroke-opacity:1;stroke-miterlimit:4;" d="M 0.000457764 0.000839233 L 0.000457764 3.498886 " transform="matrix(1.333333,0,0,1.333333,296.886108,198.350444)"/>
<path style=" stroke:none;fill-rule:nonzero;fill:rgb(0%,0%,0%);fill-opacity:1;" d="M 289.84375 208.09375 L 295.003906 208.09375 L 295.003906 209.203125 L 291.046875 209.203125 L 291.046875 211.582031 C 291.238281 211.519531 291.425781 211.46875 291.617188 211.4375 C 291.808594 211.40625 292 211.390625 292.191406 211.390625 C 293.277344 211.390625 294.136719 211.6875 294.769531 212.28125 C 295.402344 212.875 295.722656 213.679688 295.722656 214.695312 C 295.722656 215.742188 295.394531 216.554688 294.746094 217.136719 C 294.09375 217.714844 293.175781 218.003906 291.992188 218.003906 C 291.582031 218.003906 291.164062 217.96875 290.742188 217.902344 C 290.320312 217.832031 289.882812 217.726562 289.433594 217.589844 L 289.433594 216.265625 C 289.820312 216.476562 290.226562 216.636719 290.640625 216.738281 C 291.058594 216.84375 291.5 216.894531 291.964844 216.894531 C 292.714844 216.894531 293.308594 216.699219 293.746094 216.304688 C 294.183594 215.910156 294.40625 215.375 294.40625 214.695312 C 294.40625 214.019531 294.183594 213.484375 293.746094 213.089844 C 293.308594 212.695312 292.714844 212.496094 291.964844 212.496094 C 291.613281 212.496094 291.261719 212.535156 290.910156 212.613281 C 290.5625 212.691406 290.207031 212.8125 289.84375 212.976562 Z M 289.84375 208.09375 "/>
<path style=" stroke:none;fill-rule:nonzero;fill:rgb(0%,0%,0%);fill-opacity:1;" d="M 301.125 208.960938 C 300.445312 208.960938 299.9375 209.292969 299.597656 209.960938 C 299.257812 210.625 299.085938 211.628906 299.085938 212.964844 C 299.085938 214.296875 299.257812 215.296875 299.597656 215.964844 C 299.9375 216.628906 300.445312 216.964844 301.125 216.964844 C 301.804688 216.964844 302.316406 216.628906 302.65625 215.964844 C 303 215.296875 303.167969 214.296875 303.167969 212.964844 C 303.167969 211.628906 303 210.625 302.65625 209.960938 C 302.316406 209.292969 301.804688 208.960938 301.125 208.960938 Z M 301.125 207.917969 C 302.214844 207.917969 303.046875 208.351562 303.621094 209.214844 C 304.195312 210.074219 304.484375 211.324219 304.484375 212.964844 C 304.484375 214.601562 304.195312 215.851562 303.621094 216.714844 C 303.046875 217.574219 302.214844 218.003906 301.125 218.003906 C 300.035156 218.003906 299.203125 217.574219 298.628906 216.714844 C 298.050781 215.851562 297.765625 214.601562 297.765625 212.964844 C 297.765625 211.324219 298.050781 210.074219 298.628906 209.214844 C 299.203125 208.351562 300.035156 207.917969 301.125 207.917969 Z M 301.125 207.917969 "/>
<path style=" stroke:none;fill-rule:nonzero;fill:rgb(0%,0%,0%);fill-opacity:1;" d="M 204.675781 228.761719 L 202.039062 232.308594 L 204.8125 236.050781 L 203.398438 236.050781 L 201.277344 233.1875 L 199.15625 236.050781 L 197.742188 236.050781 L 200.574219 232.238281 L 197.984375 228.761719 L 199.394531 228.761719 L 201.328125 231.359375 L 203.261719 228.761719 Z M 204.675781 228.761719 "/>
<g clip-path="url(#clip6)" clip-rule="nonzero">
<path style="fill:none;stroke-width:0.8;stroke-linecap:square;stroke-linejoin:round;stroke:rgb(69.01961%,69.01961%,69.01961%);stroke-opacity:1;stroke-miterlimit:4;" d="M 53.329102 142.461914 L 248.62793 142.461914 " transform="matrix(1.333333,0,0,1.333333,0.000000000000028422,0)"/>
</g>
<path style="fill:none;stroke-width:0.8;stroke-linecap:butt;stroke-linejoin:round;stroke:rgb(0%,0%,0%);stroke-opacity:1;stroke-miterlimit:4;" d="M 0.000976562 -0.000930786 L -3.5 -0.000930786 " transform="matrix(1.333333,0,0,1.333333,71.104167,189.95046)"/>
<path style=" stroke:none;fill-rule:nonzero;fill:rgb(0%,0%,0%);fill-opacity:1;" d="M 57.523438 186.160156 C 56.847656 186.160156 56.339844 186.496094 55.996094 187.160156 C 55.65625 187.828125 55.488281 188.828125 55.488281 190.167969 C 55.488281 191.496094 55.65625 192.496094 55.996094 193.164062 C 56.339844 193.832031 56.847656 194.164062 57.523438 194.164062 C 58.207031 194.164062 58.71875 193.832031 59.058594 193.164062 C 59.398438 192.496094 59.570312 191.496094 59.570312 190.167969 C 59.570312 188.828125 59.398438 187.828125 59.058594 187.160156 C 58.71875 186.496094 58.207031 186.160156 57.523438 186.160156 Z M 57.523438 185.121094 C 58.617188 185.121094 59.449219 185.550781 60.023438 186.414062 C 60.597656 187.273438 60.886719 188.527344 60.886719 190.167969 C 60.886719 191.800781 60.597656 193.050781 60.023438 193.914062 C 59.449219 194.773438 58.617188 195.207031 57.523438 195.207031 C 56.4375 195.207031 55.605469 194.773438 55.027344 193.914062 C 54.453125 193.050781 54.167969 191.800781 54.167969 190.167969 C 54.167969 188.527344 54.453125 187.273438 55.027344 186.414062 C 55.605469 185.550781 56.4375 185.121094 57.523438 185.121094 Z M 57.523438 185.121094 "/>
<g clip-path="url(#clip7)" clip-rule="nonzero">
<path style="fill:none;stroke-width:0.8;stroke-linecap:square;stroke-linejoin:round;stroke:rgb(69.01961%,69.01961%,69.01961%);stroke-opacity:1;stroke-miterlimit:4;" d="M 53.329102 109.59668 L 248.62793 109.59668 " transform="matrix(1.333333,0,0,1.333333,0.000000000000028422,0)"/>
</g>
<path style="fill:none;stroke-width:0.8;stroke-linecap:butt;stroke-linejoin:round;stroke:rgb(0%,0%,0%);stroke-opacity:1;stroke-miterlimit:4;" d="M 0.000976562 -0.00025177 L -3.5 -0.00025177 " transform="matrix(1.333333,0,0,1.333333,71.104167,146.129242)"/>
<path style=" stroke:none;fill-rule:nonzero;fill:rgb(0%,0%,0%);fill-opacity:1;" d="M 29.492188 150.089844 L 31.640625 150.089844 L 31.640625 142.671875 L 29.300781 143.140625 L 29.300781 141.941406 L 31.628906 141.472656 L 32.941406 141.472656 L 32.941406 150.089844 L 35.089844 150.089844 L 35.089844 151.195312 L 29.492188 151.195312 Z M 29.492188 150.089844 "/>
<path style=" stroke:none;fill-rule:nonzero;fill:rgb(0%,0%,0%);fill-opacity:1;" d="M 40.558594 142.339844 C 39.882812 142.339844 39.371094 142.675781 39.03125 143.339844 C 38.691406 144.007812 38.519531 145.007812 38.519531 146.34375 C 38.519531 147.675781 38.691406 148.675781 39.03125 149.34375 C 39.371094 150.007812 39.882812 150.34375 40.558594 150.34375 C 41.238281 150.34375 41.75 150.007812 42.089844 149.34375 C 42.433594 148.675781 42.605469 147.675781 42.605469 146.34375 C 42.605469 145.007812 42.433594 144.007812 42.089844 143.339844 C 41.75 142.675781 41.238281 142.339844 40.558594 142.339844 Z M 40.558594 141.300781 C 41.648438 141.300781 42.480469 141.730469 43.054688 142.59375 C 43.632812 143.453125 43.917969 144.703125 43.917969 146.34375 C 43.917969 147.980469 43.632812 149.230469 43.054688 150.09375 C 42.480469 150.953125 41.648438 151.382812 40.558594 151.382812 C 39.46875 151.382812 38.636719 150.953125 38.0625 150.09375 C 37.488281 149.230469 37.199219 147.980469 37.199219 146.34375 C 37.199219 144.703125 37.488281 143.453125 38.0625 142.59375 C 38.636719 141.730469 39.46875 141.300781 40.558594 141.300781 Z M 40.558594 141.300781 "/>
<path style=" stroke:none;fill-rule:nonzero;fill:rgb(0%,0%,0%);fill-opacity:1;" d="M 49.042969 142.339844 C 48.363281 142.339844 47.855469 142.675781 47.515625 143.339844 C 47.171875 144.007812 47.003906 145.007812 47.003906 146.34375 C 47.003906 147.675781 47.171875 148.675781 47.515625 149.34375 C 47.855469 150.007812 48.363281 150.34375 49.042969 150.34375 C 49.722656 150.34375 50.234375 150.007812 50.574219 149.34375 C 50.917969 148.675781 51.085938 147.675781 51.085938 146.34375 C 51.085938 145.007812 50.917969 144.007812 50.574219 143.339844 C 50.234375 142.675781 49.722656 142.339844 49.042969 142.339844 Z M 49.042969 141.300781 C 50.132812 141.300781 50.964844 141.730469 51.539062 142.59375 C 52.113281 143.453125 52.402344 144.703125 52.402344 146.34375 C 52.402344 147.980469 52.113281 149.230469 51.539062 150.09375 C 50.964844 150.953125 50.132812 151.382812 49.042969 151.382812 C 47.953125 151.382812 47.121094 150.953125 46.546875 150.09375 C 45.96875 149.230469 45.683594 147.980469 45.683594 146.34375 C 45.683594 144.703125 45.96875 143.453125 46.546875 142.59375 C 47.121094 141.730469 47.953125 141.300781 49.042969 141.300781 Z M 49.042969 141.300781 "/>
<path style=" stroke:none;fill-rule:nonzero;fill:rgb(0%,0%,0%);fill-opacity:1;" d="M 57.523438 142.339844 C 56.847656 142.339844 56.339844 142.675781 55.996094 143.339844 C 55.65625 144.007812 55.488281 145.007812 55.488281 146.34375 C 55.488281 147.675781 55.65625 148.675781 55.996094 149.34375 C 56.339844 150.007812 56.847656 150.34375 57.523438 150.34375 C 58.207031 150.34375 58.71875 150.007812 59.058594 149.34375 C 59.398438 148.675781 59.570312 147.675781 59.570312 146.34375 C 59.570312 145.007812 59.398438 144.007812 59.058594 143.339844 C 58.71875 142.675781 58.207031 142.339844 57.523438 142.339844 Z M 57.523438 141.300781 C 58.613281 141.300781 59.445312 141.730469 60.023438 142.59375 C 60.597656 143.453125 60.882812 144.703125 60.882812 146.34375 C 60.882812 147.980469 60.597656 149.230469 60.023438 150.09375 C 59.445312 150.953125 58.613281 151.382812 57.523438 151.382812 C 56.433594 151.382812 55.601562 150.953125 55.027344 150.09375 C 54.453125 149.230469 54.164062 147.980469 54.164062 146.34375 C 54.164062 144.703125 54.453125 143.453125 55.027344 142.59375 C 55.601562 141.730469 56.433594 141.300781 57.523438 141.300781 Z M 57.523438 141.300781 "/>
<g clip-path="url(#clip8)" clip-rule="nonzero">
<path style="fill:none;stroke-width:0.8;stroke-linecap:square;stroke-linejoin:round;stroke:rgb(69.01961%,69.01961%,69.01961%);stroke-opacity:1;stroke-miterlimit:4;" d="M 53.329102 76.731445 L 248.62793 76.731445 " transform="matrix(1.333333,0,0,1.333333,0.000000000000028422,0)"/>
</g>
<path style="fill:none;stroke-width:0.8;stroke-linecap:butt;stroke-linejoin:round;stroke:rgb(0%,0%,0%);stroke-opacity:1;stroke-miterlimit:4;" d="M 0.000976562 0.000419617 L -3.5 0.000419617 " transform="matrix(1.333333,0,0,1.333333,71.104167,102.308034)"/>
<path style=" stroke:none;fill-rule:nonzero;fill:rgb(0%,0%,0%);fill-opacity:1;" d="M 30.394531 106.265625 L 34.984375 106.265625 L 34.984375 107.375 L 28.816406 107.375 L 28.816406 106.265625 C 29.3125 105.75 29.992188 105.058594 30.855469 104.1875 C 31.714844 103.316406 32.257812 102.753906 32.480469 102.503906 C 32.898438 102.03125 33.195312 101.628906 33.359375 101.304688 C 33.527344 100.976562 33.613281 100.652344 33.613281 100.335938 C 33.613281 99.820312 33.429688 99.398438 33.070312 99.074219 C 32.707031 98.746094 32.234375 98.585938 31.652344 98.585938 C 31.238281 98.585938 30.804688 98.65625 30.347656 98.796875 C 29.890625 98.941406 29.398438 99.160156 28.878906 99.449219 L 28.878906 98.121094 C 29.410156 97.910156 29.902344 97.75 30.363281 97.640625 C 30.824219 97.53125 31.246094 97.476562 31.628906 97.476562 C 32.632812 97.476562 33.4375 97.730469 34.035156 98.234375 C 34.632812 98.738281 34.933594 99.410156 34.933594 100.25 C 34.933594 100.652344 34.859375 101.03125 34.707031 101.386719 C 34.558594 101.746094 34.289062 102.167969 33.890625 102.652344 C 33.785156 102.777344 33.4375 103.144531 32.855469 103.746094 C 32.277344 104.347656 31.457031 105.1875 30.394531 106.265625 Z M 30.394531 106.265625 "/>
<path style=" stroke:none;fill-rule:nonzero;fill:rgb(0%,0%,0%);fill-opacity:1;" d="M 40.558594 98.519531 C 39.882812 98.519531 39.371094 98.851562 39.03125 99.519531 C 38.691406 100.183594 38.519531 101.1875 38.519531 102.523438 C 38.519531 103.855469 38.691406 104.855469 39.03125 105.523438 C 39.371094 106.1875 39.882812 106.523438 40.558594 106.523438 C 41.238281 106.523438 41.75 106.1875 42.089844 105.523438 C 42.433594 104.855469 42.605469 103.855469 42.605469 102.523438 C 42.605469 101.1875 42.433594 100.183594 42.089844 99.519531 C 41.75 98.851562 41.238281 98.519531 40.558594 98.519531 Z M 40.558594 97.476562 C 41.648438 97.476562 42.480469 97.910156 43.054688 98.773438 C 43.632812 99.632812 43.917969 100.882812 43.917969 102.523438 C 43.917969 104.160156 43.632812 105.410156 43.054688 106.273438 C 42.480469 107.132812 41.648438 107.5625 40.558594 107.5625 C 39.46875 107.5625 38.636719 107.132812 38.0625 106.273438 C 37.488281 105.410156 37.199219 104.160156 37.199219 102.523438 C 37.199219 100.882812 37.488281 99.632812 38.0625 98.773438 C 38.636719 97.910156 39.46875 97.476562 40.558594 97.476562 Z M 40.558594 97.476562 "/>
<path style=" stroke:none;fill-rule:nonzero;fill:rgb(0%,0%,0%);fill-opacity:1;" d="M 49.042969 98.519531 C 48.363281 98.519531 47.855469 98.851562 47.515625 99.519531 C 47.171875 100.183594 47.003906 101.1875 47.003906 102.523438 C 47.003906 103.855469 47.171875 104.855469 47.515625 105.523438 C 47.855469 106.1875 48.363281 106.523438 49.042969 106.523438 C 49.722656 106.523438 50.234375 106.1875 50.574219 105.523438 C 50.917969 104.855469 51.085938 103.855469 51.085938 102.523438 C 51.085938 101.1875 50.917969 100.183594 50.574219 99.519531 C 50.234375 98.851562 49.722656 98.519531 49.042969 98.519531 Z M 49.042969 97.476562 C 50.132812 97.476562 50.964844 97.910156 51.539062 98.773438 C 52.113281 99.632812 52.402344 100.882812 52.402344 102.523438 C 52.402344 104.160156 52.113281 105.410156 51.539062 106.273438 C 50.964844 107.132812 50.132812 107.5625 49.042969 107.5625 C 47.953125 107.5625 47.121094 107.132812 46.546875 106.273438 C 45.96875 105.410156 45.683594 104.160156 45.683594 102.523438 C 45.683594 100.882812 45.96875 99.632812 46.546875 98.773438 C 47.121094 97.910156 47.953125 97.476562 49.042969 97.476562 Z M 49.042969 97.476562 "/>
<path style=" stroke:none;fill-rule:nonzero;fill:rgb(0%,0%,0%);fill-opacity:1;" d="M 57.523438 98.519531 C 56.847656 98.519531 56.339844 98.851562 55.996094 99.519531 C 55.65625 100.183594 55.488281 101.1875 55.488281 102.523438 C 55.488281 103.855469 55.65625 104.855469 55.996094 105.523438 C 56.339844 106.1875 56.847656 106.523438 57.523438 106.523438 C 58.207031 106.523438 58.71875 106.1875 59.058594 105.523438 C 59.398438 104.855469 59.570312 103.855469 59.570312 102.523438 C 59.570312 101.1875 59.398438 100.183594 59.058594 99.519531 C 58.71875 98.851562 58.207031 98.519531 57.523438 98.519531 Z M 57.523438 97.476562 C 58.613281 97.476562 59.445312 97.910156 60.023438 98.773438 C 60.597656 99.632812 60.882812 100.882812 60.882812 102.523438 C 60.882812 104.160156 60.597656 105.410156 60.023438 106.273438 C 59.445312 107.132812 58.613281 107.5625 57.523438 107.5625 C 56.433594 107.5625 55.601562 107.132812 55.027344 106.273438 C 54.453125 105.410156 54.164062 104.160156 54.164062 102.523438 C 54.164062 100.882812 54.453125 99.632812 55.027344 98.773438 C 55.601562 97.910156 56.433594 97.476562 57.523438 97.476562 Z M 57.523438 97.476562 "/>
<g clip-path="url(#clip9)" clip-rule="nonzero">
<path style="fill:none;stroke-width:0.8;stroke-linecap:square;stroke-linejoin:round;stroke:rgb(69.01961%,69.01961%,69.01961%);stroke-opacity:1;stroke-miterlimit:4;" d="M 53.329102 43.866211 L 248.62793 43.866211 " transform="matrix(1.333333,0,0,1.333333,0.000000000000028422,0)"/>
</g>
<path style="fill:none;stroke-width:0.8;stroke-linecap:butt;stroke-linejoin:round;stroke:rgb(0%,0%,0%);stroke-opacity:1;stroke-miterlimit:4;" d="M 0.000976562 0.00108719 L -3.5 0.00108719 " transform="matrix(1.333333,0,0,1.333333,71.104167,58.486832)"/>
<path style=" stroke:none;fill-rule:nonzero;fill:rgb(0%,0%,0%);fill-opacity:1;" d="M 33.246094 58.3125 C 33.878906 58.445312 34.367188 58.726562 34.722656 59.152344 C 35.074219 59.578125 35.253906 60.101562 35.253906 60.726562 C 35.253906 61.6875 34.921875 62.429688 34.261719 62.953125 C 33.601562 63.480469 32.664062 63.742188 31.449219 63.742188 C 31.042969 63.742188 30.625 63.703125 30.191406 63.621094 C 29.757812 63.539062 29.3125 63.417969 28.855469 63.257812 L 28.855469 61.988281 C 29.21875 62.203125 29.617188 62.363281 30.050781 62.472656 C 30.484375 62.578125 30.9375 62.632812 31.414062 62.632812 C 32.234375 62.632812 32.863281 62.472656 33.296875 62.144531 C 33.726562 61.820312 33.945312 61.347656 33.945312 60.726562 C 33.945312 60.152344 33.742188 59.707031 33.339844 59.382812 C 32.941406 59.058594 32.382812 58.898438 31.667969 58.898438 L 30.535156 58.898438 L 30.535156 57.816406 L 31.71875 57.816406 C 32.363281 57.816406 32.859375 57.6875 33.203125 57.429688 C 33.546875 57.171875 33.714844 56.800781 33.714844 56.3125 C 33.714844 55.8125 33.539062 55.429688 33.183594 55.164062 C 32.832031 54.898438 32.328125 54.761719 31.667969 54.761719 C 31.304688 54.761719 30.917969 54.800781 30.507812 54.882812 C 30.09375 54.960938 29.640625 55.082031 29.144531 55.242188 L 29.144531 54.074219 C 29.644531 53.933594 30.113281 53.832031 30.550781 53.761719 C 30.984375 53.691406 31.398438 53.65625 31.785156 53.65625 C 32.78125 53.65625 33.570312 53.882812 34.152344 54.335938 C 34.734375 54.789062 35.023438 55.402344 35.023438 56.175781 C 35.023438 56.714844 34.871094 57.167969 34.5625 57.539062 C 34.253906 57.910156 33.816406 58.167969 33.246094 58.3125 Z M 33.246094 58.3125 "/>
<path style=" stroke:none;fill-rule:nonzero;fill:rgb(0%,0%,0%);fill-opacity:1;" d="M 40.558594 54.699219 C 39.882812 54.699219 39.371094 55.03125 39.03125 55.699219 C 38.691406 56.363281 38.519531 57.363281 38.519531 58.703125 C 38.519531 60.035156 38.691406 61.035156 39.03125 61.699219 C 39.371094 62.367188 39.882812 62.699219 40.558594 62.699219 C 41.238281 62.699219 41.75 62.367188 42.089844 61.699219 C 42.433594 61.035156 42.605469 60.035156 42.605469 58.703125 C 42.605469 57.363281 42.433594 56.363281 42.089844 55.699219 C 41.75 55.03125 41.238281 54.699219 40.558594 54.699219 Z M 40.558594 53.65625 C 41.648438 53.65625 42.480469 54.085938 43.054688 54.949219 C 43.632812 55.8125 43.917969 57.0625 43.917969 58.703125 C 43.917969 60.339844 43.632812 61.585938 43.054688 62.449219 C 42.480469 63.3125 41.648438 63.742188 40.558594 63.742188 C 39.46875 63.742188 38.636719 63.3125 38.0625 62.449219 C 37.488281 61.585938 37.199219 60.339844 37.199219 58.703125 C 37.199219 57.0625 37.488281 55.8125 38.0625 54.949219 C 38.636719 54.085938 39.46875 53.65625 40.558594 53.65625 Z M 40.558594 53.65625 "/>
<path style=" stroke:none;fill-rule:nonzero;fill:rgb(0%,0%,0%);fill-opacity:1;" d="M 49.042969 54.699219 C 48.363281 54.699219 47.855469 55.03125 47.515625 55.699219 C 47.171875 56.363281 47.003906 57.363281 47.003906 58.703125 C 47.003906 60.035156 47.171875 61.035156 47.515625 61.699219 C 47.855469 62.367188 48.363281 62.699219 49.042969 62.699219 C 49.722656 62.699219 50.234375 62.367188 50.574219 61.699219 C 50.917969 61.035156 51.085938 60.035156 51.085938 58.703125 C 51.085938 57.363281 50.917969 56.363281 50.574219 55.699219 C 50.234375 55.03125 49.722656 54.699219 49.042969 54.699219 Z M 49.042969 53.65625 C 50.132812 53.65625 50.964844 54.085938 51.539062 54.949219 C 52.113281 55.8125 52.402344 57.0625 52.402344 58.703125 C 52.402344 60.339844 52.113281 61.585938 51.539062 62.449219 C 50.964844 63.3125 50.132812 63.742188 49.042969 63.742188 C 47.953125 63.742188 47.121094 63.3125 46.546875 62.449219 C 45.96875 61.585938 45.683594 60.339844 45.683594 58.703125 C 45.683594 57.0625 45.96875 55.8125 46.546875 54.949219 C 47.121094 54.085938 47.953125 53.65625 49.042969 53.65625 Z M 49.042969 53.65625 "/>
<path style=" stroke:none;fill-rule:nonzero;fill:rgb(0%,0%,0%);fill-opacity:1;" d="M 57.523438 54.699219 C 56.847656 54.699219 56.339844 55.03125 55.996094 55.699219 C 55.65625 56.363281 55.488281 57.363281 55.488281 58.703125 C 55.488281 60.035156 55.65625 61.035156 55.996094 61.699219 C 56.339844 62.367188 56.847656 62.699219 57.523438 62.699219 C 58.207031 62.699219 58.71875 62.367188 59.058594 61.699219 C 59.398438 61.035156 59.570312 60.035156 59.570312 58.703125 C 59.570312 57.363281 59.398438 56.363281 59.058594 55.699219 C 58.71875 55.03125 58.207031 54.699219 57.523438 54.699219 Z M 57.523438 53.65625 C 58.613281 53.65625 59.445312 54.085938 60.023438 54.949219 C 60.597656 55.8125 60.882812 57.0625 60.882812 58.703125 C 60.882812 60.339844 60.597656 61.585938 60.023438 62.449219 C 59.445312 63.3125 58.613281 63.742188 57.523438 63.742188 C 56.433594 63.742188 55.601562 63.3125 55.027344 62.449219 C 54.453125 61.585938 54.164062 60.339844 54.164062 58.703125 C 54.164062 57.0625 54.453125 55.8125 55.027344 54.949219 C 55.601562 54.085938 56.433594 53.65625 57.523438 53.65625 Z M 57.523438 53.65625 "/>
<g clip-path="url(#clip10)" clip-rule="nonzero">
<path style="fill:none;stroke-width:0.8;stroke-linecap:square;stroke-linejoin:round;stroke:rgb(69.01961%,69.01961%,69.01961%);stroke-opacity:1;stroke-miterlimit:4;" d="M 53.329102 10.998047 L 248.62793 10.998047 " transform="matrix(1.333333,0,0,1.333333,0.000000000000028422,0)"/>
</g>
<path style="fill:none;stroke-width:0.8;stroke-linecap:butt;stroke-linejoin:round;stroke:rgb(0%,0%,0%);stroke-opacity:1;stroke-miterlimit:4;" d="M 0.000976562 -0.00117207 L -3.5 -0.00117207 " transform="matrix(1.333333,0,0,1.333333,71.104167,14.665625)"/>
<path style=" stroke:none;fill-rule:nonzero;fill:rgb(0%,0%,0%);fill-opacity:1;" d="M 32.878906 11.15625 L 29.554688 16.347656 L 32.878906 16.347656 Z M 32.53125 10.011719 L 34.183594 10.011719 L 34.183594 16.347656 L 35.574219 16.347656 L 35.574219 17.441406 L 34.183594 17.441406 L 34.183594 19.730469 L 32.878906 19.730469 L 32.878906 17.441406 L 28.488281 17.441406 L 28.488281 16.171875 Z M 32.53125 10.011719 "/>
<path style=" stroke:none;fill-rule:nonzero;fill:rgb(0%,0%,0%);fill-opacity:1;" d="M 40.558594 10.878906 C 39.882812 10.878906 39.371094 11.210938 39.03125 11.878906 C 38.691406 12.542969 38.519531 13.542969 38.519531 14.882812 C 38.519531 16.214844 38.691406 17.210938 39.03125 17.878906 C 39.371094 18.546875 39.882812 18.878906 40.558594 18.878906 C 41.238281 18.878906 41.75 18.546875 42.089844 17.878906 C 42.433594 17.210938 42.605469 16.214844 42.605469 14.882812 C 42.605469 13.542969 42.433594 12.542969 42.089844 11.878906 C 41.75 11.210938 41.238281 10.878906 40.558594 10.878906 Z M 40.558594 9.835938 C 41.648438 9.835938 42.480469 10.265625 43.054688 11.128906 C 43.632812 11.992188 43.917969 13.242188 43.917969 14.882812 C 43.917969 16.515625 43.632812 17.765625 43.054688 18.628906 C 42.480469 19.492188 41.648438 19.921875 40.558594 19.921875 C 39.46875 19.921875 38.636719 19.492188 38.0625 18.628906 C 37.488281 17.765625 37.199219 16.515625 37.199219 14.882812 C 37.199219 13.242188 37.488281 11.992188 38.0625 11.128906 C 38.636719 10.265625 39.46875 9.835938 40.558594 9.835938 Z M 40.558594 9.835938 "/>
<path style=" stroke:none;fill-rule:nonzero;fill:rgb(0%,0%,0%);fill-opacity:1;" d="M 49.042969 10.878906 C 48.363281 10.878906 47.855469 11.210938 47.515625 11.878906 C 47.171875 12.542969 47.003906 13.542969 47.003906 14.882812 C 47.003906 16.214844 47.171875 17.210938 47.515625 17.878906 C 47.855469 18.546875 48.363281 18.878906 49.042969 18.878906 C 49.722656 18.878906 50.234375 18.546875 50.574219 17.878906 C 50.917969 17.210938 51.085938 16.214844 51.085938 14.882812 C 51.085938 13.542969 50.917969 12.542969 50.574219 11.878906 C 50.234375 11.210938 49.722656 10.878906 49.042969 10.878906 Z M 49.042969 9.835938 C 50.132812 9.835938 50.964844 10.265625 51.539062 11.128906 C 52.113281 11.992188 52.402344 13.242188 52.402344 14.882812 C 52.402344 16.515625 52.113281 17.765625 51.539062 18.628906 C 50.964844 19.492188 50.132812 19.921875 49.042969 19.921875 C 47.953125 19.921875 47.121094 19.492188 46.546875 18.628906 C 45.96875 17.765625 45.683594 16.515625 45.683594 14.882812 C 45.683594 13.242188 45.96875 11.992188 46.546875 11.128906 C 47.121094 10.265625 47.953125 9.835938 49.042969 9.835938 Z M 49.042969 9.835938 "/>
<path style=" stroke:none;fill-rule:nonzero;fill:rgb(0%,0%,0%);fill-opacity:1;" d="M 57.523438 10.878906 C 56.847656 10.878906 56.339844 11.210938 55.996094 11.878906 C 55.65625 12.542969 55.488281 13.542969 55.488281 14.882812 C 55.488281 16.214844 55.65625 17.210938 55.996094 17.878906 C 56.339844 18.546875 56.847656 18.878906 57.523438 18.878906 C 58.207031 18.878906 58.71875 18.546875 59.058594 17.878906 C 59.398438 17.210938 59.570312 16.214844 59.570312 14.882812 C 59.570312 13.542969 59.398438 12.542969 59.058594 11.878906 C 58.71875 11.210938 58.207031 10.878906 57.523438 10.878906 Z M 57.523438 9.835938 C 58.613281 9.835938 59.445312 10.265625 60.023438 11.128906 C 60.597656 11.992188 60.882812 13.242188 60.882812 14.882812 C 60.882812 16.515625 60.597656 17.765625 60.023438 18.628906 C 59.445312 19.492188 58.613281 19.921875 57.523438 19.921875 C 56.433594 19.921875 55.601562 19.492188 55.027344 18.628906 C 54.453125 17.765625 54.164062 16.515625 54.164062 14.882812 C 54.164062 13.242188 54.453125 11.992188 55.027344 11.128906 C 55.601562 10.265625 56.433594 9.835938 57.523438 9.835938 Z M 57.523438 9.835938 "/>
<path style=" stroke:none;fill-rule:nonzero;fill:rgb(0%,0%,0%);fill-opacity:1;" d="M 9.601562 112.496094 L 10.597656 112.496094 L 10.597656 113.644531 C 10.597656 114.074219 10.683594 114.371094 10.859375 114.539062 C 11.03125 114.707031 11.34375 114.789062 11.796875 114.789062 L 12.441406 114.789062 L 12.441406 112.816406 L 13.371094 112.816406 L 13.371094 114.789062 L 19.730469 114.789062 L 19.730469 115.992188 L 13.371094 115.992188 L 13.371094 117.140625 L 12.441406 117.140625 L 12.441406 115.992188 L 11.929688 115.992188 C 11.121094 115.992188 10.527344 115.804688 10.160156 115.425781 C 9.785156 115.046875 9.601562 114.449219 9.601562 113.628906 Z M 9.601562 112.496094 "/>
<path style=" stroke:none;fill-rule:nonzero;fill:rgb(0%,0%,0%);fill-opacity:1;" d="M 9.613281 108.617188 C 10.613281 109.199219 11.597656 109.628906 12.578125 109.914062 C 13.554688 110.195312 14.542969 110.335938 15.546875 110.335938 C 16.546875 110.335938 17.539062 110.195312 18.523438 109.910156 C 19.507812 109.625 20.496094 109.195312 21.488281 108.617188 L 21.488281 109.660156 C 20.46875 110.308594 19.464844 110.796875 18.480469 111.121094 C 17.496094 111.445312 16.519531 111.605469 15.546875 111.605469 C 14.578125 111.605469 13.601562 111.445312 12.621094 111.125 C 11.640625 110.800781 10.636719 110.3125 9.613281 109.660156 Z M 9.613281 108.617188 "/>
<path style=" stroke:none;fill-rule:nonzero;fill:rgb(0%,0%,0%);fill-opacity:1;" d="M 12.441406 100.230469 L 15.988281 102.867188 L 19.730469 100.09375 L 19.730469 101.507812 L 16.867188 103.628906 L 19.730469 105.75 L 19.730469 107.167969 L 15.917969 104.332031 L 12.441406 106.925781 L 12.441406 105.511719 L 15.039062 103.578125 L 12.441406 101.644531 Z M 12.441406 100.230469 "/>
<path style=" stroke:none;fill-rule:nonzero;fill:rgb(0%,0%,0%);fill-opacity:1;" d="M 9.613281 98.589844 L 9.613281 97.546875 C 10.636719 96.898438 11.640625 96.410156 12.621094 96.089844 C 13.601562 95.765625 14.578125 95.601562 15.546875 95.601562 C 16.519531 95.601562 17.496094 95.765625 18.480469 96.089844 C 19.464844 96.410156 20.46875 96.898438 21.488281 97.546875 L 21.488281 98.589844 C 20.496094 98.011719 19.507812 97.582031 18.523438 97.296875 C 17.539062 97.011719 16.546875 96.871094 15.546875 96.871094 C 14.542969 96.871094 13.554688 97.011719 12.578125 97.296875 C 11.597656 97.582031 10.613281 98.011719 9.613281 98.589844 Z M 9.613281 98.589844 "/>
<path style="fill:none;stroke-width:1.5;stroke-linecap:square;stroke-linejoin:round;stroke:rgb(12.156863%,46.666667%,70.588237%);stroke-opacity:1;stroke-miterlimit:4;" d="M 62.206055 16.461914 L 66.779297 29.112305 L 71.25293 40.836914 L 75.609375 51.644531 L 79.869141 61.617188 L 84.026367 70.792969 L 88.083984 79.21875 L 92.041992 86.926758 L 95.882812 93.931641 L 99.638672 100.324219 L 103.294922 106.110352 L 106.851562 111.331055 L 110.320312 116.033203 L 113.704102 120.249023 L 116.988281 123.990234 L 120.199219 127.31543 L 123.325195 130.236328 L 126.366211 132.776367 L 129.345703 134.982422 L 132.257812 136.860352 L 135.111328 138.436523 L 137.90625 139.731445 L 140.645508 140.756836 L 143.355469 141.533203 L 146.036133 142.072266 L 148.6875 142.379883 L 151.327148 142.461914 L 153.963867 142.321289 L 156.603516 141.958008 L 159.254883 141.366211 L 161.935547 140.542969 L 164.645508 139.476562 L 167.399414 138.152344 L 170.194336 136.558594 L 173.047852 134.674805 L 175.957031 132.486328 L 178.939453 129.960938 L 181.992187 127.083984 L 185.118164 123.826172 L 188.329102 120.155273 L 191.62793 116.041992 L 195.011719 111.462891 L 198.46582 106.40625 L 202.022461 100.804688 L 205.664062 94.646484 L 209.405273 87.878906 L 213.249023 80.463867 L 217.177734 72.395508 L 221.191406 63.638672 L 225.319336 54.09668 L 229.549805 43.754883 L 233.894531 32.540039 L 238.338867 20.4375 L 239.745117 16.482422 " transform="matrix(1.333333,0,0,1.333333,0.000000000000028422,0)"/>
<path style="fill:none;stroke-width:1.5;stroke-linecap:square;stroke-linejoin:round;stroke:rgb(100%,49.803922%,5.490196%);stroke-opacity:1;stroke-miterlimit:4;" d="M 165.316406 139.174805 L 133.772461 137.730469 L 171.624023 135.647461 L 126.202148 132.650391 L 180.708984 128.332031 L 115.303711 122.112305 L 193.790039 113.15918 L 99.606445 100.265625 L 212.625 81.700195 L 77.000977 54.963867 L 239.750977 16.461914 " transform="matrix(1.333333,0,0,1.333333,0.000000000000028422,0)"/>
<path style="fill-rule:nonzero;fill:rgb(100%,49.803922%,5.490196%);fill-opacity:1;stroke-width:1;stroke-linecap:butt;stroke-linejoin:round;stroke:rgb(100%,49.803922%,5.490196%);stroke-opacity:1;stroke-miterlimit:4;" d="M 0.000991821 2.99855 C 0.794937 2.99855 1.559586 2.685074 2.122086 2.122574 C 2.684586 1.560074 3.000992 0.795425 3.000992 -0.00144958 C 3.000992 -0.795395 2.684586 -1.560043 2.122086 -2.122543 C 1.559586 -2.685043 0.794937 -3.00145 0.000991821 -3.00145 C -0.795883 -3.00145 -1.557602 -2.685043 -2.120102 -2.122543 C -2.682602 -1.560043 -2.999008 -0.795395 -2.999008 -0.00144958 C -2.999008 0.795425 -2.682602 1.560074 -2.120102 2.122574 C -1.557602 2.685074 -0.795883 2.99855 0.000991821 2.99855 Z M 0.000991821 2.99855 " transform="matrix(1.333333,0,0,1.333333,220.420553,185.568339)"/>
<path style="fill-rule:nonzero;fill:rgb(100%,49.803922%,5.490196%);fill-opacity:1;stroke-width:1;stroke-linecap:butt;stroke-linejoin:round;stroke:rgb(100%,49.803922%,5.490196%);stroke-opacity:1;stroke-miterlimit:4;" d="M -0.000915527 3.00032 C 0.795959 3.00032 1.557678 2.683914 2.120178 2.121414 C 2.682678 1.558914 2.999084 0.794266 2.999084 0.000320435 C 2.999084 -0.796555 2.682678 -1.558273 2.120178 -2.120773 C 1.557678 -2.683273 0.795959 -2.99968 -0.000915527 -2.99968 C -0.794861 -2.99968 -1.559509 -2.683273 -2.122009 -2.120773 C -2.684509 -1.558273 -3.000916 -0.796555 -3.000916 0.000320435 C -3.000916 0.794266 -2.684509 1.558914 -2.122009 2.121414 C -1.559509 2.683914 -0.794861 3.00032 -0.000915527 3.00032 Z M -0.000915527 3.00032 " transform="matrix(1.333333,0,0,1.333333,178.364502,183.640198)"/>
<path style="fill-rule:nonzero;fill:rgb(100%,49.803922%,5.490196%);fill-opacity:1;stroke-width:1;stroke-linecap:butt;stroke-linejoin:round;stroke:rgb(100%,49.803922%,5.490196%);stroke-opacity:1;stroke-miterlimit:4;" d="M 0.000198364 2.999695 C 0.797073 2.999695 1.558792 2.683289 2.121292 2.120789 C 2.683792 1.558289 3.000198 0.79657 3.000198 -0.000305176 C 3.000198 -0.79425 2.683792 -1.558899 2.121292 -2.121399 C 1.558792 -2.683899 0.797073 -3.000305 0.000198364 -3.000305 C -0.796677 -3.000305 -1.558395 -2.683899 -2.120895 -2.121399 C -2.683395 -1.558899 -2.999802 -0.79425 -2.999802 -0.000305176 C -2.999802 0.79657 -2.683395 1.558289 -2.120895 2.120789 C -1.558395 2.683289 -0.796677 2.999695 0.000198364 2.999695 Z M 0.000198364 2.999695 " transform="matrix(1.333333,0,0,1.333333,228.831767,180.863688)"/>
<path style="fill-rule:nonzero;fill:rgb(100%,49.803922%,5.490196%);fill-opacity:1;stroke-width:1;stroke-linecap:butt;stroke-linejoin:round;stroke:rgb(100%,49.803922%,5.490196%);stroke-opacity:1;stroke-miterlimit:4;" d="M -0.00113678 3.001251 C 0.795738 3.001251 1.557457 2.684845 2.119957 2.122345 C 2.682457 1.559845 2.998863 0.795197 2.998863 0.00125122 C 2.998863 -0.795624 2.682457 -1.557343 2.119957 -2.122772 C 1.557457 -2.685272 0.795738 -2.998749 -0.00113678 -2.998749 C -0.795082 -2.998749 -1.559731 -2.685272 -2.122231 -2.122772 C -2.684731 -1.557343 -3.001137 -0.795624 -3.001137 0.00125122 C -3.001137 0.795197 -2.684731 1.559845 -2.122231 2.122345 C -1.559731 2.684845 -0.795082 3.001251 -0.00113678 3.001251 Z M -0.00113678 3.001251 " transform="matrix(1.333333,0,0,1.333333,168.271047,176.865519)"/>
<path style="fill-rule:nonzero;fill:rgb(100%,49.803922%,5.490196%);fill-opacity:1;stroke-width:1;stroke-linecap:butt;stroke-linejoin:round;stroke:rgb(100%,49.803922%,5.490196%);stroke-opacity:1;stroke-miterlimit:4;" d="M 0.00105286 3.000931 C 0.794998 3.000931 1.559647 2.684525 2.122147 2.122025 C 2.684647 1.559525 3.001053 0.794876 3.001053 0.000930786 C 3.001053 -0.795944 2.684647 -1.557663 2.122147 -2.120163 C 1.559647 -2.682663 0.794998 -2.999069 0.00105286 -2.999069 C -0.795822 -2.999069 -1.557541 -2.682663 -2.120041 -2.120163 C -2.682541 -1.557663 -2.998947 -0.795944 -2.998947 0.000930786 C -2.998947 0.794876 -2.682541 1.559525 -2.120041 2.122025 C -1.557541 2.684525 -0.795822 3.000931 0.00105286 3.000931 Z M 0.00105286 3.000931 " transform="matrix(1.333333,0,0,1.333333,240.943909,171.108134)"/>
<path style="fill-rule:nonzero;fill:rgb(100%,49.803922%,5.490196%);fill-opacity:1;stroke-width:1;stroke-linecap:butt;stroke-linejoin:round;stroke:rgb(100%,49.803922%,5.490196%);stroke-opacity:1;stroke-miterlimit:4;" d="M 0.0013504 2.999168 C 0.795296 2.999168 1.559944 2.682762 2.122444 2.120262 C 2.684944 1.557762 3.00135 0.796043 3.00135 -0.000831604 C 3.00135 -0.794777 2.684944 -1.559425 2.122444 -2.121925 C 1.559944 -2.684425 0.795296 -3.000832 0.0013504 -3.000832 C -0.795525 -3.000832 -1.560173 -2.684425 -2.122673 -2.121925 C -2.685173 -1.559425 -2.99865 -0.794777 -2.99865 -0.000831604 C -2.99865 0.796043 -2.685173 1.557762 -2.122673 2.120262 C -1.560173 2.682762 -0.795525 2.999168 0.0013504 2.999168 Z M 0.0013504 2.999168 " transform="matrix(1.333333,0,0,1.333333,153.736481,162.817515)"/>
<path style="fill-rule:nonzero;fill:rgb(100%,49.803922%,5.490196%);fill-opacity:1;stroke-width:1;stroke-linecap:butt;stroke-linejoin:round;stroke:rgb(100%,49.803922%,5.490196%);stroke-opacity:1;stroke-miterlimit:4;" d="M 0.000991821 2.999908 C 0.794937 2.999908 1.559586 2.683502 2.122086 2.121002 C 2.684586 1.558502 3.000992 0.796783 3.000992 -0.0000915527 C 3.000992 -0.796967 2.684586 -1.558685 2.122086 -2.121185 C 1.559586 -2.683685 0.794937 -3.000092 0.000991821 -3.000092 C -0.795883 -3.000092 -1.557602 -2.683685 -2.120102 -2.121185 C -2.682602 -1.558685 -2.999008 -0.796967 -2.999008 -0.0000915527 C -2.999008 0.796783 -2.682602 1.558502 -2.120102 2.121002 C -1.557602 2.683502 -0.795883 2.999908 0.000991821 2.999908 Z M 0.000991821 2.999908 " transform="matrix(1.333333,0,0,1.333333,258.385396,150.879028)"/>
<path style="fill-rule:nonzero;fill:rgb(100%,49.803922%,5.490196%);fill-opacity:1;stroke-width:1;stroke-linecap:butt;stroke-linejoin:round;stroke:rgb(100%,49.803922%,5.490196%);stroke-opacity:1;stroke-miterlimit:4;" d="M 0.0014267 2.999931 C 0.795372 2.999931 1.56002 2.683525 2.12252 2.121025 C 2.68502 1.558525 3.001427 0.796806 3.001427 -0.0000686646 C 3.001427 -0.796944 2.68502 -1.558662 2.12252 -2.121162 C 1.56002 -2.683662 0.795372 -3.000069 0.0014267 -3.000069 C -0.795448 -3.000069 -1.560097 -2.683662 -2.122597 -2.121162 C -2.685097 -1.558662 -2.998573 -0.796944 -2.998573 -0.0000686646 C -2.998573 0.796806 -2.685097 1.558525 -2.122597 2.121025 C -1.560097 2.683525 -0.795448 2.999931 0.0014267 2.999931 Z M 0.0014267 2.999931 " transform="matrix(1.333333,0,0,1.333333,132.806691,133.687592)"/>
<path style="fill-rule:nonzero;fill:rgb(100%,49.803922%,5.490196%);fill-opacity:1;stroke-width:1;stroke-linecap:butt;stroke-linejoin:round;stroke:rgb(100%,49.803922%,5.490196%);stroke-opacity:1;stroke-miterlimit:4;" d="M -0.000854492 3.001244 C 0.796021 3.001244 1.557739 2.684837 2.120239 2.122337 C 2.682739 1.559837 2.999146 0.795189 2.999146 0.00124359 C 2.999146 -0.795631 2.682739 -1.55735 2.120239 -2.12278 C 1.557739 -2.68528 0.796021 -2.998756 -0.000854492 -2.998756 C -0.7948 -2.998756 -1.559448 -2.68528 -2.121948 -2.12278 C -2.684448 -1.55735 -3.000854 -0.795631 -3.000854 0.00124359 C -3.000854 0.795189 -2.684448 1.559837 -2.121948 2.122337 C -1.559448 2.684837 -0.7948 3.001244 -0.000854492 3.001244 Z M -0.000854492 3.001244 " transform="matrix(1.333333,0,0,1.333333,283.501139,108.931936)"/>
<path style="fill-rule:nonzero;fill:rgb(100%,49.803922%,5.490196%);fill-opacity:1;stroke-width:1;stroke-linecap:butt;stroke-linejoin:round;stroke:rgb(100%,49.803922%,5.490196%);stroke-opacity:1;stroke-miterlimit:4;" d="M 0.00012207 3.001022 C 0.796997 3.001022 1.558716 2.684616 2.121216 2.122116 C 2.683716 1.559616 3.000122 0.794968 3.000122 0.00102234 C 3.000122 -0.795853 2.683716 -1.557571 2.121216 -2.120071 C 1.558716 -2.682571 0.796997 -2.998978 0.00012207 -2.998978 C -0.796753 -2.998978 -1.558472 -2.682571 -2.120972 -2.120071 C -2.683472 -1.557571 -2.999878 -0.795853 -2.999878 0.00102234 C -2.999878 0.794968 -2.683472 1.559616 -2.120972 2.122116 C -1.558472 2.684616 -0.796753 3.001022 0.00012207 3.001022 Z M 0.00012207 3.001022 " transform="matrix(1.333333,0,0,1.333333,102.667806,73.283793)"/>
<path style="fill-rule:nonzero;fill:rgb(100%,49.803922%,5.490196%);fill-opacity:1;stroke-width:1;stroke-linecap:butt;stroke-linejoin:round;stroke:rgb(100%,49.803922%,5.490196%);stroke-opacity:1;stroke-miterlimit:4;" d="M 0.00012207 2.999067 C 0.796997 2.999067 1.558716 2.682661 2.121216 2.120161 C 2.683716 1.557661 3.000122 0.795942 3.000122 -0.000932693 C 3.000122 -0.794878 2.683716 -1.559526 2.121216 -2.122026 C 1.558716 -2.684526 0.796997 -3.000933 0.00012207 -3.000933 C -0.796753 -3.000933 -1.558472 -2.684526 -2.120972 -2.122026 C -2.683472 -1.559526 -2.999878 -0.794878 -2.999878 -0.000932693 C -2.999878 0.795942 -2.683472 1.557661 -2.120972 2.120161 C -1.558472 2.682661 -0.796753 2.999067 0.00012207 2.999067 Z M 0.00012207 2.999067 " transform="matrix(1.333333,0,0,1.333333,319.667806,21.950462)"/>
<path style="fill:none;stroke-width:0.8;stroke-linecap:square;stroke-linejoin:miter;stroke:rgb(0%,0%,0%);stroke-opacity:1;stroke-miterlimit:4;" d="M 53.329102 148.763672 L 53.329102 10.163086 " transform="matrix(1.333333,0,0,1.333333,0.000000000000028422,0)"/>
<path style="fill:none;stroke-width:0.8;stroke-linecap:square;stroke-linejoin:miter;stroke:rgb(0%,0%,0%);stroke-opacity:1;stroke-miterlimit:4;" d="M 248.62793 148.763672 L 248.62793 10.163086 " transform="matrix(1.333333,0,0,1.333333,0.000000000000028422,0)"/>
<path style="fill:none;stroke-width:0.8;stroke-linecap:square;stroke-linejoin:miter;stroke:rgb(0%,0%,0%);stroke-opacity:1;stroke-miterlimit:4;" d="M 53.329102 148.763672 L 248.62793 148.763672 " transform="matrix(1.333333,0,0,1.333333,0.000000000000028422,0)"/>
<path style="fill:none;stroke-width:0.8;stroke-linecap:square;stroke-linejoin:miter;stroke:rgb(0%,0%,0%);stroke-opacity:1;stroke-miterlimit:4;" d="M 53.329102 10.163086 L 248.62793 10.163086 " transform="matrix(1.333333,0,0,1.333333,0.000000000000028422,0)"/>
</g>
</svg>
