<?xml version="1.0" encoding="UTF-8"?>
<svg xmlns="http://www.w3.org/2000/svg" xmlns:xlink="http://www.w3.org/1999/xlink" width="719.337484" height="263.19751" viewBox="0 0 719.337484 263.19751" version="1.1">
<defs>
<clipPath id="clip1">
  <path d="M 48 9.601562 L 50 9.601562 L 50 231.359375 L 48 231.359375 Z M 48 9.601562 "/>
</clipPath>
<clipPath id="clip2">
  <path d="M 138 9.601562 L 140 9.601562 L 140 231.359375 L 138 231.359375 Z M 138 9.601562 "/>
</clipPath>
<clipPath id="clip3">
  <path d="M 227 9.601562 L 230 9.601562 L 230 231.359375 L 227 231.359375 Z M 227 9.601562 "/>
</clipPath>
<clipPath id="clip4">
  <path d="M 40.136719 220 L 237.078125 220 L 237.078125 223 L 40.136719 223 Z M 40.136719 220 "/>
</clipPath>
<clipPath id="clip5">
  <path d="M 40.136719 170 L 237.078125 170 L 237.078125 172 L 40.136719 172 Z M 40.136719 170 "/>
</clipPath>
<clipPath id="clip6">
  <path d="M 40.136719 119 L 237.078125 119 L 237.078125 122 L 40.136719 122 Z M 40.136719 119 "/>
</clipPath>
<clipPath id="clip7">
  <path d="M 40.136719 69 L 237.078125 69 L 237.078125 71 L 40.136719 71 Z M 40.136719 69 "/>
</clipPath>
<clipPath id="clip8">
  <path d="M 40.136719 18 L 237.078125 18 L 237.078125 21 L 40.136719 21 Z M 40.136719 18 "/>
</clipPath>
<clipPath id="clip9">
  <path d="M 284 9.601562 L 287 9.601562 L 287 231.359375 L 284 231.359375 Z M 284 9.601562 "/>
</clipPath>
<clipPath id="clip10">
  <path d="M 374 9.601562 L 376 9.601562 L 376 231.359375 L 374 231.359375 Z M 374 9.601562 "/>
</clipPath>
<clipPath id="clip11">
  <path d="M 464 9.601562 L 466 9.601562 L 466 231.359375 L 464 231.359375 Z M 464 9.601562 "/>
</clipPath>
<clipPath id="clip12">
  <path d="M 276.46875 220 L 473.40625 220 L 473.40625 223 L 276.46875 223 Z M 276.46875 220 "/>
</clipPath>
<clipPath id="clip13">
  <path d="M 276.46875 170 L 473.40625 170 L 473.40625 172 L 276.46875 172 Z M 276.46875 170 "/>
</clipPath>
<clipPath id="clip14">
  <path d="M 276.46875 119 L 473.40625 119 L 473.40625 122 L 276.46875 122 Z M 276.46875 119 "/>
</clipPath>
<clipPath id="clip15">
  <path d="M 276.46875 69 L 473.40625 69 L 473.40625 71 L 276.46875 71 Z M 276.46875 69 "/>
</clipPath>
<clipPath id="clip16">
  <path d="M 276.46875 18 L 473.40625 18 L 473.40625 21 L 276.46875 21 Z M 276.46875 18 "/>
</clipPath>
<clipPath id="clip17">
  <path d="M 520 9.601562 L 523 9.601562 L 523 231.359375 L 520 231.359375 Z M 520 9.601562 "/>
</clipPath>
<clipPath id="clip18">
  <path d="M 610 9.601562 L 613 9.601562 L 613 231.359375 L 610 231.359375 Z M 610 9.601562 "/>
</clipPath>
<clipPath id="clip19">
  <path d="M 700 9.601562 L 702 9.601562 L 702 231.359375 L 700 231.359375 Z M 700 9.601562 "/>
</clipPath>
<clipPath id="clip20">
  <path d="M 512.796875 209 L 709.738281 209 L 709.738281 211 L 512.796875 211 Z M 512.796875 209 "/>
</clipPath>
<clipPath id="clip21">
  <path d="M 512.796875 165 L 709.738281 165 L 709.738281 168 L 512.796875 168 Z M 512.796875 165 "/>
</clipPath>
<clipPath id="clip22">
  <path d="M 512.796875 122 L 709.738281 122 L 709.738281 125 L 512.796875 125 Z M 512.796875 122 "/>
</clipPath>
<clipPath id="clip23">
  <path d="M 512.796875 79 L 709.738281 79 L 709.738281 82 L 512.796875 82 Z M 512.796875 79 "/>
</clipPath>
<clipPath id="clip24">
  <path d="M 512.796875 36 L 709.738281 36 L 709.738281 39 L 512.796875 39 Z M 512.796875 36 "/>
</clipPath>
</defs>
<g id="surface1">
<path style=" stroke:none;fill-rule:nonzero;fill:rgb(100%,100%,100%);fill-opacity:1;" d="M 0 263.199219 L 719.335938 263.199219 L 719.335938 0 L 0 0 Z M 0 263.199219 "/>
<path style=" stroke:none;fill-rule:nonzero;fill:rgb(100%,100%,100%);fill-opacity:1;" d="M 40.136719 231.359375 L 237.078125 231.359375 L 237.078125 9.601562 L 40.136719 9.601562 Z M 40.136719 231.359375 "/>
<g clip-path="url(#clip1)" clip-rule="nonzero">
<path style="fill:none;stroke-width:0.8;stroke-linecap:square;stroke-linejoin:round;stroke:rgb(69.01961%,69.01961%,69.01961%);stroke-opacity:1;stroke-miterlimit:4;" d="M 36.817383 173.519531 L 36.817383 7.201172 " transform="matrix(1.333333,0,0,1.333333,0.000000000000056843,0)"/>
</g>
<path style="fill:none;stroke-width:0.8;stroke-linecap:butt;stroke-linejoin:round;stroke:rgb(0%,0%,0%);stroke-opacity:1;stroke-miterlimit:4;" d="M 0.000354767 -0.000473022 L 0.000354767 3.500504 " transform="matrix(1.333333,0,0,1.333333,49.089371,231.360006)"/>
<path style=" stroke:none;fill-rule:nonzero;fill:rgb(0%,0%,0%);fill-opacity:1;" d="M 40.671875 246.089844 L 49.019531 246.089844 L 49.019531 247.199219 L 40.671875 247.199219 Z M 40.671875 246.089844 "/>
<path style=" stroke:none;fill-rule:nonzero;fill:rgb(0%,0%,0%);fill-opacity:1;" d="M 52.992188 249.71875 L 57.582031 249.71875 L 57.582031 250.824219 L 51.410156 250.824219 L 51.410156 249.71875 C 51.910156 249.203125 52.589844 248.507812 53.449219 247.640625 C 54.3125 246.769531 54.855469 246.207031 55.074219 245.953125 C 55.496094 245.480469 55.789062 245.082031 55.957031 244.753906 C 56.125 244.425781 56.207031 244.105469 56.207031 243.785156 C 56.207031 243.269531 56.027344 242.847656 55.664062 242.523438 C 55.300781 242.199219 54.828125 242.035156 54.246094 242.035156 C 53.835938 242.035156 53.398438 242.105469 52.941406 242.25 C 52.484375 242.394531 51.996094 242.609375 51.476562 242.902344 L 51.476562 241.574219 C 52.003906 241.359375 52.5 241.199219 52.957031 241.089844 C 53.417969 240.984375 53.839844 240.929688 54.222656 240.929688 C 55.230469 240.929688 56.03125 241.179688 56.632812 241.683594 C 57.230469 242.1875 57.527344 242.859375 57.527344 243.703125 C 57.527344 244.101562 57.453125 244.480469 57.304688 244.839844 C 57.15625 245.195312 56.882812 245.617188 56.488281 246.105469 C 56.378906 246.230469 56.035156 246.59375 55.453125 247.195312 C 54.871094 247.796875 54.050781 248.636719 52.992188 249.71875 Z M 52.992188 249.71875 "/>
<g clip-path="url(#clip2)" clip-rule="nonzero">
<path style="fill:none;stroke-width:0.8;stroke-linecap:square;stroke-linejoin:round;stroke:rgb(69.01961%,69.01961%,69.01961%);stroke-opacity:1;stroke-miterlimit:4;" d="M 104.124023 173.519531 L 104.124023 7.201172 " transform="matrix(1.333333,0,0,1.333333,0.000000000000056843,0)"/>
</g>
<path style="fill:none;stroke-width:0.8;stroke-linecap:butt;stroke-linejoin:round;stroke:rgb(0%,0%,0%);stroke-opacity:1;stroke-miterlimit:4;" d="M -0.000312805 -0.000473022 L -0.000312805 3.500504 " transform="matrix(1.333333,0,0,1.333333,138.832448,231.360006)"/>
<path style=" stroke:none;fill-rule:nonzero;fill:rgb(0%,0%,0%);fill-opacity:1;" d="M 138.828125 241.96875 C 138.152344 241.96875 137.644531 242.304688 137.300781 242.96875 C 136.960938 243.636719 136.789062 244.636719 136.789062 245.972656 C 136.789062 247.304688 136.960938 248.304688 137.300781 248.972656 C 137.644531 249.640625 138.152344 249.972656 138.828125 249.972656 C 139.511719 249.972656 140.019531 249.640625 140.363281 248.972656 C 140.703125 248.304688 140.875 247.304688 140.875 245.972656 C 140.875 244.636719 140.703125 243.636719 140.363281 242.96875 C 140.019531 242.304688 139.511719 241.96875 138.828125 241.96875 Z M 138.828125 240.929688 C 139.917969 240.929688 140.75 241.359375 141.328125 242.222656 C 141.902344 243.082031 142.1875 244.335938 142.1875 245.972656 C 142.1875 247.609375 141.902344 248.859375 141.328125 249.722656 C 140.75 250.582031 139.917969 251.015625 138.828125 251.015625 C 137.738281 251.015625 136.90625 250.582031 136.332031 249.722656 C 135.757812 248.859375 135.46875 247.609375 135.46875 245.972656 C 135.46875 244.335938 135.757812 243.082031 136.332031 242.222656 C 136.90625 241.359375 137.738281 240.929688 138.828125 240.929688 Z M 138.828125 240.929688 "/>
<g clip-path="url(#clip3)" clip-rule="nonzero">
<path style="fill:none;stroke-width:0.8;stroke-linecap:square;stroke-linejoin:round;stroke:rgb(69.01961%,69.01961%,69.01961%);stroke-opacity:1;stroke-miterlimit:4;" d="M 171.430664 173.519531 L 171.430664 7.201172 " transform="matrix(1.333333,0,0,1.333333,0.000000000000056843,0)"/>
</g>
<path style="fill:none;stroke-width:0.8;stroke-linecap:butt;stroke-linejoin:round;stroke:rgb(0%,0%,0%);stroke-opacity:1;stroke-miterlimit:4;" d="M -0.000976563 -0.000473022 L -0.000976563 3.500504 " transform="matrix(1.333333,0,0,1.333333,228.575521,231.360006)"/>
<path style=" stroke:none;fill-rule:nonzero;fill:rgb(0%,0%,0%);fill-opacity:1;" d="M 226.890625 249.71875 L 231.480469 249.71875 L 231.480469 250.824219 L 225.3125 250.824219 L 225.3125 249.71875 C 225.808594 249.203125 226.488281 248.507812 227.351562 247.640625 C 228.214844 246.769531 228.753906 246.207031 228.976562 245.953125 C 229.394531 245.480469 229.691406 245.082031 229.855469 244.753906 C 230.023438 244.425781 230.109375 244.105469 230.109375 243.785156 C 230.109375 243.269531 229.925781 242.847656 229.566406 242.523438 C 229.203125 242.199219 228.730469 242.035156 228.148438 242.035156 C 227.734375 242.035156 227.300781 242.105469 226.84375 242.25 C 226.386719 242.394531 225.894531 242.609375 225.375 242.902344 L 225.375 241.574219 C 225.90625 241.359375 226.398438 241.199219 226.859375 241.089844 C 227.320312 240.984375 227.742188 240.929688 228.125 240.929688 C 229.128906 240.929688 229.933594 241.179688 230.53125 241.683594 C 231.128906 242.1875 231.429688 242.859375 231.429688 243.703125 C 231.429688 244.101562 231.355469 244.480469 231.203125 244.839844 C 231.054688 245.195312 230.785156 245.617188 230.386719 246.105469 C 230.28125 246.230469 229.933594 246.59375 229.351562 247.195312 C 228.773438 247.796875 227.953125 248.636719 226.890625 249.71875 Z M 226.890625 249.71875 "/>
<g clip-path="url(#clip4)" clip-rule="nonzero">
<path style="fill:none;stroke-width:0.8;stroke-linecap:square;stroke-linejoin:round;stroke:rgb(69.01961%,69.01961%,69.01961%);stroke-opacity:1;stroke-miterlimit:4;" d="M 30.102539 165.960938 L 177.808594 165.960938 " transform="matrix(1.333333,0,0,1.333333,0.000000000000056843,0)"/>
</g>
<path style="fill:none;stroke-width:0.8;stroke-linecap:butt;stroke-linejoin:round;stroke:rgb(0%,0%,0%);stroke-opacity:1;stroke-miterlimit:4;" d="M -0.000585556 0.000930786 L -3.498632 0.000930786 " transform="matrix(1.333333,0,0,1.333333,40.137499,221.280009)"/>
<path style=" stroke:none;fill-rule:nonzero;fill:rgb(0%,0%,0%);fill-opacity:1;" d="M 13.835938 217.492188 C 13.160156 217.492188 12.652344 217.824219 12.308594 218.492188 C 11.96875 219.15625 11.800781 220.15625 11.800781 221.496094 C 11.800781 222.828125 11.96875 223.828125 12.308594 224.492188 C 12.652344 225.160156 13.160156 225.492188 13.835938 225.492188 C 14.519531 225.492188 15.03125 225.160156 15.371094 224.492188 C 15.710938 223.828125 15.882812 222.828125 15.882812 221.496094 C 15.882812 220.15625 15.710938 219.15625 15.371094 218.492188 C 15.03125 217.824219 14.519531 217.492188 13.835938 217.492188 Z M 13.835938 216.449219 C 14.929688 216.449219 15.761719 216.882812 16.335938 217.742188 C 16.910156 218.605469 17.199219 219.855469 17.199219 221.496094 C 17.199219 223.132812 16.910156 224.382812 16.335938 225.242188 C 15.761719 226.105469 14.929688 226.535156 13.835938 226.535156 C 12.75 226.535156 11.917969 226.105469 11.339844 225.242188 C 10.765625 224.382812 10.480469 223.132812 10.480469 221.496094 C 10.480469 219.855469 10.765625 218.605469 11.339844 217.742188 C 11.917969 216.882812 12.75 216.449219 13.835938 216.449219 Z M 13.835938 216.449219 "/>
<path style=" stroke:none;fill-rule:nonzero;fill:rgb(0%,0%,0%);fill-opacity:1;" d="M 19.507812 224.691406 L 20.882812 224.691406 L 20.882812 226.34375 L 19.507812 226.34375 Z M 19.507812 224.691406 "/>
<path style=" stroke:none;fill-rule:nonzero;fill:rgb(0%,0%,0%);fill-opacity:1;" d="M 26.558594 217.492188 C 25.882812 217.492188 25.375 217.824219 25.03125 218.492188 C 24.691406 219.15625 24.519531 220.15625 24.519531 221.496094 C 24.519531 222.828125 24.691406 223.828125 25.03125 224.492188 C 25.375 225.160156 25.882812 225.492188 26.558594 225.492188 C 27.242188 225.492188 27.75 225.160156 28.09375 224.492188 C 28.433594 223.828125 28.605469 222.828125 28.605469 221.496094 C 28.605469 220.15625 28.433594 219.15625 28.09375 218.492188 C 27.75 217.824219 27.242188 217.492188 26.558594 217.492188 Z M 26.558594 216.449219 C 27.648438 216.449219 28.480469 216.882812 29.058594 217.742188 C 29.632812 218.605469 29.917969 219.855469 29.917969 221.496094 C 29.917969 223.132812 29.632812 224.382812 29.058594 225.242188 C 28.480469 226.105469 27.648438 226.535156 26.558594 226.535156 C 25.46875 226.535156 24.636719 226.105469 24.0625 225.242188 C 23.488281 224.382812 23.199219 223.132812 23.199219 221.496094 C 23.199219 219.855469 23.488281 218.605469 24.0625 217.742188 C 24.636719 216.882812 25.46875 216.449219 26.558594 216.449219 Z M 26.558594 216.449219 "/>
<g clip-path="url(#clip5)" clip-rule="nonzero">
<path style="fill:none;stroke-width:0.8;stroke-linecap:square;stroke-linejoin:round;stroke:rgb(69.01961%,69.01961%,69.01961%);stroke-opacity:1;stroke-miterlimit:4;" d="M 30.102539 128.15918 L 177.808594 128.15918 " transform="matrix(1.333333,0,0,1.333333,0.000000000000056843,0)"/>
</g>
<path style="fill:none;stroke-width:0.8;stroke-linecap:butt;stroke-linejoin:round;stroke:rgb(0%,0%,0%);stroke-opacity:1;stroke-miterlimit:4;" d="M -0.000585556 -0.000823975 L -3.498632 -0.000823975 " transform="matrix(1.333333,0,0,1.333333,40.137499,170.880005)"/>
<path style=" stroke:none;fill-rule:nonzero;fill:rgb(0%,0%,0%);fill-opacity:1;" d="M 13.835938 167.089844 C 13.160156 167.089844 12.652344 167.425781 12.308594 168.089844 C 11.96875 168.757812 11.800781 169.757812 11.800781 171.09375 C 11.800781 172.425781 11.96875 173.425781 12.308594 174.09375 C 12.652344 174.761719 13.160156 175.09375 13.835938 175.09375 C 14.519531 175.09375 15.03125 174.761719 15.371094 174.09375 C 15.710938 173.425781 15.882812 172.425781 15.882812 171.09375 C 15.882812 169.757812 15.710938 168.757812 15.371094 168.089844 C 15.03125 167.425781 14.519531 167.089844 13.835938 167.089844 Z M 13.835938 166.050781 C 14.929688 166.050781 15.761719 166.480469 16.335938 167.34375 C 16.910156 168.203125 17.199219 169.457031 17.199219 171.09375 C 17.199219 172.730469 16.910156 173.980469 16.335938 174.84375 C 15.761719 175.703125 14.929688 176.136719 13.835938 176.136719 C 12.75 176.136719 11.917969 175.703125 11.339844 174.84375 C 10.765625 173.980469 10.480469 172.730469 10.480469 171.09375 C 10.480469 169.457031 10.765625 168.203125 11.339844 167.34375 C 11.917969 166.480469 12.75 166.050781 13.835938 166.050781 Z M 13.835938 166.050781 "/>
<path style=" stroke:none;fill-rule:nonzero;fill:rgb(0%,0%,0%);fill-opacity:1;" d="M 19.507812 174.292969 L 20.882812 174.292969 L 20.882812 175.945312 L 19.507812 175.945312 Z M 19.507812 174.292969 "/>
<path style=" stroke:none;fill-rule:nonzero;fill:rgb(0%,0%,0%);fill-opacity:1;" d="M 23.761719 166.226562 L 28.921875 166.226562 L 28.921875 167.332031 L 24.964844 167.332031 L 24.964844 169.714844 C 25.15625 169.648438 25.34375 169.601562 25.535156 169.570312 C 25.726562 169.535156 25.917969 169.519531 26.109375 169.519531 C 27.195312 169.519531 28.054688 169.816406 28.6875 170.414062 C 29.324219 171.007812 29.640625 171.8125 29.640625 172.828125 C 29.640625 173.871094 29.3125 174.6875 28.664062 175.265625 C 28.011719 175.84375 27.09375 176.136719 25.910156 176.136719 C 25.5 176.136719 25.085938 176.101562 24.660156 176.03125 C 24.238281 175.960938 23.800781 175.859375 23.351562 175.71875 L 23.351562 174.394531 C 23.742188 174.609375 24.144531 174.765625 24.5625 174.871094 C 24.976562 174.976562 25.417969 175.027344 25.882812 175.027344 C 26.632812 175.027344 27.226562 174.828125 27.664062 174.433594 C 28.105469 174.039062 28.324219 173.503906 28.324219 172.828125 C 28.324219 172.152344 28.105469 171.613281 27.664062 171.21875 C 27.226562 170.824219 26.632812 170.625 25.882812 170.625 C 25.53125 170.625 25.179688 170.664062 24.828125 170.742188 C 24.480469 170.820312 24.125 170.941406 23.761719 171.109375 Z M 23.761719 166.226562 "/>
<g clip-path="url(#clip6)" clip-rule="nonzero">
<path style="fill:none;stroke-width:0.8;stroke-linecap:square;stroke-linejoin:round;stroke:rgb(69.01961%,69.01961%,69.01961%);stroke-opacity:1;stroke-miterlimit:4;" d="M 30.102539 90.360352 L 177.808594 90.360352 " transform="matrix(1.333333,0,0,1.333333,0.000000000000056843,0)"/>
</g>
<path style="fill:none;stroke-width:0.8;stroke-linecap:butt;stroke-linejoin:round;stroke:rgb(0%,0%,0%);stroke-opacity:1;stroke-miterlimit:4;" d="M -0.000585556 0.000350952 L -3.498632 0.000350952 " transform="matrix(1.333333,0,0,1.333333,40.137499,120.480001)"/>
<path style=" stroke:none;fill-rule:nonzero;fill:rgb(0%,0%,0%);fill-opacity:1;" d="M 11.253906 124.4375 L 13.402344 124.4375 L 13.402344 117.023438 L 11.066406 117.492188 L 11.066406 116.292969 L 13.390625 115.824219 L 14.703125 115.824219 L 14.703125 124.4375 L 16.851562 124.4375 L 16.851562 125.546875 L 11.253906 125.546875 Z M 11.253906 124.4375 "/>
<path style=" stroke:none;fill-rule:nonzero;fill:rgb(0%,0%,0%);fill-opacity:1;" d="M 19.507812 123.890625 L 20.882812 123.890625 L 20.882812 125.546875 L 19.507812 125.546875 Z M 19.507812 123.890625 "/>
<path style=" stroke:none;fill-rule:nonzero;fill:rgb(0%,0%,0%);fill-opacity:1;" d="M 26.558594 116.691406 C 25.882812 116.691406 25.375 117.023438 25.03125 117.691406 C 24.691406 118.355469 24.519531 119.359375 24.519531 120.695312 C 24.519531 122.027344 24.691406 123.027344 25.03125 123.695312 C 25.375 124.359375 25.882812 124.695312 26.558594 124.695312 C 27.242188 124.695312 27.75 124.359375 28.09375 123.695312 C 28.433594 123.027344 28.605469 122.027344 28.605469 120.695312 C 28.605469 119.359375 28.433594 118.355469 28.09375 117.691406 C 27.75 117.023438 27.242188 116.691406 26.558594 116.691406 Z M 26.558594 115.648438 C 27.648438 115.648438 28.480469 116.082031 29.058594 116.945312 C 29.632812 117.804688 29.917969 119.054688 29.917969 120.695312 C 29.917969 122.332031 29.632812 123.582031 29.058594 124.445312 C 28.480469 125.304688 27.648438 125.734375 26.558594 125.734375 C 25.46875 125.734375 24.636719 125.304688 24.0625 124.445312 C 23.488281 123.582031 23.199219 122.332031 23.199219 120.695312 C 23.199219 119.054688 23.488281 117.804688 24.0625 116.945312 C 24.636719 116.082031 25.46875 115.648438 26.558594 115.648438 Z M 26.558594 115.648438 "/>
<g clip-path="url(#clip7)" clip-rule="nonzero">
<path style="fill:none;stroke-width:0.8;stroke-linecap:square;stroke-linejoin:round;stroke:rgb(69.01961%,69.01961%,69.01961%);stroke-opacity:1;stroke-miterlimit:4;" d="M 30.102539 52.558594 L 177.808594 52.558594 " transform="matrix(1.333333,0,0,1.333333,0.000000000000056843,0)"/>
</g>
<path style="fill:none;stroke-width:0.8;stroke-linecap:butt;stroke-linejoin:round;stroke:rgb(0%,0%,0%);stroke-opacity:1;stroke-miterlimit:4;" d="M -0.000585556 -0.00140762 L -3.498632 -0.00140762 " transform="matrix(1.333333,0,0,1.333333,40.137499,70.080002)"/>
<path style=" stroke:none;fill-rule:nonzero;fill:rgb(0%,0%,0%);fill-opacity:1;" d="M 11.253906 74.039062 L 13.402344 74.039062 L 13.402344 66.621094 L 11.066406 67.089844 L 11.066406 65.894531 L 13.390625 65.425781 L 14.703125 65.425781 L 14.703125 74.039062 L 16.851562 74.039062 L 16.851562 75.144531 L 11.253906 75.144531 Z M 11.253906 74.039062 "/>
<path style=" stroke:none;fill-rule:nonzero;fill:rgb(0%,0%,0%);fill-opacity:1;" d="M 19.507812 73.492188 L 20.882812 73.492188 L 20.882812 75.144531 L 19.507812 75.144531 Z M 19.507812 73.492188 "/>
<path style=" stroke:none;fill-rule:nonzero;fill:rgb(0%,0%,0%);fill-opacity:1;" d="M 23.761719 65.425781 L 28.921875 65.425781 L 28.921875 66.53125 L 24.964844 66.53125 L 24.964844 68.914062 C 25.15625 68.847656 25.34375 68.800781 25.535156 68.769531 C 25.726562 68.738281 25.917969 68.71875 26.109375 68.71875 C 27.195312 68.71875 28.054688 69.019531 28.6875 69.613281 C 29.324219 70.207031 29.640625 71.011719 29.640625 72.027344 C 29.640625 73.074219 29.3125 73.886719 28.664062 74.464844 C 28.011719 75.046875 27.09375 75.335938 25.910156 75.335938 C 25.5 75.335938 25.085938 75.300781 24.660156 75.230469 C 24.238281 75.160156 23.800781 75.058594 23.351562 74.917969 L 23.351562 73.59375 C 23.742188 73.808594 24.144531 73.964844 24.5625 74.070312 C 24.976562 74.175781 25.417969 74.226562 25.882812 74.226562 C 26.632812 74.226562 27.226562 74.03125 27.664062 73.636719 C 28.105469 73.242188 28.324219 72.703125 28.324219 72.027344 C 28.324219 71.351562 28.105469 70.816406 27.664062 70.421875 C 27.226562 70.023438 26.632812 69.828125 25.882812 69.828125 C 25.53125 69.828125 25.179688 69.867188 24.828125 69.945312 C 24.480469 70.019531 24.125 70.144531 23.761719 70.308594 Z M 23.761719 65.425781 "/>
<g clip-path="url(#clip8)" clip-rule="nonzero">
<path style="fill:none;stroke-width:0.8;stroke-linecap:square;stroke-linejoin:round;stroke:rgb(69.01961%,69.01961%,69.01961%);stroke-opacity:1;stroke-miterlimit:4;" d="M 30.102539 14.759766 L 177.808594 14.759766 " transform="matrix(1.333333,0,0,1.333333,0.000000000000056843,0)"/>
</g>
<path style="fill:none;stroke-width:0.8;stroke-linecap:butt;stroke-linejoin:round;stroke:rgb(0%,0%,0%);stroke-opacity:1;stroke-miterlimit:4;" d="M -0.000585556 -0.000234604 L -3.498632 -0.000234604 " transform="matrix(1.333333,0,0,1.333333,40.137499,19.68)"/>
<path style=" stroke:none;fill-rule:nonzero;fill:rgb(0%,0%,0%);fill-opacity:1;" d="M 12.160156 23.640625 L 16.746094 23.640625 L 16.746094 24.746094 L 10.578125 24.746094 L 10.578125 23.640625 C 11.074219 23.121094 11.753906 22.429688 12.617188 21.558594 C 13.480469 20.6875 14.019531 20.128906 14.242188 19.875 C 14.664062 19.402344 14.957031 19.003906 15.121094 18.675781 C 15.289062 18.347656 15.375 18.023438 15.375 17.707031 C 15.375 17.191406 15.195312 16.769531 14.832031 16.445312 C 14.46875 16.121094 13.996094 15.957031 13.414062 15.957031 C 13.003906 15.957031 12.566406 16.027344 12.109375 16.171875 C 11.652344 16.3125 11.164062 16.53125 10.640625 16.824219 L 10.640625 15.492188 C 11.171875 15.28125 11.664062 15.121094 12.125 15.011719 C 12.585938 14.902344 13.007812 14.851562 13.390625 14.851562 C 14.398438 14.851562 15.199219 15.101562 15.796875 15.605469 C 16.398438 16.109375 16.695312 16.78125 16.695312 17.621094 C 16.695312 18.023438 16.621094 18.402344 16.472656 18.761719 C 16.320312 19.117188 16.050781 19.539062 15.652344 20.023438 C 15.546875 20.152344 15.199219 20.515625 14.617188 21.117188 C 14.039062 21.71875 13.21875 22.558594 12.160156 23.640625 Z M 12.160156 23.640625 "/>
<path style=" stroke:none;fill-rule:nonzero;fill:rgb(0%,0%,0%);fill-opacity:1;" d="M 19.507812 23.089844 L 20.882812 23.089844 L 20.882812 24.746094 L 19.507812 24.746094 Z M 19.507812 23.089844 "/>
<path style=" stroke:none;fill-rule:nonzero;fill:rgb(0%,0%,0%);fill-opacity:1;" d="M 26.558594 15.890625 C 25.882812 15.890625 25.375 16.226562 25.03125 16.890625 C 24.691406 17.558594 24.519531 18.558594 24.519531 19.894531 C 24.519531 21.226562 24.691406 22.226562 25.03125 22.894531 C 25.375 23.558594 25.882812 23.894531 26.558594 23.894531 C 27.242188 23.894531 27.75 23.558594 28.09375 22.894531 C 28.433594 22.226562 28.605469 21.226562 28.605469 19.894531 C 28.605469 18.558594 28.433594 17.558594 28.09375 16.890625 C 27.75 16.226562 27.242188 15.890625 26.558594 15.890625 Z M 26.558594 14.851562 C 27.648438 14.851562 28.480469 15.28125 29.058594 16.144531 C 29.632812 17.003906 29.917969 18.253906 29.917969 19.894531 C 29.917969 21.53125 29.632812 22.78125 29.058594 23.644531 C 28.480469 24.503906 27.648438 24.933594 26.558594 24.933594 C 25.46875 24.933594 24.636719 24.503906 24.0625 23.644531 C 23.488281 22.78125 23.199219 21.53125 23.199219 19.894531 C 23.199219 18.253906 23.488281 17.003906 24.0625 16.144531 C 24.636719 15.28125 25.46875 14.851562 26.558594 14.851562 Z M 26.558594 14.851562 "/>
<path style="fill:none;stroke-width:1.5;stroke-linecap:square;stroke-linejoin:round;stroke:rgb(12.156863%,46.666667%,70.588237%);stroke-opacity:1;stroke-miterlimit:4;" d="M 36.817383 14.759766 L 40.854492 32.358398 L 44.557617 47.537109 L 48.257812 61.798828 L 51.960937 75.146484 L 55.327148 86.484375 L 58.693359 97.069336 L 62.056641 106.898438 L 65.085937 115.095703 L 68.115234 122.683594 L 71.144531 129.65625 L 73.836914 135.342773 L 76.529297 140.542969 L 79.22168 145.259766 L 81.914062 149.493164 L 84.269531 152.800781 L 86.625 155.739258 L 88.980469 158.305664 L 90.999023 160.209961 L 93.017578 161.844727 L 95.039062 163.204102 L 97.057617 164.293945 L 99.076172 165.108398 L 101.094727 165.65332 L 102.779297 165.899414 L 104.460937 165.955078 L 106.142578 165.823242 L 107.827148 165.503906 L 109.845703 164.868164 L 111.864258 163.959961 L 113.882812 162.782227 L 115.904297 161.329102 L 117.922852 159.606445 L 119.941406 157.611328 L 122.296875 154.936523 L 124.652344 151.895508 L 127.007812 148.482422 L 129.363281 144.697266 L 132.055664 139.918945 L 134.748047 134.657227 L 137.44043 128.912109 L 140.132812 122.683594 L 143.162109 115.095703 L 146.191406 106.898438 L 149.220703 98.085938 L 152.586914 87.577148 L 155.950195 76.3125 L 159.316406 64.291992 L 163.019531 50.197266 L 166.719727 35.188477 L 170.422852 19.262695 L 171.09375 16.268555 " transform="matrix(1.333333,0,0,1.333333,0.000000000000056843,0)"/>
<path style="fill:none;stroke-width:1.5;stroke-linecap:butt;stroke-linejoin:round;stroke:rgb(74.901962%,0%,74.901962%);stroke-opacity:1;stroke-dasharray:5.55,2.4;stroke-miterlimit:4;" d="M 53.642578 80.90918 L 137.777344 128.15918 " transform="matrix(1.333333,0,0,1.333333,0.000000000000056843,0)"/>
<path style="fill:none;stroke-width:0.8;stroke-linecap:square;stroke-linejoin:miter;stroke:rgb(0%,0%,0%);stroke-opacity:1;stroke-miterlimit:4;" d="M 30.102539 173.519531 L 30.102539 7.201172 " transform="matrix(1.333333,0,0,1.333333,0.000000000000056843,0)"/>
<path style="fill:none;stroke-width:0.8;stroke-linecap:square;stroke-linejoin:miter;stroke:rgb(0%,0%,0%);stroke-opacity:1;stroke-miterlimit:4;" d="M 177.808594 173.519531 L 177.808594 7.201172 " transform="matrix(1.333333,0,0,1.333333,0.000000000000056843,0)"/>
<path style="fill:none;stroke-width:0.8;stroke-linecap:square;stroke-linejoin:miter;stroke:rgb(0%,0%,0%);stroke-opacity:1;stroke-miterlimit:4;" d="M 30.102539 173.519531 L 177.808594 173.519531 " transform="matrix(1.333333,0,0,1.333333,0.000000000000056843,0)"/>
<path style="fill:none;stroke-width:0.8;stroke-linecap:square;stroke-linejoin:miter;stroke:rgb(0%,0%,0%);stroke-opacity:1;stroke-miterlimit:4;" d="M 30.102539 7.201172 L 177.808594 7.201172 " transform="matrix(1.333333,0,0,1.333333,0.000000000000056843,0)"/>
<path style=" stroke:none;fill-rule:nonzero;fill:rgb(100%,100%,100%);fill-opacity:1;" d="M 276.46875 231.359375 L 473.40625 231.359375 L 473.40625 9.601562 L 276.46875 9.601562 Z M 276.46875 231.359375 "/>
<g clip-path="url(#clip9)" clip-rule="nonzero">
<path style="fill:none;stroke-width:0.8;stroke-linecap:square;stroke-linejoin:round;stroke:rgb(69.01961%,69.01961%,69.01961%);stroke-opacity:1;stroke-miterlimit:4;" d="M 214.063477 173.519531 L 214.063477 7.201172 " transform="matrix(1.333333,0,0,1.333333,0.000000000000056843,0)"/>
</g>
<path style="fill:none;stroke-width:0.8;stroke-linecap:butt;stroke-linejoin:round;stroke:rgb(0%,0%,0%);stroke-opacity:1;stroke-miterlimit:4;" d="M -0.000610352 -0.000473022 L -0.000610352 3.500504 " transform="matrix(1.333333,0,0,1.333333,285.418783,231.360006)"/>
<path style=" stroke:none;fill-rule:nonzero;fill:rgb(0%,0%,0%);fill-opacity:1;" d="M 277.003906 246.089844 L 285.347656 246.089844 L 285.347656 247.199219 L 277.003906 247.199219 Z M 277.003906 246.089844 "/>
<path style=" stroke:none;fill-rule:nonzero;fill:rgb(0%,0%,0%);fill-opacity:1;" d="M 289.320312 249.71875 L 293.910156 249.71875 L 293.910156 250.824219 L 287.738281 250.824219 L 287.738281 249.71875 C 288.238281 249.203125 288.917969 248.507812 289.777344 247.640625 C 290.640625 246.769531 291.183594 246.207031 291.402344 245.953125 C 291.824219 245.480469 292.117188 245.082031 292.285156 244.753906 C 292.453125 244.425781 292.539062 244.105469 292.539062 243.785156 C 292.539062 243.269531 292.355469 242.847656 291.992188 242.523438 C 291.632812 242.199219 291.160156 242.035156 290.578125 242.035156 C 290.164062 242.035156 289.730469 242.105469 289.269531 242.25 C 288.8125 242.394531 288.324219 242.609375 287.804688 242.902344 L 287.804688 241.574219 C 288.332031 241.359375 288.828125 241.199219 289.289062 241.089844 C 289.75 240.984375 290.171875 240.929688 290.550781 240.929688 C 291.558594 240.929688 292.363281 241.179688 292.960938 241.683594 C 293.558594 242.1875 293.859375 242.859375 293.859375 243.703125 C 293.859375 244.101562 293.785156 244.480469 293.632812 244.839844 C 293.484375 245.195312 293.210938 245.617188 292.816406 246.105469 C 292.707031 246.230469 292.363281 246.59375 291.78125 247.195312 C 291.199219 247.796875 290.378906 248.636719 289.320312 249.71875 Z M 289.320312 249.71875 "/>
<g clip-path="url(#clip10)" clip-rule="nonzero">
<path style="fill:none;stroke-width:0.8;stroke-linecap:square;stroke-linejoin:round;stroke:rgb(69.01961%,69.01961%,69.01961%);stroke-opacity:1;stroke-miterlimit:4;" d="M 281.370117 173.519531 L 281.370117 7.201172 " transform="matrix(1.333333,0,0,1.333333,0.000000000000056843,0)"/>
</g>
<path style="fill:none;stroke-width:0.8;stroke-linecap:butt;stroke-linejoin:round;stroke:rgb(0%,0%,0%);stroke-opacity:1;stroke-miterlimit:4;" d="M -0.00128174 -0.000473022 L -0.00128174 3.500504 " transform="matrix(1.333333,0,0,1.333333,375.161865,231.360006)"/>
<path style=" stroke:none;fill-rule:nonzero;fill:rgb(0%,0%,0%);fill-opacity:1;" d="M 375.15625 241.96875 C 374.480469 241.96875 373.972656 242.304688 373.628906 242.96875 C 373.289062 243.636719 373.121094 244.636719 373.121094 245.972656 C 373.121094 247.304688 373.289062 248.304688 373.628906 248.972656 C 373.972656 249.640625 374.480469 249.972656 375.15625 249.972656 C 375.839844 249.972656 376.351562 249.640625 376.691406 248.972656 C 377.03125 248.304688 377.203125 247.304688 377.203125 245.972656 C 377.203125 244.636719 377.03125 243.636719 376.691406 242.96875 C 376.351562 242.304688 375.839844 241.96875 375.15625 241.96875 Z M 375.15625 240.929688 C 376.246094 240.929688 377.082031 241.359375 377.65625 242.222656 C 378.230469 243.082031 378.519531 244.335938 378.519531 245.972656 C 378.519531 247.609375 378.230469 248.859375 377.65625 249.722656 C 377.082031 250.582031 376.246094 251.015625 375.15625 251.015625 C 374.070312 251.015625 373.238281 250.582031 372.660156 249.722656 C 372.085938 248.859375 371.800781 247.609375 371.800781 245.972656 C 371.800781 244.335938 372.085938 243.082031 372.660156 242.222656 C 373.238281 241.359375 374.070312 240.929688 375.15625 240.929688 Z M 375.15625 240.929688 "/>
<g clip-path="url(#clip11)" clip-rule="nonzero">
<path style="fill:none;stroke-width:0.8;stroke-linecap:square;stroke-linejoin:round;stroke:rgb(69.01961%,69.01961%,69.01961%);stroke-opacity:1;stroke-miterlimit:4;" d="M 348.679687 173.519531 L 348.679687 7.201172 " transform="matrix(1.333333,0,0,1.333333,0.000000000000056843,0)"/>
</g>
<path style="fill:none;stroke-width:0.8;stroke-linecap:butt;stroke-linejoin:round;stroke:rgb(0%,0%,0%);stroke-opacity:1;stroke-miterlimit:4;" d="M 0.000976562 -0.000473022 L 0.000976562 3.500504 " transform="matrix(1.333333,0,0,1.333333,464.904948,231.360006)"/>
<path style=" stroke:none;fill-rule:nonzero;fill:rgb(0%,0%,0%);fill-opacity:1;" d="M 463.222656 249.71875 L 467.8125 249.71875 L 467.8125 250.824219 L 461.640625 250.824219 L 461.640625 249.71875 C 462.140625 249.203125 462.820312 248.507812 463.679688 247.640625 C 464.542969 246.769531 465.085938 246.207031 465.304688 245.953125 C 465.726562 245.480469 466.019531 245.082031 466.1875 244.753906 C 466.355469 244.425781 466.4375 244.105469 466.4375 243.785156 C 466.4375 243.269531 466.257812 242.847656 465.894531 242.523438 C 465.53125 242.199219 465.058594 242.035156 464.476562 242.035156 C 464.066406 242.035156 463.628906 242.105469 463.171875 242.25 C 462.714844 242.394531 462.226562 242.609375 461.703125 242.902344 L 461.703125 241.574219 C 462.234375 241.359375 462.730469 241.199219 463.1875 241.089844 C 463.648438 240.984375 464.070312 240.929688 464.453125 240.929688 C 465.460938 240.929688 466.261719 241.179688 466.859375 241.683594 C 467.460938 242.1875 467.757812 242.859375 467.757812 243.703125 C 467.757812 244.101562 467.683594 244.480469 467.535156 244.839844 C 467.386719 245.195312 467.113281 245.617188 466.71875 246.105469 C 466.609375 246.230469 466.265625 246.59375 465.683594 247.195312 C 465.101562 247.796875 464.28125 248.636719 463.222656 249.71875 Z M 463.222656 249.71875 "/>
<g clip-path="url(#clip12)" clip-rule="nonzero">
<path style="fill:none;stroke-width:0.8;stroke-linecap:square;stroke-linejoin:round;stroke:rgb(69.01961%,69.01961%,69.01961%);stroke-opacity:1;stroke-miterlimit:4;" d="M 207.351562 165.960938 L 355.054687 165.960938 " transform="matrix(1.333333,0,0,1.333333,0.000000000000056843,0)"/>
</g>
<path style="fill:none;stroke-width:0.8;stroke-linecap:butt;stroke-linejoin:round;stroke:rgb(0%,0%,0%);stroke-opacity:1;stroke-miterlimit:4;" d="M 0.00137329 0.000930786 L -3.499603 0.000930786 " transform="matrix(1.333333,0,0,1.333333,276.466919,221.280009)"/>
<path style=" stroke:none;fill-rule:nonzero;fill:rgb(0%,0%,0%);fill-opacity:1;" d="M 236.167969 221.613281 L 244.515625 221.613281 L 244.515625 222.71875 L 236.167969 222.71875 Z M 236.167969 221.613281 "/>
<path style=" stroke:none;fill-rule:nonzero;fill:rgb(0%,0%,0%);fill-opacity:1;" d="M 247.582031 225.238281 L 249.730469 225.238281 L 249.730469 217.824219 L 247.394531 218.292969 L 247.394531 217.09375 L 249.71875 216.625 L 251.03125 216.625 L 251.03125 225.238281 L 253.179688 225.238281 L 253.179688 226.34375 L 247.582031 226.34375 Z M 247.582031 225.238281 "/>
<path style=" stroke:none;fill-rule:nonzero;fill:rgb(0%,0%,0%);fill-opacity:1;" d="M 255.835938 224.691406 L 257.210938 224.691406 L 257.210938 226.34375 L 255.835938 226.34375 Z M 255.835938 224.691406 "/>
<path style=" stroke:none;fill-rule:nonzero;fill:rgb(0%,0%,0%);fill-opacity:1;" d="M 262.886719 217.492188 C 262.210938 217.492188 261.703125 217.824219 261.359375 218.492188 C 261.019531 219.15625 260.851562 220.15625 260.851562 221.496094 C 260.851562 222.828125 261.019531 223.828125 261.359375 224.492188 C 261.703125 225.160156 262.210938 225.492188 262.886719 225.492188 C 263.570312 225.492188 264.082031 225.160156 264.421875 224.492188 C 264.761719 223.828125 264.933594 222.828125 264.933594 221.496094 C 264.933594 220.15625 264.761719 219.15625 264.421875 218.492188 C 264.082031 217.824219 263.570312 217.492188 262.886719 217.492188 Z M 262.886719 216.449219 C 263.976562 216.449219 264.808594 216.882812 265.386719 217.742188 C 265.960938 218.605469 266.246094 219.855469 266.246094 221.496094 C 266.246094 223.132812 265.960938 224.382812 265.386719 225.242188 C 264.808594 226.105469 263.976562 226.535156 262.886719 226.535156 C 261.796875 226.535156 260.964844 226.105469 260.390625 225.242188 C 259.816406 224.382812 259.527344 223.132812 259.527344 221.496094 C 259.527344 219.855469 259.816406 218.605469 260.390625 217.742188 C 260.964844 216.882812 261.796875 216.449219 262.886719 216.449219 Z M 262.886719 216.449219 "/>
<g clip-path="url(#clip13)" clip-rule="nonzero">
<path style="fill:none;stroke-width:0.8;stroke-linecap:square;stroke-linejoin:round;stroke:rgb(69.01961%,69.01961%,69.01961%);stroke-opacity:1;stroke-miterlimit:4;" d="M 207.351562 128.15918 L 355.054687 128.15918 " transform="matrix(1.333333,0,0,1.333333,0.000000000000056843,0)"/>
</g>
<path style="fill:none;stroke-width:0.8;stroke-linecap:butt;stroke-linejoin:round;stroke:rgb(0%,0%,0%);stroke-opacity:1;stroke-miterlimit:4;" d="M 0.00137329 -0.000823975 L -3.499603 -0.000823975 " transform="matrix(1.333333,0,0,1.333333,276.466919,170.880005)"/>
<path style=" stroke:none;fill-rule:nonzero;fill:rgb(0%,0%,0%);fill-opacity:1;" d="M 236.167969 171.210938 L 244.515625 171.210938 L 244.515625 172.320312 L 236.167969 172.320312 Z M 236.167969 171.210938 "/>
<path style=" stroke:none;fill-rule:nonzero;fill:rgb(0%,0%,0%);fill-opacity:1;" d="M 250.164062 167.089844 C 249.488281 167.089844 248.980469 167.425781 248.640625 168.089844 C 248.296875 168.757812 248.128906 169.757812 248.128906 171.09375 C 248.128906 172.425781 248.296875 173.425781 248.640625 174.09375 C 248.980469 174.761719 249.488281 175.09375 250.164062 175.09375 C 250.847656 175.09375 251.359375 174.761719 251.699219 174.09375 C 252.039062 173.425781 252.210938 172.425781 252.210938 171.09375 C 252.210938 169.757812 252.039062 168.757812 251.699219 168.089844 C 251.359375 167.425781 250.847656 167.089844 250.164062 167.089844 Z M 250.164062 166.050781 C 251.257812 166.050781 252.089844 166.480469 252.664062 167.34375 C 253.238281 168.203125 253.527344 169.457031 253.527344 171.09375 C 253.527344 172.730469 253.238281 173.980469 252.664062 174.84375 C 252.089844 175.703125 251.257812 176.136719 250.164062 176.136719 C 249.078125 176.136719 248.246094 175.703125 247.671875 174.84375 C 247.09375 173.980469 246.808594 172.730469 246.808594 171.09375 C 246.808594 169.457031 247.09375 168.203125 247.671875 167.34375 C 248.246094 166.480469 249.078125 166.050781 250.164062 166.050781 Z M 250.164062 166.050781 "/>
<path style=" stroke:none;fill-rule:nonzero;fill:rgb(0%,0%,0%);fill-opacity:1;" d="M 255.835938 174.292969 L 257.210938 174.292969 L 257.210938 175.945312 L 255.835938 175.945312 Z M 255.835938 174.292969 "/>
<path style=" stroke:none;fill-rule:nonzero;fill:rgb(0%,0%,0%);fill-opacity:1;" d="M 260.089844 166.226562 L 265.25 166.226562 L 265.25 167.332031 L 261.292969 167.332031 L 261.292969 169.714844 C 261.484375 169.648438 261.675781 169.601562 261.863281 169.570312 C 262.054688 169.535156 262.246094 169.519531 262.4375 169.519531 C 263.523438 169.519531 264.382812 169.816406 265.015625 170.414062 C 265.652344 171.007812 265.96875 171.8125 265.96875 172.828125 C 265.96875 173.871094 265.644531 174.6875 264.992188 175.265625 C 264.339844 175.84375 263.421875 176.136719 262.238281 176.136719 C 261.828125 176.136719 261.414062 176.101562 260.988281 176.03125 C 260.566406 175.960938 260.128906 175.859375 259.679688 175.71875 L 259.679688 174.394531 C 260.070312 174.609375 260.472656 174.765625 260.890625 174.871094 C 261.304688 174.976562 261.746094 175.027344 262.210938 175.027344 C 262.960938 175.027344 263.554688 174.828125 263.992188 174.433594 C 264.433594 174.039062 264.652344 173.503906 264.652344 172.828125 C 264.652344 172.152344 264.433594 171.613281 263.992188 171.21875 C 263.554688 170.824219 262.960938 170.625 262.210938 170.625 C 261.859375 170.625 261.507812 170.664062 261.15625 170.742188 C 260.808594 170.820312 260.453125 170.941406 260.089844 171.109375 Z M 260.089844 166.226562 "/>
<g clip-path="url(#clip14)" clip-rule="nonzero">
<path style="fill:none;stroke-width:0.8;stroke-linecap:square;stroke-linejoin:round;stroke:rgb(69.01961%,69.01961%,69.01961%);stroke-opacity:1;stroke-miterlimit:4;" d="M 207.351562 90.360352 L 355.054687 90.360352 " transform="matrix(1.333333,0,0,1.333333,0.000000000000056843,0)"/>
</g>
<path style="fill:none;stroke-width:0.8;stroke-linecap:butt;stroke-linejoin:round;stroke:rgb(0%,0%,0%);stroke-opacity:1;stroke-miterlimit:4;" d="M 0.00137329 0.000350952 L -3.499603 0.000350952 " transform="matrix(1.333333,0,0,1.333333,276.466919,120.480001)"/>
<path style=" stroke:none;fill-rule:nonzero;fill:rgb(0%,0%,0%);fill-opacity:1;" d="M 250.167969 116.691406 C 249.492188 116.691406 248.980469 117.023438 248.640625 117.691406 C 248.300781 118.355469 248.128906 119.359375 248.128906 120.695312 C 248.128906 122.027344 248.300781 123.027344 248.640625 123.695312 C 248.980469 124.359375 249.492188 124.695312 250.167969 124.695312 C 250.847656 124.695312 251.359375 124.359375 251.699219 123.695312 C 252.042969 123.027344 252.210938 122.027344 252.210938 120.695312 C 252.210938 119.359375 252.042969 118.355469 251.699219 117.691406 C 251.359375 117.023438 250.847656 116.691406 250.167969 116.691406 Z M 250.167969 115.648438 C 251.257812 115.648438 252.089844 116.082031 252.664062 116.945312 C 253.238281 117.804688 253.527344 119.054688 253.527344 120.695312 C 253.527344 122.332031 253.238281 123.582031 252.664062 124.445312 C 252.089844 125.304688 251.257812 125.734375 250.167969 125.734375 C 249.078125 125.734375 248.246094 125.304688 247.671875 124.445312 C 247.097656 123.582031 246.808594 122.332031 246.808594 120.695312 C 246.808594 119.054688 247.097656 117.804688 247.671875 116.945312 C 248.246094 116.082031 249.078125 115.648438 250.167969 115.648438 Z M 250.167969 115.648438 "/>
<path style=" stroke:none;fill-rule:nonzero;fill:rgb(0%,0%,0%);fill-opacity:1;" d="M 255.835938 123.890625 L 257.210938 123.890625 L 257.210938 125.546875 L 255.835938 125.546875 Z M 255.835938 123.890625 "/>
<path style=" stroke:none;fill-rule:nonzero;fill:rgb(0%,0%,0%);fill-opacity:1;" d="M 262.886719 116.691406 C 262.210938 116.691406 261.703125 117.023438 261.359375 117.691406 C 261.019531 118.355469 260.851562 119.359375 260.851562 120.695312 C 260.851562 122.027344 261.019531 123.027344 261.359375 123.695312 C 261.703125 124.359375 262.210938 124.695312 262.886719 124.695312 C 263.570312 124.695312 264.082031 124.359375 264.421875 123.695312 C 264.761719 123.027344 264.933594 122.027344 264.933594 120.695312 C 264.933594 119.359375 264.761719 118.355469 264.421875 117.691406 C 264.082031 117.023438 263.570312 116.691406 262.886719 116.691406 Z M 262.886719 115.648438 C 263.980469 115.648438 264.8125 116.082031 265.386719 116.945312 C 265.960938 117.804688 266.25 119.054688 266.25 120.695312 C 266.25 122.332031 265.960938 123.582031 265.386719 124.445312 C 264.8125 125.304688 263.980469 125.734375 262.886719 125.734375 C 261.800781 125.734375 260.96875 125.304688 260.390625 124.445312 C 259.816406 123.582031 259.53125 122.332031 259.53125 120.695312 C 259.53125 119.054688 259.816406 117.804688 260.390625 116.945312 C 260.96875 116.082031 261.800781 115.648438 262.886719 115.648438 Z M 262.886719 115.648438 "/>
<g clip-path="url(#clip15)" clip-rule="nonzero">
<path style="fill:none;stroke-width:0.8;stroke-linecap:square;stroke-linejoin:round;stroke:rgb(69.01961%,69.01961%,69.01961%);stroke-opacity:1;stroke-miterlimit:4;" d="M 207.351562 52.558594 L 355.054687 52.558594 " transform="matrix(1.333333,0,0,1.333333,0.000000000000056843,0)"/>
</g>
<path style="fill:none;stroke-width:0.8;stroke-linecap:butt;stroke-linejoin:round;stroke:rgb(0%,0%,0%);stroke-opacity:1;stroke-miterlimit:4;" d="M 0.00137329 -0.00140762 L -3.499603 -0.00140762 " transform="matrix(1.333333,0,0,1.333333,276.466919,70.080002)"/>
<path style=" stroke:none;fill-rule:nonzero;fill:rgb(0%,0%,0%);fill-opacity:1;" d="M 250.167969 66.292969 C 249.492188 66.292969 248.980469 66.625 248.640625 67.292969 C 248.300781 67.957031 248.128906 68.957031 248.128906 70.296875 C 248.128906 71.628906 248.300781 72.625 248.640625 73.292969 C 248.980469 73.960938 249.492188 74.292969 250.167969 74.292969 C 250.847656 74.292969 251.359375 73.960938 251.699219 73.292969 C 252.042969 72.625 252.210938 71.628906 252.210938 70.296875 C 252.210938 68.957031 252.042969 67.957031 251.699219 67.292969 C 251.359375 66.625 250.847656 66.292969 250.167969 66.292969 Z M 250.167969 65.25 C 251.257812 65.25 252.089844 65.679688 252.664062 66.542969 C 253.238281 67.40625 253.527344 68.65625 253.527344 70.296875 C 253.527344 71.933594 253.238281 73.179688 252.664062 74.042969 C 252.089844 74.90625 251.257812 75.335938 250.167969 75.335938 C 249.078125 75.335938 248.246094 74.90625 247.671875 74.042969 C 247.097656 73.179688 246.808594 71.933594 246.808594 70.296875 C 246.808594 68.65625 247.097656 67.40625 247.671875 66.542969 C 248.246094 65.679688 249.078125 65.25 250.167969 65.25 Z M 250.167969 65.25 "/>
<path style=" stroke:none;fill-rule:nonzero;fill:rgb(0%,0%,0%);fill-opacity:1;" d="M 255.835938 73.492188 L 257.210938 73.492188 L 257.210938 75.144531 L 255.835938 75.144531 Z M 255.835938 73.492188 "/>
<path style=" stroke:none;fill-rule:nonzero;fill:rgb(0%,0%,0%);fill-opacity:1;" d="M 260.089844 65.425781 L 265.253906 65.425781 L 265.253906 66.53125 L 261.292969 66.53125 L 261.292969 68.914062 C 261.484375 68.847656 261.675781 68.800781 261.867188 68.769531 C 262.058594 68.738281 262.25 68.71875 262.441406 68.71875 C 263.523438 68.71875 264.382812 69.019531 265.015625 69.613281 C 265.652344 70.207031 265.96875 71.011719 265.96875 72.027344 C 265.96875 73.074219 265.644531 73.886719 264.992188 74.464844 C 264.339844 75.046875 263.421875 75.335938 262.238281 75.335938 C 261.828125 75.335938 261.414062 75.300781 260.992188 75.230469 C 260.566406 75.160156 260.132812 75.058594 259.679688 74.917969 L 259.679688 73.59375 C 260.070312 73.808594 260.472656 73.964844 260.890625 74.070312 C 261.308594 74.175781 261.746094 74.226562 262.210938 74.226562 C 262.960938 74.226562 263.558594 74.03125 263.996094 73.636719 C 264.433594 73.242188 264.652344 72.703125 264.652344 72.027344 C 264.652344 71.351562 264.433594 70.816406 263.996094 70.421875 C 263.558594 70.023438 262.960938 69.828125 262.210938 69.828125 C 261.859375 69.828125 261.507812 69.867188 261.160156 69.945312 C 260.808594 70.019531 260.453125 70.144531 260.089844 70.308594 Z M 260.089844 65.425781 "/>
<g clip-path="url(#clip16)" clip-rule="nonzero">
<path style="fill:none;stroke-width:0.8;stroke-linecap:square;stroke-linejoin:round;stroke:rgb(69.01961%,69.01961%,69.01961%);stroke-opacity:1;stroke-miterlimit:4;" d="M 207.351562 14.759766 L 355.054687 14.759766 " transform="matrix(1.333333,0,0,1.333333,0.000000000000056843,0)"/>
</g>
<path style="fill:none;stroke-width:0.8;stroke-linecap:butt;stroke-linejoin:round;stroke:rgb(0%,0%,0%);stroke-opacity:1;stroke-miterlimit:4;" d="M 0.00137329 -0.000234604 L -3.499603 -0.000234604 " transform="matrix(1.333333,0,0,1.333333,276.466919,19.68)"/>
<path style=" stroke:none;fill-rule:nonzero;fill:rgb(0%,0%,0%);fill-opacity:1;" d="M 247.582031 23.640625 L 249.730469 23.640625 L 249.730469 16.222656 L 247.394531 16.691406 L 247.394531 15.492188 L 249.71875 15.023438 L 251.035156 15.023438 L 251.035156 23.640625 L 253.179688 23.640625 L 253.179688 24.746094 L 247.582031 24.746094 Z M 247.582031 23.640625 "/>
<path style=" stroke:none;fill-rule:nonzero;fill:rgb(0%,0%,0%);fill-opacity:1;" d="M 255.835938 23.089844 L 257.210938 23.089844 L 257.210938 24.746094 L 255.835938 24.746094 Z M 255.835938 23.089844 "/>
<path style=" stroke:none;fill-rule:nonzero;fill:rgb(0%,0%,0%);fill-opacity:1;" d="M 262.886719 15.890625 C 262.210938 15.890625 261.703125 16.226562 261.359375 16.890625 C 261.019531 17.558594 260.851562 18.558594 260.851562 19.894531 C 260.851562 21.226562 261.019531 22.226562 261.359375 22.894531 C 261.703125 23.558594 262.210938 23.894531 262.886719 23.894531 C 263.570312 23.894531 264.082031 23.558594 264.421875 22.894531 C 264.761719 22.226562 264.933594 21.226562 264.933594 19.894531 C 264.933594 18.558594 264.761719 17.558594 264.421875 16.890625 C 264.082031 16.226562 263.570312 15.890625 262.886719 15.890625 Z M 262.886719 14.851562 C 263.980469 14.851562 264.8125 15.28125 265.386719 16.144531 C 265.960938 17.003906 266.25 18.253906 266.25 19.894531 C 266.25 21.53125 265.960938 22.78125 265.386719 23.644531 C 264.8125 24.503906 263.980469 24.933594 262.886719 24.933594 C 261.800781 24.933594 260.96875 24.503906 260.390625 23.644531 C 259.816406 22.78125 259.53125 21.53125 259.53125 19.894531 C 259.53125 18.253906 259.816406 17.003906 260.390625 16.144531 C 260.96875 15.28125 261.800781 14.851562 262.886719 14.851562 Z M 262.886719 14.851562 "/>
<path style="fill:none;stroke-width:1.5;stroke-linecap:square;stroke-linejoin:round;stroke:rgb(12.156863%,46.666667%,70.588237%);stroke-opacity:1;stroke-miterlimit:4;" d="M 214.063477 14.759766 L 214.737305 14.90918 L 215.411133 15.357422 L 216.082031 16.098633 L 216.755859 17.135742 L 217.766602 19.230469 L 218.774414 21.955078 L 219.785156 25.289062 L 221.132812 30.624023 L 222.477539 36.902344 L 224.15918 45.922852 L 226.180664 58.171875 L 228.873047 76.195312 L 235.939453 124.681641 L 237.958008 136.696289 L 239.639648 145.470703 L 240.987305 151.520508 L 242.332031 156.609375 L 243.342773 159.741211 L 244.353516 162.260742 L 245.361328 164.138672 L 246.035156 165.029297 L 246.708984 165.624023 L 247.379883 165.922852 L 248.053711 165.922852 L 248.727539 165.624023 L 249.401367 165.029297 L 250.072266 164.138672 L 250.746094 162.958008 L 251.756836 160.652344 L 252.764648 157.719727 L 253.775391 154.192383 L 255.120117 148.611328 L 256.467773 142.110352 L 258.149414 132.852539 L 260.170898 120.383789 L 262.863281 102.1875 L 269.255859 58.171875 L 271.274414 45.922852 L 272.958984 36.902344 L 274.303711 30.624023 L 275.651367 25.289062 L 276.996094 20.976562 L 278.006836 18.459961 L 279.014648 16.582031 L 279.688477 15.691406 L 280.362305 15.09668 L 281.036133 14.797852 L 281.707031 14.797852 L 282.380859 15.09668 L 283.054687 15.691406 L 283.728516 16.582031 L 284.399414 17.762695 L 285.410156 20.068359 L 286.420898 23.000977 L 287.428711 26.52832 L 288.776367 32.109375 L 290.121094 38.607422 L 291.802734 47.865234 L 293.824219 60.336914 L 296.516602 78.533203 L 302.90918 122.548828 L 304.927734 134.797852 L 306.612305 143.818359 L 307.957031 150.09668 L 309.304687 155.431641 L 310.649414 159.741211 L 311.660156 162.260742 L 312.667969 164.138672 L 313.341797 165.029297 L 314.015625 165.624023 L 314.689453 165.922852 L 315.360352 165.922852 L 316.03418 165.624023 L 316.708008 165.029297 L 317.381836 164.138672 L 318.052734 162.958008 L 319.063477 160.652344 L 320.074219 157.719727 L 321.082031 154.192383 L 322.429687 148.611328 L 323.774414 142.110352 L 325.458984 132.852539 L 327.477539 120.383789 L 330.169922 102.1875 L 336.5625 58.171875 L 338.583984 45.922852 L 340.265625 36.902344 L 341.610352 30.624023 L 342.958008 25.289062 L 344.302734 20.976562 L 345.313477 18.459961 L 346.324219 16.582031 L 346.995117 15.691406 L 347.668945 15.09668 L 348.342773 14.797852 " transform="matrix(1.333333,0,0,1.333333,0.000000000000056843,0)"/>
<path style="fill:none;stroke-width:1.5;stroke-linecap:butt;stroke-linejoin:round;stroke:rgb(74.901962%,0%,74.901962%);stroke-opacity:1;stroke-dasharray:5.55,2.4;stroke-miterlimit:4;" d="M 230.891602 90.360352 L 315.026367 165.960938 " transform="matrix(1.333333,0,0,1.333333,0.000000000000056843,0)"/>
<path style="fill:none;stroke-width:0.8;stroke-linecap:square;stroke-linejoin:miter;stroke:rgb(0%,0%,0%);stroke-opacity:1;stroke-miterlimit:4;" d="M 207.351562 173.519531 L 207.351562 7.201172 " transform="matrix(1.333333,0,0,1.333333,0.000000000000056843,0)"/>
<path style="fill:none;stroke-width:0.8;stroke-linecap:square;stroke-linejoin:miter;stroke:rgb(0%,0%,0%);stroke-opacity:1;stroke-miterlimit:4;" d="M 355.054687 173.519531 L 355.054687 7.201172 " transform="matrix(1.333333,0,0,1.333333,0.000000000000056843,0)"/>
<path style="fill:none;stroke-width:0.8;stroke-linecap:square;stroke-linejoin:miter;stroke:rgb(0%,0%,0%);stroke-opacity:1;stroke-miterlimit:4;" d="M 207.351562 173.519531 L 355.054687 173.519531 " transform="matrix(1.333333,0,0,1.333333,0.000000000000056843,0)"/>
<path style="fill:none;stroke-width:0.8;stroke-linecap:square;stroke-linejoin:miter;stroke:rgb(0%,0%,0%);stroke-opacity:1;stroke-miterlimit:4;" d="M 207.351562 7.201172 L 355.054687 7.201172 " transform="matrix(1.333333,0,0,1.333333,0.000000000000056843,0)"/>
<path style=" stroke:none;fill-rule:nonzero;fill:rgb(100%,100%,100%);fill-opacity:1;" d="M 512.796875 231.359375 L 709.738281 231.359375 L 709.738281 9.601562 L 512.796875 9.601562 Z M 512.796875 231.359375 "/>
<g clip-path="url(#clip17)" clip-rule="nonzero">
<path style="fill:none;stroke-width:0.8;stroke-linecap:square;stroke-linejoin:round;stroke:rgb(69.01961%,69.01961%,69.01961%);stroke-opacity:1;stroke-miterlimit:4;" d="M 391.3125 173.519531 L 391.3125 7.201172 " transform="matrix(1.333333,0,0,1.333333,0.000000000000056843,0)"/>
</g>
<path style="fill:none;stroke-width:0.8;stroke-linecap:butt;stroke-linejoin:round;stroke:rgb(0%,0%,0%);stroke-opacity:1;stroke-miterlimit:4;" d="M 0.00134277 -0.000473022 L 0.00134277 3.500504 " transform="matrix(1.333333,0,0,1.333333,521.74821,231.360006)"/>
<path style=" stroke:none;fill-rule:nonzero;fill:rgb(0%,0%,0%);fill-opacity:1;" d="M 513.332031 246.089844 L 521.679688 246.089844 L 521.679688 247.199219 L 513.332031 247.199219 Z M 513.332031 246.089844 "/>
<path style=" stroke:none;fill-rule:nonzero;fill:rgb(0%,0%,0%);fill-opacity:1;" d="M 525.648438 249.71875 L 530.238281 249.71875 L 530.238281 250.824219 L 524.070312 250.824219 L 524.070312 249.71875 C 524.566406 249.203125 525.246094 248.507812 526.109375 247.640625 C 526.972656 246.769531 527.511719 246.207031 527.734375 245.953125 C 528.15625 245.480469 528.449219 245.082031 528.613281 244.753906 C 528.78125 244.425781 528.867188 244.105469 528.867188 243.785156 C 528.867188 243.269531 528.6875 242.847656 528.324219 242.523438 C 527.960938 242.199219 527.488281 242.035156 526.90625 242.035156 C 526.492188 242.035156 526.058594 242.105469 525.601562 242.25 C 525.144531 242.394531 524.65625 242.609375 524.132812 242.902344 L 524.132812 241.574219 C 524.664062 241.359375 525.15625 241.199219 525.617188 241.089844 C 526.078125 240.984375 526.5 240.929688 526.882812 240.929688 C 527.886719 240.929688 528.691406 241.179688 529.289062 241.683594 C 529.886719 242.1875 530.1875 242.859375 530.1875 243.703125 C 530.1875 244.101562 530.113281 244.480469 529.960938 244.839844 C 529.8125 245.195312 529.542969 245.617188 529.144531 246.105469 C 529.039062 246.230469 528.691406 246.59375 528.109375 247.195312 C 527.53125 247.796875 526.710938 248.636719 525.648438 249.71875 Z M 525.648438 249.71875 "/>
<g clip-path="url(#clip18)" clip-rule="nonzero">
<path style="fill:none;stroke-width:0.8;stroke-linecap:square;stroke-linejoin:round;stroke:rgb(69.01961%,69.01961%,69.01961%);stroke-opacity:1;stroke-miterlimit:4;" d="M 458.619141 173.519531 L 458.619141 7.201172 " transform="matrix(1.333333,0,0,1.333333,0.000000000000056843,0)"/>
</g>
<path style="fill:none;stroke-width:0.8;stroke-linecap:butt;stroke-linejoin:round;stroke:rgb(0%,0%,0%);stroke-opacity:1;stroke-miterlimit:4;" d="M 0.000701904 -0.000473022 L 0.000701904 3.500504 " transform="matrix(1.333333,0,0,1.333333,611.491252,231.360006)"/>
<path style=" stroke:none;fill-rule:nonzero;fill:rgb(0%,0%,0%);fill-opacity:1;" d="M 611.488281 241.96875 C 610.8125 241.96875 610.300781 242.304688 609.960938 242.96875 C 609.621094 243.636719 609.449219 244.636719 609.449219 245.972656 C 609.449219 247.304688 609.621094 248.304688 609.960938 248.972656 C 610.300781 249.640625 610.8125 249.972656 611.488281 249.972656 C 612.167969 249.972656 612.679688 249.640625 613.019531 248.972656 C 613.363281 248.304688 613.53125 247.304688 613.53125 245.972656 C 613.53125 244.636719 613.363281 243.636719 613.019531 242.96875 C 612.679688 242.304688 612.167969 241.96875 611.488281 241.96875 Z M 611.488281 240.929688 C 612.578125 240.929688 613.410156 241.359375 613.984375 242.222656 C 614.558594 243.082031 614.847656 244.335938 614.847656 245.972656 C 614.847656 247.609375 614.558594 248.859375 613.984375 249.722656 C 613.410156 250.582031 612.578125 251.015625 611.488281 251.015625 C 610.398438 251.015625 609.566406 250.582031 608.992188 249.722656 C 608.417969 248.859375 608.128906 247.609375 608.128906 245.972656 C 608.128906 244.335938 608.417969 243.082031 608.992188 242.222656 C 609.566406 241.359375 610.398438 240.929688 611.488281 240.929688 Z M 611.488281 240.929688 "/>
<g clip-path="url(#clip19)" clip-rule="nonzero">
<path style="fill:none;stroke-width:0.8;stroke-linecap:square;stroke-linejoin:round;stroke:rgb(69.01961%,69.01961%,69.01961%);stroke-opacity:1;stroke-miterlimit:4;" d="M 525.925781 173.519531 L 525.925781 7.201172 " transform="matrix(1.333333,0,0,1.333333,0.000000000000056843,0)"/>
</g>
<path style="fill:none;stroke-width:0.8;stroke-linecap:butt;stroke-linejoin:round;stroke:rgb(0%,0%,0%);stroke-opacity:1;stroke-miterlimit:4;" d="M 0 -0.000473022 L 0 3.500504 " transform="matrix(1.333333,0,0,1.333333,701.234375,231.360006)"/>
<path style=" stroke:none;fill-rule:nonzero;fill:rgb(0%,0%,0%);fill-opacity:1;" d="M 699.550781 249.71875 L 704.140625 249.71875 L 704.140625 250.824219 L 697.96875 250.824219 L 697.96875 249.71875 C 698.46875 249.203125 699.148438 248.507812 700.007812 247.640625 C 700.871094 246.769531 701.414062 246.207031 701.632812 245.953125 C 702.054688 245.480469 702.347656 245.082031 702.515625 244.753906 C 702.683594 244.425781 702.769531 244.105469 702.769531 243.785156 C 702.769531 243.269531 702.585938 242.847656 702.222656 242.523438 C 701.863281 242.199219 701.390625 242.035156 700.808594 242.035156 C 700.394531 242.035156 699.960938 242.105469 699.5 242.25 C 699.042969 242.394531 698.554688 242.609375 698.035156 242.902344 L 698.035156 241.574219 C 698.5625 241.359375 699.058594 241.199219 699.519531 241.089844 C 699.980469 240.984375 700.398438 240.929688 700.78125 240.929688 C 701.789062 240.929688 702.59375 241.179688 703.191406 241.683594 C 703.789062 242.1875 704.089844 242.859375 704.089844 243.703125 C 704.089844 244.101562 704.011719 244.480469 703.863281 244.839844 C 703.714844 245.195312 703.441406 245.617188 703.046875 246.105469 C 702.9375 246.230469 702.59375 246.59375 702.011719 247.195312 C 701.429688 247.796875 700.609375 248.636719 699.550781 249.71875 Z M 699.550781 249.71875 "/>
<g clip-path="url(#clip20)" clip-rule="nonzero">
<path style="fill:none;stroke-width:0.8;stroke-linecap:square;stroke-linejoin:round;stroke:rgb(69.01961%,69.01961%,69.01961%);stroke-opacity:1;stroke-miterlimit:4;" d="M 384.597656 157.412109 L 532.303711 157.412109 " transform="matrix(1.333333,0,0,1.333333,0.000000000000056843,0)"/>
</g>
<path style="fill:none;stroke-width:0.8;stroke-linecap:butt;stroke-linejoin:round;stroke:rgb(0%,0%,0%);stroke-opacity:1;stroke-miterlimit:4;" d="M 0.000427246 0.000656128 L -3.500549 0.000656128 " transform="matrix(1.333333,0,0,1.333333,512.796305,209.881938)"/>
<path style=" stroke:none;fill-rule:nonzero;fill:rgb(0%,0%,0%);fill-opacity:1;" d="M 486.496094 206.09375 C 485.820312 206.09375 485.3125 206.425781 484.96875 207.09375 C 484.628906 207.757812 484.457031 208.761719 484.457031 210.097656 C 484.457031 211.429688 484.628906 212.429688 484.96875 213.09375 C 485.3125 213.761719 485.820312 214.09375 486.496094 214.09375 C 487.179688 214.09375 487.6875 213.761719 488.03125 213.09375 C 488.371094 212.429688 488.542969 211.429688 488.542969 210.097656 C 488.542969 208.761719 488.371094 207.757812 488.03125 207.09375 C 487.6875 206.425781 487.179688 206.09375 486.496094 206.09375 Z M 486.496094 205.050781 C 487.585938 205.050781 488.417969 205.484375 488.996094 206.34375 C 489.570312 207.207031 489.855469 208.457031 489.855469 210.097656 C 489.855469 211.734375 489.570312 212.984375 488.996094 213.84375 C 488.417969 214.707031 487.585938 215.136719 486.496094 215.136719 C 485.40625 215.136719 484.574219 214.707031 484 213.84375 C 483.425781 212.984375 483.136719 211.734375 483.136719 210.097656 C 483.136719 208.457031 483.425781 207.207031 484 206.34375 C 484.574219 205.484375 485.40625 205.050781 486.496094 205.050781 Z M 486.496094 205.050781 "/>
<path style=" stroke:none;fill-rule:nonzero;fill:rgb(0%,0%,0%);fill-opacity:1;" d="M 492.167969 213.292969 L 493.542969 213.292969 L 493.542969 214.949219 L 492.167969 214.949219 Z M 492.167969 213.292969 "/>
<path style=" stroke:none;fill-rule:nonzero;fill:rgb(0%,0%,0%);fill-opacity:1;" d="M 496.417969 205.226562 L 501.582031 205.226562 L 501.582031 206.335938 L 497.625 206.335938 L 497.625 208.714844 C 497.8125 208.652344 498.003906 208.601562 498.195312 208.570312 C 498.386719 208.539062 498.578125 208.523438 498.769531 208.523438 C 499.855469 208.523438 500.714844 208.820312 501.347656 209.414062 C 501.980469 210.007812 502.300781 210.8125 502.300781 211.828125 C 502.300781 212.875 501.972656 213.6875 501.320312 214.269531 C 500.671875 214.847656 499.753906 215.136719 498.566406 215.136719 C 498.160156 215.136719 497.742188 215.101562 497.320312 215.03125 C 496.898438 214.964844 496.460938 214.859375 496.007812 214.71875 L 496.007812 213.398438 C 496.398438 213.609375 496.804688 213.769531 497.21875 213.871094 C 497.636719 213.976562 498.078125 214.027344 498.539062 214.027344 C 499.292969 214.027344 499.886719 213.832031 500.324219 213.4375 C 500.761719 213.042969 500.980469 212.507812 500.980469 211.828125 C 500.980469 211.152344 500.761719 210.617188 500.324219 210.222656 C 499.886719 209.828125 499.292969 209.628906 498.539062 209.628906 C 498.1875 209.628906 497.839844 209.667969 497.488281 209.746094 C 497.140625 209.824219 496.785156 209.945312 496.417969 210.109375 Z M 496.417969 205.226562 "/>
<g clip-path="url(#clip21)" clip-rule="nonzero">
<path style="fill:none;stroke-width:0.8;stroke-linecap:square;stroke-linejoin:round;stroke:rgb(69.01961%,69.01961%,69.01961%);stroke-opacity:1;stroke-miterlimit:4;" d="M 384.597656 125.05957 L 532.303711 125.05957 " transform="matrix(1.333333,0,0,1.333333,0.000000000000056843,0)"/>
</g>
<path style="fill:none;stroke-width:0.8;stroke-linecap:butt;stroke-linejoin:round;stroke:rgb(0%,0%,0%);stroke-opacity:1;stroke-miterlimit:4;" d="M 0.000427246 -0.000572205 L -3.500549 -0.000572205 " transform="matrix(1.333333,0,0,1.333333,512.796305,166.746857)"/>
<path style=" stroke:none;fill-rule:nonzero;fill:rgb(0%,0%,0%);fill-opacity:1;" d="M 483.914062 170.707031 L 486.0625 170.707031 L 486.0625 163.289062 L 483.722656 163.757812 L 483.722656 162.558594 L 486.046875 162.089844 L 487.363281 162.089844 L 487.363281 170.707031 L 489.511719 170.707031 L 489.511719 171.8125 L 483.914062 171.8125 Z M 483.914062 170.707031 "/>
<path style=" stroke:none;fill-rule:nonzero;fill:rgb(0%,0%,0%);fill-opacity:1;" d="M 492.167969 170.160156 L 493.542969 170.160156 L 493.542969 171.8125 L 492.167969 171.8125 Z M 492.167969 170.160156 "/>
<path style=" stroke:none;fill-rule:nonzero;fill:rgb(0%,0%,0%);fill-opacity:1;" d="M 499.21875 162.957031 C 498.542969 162.957031 498.03125 163.292969 497.691406 163.957031 C 497.351562 164.625 497.179688 165.625 497.179688 166.960938 C 497.179688 168.292969 497.351562 169.292969 497.691406 169.960938 C 498.03125 170.628906 498.542969 170.960938 499.21875 170.960938 C 499.898438 170.960938 500.410156 170.628906 500.75 169.960938 C 501.09375 169.292969 501.261719 168.292969 501.261719 166.960938 C 501.261719 165.625 501.09375 164.625 500.75 163.957031 C 500.410156 163.292969 499.898438 162.957031 499.21875 162.957031 Z M 499.21875 161.917969 C 500.308594 161.917969 501.140625 162.347656 501.714844 163.210938 C 502.289062 164.070312 502.578125 165.320312 502.578125 166.960938 C 502.578125 168.597656 502.289062 169.847656 501.714844 170.710938 C 501.140625 171.570312 500.308594 172.003906 499.21875 172.003906 C 498.128906 172.003906 497.296875 171.570312 496.722656 170.710938 C 496.148438 169.847656 495.859375 168.597656 495.859375 166.960938 C 495.859375 165.320312 496.148438 164.070312 496.722656 163.210938 C 497.296875 162.347656 498.128906 161.917969 499.21875 161.917969 Z M 499.21875 161.917969 "/>
<g clip-path="url(#clip22)" clip-rule="nonzero">
<path style="fill:none;stroke-width:0.8;stroke-linecap:square;stroke-linejoin:round;stroke:rgb(69.01961%,69.01961%,69.01961%);stroke-opacity:1;stroke-miterlimit:4;" d="M 384.597656 92.709961 L 532.303711 92.709961 " transform="matrix(1.333333,0,0,1.333333,0.000000000000056843,0)"/>
</g>
<path style="fill:none;stroke-width:0.8;stroke-linecap:butt;stroke-linejoin:round;stroke:rgb(0%,0%,0%);stroke-opacity:1;stroke-miterlimit:4;" d="M 0.000427246 0.00113678 L -3.500549 0.00113678 " transform="matrix(1.333333,0,0,1.333333,512.796305,123.611766)"/>
<path style=" stroke:none;fill-rule:nonzero;fill:rgb(0%,0%,0%);fill-opacity:1;" d="M 483.914062 127.570312 L 486.0625 127.570312 L 486.0625 120.15625 L 483.722656 120.625 L 483.722656 119.425781 L 486.046875 118.957031 L 487.363281 118.957031 L 487.363281 127.570312 L 489.511719 127.570312 L 489.511719 128.675781 L 483.914062 128.675781 Z M 483.914062 127.570312 "/>
<path style=" stroke:none;fill-rule:nonzero;fill:rgb(0%,0%,0%);fill-opacity:1;" d="M 492.167969 127.023438 L 493.542969 127.023438 L 493.542969 128.675781 L 492.167969 128.675781 Z M 492.167969 127.023438 "/>
<path style=" stroke:none;fill-rule:nonzero;fill:rgb(0%,0%,0%);fill-opacity:1;" d="M 496.417969 118.957031 L 501.582031 118.957031 L 501.582031 120.066406 L 497.625 120.066406 L 497.625 122.445312 C 497.8125 122.382812 498.003906 122.332031 498.195312 122.300781 C 498.386719 122.269531 498.578125 122.253906 498.769531 122.253906 C 499.855469 122.253906 500.714844 122.550781 501.347656 123.144531 C 501.980469 123.738281 502.300781 124.542969 502.300781 125.558594 C 502.300781 126.605469 501.972656 127.417969 501.320312 128 C 500.671875 128.578125 499.753906 128.867188 498.566406 128.867188 C 498.160156 128.867188 497.742188 128.832031 497.320312 128.761719 C 496.898438 128.695312 496.460938 128.589844 496.007812 128.449219 L 496.007812 127.128906 C 496.398438 127.339844 496.804688 127.5 497.21875 127.601562 C 497.636719 127.707031 498.078125 127.757812 498.539062 127.757812 C 499.292969 127.757812 499.886719 127.5625 500.324219 127.167969 C 500.761719 126.773438 500.980469 126.238281 500.980469 125.558594 C 500.980469 124.882812 500.761719 124.347656 500.324219 123.953125 C 499.886719 123.554688 499.292969 123.359375 498.539062 123.359375 C 498.1875 123.359375 497.839844 123.398438 497.488281 123.476562 C 497.140625 123.554688 496.785156 123.675781 496.417969 123.839844 Z M 496.417969 118.957031 "/>
<g clip-path="url(#clip23)" clip-rule="nonzero">
<path style="fill:none;stroke-width:0.8;stroke-linecap:square;stroke-linejoin:round;stroke:rgb(69.01961%,69.01961%,69.01961%);stroke-opacity:1;stroke-miterlimit:4;" d="M 384.597656 60.357422 L 532.303711 60.357422 " transform="matrix(1.333333,0,0,1.333333,0.000000000000056843,0)"/>
</g>
<path style="fill:none;stroke-width:0.8;stroke-linecap:butt;stroke-linejoin:round;stroke:rgb(0%,0%,0%);stroke-opacity:1;stroke-miterlimit:4;" d="M 0.000427246 -0.0000915527 L -3.500549 -0.0000915527 " transform="matrix(1.333333,0,0,1.333333,512.796305,80.476685)"/>
<path style=" stroke:none;fill-rule:nonzero;fill:rgb(0%,0%,0%);fill-opacity:1;" d="M 484.816406 84.4375 L 489.40625 84.4375 L 489.40625 85.542969 L 483.234375 85.542969 L 483.234375 84.4375 C 483.734375 83.917969 484.414062 83.226562 485.277344 82.355469 C 486.136719 81.484375 486.679688 80.925781 486.902344 80.671875 C 487.320312 80.199219 487.613281 79.800781 487.78125 79.472656 C 487.949219 79.144531 488.035156 78.820312 488.035156 78.503906 C 488.035156 77.988281 487.851562 77.566406 487.488281 77.242188 C 487.128906 76.914062 486.65625 76.753906 486.074219 76.753906 C 485.660156 76.753906 485.226562 76.824219 484.765625 76.96875 C 484.308594 77.109375 483.820312 77.328125 483.300781 77.621094 L 483.300781 76.289062 C 483.828125 76.078125 484.324219 75.917969 484.785156 75.808594 C 485.246094 75.699219 485.667969 75.644531 486.046875 75.644531 C 487.054688 75.644531 487.859375 75.898438 488.457031 76.402344 C 489.054688 76.90625 489.355469 77.578125 489.355469 78.417969 C 489.355469 78.820312 489.28125 79.199219 489.128906 79.558594 C 488.980469 79.914062 488.707031 80.335938 488.3125 80.820312 C 488.203125 80.949219 487.859375 81.3125 487.277344 81.914062 C 486.695312 82.515625 485.875 83.355469 484.816406 84.4375 Z M 484.816406 84.4375 "/>
<path style=" stroke:none;fill-rule:nonzero;fill:rgb(0%,0%,0%);fill-opacity:1;" d="M 492.167969 83.886719 L 493.542969 83.886719 L 493.542969 85.542969 L 492.167969 85.542969 Z M 492.167969 83.886719 "/>
<path style=" stroke:none;fill-rule:nonzero;fill:rgb(0%,0%,0%);fill-opacity:1;" d="M 499.21875 76.6875 C 498.542969 76.6875 498.03125 77.019531 497.691406 77.6875 C 497.351562 78.351562 497.179688 79.355469 497.179688 80.691406 C 497.179688 82.023438 497.351562 83.023438 497.691406 83.691406 C 498.03125 84.355469 498.542969 84.691406 499.21875 84.691406 C 499.898438 84.691406 500.410156 84.355469 500.75 83.691406 C 501.09375 83.023438 501.261719 82.023438 501.261719 80.691406 C 501.261719 79.355469 501.09375 78.351562 500.75 77.6875 C 500.410156 77.019531 499.898438 76.6875 499.21875 76.6875 Z M 499.21875 75.644531 C 500.308594 75.644531 501.140625 76.078125 501.714844 76.941406 C 502.289062 77.800781 502.578125 79.050781 502.578125 80.691406 C 502.578125 82.328125 502.289062 83.578125 501.714844 84.441406 C 501.140625 85.300781 500.308594 85.730469 499.21875 85.730469 C 498.128906 85.730469 497.296875 85.300781 496.722656 84.441406 C 496.148438 83.578125 495.859375 82.328125 495.859375 80.691406 C 495.859375 79.050781 496.148438 77.800781 496.722656 76.941406 C 497.296875 76.078125 498.128906 75.644531 499.21875 75.644531 Z M 499.21875 75.644531 "/>
<g clip-path="url(#clip24)" clip-rule="nonzero">
<path style="fill:none;stroke-width:0.8;stroke-linecap:square;stroke-linejoin:round;stroke:rgb(69.01961%,69.01961%,69.01961%);stroke-opacity:1;stroke-miterlimit:4;" d="M 384.597656 28.004883 L 532.303711 28.004883 " transform="matrix(1.333333,0,0,1.333333,0.000000000000056843,0)"/>
</g>
<path style="fill:none;stroke-width:0.8;stroke-linecap:butt;stroke-linejoin:round;stroke:rgb(0%,0%,0%);stroke-opacity:1;stroke-miterlimit:4;" d="M 0.000427246 -0.00131798 L -3.500549 -0.00131798 " transform="matrix(1.333333,0,0,1.333333,512.796305,37.341601)"/>
<path style=" stroke:none;fill-rule:nonzero;fill:rgb(0%,0%,0%);fill-opacity:1;" d="M 484.816406 41.300781 L 489.40625 41.300781 L 489.40625 42.40625 L 483.234375 42.40625 L 483.234375 41.300781 C 483.734375 40.785156 484.414062 40.089844 485.277344 39.222656 C 486.136719 38.351562 486.679688 37.789062 486.902344 37.535156 C 487.320312 37.0625 487.613281 36.664062 487.78125 36.335938 C 487.949219 36.007812 488.035156 35.6875 488.035156 35.371094 C 488.035156 34.851562 487.851562 34.433594 487.488281 34.105469 C 487.128906 33.78125 486.65625 33.617188 486.074219 33.617188 C 485.660156 33.617188 485.226562 33.6875 484.765625 33.832031 C 484.308594 33.976562 483.820312 34.191406 483.300781 34.484375 L 483.300781 33.15625 C 483.828125 32.941406 484.324219 32.78125 484.785156 32.675781 C 485.246094 32.566406 485.667969 32.511719 486.046875 32.511719 C 487.054688 32.511719 487.859375 32.761719 488.457031 33.269531 C 489.054688 33.769531 489.355469 34.441406 489.355469 35.285156 C 489.355469 35.683594 489.28125 36.0625 489.128906 36.421875 C 488.980469 36.777344 488.707031 37.199219 488.3125 37.6875 C 488.203125 37.8125 487.859375 38.175781 487.277344 38.777344 C 486.695312 39.378906 485.875 40.21875 484.816406 41.300781 Z M 484.816406 41.300781 "/>
<path style=" stroke:none;fill-rule:nonzero;fill:rgb(0%,0%,0%);fill-opacity:1;" d="M 492.167969 40.753906 L 493.542969 40.753906 L 493.542969 42.40625 L 492.167969 42.40625 Z M 492.167969 40.753906 "/>
<path style=" stroke:none;fill-rule:nonzero;fill:rgb(0%,0%,0%);fill-opacity:1;" d="M 496.417969 32.6875 L 501.582031 32.6875 L 501.582031 33.792969 L 497.625 33.792969 L 497.625 36.175781 C 497.8125 36.109375 498.003906 36.0625 498.195312 36.03125 C 498.386719 36 498.578125 35.980469 498.769531 35.980469 C 499.855469 35.980469 500.714844 36.28125 501.347656 36.875 C 501.980469 37.46875 502.300781 38.273438 502.300781 39.289062 C 502.300781 40.335938 501.972656 41.148438 501.320312 41.726562 C 500.671875 42.308594 499.753906 42.597656 498.566406 42.597656 C 498.160156 42.597656 497.742188 42.5625 497.320312 42.492188 C 496.898438 42.421875 496.460938 42.320312 496.007812 42.179688 L 496.007812 40.855469 C 496.398438 41.070312 496.804688 41.226562 497.21875 41.332031 C 497.636719 41.4375 498.078125 41.488281 498.539062 41.488281 C 499.292969 41.488281 499.886719 41.292969 500.324219 40.898438 C 500.761719 40.503906 500.980469 39.964844 500.980469 39.289062 C 500.980469 38.613281 500.761719 38.078125 500.324219 37.683594 C 499.886719 37.285156 499.292969 37.089844 498.539062 37.089844 C 498.1875 37.089844 497.839844 37.128906 497.488281 37.207031 C 497.140625 37.28125 496.785156 37.40625 496.417969 37.570312 Z M 496.417969 32.6875 "/>
<path style="fill:none;stroke-width:1.5;stroke-linecap:square;stroke-linejoin:round;stroke:rgb(12.156863%,46.666667%,70.588237%);stroke-opacity:1;stroke-miterlimit:4;" d="M 391.3125 165.960938 L 398.041992 163.456055 L 404.4375 160.833984 L 410.493164 158.109375 L 416.214844 155.302734 L 421.936523 152.244141 L 427.321289 149.121094 L 432.706055 145.734375 L 437.753906 142.306641 L 442.801758 138.609375 L 447.849609 134.62793 L 452.560547 130.628906 L 457.271484 126.342773 L 461.982422 121.743164 L 466.359375 117.175781 L 470.733398 112.300781 L 475.107422 107.097656 L 479.484375 101.545898 L 483.858398 95.62207 L 488.232422 89.299805 L 492.272461 83.085938 L 496.30957 76.488281 L 500.349609 69.486328 L 504.386719 62.047852 L 508.426758 54.149414 L 512.463867 45.764648 L 516.503906 36.861328 L 520.541016 27.404297 L 524.581055 17.364258 L 525.588867 14.759766 " transform="matrix(1.333333,0,0,1.333333,0.000000000000056843,0)"/>
<path style="fill:none;stroke-width:1.5;stroke-linecap:butt;stroke-linejoin:round;stroke:rgb(74.901962%,0%,74.901962%);stroke-opacity:1;stroke-dasharray:5.55,2.4;stroke-miterlimit:4;" d="M 408.137695 159.199219 L 492.272461 83.085938 " transform="matrix(1.333333,0,0,1.333333,0.000000000000056843,0)"/>
<path style="fill:none;stroke-width:0.8;stroke-linecap:square;stroke-linejoin:miter;stroke:rgb(0%,0%,0%);stroke-opacity:1;stroke-miterlimit:4;" d="M 384.597656 173.519531 L 384.597656 7.201172 " transform="matrix(1.333333,0,0,1.333333,0.000000000000056843,0)"/>
<path style="fill:none;stroke-width:0.8;stroke-linecap:square;stroke-linejoin:miter;stroke:rgb(0%,0%,0%);stroke-opacity:1;stroke-miterlimit:4;" d="M 532.303711 173.519531 L 532.303711 7.201172 " transform="matrix(1.333333,0,0,1.333333,0.000000000000056843,0)"/>
<path style="fill:none;stroke-width:0.8;stroke-linecap:square;stroke-linejoin:miter;stroke:rgb(0%,0%,0%);stroke-opacity:1;stroke-miterlimit:4;" d="M 384.597656 173.519531 L 532.303711 173.519531 " transform="matrix(1.333333,0,0,1.333333,0.000000000000056843,0)"/>
<path style="fill:none;stroke-width:0.8;stroke-linecap:square;stroke-linejoin:miter;stroke:rgb(0%,0%,0%);stroke-opacity:1;stroke-miterlimit:4;" d="M 384.597656 7.201172 L 532.303711 7.201172 " transform="matrix(1.333333,0,0,1.333333,0.000000000000056843,0)"/>
</g>
</svg>
