<?xml version="1.0" encoding="UTF-8"?>
<svg xmlns="http://www.w3.org/2000/svg" xmlns:xlink="http://www.w3.org/1999/xlink" width="226.287211" height="228.782552" viewBox="0 0 226.287211 228.782552" version="1.1">
<defs>
<filter id="alpha" filterUnits="objectBoundingBox" x="0%" y="0%" width="100%" height="100%">
  <feColorMatrix type="matrix" in="SourceGraphic" values="0 0 0 0 1 0 0 0 0 1 0 0 0 0 1 0 0 0 1 0"/>
</filter>
<mask id="mask0">
  <g filter="url(#alpha)">
<rect x="0" y="0" width="226.287211" height="228.782552" style="fill:rgb(0%,0%,0%);fill-opacity:0.5;stroke:none;"/>
  </g>
</mask>
<clipPath id="clip1">
  <rect x="0" y="0" width="227" height="229"/>
</clipPath>
<g id="surface5" clip-path="url(#clip1)">
<path style="fill-rule:nonzero;fill:rgb(94.901961%,94.901961%,94.901961%);fill-opacity:1;stroke-width:1;stroke-linecap:butt;stroke-linejoin:miter;stroke:rgb(94.901961%,94.901961%,94.901961%);stroke-opacity:1;stroke-miterlimit:4;" d="M 17.666016 111.626953 L 63.436523 73.259766 L 62.797852 17.929687 L 14.838867 52.930664 " transform="matrix(1.333333,0,0,1.333333,0,0.000000000000014211)"/>
</g>
<mask id="mask1">
  <g filter="url(#alpha)">
<rect x="0" y="0" width="226.287211" height="228.782552" style="fill:rgb(0%,0%,0%);fill-opacity:0.5;stroke:none;"/>
  </g>
</mask>
<clipPath id="clip2">
  <rect x="0" y="0" width="227" height="229"/>
</clipPath>
<g id="surface8" clip-path="url(#clip2)">
<path style="fill-rule:nonzero;fill:rgb(90.196079%,90.196079%,90.196079%);fill-opacity:1;stroke-width:1;stroke-linecap:butt;stroke-linejoin:miter;stroke:rgb(90.196079%,90.196079%,90.196079%);stroke-opacity:1;stroke-miterlimit:4;" d="M 63.436523 73.259766 L 136.880859 94.608398 L 139.5 37.371094 L 62.797852 17.929687 " transform="matrix(1.333333,0,0,1.333333,0,0.000000000000014211)"/>
</g>
<mask id="mask2">
  <g filter="url(#alpha)">
<rect x="0" y="0" width="226.287211" height="228.782552" style="fill:rgb(0%,0%,0%);fill-opacity:0.5;stroke:none;"/>
  </g>
</mask>
<clipPath id="clip3">
  <rect x="0" y="0" width="227" height="229"/>
</clipPath>
<g id="surface11" clip-path="url(#clip3)">
<path style="fill-rule:nonzero;fill:rgb(92.54902%,92.54902%,92.54902%);fill-opacity:1;stroke-width:1;stroke-linecap:butt;stroke-linejoin:miter;stroke:rgb(92.54902%,92.54902%,92.54902%);stroke-opacity:1;stroke-miterlimit:4;" d="M 17.666016 111.626953 L 95.519531 137.053711 L 136.880859 94.608398 L 63.436523 73.259766 " transform="matrix(1.333333,0,0,1.333333,0,0.000000000000014211)"/>
</g>
</defs>
<g id="surface1">
<path style=" stroke:none;fill-rule:nonzero;fill:rgb(100%,100%,100%);fill-opacity:1;" d="M 0 228.78125 L 226.289062 228.78125 L 226.289062 0 L 0 0 Z M 0 228.78125 "/>
<path style=" stroke:none;fill-rule:nonzero;fill:rgb(100%,100%,100%);fill-opacity:1;" d="M 9.601562 194.398438 L 194.398438 194.398438 L 194.398438 9.601562 L 9.601562 9.601562 Z M 9.601562 194.398438 "/>
<use xlink:href="#surface5" mask="url(#mask0)"/>
<use xlink:href="#surface8" mask="url(#mask1)"/>
<use xlink:href="#surface11" mask="url(#mask2)"/>
<path style="fill:none;stroke-width:0.8;stroke-linecap:square;stroke-linejoin:round;stroke:rgb(0%,0%,0%);stroke-opacity:1;stroke-miterlimit:4;" d="M 17.666016 111.626953 L 95.519531 137.053711 " transform="matrix(1.333333,0,0,1.333333,0,0.000000000000014211)"/>
<path style=" stroke:none;fill-rule:nonzero;fill:rgb(0%,0%,0%);fill-opacity:1;" d="M 55.574219 209.117188 L 52.933594 212.664062 L 55.707031 216.410156 L 54.296875 216.410156 L 52.171875 213.546875 L 50.050781 216.410156 L 48.636719 216.410156 L 51.46875 212.59375 L 48.878906 209.117188 L 50.292969 209.117188 L 52.226562 211.714844 L 54.15625 209.117188 Z M 55.574219 209.117188 "/>
<path style="fill:none;stroke-width:0.8;stroke-linecap:butt;stroke-linejoin:round;stroke:rgb(69.01961%,69.01961%,69.01961%);stroke-opacity:1;stroke-miterlimit:4;" d="M 22.379883 113.165039 L 67.901367 74.557617 L 67.456055 19.110352 " transform="matrix(1.333333,0,0,1.333333,0,0.000000000000014211)"/>
<path style="fill:none;stroke-width:0.8;stroke-linecap:butt;stroke-linejoin:round;stroke:rgb(69.01961%,69.01961%,69.01961%);stroke-opacity:1;stroke-miterlimit:4;" d="M 55.567383 124.004883 L 99.269531 83.674805 L 100.183594 27.407227 " transform="matrix(1.333333,0,0,1.333333,0,0.000000000000014211)"/>
<path style="fill:none;stroke-width:0.8;stroke-linecap:butt;stroke-linejoin:round;stroke:rgb(69.01961%,69.01961%,69.01961%);stroke-opacity:1;stroke-miterlimit:4;" d="M 90.316406 135.354492 L 131.991211 93.1875 L 134.384766 36.076172 " transform="matrix(1.333333,0,0,1.333333,0,0.000000000000014211)"/>
<path style="fill:none;stroke-width:0.8;stroke-linecap:square;stroke-linejoin:round;stroke:rgb(0%,0%,0%);stroke-opacity:1;stroke-miterlimit:4;" d="M 22.77832 112.828125 L 21.585938 113.838867 " transform="matrix(1.333333,0,0,1.333333,0,0.000000000000014211)"/>
<path style=" stroke:none;fill-rule:nonzero;fill:rgb(0%,0%,0%);fill-opacity:1;" d="M 11.351562 177.304688 L 19.699219 177.304688 L 19.699219 178.410156 L 11.351562 178.410156 Z M 11.351562 177.304688 "/>
<path style=" stroke:none;fill-rule:nonzero;fill:rgb(0%,0%,0%);fill-opacity:1;" d="M 22.765625 180.933594 L 24.914062 180.933594 L 24.914062 173.515625 L 22.574219 173.984375 L 22.574219 172.785156 L 24.902344 172.316406 L 26.214844 172.316406 L 26.214844 180.933594 L 28.363281 180.933594 L 28.363281 182.039062 L 22.765625 182.039062 Z M 22.765625 180.933594 "/>
<path style="fill:none;stroke-width:0.8;stroke-linecap:square;stroke-linejoin:round;stroke:rgb(0%,0%,0%);stroke-opacity:1;stroke-miterlimit:4;" d="M 55.948242 123.65332 L 54.802734 124.708008 " transform="matrix(1.333333,0,0,1.333333,0,0.000000000000014211)"/>
<path style=" stroke:none;fill-rule:nonzero;fill:rgb(0%,0%,0%);fill-opacity:1;" d="M 64.101562 188.230469 C 63.425781 188.230469 62.917969 188.5625 62.574219 189.230469 C 62.234375 189.894531 62.066406 190.894531 62.066406 192.234375 C 62.066406 193.566406 62.234375 194.5625 62.574219 195.230469 C 62.917969 195.898438 63.425781 196.230469 64.101562 196.230469 C 64.785156 196.230469 65.296875 195.898438 65.636719 195.230469 C 65.976562 194.5625 66.148438 193.566406 66.148438 192.234375 C 66.148438 190.894531 65.976562 189.894531 65.636719 189.230469 C 65.296875 188.5625 64.785156 188.230469 64.101562 188.230469 Z M 64.101562 187.1875 C 65.191406 187.1875 66.023438 187.617188 66.601562 188.480469 C 67.175781 189.34375 67.460938 190.59375 67.460938 192.234375 C 67.460938 193.867188 67.175781 195.117188 66.601562 195.980469 C 66.023438 196.84375 65.191406 197.273438 64.101562 197.273438 C 63.011719 197.273438 62.179688 196.84375 61.605469 195.980469 C 61.03125 195.117188 60.742188 193.867188 60.742188 192.234375 C 60.742188 190.59375 61.03125 189.34375 61.605469 188.480469 C 62.179688 187.617188 63.011719 187.1875 64.101562 187.1875 Z M 64.101562 187.1875 "/>
<path style="fill:none;stroke-width:0.8;stroke-linecap:square;stroke-linejoin:round;stroke:rgb(0%,0%,0%);stroke-opacity:1;stroke-miterlimit:4;" d="M 90.679688 134.985352 L 89.583984 136.092773 " transform="matrix(1.333333,0,0,1.333333,0,0.000000000000014211)"/>
<path style=" stroke:none;fill-rule:nonzero;fill:rgb(0%,0%,0%);fill-opacity:1;" d="M 107.960938 211.734375 L 110.109375 211.734375 L 110.109375 204.316406 L 107.773438 204.785156 L 107.773438 203.589844 L 110.097656 203.121094 L 111.410156 203.121094 L 111.410156 211.734375 L 113.558594 211.734375 L 113.558594 212.839844 L 107.960938 212.839844 Z M 107.960938 211.734375 "/>
<path style="fill:none;stroke-width:0.8;stroke-linecap:square;stroke-linejoin:round;stroke:rgb(0%,0%,0%);stroke-opacity:1;stroke-miterlimit:4;" d="M 136.880859 94.608398 L 95.519531 137.053711 " transform="matrix(1.333333,0,0,1.333333,0,0.000000000000014211)"/>
<path style=" stroke:none;fill-rule:nonzero;fill:rgb(0%,0%,0%);fill-opacity:1;" d="M 192.511719 194.921875 C 192.175781 195.789062 191.847656 196.355469 191.523438 196.621094 C 191.203125 196.886719 190.773438 197.019531 190.234375 197.019531 L 189.277344 197.019531 L 189.277344 196.015625 L 189.980469 196.015625 C 190.3125 196.015625 190.566406 195.9375 190.75 195.78125 C 190.933594 195.625 191.132812 195.257812 191.355469 194.675781 L 191.570312 194.128906 L 188.621094 186.953125 L 189.890625 186.953125 L 192.167969 192.65625 L 194.449219 186.953125 L 195.71875 186.953125 Z M 192.511719 194.921875 "/>
<path style="fill:none;stroke-width:0.8;stroke-linecap:butt;stroke-linejoin:round;stroke:rgb(69.01961%,69.01961%,69.01961%);stroke-opacity:1;stroke-miterlimit:4;" d="M 18.155273 50.510742 L 20.818359 108.981445 L 98.381836 134.115234 " transform="matrix(1.333333,0,0,1.333333,0,0.000000000000014211)"/>
<path style="fill:none;stroke-width:0.8;stroke-linecap:butt;stroke-linejoin:round;stroke:rgb(69.01961%,69.01961%,69.01961%);stroke-opacity:1;stroke-miterlimit:4;" d="M 39.884766 34.652344 L 41.525391 91.625977 L 117.125977 114.878906 " transform="matrix(1.333333,0,0,1.333333,0,0.000000000000014211)"/>
<path style="fill:none;stroke-width:0.8;stroke-linecap:butt;stroke-linejoin:round;stroke:rgb(69.01961%,69.01961%,69.01961%);stroke-opacity:1;stroke-miterlimit:4;" d="M 59.991211 19.977539 L 60.74707 75.512695 L 134.460938 97.089844 " transform="matrix(1.333333,0,0,1.333333,0,0.000000000000014211)"/>
<path style="fill:none;stroke-width:0.8;stroke-linecap:square;stroke-linejoin:round;stroke:rgb(0%,0%,0%);stroke-opacity:1;stroke-miterlimit:4;" d="M 97.728516 133.904297 L 99.691406 134.540039 " transform="matrix(1.333333,0,0,1.333333,0,0.000000000000014211)"/>
<path style=" stroke:none;fill-rule:nonzero;fill:rgb(0%,0%,0%);fill-opacity:1;" d="M 139.945312 202.128906 L 148.289062 202.128906 L 148.289062 203.234375 L 139.945312 203.234375 Z M 139.945312 202.128906 "/>
<path style=" stroke:none;fill-rule:nonzero;fill:rgb(0%,0%,0%);fill-opacity:1;" d="M 151.359375 205.753906 L 153.503906 205.753906 L 153.503906 198.335938 L 151.167969 198.804688 L 151.167969 197.609375 L 153.492188 197.140625 L 154.808594 197.140625 L 154.808594 205.753906 L 156.957031 205.753906 L 156.957031 206.859375 L 151.359375 206.859375 Z M 151.359375 205.753906 "/>
<path style="fill:none;stroke-width:0.8;stroke-linecap:square;stroke-linejoin:round;stroke:rgb(0%,0%,0%);stroke-opacity:1;stroke-miterlimit:4;" d="M 116.490234 114.685547 L 118.400391 115.271484 " transform="matrix(1.333333,0,0,1.333333,0,0.000000000000014211)"/>
<path style=" stroke:none;fill-rule:nonzero;fill:rgb(0%,0%,0%);fill-opacity:1;" d="M 172.703125 171.628906 C 172.027344 171.628906 171.519531 171.960938 171.175781 172.628906 C 170.835938 173.292969 170.667969 174.296875 170.667969 175.632812 C 170.667969 176.964844 170.835938 177.964844 171.175781 178.628906 C 171.519531 179.296875 172.027344 179.628906 172.703125 179.628906 C 173.386719 179.628906 173.898438 179.296875 174.238281 178.628906 C 174.578125 177.964844 174.75 176.964844 174.75 175.632812 C 174.75 174.296875 174.578125 173.292969 174.238281 172.628906 C 173.898438 171.960938 173.386719 171.628906 172.703125 171.628906 Z M 172.703125 170.585938 C 173.792969 170.585938 174.625 171.019531 175.203125 171.878906 C 175.777344 172.742188 176.0625 173.992188 176.0625 175.632812 C 176.0625 177.269531 175.777344 178.519531 175.203125 179.378906 C 174.625 180.242188 173.792969 180.671875 172.703125 180.671875 C 171.613281 180.671875 170.78125 180.242188 170.207031 179.378906 C 169.632812 178.519531 169.34375 177.269531 169.34375 175.632812 C 169.34375 173.992188 169.632812 172.742188 170.207031 171.878906 C 170.78125 171.019531 171.613281 170.585938 172.703125 170.585938 Z M 172.703125 170.585938 "/>
<path style="fill:none;stroke-width:0.8;stroke-linecap:square;stroke-linejoin:round;stroke:rgb(0%,0%,0%);stroke-opacity:1;stroke-miterlimit:4;" d="M 133.842773 96.908203 L 135.700195 97.453125 " transform="matrix(1.333333,0,0,1.333333,0,0.000000000000014211)"/>
<path style=" stroke:none;fill-rule:nonzero;fill:rgb(0%,0%,0%);fill-opacity:1;" d="M 192.632812 154.984375 L 194.78125 154.984375 L 194.78125 147.570312 L 192.445312 148.039062 L 192.445312 146.839844 L 194.769531 146.371094 L 196.085938 146.371094 L 196.085938 154.984375 L 198.230469 154.984375 L 198.230469 156.089844 L 192.632812 156.089844 Z M 192.632812 154.984375 "/>
<path style="fill:none;stroke-width:0.8;stroke-linecap:square;stroke-linejoin:round;stroke:rgb(0%,0%,0%);stroke-opacity:1;stroke-miterlimit:4;" d="M 136.880859 94.608398 L 139.5 37.371094 " transform="matrix(1.333333,0,0,1.333333,0,0.000000000000014211)"/>
<path style="fill:none;stroke-width:0.8;stroke-linecap:butt;stroke-linejoin:round;stroke:rgb(69.01961%,69.01961%,69.01961%);stroke-opacity:1;stroke-miterlimit:4;" d="M 136.930664 93.509766 L 63.421875 72.199219 L 17.610352 110.501953 " transform="matrix(1.333333,0,0,1.333333,0,0.000000000000014211)"/>
<path style="fill:none;stroke-width:0.8;stroke-linecap:butt;stroke-linejoin:round;stroke:rgb(69.01961%,69.01961%,69.01961%);stroke-opacity:1;stroke-miterlimit:4;" d="M 138.161133 66.618164 L 63.123047 46.171875 L 16.283203 82.945312 " transform="matrix(1.333333,0,0,1.333333,0,0.000000000000014211)"/>
<path style="fill:none;stroke-width:0.8;stroke-linecap:butt;stroke-linejoin:round;stroke:rgb(69.01961%,69.01961%,69.01961%);stroke-opacity:1;stroke-miterlimit:4;" d="M 139.447266 38.566406 L 62.8125 19.083984 L 14.897461 54.158203 " transform="matrix(1.333333,0,0,1.333333,0,0.000000000000014211)"/>
<path style="fill:none;stroke-width:0.8;stroke-linecap:square;stroke-linejoin:round;stroke:rgb(0%,0%,0%);stroke-opacity:1;stroke-miterlimit:4;" d="M 136.3125 93.331055 L 138.166992 93.870117 " transform="matrix(1.333333,0,0,1.333333,0,0.000000000000014211)"/>
<path style=" stroke:none;fill-rule:nonzero;fill:rgb(0%,0%,0%);fill-opacity:1;" d="M 198.445312 126.621094 L 206.789062 126.621094 L 206.789062 127.726562 L 198.445312 127.726562 Z M 198.445312 126.621094 "/>
<path style=" stroke:none;fill-rule:nonzero;fill:rgb(0%,0%,0%);fill-opacity:1;" d="M 209.855469 130.25 L 212.003906 130.25 L 212.003906 122.832031 L 209.667969 123.300781 L 209.667969 122.101562 L 211.992188 121.632812 L 213.308594 121.632812 L 213.308594 130.25 L 215.453125 130.25 L 215.453125 131.355469 L 209.855469 131.355469 Z M 209.855469 130.25 "/>
<path style="fill:none;stroke-width:0.8;stroke-linecap:square;stroke-linejoin:round;stroke:rgb(0%,0%,0%);stroke-opacity:1;stroke-miterlimit:4;" d="M 137.53125 66.445312 L 139.423828 66.960937 " transform="matrix(1.333333,0,0,1.333333,0,0.000000000000014211)"/>
<path style=" stroke:none;fill-rule:nonzero;fill:rgb(0%,0%,0%);fill-opacity:1;" d="M 208.996094 86.777344 C 208.320312 86.777344 207.808594 87.113281 207.46875 87.777344 C 207.128906 88.445312 206.957031 89.445312 206.957031 90.785156 C 206.957031 92.117188 207.128906 93.113281 207.46875 93.78125 C 207.808594 94.449219 208.320312 94.78125 208.996094 94.78125 C 209.675781 94.78125 210.1875 94.449219 210.527344 93.78125 C 210.871094 93.113281 211.039062 92.117188 211.039062 90.785156 C 211.039062 89.445312 210.871094 88.445312 210.527344 87.777344 C 210.1875 87.113281 209.675781 86.777344 208.996094 86.777344 Z M 208.996094 85.738281 C 210.085938 85.738281 210.917969 86.167969 211.492188 87.03125 C 212.066406 87.890625 212.355469 89.144531 212.355469 90.785156 C 212.355469 92.417969 212.066406 93.667969 211.492188 94.53125 C 210.917969 95.390625 210.085938 95.824219 208.996094 95.824219 C 207.90625 95.824219 207.074219 95.390625 206.5 94.53125 C 205.925781 93.667969 205.636719 92.417969 205.636719 90.785156 C 205.636719 89.144531 205.925781 87.890625 206.5 87.03125 C 207.074219 86.167969 207.90625 85.738281 208.996094 85.738281 Z M 208.996094 85.738281 "/>
<path style="fill:none;stroke-width:0.8;stroke-linecap:square;stroke-linejoin:round;stroke:rgb(0%,0%,0%);stroke-opacity:1;stroke-miterlimit:4;" d="M 138.802734 38.402344 L 140.736328 38.894531 " transform="matrix(1.333333,0,0,1.333333,0,0.000000000000014211)"/>
<path style=" stroke:none;fill-rule:nonzero;fill:rgb(0%,0%,0%);fill-opacity:1;" d="M 208.644531 57.28125 L 210.792969 57.28125 L 210.792969 49.863281 L 208.453125 50.332031 L 208.453125 49.132812 L 210.777344 48.664062 L 212.09375 48.664062 L 212.09375 57.28125 L 214.242188 57.28125 L 214.242188 58.386719 L 208.644531 58.386719 Z M 208.644531 57.28125 "/>
<path style="fill-rule:nonzero;fill:rgb(100%,0%,0%);fill-opacity:1;stroke-width:1;stroke-linecap:butt;stroke-linejoin:round;stroke:rgb(100%,0%,0%);stroke-opacity:1;stroke-miterlimit:4;" d="M -3.0009 3.0009 L 2.9991 -2.9991 M -3.0009 -2.9991 L 2.9991 3.0009 " transform="matrix(1.333333,0,0,1.333333,104.497294,99.502706)"/>
<path style="fill:none;stroke-width:1.5;stroke-linecap:butt;stroke-linejoin:round;stroke:rgb(12.156863%,46.666667%,70.588237%);stroke-opacity:1;stroke-miterlimit:4;" d="M 24.319336 81.870117 L 25.025391 83.182617 L 25.731445 84.474609 L 26.43457 85.740234 L 27.137695 86.985352 L 27.837891 88.204102 L 28.538086 89.402344 L 29.238281 90.577148 L 29.935547 91.728516 L 30.629883 92.856445 L 31.327148 93.960937 L 32.021484 95.044922 L 32.712891 96.105469 L 33.404297 97.142578 L 34.095703 98.15918 L 34.78418 99.152344 L 35.472656 100.12207 L 36.161133 101.068359 L 36.84668 101.994141 L 37.535156 102.899414 L 38.217773 103.78125 L 38.90332 104.639648 L 39.585938 105.477539 L 40.268555 106.291992 L 40.951172 107.085937 L 41.633789 107.856445 L 42.313477 108.606445 L 42.996094 109.333008 L 43.675781 110.039062 L 44.352539 110.72168 L 45.032227 111.383789 L 45.711914 112.025391 L 46.388672 112.643555 L 47.068359 113.241211 L 47.745117 113.81543 L 48.421875 114.369141 L 49.098633 114.902344 L 49.775391 115.412109 L 50.452148 115.901367 L 51.125977 116.367187 L 51.802734 116.8125 L 52.479492 117.237305 L 53.15625 117.641602 L 53.833008 118.022461 L 54.506836 118.379883 L 55.183594 118.716797 L 55.860352 119.033203 L 56.537109 119.329102 L 57.213867 119.601562 L 57.890625 119.853516 L 58.567383 120.082031 L 59.244141 120.290039 L 59.920898 120.477539 L 60.597656 120.641602 L 61.277344 120.785156 L 61.957031 120.905273 L 62.633789 121.004883 L 63.313477 121.083984 L 63.993164 121.139648 L 64.675781 121.171875 L 65.355469 121.186523 L 66.038086 121.174805 L 66.720703 121.142578 L 67.40332 121.089844 L 68.088867 121.013672 L 68.774414 120.914062 L 69.459961 120.793945 L 70.145508 120.65332 L 70.833984 120.486328 L 71.522461 120.301758 L 72.210938 120.09082 L 72.902344 119.859375 L 73.59375 119.604492 L 74.285156 119.326172 L 74.979492 119.027344 L 75.673828 118.705078 L 76.371094 118.359375 L 77.068359 117.990234 L 77.765625 117.597656 L 78.46582 117.181641 L 79.166016 116.745117 L 79.869141 116.285156 L 80.575195 115.798828 L 81.28125 115.291992 L 81.987305 114.758789 L 82.696289 114.205078 L 83.405273 113.625 L 84.120117 113.021484 L 84.832031 112.394531 L 85.549805 111.744141 L 86.264648 111.067383 L 86.985352 110.367187 L 87.706055 109.643555 L 88.429688 108.893555 L 89.15625 108.120117 L 89.882812 107.323242 L 90.612305 106.49707 L 91.341797 105.650391 L 92.077148 104.774414 L 92.8125 103.875 L 93.550781 102.949219 " transform="matrix(1.333333,0,0,1.333333,0,0.000000000000014211)"/>
<path style="fill:none;stroke-width:1.5;stroke-linecap:butt;stroke-linejoin:round;stroke:rgb(12.156863%,46.666667%,70.588237%);stroke-opacity:1;stroke-miterlimit:4;" d="M 28.280273 68.264648 L 28.986328 69.583008 L 29.689453 70.880859 L 30.392578 72.152344 L 31.092773 73.400391 L 31.792969 74.625 L 32.490234 75.826172 L 33.1875 77.003906 L 33.884766 78.161133 L 34.579102 79.291992 L 35.273438 80.402344 L 35.967773 81.486328 L 36.65918 82.549805 L 37.350586 83.589844 L 38.039062 84.609375 L 38.727539 85.602539 L 39.416016 86.575195 L 40.104492 87.524414 L 40.790039 88.453125 L 41.475586 89.355469 L 42.161133 90.240234 L 42.84375 91.098633 L 43.526367 91.936523 L 44.208984 92.750977 L 44.891602 93.544922 L 45.574219 94.31543 L 46.253906 95.06543 L 46.936523 95.791992 L 47.616211 96.498047 L 48.295898 97.180664 L 48.972656 97.839844 L 49.652344 98.478516 L 50.332031 99.09668 L 51.008789 99.691406 L 51.688477 100.262695 L 52.365234 100.813477 L 53.041992 101.34375 L 53.72168 101.850586 L 54.398438 102.336914 L 55.075195 102.799805 L 55.751953 103.242187 L 56.428711 103.661133 L 57.105469 104.05957 L 57.782227 104.4375 L 58.461914 104.791992 L 59.138672 105.123047 L 59.81543 105.436523 L 60.495117 105.723633 L 61.171875 105.990234 L 61.851562 106.236328 L 62.52832 106.461914 L 63.208008 106.661133 L 63.887695 106.842773 L 64.567383 107.000977 L 65.24707 107.135742 L 65.926758 107.25 L 66.609375 107.34082 L 67.291992 107.411133 L 67.974609 107.458008 L 68.657227 107.484375 L 69.339844 107.487305 L 70.025391 107.469727 L 70.710938 107.428711 L 71.396484 107.364258 L 72.082031 107.279297 L 72.770508 107.170898 L 73.458984 107.041992 L 74.147461 106.889648 L 74.838867 106.713867 L 75.530273 106.514648 L 76.22168 106.294922 L 76.916016 106.051758 L 77.610352 105.785156 L 78.307617 105.495117 L 79.004883 105.181641 L 79.702148 104.847656 L 80.402344 104.490234 L 81.102539 104.106445 L 81.805664 103.702148 L 82.508789 103.274414 L 83.214844 102.823242 L 83.920898 102.348633 L 84.629883 101.847656 L 85.341797 101.326172 L 86.050781 100.77832 L 86.765625 100.209961 L 87.480469 99.615234 L 88.198242 98.994141 L 88.916016 98.352539 L 89.636719 97.68457 L 90.357422 96.993164 L 91.083984 96.275391 L 91.807617 95.53418 L 92.537109 94.766602 L 93.266602 93.975586 L 93.999023 93.158203 L 94.734375 92.317383 L 95.472656 91.450195 L 96.210938 90.556641 L 96.952148 89.636719 L 97.696289 88.69043 " transform="matrix(1.333333,0,0,1.333333,0,0.000000000000014211)"/>
<path style="fill:none;stroke-width:1.5;stroke-linecap:butt;stroke-linejoin:round;stroke:rgb(12.156863%,46.666667%,70.588237%);stroke-opacity:1;stroke-miterlimit:4;" d="M 32.320312 56.956055 L 33.023438 58.277344 L 33.723633 59.575195 L 34.423828 60.84668 L 35.121094 62.097656 L 35.818359 63.325195 L 36.515625 64.526367 L 37.209961 65.707031 L 37.904297 66.864258 L 38.595703 67.995117 L 39.290039 69.105469 L 39.978516 70.192383 L 40.669922 71.255859 L 41.358398 72.295898 L 42.046875 73.31543 L 42.732422 74.308594 L 43.417969 75.28125 L 44.103516 76.230469 L 44.789062 77.15625 L 45.47168 78.061523 L 46.157227 78.943359 L 46.839844 79.801758 L 47.519531 80.639648 L 48.202148 81.454102 L 48.881836 82.245117 L 49.564453 83.015625 L 50.244141 83.762695 L 50.923828 84.486328 L 51.600586 85.189453 L 52.280273 85.869141 L 52.959961 86.52832 L 53.636719 87.164062 L 54.313477 87.779297 L 54.993164 88.371094 L 55.669922 88.939453 L 56.34668 89.487305 L 57.023438 90.014648 L 57.700195 90.518555 L 58.376953 90.999023 L 59.056641 91.458984 L 59.733398 91.898437 L 60.410156 92.314453 L 61.086914 92.707031 L 61.763672 93.079102 L 62.44043 93.430664 L 63.120117 93.758789 L 63.796875 94.063477 L 64.473633 94.347656 L 65.15332 94.611328 L 65.833008 94.851562 L 66.512695 95.068359 L 67.192383 95.264648 L 67.87207 95.4375 L 68.551758 95.589844 L 69.231445 95.72168 L 69.914062 95.827148 L 70.59668 95.912109 L 71.279297 95.976562 L 71.961914 96.017578 L 72.647461 96.035156 L 73.333008 96.032227 L 74.018555 96.005859 L 74.704102 95.958984 L 75.392578 95.885742 L 76.081055 95.794922 L 76.769531 95.677734 L 77.460938 95.540039 L 78.152344 95.378906 L 78.84375 95.194336 L 79.538086 94.986328 L 80.232422 94.757812 L 80.926758 94.505859 L 81.624023 94.227539 L 82.321289 93.931641 L 83.021484 93.609375 L 83.72168 93.263672 L 84.424805 92.894531 L 85.12793 92.501953 L 85.833984 92.088867 L 86.540039 91.649414 L 87.246094 91.186523 L 87.958008 90.700195 L 88.666992 90.19043 L 89.381836 89.657227 L 90.09668 89.097656 L 90.811523 88.517578 L 91.529297 87.911133 L 92.25 87.27832 L 92.970703 86.625 L 93.694336 85.945312 L 94.420898 85.239258 L 95.150391 84.509766 L 95.879883 83.753906 L 96.612305 82.974609 L 97.344727 82.168945 L 98.080078 81.339844 L 98.821289 80.484375 L 99.55957 79.602539 L 100.303711 78.694336 L 101.050781 77.762695 L 101.797852 76.801758 " transform="matrix(1.333333,0,0,1.333333,0,0.000000000000014211)"/>
<path style="fill:none;stroke-width:1.5;stroke-linecap:butt;stroke-linejoin:round;stroke:rgb(12.156863%,46.666667%,70.588237%);stroke-opacity:1;stroke-miterlimit:4;" d="M 36.418945 47.985352 L 37.116211 49.306641 L 37.813477 50.601562 L 38.510742 51.875977 L 39.205078 53.124023 L 39.899414 54.348633 L 40.59082 55.549805 L 41.282227 56.727539 L 41.970703 57.884766 L 42.662109 59.015625 L 43.350586 60.123047 L 44.036133 61.207031 L 44.724609 62.270508 L 45.410156 63.307617 L 46.092773 64.324219 L 46.77832 65.317383 L 47.460938 66.287109 L 48.143555 67.233398 L 48.826172 68.15918 L 49.505859 69.058594 L 50.185547 69.94043 L 50.865234 70.795898 L 51.544922 71.630859 L 52.224609 72.442383 L 52.904297 73.230469 L 53.581055 73.998047 L 54.257812 74.742187 L 54.9375 75.462891 L 55.614258 76.163086 L 56.291016 76.839844 L 56.964844 77.496094 L 57.641602 78.128906 L 58.318359 78.738281 L 58.995117 79.327148 L 59.668945 79.892578 L 60.345703 80.4375 L 61.022461 80.958984 L 61.696289 81.459961 L 62.373047 81.9375 L 63.046875 82.394531 L 63.723633 82.828125 L 64.400391 83.241211 L 65.074219 83.630859 L 65.750977 83.99707 L 66.427734 84.342773 L 67.104492 84.667969 L 67.78125 84.969727 L 68.458008 85.248047 L 69.137695 85.505859 L 69.814453 85.740234 L 70.494141 85.954102 L 71.173828 86.144531 L 71.850586 86.314453 L 72.533203 86.460937 L 73.212891 86.586914 L 73.895508 86.689453 L 74.575195 86.768555 L 75.257812 86.827148 L 75.943359 86.862305 L 76.625977 86.874023 L 77.311523 86.865234 L 77.99707 86.833008 L 78.685547 86.780273 L 79.371094 86.701172 L 80.05957 86.601562 L 80.750977 86.481445 L 81.439453 86.334961 L 82.133789 86.167969 L 82.825195 85.977539 L 83.519531 85.763672 L 84.213867 85.529297 L 84.911133 85.268555 L 85.608398 84.987305 L 86.308594 84.679687 L 87.008789 84.351562 L 87.708984 84 L 88.412109 83.625 L 89.118164 83.226562 L 89.824219 82.801758 L 90.533203 82.356445 L 91.242188 81.887695 L 91.951172 81.392578 L 92.666016 80.874023 L 93.380859 80.334961 L 94.095703 79.766602 L 94.813477 79.177734 L 95.53418 78.5625 L 96.254883 77.923828 L 96.978516 77.258789 L 97.705078 76.573242 L 98.431641 75.858398 L 99.164062 75.120117 L 99.893555 74.358398 L 100.628906 73.567383 L 101.364258 72.755859 L 102.105469 71.915039 L 102.84668 71.050781 L 103.587891 70.160156 L 104.334961 69.243164 L 105.082031 68.299805 L 105.834961 67.330078 " transform="matrix(1.333333,0,0,1.333333,0,0.000000000000014211)"/>
<path style="fill:none;stroke-width:1.5;stroke-linecap:butt;stroke-linejoin:round;stroke:rgb(12.156863%,46.666667%,70.588237%);stroke-opacity:1;stroke-miterlimit:4;" d="M 40.555664 41.378906 L 41.24707 42.694336 L 41.938477 43.986328 L 42.629883 45.254883 L 43.318359 46.5 L 44.006836 47.72168 L 44.695312 48.916992 L 45.380859 50.091797 L 46.066406 51.243164 L 46.751953 52.371094 L 47.43457 53.472656 L 48.117188 54.553711 L 48.799805 55.611328 L 49.482422 56.645508 L 50.162109 57.65918 L 50.841797 58.646484 L 51.521484 59.613281 L 52.198242 60.556641 L 52.87793 61.476562 L 53.554688 62.373047 L 54.231445 63.249023 L 54.905273 64.101562 L 55.582031 64.930664 L 56.258789 65.739258 L 56.932617 66.524414 L 57.606445 67.286133 L 58.280273 68.024414 L 58.954102 68.742187 L 59.62793 69.439453 L 60.301758 70.113281 L 60.975586 70.763672 L 61.649414 71.393555 L 62.320312 72 L 62.994141 72.583008 L 63.667969 73.145508 L 64.338867 73.6875 L 65.012695 74.203125 L 65.686523 74.701172 L 66.357422 75.175781 L 67.03125 75.626953 L 67.705078 76.057617 L 68.378906 76.464844 L 69.052734 76.848633 L 69.726562 77.214844 L 70.400391 77.554687 L 71.074219 77.874023 L 71.750977 78.172852 L 72.424805 78.448242 L 73.101562 78.700195 L 73.77832 78.931641 L 74.455078 79.139648 L 75.131836 79.327148 L 75.808594 79.494141 L 76.488281 79.634766 L 77.167969 79.754883 L 77.847656 79.854492 L 78.527344 79.930664 L 79.209961 79.983398 L 79.889648 80.015625 L 80.572266 80.024414 L 81.257812 80.009766 L 81.943359 79.974609 L 82.628906 79.916016 L 83.314453 79.833984 L 84.00293 79.731445 L 84.691406 79.602539 L 85.379883 79.456055 L 86.071289 79.283203 L 86.765625 79.086914 L 87.457031 78.870117 L 88.151367 78.629883 L 88.848633 78.366211 L 89.545898 78.079102 L 90.243164 77.771484 L 90.943359 77.4375 L 91.646484 77.080078 L 92.349609 76.702148 L 93.052734 76.297852 L 93.758789 75.870117 L 94.467773 75.421875 L 95.176758 74.947266 L 95.888672 74.449219 L 96.600586 73.924805 L 97.31543 73.379883 L 98.033203 72.808594 L 98.750977 72.216797 L 99.47168 71.595703 L 100.192383 70.954102 L 100.918945 70.286133 L 101.642578 69.591797 L 102.37207 68.874023 L 103.101562 68.132812 L 103.836914 67.365234 L 104.572266 66.571289 L 105.307617 65.753906 L 106.048828 64.910156 L 106.790039 64.040039 L 107.53418 63.146484 L 108.28125 62.226562 L 109.03125 61.277344 L 109.78418 60.304687 " transform="matrix(1.333333,0,0,1.333333,0,0.000000000000014211)"/>
<path style="fill:none;stroke-width:1.5;stroke-linecap:butt;stroke-linejoin:round;stroke:rgb(12.156863%,46.666667%,70.588237%);stroke-opacity:1;stroke-miterlimit:4;" d="M 44.704102 37.130859 L 45.389648 38.44043 L 46.075195 39.723633 L 46.760742 40.986328 L 47.443359 42.222656 L 48.125977 43.438477 L 48.808594 44.62793 L 49.488281 45.793945 L 50.167969 46.939453 L 50.844727 48.058594 L 51.524414 49.157227 L 52.201172 50.229492 L 52.87793 51.28125 L 53.554688 52.30957 L 54.228516 53.314453 L 54.902344 54.298828 L 55.576172 55.256836 L 56.25 56.194336 L 56.923828 57.108398 L 57.594727 58.001953 L 58.265625 58.869141 L 58.936523 59.71582 L 59.607422 60.541992 L 60.27832 61.341797 L 60.949219 62.121094 L 61.620117 62.879883 L 62.288086 63.615234 L 62.958984 64.327148 L 63.626953 65.018555 L 64.297852 65.686523 L 64.96582 66.331055 L 65.633789 66.955078 L 66.304688 67.558594 L 66.972656 68.138672 L 67.640625 68.695312 L 68.308594 69.231445 L 68.979492 69.744141 L 69.647461 70.236328 L 70.318359 70.708008 L 70.986328 71.15332 L 71.657227 71.581055 L 72.325195 71.982422 L 72.996094 72.366211 L 73.666992 72.723633 L 74.337891 73.063477 L 75.008789 73.379883 L 75.679688 73.672852 L 76.353516 73.945312 L 77.027344 74.194336 L 77.698242 74.422852 L 78.37207 74.62793 L 79.048828 74.80957 L 79.722656 74.970703 L 80.399414 75.111328 L 81.073242 75.228516 L 81.75293 75.322266 L 82.429688 75.395508 L 83.109375 75.448242 L 83.789062 75.474609 L 84.46875 75.480469 L 85.151367 75.46582 L 85.833984 75.427734 L 86.516602 75.366211 L 87.199219 75.28125 L 87.884766 75.175781 L 88.573242 75.046875 L 89.261719 74.894531 L 89.950195 74.72168 L 90.638672 74.525391 L 91.333008 74.305664 L 92.024414 74.0625 L 92.71875 73.798828 L 93.413086 73.508789 L 94.110352 73.198242 L 94.810547 72.864258 L 95.510742 72.503906 L 96.210938 72.123047 L 96.914062 71.71875 L 97.620117 71.291016 L 98.326172 70.839844 L 99.035156 70.365234 L 99.744141 69.864258 L 100.456055 69.342773 L 101.167969 68.794922 L 101.885742 68.223633 L 102.603516 67.628906 L 103.321289 67.010742 L 104.041992 66.366211 L 104.765625 65.698242 L 105.492188 65.003906 L 106.21875 64.286133 L 106.951172 63.544922 L 107.680664 62.777344 L 108.416016 61.983398 L 109.154297 61.166016 L 109.892578 60.322266 L 110.633789 59.455078 L 111.37793 58.558594 L 112.125 57.638672 L 112.875 56.692383 L 113.625 55.719727 " transform="matrix(1.333333,0,0,1.333333,0,0.000000000000014211)"/>
<path style="fill:none;stroke-width:1.5;stroke-linecap:butt;stroke-linejoin:round;stroke:rgb(12.156863%,46.666667%,70.588237%);stroke-opacity:1;stroke-miterlimit:4;" d="M 48.84668 35.214844 L 49.526367 36.512695 L 50.203125 37.787109 L 50.879883 39.041016 L 51.556641 40.268555 L 52.233398 41.472656 L 52.907227 42.65332 L 53.581055 43.810547 L 54.251953 44.944336 L 54.925781 46.054687 L 55.59668 47.144531 L 56.264648 48.210937 L 56.935547 49.250977 L 57.603516 50.273437 L 58.274414 51.269531 L 58.942383 52.245117 L 59.610352 53.194336 L 60.275391 54.125977 L 60.943359 55.03125 L 61.608398 55.916016 L 62.273438 56.777344 L 62.938477 57.618164 L 63.603516 58.435547 L 64.268555 59.229492 L 64.933594 60.00293 L 65.598633 60.75293 L 66.263672 61.482422 L 66.925781 62.188477 L 67.59082 62.874023 L 68.25293 63.536133 L 68.917969 64.177734 L 69.580078 64.795898 L 70.245117 65.390625 L 70.907227 65.964844 L 71.572266 66.518555 L 72.237305 67.048828 L 72.899414 67.558594 L 73.564453 68.044922 L 74.229492 68.510742 L 74.894531 68.953125 L 75.55957 69.375 L 76.224609 69.773437 L 76.889648 70.151367 L 77.554688 70.508789 L 78.222656 70.842773 L 78.887695 71.15625 L 79.555664 71.446289 L 80.223633 71.712891 L 80.891602 71.961914 L 81.5625 72.18457 L 82.230469 72.386719 L 82.901367 72.568359 L 83.572266 72.729492 L 84.246094 72.864258 L 84.916992 72.981445 L 85.59082 73.072266 L 86.264648 73.145508 L 86.941406 73.192383 L 87.615234 73.21875 L 88.291992 73.224609 L 88.97168 73.207031 L 89.648438 73.166016 L 90.331055 73.104492 L 91.010742 73.019531 L 91.693359 72.914062 L 92.375977 72.785156 L 93.061523 72.632812 L 93.74707 72.459961 L 94.435547 72.263672 L 95.124023 72.043945 L 95.8125 71.800781 L 96.503906 71.537109 L 97.195312 71.24707 L 97.889648 70.936523 L 98.586914 70.602539 L 99.28418 70.248047 L 99.981445 69.867187 L 100.681641 69.462891 L 101.384766 69.038086 L 102.087891 68.586914 L 102.793945 68.115234 L 103.50293 67.617187 L 104.211914 67.095703 L 104.920898 66.553711 L 105.635742 65.985352 L 106.350586 65.390625 L 107.068359 64.775391 L 107.786133 64.133789 L 108.506836 63.46875 L 109.230469 62.780273 L 109.957031 62.06543 L 110.683594 61.327148 L 111.416016 60.56543 L 112.148438 59.777344 L 112.883789 58.962891 L 113.619141 58.125 L 114.360352 57.260742 L 115.101562 56.370117 L 115.845703 55.456055 L 116.592773 54.515625 L 117.345703 53.548828 " transform="matrix(1.333333,0,0,1.333333,0,0.000000000000014211)"/>
<path style="fill:none;stroke-width:1.5;stroke-linecap:butt;stroke-linejoin:round;stroke:rgb(12.156863%,46.666667%,70.588237%);stroke-opacity:1;stroke-miterlimit:4;" d="M 52.962891 35.583984 L 53.633789 36.867187 L 54.301758 38.129883 L 54.969727 39.369141 L 55.637695 40.582031 L 56.305664 41.774414 L 56.970703 42.943359 L 57.638672 44.088867 L 58.300781 45.210937 L 58.96582 46.3125 L 59.630859 47.390625 L 60.292969 48.445312 L 60.955078 49.476562 L 61.617188 50.487305 L 62.276367 51.47168 L 62.938477 52.438477 L 63.597656 53.378906 L 64.256836 54.298828 L 64.916016 55.198242 L 65.575195 56.071289 L 66.234375 56.926758 L 66.893555 57.755859 L 67.552734 58.567383 L 68.208984 59.352539 L 68.868164 60.117187 L 69.524414 60.861328 L 70.183594 61.582031 L 70.839844 62.282227 L 71.496094 62.958984 L 72.155273 63.615234 L 72.811523 64.248047 L 73.467773 64.860352 L 74.126953 65.452148 L 74.783203 66.020508 L 75.442383 66.568359 L 76.098633 67.092773 L 76.757812 67.59668 L 77.416992 68.080078 L 78.073242 68.540039 L 78.732422 68.979492 L 79.391602 69.395508 L 80.053711 69.791016 L 80.712891 70.166016 L 81.37207 70.517578 L 82.03418 70.848633 L 82.696289 71.15625 L 83.358398 71.443359 L 84.020508 71.709961 L 84.682617 71.953125 L 85.347656 72.175781 L 86.012695 72.37793 L 86.677734 72.556641 L 87.342773 72.714844 L 88.010742 72.849609 L 88.675781 72.963867 L 89.34668 73.054687 L 90.014648 73.125 L 90.685547 73.174805 L 91.356445 73.201172 L 92.027344 73.207031 L 92.701172 73.189453 L 93.375 73.148437 L 94.051758 73.086914 L 94.728516 73.004883 L 95.405273 72.899414 L 96.084961 72.770508 L 96.764648 72.621094 L 97.447266 72.448242 L 98.129883 72.251953 L 98.8125 72.035156 L 99.498047 71.797852 L 100.186523 71.53418 L 100.875 71.25 L 101.566406 70.942383 L 102.257812 70.611328 L 102.949219 70.259766 L 103.643555 69.881836 L 104.34082 69.483398 L 105.038086 69.061523 L 105.738281 68.616211 L 106.441406 68.147461 L 107.144531 67.655273 L 107.850586 67.142578 L 108.556641 66.603516 L 109.268555 66.041016 L 109.977539 65.455078 L 110.692383 64.845703 L 111.407227 64.209961 L 112.125 63.553711 L 112.845703 62.871094 L 113.566406 62.165039 L 114.292969 61.432617 L 115.019531 60.679687 L 115.749023 59.897461 L 116.478516 59.094727 L 117.213867 58.265625 L 117.949219 57.410156 L 118.6875 56.53125 L 119.428711 55.625977 L 120.175781 54.694336 L 120.922852 53.739258 " transform="matrix(1.333333,0,0,1.333333,0,0.000000000000014211)"/>
<path style="fill:none;stroke-width:1.5;stroke-linecap:butt;stroke-linejoin:round;stroke:rgb(12.156863%,46.666667%,70.588237%);stroke-opacity:1;stroke-miterlimit:4;" d="M 57.029297 38.162109 L 57.691406 39.430664 L 58.350586 40.675781 L 59.009766 41.900391 L 59.668945 43.098633 L 60.328125 44.276367 L 60.984375 45.430664 L 61.640625 46.564453 L 62.296875 47.671875 L 62.953125 48.758789 L 63.606445 49.822266 L 64.262695 50.865234 L 64.916016 51.884766 L 65.569336 52.880859 L 66.219727 53.856445 L 66.873047 54.808594 L 67.526367 55.740234 L 68.176758 56.648437 L 68.827148 57.536133 L 69.477539 58.400391 L 70.130859 59.244141 L 70.78125 60.067383 L 71.431641 60.867187 L 72.082031 61.643555 L 72.729492 62.399414 L 73.379883 63.134766 L 74.030273 63.84668 L 74.680664 64.538086 L 75.331055 65.208984 L 75.981445 65.856445 L 76.631836 66.483398 L 77.279297 67.089844 L 77.929688 67.672852 L 78.580078 68.235352 L 79.233398 68.777344 L 79.883789 69.295898 L 80.53418 69.793945 L 81.18457 70.271484 L 81.837891 70.725586 L 82.488281 71.162109 L 83.141602 71.575195 L 83.794922 71.964844 L 84.448242 72.336914 L 85.101562 72.685547 L 85.757812 73.010742 L 86.411133 73.318359 L 87.067383 73.602539 L 87.723633 73.866211 L 88.379883 74.109375 L 89.039062 74.329102 L 89.695312 74.52832 L 90.354492 74.707031 L 91.016602 74.862305 L 91.675781 75 L 92.337891 75.111328 L 93 75.205078 L 93.665039 75.275391 L 94.327148 75.325195 L 94.992188 75.351562 L 95.660156 75.357422 L 96.328125 75.339844 L 96.996094 75.304687 L 97.666992 75.243164 L 98.337891 75.164062 L 99.008789 75.061523 L 99.682617 74.935547 L 100.356445 74.789062 L 101.033203 74.619141 L 101.709961 74.428711 L 102.389648 74.214844 L 103.069336 73.980469 L 103.751953 73.722656 L 104.43457 73.444336 L 105.120117 73.142578 L 105.805664 72.817383 L 106.494141 72.47168 L 107.182617 72.099609 L 107.874023 71.709961 L 108.568359 71.293945 L 109.262695 70.854492 L 109.959961 70.394531 L 110.657227 69.911133 L 111.357422 69.404297 L 112.060547 68.874023 L 112.766602 68.320312 L 113.472656 67.746094 L 114.181641 67.145508 L 114.890625 66.521484 L 115.605469 65.874023 L 116.320312 65.203125 L 117.035156 64.505859 L 117.755859 63.788086 L 118.476562 63.043945 L 119.203125 62.276367 L 119.929688 61.485352 L 120.65918 60.667969 L 121.388672 59.827148 L 122.124023 58.959961 L 122.862305 58.069336 L 123.600586 57.155273 L 124.344727 56.211914 " transform="matrix(1.333333,0,0,1.333333,0,0.000000000000014211)"/>
<path style="fill:none;stroke-width:1.5;stroke-linecap:butt;stroke-linejoin:round;stroke:rgb(12.156863%,46.666667%,70.588237%);stroke-opacity:1;stroke-miterlimit:4;" d="M 61.03125 42.864258 L 61.68457 44.115234 L 62.332031 45.342773 L 62.982422 46.546875 L 63.632812 47.730469 L 64.280273 48.890625 L 64.927734 50.027344 L 65.572266 51.143555 L 66.219727 52.236328 L 66.864258 53.308594 L 67.511719 54.357422 L 68.15625 55.385742 L 68.800781 56.390625 L 69.442383 57.375 L 70.086914 58.335937 L 70.731445 59.273437 L 71.373047 60.193359 L 72.014648 61.089844 L 72.65918 61.962891 L 73.300781 62.818359 L 73.942383 63.650391 L 74.583984 64.458984 L 75.225586 65.25 L 75.867188 66.014648 L 76.508789 66.761719 L 77.150391 67.488281 L 77.791992 68.191406 L 78.433594 68.874023 L 79.075195 69.536133 L 79.716797 70.174805 L 80.358398 70.792969 L 81 71.390625 L 81.641602 71.967773 L 82.286133 72.524414 L 82.927734 73.057617 L 83.569336 73.573242 L 84.213867 74.06543 L 84.858398 74.537109 L 85.50293 74.985352 L 86.147461 75.416016 L 86.791992 75.826172 L 87.436523 76.212891 L 88.081055 76.579102 L 88.728516 76.924805 L 89.375977 77.25 L 90.023438 77.551758 L 90.670898 77.835937 L 91.321289 78.09668 L 91.97168 78.336914 L 92.62207 78.556641 L 93.272461 78.755859 L 93.922852 78.93457 L 94.576172 79.089844 L 95.229492 79.224609 L 95.885742 79.338867 L 96.539062 79.432617 L 97.198242 79.50293 L 97.854492 79.555664 L 98.513672 79.584961 L 99.172852 79.59375 L 99.832031 79.579102 L 100.494141 79.543945 L 101.15918 79.488281 L 101.821289 79.412109 L 102.489258 79.3125 L 103.154297 79.192383 L 103.822266 79.051758 L 104.493164 78.887695 L 105.164062 78.700195 L 105.834961 78.495117 L 106.508789 78.266602 L 107.185547 78.014648 L 107.862305 77.742187 L 108.539062 77.449219 L 109.21875 77.132812 L 109.901367 76.792969 L 110.583984 76.432617 L 111.269531 76.048828 L 111.958008 75.644531 L 112.646484 75.216797 L 113.334961 74.765625 L 114.029297 74.291016 L 114.723633 73.795898 L 115.417969 73.277344 L 116.118164 72.738281 L 116.818359 72.172852 L 117.518555 71.583984 L 118.224609 70.974609 L 118.930664 70.341797 L 119.639648 69.682617 L 120.351562 69.00293 L 121.063477 68.299805 L 121.78125 67.570312 L 122.499023 66.817383 L 123.219727 66.043945 L 123.943359 65.244141 L 124.669922 64.417969 L 125.396484 63.571289 L 126.128906 62.698242 L 126.861328 61.798828 L 127.59668 60.878906 " transform="matrix(1.333333,0,0,1.333333,0,0.000000000000014211)"/>
<path style="fill:none;stroke-width:1.5;stroke-linecap:butt;stroke-linejoin:round;stroke:rgb(12.156863%,46.666667%,70.588237%);stroke-opacity:1;stroke-miterlimit:4;" d="M 64.951172 49.584961 L 65.592773 50.8125 L 66.231445 52.022461 L 66.870117 53.206055 L 67.508789 54.369141 L 68.144531 55.511719 L 68.783203 56.630859 L 69.418945 57.726562 L 70.054688 58.801758 L 70.69043 59.856445 L 71.323242 60.890625 L 71.958984 61.901367 L 72.591797 62.888672 L 73.227539 63.858398 L 73.860352 64.804687 L 74.493164 65.730469 L 75.125977 66.632812 L 75.758789 67.514648 L 76.391602 68.375977 L 77.024414 69.216797 L 77.657227 70.037109 L 78.290039 70.833984 L 78.922852 71.613281 L 79.552734 72.369141 L 80.185547 73.104492 L 80.818359 73.819336 L 81.451172 74.510742 L 82.083984 75.18457 L 82.713867 75.837891 L 83.34668 76.467773 L 83.979492 77.077148 L 84.612305 77.668945 L 85.248047 78.237305 L 85.880859 78.785156 L 86.513672 79.3125 L 87.149414 79.822266 L 87.782227 80.308594 L 88.417969 80.774414 L 89.053711 81.219727 L 89.689453 81.644531 L 90.325195 82.048828 L 90.963867 82.432617 L 91.599609 82.792969 L 92.238281 83.135742 L 92.876953 83.458008 L 93.515625 83.759766 L 94.157227 84.041016 L 94.798828 84.301758 L 95.4375 84.539062 L 96.082031 84.758789 L 96.723633 84.958008 L 97.368164 85.133789 L 98.012695 85.291992 L 98.657227 85.426758 L 99.304688 85.543945 L 99.952148 85.637695 L 100.602539 85.710937 L 101.25 85.766602 L 101.90332 85.798828 L 102.553711 85.810547 L 103.207031 85.798828 L 103.860352 85.769531 L 104.516602 85.719727 L 105.172852 85.646484 L 105.832031 85.552734 L 106.491211 85.438477 L 107.150391 85.303711 L 107.8125 85.145508 L 108.474609 84.966797 L 109.139648 84.767578 L 109.807617 84.547852 L 110.475586 84.304687 L 111.143555 84.043945 L 111.814453 83.756836 L 112.488281 83.452148 L 113.162109 83.121094 L 113.838867 82.772461 L 114.515625 82.400391 L 115.195312 82.007812 L 115.875 81.591797 L 116.560547 81.152344 L 117.243164 80.692383 L 117.931641 80.211914 L 118.620117 79.705078 L 119.311523 79.180664 L 120.00293 78.629883 L 120.700195 78.058594 L 121.397461 77.463867 L 122.097656 76.845703 L 122.797852 76.207031 L 123.500977 75.541992 L 124.207031 74.856445 L 124.916016 74.147461 L 125.62793 73.415039 L 126.342773 72.65625 L 127.057617 71.876953 L 127.775391 71.074219 L 128.496094 70.245117 L 129.219727 69.395508 L 129.946289 68.519531 L 130.675781 67.620117 " transform="matrix(1.333333,0,0,1.333333,0,0.000000000000014211)"/>
<path style="fill:none;stroke-width:1.5;stroke-linecap:butt;stroke-linejoin:round;stroke:rgb(12.156863%,46.666667%,70.588237%);stroke-opacity:1;stroke-miterlimit:4;" d="M 24.319336 81.870117 L 24.711914 80.408203 L 25.104492 78.966797 L 25.49707 77.551758 L 25.892578 76.157227 L 26.288086 74.783203 L 26.683594 73.435547 L 27.082031 72.108398 L 27.480469 70.804687 L 27.878906 69.521484 L 28.280273 68.264648 L 28.681641 67.02832 L 29.083008 65.818359 L 29.484375 64.628906 L 29.888672 63.462891 L 30.290039 62.320312 L 30.697266 61.201172 L 31.101562 60.102539 L 31.505859 59.030273 L 31.913086 57.981445 L 32.320312 56.956055 L 32.727539 55.951172 L 33.134766 54.972656 L 33.544922 54.017578 L 33.955078 53.083008 L 34.365234 52.174805 L 34.775391 51.290039 L 35.185547 50.428711 L 35.595703 49.59082 L 36.005859 48.776367 L 36.418945 47.985352 L 36.832031 47.217773 L 37.245117 46.473633 L 37.658203 45.755859 L 38.071289 45.058594 L 38.484375 44.387695 L 38.897461 43.737305 L 39.310547 43.113281 L 39.726562 42.509766 L 40.139648 41.932617 L 40.555664 41.378906 L 40.96875 40.848633 L 41.384766 40.341797 L 41.797852 39.858398 L 42.213867 39.398437 L 42.629883 38.961914 L 43.042969 38.548828 L 43.458984 38.15918 L 43.875 37.792969 L 44.288086 37.450195 L 44.704102 37.130859 L 45.120117 36.834961 L 45.533203 36.5625 L 45.949219 36.313477 L 46.362305 36.087891 L 46.77832 35.882812 L 47.191406 35.704102 L 47.607422 35.548828 L 48.020508 35.414062 L 48.433594 35.302734 L 48.84668 35.214844 L 49.259766 35.150391 L 49.672852 35.109375 L 50.085938 35.088867 L 50.496094 35.091797 L 50.90918 35.118164 L 51.319336 35.165039 L 51.732422 35.235352 L 52.142578 35.329102 L 52.552734 35.446289 L 52.962891 35.583984 L 53.370117 35.742187 L 53.780273 35.923828 L 54.1875 36.128906 L 54.594727 36.354492 L 55.001953 36.600586 L 55.40918 36.870117 L 55.816406 37.160156 L 56.220703 37.473633 L 56.625 37.807617 L 57.029297 38.162109 L 57.433594 38.540039 L 57.837891 38.935547 L 58.239258 39.354492 L 58.640625 39.793945 L 59.041992 40.253906 L 59.44043 40.734375 L 59.838867 41.238281 L 60.237305 41.759766 L 60.635742 42.301758 L 61.03125 42.864258 L 61.429688 43.447266 L 61.822266 44.050781 L 62.217773 44.674805 L 62.610352 45.316406 L 63.00293 45.978516 L 63.395508 46.661133 L 63.785156 47.364258 L 64.174805 48.084961 L 64.564453 48.823242 L 64.951172 49.584961 " transform="matrix(1.333333,0,0,1.333333,0,0.000000000000014211)"/>
<path style="fill:none;stroke-width:1.5;stroke-linecap:butt;stroke-linejoin:round;stroke:rgb(12.156863%,46.666667%,70.588237%);stroke-opacity:1;stroke-miterlimit:4;" d="M 31.327148 93.960937 L 31.716797 92.504883 L 32.109375 91.072266 L 32.501953 89.660156 L 32.894531 88.268555 L 33.290039 86.90332 L 33.685547 85.555664 L 34.081055 84.234375 L 34.479492 82.933594 L 34.875 81.65625 L 35.273438 80.402344 L 35.671875 79.168945 L 36.073242 77.958984 L 36.47168 76.772461 L 36.873047 75.609375 L 37.274414 74.466797 L 37.675781 73.347656 L 38.077148 72.254883 L 38.481445 71.182617 L 38.885742 70.130859 L 39.290039 69.105469 L 39.694336 68.103516 L 40.098633 67.12207 L 40.50293 66.166992 L 40.907227 65.232422 L 41.314453 64.324219 L 41.72168 63.436523 L 42.128906 62.572266 L 42.536133 61.734375 L 42.943359 60.916992 L 43.350586 60.123047 L 43.757812 59.352539 L 44.165039 58.605469 L 44.572266 57.881836 L 44.982422 57.181641 L 45.389648 56.504883 L 45.799805 55.851562 L 46.207031 55.22168 L 46.617188 54.615234 L 47.027344 54.032227 L 47.43457 53.472656 L 47.844727 52.936523 L 48.251953 52.423828 L 48.662109 51.93457 L 49.072266 51.46875 L 49.479492 51.023437 L 49.889648 50.604492 L 50.296875 50.208984 L 50.707031 49.833984 L 51.114258 49.482422 L 51.524414 49.157227 L 51.931641 48.852539 L 52.341797 48.571289 L 52.749023 48.313477 L 53.15625 48.076172 L 53.563477 47.865234 L 53.970703 47.674805 L 54.37793 47.507812 L 54.782227 47.364258 L 55.189453 47.244141 L 55.59668 47.144531 L 56.000977 47.068359 L 56.405273 47.015625 L 56.80957 46.983398 L 57.213867 46.974609 L 57.618164 46.989258 L 58.022461 47.024414 L 58.423828 47.083008 L 58.828125 47.162109 L 59.229492 47.264648 L 59.630859 47.390625 L 60.029297 47.537109 L 60.430664 47.704102 L 60.829102 47.894531 L 61.227539 48.105469 L 61.625977 48.336914 L 62.024414 48.591797 L 62.419922 48.867187 L 62.818359 49.166016 L 63.213867 49.482422 L 63.606445 49.822266 L 64.001953 50.182617 L 64.394531 50.566406 L 64.787109 50.967773 L 65.179688 51.389648 L 65.569336 51.834961 L 65.958984 52.297852 L 66.348633 52.78418 L 66.735352 53.288086 L 67.125 53.8125 L 67.511719 54.357422 L 67.895508 54.922852 L 68.282227 55.508789 L 68.666016 56.112305 L 69.046875 56.736328 L 69.430664 57.380859 L 69.811523 58.045898 L 70.189453 58.728516 L 70.570312 59.428711 L 70.948242 60.149414 L 71.323242 60.890625 " transform="matrix(1.333333,0,0,1.333333,0,0.000000000000014211)"/>
<path style="fill:none;stroke-width:1.5;stroke-linecap:butt;stroke-linejoin:round;stroke:rgb(12.156863%,46.666667%,70.588237%);stroke-opacity:1;stroke-miterlimit:4;" d="M 38.217773 103.78125 L 38.610352 102.328125 L 39.00293 100.895508 L 39.395508 99.486328 L 39.788086 98.097656 L 40.180664 96.732422 L 40.576172 95.390625 L 40.97168 94.069336 L 41.367188 92.768555 L 41.762695 91.494141 L 42.161133 90.240234 L 42.556641 89.006836 L 42.955078 87.799805 L 43.353516 86.613281 L 43.751953 85.447266 L 44.15332 84.307617 L 44.551758 83.188477 L 44.953125 82.092773 L 45.354492 81.020508 L 45.755859 79.97168 L 46.157227 78.943359 L 46.558594 77.938477 L 46.959961 76.957031 L 47.361328 75.999023 L 47.765625 75.064453 L 48.166992 74.15332 L 48.571289 73.262695 L 48.975586 72.398437 L 49.379883 71.554687 L 49.78125 70.734375 L 50.185547 69.94043 L 50.589844 69.166992 L 50.994141 68.414062 L 51.398438 67.6875 L 51.802734 66.984375 L 52.207031 66.304687 L 52.611328 65.645508 L 53.018555 65.012695 L 53.422852 64.400391 L 53.827148 63.814453 L 54.231445 63.249023 L 54.635742 62.707031 L 55.040039 62.188477 L 55.444336 61.693359 L 55.845703 61.22168 L 56.25 60.770508 L 56.654297 60.345703 L 57.058594 59.941406 L 57.459961 59.560547 L 57.864258 59.203125 L 58.265625 58.869141 L 58.669922 58.558594 L 59.071289 58.268555 L 59.472656 58.004883 L 59.874023 57.761719 L 60.275391 57.541992 L 60.676758 57.342773 L 61.075195 57.166992 L 61.476562 57.014648 L 61.875 56.885742 L 62.273438 56.777344 L 62.671875 56.692383 L 63.070312 56.630859 L 63.46875 56.589844 L 63.864258 56.572266 L 64.262695 56.575195 L 64.658203 56.601562 L 65.053711 56.651367 L 65.446289 56.71875 L 65.841797 56.8125 L 66.234375 56.926758 L 66.626953 57.061523 L 67.019531 57.219727 L 67.412109 57.398437 L 67.801758 57.597656 L 68.191406 57.820312 L 68.581055 58.060547 L 68.967773 58.327148 L 69.357422 58.611328 L 69.744141 58.918945 L 70.130859 59.244141 L 70.514648 59.592773 L 70.898438 59.961914 L 71.282227 60.351562 L 71.666016 60.761719 L 72.046875 61.192383 L 72.427734 61.643555 L 72.808594 62.115234 L 73.186523 62.607422 L 73.564453 63.117187 L 73.942383 63.650391 L 74.317383 64.201172 L 74.692383 64.772461 L 75.067383 65.361328 L 75.439453 65.973633 L 75.811523 66.600586 L 76.183594 67.250977 L 76.552734 67.918945 L 76.921875 68.604492 L 77.291016 69.310547 L 77.657227 70.037109 " transform="matrix(1.333333,0,0,1.333333,0,0.000000000000014211)"/>
<path style="fill:none;stroke-width:1.5;stroke-linecap:butt;stroke-linejoin:round;stroke:rgb(12.156863%,46.666667%,70.588237%);stroke-opacity:1;stroke-miterlimit:4;" d="M 45.032227 111.383789 L 45.424805 109.930664 L 45.817383 108.500977 L 46.209961 107.091797 L 46.602539 105.703125 L 46.998047 104.337891 L 47.390625 102.993164 L 47.786133 101.671875 L 48.181641 100.371094 L 48.577148 99.09375 L 48.972656 97.839844 L 49.371094 96.606445 L 49.769531 95.396484 L 50.165039 94.209961 L 50.563477 93.043945 L 50.961914 91.901367 L 51.360352 90.782227 L 51.758789 89.683594 L 52.160156 88.608398 L 52.558594 87.556641 L 52.959961 86.52832 L 53.358398 85.520508 L 53.759766 84.539062 L 54.161133 83.578125 L 54.55957 82.640625 L 54.960938 81.723633 L 55.362305 80.833008 L 55.763672 79.962891 L 56.165039 79.119141 L 56.566406 78.295898 L 56.964844 77.496094 L 57.366211 76.716797 L 57.767578 75.963867 L 58.168945 75.234375 L 58.570312 74.525391 L 58.97168 73.839844 L 59.373047 73.180664 L 59.774414 72.541992 L 60.175781 71.926758 L 60.574219 71.332031 L 60.975586 70.763672 L 61.376953 70.21582 L 61.775391 69.694336 L 62.176758 69.193359 L 62.575195 68.71582 L 62.973633 68.261719 L 63.37207 67.831055 L 63.770508 67.420898 L 64.168945 67.03418 L 64.567383 66.673828 L 64.96582 66.331055 L 65.364258 66.014648 L 65.759766 65.72168 L 66.155273 65.449219 L 66.550781 65.200195 L 66.946289 64.97168 L 67.341797 64.769531 L 67.737305 64.587891 L 68.129883 64.426758 L 68.525391 64.291992 L 68.917969 64.177734 L 69.310547 64.083984 L 69.700195 64.013672 L 70.092773 63.966797 L 70.482422 63.94043 L 70.87207 63.9375 L 71.261719 63.958008 L 71.651367 63.996094 L 72.038086 64.060547 L 72.424805 64.142578 L 72.811523 64.248047 L 73.198242 64.376953 L 73.582031 64.526367 L 73.96582 64.696289 L 74.349609 64.886719 L 74.730469 65.100586 L 75.114258 65.334961 L 75.495117 65.589844 L 75.873047 65.868164 L 76.253906 66.164062 L 76.631836 66.483398 L 77.006836 66.823242 L 77.384766 67.183594 L 77.759766 67.561523 L 78.134766 67.962891 L 78.506836 68.384766 L 78.878906 68.827148 L 79.250977 69.287109 L 79.620117 69.770508 L 79.989258 70.271484 L 80.358398 70.792969 L 80.724609 71.334961 L 81.09082 71.897461 L 81.457031 72.477539 L 81.820312 73.078125 L 82.183594 73.696289 L 82.543945 74.334961 L 82.907227 74.991211 L 83.264648 75.667969 L 83.625 76.365234 L 83.979492 77.077148 " transform="matrix(1.333333,0,0,1.333333,0,0.000000000000014211)"/>
<path style="fill:none;stroke-width:1.5;stroke-linecap:butt;stroke-linejoin:round;stroke:rgb(12.156863%,46.666667%,70.588237%);stroke-opacity:1;stroke-miterlimit:4;" d="M 51.802734 116.8125 L 52.195312 115.359375 L 52.59082 113.923828 L 52.983398 112.511719 L 53.378906 111.123047 L 53.771484 109.751953 L 54.166992 108.407227 L 54.5625 107.083008 L 54.958008 105.779297 L 55.356445 104.499023 L 55.751953 103.242187 L 56.150391 102.005859 L 56.545898 100.792969 L 56.944336 99.603516 L 57.342773 98.43457 L 57.738281 97.289062 L 58.136719 96.164062 L 58.535156 95.06543 L 58.933594 93.987305 L 59.332031 92.929687 L 59.733398 91.898437 L 60.131836 90.887695 L 60.530273 89.900391 L 60.928711 88.936523 L 61.330078 87.996094 L 61.728516 87.076172 L 62.126953 86.182617 L 62.525391 85.30957 L 62.926758 84.459961 L 63.325195 83.633789 L 63.723633 82.828125 L 64.12207 82.048828 L 64.520508 81.290039 L 64.918945 80.554687 L 65.317383 79.842773 L 65.71582 79.154297 L 66.114258 78.489258 L 66.512695 77.847656 L 66.911133 77.226562 L 67.306641 76.628906 L 67.705078 76.057617 L 68.100586 75.506836 L 68.499023 74.976562 L 68.894531 74.472656 L 69.290039 73.992187 L 69.685547 73.532227 L 70.081055 73.095703 L 70.476562 72.682617 L 70.869141 72.292969 L 71.264648 71.923828 L 71.657227 71.581055 L 72.049805 71.258789 L 72.442383 70.957031 L 72.832031 70.681641 L 73.224609 70.426758 L 73.614258 70.195312 L 74.003906 69.987305 L 74.393555 69.799805 L 74.783203 69.635742 L 75.169922 69.495117 L 75.55957 69.375 L 75.946289 69.27832 L 76.330078 69.202148 L 76.716797 69.149414 L 77.100586 69.120117 L 77.484375 69.111328 L 77.868164 69.123047 L 78.251953 69.158203 L 78.632812 69.216797 L 79.013672 69.295898 L 79.391602 69.395508 L 79.772461 69.518555 L 80.150391 69.662109 L 80.52832 69.826172 L 80.90332 70.010742 L 81.27832 70.21875 L 81.65332 70.447266 L 82.02832 70.699219 L 82.400391 70.96875 L 82.772461 71.261719 L 83.141602 71.575195 L 83.510742 71.90625 L 83.879883 72.260742 L 84.249023 72.635742 L 84.615234 73.03125 L 84.981445 73.447266 L 85.344727 73.880859 L 85.708008 74.337891 L 86.071289 74.8125 L 86.431641 75.310547 L 86.791992 75.826172 L 87.149414 76.359375 L 87.506836 76.916016 L 87.864258 77.490234 L 88.21875 78.084961 L 88.573242 78.697266 L 88.927734 79.330078 L 89.279297 79.980469 L 89.62793 80.651367 L 89.979492 81.339844 L 90.325195 82.048828 " transform="matrix(1.333333,0,0,1.333333,0,0.000000000000014211)"/>
<path style="fill:none;stroke-width:1.5;stroke-linecap:butt;stroke-linejoin:round;stroke:rgb(12.156863%,46.666667%,70.588237%);stroke-opacity:1;stroke-miterlimit:4;" d="M 58.567383 120.082031 L 58.959961 118.623047 L 59.355469 117.181641 L 59.750977 115.766602 L 60.146484 114.369141 L 60.544922 112.998047 L 60.94043 111.644531 L 61.335938 110.314453 L 61.734375 109.007812 L 62.129883 107.724609 L 62.52832 106.461914 L 62.926758 105.219727 L 63.325195 104.000977 L 63.723633 102.805664 L 64.12207 101.633789 L 64.517578 100.482422 L 64.916016 99.354492 L 65.314453 98.25 L 65.71582 97.166016 L 66.114258 96.105469 L 66.512695 95.068359 L 66.911133 94.054687 L 67.30957 93.061523 L 67.708008 92.094727 L 68.106445 91.148437 L 68.504883 90.225586 L 68.90332 89.326172 L 69.298828 88.447266 L 69.697266 87.594727 L 70.095703 86.762695 L 70.494141 85.954102 L 70.889648 85.168945 L 71.288086 84.407227 L 71.683594 83.668945 L 72.082031 82.954102 L 72.477539 82.259766 L 72.873047 81.588867 L 73.268555 80.944336 L 73.664062 80.320312 L 74.05957 79.719727 L 74.455078 79.139648 L 74.847656 78.585937 L 75.240234 78.055664 L 75.635742 77.545898 L 76.02832 77.05957 L 76.420898 76.59668 L 76.810547 76.157227 L 77.203125 75.741211 L 77.592773 75.345703 L 77.982422 74.976562 L 78.37207 74.62793 L 78.761719 74.302734 L 79.151367 73.998047 L 79.538086 73.716797 L 79.924805 73.461914 L 80.311523 73.224609 L 80.695312 73.013672 L 81.082031 72.823242 L 81.46582 72.65625 L 81.849609 72.509766 L 82.230469 72.386719 L 82.614258 72.287109 L 82.995117 72.210937 L 83.375977 72.152344 L 83.753906 72.120117 L 84.131836 72.108398 L 84.509766 72.117187 L 84.887695 72.149414 L 85.262695 72.205078 L 85.637695 72.28125 L 86.012695 72.37793 L 86.384766 72.498047 L 86.756836 72.638672 L 87.128906 72.799805 L 87.498047 72.984375 L 87.867188 73.189453 L 88.236328 73.415039 L 88.602539 73.661133 L 88.96875 73.930664 L 89.332031 74.217773 L 89.695312 74.52832 L 90.058594 74.859375 L 90.421875 75.210937 L 90.782227 75.583008 L 91.139648 75.975586 L 91.5 76.388672 L 91.854492 76.822266 L 92.211914 77.276367 L 92.566406 77.748047 L 92.920898 78.243164 L 93.272461 78.755859 L 93.624023 79.289062 L 93.972656 79.842773 L 94.321289 80.414062 L 94.666992 81.005859 L 95.012695 81.615234 L 95.358398 82.248047 L 95.701172 82.895508 L 96.043945 83.563477 L 96.383789 84.251953 L 96.723633 84.958008 " transform="matrix(1.333333,0,0,1.333333,0,0.000000000000014211)"/>
<path style="fill:none;stroke-width:1.5;stroke-linecap:butt;stroke-linejoin:round;stroke:rgb(12.156863%,46.666667%,70.588237%);stroke-opacity:1;stroke-miterlimit:4;" d="M 65.355469 121.186523 L 65.753906 119.71582 L 66.152344 118.268555 L 66.550781 116.844727 L 66.946289 115.441406 L 67.344727 114.061523 L 67.746094 112.702148 L 68.144531 111.366211 L 68.542969 110.050781 L 68.941406 108.758789 L 69.339844 107.487305 L 69.738281 106.242187 L 70.139648 105.014648 L 70.538086 103.813477 L 70.936523 102.632812 L 71.337891 101.475586 L 71.736328 100.341797 L 72.134766 99.231445 L 72.533203 98.141602 L 72.93457 97.075195 L 73.333008 96.032227 L 73.731445 95.012695 L 74.129883 94.013672 L 74.52832 93.041016 L 74.926758 92.088867 L 75.325195 91.160156 L 75.723633 90.254883 L 76.119141 89.373047 L 76.517578 88.514648 L 76.916016 87.676758 L 77.311523 86.865234 L 77.707031 86.074219 L 78.105469 85.30957 L 78.500977 84.56543 L 78.896484 83.844727 L 79.289062 83.147461 L 79.68457 82.473633 L 80.077148 81.823242 L 80.472656 81.196289 L 80.865234 80.589844 L 81.257812 80.009766 L 81.650391 79.450195 L 82.040039 78.916992 L 82.432617 78.404297 L 82.822266 77.915039 L 83.211914 77.449219 L 83.601562 77.006836 L 83.988281 76.587891 L 84.37793 76.189453 L 84.764648 75.817383 L 85.151367 75.46582 L 85.535156 75.137695 L 85.921875 74.833008 L 86.305664 74.548828 L 86.689453 74.291016 L 87.070312 74.053711 L 87.451172 73.839844 L 87.832031 73.646484 L 88.212891 73.476562 L 88.59375 73.330078 L 88.97168 73.207031 L 89.349609 73.104492 L 89.724609 73.025391 L 90.099609 72.969727 L 90.474609 72.93457 L 90.849609 72.922852 L 91.22168 72.931641 L 91.59375 72.963867 L 91.962891 73.016602 L 92.332031 73.092773 L 92.701172 73.189453 L 93.070312 73.306641 L 93.436523 73.447266 L 93.802734 73.608398 L 94.166016 73.792969 L 94.529297 73.998047 L 94.889648 74.223633 L 95.25293 74.472656 L 95.610352 74.742187 L 95.970703 75.029297 L 96.328125 75.339844 L 96.682617 75.673828 L 97.040039 76.025391 L 97.391602 76.397461 L 97.746094 76.792969 L 98.094727 77.206055 L 98.446289 77.639648 L 98.794922 78.09375 L 99.143555 78.568359 L 99.489258 79.063477 L 99.832031 79.579102 L 100.177734 80.115234 L 100.517578 80.668945 L 100.860352 81.243164 L 101.200195 81.834961 L 101.537109 82.447266 L 101.874023 83.080078 L 102.208008 83.733398 L 102.541992 84.401367 L 102.875977 85.092773 L 103.207031 85.798828 " transform="matrix(1.333333,0,0,1.333333,0,0.000000000000014211)"/>
<path style="fill:none;stroke-width:1.5;stroke-linecap:butt;stroke-linejoin:round;stroke:rgb(12.156863%,46.666667%,70.588237%);stroke-opacity:1;stroke-miterlimit:4;" d="M 72.210938 120.09082 L 72.612305 118.611328 L 73.013672 117.152344 L 73.415039 115.719727 L 73.813477 114.304687 L 74.214844 112.913086 L 74.616211 111.544922 L 75.017578 110.197266 L 75.418945 108.875977 L 75.820312 107.572266 L 76.22168 106.294922 L 76.623047 105.038086 L 77.024414 103.804687 L 77.425781 102.591797 L 77.827148 101.405273 L 78.228516 100.239258 L 78.629883 99.09668 L 79.03125 97.977539 L 79.429688 96.881836 L 79.831055 95.806641 L 80.232422 94.757812 L 80.630859 93.729492 L 81.029297 92.724609 L 81.430664 91.743164 L 81.829102 90.785156 L 82.227539 89.850586 L 82.625977 88.939453 L 83.024414 88.051758 L 83.419922 87.1875 L 83.818359 86.34668 L 84.213867 85.529297 L 84.612305 84.732422 L 85.007812 83.961914 L 85.400391 83.211914 L 85.795898 82.488281 L 86.191406 81.788086 L 86.583984 81.108398 L 86.976562 80.455078 L 87.369141 79.822266 L 87.761719 79.21582 L 88.151367 78.629883 L 88.543945 78.067383 L 88.933594 77.53125 L 89.320312 77.015625 L 89.709961 76.523437 L 90.09668 76.057617 L 90.483398 75.612305 L 90.870117 75.19043 L 91.256836 74.791992 L 91.640625 74.414062 L 92.024414 74.0625 L 92.408203 73.734375 L 92.789062 73.426758 L 93.169922 73.142578 L 93.550781 72.884766 L 93.931641 72.647461 L 94.30957 72.430664 L 94.6875 72.240234 L 95.0625 72.070312 L 95.4375 71.923828 L 95.8125 71.800781 L 96.1875 71.701172 L 96.55957 71.62207 L 96.928711 71.566406 L 97.300781 71.53125 L 97.669922 71.519531 L 98.039062 71.53125 L 98.405273 71.563477 L 98.771484 71.619141 L 99.134766 71.698242 L 99.498047 71.797852 L 99.861328 71.917969 L 100.224609 72.061523 L 100.582031 72.225586 L 100.942383 72.413086 L 101.299805 72.621094 L 101.657227 72.849609 L 102.011719 73.101562 L 102.366211 73.374023 L 102.717773 73.666992 L 103.069336 73.980469 L 103.420898 74.317383 L 103.769531 74.671875 L 104.115234 75.049805 L 104.460938 75.448242 L 104.806641 75.867187 L 105.149414 76.306641 L 105.492188 76.766602 L 105.832031 77.24707 L 106.171875 77.745117 L 106.508789 78.266602 L 106.845703 78.805664 L 107.179688 79.365234 L 107.513672 79.945312 L 107.844727 80.545898 L 108.175781 81.164062 L 108.506836 81.802734 L 108.832031 82.461914 L 109.160156 83.138672 L 109.482422 83.833008 L 109.807617 84.547852 " transform="matrix(1.333333,0,0,1.333333,0,0.000000000000014211)"/>
<path style="fill:none;stroke-width:1.5;stroke-linecap:butt;stroke-linejoin:round;stroke:rgb(12.156863%,46.666667%,70.588237%);stroke-opacity:1;stroke-miterlimit:4;" d="M 79.166016 116.745117 L 79.573242 115.250977 L 79.977539 113.780273 L 80.381836 112.333008 L 80.786133 110.90625 L 81.193359 109.50293 L 81.597656 108.120117 L 82.001953 106.763672 L 82.40625 105.427734 L 82.810547 104.112305 L 83.214844 102.823242 L 83.619141 101.554687 L 84.023438 100.30957 L 84.427734 99.087891 L 84.832031 97.889648 L 85.233398 96.714844 L 85.637695 95.563477 L 86.041992 94.435547 L 86.443359 93.328125 L 86.844727 92.24707 L 87.246094 91.186523 L 87.647461 90.152344 L 88.048828 89.138672 L 88.450195 88.151367 L 88.851562 87.18457 L 89.25 86.244141 L 89.648438 85.324219 L 90.049805 84.430664 L 90.445312 83.557617 L 90.84375 82.710937 L 91.242188 81.887695 L 91.637695 81.084961 L 92.033203 80.308594 L 92.428711 79.555664 L 92.824219 78.826172 L 93.216797 78.120117 L 93.612305 77.4375 L 94.004883 76.78125 L 94.394531 76.145508 L 94.787109 75.533203 L 95.176758 74.947266 L 95.566406 74.381836 L 95.956055 73.842773 L 96.342773 73.324219 L 96.729492 72.832031 L 97.116211 72.360352 L 97.50293 71.915039 L 97.886719 71.493164 L 98.270508 71.091797 L 98.651367 70.716797 L 99.035156 70.365234 L 99.416016 70.03418 L 99.793945 69.729492 L 100.171875 69.445312 L 100.549805 69.1875 L 100.927734 68.950195 L 101.302734 68.736328 L 101.677734 68.545898 L 102.049805 68.378906 L 102.421875 68.235352 L 102.793945 68.115234 L 103.166016 68.015625 L 103.532227 67.939453 L 103.901367 67.886719 L 104.267578 67.857422 L 104.633789 67.848633 L 104.99707 67.866211 L 105.360352 67.901367 L 105.720703 67.962891 L 106.081055 68.044922 L 106.441406 68.147461 L 106.798828 68.273437 L 107.15625 68.422852 L 107.510742 68.592773 L 107.865234 68.786133 L 108.216797 69 L 108.568359 69.237305 L 108.916992 69.495117 L 109.265625 69.773437 L 109.614258 70.072266 L 109.959961 70.394531 L 110.302734 70.737305 L 110.645508 71.103516 L 110.988281 71.487305 L 111.328125 71.894531 L 111.665039 72.322266 L 112.001953 72.767578 L 112.338867 73.236328 L 112.672852 73.725586 L 113.003906 74.235352 L 113.334961 74.765625 L 113.666016 75.316406 L 113.994141 75.884766 L 114.319336 76.476562 L 114.644531 77.085937 L 114.966797 77.712891 L 115.289062 78.363281 L 115.608398 79.03125 L 115.927734 79.719727 L 116.244141 80.425781 L 116.560547 81.152344 " transform="matrix(1.333333,0,0,1.333333,0,0.000000000000014211)"/>
<path style="fill:none;stroke-width:1.5;stroke-linecap:butt;stroke-linejoin:round;stroke:rgb(12.156863%,46.666667%,70.588237%);stroke-opacity:1;stroke-miterlimit:4;" d="M 86.264648 111.067383 L 86.674805 109.558594 L 87.084961 108.070312 L 87.495117 106.605469 L 87.905273 105.164062 L 88.31543 103.743164 L 88.722656 102.348633 L 89.132812 100.974609 L 89.542969 99.624023 L 89.950195 98.296875 L 90.357422 96.993164 L 90.767578 95.712891 L 91.174805 94.453125 L 91.582031 93.219727 L 91.989258 92.009766 L 92.393555 90.820312 L 92.800781 89.657227 L 93.208008 88.517578 L 93.612305 87.401367 L 94.016602 86.308594 L 94.420898 85.239258 L 94.825195 84.193359 L 95.229492 83.170898 L 95.630859 82.174805 L 96.032227 81.199219 L 96.433594 80.25 L 96.834961 79.324219 L 97.236328 78.421875 L 97.634766 77.542969 L 98.036133 76.69043 L 98.431641 75.858398 L 98.830078 75.052734 L 99.228516 74.270508 L 99.624023 73.511719 L 100.019531 72.776367 L 100.412109 72.067383 L 100.807617 71.381836 L 101.200195 70.716797 L 101.589844 70.081055 L 101.982422 69.46582 L 102.37207 68.874023 L 102.761719 68.308594 L 103.148438 67.766602 L 103.538086 67.248047 L 103.924805 66.75293 L 104.308594 66.28125 L 104.692383 65.835937 L 105.076172 65.414062 L 105.459961 65.012695 L 105.84082 64.637695 L 106.21875 64.286133 L 106.599609 63.958008 L 106.977539 63.65332 L 107.352539 63.375 L 107.727539 63.117187 L 108.102539 62.882812 L 108.477539 62.674805 L 108.849609 62.487305 L 109.21875 62.323242 L 109.587891 62.182617 L 109.957031 62.06543 L 110.323242 61.974609 L 110.689453 61.904297 L 111.052734 61.854492 L 111.416016 61.831055 L 111.779297 61.831055 L 112.139648 61.851562 L 112.49707 61.895508 L 112.857422 61.962891 L 113.211914 62.053711 L 113.566406 62.165039 L 113.920898 62.299805 L 114.272461 62.455078 L 114.624023 62.636719 L 114.972656 62.835937 L 115.321289 63.061523 L 115.666992 63.307617 L 116.012695 63.574219 L 116.355469 63.864258 L 116.695312 64.174805 L 117.035156 64.505859 L 117.375 64.860352 L 117.711914 65.238281 L 118.048828 65.633789 L 118.382812 66.052734 L 118.713867 66.492187 L 119.044922 66.952148 L 119.373047 67.435547 L 119.701172 67.936523 L 120.026367 68.460937 L 120.351562 69.00293 L 120.673828 69.568359 L 120.996094 70.151367 L 121.31543 70.754883 L 121.631836 71.378906 L 121.948242 72.023437 L 122.261719 72.688477 L 122.575195 73.374023 L 122.885742 74.077148 L 123.193359 74.800781 L 123.500977 75.541992 " transform="matrix(1.333333,0,0,1.333333,0,0.000000000000014211)"/>
<path style="fill:none;stroke-width:1.5;stroke-linecap:butt;stroke-linejoin:round;stroke:rgb(12.156863%,46.666667%,70.588237%);stroke-opacity:1;stroke-miterlimit:4;" d="M 93.550781 102.949219 L 93.966797 101.419922 L 94.382812 99.911133 L 94.798828 98.428711 L 95.211914 96.966797 L 95.62793 95.52832 L 96.041016 94.113281 L 96.457031 92.724609 L 96.870117 91.356445 L 97.283203 90.011719 L 97.696289 88.69043 L 98.109375 87.395508 L 98.519531 86.121094 L 98.932617 84.873047 L 99.342773 83.648437 L 99.75293 82.447266 L 100.163086 81.269531 L 100.573242 80.115234 L 100.983398 78.987305 L 101.390625 77.882812 L 101.797852 76.801758 L 102.205078 75.744141 L 102.612305 74.712891 L 103.016602 73.705078 L 103.420898 72.720703 L 103.825195 71.762695 L 104.229492 70.828125 L 104.630859 69.916992 L 105.032227 69.029297 L 105.433594 68.167969 L 105.834961 67.330078 L 106.233398 66.518555 L 106.631836 65.730469 L 107.027344 64.96582 L 107.425781 64.227539 L 107.821289 63.512695 L 108.213867 62.821289 L 108.609375 62.15625 L 109.001953 61.514648 L 109.391602 60.896484 L 109.78418 60.304687 L 110.173828 59.736328 L 110.560547 59.194336 L 110.947266 58.672852 L 111.333984 58.177734 L 111.717773 57.708984 L 112.101562 57.260742 L 112.485352 56.838867 L 112.866211 56.443359 L 113.24707 56.068359 L 113.625 55.719727 L 114.00293 55.394531 L 114.380859 55.092773 L 114.755859 54.817383 L 115.12793 54.56543 L 115.50293 54.333984 L 115.87207 54.128906 L 116.244141 53.950195 L 116.610352 53.791992 L 116.979492 53.657227 L 117.345703 53.548828 L 117.708984 53.460937 L 118.072266 53.399414 L 118.432617 53.361328 L 118.792969 53.34375 L 119.150391 53.352539 L 119.507812 53.384766 L 119.865234 53.4375 L 120.216797 53.513672 L 120.571289 53.616211 L 120.922852 53.739258 L 121.271484 53.882812 L 121.617188 54.052734 L 121.96582 54.243164 L 122.308594 54.459961 L 122.651367 54.694336 L 122.994141 54.955078 L 123.333984 55.236328 L 123.670898 55.538086 L 124.007812 55.866211 L 124.344727 56.211914 L 124.675781 56.583984 L 125.006836 56.973633 L 125.337891 57.386719 L 125.666016 57.823242 L 125.991211 58.277344 L 126.316406 58.754883 L 126.638672 59.255859 L 126.960938 59.774414 L 127.280273 60.316406 L 127.59668 60.878906 L 127.913086 61.461914 L 128.229492 62.0625 L 128.540039 62.686523 L 128.850586 63.331055 L 129.158203 63.996094 L 129.46582 64.681641 L 129.770508 65.387695 L 130.075195 66.111328 L 130.376953 66.855469 L 130.675781 67.620117 " transform="matrix(1.333333,0,0,1.333333,0,0.000000000000014211)"/>
</g>
</svg>
