<?xml version="1.0" encoding="UTF-8"?>
<svg xmlns="http://www.w3.org/2000/svg" xmlns:xlink="http://www.w3.org/1999/xlink" width="324.137492" height="244.474996" viewBox="0 0 324.137492 244.474996" version="1.1">
<defs>
<clipPath id="clip1">
  <path d="M 65 9.601562 L 67 9.601562 L 67 194.398438 L 65 194.398438 Z M 65 9.601562 "/>
</clipPath>
<clipPath id="clip2">
  <path d="M 124 9.601562 L 126 9.601562 L 126 194.398438 L 124 194.398438 Z M 124 9.601562 "/>
</clipPath>
<clipPath id="clip3">
  <path d="M 183 9.601562 L 186 9.601562 L 186 194.398438 L 183 194.398438 Z M 183 9.601562 "/>
</clipPath>
<clipPath id="clip4">
  <path d="M 242 9.601562 L 245 9.601562 L 245 194.398438 L 242 194.398438 Z M 242 9.601562 "/>
</clipPath>
<clipPath id="clip5">
  <path d="M 301 9.601562 L 304 9.601562 L 304 194.398438 L 301 194.398438 Z M 301 9.601562 "/>
</clipPath>
<clipPath id="clip6">
  <path d="M 54.136719 187 L 314.539062 187 L 314.539062 190 L 54.136719 190 Z M 54.136719 187 "/>
</clipPath>
<clipPath id="clip7">
  <path d="M 54.136719 141 L 314.539062 141 L 314.539062 144 L 54.136719 144 Z M 54.136719 141 "/>
</clipPath>
<clipPath id="clip8">
  <path d="M 54.136719 95 L 314.539062 95 L 314.539062 98 L 54.136719 98 Z M 54.136719 95 "/>
</clipPath>
<clipPath id="clip9">
  <path d="M 54.136719 49 L 314.539062 49 L 314.539062 52 L 54.136719 52 Z M 54.136719 49 "/>
</clipPath>
</defs>
<g id="surface1">
<path style=" stroke:none;fill-rule:nonzero;fill:rgb(100%,100%,100%);fill-opacity:1;" d="M 0 244.476562 L 324.136719 244.476562 L 324.136719 0 L 0 0 Z M 0 244.476562 "/>
<path style=" stroke:none;fill-rule:nonzero;fill:rgb(100%,100%,100%);fill-opacity:1;" d="M 54.136719 194.398438 L 314.539062 194.398438 L 314.539062 9.601562 L 54.136719 9.601562 Z M 54.136719 194.398438 "/>
<g clip-path="url(#clip1)" clip-rule="nonzero">
<path style="fill:none;stroke-width:0.8;stroke-linecap:square;stroke-linejoin:round;stroke:rgb(69.01961%,69.01961%,69.01961%);stroke-opacity:1;stroke-miterlimit:4;" d="M 49.479492 145.798828 L 49.479492 7.201172 " transform="matrix(1.333333,0,0,1.333333,0,-0.000000000000014211)"/>
</g>
<path style="fill:none;stroke-width:0.8;stroke-linecap:butt;stroke-linejoin:round;stroke:rgb(0%,0%,0%);stroke-opacity:1;stroke-miterlimit:4;" d="M -0.000904083 -0.00117493 L -0.000904083 3.499802 " transform="matrix(1.333333,0,0,1.333333,65.973862,194.400004)"/>
<path style=" stroke:none;fill-rule:nonzero;fill:rgb(0%,0%,0%);fill-opacity:1;" d="M 53.316406 209.132812 L 61.664062 209.132812 L 61.664062 210.238281 L 53.316406 210.238281 Z M 53.316406 209.132812 "/>
<path style=" stroke:none;fill-rule:nonzero;fill:rgb(0%,0%,0%);fill-opacity:1;" d="M 64.730469 212.757812 L 66.878906 212.757812 L 66.878906 205.339844 L 64.539062 205.808594 L 64.539062 204.613281 L 66.867188 204.144531 L 68.179688 204.144531 L 68.179688 212.757812 L 70.328125 212.757812 L 70.328125 213.863281 L 64.730469 213.863281 Z M 64.730469 212.757812 "/>
<path style=" stroke:none;fill-rule:nonzero;fill:rgb(0%,0%,0%);fill-opacity:1;" d="M 75.796875 205.011719 C 75.121094 205.011719 74.609375 205.34375 74.269531 206.011719 C 73.929688 206.675781 73.757812 207.675781 73.757812 209.015625 C 73.757812 210.347656 73.929688 211.347656 74.269531 212.011719 C 74.609375 212.679688 75.121094 213.011719 75.796875 213.011719 C 76.476562 213.011719 76.988281 212.679688 77.328125 212.011719 C 77.671875 211.347656 77.84375 210.347656 77.84375 209.015625 C 77.84375 207.675781 77.671875 206.675781 77.328125 206.011719 C 76.988281 205.34375 76.476562 205.011719 75.796875 205.011719 Z M 75.796875 203.96875 C 76.886719 203.96875 77.71875 204.398438 78.292969 205.261719 C 78.871094 206.125 79.15625 207.375 79.15625 209.015625 C 79.15625 210.652344 78.871094 211.898438 78.292969 212.761719 C 77.71875 213.625 76.886719 214.054688 75.796875 214.054688 C 74.707031 214.054688 73.875 213.625 73.300781 212.761719 C 72.726562 211.898438 72.4375 210.652344 72.4375 209.015625 C 72.4375 207.375 72.726562 206.125 73.300781 205.261719 C 73.875 204.398438 74.707031 203.96875 75.796875 203.96875 Z M 75.796875 203.96875 "/>
<g clip-path="url(#clip2)" clip-rule="nonzero">
<path style="fill:none;stroke-width:0.8;stroke-linecap:square;stroke-linejoin:round;stroke:rgb(69.01961%,69.01961%,69.01961%);stroke-opacity:1;stroke-miterlimit:4;" d="M 93.867187 145.798828 L 93.867187 7.201172 " transform="matrix(1.333333,0,0,1.333333,0,-0.000000000000014211)"/>
</g>
<path style="fill:none;stroke-width:0.8;stroke-linecap:butt;stroke-linejoin:round;stroke:rgb(0%,0%,0%);stroke-opacity:1;stroke-miterlimit:4;" d="M 0.000427246 -0.00117493 L 0.000427246 3.499802 " transform="matrix(1.333333,0,0,1.333333,125.15568,194.400004)"/>
<path style=" stroke:none;fill-rule:nonzero;fill:rgb(0%,0%,0%);fill-opacity:1;" d="M 116.738281 209.132812 L 125.085938 209.132812 L 125.085938 210.238281 L 116.738281 210.238281 Z M 116.738281 209.132812 "/>
<path style=" stroke:none;fill-rule:nonzero;fill:rgb(0%,0%,0%);fill-opacity:1;" d="M 127.9375 204.144531 L 133.101562 204.144531 L 133.101562 205.253906 L 129.144531 205.253906 L 129.144531 207.632812 C 129.332031 207.566406 129.523438 207.519531 129.714844 207.488281 C 129.90625 207.457031 130.097656 207.441406 130.289062 207.441406 C 131.375 207.441406 132.234375 207.738281 132.867188 208.332031 C 133.5 208.925781 133.816406 209.730469 133.816406 210.746094 C 133.816406 211.792969 133.492188 212.605469 132.839844 213.183594 C 132.191406 213.765625 131.273438 214.054688 130.085938 214.054688 C 129.679688 214.054688 129.261719 214.019531 128.839844 213.949219 C 128.417969 213.878906 127.980469 213.777344 127.527344 213.636719 L 127.527344 212.316406 C 127.917969 212.527344 128.324219 212.683594 128.738281 212.789062 C 129.15625 212.894531 129.597656 212.945312 130.058594 212.945312 C 130.8125 212.945312 131.40625 212.75 131.84375 212.355469 C 132.28125 211.960938 132.5 211.421875 132.5 210.746094 C 132.5 210.070312 132.28125 209.535156 131.84375 209.140625 C 131.40625 208.742188 130.8125 208.546875 130.058594 208.546875 C 129.707031 208.546875 129.359375 208.585938 129.007812 208.664062 C 128.660156 208.742188 128.304688 208.863281 127.9375 209.027344 Z M 127.9375 204.144531 "/>
<g clip-path="url(#clip3)" clip-rule="nonzero">
<path style="fill:none;stroke-width:0.8;stroke-linecap:square;stroke-linejoin:round;stroke:rgb(69.01961%,69.01961%,69.01961%);stroke-opacity:1;stroke-miterlimit:4;" d="M 138.251953 145.798828 L 138.251953 7.201172 " transform="matrix(1.333333,0,0,1.333333,0,-0.000000000000014211)"/>
</g>
<path style="fill:none;stroke-width:0.8;stroke-linecap:butt;stroke-linejoin:round;stroke:rgb(0%,0%,0%);stroke-opacity:1;stroke-miterlimit:4;" d="M -0.00117493 -0.00117493 L -0.00117493 3.499802 " transform="matrix(1.333333,0,0,1.333333,184.337504,194.400004)"/>
<path style=" stroke:none;fill-rule:nonzero;fill:rgb(0%,0%,0%);fill-opacity:1;" d="M 184.332031 205.011719 C 183.65625 205.011719 183.148438 205.34375 182.804688 206.011719 C 182.464844 206.675781 182.296875 207.675781 182.296875 209.015625 C 182.296875 210.347656 182.464844 211.347656 182.804688 212.011719 C 183.148438 212.679688 183.65625 213.011719 184.332031 213.011719 C 185.015625 213.011719 185.527344 212.679688 185.867188 212.011719 C 186.207031 211.347656 186.378906 210.347656 186.378906 209.015625 C 186.378906 207.675781 186.207031 206.675781 185.867188 206.011719 C 185.527344 205.34375 185.015625 205.011719 184.332031 205.011719 Z M 184.332031 203.96875 C 185.421875 203.96875 186.257812 204.398438 186.832031 205.261719 C 187.40625 206.125 187.695312 207.375 187.695312 209.015625 C 187.695312 210.652344 187.40625 211.898438 186.832031 212.761719 C 186.257812 213.625 185.421875 214.054688 184.332031 214.054688 C 183.246094 214.054688 182.414062 213.625 181.835938 212.761719 C 181.261719 211.898438 180.976562 210.652344 180.976562 209.015625 C 180.976562 207.375 181.261719 206.125 181.835938 205.261719 C 182.414062 204.398438 183.246094 203.96875 184.332031 203.96875 Z M 184.332031 203.96875 "/>
<g clip-path="url(#clip4)" clip-rule="nonzero">
<path style="fill:none;stroke-width:0.8;stroke-linecap:square;stroke-linejoin:round;stroke:rgb(69.01961%,69.01961%,69.01961%);stroke-opacity:1;stroke-miterlimit:4;" d="M 182.639648 145.798828 L 182.639648 7.201172 " transform="matrix(1.333333,0,0,1.333333,0,-0.000000000000014211)"/>
</g>
<path style="fill:none;stroke-width:0.8;stroke-linecap:butt;stroke-linejoin:round;stroke:rgb(0%,0%,0%);stroke-opacity:1;stroke-miterlimit:4;" d="M 0.000152588 -0.00117493 L 0.000152588 3.499802 " transform="matrix(1.333333,0,0,1.333333,243.519328,194.400004)"/>
<path style=" stroke:none;fill-rule:nonzero;fill:rgb(0%,0%,0%);fill-opacity:1;" d="M 240.71875 204.144531 L 245.878906 204.144531 L 245.878906 205.253906 L 241.921875 205.253906 L 241.921875 207.632812 C 242.113281 207.566406 242.300781 207.519531 242.492188 207.488281 C 242.683594 207.457031 242.875 207.441406 243.066406 207.441406 C 244.152344 207.441406 245.011719 207.738281 245.644531 208.332031 C 246.277344 208.925781 246.597656 209.730469 246.597656 210.746094 C 246.597656 211.792969 246.269531 212.605469 245.621094 213.183594 C 244.96875 213.765625 244.050781 214.054688 242.863281 214.054688 C 242.457031 214.054688 242.039062 214.019531 241.617188 213.949219 C 241.195312 213.878906 240.757812 213.777344 240.308594 213.636719 L 240.308594 212.316406 C 240.695312 212.527344 241.101562 212.683594 241.515625 212.789062 C 241.933594 212.894531 242.375 212.945312 242.839844 212.945312 C 243.589844 212.945312 244.183594 212.75 244.621094 212.355469 C 245.058594 211.960938 245.28125 211.421875 245.28125 210.746094 C 245.28125 210.070312 245.058594 209.535156 244.621094 209.140625 C 244.183594 208.742188 243.589844 208.546875 242.839844 208.546875 C 242.488281 208.546875 242.136719 208.585938 241.785156 208.664062 C 241.4375 208.742188 241.082031 208.863281 240.71875 209.027344 Z M 240.71875 204.144531 "/>
<g clip-path="url(#clip5)" clip-rule="nonzero">
<path style="fill:none;stroke-width:0.8;stroke-linecap:square;stroke-linejoin:round;stroke:rgb(69.01961%,69.01961%,69.01961%);stroke-opacity:1;stroke-miterlimit:4;" d="M 227.024414 145.798828 L 227.024414 7.201172 " transform="matrix(1.333333,0,0,1.333333,0,-0.000000000000014211)"/>
</g>
<path style="fill:none;stroke-width:0.8;stroke-linecap:butt;stroke-linejoin:round;stroke:rgb(0%,0%,0%);stroke-opacity:1;stroke-miterlimit:4;" d="M -0.00143433 -0.00117493 L -0.00143433 3.499802 " transform="matrix(1.333333,0,0,1.333333,302.701131,194.400004)"/>
<path style=" stroke:none;fill-rule:nonzero;fill:rgb(0%,0%,0%);fill-opacity:1;" d="M 295.871094 212.757812 L 298.019531 212.757812 L 298.019531 205.339844 L 295.683594 205.808594 L 295.683594 204.613281 L 298.007812 204.144531 L 299.320312 204.144531 L 299.320312 212.757812 L 301.46875 212.757812 L 301.46875 213.863281 L 295.871094 213.863281 Z M 295.871094 212.757812 "/>
<path style=" stroke:none;fill-rule:nonzero;fill:rgb(0%,0%,0%);fill-opacity:1;" d="M 306.9375 205.011719 C 306.261719 205.011719 305.753906 205.34375 305.410156 206.011719 C 305.070312 206.675781 304.902344 207.675781 304.902344 209.015625 C 304.902344 210.347656 305.070312 211.347656 305.410156 212.011719 C 305.753906 212.679688 306.261719 213.011719 306.9375 213.011719 C 307.621094 213.011719 308.132812 212.679688 308.472656 212.011719 C 308.8125 211.347656 308.984375 210.347656 308.984375 209.015625 C 308.984375 207.675781 308.8125 206.675781 308.472656 206.011719 C 308.132812 205.34375 307.621094 205.011719 306.9375 205.011719 Z M 306.9375 203.96875 C 308.027344 203.96875 308.859375 204.398438 309.4375 205.261719 C 310.011719 206.125 310.296875 207.375 310.296875 209.015625 C 310.296875 210.652344 310.011719 211.898438 309.4375 212.761719 C 308.859375 213.625 308.027344 214.054688 306.9375 214.054688 C 305.847656 214.054688 305.015625 213.625 304.441406 212.761719 C 303.867188 211.898438 303.578125 210.652344 303.578125 209.015625 C 303.578125 207.375 303.867188 206.125 304.441406 205.261719 C 305.015625 204.398438 305.847656 203.96875 306.9375 203.96875 Z M 306.9375 203.96875 "/>
<path style=" stroke:none;fill-rule:nonzero;fill:rgb(0%,0%,0%);fill-opacity:1;" d="M 187.710938 224.808594 L 185.074219 228.359375 L 187.847656 232.101562 L 186.433594 232.101562 L 184.308594 229.238281 L 182.191406 232.101562 L 180.773438 232.101562 L 183.609375 228.289062 L 181.015625 224.808594 L 182.429688 224.808594 L 184.363281 227.410156 L 186.296875 224.808594 Z M 187.710938 224.808594 "/>
<g clip-path="url(#clip6)" clip-rule="nonzero">
<path style="fill:none;stroke-width:0.8;stroke-linecap:square;stroke-linejoin:round;stroke:rgb(69.01961%,69.01961%,69.01961%);stroke-opacity:1;stroke-miterlimit:4;" d="M 40.602539 141.219727 L 235.904297 141.219727 " transform="matrix(1.333333,0,0,1.333333,0,-0.000000000000014211)"/>
</g>
<path style="fill:none;stroke-width:0.8;stroke-linecap:butt;stroke-linejoin:round;stroke:rgb(0%,0%,0%);stroke-opacity:1;stroke-miterlimit:4;" d="M -0.000587463 -0.00135803 L -3.498634 -0.00135803 " transform="matrix(1.333333,0,0,1.333333,54.137502,188.294779)"/>
<path style=" stroke:none;fill-rule:nonzero;fill:rgb(0%,0%,0%);fill-opacity:1;" d="M 40.558594 184.507812 C 39.882812 184.507812 39.371094 184.839844 39.03125 185.507812 C 38.691406 186.171875 38.519531 187.171875 38.519531 188.511719 C 38.519531 189.84375 38.691406 190.839844 39.03125 191.507812 C 39.371094 192.175781 39.882812 192.507812 40.558594 192.507812 C 41.242188 192.507812 41.75 192.175781 42.089844 191.507812 C 42.433594 190.839844 42.605469 189.84375 42.605469 188.511719 C 42.605469 187.171875 42.433594 186.171875 42.089844 185.507812 C 41.75 184.839844 41.242188 184.507812 40.558594 184.507812 Z M 40.558594 183.464844 C 41.648438 183.464844 42.480469 183.894531 43.054688 184.757812 C 43.632812 185.621094 43.917969 186.871094 43.917969 188.511719 C 43.917969 190.148438 43.632812 191.394531 43.054688 192.257812 C 42.480469 193.121094 41.648438 193.550781 40.558594 193.550781 C 39.46875 193.550781 38.636719 193.121094 38.0625 192.257812 C 37.488281 191.394531 37.199219 190.148438 37.199219 188.511719 C 37.199219 186.871094 37.488281 185.621094 38.0625 184.757812 C 38.636719 183.894531 39.46875 183.464844 40.558594 183.464844 Z M 40.558594 183.464844 "/>
<g clip-path="url(#clip7)" clip-rule="nonzero">
<path style="fill:none;stroke-width:0.8;stroke-linecap:square;stroke-linejoin:round;stroke:rgb(69.01961%,69.01961%,69.01961%);stroke-opacity:1;stroke-miterlimit:4;" d="M 40.602539 106.798828 L 235.904297 106.798828 " transform="matrix(1.333333,0,0,1.333333,0,-0.000000000000014211)"/>
</g>
<path style="fill:none;stroke-width:0.8;stroke-linecap:butt;stroke-linejoin:round;stroke:rgb(0%,0%,0%);stroke-opacity:1;stroke-miterlimit:4;" d="M -0.000587463 -0.000701904 L -3.498634 -0.000701904 " transform="matrix(1.333333,0,0,1.333333,54.137502,142.399373)"/>
<path style=" stroke:none;fill-rule:nonzero;fill:rgb(0%,0%,0%);fill-opacity:1;" d="M 30.394531 146.359375 L 34.984375 146.359375 L 34.984375 147.464844 L 28.816406 147.464844 L 28.816406 146.359375 C 29.3125 145.84375 29.992188 145.148438 30.855469 144.28125 C 31.714844 143.410156 32.257812 142.847656 32.480469 142.59375 C 32.898438 142.121094 33.195312 141.722656 33.359375 141.394531 C 33.527344 141.066406 33.613281 140.746094 33.613281 140.425781 C 33.613281 139.910156 33.429688 139.488281 33.070312 139.164062 C 32.707031 138.839844 32.234375 138.675781 31.652344 138.675781 C 31.238281 138.675781 30.804688 138.746094 30.347656 138.890625 C 29.890625 139.03125 29.398438 139.25 28.878906 139.542969 L 28.878906 138.214844 C 29.410156 138 29.902344 137.839844 30.363281 137.730469 C 30.824219 137.625 31.246094 137.570312 31.628906 137.570312 C 32.632812 137.570312 33.4375 137.820312 34.035156 138.324219 C 34.632812 138.828125 34.933594 139.5 34.933594 140.34375 C 34.933594 140.742188 34.859375 141.121094 34.707031 141.480469 C 34.558594 141.835938 34.289062 142.257812 33.890625 142.746094 C 33.785156 142.871094 33.4375 143.234375 32.855469 143.835938 C 32.277344 144.4375 31.457031 145.277344 30.394531 146.359375 Z M 30.394531 146.359375 "/>
<path style=" stroke:none;fill-rule:nonzero;fill:rgb(0%,0%,0%);fill-opacity:1;" d="M 40.558594 138.609375 C 39.882812 138.609375 39.371094 138.945312 39.03125 139.609375 C 38.691406 140.277344 38.519531 141.277344 38.519531 142.613281 C 38.519531 143.945312 38.691406 144.945312 39.03125 145.613281 C 39.371094 146.28125 39.882812 146.613281 40.558594 146.613281 C 41.238281 146.613281 41.75 146.28125 42.089844 145.613281 C 42.433594 144.945312 42.605469 143.945312 42.605469 142.613281 C 42.605469 141.277344 42.433594 140.277344 42.089844 139.609375 C 41.75 138.945312 41.238281 138.609375 40.558594 138.609375 Z M 40.558594 137.570312 C 41.648438 137.570312 42.480469 138 43.054688 138.863281 C 43.632812 139.722656 43.917969 140.976562 43.917969 142.613281 C 43.917969 144.25 43.632812 145.5 43.054688 146.363281 C 42.480469 147.222656 41.648438 147.65625 40.558594 147.65625 C 39.46875 147.65625 38.636719 147.222656 38.0625 146.363281 C 37.488281 145.5 37.199219 144.25 37.199219 142.613281 C 37.199219 140.976562 37.488281 139.722656 38.0625 138.863281 C 38.636719 138 39.46875 137.570312 40.558594 137.570312 Z M 40.558594 137.570312 "/>
<g clip-path="url(#clip8)" clip-rule="nonzero">
<path style="fill:none;stroke-width:0.8;stroke-linecap:square;stroke-linejoin:round;stroke:rgb(69.01961%,69.01961%,69.01961%);stroke-opacity:1;stroke-miterlimit:4;" d="M 40.602539 72.37793 L 235.904297 72.37793 " transform="matrix(1.333333,0,0,1.333333,0,-0.000000000000014211)"/>
</g>
<path style="fill:none;stroke-width:0.8;stroke-linecap:butt;stroke-linejoin:round;stroke:rgb(0%,0%,0%);stroke-opacity:1;stroke-miterlimit:4;" d="M -0.000587463 -0.0000457764 L -3.498634 -0.0000457764 " transform="matrix(1.333333,0,0,1.333333,54.137502,96.503967)"/>
<path style=" stroke:none;fill-rule:nonzero;fill:rgb(0%,0%,0%);fill-opacity:1;" d="M 32.878906 92.996094 L 29.554688 98.183594 L 32.878906 98.183594 Z M 32.53125 91.847656 L 34.183594 91.847656 L 34.183594 98.183594 L 35.574219 98.183594 L 35.574219 99.277344 L 34.183594 99.277344 L 34.183594 101.570312 L 32.878906 101.570312 L 32.878906 99.277344 L 28.488281 99.277344 L 28.488281 98.007812 Z M 32.53125 91.847656 "/>
<path style=" stroke:none;fill-rule:nonzero;fill:rgb(0%,0%,0%);fill-opacity:1;" d="M 40.558594 92.714844 C 39.882812 92.714844 39.371094 93.046875 39.03125 93.714844 C 38.691406 94.378906 38.519531 95.382812 38.519531 96.71875 C 38.519531 98.050781 38.691406 99.050781 39.03125 99.71875 C 39.371094 100.382812 39.882812 100.71875 40.558594 100.71875 C 41.238281 100.71875 41.75 100.382812 42.089844 99.71875 C 42.433594 99.050781 42.605469 98.050781 42.605469 96.71875 C 42.605469 95.382812 42.433594 94.378906 42.089844 93.714844 C 41.75 93.046875 41.238281 92.714844 40.558594 92.714844 Z M 40.558594 91.671875 C 41.648438 91.671875 42.480469 92.105469 43.054688 92.96875 C 43.632812 93.828125 43.917969 95.078125 43.917969 96.71875 C 43.917969 98.355469 43.632812 99.605469 43.054688 100.46875 C 42.480469 101.328125 41.648438 101.757812 40.558594 101.757812 C 39.46875 101.757812 38.636719 101.328125 38.0625 100.46875 C 37.488281 99.605469 37.199219 98.355469 37.199219 96.71875 C 37.199219 95.078125 37.488281 93.828125 38.0625 92.96875 C 38.636719 92.105469 39.46875 91.671875 40.558594 91.671875 Z M 40.558594 91.671875 "/>
<g clip-path="url(#clip9)" clip-rule="nonzero">
<path style="fill:none;stroke-width:0.8;stroke-linecap:square;stroke-linejoin:round;stroke:rgb(69.01961%,69.01961%,69.01961%);stroke-opacity:1;stroke-miterlimit:4;" d="M 40.602539 37.957031 L 235.904297 37.957031 " transform="matrix(1.333333,0,0,1.333333,0,-0.000000000000014211)"/>
</g>
<path style="fill:none;stroke-width:0.8;stroke-linecap:butt;stroke-linejoin:round;stroke:rgb(0%,0%,0%);stroke-opacity:1;stroke-miterlimit:4;" d="M -0.000587463 0.000602722 L -3.498634 0.000602722 " transform="matrix(1.333333,0,0,1.333333,54.137502,50.608571)"/>
<path style=" stroke:none;fill-rule:nonzero;fill:rgb(0%,0%,0%);fill-opacity:1;" d="M 32.238281 50.289062 C 31.648438 50.289062 31.179688 50.492188 30.835938 50.898438 C 30.492188 51.300781 30.320312 51.851562 30.320312 52.554688 C 30.320312 53.253906 30.492188 53.808594 30.835938 54.214844 C 31.179688 54.621094 31.648438 54.820312 32.238281 54.820312 C 32.828125 54.820312 33.296875 54.621094 33.640625 54.214844 C 33.984375 53.808594 34.160156 53.253906 34.160156 52.554688 C 34.160156 51.851562 33.984375 51.300781 33.640625 50.898438 C 33.296875 50.492188 32.828125 50.289062 32.238281 50.289062 Z M 34.851562 46.167969 L 34.851562 47.367188 C 34.519531 47.210938 34.1875 47.089844 33.851562 47.007812 C 33.515625 46.925781 33.179688 46.882812 32.851562 46.882812 C 31.980469 46.882812 31.320312 47.175781 30.859375 47.765625 C 30.402344 48.351562 30.140625 49.234375 30.078125 50.421875 C 30.332031 50.042969 30.652344 49.753906 31.039062 49.550781 C 31.425781 49.351562 31.851562 49.25 32.316406 49.25 C 33.292969 49.25 34.066406 49.546875 34.632812 50.140625 C 35.199219 50.730469 35.480469 51.535156 35.480469 52.554688 C 35.480469 53.554688 35.1875 54.355469 34.597656 54.960938 C 34.003906 55.5625 33.21875 55.863281 32.238281 55.863281 C 31.113281 55.863281 30.253906 55.433594 29.660156 54.570312 C 29.066406 53.710938 28.769531 52.460938 28.769531 50.824219 C 28.769531 49.289062 29.132812 48.0625 29.863281 47.148438 C 30.589844 46.234375 31.570312 45.777344 32.796875 45.777344 C 33.128906 45.777344 33.460938 45.8125 33.796875 45.875 C 34.132812 45.941406 34.484375 46.039062 34.851562 46.167969 Z M 34.851562 46.167969 "/>
<path style=" stroke:none;fill-rule:nonzero;fill:rgb(0%,0%,0%);fill-opacity:1;" d="M 40.558594 46.820312 C 39.882812 46.820312 39.371094 47.152344 39.03125 47.820312 C 38.691406 48.484375 38.519531 49.488281 38.519531 50.824219 C 38.519531 52.15625 38.691406 53.15625 39.03125 53.820312 C 39.371094 54.488281 39.882812 54.820312 40.558594 54.820312 C 41.238281 54.820312 41.75 54.488281 42.089844 53.820312 C 42.433594 53.15625 42.605469 52.15625 42.605469 50.824219 C 42.605469 49.488281 42.433594 48.484375 42.089844 47.820312 C 41.75 47.152344 41.238281 46.820312 40.558594 46.820312 Z M 40.558594 45.777344 C 41.648438 45.777344 42.480469 46.210938 43.054688 47.070312 C 43.632812 47.933594 43.917969 49.183594 43.917969 50.824219 C 43.917969 52.460938 43.632812 53.710938 43.054688 54.570312 C 42.480469 55.433594 41.648438 55.863281 40.558594 55.863281 C 39.46875 55.863281 38.636719 55.433594 38.0625 54.570312 C 37.488281 53.710938 37.199219 52.460938 37.199219 50.824219 C 37.199219 49.183594 37.488281 47.933594 38.0625 47.070312 C 38.636719 46.210938 39.46875 45.777344 40.558594 45.777344 Z M 40.558594 45.777344 "/>
<path style=" stroke:none;fill-rule:nonzero;fill:rgb(0%,0%,0%);fill-opacity:1;" d="M 9.601562 108.546875 L 10.597656 108.546875 L 10.597656 109.691406 C 10.597656 110.121094 10.683594 110.421875 10.859375 110.589844 C 11.03125 110.753906 11.34375 110.839844 11.796875 110.839844 L 12.441406 110.839844 L 12.441406 108.867188 L 13.371094 108.867188 L 13.371094 110.839844 L 19.730469 110.839844 L 19.730469 112.042969 L 13.371094 112.042969 L 13.371094 113.1875 L 12.441406 113.1875 L 12.441406 112.042969 L 11.929688 112.042969 C 11.121094 112.042969 10.527344 111.855469 10.160156 111.476562 C 9.785156 111.097656 9.601562 110.5 9.601562 109.679688 Z M 9.601562 108.546875 "/>
<path style=" stroke:none;fill-rule:nonzero;fill:rgb(0%,0%,0%);fill-opacity:1;" d="M 9.613281 104.667969 C 10.613281 105.246094 11.597656 105.679688 12.578125 105.964844 C 13.554688 106.246094 14.542969 106.386719 15.546875 106.386719 C 16.546875 106.386719 17.539062 106.242188 18.523438 105.960938 C 19.507812 105.675781 20.496094 105.242188 21.488281 104.667969 L 21.488281 105.710938 C 20.46875 106.359375 19.464844 106.847656 18.480469 107.167969 C 17.496094 107.492188 16.519531 107.65625 15.546875 107.65625 C 14.578125 107.65625 13.601562 107.496094 12.621094 107.171875 C 11.640625 106.851562 10.636719 106.363281 9.613281 105.710938 Z M 9.613281 104.667969 "/>
<path style=" stroke:none;fill-rule:nonzero;fill:rgb(0%,0%,0%);fill-opacity:1;" d="M 12.441406 96.28125 L 15.988281 98.917969 L 19.730469 96.144531 L 19.730469 97.558594 L 16.867188 99.679688 L 19.730469 101.800781 L 19.730469 103.214844 L 15.917969 100.382812 L 12.441406 102.972656 L 12.441406 101.5625 L 15.039062 99.628906 L 12.441406 97.695312 Z M 12.441406 96.28125 "/>
<path style=" stroke:none;fill-rule:nonzero;fill:rgb(0%,0%,0%);fill-opacity:1;" d="M 9.613281 94.640625 L 9.613281 93.597656 C 10.636719 92.949219 11.640625 92.460938 12.621094 92.136719 C 13.601562 91.8125 14.578125 91.652344 15.546875 91.652344 C 16.519531 91.652344 17.496094 91.8125 18.480469 92.136719 C 19.464844 92.460938 20.46875 92.949219 21.488281 93.597656 L 21.488281 94.640625 C 20.496094 94.0625 19.507812 93.632812 18.523438 93.347656 C 17.539062 93.0625 16.546875 92.921875 15.546875 92.921875 C 14.542969 92.921875 13.554688 93.0625 12.578125 93.347656 C 11.597656 93.632812 10.613281 94.0625 9.613281 94.640625 Z M 9.613281 94.640625 "/>
<path style="fill:none;stroke-width:1.5;stroke-linecap:square;stroke-linejoin:round;stroke:rgb(12.156863%,46.666667%,70.588237%);stroke-opacity:1;stroke-miterlimit:4;" d="M 49.479492 13.5 L 51.521484 27.37207 L 53.563477 39.738281 L 55.605469 50.762695 L 57.647461 60.585938 L 59.689453 69.345703 L 61.731445 77.150391 L 63.773437 84.108398 L 65.81543 90.310547 L 67.857422 95.835938 L 69.987305 100.96582 L 72.117187 105.512695 L 74.24707 109.546875 L 76.379883 113.121094 L 78.597656 116.416992 L 80.818359 119.323242 L 83.124023 121.983398 L 85.523437 124.40332 L 88.007812 126.588867 L 90.583008 128.548828 L 93.246094 130.294922 L 96.084961 131.888672 L 99.105469 133.321289 L 102.298828 134.586914 L 105.761719 135.717773 L 109.491211 136.702148 L 113.663086 137.569336 L 118.280273 138.290039 L 123.339844 138.855469 L 129.020508 139.262695 L 135.146484 139.473633 L 141.539062 139.470703 L 147.75293 139.248047 L 153.521484 138.823242 L 158.759766 138.219727 L 163.464844 137.452148 L 167.636719 136.552734 L 171.454102 135.503906 L 174.916992 134.326172 L 178.113281 133.004883 L 181.042969 131.563477 L 183.793945 129.966797 L 186.457031 128.165039 L 188.941406 126.219727 L 191.337891 124.066406 L 193.646484 121.696289 L 195.867187 119.103516 L 198.084961 116.167969 L 200.217773 112.980469 L 202.347656 109.385742 L 204.389648 105.512695 L 206.431641 101.165039 L 208.473633 96.287109 L 210.512695 90.814453 L 212.554687 84.676758 L 214.508789 78.105469 L 216.462891 70.766602 L 218.414062 62.578125 L 220.368164 53.43457 L 222.322266 43.230469 L 224.273437 31.836914 L 226.227539 19.119141 L 226.936523 14.135742 " transform="matrix(1.333333,0,0,1.333333,0,-0.000000000000014211)"/>
<path style="fill:none;stroke-width:1.5;stroke-linecap:square;stroke-linejoin:round;stroke:rgb(100%,49.803922%,5.490196%);stroke-opacity:1;stroke-miterlimit:4;" d="M 227.024414 13.5 L 209.273437 94.21582 L 191.53125 123.881836 L 173.862305 134.709961 L 156.741211 138.480469 L 142.921875 139.441406 L 138.357422 139.5 L 138.251953 139.5 " transform="matrix(1.333333,0,0,1.333333,0,-0.000000000000014211)"/>
<path style="fill-rule:nonzero;fill:rgb(100%,49.803922%,5.490196%);fill-opacity:1;stroke-width:1;stroke-linecap:butt;stroke-linejoin:round;stroke:rgb(100%,49.803922%,5.490196%);stroke-opacity:1;stroke-miterlimit:4;" d="M -0.00143433 3 C 0.795441 3 1.560089 2.683594 2.122589 2.121094 C 2.685089 1.558594 2.998566 0.796875 2.998566 0.000000000000008882 C 2.998566 -0.796875 2.685089 -1.558594 2.122589 -2.121094 C 1.560089 -2.683594 0.795441 -3 -0.00143433 -3 C -0.79538 -3 -1.560028 -2.683594 -2.122528 -2.121094 C -2.685028 -1.558594 -3.001434 -0.796875 -3.001434 0.000000000000008882 C -3.001434 0.796875 -2.685028 1.558594 -2.122528 2.121094 C -1.560028 2.683594 -0.79538 3 -0.00143433 3 Z M -0.00143433 3 " transform="matrix(1.333333,0,0,1.333333,302.701131,18)"/>
<path style="fill-rule:nonzero;fill:rgb(100%,49.803922%,5.490196%);fill-opacity:1;stroke-width:1;stroke-linecap:butt;stroke-linejoin:round;stroke:rgb(100%,49.803922%,5.490196%);stroke-opacity:1;stroke-miterlimit:4;" d="M 0.000518799 2.998604 C 0.794464 2.998604 1.559113 2.685127 2.121613 2.122627 C 2.684113 1.560127 3.000519 0.795479 3.000519 -0.00139618 C 3.000519 -0.795341 2.684113 -1.55999 2.121613 -2.12249 C 1.559113 -2.68499 0.794464 -3.001396 0.000518799 -3.001396 C -0.796356 -3.001396 -1.558075 -2.68499 -2.120575 -2.12249 C -2.683075 -1.55999 -2.999481 -0.795341 -2.999481 -0.00139618 C -2.999481 0.795479 -2.683075 1.560127 -2.120575 2.122627 C -1.558075 2.685127 -0.796356 2.998604 0.000518799 2.998604 Z M 0.000518799 2.998604 " transform="matrix(1.333333,0,0,1.333333,279.030558,125.622955)"/>
<path style="fill-rule:nonzero;fill:rgb(100%,49.803922%,5.490196%);fill-opacity:1;stroke-width:1;stroke-linecap:butt;stroke-linejoin:round;stroke:rgb(100%,49.803922%,5.490196%);stroke-opacity:1;stroke-miterlimit:4;" d="M 0.000961304 3.001122 C 0.794907 3.001122 1.559555 2.684715 2.122055 2.122215 C 2.684555 1.559715 3.000961 0.795067 3.000961 0.00112152 C 3.000961 -0.795753 2.684555 -1.557472 2.122055 -2.119972 C 1.559555 -2.682472 0.794907 -2.998878 0.000961304 -2.998878 C -0.795914 -2.998878 -1.557632 -2.682472 -2.120132 -2.119972 C -2.682632 -1.557472 -2.999039 -0.795753 -2.999039 0.00112152 C -2.999039 0.795067 -2.682632 1.559715 -2.120132 2.122215 C -1.557632 2.684715 -0.795914 3.001122 0.000961304 3.001122 Z M 0.000961304 3.001122 " transform="matrix(1.333333,0,0,1.333333,255.373718,165.174286)"/>
<path style="fill-rule:nonzero;fill:rgb(100%,49.803922%,5.490196%);fill-opacity:1;stroke-width:1;stroke-linecap:butt;stroke-linejoin:round;stroke:rgb(100%,49.803922%,5.490196%);stroke-opacity:1;stroke-miterlimit:4;" d="M -0.00109863 2.999603 C 0.795776 2.999603 1.557495 2.683197 2.119995 2.120697 C 2.682495 1.558197 2.998901 0.796478 2.998901 -0.000396729 C 2.998901 -0.794342 2.682495 -1.55899 2.119995 -2.12149 C 1.557495 -2.68399 0.795776 -3.000397 -0.00109863 -3.000397 C -0.795044 -3.000397 -1.559692 -2.68399 -2.122192 -2.12149 C -2.684692 -1.55899 -3.001099 -0.794342 -3.001099 -0.000396729 C -3.001099 0.796478 -2.684692 1.558197 -2.122192 2.120697 C -1.559692 2.683197 -0.795044 2.999603 -0.00109863 2.999603 Z M -0.00109863 2.999603 " transform="matrix(1.333333,0,0,1.333333,231.817871,179.61381)"/>
<path style="fill-rule:nonzero;fill:rgb(100%,49.803922%,5.490196%);fill-opacity:1;stroke-width:1;stroke-linecap:butt;stroke-linejoin:round;stroke:rgb(100%,49.803922%,5.490196%);stroke-opacity:1;stroke-miterlimit:4;" d="M 0.000778198 3.000916 C 0.794724 3.000916 1.559372 2.684509 2.121872 2.122009 C 2.684372 1.559509 3.000778 0.794861 3.000778 0.000915527 C 3.000778 -0.795959 2.684372 -1.557678 2.121872 -2.120178 C 1.559372 -2.682678 0.794724 -2.999084 0.000778198 -2.999084 C -0.796097 -2.999084 -1.557816 -2.682678 -2.120316 -2.120178 C -2.682816 -1.557678 -2.999222 -0.795959 -2.999222 0.000915527 C -2.999222 0.794861 -2.682816 1.559509 -2.120316 2.122009 C -1.557816 2.684509 -0.796097 3.000916 0.000778198 3.000916 Z M 0.000778198 3.000916 " transform="matrix(1.333333,0,0,1.333333,208.987244,184.639404)"/>
<path style="fill-rule:nonzero;fill:rgb(100%,49.803922%,5.490196%);fill-opacity:1;stroke-width:1;stroke-linecap:butt;stroke-linejoin:round;stroke:rgb(100%,49.803922%,5.490196%);stroke-opacity:1;stroke-miterlimit:4;" d="M 0.00140381 3.001221 C 0.795349 3.001221 1.559998 2.684814 2.122498 2.122314 C 2.684998 1.559814 3.001404 0.795166 3.001404 0.0012207 C 3.001404 -0.795654 2.684998 -1.557373 2.122498 -2.119873 C 1.559998 -2.685303 0.795349 -2.998779 0.00140381 -2.998779 C -0.795471 -2.998779 -1.56012 -2.685303 -2.12262 -2.119873 C -2.68512 -1.557373 -2.998596 -0.795654 -2.998596 0.0012207 C -2.998596 0.795166 -2.68512 1.559814 -2.12262 2.122314 C -1.56012 2.684814 -0.795471 3.001221 0.00140381 3.001221 Z M 0.00140381 3.001221 " transform="matrix(1.333333,0,0,1.333333,190.560628,185.920247)"/>
<path style="fill-rule:nonzero;fill:rgb(100%,49.803922%,5.490196%);fill-opacity:1;stroke-width:1;stroke-linecap:butt;stroke-linejoin:round;stroke:rgb(100%,49.803922%,5.490196%);stroke-opacity:1;stroke-miterlimit:4;" d="M -0.000320435 3.000031 C 0.796555 3.000031 1.558273 2.683624 2.120773 2.121124 C 2.683273 1.558624 2.99968 0.796906 2.99968 0.0000305176 C 2.99968 -0.796844 2.683273 -1.558563 2.120773 -2.121063 C 1.558273 -2.683563 0.796555 -2.999969 -0.000320435 -2.999969 C -0.794266 -2.999969 -1.558914 -2.683563 -2.121414 -2.121063 C -2.683914 -1.558563 -3.00032 -0.796844 -3.00032 0.0000305176 C -3.00032 0.796906 -2.683914 1.558624 -2.121414 2.121124 C -1.558914 2.683624 -0.794266 3.000031 -0.000320435 3.000031 Z M -0.000320435 3.000031 " transform="matrix(1.333333,0,0,1.333333,184.47699,185.999959)"/>
<path style="fill-rule:nonzero;fill:rgb(100%,49.803922%,5.490196%);fill-opacity:1;stroke-width:1;stroke-linecap:butt;stroke-linejoin:round;stroke:rgb(100%,49.803922%,5.490196%);stroke-opacity:1;stroke-miterlimit:4;" d="M -0.00117493 3 C 0.7957 3 1.557419 2.683594 2.119919 2.121094 C 2.685349 1.558594 2.998825 0.796875 2.998825 -0.000000000000028422 C 2.998825 -0.796875 2.685349 -1.558594 2.119919 -2.121094 C 1.557419 -2.683594 0.7957 -3 -0.00117493 -3 C -0.79512 -3 -1.559769 -2.683594 -2.122269 -2.121094 C -2.684769 -1.558594 -3.001175 -0.796875 -3.001175 -0.000000000000028422 C -3.001175 0.796875 -2.684769 1.558594 -2.122269 2.121094 C -1.559769 2.683594 -0.79512 3 -0.00117493 3 Z M -0.00117493 3 " transform="matrix(1.333333,0,0,1.333333,184.337504,186)"/>
<path style="fill-rule:nonzero;fill:rgb(100%,49.803922%,5.490196%);fill-opacity:1;stroke-width:1;stroke-linecap:butt;stroke-linejoin:round;stroke:rgb(100%,49.803922%,5.490196%);stroke-opacity:1;stroke-miterlimit:4;" d="M -0.00117493 3 C 0.7957 3 1.557419 2.683594 2.119919 2.121094 C 2.685349 1.558594 2.998825 0.796875 2.998825 -0.000000000000028422 C 2.998825 -0.796875 2.685349 -1.558594 2.119919 -2.121094 C 1.557419 -2.683594 0.7957 -3 -0.00117493 -3 C -0.79512 -3 -1.559769 -2.683594 -2.122269 -2.121094 C -2.684769 -1.558594 -3.001175 -0.796875 -3.001175 -0.000000000000028422 C -3.001175 0.796875 -2.684769 1.558594 -2.122269 2.121094 C -1.559769 2.683594 -0.79512 3 -0.00117493 3 Z M -0.00117493 3 " transform="matrix(1.333333,0,0,1.333333,184.337504,186)"/>
<path style="fill-rule:nonzero;fill:rgb(100%,49.803922%,5.490196%);fill-opacity:1;stroke-width:1;stroke-linecap:butt;stroke-linejoin:round;stroke:rgb(100%,49.803922%,5.490196%);stroke-opacity:1;stroke-miterlimit:4;" d="M -0.00117493 3 C 0.7957 3 1.557419 2.683594 2.119919 2.121094 C 2.685349 1.558594 2.998825 0.796875 2.998825 -0.000000000000028422 C 2.998825 -0.796875 2.685349 -1.558594 2.119919 -2.121094 C 1.557419 -2.683594 0.7957 -3 -0.00117493 -3 C -0.79512 -3 -1.559769 -2.683594 -2.122269 -2.121094 C -2.684769 -1.558594 -3.001175 -0.796875 -3.001175 -0.000000000000028422 C -3.001175 0.796875 -2.684769 1.558594 -2.122269 2.121094 C -1.559769 2.683594 -0.79512 3 -0.00117493 3 Z M -0.00117493 3 " transform="matrix(1.333333,0,0,1.333333,184.337504,186)"/>
<path style="fill-rule:nonzero;fill:rgb(100%,49.803922%,5.490196%);fill-opacity:1;stroke-width:1;stroke-linecap:butt;stroke-linejoin:round;stroke:rgb(100%,49.803922%,5.490196%);stroke-opacity:1;stroke-miterlimit:4;" d="M -0.00117493 3 C 0.7957 3 1.557419 2.683594 2.119919 2.121094 C 2.685349 1.558594 2.998825 0.796875 2.998825 -0.000000000000028422 C 2.998825 -0.796875 2.685349 -1.558594 2.119919 -2.121094 C 1.557419 -2.683594 0.7957 -3 -0.00117493 -3 C -0.79512 -3 -1.559769 -2.683594 -2.122269 -2.121094 C -2.684769 -1.558594 -3.001175 -0.796875 -3.001175 -0.000000000000028422 C -3.001175 0.796875 -2.684769 1.558594 -2.122269 2.121094 C -1.559769 2.683594 -0.79512 3 -0.00117493 3 Z M -0.00117493 3 " transform="matrix(1.333333,0,0,1.333333,184.337504,186)"/>
<path style="fill:none;stroke-width:0.8;stroke-linecap:square;stroke-linejoin:miter;stroke:rgb(0%,0%,0%);stroke-opacity:1;stroke-miterlimit:4;" d="M 40.602539 145.798828 L 40.602539 7.201172 " transform="matrix(1.333333,0,0,1.333333,0,-0.000000000000014211)"/>
<path style="fill:none;stroke-width:0.8;stroke-linecap:square;stroke-linejoin:miter;stroke:rgb(0%,0%,0%);stroke-opacity:1;stroke-miterlimit:4;" d="M 235.904297 145.798828 L 235.904297 7.201172 " transform="matrix(1.333333,0,0,1.333333,0,-0.000000000000014211)"/>
<path style="fill:none;stroke-width:0.8;stroke-linecap:square;stroke-linejoin:miter;stroke:rgb(0%,0%,0%);stroke-opacity:1;stroke-miterlimit:4;" d="M 40.602539 145.798828 L 235.904297 145.798828 " transform="matrix(1.333333,0,0,1.333333,0,-0.000000000000014211)"/>
<path style="fill:none;stroke-width:0.8;stroke-linecap:square;stroke-linejoin:miter;stroke:rgb(0%,0%,0%);stroke-opacity:1;stroke-miterlimit:4;" d="M 40.602539 7.201172 L 235.904297 7.201172 " transform="matrix(1.333333,0,0,1.333333,0,-0.000000000000014211)"/>
</g>
</svg>
