<?xml version="1.0" encoding="UTF-8"?>
<svg xmlns="http://www.w3.org/2000/svg" xmlns:xlink="http://www.w3.org/1999/xlink" width="335.310425" height="244.474996" viewBox="0 0 335.310425 244.474996" version="1.1">
<defs>
<clipPath id="clip1">
  <path d="M 109 9.601562 L 112 9.601562 L 112 194.398438 L 109 194.398438 Z M 109 9.601562 "/>
</clipPath>
<clipPath id="clip2">
  <path d="M 194 9.601562 L 197 9.601562 L 197 194.398438 L 194 194.398438 Z M 194 9.601562 "/>
</clipPath>
<clipPath id="clip3">
  <path d="M 279 9.601562 L 282 9.601562 L 282 194.398438 L 279 194.398438 Z M 279 9.601562 "/>
</clipPath>
<clipPath id="clip4">
  <path d="M 65.308594 164 L 325.710938 164 L 325.710938 166 L 65.308594 166 Z M 65.308594 164 "/>
</clipPath>
<clipPath id="clip5">
  <path d="M 65.308594 132 L 325.710938 132 L 325.710938 135 L 65.308594 135 Z M 65.308594 132 "/>
</clipPath>
<clipPath id="clip6">
  <path d="M 65.308594 101 L 325.710938 101 L 325.710938 103 L 65.308594 103 Z M 65.308594 101 "/>
</clipPath>
<clipPath id="clip7">
  <path d="M 65.308594 69 L 325.710938 69 L 325.710938 72 L 65.308594 72 Z M 65.308594 69 "/>
</clipPath>
<clipPath id="clip8">
  <path d="M 65.308594 38 L 325.710938 38 L 325.710938 40 L 65.308594 40 Z M 65.308594 38 "/>
</clipPath>
</defs>
<g id="surface1">
<path style=" stroke:none;fill-rule:nonzero;fill:rgb(100%,100%,100%);fill-opacity:1;" d="M 0 244.476562 L 335.308594 244.476562 L 335.308594 0 L 0 0 Z M 0 244.476562 "/>
<path style=" stroke:none;fill-rule:nonzero;fill:rgb(100%,100%,100%);fill-opacity:1;" d="M 65.308594 194.398438 L 325.710938 194.398438 L 325.710938 9.601562 L 65.308594 9.601562 Z M 65.308594 194.398438 "/>
<g clip-path="url(#clip1)" clip-rule="nonzero">
<path style="fill:none;stroke-width:0.8;stroke-linecap:square;stroke-linejoin:round;stroke:rgb(69.01961%,69.01961%,69.01961%);stroke-opacity:1;stroke-miterlimit:4;" d="M 82.728516 145.798828 L 82.728516 7.201172 " transform="matrix(1.333333,0,0,1.333333,0,0.000000000000014211)"/>
</g>
<path style="fill:none;stroke-width:0.8;stroke-linecap:butt;stroke-linejoin:round;stroke:rgb(0%,0%,0%);stroke-opacity:1;stroke-miterlimit:4;" d="M -0.000236511 -0.00117493 L -0.000236511 3.499802 " transform="matrix(1.333333,0,0,1.333333,110.305003,194.400004)"/>
<path style=" stroke:none;fill-rule:nonzero;fill:rgb(0%,0%,0%);fill-opacity:1;" d="M 97.648438 209.132812 L 105.992188 209.132812 L 105.992188 210.238281 L 97.648438 210.238281 Z M 97.648438 209.132812 "/>
<path style=" stroke:none;fill-rule:nonzero;fill:rgb(0%,0%,0%);fill-opacity:1;" d="M 109.964844 212.757812 L 114.554688 212.757812 L 114.554688 213.863281 L 108.382812 213.863281 L 108.382812 212.757812 C 108.882812 212.242188 109.5625 211.546875 110.421875 210.679688 C 111.285156 209.808594 111.828125 209.246094 112.046875 208.992188 C 112.46875 208.523438 112.761719 208.121094 112.929688 207.792969 C 113.097656 207.464844 113.183594 207.144531 113.183594 206.828125 C 113.183594 206.308594 113 205.890625 112.636719 205.566406 C 112.277344 205.238281 111.804688 205.074219 111.222656 205.074219 C 110.808594 205.074219 110.375 205.148438 109.914062 205.289062 C 109.457031 205.433594 108.96875 205.648438 108.449219 205.941406 L 108.449219 204.613281 C 108.976562 204.398438 109.472656 204.238281 109.933594 204.132812 C 110.394531 204.023438 110.816406 203.96875 111.195312 203.96875 C 112.203125 203.96875 113.007812 204.222656 113.605469 204.726562 C 114.203125 205.226562 114.503906 205.898438 114.503906 206.742188 C 114.503906 207.140625 114.429688 207.519531 114.277344 207.878906 C 114.128906 208.234375 113.855469 208.65625 113.460938 209.144531 C 113.351562 209.269531 113.007812 209.632812 112.425781 210.234375 C 111.84375 210.835938 111.023438 211.679688 109.964844 212.757812 Z M 109.964844 212.757812 "/>
<path style=" stroke:none;fill-rule:nonzero;fill:rgb(0%,0%,0%);fill-opacity:1;" d="M 120.128906 205.011719 C 119.453125 205.011719 118.941406 205.34375 118.601562 206.011719 C 118.261719 206.675781 118.089844 207.675781 118.089844 209.015625 C 118.089844 210.347656 118.261719 211.347656 118.601562 212.011719 C 118.941406 212.679688 119.453125 213.011719 120.128906 213.011719 C 120.808594 213.011719 121.320312 212.679688 121.660156 212.011719 C 122.003906 211.347656 122.171875 210.347656 122.171875 209.015625 C 122.171875 207.675781 122.003906 206.675781 121.660156 206.011719 C 121.320312 205.34375 120.808594 205.011719 120.128906 205.011719 Z M 120.128906 203.96875 C 121.21875 203.96875 122.050781 204.398438 122.625 205.261719 C 123.199219 206.125 123.488281 207.375 123.488281 209.015625 C 123.488281 210.652344 123.199219 211.898438 122.625 212.761719 C 122.050781 213.625 121.21875 214.054688 120.128906 214.054688 C 119.039062 214.054688 118.207031 213.625 117.632812 212.761719 C 117.058594 211.898438 116.769531 210.652344 116.769531 209.015625 C 116.769531 207.375 117.058594 206.125 117.632812 205.261719 C 118.207031 204.398438 119.039062 203.96875 120.128906 203.96875 Z M 120.128906 203.96875 "/>
<g clip-path="url(#clip2)" clip-rule="nonzero">
<path style="fill:none;stroke-width:0.8;stroke-linecap:square;stroke-linejoin:round;stroke:rgb(69.01961%,69.01961%,69.01961%);stroke-opacity:1;stroke-miterlimit:4;" d="M 146.633789 145.798828 L 146.633789 7.201172 " transform="matrix(1.333333,0,0,1.333333,0,0.000000000000014211)"/>
</g>
<path style="fill:none;stroke-width:0.8;stroke-linecap:butt;stroke-linejoin:round;stroke:rgb(0%,0%,0%);stroke-opacity:1;stroke-miterlimit:4;" d="M 0.000976562 -0.00117493 L 0.000976562 3.499802 " transform="matrix(1.333333,0,0,1.333333,195.510417,194.400004)"/>
<path style=" stroke:none;fill-rule:nonzero;fill:rgb(0%,0%,0%);fill-opacity:1;" d="M 195.507812 205.011719 C 194.828125 205.011719 194.320312 205.34375 193.980469 206.011719 C 193.640625 206.675781 193.46875 207.675781 193.46875 209.015625 C 193.46875 210.347656 193.640625 211.347656 193.980469 212.011719 C 194.320312 212.679688 194.828125 213.011719 195.507812 213.011719 C 196.1875 213.011719 196.699219 212.679688 197.039062 212.011719 C 197.382812 211.347656 197.550781 210.347656 197.550781 209.015625 C 197.550781 207.675781 197.382812 206.675781 197.039062 206.011719 C 196.699219 205.34375 196.1875 205.011719 195.507812 205.011719 Z M 195.507812 203.96875 C 196.597656 203.96875 197.429688 204.398438 198.003906 205.261719 C 198.578125 206.125 198.867188 207.375 198.867188 209.015625 C 198.867188 210.652344 198.578125 211.898438 198.003906 212.761719 C 197.429688 213.625 196.597656 214.054688 195.507812 214.054688 C 194.417969 214.054688 193.585938 213.625 193.011719 212.761719 C 192.433594 211.898438 192.148438 210.652344 192.148438 209.015625 C 192.148438 207.375 192.433594 206.125 193.011719 205.261719 C 193.585938 204.398438 194.417969 203.96875 195.507812 203.96875 Z M 195.507812 203.96875 "/>
<g clip-path="url(#clip3)" clip-rule="nonzero">
<path style="fill:none;stroke-width:0.8;stroke-linecap:square;stroke-linejoin:round;stroke:rgb(69.01961%,69.01961%,69.01961%);stroke-opacity:1;stroke-miterlimit:4;" d="M 210.536133 145.798828 L 210.536133 7.201172 " transform="matrix(1.333333,0,0,1.333333,0,0.000000000000014211)"/>
</g>
<path style="fill:none;stroke-width:0.8;stroke-linecap:butt;stroke-linejoin:round;stroke:rgb(0%,0%,0%);stroke-opacity:1;stroke-miterlimit:4;" d="M -0.000747681 -0.00117493 L -0.000747681 3.499802 " transform="matrix(1.333333,0,0,1.333333,280.715841,194.400004)"/>
<path style=" stroke:none;fill-rule:nonzero;fill:rgb(0%,0%,0%);fill-opacity:1;" d="M 274.789062 212.757812 L 279.378906 212.757812 L 279.378906 213.863281 L 273.210938 213.863281 L 273.210938 212.757812 C 273.707031 212.242188 274.386719 211.546875 275.25 210.679688 C 276.113281 209.808594 276.652344 209.246094 276.875 208.992188 C 277.296875 208.523438 277.589844 208.121094 277.753906 207.792969 C 277.921875 207.464844 278.007812 207.144531 278.007812 206.828125 C 278.007812 206.308594 277.828125 205.890625 277.464844 205.566406 C 277.101562 205.238281 276.628906 205.074219 276.046875 205.074219 C 275.632812 205.074219 275.199219 205.148438 274.742188 205.289062 C 274.285156 205.433594 273.796875 205.648438 273.273438 205.941406 L 273.273438 204.613281 C 273.804688 204.398438 274.296875 204.238281 274.757812 204.132812 C 275.21875 204.023438 275.640625 203.96875 276.023438 203.96875 C 277.027344 203.96875 277.832031 204.222656 278.429688 204.726562 C 279.027344 205.226562 279.328125 205.898438 279.328125 206.742188 C 279.328125 207.140625 279.253906 207.519531 279.101562 207.878906 C 278.953125 208.234375 278.683594 208.65625 278.285156 209.144531 C 278.179688 209.269531 277.832031 209.632812 277.25 210.234375 C 276.671875 210.835938 275.851562 211.679688 274.789062 212.757812 Z M 274.789062 212.757812 "/>
<path style=" stroke:none;fill-rule:nonzero;fill:rgb(0%,0%,0%);fill-opacity:1;" d="M 284.953125 205.011719 C 284.277344 205.011719 283.769531 205.34375 283.425781 206.011719 C 283.085938 206.675781 282.914062 207.675781 282.914062 209.015625 C 282.914062 210.347656 283.085938 211.347656 283.425781 212.011719 C 283.769531 212.679688 284.277344 213.011719 284.953125 213.011719 C 285.636719 213.011719 286.144531 212.679688 286.488281 212.011719 C 286.828125 211.347656 287 210.347656 287 209.015625 C 287 207.675781 286.828125 206.675781 286.488281 206.011719 C 286.144531 205.34375 285.636719 205.011719 284.953125 205.011719 Z M 284.953125 203.96875 C 286.042969 203.96875 286.875 204.398438 287.449219 205.261719 C 288.027344 206.125 288.3125 207.375 288.3125 209.015625 C 288.3125 210.652344 288.027344 211.898438 287.449219 212.761719 C 286.875 213.625 286.042969 214.054688 284.953125 214.054688 C 283.863281 214.054688 283.03125 213.625 282.457031 212.761719 C 281.882812 211.898438 281.59375 210.652344 281.59375 209.015625 C 281.59375 207.375 281.882812 206.125 282.457031 205.261719 C 283.03125 204.398438 283.863281 203.96875 284.953125 203.96875 Z M 284.953125 203.96875 "/>
<path style=" stroke:none;fill-rule:nonzero;fill:rgb(0%,0%,0%);fill-opacity:1;" d="M 198.882812 224.808594 L 196.246094 228.359375 L 199.019531 232.101562 L 197.605469 232.101562 L 195.484375 229.238281 L 193.363281 232.101562 L 191.949219 232.101562 L 194.78125 228.289062 L 192.191406 224.808594 L 193.601562 224.808594 L 195.535156 227.410156 L 197.46875 224.808594 Z M 198.882812 224.808594 "/>
<g clip-path="url(#clip4)" clip-rule="nonzero">
<path style="fill:none;stroke-width:0.8;stroke-linecap:square;stroke-linejoin:round;stroke:rgb(69.01961%,69.01961%,69.01961%);stroke-opacity:1;stroke-miterlimit:4;" d="M 48.981445 123.600586 L 244.283203 123.600586 " transform="matrix(1.333333,0,0,1.333333,0,0.000000000000014211)"/>
</g>
<path style="fill:none;stroke-width:0.8;stroke-linecap:butt;stroke-linejoin:round;stroke:rgb(0%,0%,0%);stroke-opacity:1;stroke-miterlimit:4;" d="M -0.00136948 -0.00114441 L -3.499416 -0.00114441 " transform="matrix(1.333333,0,0,1.333333,65.31042,164.802307)"/>
<path style=" stroke:none;fill-rule:nonzero;fill:rgb(0%,0%,0%);fill-opacity:1;" d="M 29.25 165.132812 L 37.597656 165.132812 L 37.597656 166.242188 L 29.25 166.242188 Z M 29.25 165.132812 "/>
<path style=" stroke:none;fill-rule:nonzero;fill:rgb(0%,0%,0%);fill-opacity:1;" d="M 41.566406 168.761719 L 46.15625 168.761719 L 46.15625 169.867188 L 39.988281 169.867188 L 39.988281 168.761719 C 40.484375 168.246094 41.164062 167.550781 42.027344 166.683594 C 42.886719 165.8125 43.429688 165.25 43.652344 164.996094 C 44.070312 164.523438 44.367188 164.125 44.53125 163.796875 C 44.699219 163.46875 44.785156 163.148438 44.785156 162.832031 C 44.785156 162.3125 44.601562 161.894531 44.242188 161.566406 C 43.878906 161.242188 43.40625 161.078125 42.824219 161.078125 C 42.410156 161.078125 41.976562 161.148438 41.519531 161.292969 C 41.0625 161.4375 40.570312 161.652344 40.050781 161.945312 L 40.050781 160.617188 C 40.582031 160.402344 41.074219 160.242188 41.535156 160.132812 C 41.996094 160.027344 42.417969 159.972656 42.800781 159.972656 C 43.804688 159.972656 44.609375 160.222656 45.207031 160.726562 C 45.804688 161.230469 46.105469 161.902344 46.105469 162.746094 C 46.105469 163.144531 46.03125 163.523438 45.878906 163.882812 C 45.730469 164.238281 45.460938 164.660156 45.0625 165.148438 C 44.957031 165.273438 44.609375 165.636719 44.027344 166.238281 C 43.449219 166.839844 42.628906 167.679688 41.566406 168.761719 Z M 41.566406 168.761719 "/>
<path style=" stroke:none;fill-rule:nonzero;fill:rgb(0%,0%,0%);fill-opacity:1;" d="M 51.730469 161.015625 C 51.054688 161.015625 50.542969 161.347656 50.203125 162.015625 C 49.863281 162.679688 49.691406 163.679688 49.691406 165.019531 C 49.691406 166.351562 49.863281 167.347656 50.203125 168.015625 C 50.542969 168.683594 51.054688 169.015625 51.730469 169.015625 C 52.410156 169.015625 52.921875 168.683594 53.261719 168.015625 C 53.605469 167.347656 53.777344 166.351562 53.777344 165.019531 C 53.777344 163.679688 53.605469 162.679688 53.261719 162.015625 C 52.921875 161.347656 52.410156 161.015625 51.730469 161.015625 Z M 51.730469 159.972656 C 52.820312 159.972656 53.652344 160.402344 54.226562 161.265625 C 54.804688 162.128906 55.089844 163.378906 55.089844 165.019531 C 55.089844 166.652344 54.804688 167.902344 54.226562 168.765625 C 53.652344 169.628906 52.820312 170.058594 51.730469 170.058594 C 50.640625 170.058594 49.808594 169.628906 49.234375 168.765625 C 48.660156 167.902344 48.371094 166.652344 48.371094 165.019531 C 48.371094 163.378906 48.660156 162.128906 49.234375 161.265625 C 49.808594 160.402344 50.640625 159.972656 51.730469 159.972656 Z M 51.730469 159.972656 "/>
<g clip-path="url(#clip5)" clip-rule="nonzero">
<path style="fill:none;stroke-width:0.8;stroke-linecap:square;stroke-linejoin:round;stroke:rgb(69.01961%,69.01961%,69.01961%);stroke-opacity:1;stroke-miterlimit:4;" d="M 48.981445 100.051758 L 244.283203 100.051758 " transform="matrix(1.333333,0,0,1.333333,0,0.000000000000014211)"/>
</g>
<path style="fill:none;stroke-width:0.8;stroke-linecap:butt;stroke-linejoin:round;stroke:rgb(0%,0%,0%);stroke-opacity:1;stroke-miterlimit:4;" d="M -0.00136948 0.000892639 L -3.499416 0.000892639 " transform="matrix(1.333333,0,0,1.333333,65.31042,133.401154)"/>
<path style=" stroke:none;fill-rule:nonzero;fill:rgb(0%,0%,0%);fill-opacity:1;" d="M 29.25 133.734375 L 37.597656 133.734375 L 37.597656 134.839844 L 29.25 134.839844 Z M 29.25 133.734375 "/>
<path style=" stroke:none;fill-rule:nonzero;fill:rgb(0%,0%,0%);fill-opacity:1;" d="M 40.664062 137.359375 L 42.8125 137.359375 L 42.8125 129.945312 L 40.472656 130.414062 L 40.472656 129.214844 L 42.800781 128.746094 L 44.113281 128.746094 L 44.113281 137.359375 L 46.261719 137.359375 L 46.261719 138.464844 L 40.664062 138.464844 Z M 40.664062 137.359375 "/>
<path style=" stroke:none;fill-rule:nonzero;fill:rgb(0%,0%,0%);fill-opacity:1;" d="M 51.730469 129.613281 C 51.054688 129.613281 50.542969 129.945312 50.203125 130.613281 C 49.863281 131.277344 49.691406 132.277344 49.691406 133.617188 C 49.691406 134.949219 49.863281 135.949219 50.203125 136.613281 C 50.542969 137.28125 51.054688 137.613281 51.730469 137.613281 C 52.410156 137.613281 52.921875 137.28125 53.261719 136.613281 C 53.605469 135.949219 53.777344 134.949219 53.777344 133.617188 C 53.777344 132.277344 53.605469 131.277344 53.261719 130.613281 C 52.921875 129.945312 52.410156 129.613281 51.730469 129.613281 Z M 51.730469 128.570312 C 52.820312 128.570312 53.652344 129.003906 54.226562 129.863281 C 54.804688 130.726562 55.089844 131.976562 55.089844 133.617188 C 55.089844 135.253906 54.804688 136.503906 54.226562 137.363281 C 53.652344 138.226562 52.820312 138.65625 51.730469 138.65625 C 50.640625 138.65625 49.808594 138.226562 49.234375 137.363281 C 48.660156 136.503906 48.371094 135.253906 48.371094 133.617188 C 48.371094 131.976562 48.660156 130.726562 49.234375 129.863281 C 49.808594 129.003906 50.640625 128.570312 51.730469 128.570312 Z M 51.730469 128.570312 "/>
<g clip-path="url(#clip6)" clip-rule="nonzero">
<path style="fill:none;stroke-width:0.8;stroke-linecap:square;stroke-linejoin:round;stroke:rgb(69.01961%,69.01961%,69.01961%);stroke-opacity:1;stroke-miterlimit:4;" d="M 48.981445 76.5 L 244.283203 76.5 " transform="matrix(1.333333,0,0,1.333333,0,0.000000000000014211)"/>
</g>
<path style="fill:none;stroke-width:0.8;stroke-linecap:butt;stroke-linejoin:round;stroke:rgb(0%,0%,0%);stroke-opacity:1;stroke-miterlimit:4;" d="M -0.00136948 -0.00000762939 L -3.499416 -0.00000762939 " transform="matrix(1.333333,0,0,1.333333,65.31042,102.00001)"/>
<path style=" stroke:none;fill-rule:nonzero;fill:rgb(0%,0%,0%);fill-opacity:1;" d="M 51.730469 98.210938 C 51.054688 98.210938 50.546875 98.542969 50.203125 99.210938 C 49.863281 99.875 49.695312 100.878906 49.695312 102.214844 C 49.695312 103.546875 49.863281 104.546875 50.203125 105.214844 C 50.546875 105.878906 51.054688 106.214844 51.730469 106.214844 C 52.414062 106.214844 52.925781 105.878906 53.265625 105.214844 C 53.605469 104.546875 53.777344 103.546875 53.777344 102.214844 C 53.777344 100.878906 53.605469 99.875 53.265625 99.210938 C 52.925781 98.542969 52.414062 98.210938 51.730469 98.210938 Z M 51.730469 97.167969 C 52.820312 97.167969 53.652344 97.601562 54.230469 98.464844 C 54.804688 99.324219 55.089844 100.574219 55.089844 102.214844 C 55.089844 103.851562 54.804688 105.101562 54.230469 105.964844 C 53.652344 106.824219 52.820312 107.253906 51.730469 107.253906 C 50.640625 107.253906 49.808594 106.824219 49.234375 105.964844 C 48.660156 105.101562 48.371094 103.851562 48.371094 102.214844 C 48.371094 100.574219 48.660156 99.324219 49.234375 98.464844 C 49.808594 97.601562 50.640625 97.167969 51.730469 97.167969 Z M 51.730469 97.167969 "/>
<g clip-path="url(#clip7)" clip-rule="nonzero">
<path style="fill:none;stroke-width:0.8;stroke-linecap:square;stroke-linejoin:round;stroke:rgb(69.01961%,69.01961%,69.01961%);stroke-opacity:1;stroke-miterlimit:4;" d="M 48.981445 52.948242 L 244.283203 52.948242 " transform="matrix(1.333333,0,0,1.333333,0,0.000000000000014211)"/>
</g>
<path style="fill:none;stroke-width:0.8;stroke-linecap:butt;stroke-linejoin:round;stroke:rgb(0%,0%,0%);stroke-opacity:1;stroke-miterlimit:4;" d="M -0.00136948 -0.000900269 L -3.499416 -0.000900269 " transform="matrix(1.333333,0,0,1.333333,65.31042,70.598857)"/>
<path style=" stroke:none;fill-rule:nonzero;fill:rgb(0%,0%,0%);fill-opacity:1;" d="M 40.664062 74.558594 L 42.8125 74.558594 L 42.8125 67.140625 L 40.476562 67.609375 L 40.476562 66.414062 L 42.800781 65.945312 L 44.113281 65.945312 L 44.113281 74.558594 L 46.261719 74.558594 L 46.261719 75.664062 L 40.664062 75.664062 Z M 40.664062 74.558594 "/>
<path style=" stroke:none;fill-rule:nonzero;fill:rgb(0%,0%,0%);fill-opacity:1;" d="M 51.730469 66.808594 C 51.054688 66.808594 50.546875 67.144531 50.203125 67.808594 C 49.863281 68.476562 49.695312 69.476562 49.695312 70.816406 C 49.695312 72.144531 49.863281 73.144531 50.203125 73.8125 C 50.546875 74.480469 51.054688 74.8125 51.730469 74.8125 C 52.414062 74.8125 52.925781 74.480469 53.265625 73.8125 C 53.605469 73.144531 53.777344 72.144531 53.777344 70.816406 C 53.777344 69.476562 53.605469 68.476562 53.265625 67.808594 C 52.925781 67.144531 52.414062 66.808594 51.730469 66.808594 Z M 51.730469 65.769531 C 52.820312 65.769531 53.652344 66.199219 54.230469 67.0625 C 54.804688 67.921875 55.089844 69.175781 55.089844 70.816406 C 55.089844 72.449219 54.804688 73.699219 54.230469 74.5625 C 53.652344 75.421875 52.820312 75.855469 51.730469 75.855469 C 50.640625 75.855469 49.808594 75.421875 49.234375 74.5625 C 48.660156 73.699219 48.371094 72.449219 48.371094 70.816406 C 48.371094 69.175781 48.660156 67.921875 49.234375 67.0625 C 49.808594 66.199219 50.640625 65.769531 51.730469 65.769531 Z M 51.730469 65.769531 "/>
<g clip-path="url(#clip8)" clip-rule="nonzero">
<path style="fill:none;stroke-width:0.8;stroke-linecap:square;stroke-linejoin:round;stroke:rgb(69.01961%,69.01961%,69.01961%);stroke-opacity:1;stroke-miterlimit:4;" d="M 48.981445 29.399414 L 244.283203 29.399414 " transform="matrix(1.333333,0,0,1.333333,0,0.000000000000014211)"/>
</g>
<path style="fill:none;stroke-width:0.8;stroke-linecap:butt;stroke-linejoin:round;stroke:rgb(0%,0%,0%);stroke-opacity:1;stroke-miterlimit:4;" d="M -0.00136948 0.00113297 L -3.499416 0.00113297 " transform="matrix(1.333333,0,0,1.333333,65.31042,39.197708)"/>
<path style=" stroke:none;fill-rule:nonzero;fill:rgb(0%,0%,0%);fill-opacity:1;" d="M 41.570312 43.15625 L 46.160156 43.15625 L 46.160156 44.261719 L 39.988281 44.261719 L 39.988281 43.15625 C 40.484375 42.640625 41.164062 41.949219 42.027344 41.078125 C 42.890625 40.207031 43.429688 39.644531 43.652344 39.390625 C 44.074219 38.921875 44.367188 38.519531 44.535156 38.191406 C 44.703125 37.863281 44.785156 37.542969 44.785156 37.226562 C 44.785156 36.710938 44.605469 36.289062 44.242188 35.964844 C 43.878906 35.636719 43.40625 35.472656 42.824219 35.472656 C 42.414062 35.472656 41.976562 35.546875 41.519531 35.6875 C 41.0625 35.832031 40.574219 36.046875 40.050781 36.339844 L 40.050781 35.011719 C 40.582031 34.796875 41.074219 34.636719 41.535156 34.53125 C 41.996094 34.421875 42.417969 34.367188 42.800781 34.367188 C 43.808594 34.367188 44.609375 34.621094 45.207031 35.125 C 45.808594 35.625 46.105469 36.296875 46.105469 37.140625 C 46.105469 37.539062 46.03125 37.917969 45.882812 38.277344 C 45.734375 38.636719 45.460938 39.054688 45.066406 39.542969 C 44.957031 39.667969 44.609375 40.03125 44.027344 40.632812 C 43.449219 41.234375 42.628906 42.078125 41.570312 43.15625 Z M 41.570312 43.15625 "/>
<path style=" stroke:none;fill-rule:nonzero;fill:rgb(0%,0%,0%);fill-opacity:1;" d="M 51.730469 35.410156 C 51.054688 35.410156 50.546875 35.742188 50.203125 36.410156 C 49.863281 37.074219 49.695312 38.074219 49.695312 39.414062 C 49.695312 40.746094 49.863281 41.746094 50.203125 42.410156 C 50.546875 43.078125 51.054688 43.410156 51.730469 43.410156 C 52.414062 43.410156 52.925781 43.078125 53.265625 42.410156 C 53.605469 41.746094 53.777344 40.746094 53.777344 39.414062 C 53.777344 38.074219 53.605469 37.074219 53.265625 36.410156 C 52.925781 35.742188 52.414062 35.410156 51.730469 35.410156 Z M 51.730469 34.367188 C 52.820312 34.367188 53.652344 34.796875 54.230469 35.660156 C 54.804688 36.523438 55.089844 37.773438 55.089844 39.414062 C 55.089844 41.050781 54.804688 42.296875 54.230469 43.160156 C 53.652344 44.023438 52.820312 44.453125 51.730469 44.453125 C 50.640625 44.453125 49.808594 44.023438 49.234375 43.160156 C 48.660156 42.296875 48.371094 41.050781 48.371094 39.414062 C 48.371094 37.773438 48.660156 36.523438 49.234375 35.660156 C 49.808594 34.796875 50.640625 34.367188 51.730469 34.367188 Z M 51.730469 34.367188 "/>
<path style=" stroke:none;fill-rule:nonzero;fill:rgb(0%,0%,0%);fill-opacity:1;" d="M 9.601562 108.546875 L 10.597656 108.546875 L 10.597656 109.691406 C 10.597656 110.121094 10.683594 110.421875 10.859375 110.589844 C 11.03125 110.753906 11.34375 110.839844 11.796875 110.839844 L 12.441406 110.839844 L 12.441406 108.867188 L 13.371094 108.867188 L 13.371094 110.839844 L 19.730469 110.839844 L 19.730469 112.042969 L 13.371094 112.042969 L 13.371094 113.1875 L 12.441406 113.1875 L 12.441406 112.042969 L 11.929688 112.042969 C 11.121094 112.042969 10.527344 111.855469 10.160156 111.476562 C 9.785156 111.097656 9.601562 110.5 9.601562 109.679688 Z M 9.601562 108.546875 "/>
<path style=" stroke:none;fill-rule:nonzero;fill:rgb(0%,0%,0%);fill-opacity:1;" d="M 9.613281 104.667969 C 10.613281 105.246094 11.597656 105.679688 12.578125 105.964844 C 13.554688 106.246094 14.542969 106.386719 15.546875 106.386719 C 16.546875 106.386719 17.539062 106.242188 18.523438 105.960938 C 19.507812 105.675781 20.496094 105.242188 21.488281 104.667969 L 21.488281 105.710938 C 20.46875 106.359375 19.464844 106.847656 18.480469 107.167969 C 17.496094 107.492188 16.519531 107.65625 15.546875 107.65625 C 14.578125 107.65625 13.601562 107.496094 12.621094 107.171875 C 11.640625 106.851562 10.636719 106.363281 9.613281 105.710938 Z M 9.613281 104.667969 "/>
<path style=" stroke:none;fill-rule:nonzero;fill:rgb(0%,0%,0%);fill-opacity:1;" d="M 12.441406 96.28125 L 15.988281 98.917969 L 19.730469 96.144531 L 19.730469 97.558594 L 16.867188 99.679688 L 19.730469 101.800781 L 19.730469 103.214844 L 15.917969 100.382812 L 12.441406 102.972656 L 12.441406 101.5625 L 15.039062 99.628906 L 12.441406 97.695312 Z M 12.441406 96.28125 "/>
<path style=" stroke:none;fill-rule:nonzero;fill:rgb(0%,0%,0%);fill-opacity:1;" d="M 9.613281 94.640625 L 9.613281 93.597656 C 10.636719 92.949219 11.640625 92.460938 12.621094 92.136719 C 13.601562 91.8125 14.578125 91.652344 15.546875 91.652344 C 16.519531 91.652344 17.496094 91.8125 18.480469 92.136719 C 19.464844 92.460938 20.46875 92.949219 21.488281 93.597656 L 21.488281 94.640625 C 20.496094 94.0625 19.507812 93.632812 18.523438 93.347656 C 17.539062 93.0625 16.546875 92.921875 15.546875 92.921875 C 14.542969 92.921875 13.554688 93.0625 12.578125 93.347656 C 11.597656 93.632812 10.613281 94.0625 9.613281 94.640625 Z M 9.613281 94.640625 "/>
<path style="fill:none;stroke-width:1.5;stroke-linecap:square;stroke-linejoin:round;stroke:rgb(12.156863%,46.666667%,70.588237%);stroke-opacity:1;stroke-miterlimit:4;" d="M 57.861328 133.083984 L 58.69043 136.110352 L 59.393555 137.929688 L 60 138.946289 L 60.512695 139.400391 L 60.928711 139.5 L 61.341797 139.359375 L 61.790039 138.946289 L 62.302734 138.143555 L 62.90918 136.743164 L 63.644531 134.431641 L 64.505859 130.898438 L 65.496094 125.853516 L 66.679688 118.623047 L 68.147461 108.178711 L 70.289062 91.171875 L 74.124023 60.621094 L 75.720703 49.749023 L 77.030273 42.269531 L 78.149414 37.104492 L 79.107422 33.65918 L 79.939453 31.444336 L 80.642578 30.146484 L 81.249023 29.452148 L 81.758789 29.170898 L 82.239258 29.162109 L 82.719727 29.390625 L 83.229492 29.894531 L 83.835938 30.832031 L 84.539062 32.355469 L 85.371094 34.731445 L 86.329102 38.173828 L 87.480469 43.171875 L 88.916016 50.484375 L 90.960938 62.179687 L 95.053711 85.78418 L 96.650391 93.588867 L 97.959961 98.932617 L 99.079102 102.612305 L 100.037109 105.058594 L 100.866211 106.628906 L 101.601562 107.586914 L 102.240234 108.087891 L 102.817383 108.27832 L 103.359375 108.240234 L 103.933594 107.967773 L 104.575195 107.399414 L 105.307617 106.417969 L 106.139648 104.912109 L 107.129883 102.626953 L 108.313477 99.295898 L 109.813477 94.347656 L 112.177734 85.661133 L 115.212891 74.680664 L 116.844727 69.615234 L 118.186523 66.137695 L 119.334961 63.74707 L 120.357422 62.112305 L 121.253906 61.078125 L 122.083008 60.442383 L 122.850586 60.131836 L 123.585938 60.073242 L 124.321289 60.237305 L 125.118164 60.650391 L 126.014648 61.379883 L 127.037109 62.510742 L 128.282227 64.236328 L 129.975586 66.993164 L 134.545898 74.625 L 135.981445 76.5 L 137.197266 77.739258 L 138.28418 78.547852 L 139.306641 79.042969 L 140.296875 79.274414 L 141.287109 79.277344 L 142.341797 79.051758 L 143.522461 78.553711 L 144.960938 77.695312 L 147.741211 75.694336 L 149.563477 74.540039 L 150.84082 73.977539 L 151.927734 73.728516 L 152.917969 73.719727 L 153.875977 73.927734 L 154.833984 74.364258 L 155.856445 75.079102 L 156.943359 76.119141 L 158.188477 77.633789 L 159.65918 79.795898 L 161.704102 83.241211 L 164.994141 88.78418 L 166.400391 90.700195 L 167.519531 91.866211 L 168.445312 92.53125 L 169.277344 92.865234 L 170.012695 92.929687 L 170.748047 92.765625 L 171.480469 92.364258 L 172.248047 91.68457 L 173.080078 90.644531 L 174.005859 89.112305 L 175.060547 86.90918 L 176.241211 83.891602 L 177.647461 79.646484 L 179.405273 73.582031 L 185.220703 52.898437 L 186.498047 49.476562 L 187.520508 47.320312 L 188.384766 45.969727 L 189.120117 45.19043 L 189.758789 44.806641 L 190.333008 44.709961 L 190.875 44.838867 L 191.452148 45.213867 L 192.09082 45.919922 L 192.793945 47.053711 L 193.59375 48.791016 L 194.487305 51.290039 L 195.509766 54.826172 L 196.69043 59.750977 L 198.09668 66.609375 L 199.918945 76.6875 L 205.541016 108.665039 L 206.885742 114.621094 L 207.969727 118.511719 L 208.898438 121.057617 L 209.663086 122.575195 L 210.304688 123.401367 L 210.84668 123.779297 L 211.327148 123.861328 L 211.772461 123.717773 L 212.25293 123.325195 L 212.794922 122.586914 L 213.433594 121.30957 L 214.168945 119.305664 L 215.000977 116.361328 L 215.958984 112.113281 L 217.078125 106.083984 L 218.387695 97.728516 L 220.016602 85.792969 L 222.541992 65.408203 L 225.480469 42.114258 L 227.044922 31.426758 L 228.292969 24.357422 L 229.31543 19.731445 L 230.176758 16.760742 L 230.912109 14.958984 L 231.518555 14.000977 L 232.03125 13.582031 L 232.447266 13.50293 L 232.860352 13.666992 L 233.308594 14.109375 L 233.821289 14.961914 L 234.427734 16.450195 L 235.130859 18.808594 L 235.385742 19.833984 " transform="matrix(1.333333,0,0,1.333333,0,0.000000000000014211)"/>
<path style="fill:none;stroke-width:1.5;stroke-linecap:square;stroke-linejoin:round;stroke:rgb(100%,49.803922%,5.490196%);stroke-opacity:1;stroke-miterlimit:4;" d="M 178.584961 76.5 L 162.609375 84.826172 L 226.49707 34.977539 L 235.40625 19.916016 L 232.265625 13.508789 L 232.374023 13.5 " transform="matrix(1.333333,0,0,1.333333,0,0.000000000000014211)"/>
<path style="fill-rule:nonzero;fill:rgb(100%,49.803922%,5.490196%);fill-opacity:1;stroke-width:1;stroke-linecap:butt;stroke-linejoin:round;stroke:rgb(100%,49.803922%,5.490196%);stroke-opacity:1;stroke-miterlimit:4;" d="M 0.00012207 2.999992 C 0.796997 2.999992 1.558716 2.683586 2.121216 2.121086 C 2.683716 1.558586 3.000122 0.796867 3.000122 -0.00000762939 C 3.000122 -0.796883 2.683716 -1.558601 2.121216 -2.121101 C 1.558716 -2.683601 0.796997 -3.000008 0.00012207 -3.000008 C -0.796753 -3.000008 -1.558472 -2.683601 -2.120972 -2.121101 C -2.683472 -1.558601 -2.999878 -0.796883 -2.999878 -0.00000762939 C -2.999878 0.796867 -2.683472 1.558586 -2.120972 2.121086 C -1.558472 2.683586 -0.796753 2.999992 0.00012207 2.999992 Z M 0.00012207 2.999992 " transform="matrix(1.333333,0,0,1.333333,238.113118,102.00001)"/>
<path style="fill-rule:nonzero;fill:rgb(100%,49.803922%,5.490196%);fill-opacity:1;stroke-width:1;stroke-linecap:butt;stroke-linejoin:round;stroke:rgb(100%,49.803922%,5.490196%);stroke-opacity:1;stroke-miterlimit:4;" d="M 0.000549316 2.99968 C 0.794495 2.99968 1.559143 2.683273 2.121643 2.120773 C 2.684143 1.558273 3.000549 0.796555 3.000549 -0.000320435 C 3.000549 -0.794266 2.684143 -1.558914 2.121643 -2.121414 C 1.559143 -2.683914 0.794495 -3.00032 0.000549316 -3.00032 C -0.796326 -3.00032 -1.558044 -2.683914 -2.120544 -2.121414 C -2.683044 -1.558914 -2.999451 -0.794266 -2.999451 -0.000320435 C -2.999451 0.796555 -2.683044 1.558273 -2.120544 2.120773 C -1.558044 2.683273 -0.796326 2.99968 0.000549316 2.99968 Z M 0.000549316 2.99968 " transform="matrix(1.333333,0,0,1.333333,216.811768,113.10199)"/>
<path style="fill-rule:nonzero;fill:rgb(100%,49.803922%,5.490196%);fill-opacity:1;stroke-width:1;stroke-linecap:butt;stroke-linejoin:round;stroke:rgb(100%,49.803922%,5.490196%);stroke-opacity:1;stroke-miterlimit:4;" d="M 0.000579834 3.000679 C 0.794525 3.000679 1.559174 2.684273 2.121674 2.121773 C 2.684174 1.559273 3.00058 0.794624 3.00058 0.000679016 C 3.00058 -0.796196 2.684174 -1.557915 2.121674 -2.120415 C 1.559174 -2.682915 0.794525 -2.999321 0.000579834 -2.999321 C -0.796295 -2.999321 -1.558014 -2.682915 -2.120514 -2.120415 C -2.683014 -1.557915 -2.99942 -0.796196 -2.99942 0.000679016 C -2.99942 0.794624 -2.683014 1.559273 -2.120514 2.121773 C -1.558014 2.684273 -0.796295 3.000679 0.000579834 3.000679 Z M 0.000579834 3.000679 " transform="matrix(1.333333,0,0,1.333333,301.995321,46.635813)"/>
<path style="fill-rule:nonzero;fill:rgb(100%,49.803922%,5.490196%);fill-opacity:1;stroke-width:1;stroke-linecap:butt;stroke-linejoin:round;stroke:rgb(100%,49.803922%,5.490196%);stroke-opacity:1;stroke-miterlimit:4;" d="M 0.000717163 2.998863 C 0.794662 2.998863 1.559311 2.682457 2.121811 2.119957 C 2.684311 1.557457 3.000717 0.795738 3.000717 -0.00113678 C 3.000717 -0.795082 2.684311 -1.559731 2.121811 -2.122231 C 1.559311 -2.684731 0.794662 -3.001137 0.000717163 -3.001137 C -0.796158 -3.001137 -1.557877 -2.684731 -2.120377 -2.122231 C -2.682877 -1.559731 -2.999283 -0.795082 -2.999283 -0.00113678 C -2.999283 0.795738 -2.682877 1.557457 -2.120377 2.119957 C -1.557877 2.682457 -0.796158 2.998863 0.000717163 2.998863 Z M 0.000717163 2.998863 " transform="matrix(1.333333,0,0,1.333333,313.874044,26.556203)"/>
<path style="fill-rule:nonzero;fill:rgb(100%,49.803922%,5.490196%);fill-opacity:1;stroke-width:1;stroke-linecap:butt;stroke-linejoin:round;stroke:rgb(100%,49.803922%,5.490196%);stroke-opacity:1;stroke-miterlimit:4;" d="M 0.00106812 3.000591 C 0.795013 3.000591 1.559662 2.684185 2.122162 2.121685 C 2.684662 1.559185 3.001068 0.794537 3.001068 0.000591278 C 3.001068 -0.796284 2.684662 -1.558002 2.122162 -2.120502 C 1.559662 -2.683002 0.795013 -2.999409 0.00106812 -2.999409 C -0.795807 -2.999409 -1.557526 -2.683002 -2.120026 -2.120502 C -2.682526 -1.558002 -2.998932 -0.796284 -2.998932 0.000591278 C -2.998932 0.794537 -2.682526 1.559185 -2.120026 2.121685 C -1.557526 2.684185 -0.795807 3.000591 0.00106812 3.000591 Z M 0.00106812 3.000591 " transform="matrix(1.333333,0,0,1.333333,309.686076,18.01093)"/>
<path style="fill-rule:nonzero;fill:rgb(100%,49.803922%,5.490196%);fill-opacity:1;stroke-width:1;stroke-linecap:butt;stroke-linejoin:round;stroke:rgb(100%,49.803922%,5.490196%);stroke-opacity:1;stroke-miterlimit:4;" d="M 0.000564575 3 C 0.79451 3 1.559158 2.683594 2.121658 2.121094 C 2.684158 1.558594 3.000565 0.796875 3.000565 -0.000000000000010658 C 3.000565 -0.796875 2.684158 -1.558594 2.121658 -2.121094 C 1.559158 -2.683594 0.79451 -3 0.000564575 -3 C -0.79631 -3 -1.558029 -2.683594 -2.120529 -2.121094 C -2.683029 -1.558594 -2.999435 -0.796875 -2.999435 -0.000000000000010658 C -2.999435 0.796875 -2.683029 1.558594 -2.120529 2.121094 C -1.558029 2.683594 -0.79631 3 0.000564575 3 Z M 0.000564575 3 " transform="matrix(1.333333,0,0,1.333333,309.831278,18)"/>
<path style="fill-rule:nonzero;fill:rgb(100%,49.803922%,5.490196%);fill-opacity:1;stroke-width:1;stroke-linecap:butt;stroke-linejoin:round;stroke:rgb(100%,49.803922%,5.490196%);stroke-opacity:1;stroke-miterlimit:4;" d="M 0.000717163 3 C 0.794662 3 1.559311 2.683594 2.121811 2.121094 C 2.684311 1.558594 3.000717 0.796875 3.000717 -0.000000000000010658 C 3.000717 -0.796875 2.684311 -1.558594 2.121811 -2.121094 C 1.559311 -2.683594 0.794662 -3 0.000717163 -3 C -0.796158 -3 -1.557877 -2.683594 -2.120377 -2.121094 C -2.682877 -1.558594 -2.999283 -0.796875 -2.999283 -0.000000000000010658 C -2.999283 0.796875 -2.682877 1.558594 -2.120377 2.121094 C -1.557877 2.683594 -0.796158 3 0.000717163 3 Z M 0.000717163 3 " transform="matrix(1.333333,0,0,1.333333,309.831075,18)"/>
<path style="fill-rule:nonzero;fill:rgb(100%,49.803922%,5.490196%);fill-opacity:1;stroke-width:1;stroke-linecap:butt;stroke-linejoin:round;stroke:rgb(100%,49.803922%,5.490196%);stroke-opacity:1;stroke-miterlimit:4;" d="M 0.000701904 3 C 0.794647 3 1.559296 2.683594 2.121796 2.121094 C 2.684296 1.558594 3.000702 0.796875 3.000702 -0.000000000000010658 C 3.000702 -0.796875 2.684296 -1.558594 2.121796 -2.121094 C 1.559296 -2.683594 0.794647 -3 0.000701904 -3 C -0.796173 -3 -1.557892 -2.683594 -2.120392 -2.121094 C -2.682892 -1.558594 -2.999298 -0.796875 -2.999298 -0.000000000000010658 C -2.999298 0.796875 -2.682892 1.558594 -2.120392 2.121094 C -1.557892 2.683594 -0.796173 3 0.000701904 3 Z M 0.000701904 3 " transform="matrix(1.333333,0,0,1.333333,309.831095,18)"/>
<path style="fill-rule:nonzero;fill:rgb(100%,49.803922%,5.490196%);fill-opacity:1;stroke-width:1;stroke-linecap:butt;stroke-linejoin:round;stroke:rgb(100%,49.803922%,5.490196%);stroke-opacity:1;stroke-miterlimit:4;" d="M 0.000701904 3 C 0.794647 3 1.559296 2.683594 2.121796 2.121094 C 2.684296 1.558594 3.000702 0.796875 3.000702 -0.000000000000010658 C 3.000702 -0.796875 2.684296 -1.558594 2.121796 -2.121094 C 1.559296 -2.683594 0.794647 -3 0.000701904 -3 C -0.796173 -3 -1.557892 -2.683594 -2.120392 -2.121094 C -2.682892 -1.558594 -2.999298 -0.796875 -2.999298 -0.000000000000010658 C -2.999298 0.796875 -2.682892 1.558594 -2.120392 2.121094 C -1.557892 2.683594 -0.796173 3 0.000701904 3 Z M 0.000701904 3 " transform="matrix(1.333333,0,0,1.333333,309.831095,18)"/>
<path style="fill-rule:nonzero;fill:rgb(100%,49.803922%,5.490196%);fill-opacity:1;stroke-width:1;stroke-linecap:butt;stroke-linejoin:round;stroke:rgb(100%,49.803922%,5.490196%);stroke-opacity:1;stroke-miterlimit:4;" d="M 0.000701904 3 C 0.794647 3 1.559296 2.683594 2.121796 2.121094 C 2.684296 1.558594 3.000702 0.796875 3.000702 -0.000000000000010658 C 3.000702 -0.796875 2.684296 -1.558594 2.121796 -2.121094 C 1.559296 -2.683594 0.794647 -3 0.000701904 -3 C -0.796173 -3 -1.557892 -2.683594 -2.120392 -2.121094 C -2.682892 -1.558594 -2.999298 -0.796875 -2.999298 -0.000000000000010658 C -2.999298 0.796875 -2.682892 1.558594 -2.120392 2.121094 C -1.557892 2.683594 -0.796173 3 0.000701904 3 Z M 0.000701904 3 " transform="matrix(1.333333,0,0,1.333333,309.831095,18)"/>
<path style="fill-rule:nonzero;fill:rgb(100%,49.803922%,5.490196%);fill-opacity:1;stroke-width:1;stroke-linecap:butt;stroke-linejoin:round;stroke:rgb(100%,49.803922%,5.490196%);stroke-opacity:1;stroke-miterlimit:4;" d="M 0.000701904 3 C 0.794647 3 1.559296 2.683594 2.121796 2.121094 C 2.684296 1.558594 3.000702 0.796875 3.000702 -0.000000000000010658 C 3.000702 -0.796875 2.684296 -1.558594 2.121796 -2.121094 C 1.559296 -2.683594 0.794647 -3 0.000701904 -3 C -0.796173 -3 -1.557892 -2.683594 -2.120392 -2.121094 C -2.682892 -1.558594 -2.999298 -0.796875 -2.999298 -0.000000000000010658 C -2.999298 0.796875 -2.682892 1.558594 -2.120392 2.121094 C -1.557892 2.683594 -0.796173 3 0.000701904 3 Z M 0.000701904 3 " transform="matrix(1.333333,0,0,1.333333,309.831095,18)"/>
<path style="fill:none;stroke-width:0.8;stroke-linecap:square;stroke-linejoin:miter;stroke:rgb(0%,0%,0%);stroke-opacity:1;stroke-miterlimit:4;" d="M 48.981445 145.798828 L 48.981445 7.201172 " transform="matrix(1.333333,0,0,1.333333,0,0.000000000000014211)"/>
<path style="fill:none;stroke-width:0.8;stroke-linecap:square;stroke-linejoin:miter;stroke:rgb(0%,0%,0%);stroke-opacity:1;stroke-miterlimit:4;" d="M 244.283203 145.798828 L 244.283203 7.201172 " transform="matrix(1.333333,0,0,1.333333,0,0.000000000000014211)"/>
<path style="fill:none;stroke-width:0.8;stroke-linecap:square;stroke-linejoin:miter;stroke:rgb(0%,0%,0%);stroke-opacity:1;stroke-miterlimit:4;" d="M 48.981445 145.798828 L 244.283203 145.798828 " transform="matrix(1.333333,0,0,1.333333,0,0.000000000000014211)"/>
<path style="fill:none;stroke-width:0.8;stroke-linecap:square;stroke-linejoin:miter;stroke:rgb(0%,0%,0%);stroke-opacity:1;stroke-miterlimit:4;" d="M 48.981445 7.201172 L 244.283203 7.201172 " transform="matrix(1.333333,0,0,1.333333,0,0.000000000000014211)"/>
</g>
</svg>
