<?xml version="1.0" encoding="UTF-8"?>
<svg xmlns="http://www.w3.org/2000/svg" xmlns:xlink="http://www.w3.org/1999/xlink" width="348.03125" height="244.474996" viewBox="0 0 348.03125 244.474996" version="1.1">
<defs>
<clipPath id="clip1">
  <path d="M 113 9.601562 L 115 9.601562 L 115 194.398438 L 113 194.398438 Z M 113 9.601562 "/>
</clipPath>
<clipPath id="clip2">
  <path d="M 160 9.601562 L 163 9.601562 L 163 194.398438 L 160 194.398438 Z M 160 9.601562 "/>
</clipPath>
<clipPath id="clip3">
  <path d="M 208 9.601562 L 211 9.601562 L 211 194.398438 L 208 194.398438 Z M 208 9.601562 "/>
</clipPath>
<clipPath id="clip4">
  <path d="M 256 9.601562 L 259 9.601562 L 259 194.398438 L 256 194.398438 Z M 256 9.601562 "/>
</clipPath>
<clipPath id="clip5">
  <path d="M 304 9.601562 L 306 9.601562 L 306 194.398438 L 304 194.398438 Z M 304 9.601562 "/>
</clipPath>
<clipPath id="clip6">
  <path d="M 78.03125 191 L 338.429688 191 L 338.429688 193 L 78.03125 193 Z M 78.03125 191 "/>
</clipPath>
<clipPath id="clip7">
  <path d="M 78.03125 156 L 338.429688 156 L 338.429688 158 L 78.03125 158 Z M 78.03125 156 "/>
</clipPath>
<clipPath id="clip8">
  <path d="M 78.03125 121 L 338.429688 121 L 338.429688 124 L 78.03125 124 Z M 78.03125 121 "/>
</clipPath>
<clipPath id="clip9">
  <path d="M 78.03125 86 L 338.429688 86 L 338.429688 89 L 78.03125 89 Z M 78.03125 86 "/>
</clipPath>
<clipPath id="clip10">
  <path d="M 78.03125 52 L 338.429688 52 L 338.429688 54 L 78.03125 54 Z M 78.03125 52 "/>
</clipPath>
<clipPath id="clip11">
  <path d="M 78.03125 17 L 338.429688 17 L 338.429688 19 L 78.03125 19 Z M 78.03125 17 "/>
</clipPath>
</defs>
<g id="surface1">
<path style=" stroke:none;fill-rule:nonzero;fill:rgb(100%,100%,100%);fill-opacity:1;" d="M 0 244.476562 L 348.03125 244.476562 L 348.03125 0 L 0 0 Z M 0 244.476562 "/>
<path style=" stroke:none;fill-rule:nonzero;fill:rgb(100%,100%,100%);fill-opacity:1;" d="M 78.03125 194.398438 L 338.429688 194.398438 L 338.429688 9.601562 L 78.03125 9.601562 Z M 78.03125 194.398438 "/>
<g clip-path="url(#clip1)" clip-rule="nonzero">
<path style="fill:none;stroke-width:0.8;stroke-linecap:square;stroke-linejoin:round;stroke:rgb(69.01961%,69.01961%,69.01961%);stroke-opacity:1;stroke-miterlimit:4;" d="M 85.335938 145.798828 L 85.335938 7.201172 " transform="matrix(1.333333,0,0,1.333333,0,0.000000000000014211)"/>
</g>
<path style="fill:none;stroke-width:0.8;stroke-linecap:butt;stroke-linejoin:round;stroke:rgb(0%,0%,0%);stroke-opacity:1;stroke-miterlimit:4;" d="M 0.00134277 -0.00117493 L 0.00134277 3.499802 " transform="matrix(1.333333,0,0,1.333333,113.77946,194.400004)"/>
<path style=" stroke:none;fill-rule:nonzero;fill:rgb(0%,0%,0%);fill-opacity:1;" d="M 107.414062 205.011719 C 106.738281 205.011719 106.230469 205.34375 105.886719 206.011719 C 105.546875 206.675781 105.378906 207.675781 105.378906 209.015625 C 105.378906 210.347656 105.546875 211.347656 105.886719 212.011719 C 106.230469 212.679688 106.738281 213.011719 107.414062 213.011719 C 108.097656 213.011719 108.609375 212.679688 108.949219 212.011719 C 109.289062 211.347656 109.460938 210.347656 109.460938 209.015625 C 109.460938 207.675781 109.289062 206.675781 108.949219 206.011719 C 108.609375 205.34375 108.097656 205.011719 107.414062 205.011719 Z M 107.414062 203.96875 C 108.503906 203.96875 109.335938 204.398438 109.914062 205.261719 C 110.488281 206.125 110.773438 207.375 110.773438 209.015625 C 110.773438 210.652344 110.488281 211.898438 109.914062 212.761719 C 109.335938 213.625 108.503906 214.054688 107.414062 214.054688 C 106.324219 214.054688 105.492188 213.625 104.917969 212.761719 C 104.34375 211.898438 104.054688 210.652344 104.054688 209.015625 C 104.054688 207.375 104.34375 206.125 104.917969 205.261719 C 105.492188 204.398438 106.324219 203.96875 107.414062 203.96875 Z M 107.414062 203.96875 "/>
<path style=" stroke:none;fill-rule:nonzero;fill:rgb(0%,0%,0%);fill-opacity:1;" d="M 113.085938 212.210938 L 114.460938 212.210938 L 114.460938 213.863281 L 113.085938 213.863281 Z M 113.085938 212.210938 "/>
<path style=" stroke:none;fill-rule:nonzero;fill:rgb(0%,0%,0%);fill-opacity:1;" d="M 120.300781 208.480469 C 119.710938 208.480469 119.242188 208.683594 118.898438 209.085938 C 118.550781 209.492188 118.378906 210.042969 118.378906 210.746094 C 118.378906 211.445312 118.550781 211.996094 118.898438 212.402344 C 119.242188 212.808594 119.710938 213.011719 120.300781 213.011719 C 120.890625 213.011719 121.359375 212.808594 121.703125 212.402344 C 122.046875 211.996094 122.21875 211.445312 122.21875 210.746094 C 122.21875 210.042969 122.046875 209.492188 121.703125 209.085938 C 121.359375 208.683594 120.890625 208.480469 120.300781 208.480469 Z M 122.910156 204.359375 L 122.910156 205.554688 C 122.582031 205.402344 122.246094 205.28125 121.910156 205.199219 C 121.574219 205.117188 121.242188 205.074219 120.910156 205.074219 C 120.042969 205.074219 119.378906 205.367188 118.921875 205.953125 C 118.464844 206.539062 118.203125 207.425781 118.136719 208.609375 C 118.394531 208.234375 118.714844 207.941406 119.101562 207.742188 C 119.488281 207.539062 119.914062 207.441406 120.378906 207.441406 C 121.355469 207.441406 122.125 207.734375 122.691406 208.328125 C 123.257812 208.921875 123.542969 209.726562 123.542969 210.746094 C 123.542969 211.746094 123.246094 212.546875 122.65625 213.148438 C 122.066406 213.753906 121.28125 214.054688 120.300781 214.054688 C 119.175781 214.054688 118.316406 213.625 117.722656 212.761719 C 117.128906 211.898438 116.828125 210.652344 116.828125 209.015625 C 116.828125 207.476562 117.195312 206.253906 117.921875 205.339844 C 118.652344 204.425781 119.632812 203.96875 120.859375 203.96875 C 121.191406 203.96875 121.523438 204 121.859375 204.066406 C 122.195312 204.132812 122.546875 204.230469 122.910156 204.359375 Z M 122.910156 204.359375 "/>
<g clip-path="url(#clip2)" clip-rule="nonzero">
<path style="fill:none;stroke-width:0.8;stroke-linecap:square;stroke-linejoin:round;stroke:rgb(69.01961%,69.01961%,69.01961%);stroke-opacity:1;stroke-miterlimit:4;" d="M 121.201172 145.798828 L 121.201172 7.201172 " transform="matrix(1.333333,0,0,1.333333,0,0.000000000000014211)"/>
</g>
<path style="fill:none;stroke-width:0.8;stroke-linecap:butt;stroke-linejoin:round;stroke:rgb(0%,0%,0%);stroke-opacity:1;stroke-miterlimit:4;" d="M -0.00119019 -0.00117493 L -0.00119019 3.499802 " transform="matrix(1.333333,0,0,1.333333,161.603149,194.400004)"/>
<path style=" stroke:none;fill-rule:nonzero;fill:rgb(0%,0%,0%);fill-opacity:1;" d="M 155.238281 205.011719 C 154.5625 205.011719 154.054688 205.34375 153.710938 206.011719 C 153.371094 206.675781 153.199219 207.675781 153.199219 209.015625 C 153.199219 210.347656 153.371094 211.347656 153.710938 212.011719 C 154.054688 212.679688 154.5625 213.011719 155.238281 213.011719 C 155.921875 213.011719 156.429688 212.679688 156.773438 212.011719 C 157.113281 211.347656 157.285156 210.347656 157.285156 209.015625 C 157.285156 207.675781 157.113281 206.675781 156.773438 206.011719 C 156.429688 205.34375 155.921875 205.011719 155.238281 205.011719 Z M 155.238281 203.96875 C 156.328125 203.96875 157.160156 204.398438 157.738281 205.261719 C 158.3125 206.125 158.597656 207.375 158.597656 209.015625 C 158.597656 210.652344 158.3125 211.898438 157.738281 212.761719 C 157.160156 213.625 156.328125 214.054688 155.238281 214.054688 C 154.148438 214.054688 153.316406 213.625 152.742188 212.761719 C 152.167969 211.898438 151.878906 210.652344 151.878906 209.015625 C 151.878906 207.375 152.167969 206.125 152.742188 205.261719 C 153.316406 204.398438 154.148438 203.96875 155.238281 203.96875 Z M 155.238281 203.96875 "/>
<path style=" stroke:none;fill-rule:nonzero;fill:rgb(0%,0%,0%);fill-opacity:1;" d="M 160.910156 212.210938 L 162.285156 212.210938 L 162.285156 213.863281 L 160.910156 213.863281 Z M 160.910156 212.210938 "/>
<path style=" stroke:none;fill-rule:nonzero;fill:rgb(0%,0%,0%);fill-opacity:1;" d="M 167.960938 209.246094 C 167.335938 209.246094 166.84375 209.414062 166.484375 209.75 C 166.128906 210.085938 165.949219 210.542969 165.949219 211.128906 C 165.949219 211.714844 166.128906 212.175781 166.484375 212.511719 C 166.84375 212.84375 167.335938 213.011719 167.960938 213.011719 C 168.585938 213.011719 169.078125 212.84375 169.4375 212.507812 C 169.796875 212.171875 169.980469 211.710938 169.980469 211.128906 C 169.980469 210.542969 169.800781 210.085938 169.441406 209.75 C 169.085938 209.414062 168.589844 209.246094 167.960938 209.246094 Z M 166.644531 208.691406 C 166.082031 208.550781 165.640625 208.289062 165.328125 207.902344 C 165.011719 207.515625 164.855469 207.042969 164.855469 206.488281 C 164.855469 205.710938 165.132812 205.097656 165.683594 204.644531 C 166.238281 204.195312 166.996094 203.96875 167.960938 203.96875 C 168.929688 203.96875 169.6875 204.195312 170.238281 204.644531 C 170.789062 205.097656 171.066406 205.710938 171.066406 206.488281 C 171.066406 207.042969 170.910156 207.515625 170.59375 207.902344 C 170.28125 208.289062 169.84375 208.550781 169.28125 208.691406 C 169.917969 208.835938 170.410156 209.125 170.761719 209.554688 C 171.117188 209.984375 171.292969 210.507812 171.292969 211.128906 C 171.292969 212.070312 171.003906 212.796875 170.429688 213.300781 C 169.855469 213.804688 169.03125 214.054688 167.960938 214.054688 C 166.890625 214.054688 166.066406 213.804688 165.488281 213.300781 C 164.914062 212.796875 164.625 212.070312 164.625 211.128906 C 164.625 210.507812 164.804688 209.984375 165.160156 209.554688 C 165.515625 209.125 166.011719 208.835938 166.644531 208.691406 Z M 166.164062 206.613281 C 166.164062 207.117188 166.320312 207.507812 166.636719 207.789062 C 166.949219 208.070312 167.390625 208.210938 167.960938 208.210938 C 168.523438 208.210938 168.96875 208.070312 169.285156 207.789062 C 169.605469 207.507812 169.765625 207.117188 169.765625 206.613281 C 169.765625 206.109375 169.605469 205.714844 169.285156 205.433594 C 168.96875 205.152344 168.523438 205.011719 167.960938 205.011719 C 167.390625 205.011719 166.949219 205.152344 166.636719 205.433594 C 166.320312 205.714844 166.164062 206.109375 166.164062 206.613281 Z M 166.164062 206.613281 "/>
<g clip-path="url(#clip3)" clip-rule="nonzero">
<path style="fill:none;stroke-width:0.8;stroke-linecap:square;stroke-linejoin:round;stroke:rgb(69.01961%,69.01961%,69.01961%);stroke-opacity:1;stroke-miterlimit:4;" d="M 157.069336 145.798828 L 157.069336 7.201172 " transform="matrix(1.333333,0,0,1.333333,0,0.000000000000014211)"/>
</g>
<path style="fill:none;stroke-width:0.8;stroke-linecap:butt;stroke-linejoin:round;stroke:rgb(0%,0%,0%);stroke-opacity:1;stroke-miterlimit:4;" d="M -0.000793457 -0.00117493 L -0.000793457 3.499802 " transform="matrix(1.333333,0,0,1.333333,209.426839,194.400004)"/>
<path style=" stroke:none;fill-rule:nonzero;fill:rgb(0%,0%,0%);fill-opacity:1;" d="M 200.480469 212.757812 L 202.625 212.757812 L 202.625 205.339844 L 200.289062 205.808594 L 200.289062 204.613281 L 202.613281 204.144531 L 203.929688 204.144531 L 203.929688 212.757812 L 206.078125 212.757812 L 206.078125 213.863281 L 200.480469 213.863281 Z M 200.480469 212.757812 "/>
<path style=" stroke:none;fill-rule:nonzero;fill:rgb(0%,0%,0%);fill-opacity:1;" d="M 208.734375 212.210938 L 210.109375 212.210938 L 210.109375 213.863281 L 208.734375 213.863281 Z M 208.734375 212.210938 "/>
<path style=" stroke:none;fill-rule:nonzero;fill:rgb(0%,0%,0%);fill-opacity:1;" d="M 215.785156 205.011719 C 215.105469 205.011719 214.597656 205.34375 214.257812 206.011719 C 213.917969 206.675781 213.746094 207.675781 213.746094 209.015625 C 213.746094 210.347656 213.917969 211.347656 214.257812 212.011719 C 214.597656 212.679688 215.105469 213.011719 215.785156 213.011719 C 216.464844 213.011719 216.976562 212.679688 217.316406 212.011719 C 217.660156 211.347656 217.828125 210.347656 217.828125 209.015625 C 217.828125 207.675781 217.660156 206.675781 217.316406 206.011719 C 216.976562 205.34375 216.464844 205.011719 215.785156 205.011719 Z M 215.785156 203.96875 C 216.875 203.96875 217.707031 204.398438 218.28125 205.261719 C 218.855469 206.125 219.144531 207.375 219.144531 209.015625 C 219.144531 210.652344 218.855469 211.898438 218.28125 212.761719 C 217.707031 213.625 216.875 214.054688 215.785156 214.054688 C 214.695312 214.054688 213.863281 213.625 213.289062 212.761719 C 212.710938 211.898438 212.425781 210.652344 212.425781 209.015625 C 212.425781 207.375 212.710938 206.125 213.289062 205.261719 C 213.863281 204.398438 214.695312 203.96875 215.785156 203.96875 Z M 215.785156 203.96875 "/>
<g clip-path="url(#clip4)" clip-rule="nonzero">
<path style="fill:none;stroke-width:0.8;stroke-linecap:square;stroke-linejoin:round;stroke:rgb(69.01961%,69.01961%,69.01961%);stroke-opacity:1;stroke-miterlimit:4;" d="M 192.9375 145.798828 L 192.9375 7.201172 " transform="matrix(1.333333,0,0,1.333333,0,0.000000000000014211)"/>
</g>
<path style="fill:none;stroke-width:0.8;stroke-linecap:butt;stroke-linejoin:round;stroke:rgb(0%,0%,0%);stroke-opacity:1;stroke-miterlimit:4;" d="M -0.000396729 -0.00117493 L -0.000396729 3.499802 " transform="matrix(1.333333,0,0,1.333333,257.250529,194.400004)"/>
<path style=" stroke:none;fill-rule:nonzero;fill:rgb(0%,0%,0%);fill-opacity:1;" d="M 248.300781 212.757812 L 250.449219 212.757812 L 250.449219 205.339844 L 248.113281 205.808594 L 248.113281 204.613281 L 250.4375 204.144531 L 251.753906 204.144531 L 251.753906 212.757812 L 253.902344 212.757812 L 253.902344 213.863281 L 248.300781 213.863281 Z M 248.300781 212.757812 "/>
<path style=" stroke:none;fill-rule:nonzero;fill:rgb(0%,0%,0%);fill-opacity:1;" d="M 256.554688 212.210938 L 257.929688 212.210938 L 257.929688 213.863281 L 256.554688 213.863281 Z M 256.554688 212.210938 "/>
<path style=" stroke:none;fill-rule:nonzero;fill:rgb(0%,0%,0%);fill-opacity:1;" d="M 261.929688 212.757812 L 266.519531 212.757812 L 266.519531 213.863281 L 260.347656 213.863281 L 260.347656 212.757812 C 260.84375 212.242188 261.523438 211.546875 262.386719 210.679688 C 263.25 209.808594 263.789062 209.246094 264.011719 208.992188 C 264.433594 208.523438 264.726562 208.121094 264.894531 207.792969 C 265.0625 207.464844 265.144531 207.144531 265.144531 206.828125 C 265.144531 206.308594 264.964844 205.890625 264.601562 205.566406 C 264.238281 205.238281 263.765625 205.074219 263.183594 205.074219 C 262.773438 205.074219 262.335938 205.148438 261.878906 205.289062 C 261.421875 205.433594 260.933594 205.648438 260.410156 205.941406 L 260.410156 204.613281 C 260.941406 204.398438 261.433594 204.238281 261.894531 204.132812 C 262.355469 204.023438 262.777344 203.96875 263.160156 203.96875 C 264.167969 203.96875 264.96875 204.222656 265.566406 204.726562 C 266.167969 205.226562 266.464844 205.898438 266.464844 206.742188 C 266.464844 207.140625 266.390625 207.519531 266.242188 207.878906 C 266.09375 208.234375 265.820312 208.65625 265.425781 209.144531 C 265.316406 209.269531 264.96875 209.632812 264.386719 210.234375 C 263.808594 210.835938 262.988281 211.679688 261.929688 212.757812 Z M 261.929688 212.757812 "/>
<g clip-path="url(#clip5)" clip-rule="nonzero">
<path style="fill:none;stroke-width:0.8;stroke-linecap:square;stroke-linejoin:round;stroke:rgb(69.01961%,69.01961%,69.01961%);stroke-opacity:1;stroke-miterlimit:4;" d="M 228.805664 145.798828 L 228.805664 7.201172 " transform="matrix(1.333333,0,0,1.333333,0,0.000000000000014211)"/>
</g>
<path style="fill:none;stroke-width:0.8;stroke-linecap:butt;stroke-linejoin:round;stroke:rgb(0%,0%,0%);stroke-opacity:1;stroke-miterlimit:4;" d="M 0 -0.00117493 L 0 3.499802 " transform="matrix(1.333333,0,0,1.333333,305.074219,194.400004)"/>
<path style=" stroke:none;fill-rule:nonzero;fill:rgb(0%,0%,0%);fill-opacity:1;" d="M 296.125 212.757812 L 298.273438 212.757812 L 298.273438 205.339844 L 295.9375 205.808594 L 295.9375 204.613281 L 298.261719 204.144531 L 299.578125 204.144531 L 299.578125 212.757812 L 301.722656 212.757812 L 301.722656 213.863281 L 296.125 213.863281 Z M 296.125 212.757812 "/>
<path style=" stroke:none;fill-rule:nonzero;fill:rgb(0%,0%,0%);fill-opacity:1;" d="M 304.378906 212.210938 L 305.753906 212.210938 L 305.753906 213.863281 L 304.378906 213.863281 Z M 304.378906 212.210938 "/>
<path style=" stroke:none;fill-rule:nonzero;fill:rgb(0%,0%,0%);fill-opacity:1;" d="M 312.234375 205.289062 L 308.914062 210.480469 L 312.234375 210.480469 Z M 311.886719 204.144531 L 313.542969 204.144531 L 313.542969 210.480469 L 314.929688 210.480469 L 314.929688 211.574219 L 313.542969 211.574219 L 313.542969 213.863281 L 312.234375 213.863281 L 312.234375 211.574219 L 307.84375 211.574219 L 307.84375 210.304688 Z M 311.886719 204.144531 "/>
<path style=" stroke:none;fill-rule:nonzero;fill:rgb(0%,0%,0%);fill-opacity:1;" d="M 211.605469 224.808594 L 208.964844 228.359375 L 211.738281 232.101562 L 210.328125 232.101562 L 208.203125 229.238281 L 206.082031 232.101562 L 204.667969 232.101562 L 207.503906 228.289062 L 204.910156 224.808594 L 206.324219 224.808594 L 208.257812 227.410156 L 210.191406 224.808594 Z M 211.605469 224.808594 "/>
<g clip-path="url(#clip6)" clip-rule="nonzero">
<path style="fill:none;stroke-width:0.8;stroke-linecap:square;stroke-linejoin:round;stroke:rgb(69.01961%,69.01961%,69.01961%);stroke-opacity:1;stroke-miterlimit:4;" d="M 58.523438 143.859375 L 253.822266 143.859375 " transform="matrix(1.333333,0,0,1.333333,0,0.000000000000014211)"/>
</g>
<path style="fill:none;stroke-width:0.8;stroke-linecap:butt;stroke-linejoin:round;stroke:rgb(0%,0%,0%);stroke-opacity:1;stroke-miterlimit:4;" d="M 0 0.0000152588 L -3.500977 0.0000152588 " transform="matrix(1.333333,0,0,1.333333,78.03125,191.81248)"/>
<path style=" stroke:none;fill-rule:nonzero;fill:rgb(0%,0%,0%);fill-opacity:1;" d="M 29.25 192.144531 L 37.597656 192.144531 L 37.597656 193.25 L 29.25 193.25 Z M 29.25 192.144531 "/>
<path style=" stroke:none;fill-rule:nonzero;fill:rgb(0%,0%,0%);fill-opacity:1;" d="M 40.664062 195.773438 L 42.8125 195.773438 L 42.8125 188.355469 L 40.472656 188.824219 L 40.472656 187.625 L 42.800781 187.15625 L 44.113281 187.15625 L 44.113281 195.773438 L 46.261719 195.773438 L 46.261719 196.878906 L 40.664062 196.878906 Z M 40.664062 195.773438 "/>
<path style=" stroke:none;fill-rule:nonzero;fill:rgb(0%,0%,0%);fill-opacity:1;" d="M 48.917969 195.222656 L 50.292969 195.222656 L 50.292969 196.878906 L 48.917969 196.878906 Z M 48.917969 195.222656 "/>
<path style=" stroke:none;fill-rule:nonzero;fill:rgb(0%,0%,0%);fill-opacity:1;" d="M 54.289062 195.773438 L 58.878906 195.773438 L 58.878906 196.878906 L 52.707031 196.878906 L 52.707031 195.773438 C 53.207031 195.253906 53.886719 194.5625 54.746094 193.691406 C 55.609375 192.820312 56.152344 192.261719 56.371094 192.007812 C 56.792969 191.535156 57.085938 191.136719 57.253906 190.808594 C 57.421875 190.480469 57.503906 190.15625 57.503906 189.839844 C 57.503906 189.324219 57.324219 188.902344 56.960938 188.578125 C 56.597656 188.25 56.128906 188.089844 55.546875 188.089844 C 55.132812 188.089844 54.699219 188.160156 54.238281 188.304688 C 53.78125 188.445312 53.292969 188.664062 52.773438 188.957031 L 52.773438 187.625 C 53.300781 187.414062 53.796875 187.253906 54.253906 187.144531 C 54.71875 187.035156 55.136719 186.980469 55.519531 186.980469 C 56.527344 186.980469 57.328125 187.234375 57.929688 187.738281 C 58.527344 188.242188 58.828125 188.914062 58.828125 189.753906 C 58.828125 190.15625 58.75 190.535156 58.601562 190.894531 C 58.453125 191.25 58.179688 191.671875 57.785156 192.15625 C 57.675781 192.285156 57.332031 192.648438 56.75 193.25 C 56.167969 193.851562 55.347656 194.691406 54.289062 195.773438 Z M 54.289062 195.773438 "/>
<path style=" stroke:none;fill-rule:nonzero;fill:rgb(0%,0%,0%);fill-opacity:1;" d="M 61.652344 187.15625 L 66.816406 187.15625 L 66.816406 188.265625 L 62.859375 188.265625 L 62.859375 190.648438 C 63.046875 190.582031 63.238281 190.53125 63.429688 190.5 C 63.621094 190.46875 63.8125 190.453125 64.003906 190.453125 C 65.089844 190.453125 65.945312 190.75 66.582031 191.34375 C 67.214844 191.9375 67.53125 192.742188 67.53125 193.757812 C 67.53125 194.804688 67.207031 195.617188 66.554688 196.199219 C 65.902344 196.777344 64.984375 197.066406 63.800781 197.066406 C 63.394531 197.066406 62.976562 197.03125 62.554688 196.964844 C 62.132812 196.894531 61.695312 196.789062 61.242188 196.652344 L 61.242188 195.328125 C 61.632812 195.539062 62.035156 195.699219 62.453125 195.804688 C 62.871094 195.90625 63.308594 195.960938 63.773438 195.960938 C 64.527344 195.960938 65.121094 195.761719 65.558594 195.367188 C 65.996094 194.972656 66.214844 194.4375 66.214844 193.757812 C 66.214844 193.082031 65.996094 192.546875 65.558594 192.152344 C 65.121094 191.757812 64.527344 191.558594 63.773438 191.558594 C 63.421875 191.558594 63.070312 191.597656 62.722656 191.675781 C 62.375 191.753906 62.015625 191.875 61.652344 192.039062 Z M 61.652344 187.15625 "/>
<g clip-path="url(#clip7)" clip-rule="nonzero">
<path style="fill:none;stroke-width:0.8;stroke-linecap:square;stroke-linejoin:round;stroke:rgb(69.01961%,69.01961%,69.01961%);stroke-opacity:1;stroke-miterlimit:4;" d="M 58.523438 117.788086 L 253.822266 117.788086 " transform="matrix(1.333333,0,0,1.333333,0,0.000000000000014211)"/>
</g>
<path style="fill:none;stroke-width:0.8;stroke-linecap:butt;stroke-linejoin:round;stroke:rgb(0%,0%,0%);stroke-opacity:1;stroke-miterlimit:4;" d="M 0 0.000602722 L -3.500977 0.000602722 " transform="matrix(1.333333,0,0,1.333333,78.03125,157.049978)"/>
<path style=" stroke:none;fill-rule:nonzero;fill:rgb(0%,0%,0%);fill-opacity:1;" d="M 29.25 157.382812 L 37.597656 157.382812 L 37.597656 158.488281 L 29.25 158.488281 Z M 29.25 157.382812 "/>
<path style=" stroke:none;fill-rule:nonzero;fill:rgb(0%,0%,0%);fill-opacity:1;" d="M 40.664062 161.007812 L 42.8125 161.007812 L 42.8125 153.59375 L 40.472656 154.0625 L 40.472656 152.863281 L 42.800781 152.394531 L 44.113281 152.394531 L 44.113281 161.007812 L 46.261719 161.007812 L 46.261719 162.117188 L 40.664062 162.117188 Z M 40.664062 161.007812 "/>
<path style=" stroke:none;fill-rule:nonzero;fill:rgb(0%,0%,0%);fill-opacity:1;" d="M 48.917969 160.460938 L 50.292969 160.460938 L 50.292969 162.117188 L 48.917969 162.117188 Z M 48.917969 160.460938 "/>
<path style=" stroke:none;fill-rule:nonzero;fill:rgb(0%,0%,0%);fill-opacity:1;" d="M 55.96875 153.261719 C 55.292969 153.261719 54.78125 153.59375 54.441406 154.261719 C 54.101562 154.925781 53.929688 155.929688 53.929688 157.265625 C 53.929688 158.597656 54.101562 159.597656 54.441406 160.261719 C 54.78125 160.929688 55.292969 161.261719 55.96875 161.261719 C 56.648438 161.261719 57.160156 160.929688 57.5 160.261719 C 57.84375 159.597656 58.015625 158.597656 58.015625 157.265625 C 58.015625 155.929688 57.84375 154.925781 57.5 154.261719 C 57.160156 153.59375 56.648438 153.261719 55.96875 153.261719 Z M 55.96875 152.21875 C 57.058594 152.21875 57.890625 152.652344 58.464844 153.511719 C 59.042969 154.375 59.328125 155.625 59.328125 157.265625 C 59.328125 158.902344 59.042969 160.152344 58.464844 161.011719 C 57.890625 161.875 57.058594 162.304688 55.96875 162.304688 C 54.878906 162.304688 54.046875 161.875 53.472656 161.011719 C 52.898438 160.152344 52.609375 158.902344 52.609375 157.265625 C 52.609375 155.625 52.898438 154.375 53.472656 153.511719 C 54.046875 152.652344 54.878906 152.21875 55.96875 152.21875 Z M 55.96875 152.21875 "/>
<path style=" stroke:none;fill-rule:nonzero;fill:rgb(0%,0%,0%);fill-opacity:1;" d="M 64.453125 153.261719 C 63.773438 153.261719 63.265625 153.59375 62.925781 154.261719 C 62.582031 154.925781 62.414062 155.929688 62.414062 157.265625 C 62.414062 158.597656 62.582031 159.597656 62.925781 160.261719 C 63.265625 160.929688 63.773438 161.261719 64.453125 161.261719 C 65.132812 161.261719 65.644531 160.929688 65.984375 160.261719 C 66.328125 159.597656 66.496094 158.597656 66.496094 157.265625 C 66.496094 155.929688 66.328125 154.925781 65.984375 154.261719 C 65.644531 153.59375 65.132812 153.261719 64.453125 153.261719 Z M 64.453125 152.21875 C 65.542969 152.21875 66.375 152.652344 66.949219 153.511719 C 67.523438 154.375 67.8125 155.625 67.8125 157.265625 C 67.8125 158.902344 67.523438 160.152344 66.949219 161.011719 C 66.375 161.875 65.542969 162.304688 64.453125 162.304688 C 63.363281 162.304688 62.53125 161.875 61.957031 161.011719 C 61.378906 160.152344 61.09375 158.902344 61.09375 157.265625 C 61.09375 155.625 61.378906 154.375 61.957031 153.511719 C 62.53125 152.652344 63.363281 152.21875 64.453125 152.21875 Z M 64.453125 152.21875 "/>
<g clip-path="url(#clip8)" clip-rule="nonzero">
<path style="fill:none;stroke-width:0.8;stroke-linecap:square;stroke-linejoin:round;stroke:rgb(69.01961%,69.01961%,69.01961%);stroke-opacity:1;stroke-miterlimit:4;" d="M 58.523438 91.716797 L 253.822266 91.716797 " transform="matrix(1.333333,0,0,1.333333,0,0.000000000000014211)"/>
</g>
<path style="fill:none;stroke-width:0.8;stroke-linecap:butt;stroke-linejoin:round;stroke:rgb(0%,0%,0%);stroke-opacity:1;stroke-miterlimit:4;" d="M 0 0.00118256 L -3.500977 0.00118256 " transform="matrix(1.333333,0,0,1.333333,78.03125,122.287486)"/>
<path style=" stroke:none;fill-rule:nonzero;fill:rgb(0%,0%,0%);fill-opacity:1;" d="M 29.25 122.621094 L 37.597656 122.621094 L 37.597656 123.726562 L 29.25 123.726562 Z M 29.25 122.621094 "/>
<path style=" stroke:none;fill-rule:nonzero;fill:rgb(0%,0%,0%);fill-opacity:1;" d="M 43.246094 118.5 C 42.570312 118.5 42.0625 118.832031 41.71875 119.5 C 41.378906 120.164062 41.210938 121.164062 41.210938 122.503906 C 41.210938 123.835938 41.378906 124.835938 41.71875 125.5 C 42.0625 126.167969 42.570312 126.5 43.246094 126.5 C 43.929688 126.5 44.441406 126.167969 44.78125 125.5 C 45.121094 124.835938 45.292969 123.835938 45.292969 122.503906 C 45.292969 121.164062 45.121094 120.164062 44.78125 119.5 C 44.441406 118.832031 43.929688 118.5 43.246094 118.5 Z M 43.246094 117.457031 C 44.335938 117.457031 45.167969 117.886719 45.746094 118.75 C 46.320312 119.613281 46.605469 120.863281 46.605469 122.503906 C 46.605469 124.140625 46.320312 125.386719 45.746094 126.25 C 45.167969 127.113281 44.335938 127.542969 43.246094 127.542969 C 42.15625 127.542969 41.324219 127.113281 40.75 126.25 C 40.175781 125.386719 39.886719 124.140625 39.886719 122.503906 C 39.886719 120.863281 40.175781 119.613281 40.75 118.75 C 41.324219 117.886719 42.15625 117.457031 43.246094 117.457031 Z M 43.246094 117.457031 "/>
<path style=" stroke:none;fill-rule:nonzero;fill:rgb(0%,0%,0%);fill-opacity:1;" d="M 48.917969 125.699219 L 50.292969 125.699219 L 50.292969 127.351562 L 48.917969 127.351562 Z M 48.917969 125.699219 "/>
<path style=" stroke:none;fill-rule:nonzero;fill:rgb(0%,0%,0%);fill-opacity:1;" d="M 52.824219 117.632812 L 59.074219 117.632812 L 59.074219 118.191406 L 55.546875 127.351562 L 54.171875 127.351562 L 57.492188 118.742188 L 52.824219 118.742188 Z M 52.824219 117.632812 "/>
<path style=" stroke:none;fill-rule:nonzero;fill:rgb(0%,0%,0%);fill-opacity:1;" d="M 61.652344 117.632812 L 66.816406 117.632812 L 66.816406 118.742188 L 62.859375 118.742188 L 62.859375 121.121094 C 63.046875 121.054688 63.238281 121.007812 63.429688 120.976562 C 63.621094 120.945312 63.8125 120.929688 64.003906 120.929688 C 65.089844 120.929688 65.945312 121.226562 66.582031 121.820312 C 67.214844 122.414062 67.53125 123.21875 67.53125 124.234375 C 67.53125 125.28125 67.207031 126.09375 66.554688 126.675781 C 65.902344 127.253906 64.984375 127.542969 63.800781 127.542969 C 63.394531 127.542969 62.976562 127.507812 62.554688 127.4375 C 62.132812 127.367188 61.695312 127.265625 61.242188 127.125 L 61.242188 125.804688 C 61.632812 126.015625 62.035156 126.175781 62.453125 126.277344 C 62.871094 126.382812 63.308594 126.433594 63.773438 126.433594 C 64.527344 126.433594 65.121094 126.238281 65.558594 125.84375 C 65.996094 125.449219 66.214844 124.914062 66.214844 124.234375 C 66.214844 123.558594 65.996094 123.023438 65.558594 122.628906 C 65.121094 122.230469 64.527344 122.035156 63.773438 122.035156 C 63.421875 122.035156 63.070312 122.074219 62.722656 122.152344 C 62.375 122.230469 62.015625 122.351562 61.652344 122.515625 Z M 61.652344 117.632812 "/>
<g clip-path="url(#clip9)" clip-rule="nonzero">
<path style="fill:none;stroke-width:0.8;stroke-linecap:square;stroke-linejoin:round;stroke:rgb(69.01961%,69.01961%,69.01961%);stroke-opacity:1;stroke-miterlimit:4;" d="M 58.523438 65.642578 L 253.822266 65.642578 " transform="matrix(1.333333,0,0,1.333333,0,0.000000000000014211)"/>
</g>
<path style="fill:none;stroke-width:0.8;stroke-linecap:butt;stroke-linejoin:round;stroke:rgb(0%,0%,0%);stroke-opacity:1;stroke-miterlimit:4;" d="M 0 -0.0011673 L -3.500977 -0.0011673 " transform="matrix(1.333333,0,0,1.333333,78.03125,87.524994)"/>
<path style=" stroke:none;fill-rule:nonzero;fill:rgb(0%,0%,0%);fill-opacity:1;" d="M 29.25 87.855469 L 37.597656 87.855469 L 37.597656 88.964844 L 29.25 88.964844 Z M 29.25 87.855469 "/>
<path style=" stroke:none;fill-rule:nonzero;fill:rgb(0%,0%,0%);fill-opacity:1;" d="M 43.246094 83.738281 C 42.570312 83.738281 42.0625 84.070312 41.71875 84.738281 C 41.378906 85.402344 41.210938 86.402344 41.210938 87.742188 C 41.210938 89.074219 41.378906 90.070312 41.71875 90.738281 C 42.0625 91.40625 42.570312 91.738281 43.246094 91.738281 C 43.929688 91.738281 44.441406 91.40625 44.78125 90.738281 C 45.121094 90.070312 45.292969 89.074219 45.292969 87.742188 C 45.292969 86.402344 45.121094 85.402344 44.78125 84.738281 C 44.441406 84.070312 43.929688 83.738281 43.246094 83.738281 Z M 43.246094 82.695312 C 44.335938 82.695312 45.167969 83.125 45.746094 83.988281 C 46.320312 84.851562 46.605469 86.101562 46.605469 87.742188 C 46.605469 89.375 46.320312 90.625 45.746094 91.488281 C 45.167969 92.351562 44.335938 92.78125 43.246094 92.78125 C 42.15625 92.78125 41.324219 92.351562 40.75 91.488281 C 40.175781 90.625 39.886719 89.375 39.886719 87.742188 C 39.886719 86.101562 40.175781 84.851562 40.75 83.988281 C 41.324219 83.125 42.15625 82.695312 43.246094 82.695312 Z M 43.246094 82.695312 "/>
<path style=" stroke:none;fill-rule:nonzero;fill:rgb(0%,0%,0%);fill-opacity:1;" d="M 48.917969 90.9375 L 50.292969 90.9375 L 50.292969 92.589844 L 48.917969 92.589844 Z M 48.917969 90.9375 "/>
<path style=" stroke:none;fill-rule:nonzero;fill:rgb(0%,0%,0%);fill-opacity:1;" d="M 53.171875 82.871094 L 58.332031 82.871094 L 58.332031 83.976562 L 54.375 83.976562 L 54.375 86.359375 C 54.566406 86.292969 54.753906 86.246094 54.945312 86.214844 C 55.136719 86.179688 55.328125 86.164062 55.519531 86.164062 C 56.605469 86.164062 57.464844 86.460938 58.097656 87.058594 C 58.730469 87.652344 59.050781 88.457031 59.050781 89.472656 C 59.050781 90.519531 58.722656 91.332031 58.074219 91.910156 C 57.421875 92.492188 56.503906 92.78125 55.316406 92.78125 C 54.910156 92.78125 54.492188 92.746094 54.070312 92.675781 C 53.648438 92.605469 53.210938 92.503906 52.761719 92.363281 L 52.761719 91.039062 C 53.148438 91.253906 53.554688 91.410156 53.96875 91.515625 C 54.386719 91.621094 54.828125 91.671875 55.292969 91.671875 C 56.042969 91.671875 56.636719 91.476562 57.074219 91.082031 C 57.511719 90.6875 57.734375 90.148438 57.734375 89.472656 C 57.734375 88.796875 57.511719 88.261719 57.074219 87.867188 C 56.636719 87.46875 56.042969 87.273438 55.292969 87.273438 C 54.941406 87.273438 54.589844 87.3125 54.238281 87.386719 C 53.890625 87.464844 53.535156 87.585938 53.171875 87.753906 Z M 53.171875 82.871094 "/>
<path style=" stroke:none;fill-rule:nonzero;fill:rgb(0%,0%,0%);fill-opacity:1;" d="M 64.453125 83.738281 C 63.773438 83.738281 63.265625 84.070312 62.925781 84.738281 C 62.582031 85.402344 62.414062 86.402344 62.414062 87.742188 C 62.414062 89.074219 62.582031 90.070312 62.925781 90.738281 C 63.265625 91.40625 63.773438 91.738281 64.453125 91.738281 C 65.132812 91.738281 65.644531 91.40625 65.984375 90.738281 C 66.328125 90.070312 66.496094 89.074219 66.496094 87.742188 C 66.496094 86.402344 66.328125 85.402344 65.984375 84.738281 C 65.644531 84.070312 65.132812 83.738281 64.453125 83.738281 Z M 64.453125 82.695312 C 65.542969 82.695312 66.375 83.125 66.949219 83.988281 C 67.523438 84.851562 67.8125 86.101562 67.8125 87.742188 C 67.8125 89.375 67.523438 90.625 66.949219 91.488281 C 66.375 92.351562 65.542969 92.78125 64.453125 92.78125 C 63.363281 92.78125 62.53125 92.351562 61.957031 91.488281 C 61.378906 90.625 61.09375 89.375 61.09375 87.742188 C 61.09375 86.101562 61.378906 84.851562 61.957031 83.988281 C 62.53125 83.125 63.363281 82.695312 64.453125 82.695312 Z M 64.453125 82.695312 "/>
<g clip-path="url(#clip10)" clip-rule="nonzero">
<path style="fill:none;stroke-width:0.8;stroke-linecap:square;stroke-linejoin:round;stroke:rgb(69.01961%,69.01961%,69.01961%);stroke-opacity:1;stroke-miterlimit:4;" d="M 58.523438 39.571289 L 253.822266 39.571289 " transform="matrix(1.333333,0,0,1.333333,0,0.000000000000014211)"/>
</g>
<path style="fill:none;stroke-width:0.8;stroke-linecap:butt;stroke-linejoin:round;stroke:rgb(0%,0%,0%);stroke-opacity:1;stroke-miterlimit:4;" d="M 0 -0.000583649 L -3.500977 -0.000583649 " transform="matrix(1.333333,0,0,1.333333,78.03125,52.762497)"/>
<path style=" stroke:none;fill-rule:nonzero;fill:rgb(0%,0%,0%);fill-opacity:1;" d="M 29.25 53.09375 L 37.597656 53.09375 L 37.597656 54.199219 L 29.25 54.199219 Z M 29.25 53.09375 "/>
<path style=" stroke:none;fill-rule:nonzero;fill:rgb(0%,0%,0%);fill-opacity:1;" d="M 43.246094 48.972656 C 42.570312 48.972656 42.0625 49.308594 41.71875 49.972656 C 41.378906 50.640625 41.210938 51.640625 41.210938 52.976562 C 41.210938 54.308594 41.378906 55.308594 41.71875 55.976562 C 42.0625 56.644531 42.570312 56.976562 43.246094 56.976562 C 43.929688 56.976562 44.441406 56.644531 44.78125 55.976562 C 45.121094 55.308594 45.292969 54.308594 45.292969 52.976562 C 45.292969 51.640625 45.121094 50.640625 44.78125 49.972656 C 44.441406 49.308594 43.929688 48.972656 43.246094 48.972656 Z M 43.246094 47.933594 C 44.335938 47.933594 45.167969 48.363281 45.746094 49.226562 C 46.320312 50.085938 46.605469 51.335938 46.605469 52.976562 C 46.605469 54.613281 46.320312 55.863281 45.746094 56.726562 C 45.167969 57.585938 44.335938 58.019531 43.246094 58.019531 C 42.15625 58.019531 41.324219 57.585938 40.75 56.726562 C 40.175781 55.863281 39.886719 54.613281 39.886719 52.976562 C 39.886719 51.335938 40.175781 50.085938 40.75 49.226562 C 41.324219 48.363281 42.15625 47.933594 43.246094 47.933594 Z M 43.246094 47.933594 "/>
<path style=" stroke:none;fill-rule:nonzero;fill:rgb(0%,0%,0%);fill-opacity:1;" d="M 48.917969 56.175781 L 50.292969 56.175781 L 50.292969 57.828125 L 48.917969 57.828125 Z M 48.917969 56.175781 "/>
<path style=" stroke:none;fill-rule:nonzero;fill:rgb(0%,0%,0%);fill-opacity:1;" d="M 54.289062 56.722656 L 58.878906 56.722656 L 58.878906 57.828125 L 52.707031 57.828125 L 52.707031 56.722656 C 53.207031 56.207031 53.886719 55.511719 54.746094 54.644531 C 55.609375 53.773438 56.152344 53.210938 56.371094 52.957031 C 56.792969 52.484375 57.085938 52.085938 57.253906 51.757812 C 57.421875 51.429688 57.503906 51.105469 57.503906 50.789062 C 57.503906 50.273438 57.324219 49.851562 56.960938 49.527344 C 56.597656 49.203125 56.128906 49.039062 55.546875 49.039062 C 55.132812 49.039062 54.699219 49.109375 54.238281 49.253906 C 53.78125 49.394531 53.292969 49.613281 52.773438 49.90625 L 52.773438 48.574219 C 53.300781 48.363281 53.796875 48.203125 54.253906 48.09375 C 54.71875 47.988281 55.136719 47.933594 55.519531 47.933594 C 56.527344 47.933594 57.328125 48.183594 57.929688 48.6875 C 58.527344 49.191406 58.828125 49.863281 58.828125 50.707031 C 58.828125 51.105469 58.75 51.484375 58.601562 51.84375 C 58.453125 52.199219 58.179688 52.621094 57.785156 53.105469 C 57.675781 53.234375 57.332031 53.597656 56.75 54.199219 C 56.167969 54.800781 55.347656 55.640625 54.289062 56.722656 Z M 54.289062 56.722656 "/>
<path style=" stroke:none;fill-rule:nonzero;fill:rgb(0%,0%,0%);fill-opacity:1;" d="M 61.652344 48.105469 L 66.816406 48.105469 L 66.816406 49.214844 L 62.859375 49.214844 L 62.859375 51.597656 C 63.046875 51.53125 63.238281 51.484375 63.429688 51.449219 C 63.621094 51.417969 63.8125 51.402344 64.003906 51.402344 C 65.089844 51.402344 65.945312 51.699219 66.582031 52.292969 C 67.214844 52.890625 67.53125 53.695312 67.53125 54.710938 C 67.53125 55.753906 67.207031 56.570312 66.554688 57.148438 C 65.902344 57.726562 64.984375 58.019531 63.800781 58.019531 C 63.394531 58.019531 62.976562 57.984375 62.554688 57.914062 C 62.132812 57.84375 61.695312 57.738281 61.242188 57.601562 L 61.242188 56.277344 C 61.632812 56.492188 62.035156 56.648438 62.453125 56.753906 C 62.871094 56.855469 63.308594 56.910156 63.773438 56.910156 C 64.527344 56.910156 65.121094 56.710938 65.558594 56.316406 C 65.996094 55.921875 66.214844 55.386719 66.214844 54.710938 C 66.214844 54.03125 65.996094 53.496094 65.558594 53.101562 C 65.121094 52.707031 64.527344 52.507812 63.773438 52.507812 C 63.421875 52.507812 63.070312 52.546875 62.722656 52.625 C 62.375 52.703125 62.015625 52.824219 61.652344 52.992188 Z M 61.652344 48.105469 "/>
<g clip-path="url(#clip11)" clip-rule="nonzero">
<path style="fill:none;stroke-width:0.8;stroke-linecap:square;stroke-linejoin:round;stroke:rgb(69.01961%,69.01961%,69.01961%);stroke-opacity:1;stroke-miterlimit:4;" d="M 58.523438 13.5 L 253.822266 13.5 " transform="matrix(1.333333,0,0,1.333333,0,0.000000000000014211)"/>
</g>
<path style="fill:none;stroke-width:0.8;stroke-linecap:butt;stroke-linejoin:round;stroke:rgb(0%,0%,0%);stroke-opacity:1;stroke-miterlimit:4;" d="M 0 -0.000000953674 L -3.500977 -0.000000953674 " transform="matrix(1.333333,0,0,1.333333,78.03125,18.000001)"/>
<path style=" stroke:none;fill-rule:nonzero;fill:rgb(0%,0%,0%);fill-opacity:1;" d="M 43.246094 14.210938 C 42.570312 14.210938 42.0625 14.542969 41.722656 15.210938 C 41.378906 15.875 41.210938 16.878906 41.210938 18.214844 C 41.210938 19.546875 41.378906 20.546875 41.722656 21.214844 C 42.0625 21.878906 42.570312 22.214844 43.246094 22.214844 C 43.929688 22.214844 44.441406 21.878906 44.78125 21.214844 C 45.121094 20.546875 45.292969 19.546875 45.292969 18.214844 C 45.292969 16.878906 45.121094 15.875 44.78125 15.210938 C 44.441406 14.542969 43.929688 14.210938 43.246094 14.210938 Z M 43.246094 13.167969 C 44.339844 13.167969 45.171875 13.601562 45.746094 14.464844 C 46.320312 15.324219 46.609375 16.574219 46.609375 18.214844 C 46.609375 19.851562 46.320312 21.101562 45.746094 21.964844 C 45.171875 22.824219 44.339844 23.253906 43.246094 23.253906 C 42.160156 23.253906 41.328125 22.824219 40.753906 21.964844 C 40.175781 21.101562 39.890625 19.851562 39.890625 18.214844 C 39.890625 16.574219 40.175781 15.324219 40.753906 14.464844 C 41.328125 13.601562 42.160156 13.167969 43.246094 13.167969 Z M 43.246094 13.167969 "/>
<path style=" stroke:none;fill-rule:nonzero;fill:rgb(0%,0%,0%);fill-opacity:1;" d="M 48.917969 21.410156 L 50.292969 21.410156 L 50.292969 23.066406 L 48.917969 23.066406 Z M 48.917969 21.410156 "/>
<path style=" stroke:none;fill-rule:nonzero;fill:rgb(0%,0%,0%);fill-opacity:1;" d="M 55.96875 14.210938 C 55.292969 14.210938 54.785156 14.542969 54.441406 15.210938 C 54.101562 15.875 53.933594 16.878906 53.933594 18.214844 C 53.933594 19.546875 54.101562 20.546875 54.441406 21.214844 C 54.785156 21.878906 55.292969 22.214844 55.96875 22.214844 C 56.652344 22.214844 57.164062 21.878906 57.503906 21.214844 C 57.84375 20.546875 58.015625 19.546875 58.015625 18.214844 C 58.015625 16.878906 57.84375 15.875 57.503906 15.210938 C 57.164062 14.542969 56.652344 14.210938 55.96875 14.210938 Z M 55.96875 13.167969 C 57.058594 13.167969 57.890625 13.601562 58.46875 14.464844 C 59.042969 15.324219 59.328125 16.574219 59.328125 18.214844 C 59.328125 19.851562 59.042969 21.101562 58.46875 21.964844 C 57.890625 22.824219 57.058594 23.253906 55.96875 23.253906 C 54.878906 23.253906 54.046875 22.824219 53.472656 21.964844 C 52.898438 21.101562 52.609375 19.851562 52.609375 18.214844 C 52.609375 16.574219 52.898438 15.324219 53.472656 14.464844 C 54.046875 13.601562 54.878906 13.167969 55.96875 13.167969 Z M 55.96875 13.167969 "/>
<path style=" stroke:none;fill-rule:nonzero;fill:rgb(0%,0%,0%);fill-opacity:1;" d="M 64.453125 14.210938 C 63.777344 14.210938 63.265625 14.542969 62.925781 15.210938 C 62.585938 15.875 62.414062 16.878906 62.414062 18.214844 C 62.414062 19.546875 62.585938 20.546875 62.925781 21.214844 C 63.265625 21.878906 63.777344 22.214844 64.453125 22.214844 C 65.132812 22.214844 65.644531 21.878906 65.984375 21.214844 C 66.328125 20.546875 66.5 19.546875 66.5 18.214844 C 66.5 16.878906 66.328125 15.875 65.984375 15.210938 C 65.644531 14.542969 65.132812 14.210938 64.453125 14.210938 Z M 64.453125 13.167969 C 65.542969 13.167969 66.375 13.601562 66.949219 14.464844 C 67.523438 15.324219 67.8125 16.574219 67.8125 18.214844 C 67.8125 19.851562 67.523438 21.101562 66.949219 21.964844 C 66.375 22.824219 65.542969 23.253906 64.453125 23.253906 C 63.363281 23.253906 62.53125 22.824219 61.957031 21.964844 C 61.382812 21.101562 61.09375 19.851562 61.09375 18.214844 C 61.09375 16.574219 61.382812 15.324219 61.957031 14.464844 C 62.53125 13.601562 63.363281 13.167969 64.453125 13.167969 Z M 64.453125 13.167969 "/>
<path style=" stroke:none;fill-rule:nonzero;fill:rgb(0%,0%,0%);fill-opacity:1;" d="M 13.558594 108.445312 C 13.480469 108.578125 13.421875 108.726562 13.386719 108.882812 C 13.351562 109.042969 13.332031 109.21875 13.332031 109.40625 C 13.332031 110.085938 13.550781 110.605469 13.992188 110.96875 C 14.433594 111.332031 15.066406 111.511719 15.890625 111.511719 L 19.730469 111.511719 L 19.730469 112.714844 L 12.441406 112.714844 L 12.441406 111.511719 L 13.574219 111.511719 C 13.128906 111.257812 12.800781 110.929688 12.585938 110.527344 C 12.371094 110.125 12.265625 109.632812 12.265625 109.054688 C 12.265625 108.972656 12.269531 108.882812 12.28125 108.78125 C 12.289062 108.683594 12.308594 108.570312 12.328125 108.449219 Z M 13.558594 108.445312 "/>
<path style=" stroke:none;fill-rule:nonzero;fill:rgb(0%,0%,0%);fill-opacity:1;" d="M 12.441406 107.1875 L 12.441406 105.988281 L 19.730469 105.988281 L 19.730469 107.1875 Z M 9.601562 107.1875 L 9.601562 105.988281 L 11.117188 105.988281 L 11.117188 107.1875 Z M 9.601562 107.1875 "/>
<path style=" stroke:none;fill-rule:nonzero;fill:rgb(0%,0%,0%);fill-opacity:1;" d="M 12.652344 98.835938 L 13.789062 98.835938 C 13.613281 99.171875 13.484375 99.523438 13.398438 99.890625 C 13.308594 100.253906 13.265625 100.632812 13.265625 101.023438 C 13.265625 101.617188 13.359375 102.0625 13.539062 102.359375 C 13.722656 102.65625 13.996094 102.804688 14.359375 102.804688 C 14.636719 102.804688 14.855469 102.699219 15.015625 102.488281 C 15.171875 102.273438 15.324219 101.847656 15.464844 101.203125 L 15.558594 100.792969 C 15.742188 99.945312 15.996094 99.339844 16.328125 98.980469 C 16.660156 98.625 17.125 98.445312 17.71875 98.445312 C 18.398438 98.445312 18.933594 98.710938 19.328125 99.25 C 19.722656 99.785156 19.921875 100.519531 19.921875 101.457031 C 19.921875 101.847656 19.882812 102.253906 19.804688 102.679688 C 19.730469 103.101562 19.617188 103.550781 19.464844 104.015625 L 18.226562 104.015625 C 18.457031 103.574219 18.628906 103.136719 18.746094 102.707031 C 18.859375 102.28125 18.917969 101.855469 18.917969 101.429688 C 18.917969 100.867188 18.820312 100.433594 18.628906 100.132812 C 18.433594 99.828125 18.160156 99.675781 17.808594 99.675781 C 17.484375 99.675781 17.234375 99.785156 17.0625 100.003906 C 16.890625 100.222656 16.722656 100.703125 16.558594 101.445312 L 16.460938 101.863281 C 16.308594 102.605469 16.066406 103.140625 15.742188 103.472656 C 15.421875 103.800781 14.976562 103.964844 14.414062 103.964844 C 13.726562 103.964844 13.195312 103.722656 12.824219 103.234375 C 12.453125 102.75 12.265625 102.058594 12.265625 101.164062 C 12.265625 100.722656 12.296875 100.308594 12.363281 99.917969 C 12.425781 99.523438 12.523438 99.164062 12.652344 98.835938 Z M 12.652344 98.835938 "/>
<path style=" stroke:none;fill-rule:nonzero;fill:rgb(0%,0%,0%);fill-opacity:1;" d="M 9.601562 96.582031 L 9.601562 95.378906 L 15.582031 95.378906 L 12.441406 91.804688 L 12.441406 90.273438 L 15.851562 94.140625 L 19.730469 90.109375 L 19.730469 91.671875 L 16.171875 95.378906 L 19.730469 95.378906 L 19.730469 96.582031 Z M 9.601562 96.582031 "/>
<path style="fill:none;stroke-width:1.5;stroke-linecap:square;stroke-linejoin:round;stroke:rgb(12.156863%,46.666667%,70.588237%);stroke-opacity:1;stroke-miterlimit:4;" d="M 67.400391 13.5 L 69.193359 15.169922 L 70.986328 16.904297 L 72.782227 18.700195 L 74.575195 20.557617 L 76.368164 22.473633 L 78.161133 24.442383 L 79.954102 26.466797 L 81.74707 28.541016 L 83.540039 30.665039 L 85.335938 32.835937 L 87.128906 35.047852 L 88.921875 37.303711 L 90.714844 39.591797 L 92.507812 41.917969 L 94.300781 44.273437 L 96.09375 46.658203 L 97.889648 49.069336 L 99.682617 51.498047 L 101.475586 53.947266 L 103.268555 56.408203 L 105.061523 58.880859 L 106.854492 61.362305 L 108.647461 63.84668 L 110.443359 66.328125 L 112.236328 68.806641 L 114.029297 71.276367 L 115.822266 73.734375 L 117.615234 76.177734 L 119.408203 78.597656 L 121.201172 80.99707 L 122.99707 83.367187 L 124.790039 85.702148 L 126.583008 88.004883 L 128.375977 90.266602 L 130.168945 92.481445 L 131.961914 94.652344 L 133.754883 96.767578 L 135.550781 98.827148 L 137.34375 100.828125 L 139.136719 102.764648 L 140.929688 104.633789 L 142.722656 106.429687 L 144.515625 108.152344 L 146.308594 109.792969 L 148.104492 111.354492 L 149.897461 112.825195 L 151.69043 114.210937 L 153.483398 115.5 L 155.276367 116.692383 L 157.069336 117.788086 L 158.862305 118.77832 L 160.658203 119.663086 L 162.451172 120.439453 L 164.244141 121.104492 L 166.037109 121.652344 L 167.830078 122.085937 L 169.623047 122.399414 L 171.416016 122.592773 L 173.211914 122.660156 L 175.004883 122.601562 L 176.797852 122.414062 L 178.59082 122.100586 L 180.383789 121.652344 L 182.176758 121.072266 L 183.969727 120.360352 L 185.765625 119.510742 L 187.558594 118.523437 L 189.351562 117.401367 L 191.144531 116.141602 L 192.9375 114.744141 L 194.730469 113.208984 L 196.523438 111.533203 L 198.319336 109.719727 L 200.112305 107.768555 L 201.905273 105.676758 L 203.698242 103.450195 L 205.491211 101.088867 L 207.28418 98.589844 L 209.077148 95.956055 L 210.873047 93.1875 L 212.666016 90.290039 L 214.458984 87.260742 L 216.251953 84.105469 L 218.044922 80.824219 L 219.837891 77.416992 L 221.630859 73.889648 L 223.426758 70.242187 L 225.219727 66.480469 L 227.012695 62.604492 L 228.805664 58.617187 L 230.598633 54.524414 L 232.391602 50.329102 L 234.18457 46.03125 L 235.980469 41.639648 L 237.773438 37.154297 L 239.566406 32.583984 L 241.359375 27.925781 L 243.152344 23.191406 L 244.945312 18.380859 " transform="matrix(1.333333,0,0,1.333333,0,0.000000000000014211)"/>
<path style="fill:none;stroke-width:1.5;stroke-linecap:butt;stroke-linejoin:round;stroke:rgb(74.901962%,0%,74.901962%);stroke-opacity:1;stroke-dasharray:5.55,2.4;stroke-miterlimit:4;" d="M 67.400391 13.5 L 69.193359 18.433594 L 70.986328 23.349609 L 72.782227 28.171875 L 74.575195 32.818359 L 76.368164 37.22168 L 78.161133 41.317383 L 79.954102 45.052734 L 81.74707 48.37793 L 83.540039 51.266602 L 85.335938 53.692383 L 87.128906 55.649414 L 88.921875 57.137695 L 90.714844 58.177734 L 92.507812 58.792969 L 94.300781 59.024414 L 96.09375 58.918945 L 97.889648 58.538086 L 99.682617 57.943359 L 101.475586 57.208008 L 103.268555 56.408203 L 105.061523 55.620117 L 106.854492 54.916992 L 108.647461 54.37793 L 110.443359 54.067383 L 112.236328 54.058594 L 114.029297 54.404297 L 115.822266 55.151367 L 117.615234 56.34082 L 119.408203 57.999023 L 121.201172 60.137695 L 122.99707 62.765625 L 124.790039 65.865234 L 126.583008 69.421875 L 128.375977 73.391602 L 130.168945 77.733398 L 131.961914 82.391602 L 133.754883 87.298828 L 135.550781 92.381836 L 137.34375 97.564453 L 139.136719 102.764648 L 140.929688 107.897461 L 142.722656 112.875 L 144.515625 117.621094 L 146.308594 122.053711 L 148.104492 126.102539 L 149.897461 129.700195 L 151.69043 132.793945 L 153.483398 135.336914 L 155.276367 137.293945 L 157.069336 138.644531 L 158.862305 139.379883 L 160.658203 139.5 L 162.451172 139.022461 L 164.244141 137.976562 L 166.037109 136.40332 L 167.830078 134.34668 L 169.623047 131.868164 L 171.416016 129.038086 L 173.211914 125.923828 L 175.004883 122.601562 L 176.797852 119.15332 L 178.59082 115.655273 L 180.383789 112.183594 L 182.176758 108.814453 L 183.969727 105.609375 L 185.765625 102.635742 L 187.558594 99.94043 L 189.351562 97.564453 L 191.144531 95.542969 L 192.9375 93.887695 L 194.730469 92.607422 L 196.523438 91.696289 L 198.319336 91.136719 L 200.112305 90.893555 L 201.905273 90.928711 L 203.698242 91.192383 L 205.491211 91.617187 L 207.28418 92.144531 L 209.077148 92.692383 L 210.873047 93.1875 L 212.666016 93.553711 L 214.458984 93.706055 L 216.251953 93.574219 L 218.044922 93.082031 L 219.837891 92.165039 L 221.630859 90.761719 L 223.426758 88.825195 L 225.219727 86.314453 L 227.012695 83.203125 L 228.805664 79.473633 L 230.598633 75.125977 L 232.391602 70.166016 L 234.18457 64.617187 L 235.980469 58.514648 L 237.773438 51.905273 L 239.566406 44.841797 L 241.359375 37.397461 L 243.152344 29.636719 L 244.945312 21.644531 " transform="matrix(1.333333,0,0,1.333333,0,0.000000000000014211)"/>
<path style="fill:none;stroke-width:0.8;stroke-linecap:square;stroke-linejoin:miter;stroke:rgb(0%,0%,0%);stroke-opacity:1;stroke-miterlimit:4;" d="M 58.523438 145.798828 L 58.523438 7.201172 " transform="matrix(1.333333,0,0,1.333333,0,0.000000000000014211)"/>
<path style="fill:none;stroke-width:0.8;stroke-linecap:square;stroke-linejoin:miter;stroke:rgb(0%,0%,0%);stroke-opacity:1;stroke-miterlimit:4;" d="M 253.822266 145.798828 L 253.822266 7.201172 " transform="matrix(1.333333,0,0,1.333333,0,0.000000000000014211)"/>
<path style="fill:none;stroke-width:0.8;stroke-linecap:square;stroke-linejoin:miter;stroke:rgb(0%,0%,0%);stroke-opacity:1;stroke-miterlimit:4;" d="M 58.523438 145.798828 L 253.822266 145.798828 " transform="matrix(1.333333,0,0,1.333333,0,0.000000000000014211)"/>
<path style="fill:none;stroke-width:0.8;stroke-linecap:square;stroke-linejoin:miter;stroke:rgb(0%,0%,0%);stroke-opacity:1;stroke-miterlimit:4;" d="M 58.523438 7.201172 L 253.822266 7.201172 " transform="matrix(1.333333,0,0,1.333333,0,0.000000000000014211)"/>
<path style="fill:none;stroke-width:1;stroke-linecap:round;stroke-linejoin:round;stroke:rgb(0%,0%,0%);stroke-opacity:1;stroke-miterlimit:4;" d="M 138.679688 132.47168 C 144.175781 134.317383 149.320312 136.042969 154.110352 137.651367 " transform="matrix(1.333333,0,0,1.333333,0,0.000000000000014211)"/>
<path style="fill:none;stroke-width:1;stroke-linecap:round;stroke-linejoin:round;stroke:rgb(0%,0%,0%);stroke-opacity:1;stroke-miterlimit:4;" d="M 150.955078 134.484375 L 154.110352 137.651367 L 149.683594 138.275391 " transform="matrix(1.333333,0,0,1.333333,0,0.000000000000014211)"/>
<path style=" stroke:none;fill-rule:nonzero;fill:rgb(0%,0%,0%);fill-opacity:1;" d="M 96.800781 150.132812 C 97.101562 149.59375 97.460938 149.195312 97.875 148.941406 C 98.292969 148.6875 98.78125 148.558594 99.347656 148.558594 C 100.105469 148.558594 100.691406 148.824219 101.105469 149.355469 C 101.519531 149.886719 101.722656 150.640625 101.722656 151.621094 L 101.722656 156.023438 L 100.519531 156.023438 L 100.519531 151.660156 C 100.519531 150.964844 100.394531 150.445312 100.148438 150.109375 C 99.898438 149.769531 99.523438 149.597656 99.015625 149.597656 C 98.394531 149.597656 97.902344 149.804688 97.542969 150.21875 C 97.183594 150.628906 97.003906 151.191406 97.003906 151.902344 L 97.003906 156.023438 L 95.800781 156.023438 L 95.800781 151.660156 C 95.800781 150.960938 95.675781 150.441406 95.429688 150.105469 C 95.179688 149.769531 94.800781 149.597656 94.28125 149.597656 C 93.667969 149.597656 93.183594 149.804688 92.820312 150.21875 C 92.460938 150.632812 92.28125 151.195312 92.28125 151.902344 L 92.28125 156.023438 L 91.078125 156.023438 L 91.078125 148.734375 L 92.28125 148.734375 L 92.28125 149.867188 C 92.554688 149.417969 92.882812 149.089844 93.265625 148.875 C 93.648438 148.664062 94.101562 148.558594 94.625 148.558594 C 95.15625 148.558594 95.605469 148.691406 95.976562 148.960938 C 96.347656 149.230469 96.625 149.621094 96.800781 150.132812 Z M 96.800781 150.132812 "/>
<path style=" stroke:none;fill-rule:nonzero;fill:rgb(0%,0%,0%);fill-opacity:1;" d="M 104.113281 148.734375 L 105.308594 148.734375 L 105.308594 156.023438 L 104.113281 156.023438 Z M 104.113281 145.894531 L 105.308594 145.894531 L 105.308594 147.410156 L 104.113281 147.410156 Z M 104.113281 145.894531 "/>
<path style=" stroke:none;fill-rule:nonzero;fill:rgb(0%,0%,0%);fill-opacity:1;" d="M 113.878906 151.621094 L 113.878906 156.023438 L 112.679688 156.023438 L 112.679688 151.660156 C 112.679688 150.972656 112.546875 150.457031 112.277344 150.113281 C 112.007812 149.769531 111.605469 149.597656 111.066406 149.597656 C 110.417969 149.597656 109.910156 149.804688 109.535156 150.21875 C 109.160156 150.628906 108.976562 151.191406 108.976562 151.902344 L 108.976562 156.023438 L 107.769531 156.023438 L 107.769531 148.734375 L 108.976562 148.734375 L 108.976562 149.867188 C 109.261719 149.425781 109.601562 149.097656 109.988281 148.882812 C 110.375 148.667969 110.824219 148.558594 111.332031 148.558594 C 112.171875 148.558594 112.804688 148.816406 113.234375 149.335938 C 113.664062 149.851562 113.878906 150.617188 113.878906 151.621094 Z M 113.878906 151.621094 "/>
<path style=" stroke:none;fill-rule:nonzero;fill:rgb(0%,0%,0%);fill-opacity:1;" d="M 123.332031 149.574219 C 122.6875 149.574219 122.179688 149.824219 121.808594 150.324219 C 121.433594 150.824219 121.246094 151.511719 121.246094 152.386719 C 121.246094 153.257812 121.433594 153.945312 121.804688 154.445312 C 122.175781 154.945312 122.683594 155.199219 123.332031 155.199219 C 123.96875 155.199219 124.476562 154.945312 124.847656 154.441406 C 125.21875 153.9375 125.40625 153.253906 125.40625 152.386719 C 125.40625 151.519531 125.21875 150.835938 124.847656 150.332031 C 124.476562 149.824219 123.96875 149.574219 123.332031 149.574219 Z M 123.332031 148.558594 C 124.371094 148.558594 125.191406 148.898438 125.785156 149.574219 C 126.378906 150.25 126.679688 151.1875 126.679688 152.386719 C 126.679688 153.578125 126.378906 154.515625 125.785156 155.195312 C 125.191406 155.875 124.371094 156.214844 123.332031 156.214844 C 122.285156 156.214844 121.464844 155.875 120.871094 155.195312 C 120.28125 154.515625 119.984375 153.578125 119.984375 152.386719 C 119.984375 151.1875 120.28125 150.25 120.871094 149.574219 C 121.464844 148.898438 122.285156 148.558594 123.332031 148.558594 Z M 123.332031 148.558594 "/>
<path style=" stroke:none;fill-rule:nonzero;fill:rgb(0%,0%,0%);fill-opacity:1;" d="M 132.355469 145.894531 L 132.355469 146.890625 L 131.207031 146.890625 C 130.78125 146.890625 130.480469 146.976562 130.3125 147.152344 C 130.144531 147.324219 130.0625 147.636719 130.0625 148.089844 L 130.0625 148.734375 L 132.035156 148.734375 L 132.035156 149.664062 L 130.0625 149.664062 L 130.0625 156.023438 L 128.859375 156.023438 L 128.859375 149.664062 L 127.714844 149.664062 L 127.714844 148.734375 L 128.859375 148.734375 L 128.859375 148.222656 C 128.859375 147.414062 129.046875 146.824219 129.425781 146.453125 C 129.804688 146.078125 130.402344 145.894531 131.222656 145.894531 Z M 132.355469 145.894531 "/>
<path style=" stroke:none;fill-rule:nonzero;fill:rgb(0%,0%,0%);fill-opacity:1;" d="M 97.363281 167.007812 L 97.363281 167.59375 L 91.851562 167.59375 C 91.90625 168.417969 92.15625 169.046875 92.597656 169.480469 C 93.042969 169.910156 93.664062 170.128906 94.457031 170.128906 C 94.917969 170.128906 95.363281 170.070312 95.792969 169.960938 C 96.226562 169.847656 96.65625 169.675781 97.082031 169.449219 L 97.082031 170.585938 C 96.652344 170.765625 96.210938 170.90625 95.757812 171 C 95.308594 171.097656 94.851562 171.144531 94.386719 171.144531 C 93.222656 171.144531 92.300781 170.804688 91.621094 170.128906 C 90.941406 169.453125 90.601562 168.535156 90.601562 167.378906 C 90.601562 166.1875 90.925781 165.242188 91.570312 164.539062 C 92.214844 163.839844 93.082031 163.488281 94.179688 163.488281 C 95.160156 163.488281 95.933594 163.804688 96.503906 164.4375 C 97.074219 165.066406 97.363281 165.925781 97.363281 167.007812 Z M 96.164062 166.65625 C 96.15625 166.003906 95.972656 165.480469 95.613281 165.089844 C 95.253906 164.699219 94.78125 164.503906 94.191406 164.503906 C 93.523438 164.503906 92.988281 164.691406 92.585938 165.070312 C 92.183594 165.449219 91.953125 165.980469 91.894531 166.664062 Z M 96.164062 166.65625 "/>
<path style=" stroke:none;fill-rule:nonzero;fill:rgb(0%,0%,0%);fill-opacity:1;" d="M 105.003906 165.0625 C 105.304688 164.523438 105.664062 164.128906 106.078125 163.871094 C 106.496094 163.617188 106.984375 163.488281 107.550781 163.488281 C 108.308594 163.488281 108.894531 163.753906 109.308594 164.285156 C 109.722656 164.816406 109.925781 165.574219 109.925781 166.554688 L 109.925781 170.953125 L 108.722656 170.953125 L 108.722656 166.59375 C 108.722656 165.894531 108.597656 165.375 108.351562 165.039062 C 108.101562 164.699219 107.726562 164.53125 107.21875 164.53125 C 106.597656 164.53125 106.105469 164.734375 105.746094 165.148438 C 105.386719 165.558594 105.207031 166.121094 105.207031 166.835938 L 105.207031 170.953125 L 104.003906 170.953125 L 104.003906 166.59375 C 104.003906 165.890625 103.878906 165.371094 103.632812 165.035156 C 103.382812 164.699219 103.003906 164.53125 102.484375 164.53125 C 101.871094 164.53125 101.386719 164.738281 101.023438 165.152344 C 100.664062 165.566406 100.484375 166.125 100.484375 166.835938 L 100.484375 170.953125 L 99.28125 170.953125 L 99.28125 163.664062 L 100.484375 163.664062 L 100.484375 164.796875 C 100.757812 164.347656 101.085938 164.019531 101.46875 163.808594 C 101.851562 163.59375 102.304688 163.488281 102.828125 163.488281 C 103.359375 163.488281 103.808594 163.621094 104.179688 163.890625 C 104.550781 164.160156 104.828125 164.550781 105.003906 165.0625 Z M 105.003906 165.0625 "/>
<path style=" stroke:none;fill-rule:nonzero;fill:rgb(0%,0%,0%);fill-opacity:1;" d="M 113.472656 169.859375 L 113.472656 173.726562 L 112.269531 173.726562 L 112.269531 163.664062 L 113.472656 163.664062 L 113.472656 164.769531 C 113.726562 164.335938 114.042969 164.015625 114.429688 163.804688 C 114.8125 163.59375 115.273438 163.488281 115.804688 163.488281 C 116.691406 163.488281 117.410156 163.839844 117.964844 164.542969 C 118.515625 165.246094 118.792969 166.167969 118.792969 167.316406 C 118.792969 168.460938 118.515625 169.386719 117.964844 170.089844 C 117.410156 170.792969 116.691406 171.144531 115.804688 171.144531 C 115.273438 171.144531 114.8125 171.039062 114.429688 170.828125 C 114.042969 170.617188 113.726562 170.292969 113.472656 169.859375 Z M 117.550781 167.316406 C 117.550781 166.433594 117.371094 165.742188 117.007812 165.242188 C 116.644531 164.742188 116.148438 164.492188 115.511719 164.492188 C 114.878906 164.492188 114.378906 164.742188 114.015625 165.242188 C 113.65625 165.742188 113.472656 166.433594 113.472656 167.316406 C 113.472656 168.195312 113.65625 168.886719 114.015625 169.386719 C 114.378906 169.890625 114.878906 170.140625 115.511719 170.140625 C 116.148438 170.140625 116.644531 169.890625 117.007812 169.386719 C 117.371094 168.886719 117.550781 168.195312 117.550781 167.316406 Z M 117.550781 167.316406 "/>
<path style=" stroke:none;fill-rule:nonzero;fill:rgb(0%,0%,0%);fill-opacity:1;" d="M 120.777344 163.664062 L 121.976562 163.664062 L 121.976562 170.953125 L 120.777344 170.953125 Z M 120.777344 160.824219 L 121.976562 160.824219 L 121.976562 162.34375 L 120.777344 162.34375 Z M 120.777344 160.824219 "/>
<path style=" stroke:none;fill-rule:nonzero;fill:rgb(0%,0%,0%);fill-opacity:1;" d="M 128.707031 164.78125 C 128.574219 164.703125 128.425781 164.648438 128.269531 164.609375 C 128.109375 164.574219 127.9375 164.554688 127.746094 164.554688 C 127.066406 164.554688 126.546875 164.773438 126.183594 165.214844 C 125.824219 165.65625 125.640625 166.289062 125.640625 167.113281 L 125.640625 170.953125 L 124.4375 170.953125 L 124.4375 163.664062 L 125.640625 163.664062 L 125.640625 164.796875 C 125.894531 164.355469 126.222656 164.023438 126.625 163.8125 C 127.027344 163.597656 127.519531 163.488281 128.097656 163.488281 C 128.179688 163.488281 128.269531 163.492188 128.371094 163.503906 C 128.472656 163.515625 128.582031 163.53125 128.703125 163.554688 Z M 128.707031 164.78125 "/>
<path style=" stroke:none;fill-rule:nonzero;fill:rgb(0%,0%,0%);fill-opacity:1;" d="M 129.964844 163.664062 L 131.164062 163.664062 L 131.164062 170.953125 L 129.964844 170.953125 Z M 129.964844 160.824219 L 131.164062 160.824219 L 131.164062 162.34375 L 129.964844 162.34375 Z M 129.964844 160.824219 "/>
<path style=" stroke:none;fill-rule:nonzero;fill:rgb(0%,0%,0%);fill-opacity:1;" d="M 138.917969 163.941406 L 138.917969 165.0625 C 138.578125 164.875 138.238281 164.734375 137.898438 164.640625 C 137.558594 164.550781 137.214844 164.503906 136.867188 164.503906 C 136.089844 164.503906 135.484375 164.75 135.054688 165.242188 C 134.625 165.734375 134.410156 166.425781 134.410156 167.316406 C 134.410156 168.207031 134.625 168.898438 135.054688 169.390625 C 135.484375 169.882812 136.089844 170.128906 136.867188 170.128906 C 137.214844 170.128906 137.558594 170.082031 137.898438 169.988281 C 138.238281 169.894531 138.578125 169.753906 138.917969 169.566406 L 138.917969 170.675781 C 138.582031 170.832031 138.234375 170.949219 137.878906 171.027344 C 137.519531 171.105469 137.140625 171.144531 136.734375 171.144531 C 135.636719 171.144531 134.765625 170.800781 134.117188 170.109375 C 133.472656 169.417969 133.148438 168.488281 133.148438 167.316406 C 133.148438 166.125 133.476562 165.191406 134.128906 164.511719 C 134.78125 163.828125 135.679688 163.488281 136.816406 163.488281 C 137.183594 163.488281 137.542969 163.527344 137.894531 163.601562 C 138.246094 163.679688 138.585938 163.792969 138.917969 163.941406 Z M 138.917969 163.941406 "/>
<path style=" stroke:none;fill-rule:nonzero;fill:rgb(0%,0%,0%);fill-opacity:1;" d="M 144.316406 167.289062 C 143.347656 167.289062 142.675781 167.402344 142.300781 167.621094 C 141.929688 167.84375 141.742188 168.21875 141.742188 168.753906 C 141.742188 169.179688 141.882812 169.515625 142.164062 169.765625 C 142.441406 170.015625 142.824219 170.140625 143.304688 170.140625 C 143.96875 170.140625 144.503906 169.90625 144.90625 169.433594 C 145.304688 168.964844 145.507812 168.335938 145.507812 167.558594 L 145.507812 167.289062 Z M 146.703125 166.792969 L 146.703125 170.953125 L 145.507812 170.953125 L 145.507812 169.847656 C 145.234375 170.289062 144.890625 170.617188 144.484375 170.828125 C 144.074219 171.039062 143.574219 171.144531 142.984375 171.144531 C 142.238281 171.144531 141.644531 170.933594 141.203125 170.515625 C 140.765625 170.097656 140.542969 169.535156 140.542969 168.832031 C 140.542969 168.011719 140.816406 167.394531 141.367188 166.976562 C 141.917969 166.5625 142.734375 166.351562 143.824219 166.351562 L 145.507812 166.351562 L 145.507812 166.234375 C 145.507812 165.683594 145.324219 165.257812 144.960938 164.953125 C 144.601562 164.652344 144.089844 164.503906 143.4375 164.503906 C 143.019531 164.503906 142.613281 164.554688 142.21875 164.652344 C 141.824219 164.753906 141.441406 164.902344 141.078125 165.101562 L 141.078125 163.996094 C 141.515625 163.824219 141.941406 163.699219 142.355469 163.617188 C 142.765625 163.53125 143.167969 163.488281 143.558594 163.488281 C 144.613281 163.488281 145.402344 163.761719 145.921875 164.308594 C 146.445312 164.855469 146.703125 165.683594 146.703125 166.792969 Z M 146.703125 166.792969 "/>
<path style=" stroke:none;fill-rule:nonzero;fill:rgb(0%,0%,0%);fill-opacity:1;" d="M 149.171875 160.824219 L 150.367188 160.824219 L 150.367188 170.953125 L 149.171875 170.953125 Z M 149.171875 160.824219 "/>
<path style=" stroke:none;fill-rule:nonzero;fill:rgb(0%,0%,0%);fill-opacity:1;" d="M 161.339844 164.78125 C 161.203125 164.703125 161.058594 164.648438 160.898438 164.609375 C 160.742188 164.574219 160.566406 164.554688 160.375 164.554688 C 159.699219 164.554688 159.179688 164.773438 158.816406 165.214844 C 158.453125 165.65625 158.273438 166.289062 158.273438 167.113281 L 158.273438 170.953125 L 157.066406 170.953125 L 157.066406 163.664062 L 158.273438 163.664062 L 158.273438 164.796875 C 158.523438 164.355469 158.851562 164.023438 159.253906 163.8125 C 159.660156 163.597656 160.148438 163.488281 160.726562 163.488281 C 160.808594 163.488281 160.902344 163.492188 161 163.503906 C 161.101562 163.515625 161.210938 163.53125 161.332031 163.554688 Z M 161.339844 164.78125 "/>
<path style=" stroke:none;fill-rule:nonzero;fill:rgb(0%,0%,0%);fill-opacity:1;" d="M 162.59375 163.664062 L 163.792969 163.664062 L 163.792969 170.953125 L 162.59375 170.953125 Z M 162.59375 160.824219 L 163.792969 160.824219 L 163.792969 162.34375 L 162.59375 162.34375 Z M 162.59375 160.824219 "/>
<path style=" stroke:none;fill-rule:nonzero;fill:rgb(0%,0%,0%);fill-opacity:1;" d="M 170.949219 163.878906 L 170.949219 165.011719 C 170.609375 164.835938 170.257812 164.707031 169.894531 164.621094 C 169.53125 164.535156 169.152344 164.492188 168.761719 164.492188 C 168.164062 164.492188 167.71875 164.582031 167.421875 164.761719 C 167.125 164.945312 166.976562 165.21875 166.976562 165.585938 C 166.976562 165.863281 167.082031 166.078125 167.296875 166.238281 C 167.507812 166.398438 167.9375 166.546875 168.578125 166.691406 L 168.988281 166.78125 C 169.839844 166.964844 170.445312 167.222656 170.800781 167.554688 C 171.160156 167.886719 171.339844 168.347656 171.339844 168.941406 C 171.339844 169.621094 171.070312 170.15625 170.535156 170.554688 C 170 170.949219 169.261719 171.144531 168.324219 171.144531 C 167.933594 171.144531 167.527344 171.105469 167.105469 171.03125 C 166.679688 170.953125 166.234375 170.839844 165.765625 170.6875 L 165.765625 169.449219 C 166.210938 169.679688 166.644531 169.855469 167.074219 169.96875 C 167.503906 170.082031 167.929688 170.140625 168.351562 170.140625 C 168.914062 170.140625 169.347656 170.042969 169.652344 169.851562 C 169.957031 169.65625 170.109375 169.386719 170.109375 169.035156 C 170.109375 168.710938 170 168.460938 169.777344 168.285156 C 169.5625 168.113281 169.082031 167.945312 168.335938 167.785156 L 167.921875 167.6875 C 167.179688 167.53125 166.644531 167.292969 166.3125 166.96875 C 165.984375 166.644531 165.820312 166.199219 165.820312 165.636719 C 165.820312 164.949219 166.0625 164.421875 166.546875 164.046875 C 167.035156 163.675781 167.722656 163.488281 168.617188 163.488281 C 169.058594 163.488281 169.476562 163.519531 169.867188 163.585938 C 170.257812 163.648438 170.617188 163.746094 170.949219 163.878906 Z M 170.949219 163.878906 "/>
<path style=" stroke:none;fill-rule:nonzero;fill:rgb(0%,0%,0%);fill-opacity:1;" d="M 173.199219 160.824219 L 174.40625 160.824219 L 174.40625 166.808594 L 177.980469 163.664062 L 179.507812 163.664062 L 175.640625 167.074219 L 179.671875 170.953125 L 178.109375 170.953125 L 174.40625 167.394531 L 174.40625 170.953125 L 173.199219 170.953125 Z M 173.199219 160.824219 "/>
<path style="fill:none;stroke-width:1;stroke-linecap:round;stroke-linejoin:round;stroke:rgb(0%,0%,0%);stroke-opacity:1;stroke-miterlimit:4;" d="M 174.550781 71.72168 C 174.697266 88.148437 174.837891 104.203125 174.975586 119.882812 " transform="matrix(1.333333,0,0,1.333333,0,0.000000000000014211)"/>
<path style="fill:none;stroke-width:1;stroke-linecap:round;stroke-linejoin:round;stroke:rgb(0%,0%,0%);stroke-opacity:1;stroke-miterlimit:4;" d="M 176.941406 115.866211 L 174.975586 119.882812 L 172.942383 115.901367 " transform="matrix(1.333333,0,0,1.333333,0,0.000000000000014211)"/>
<path style=" stroke:none;fill-rule:nonzero;fill:rgb(0%,0%,0%);fill-opacity:1;" d="M 204.402344 81.632812 C 204.703125 81.09375 205.0625 80.695312 205.480469 80.441406 C 205.894531 80.1875 206.386719 80.058594 206.949219 80.058594 C 207.710938 80.058594 208.296875 80.324219 208.707031 80.855469 C 209.121094 81.386719 209.328125 82.140625 209.328125 83.121094 L 209.328125 87.523438 L 208.121094 87.523438 L 208.121094 83.164062 C 208.121094 82.464844 208 81.945312 207.75 81.609375 C 207.503906 81.269531 207.125 81.101562 206.617188 81.101562 C 205.996094 81.101562 205.507812 81.304688 205.144531 81.71875 C 204.785156 82.128906 204.605469 82.691406 204.605469 83.402344 L 204.605469 87.523438 L 203.402344 87.523438 L 203.402344 83.164062 C 203.402344 82.460938 203.277344 81.941406 203.03125 81.605469 C 202.785156 81.269531 202.402344 81.101562 201.886719 81.101562 C 201.273438 81.101562 200.785156 81.308594 200.425781 81.722656 C 200.066406 82.132812 199.886719 82.695312 199.886719 83.402344 L 199.886719 87.523438 L 198.679688 87.523438 L 198.679688 80.234375 L 199.886719 80.234375 L 199.886719 81.367188 C 200.160156 80.917969 200.488281 80.589844 200.867188 80.378906 C 201.25 80.164062 201.703125 80.058594 202.230469 80.058594 C 202.761719 80.058594 203.210938 80.191406 203.582031 80.460938 C 203.953125 80.730469 204.226562 81.121094 204.402344 81.632812 Z M 204.402344 81.632812 "/>
<path style=" stroke:none;fill-rule:nonzero;fill:rgb(0%,0%,0%);fill-opacity:1;" d="M 211.714844 80.234375 L 212.914062 80.234375 L 212.914062 87.523438 L 211.714844 87.523438 Z M 211.714844 77.394531 L 212.914062 77.394531 L 212.914062 78.914062 L 211.714844 78.914062 Z M 211.714844 77.394531 "/>
<path style=" stroke:none;fill-rule:nonzero;fill:rgb(0%,0%,0%);fill-opacity:1;" d="M 221.480469 83.121094 L 221.480469 87.523438 L 220.285156 87.523438 L 220.285156 83.164062 C 220.285156 82.472656 220.148438 81.957031 219.878906 81.613281 C 219.609375 81.273438 219.207031 81.101562 218.667969 81.101562 C 218.023438 81.101562 217.511719 81.304688 217.136719 81.71875 C 216.765625 82.128906 216.578125 82.691406 216.578125 83.402344 L 216.578125 87.523438 L 215.375 87.523438 L 215.375 80.234375 L 216.578125 80.234375 L 216.578125 81.367188 C 216.867188 80.929688 217.203125 80.601562 217.589844 80.382812 C 217.980469 80.167969 218.429688 80.058594 218.9375 80.058594 C 219.773438 80.058594 220.40625 80.316406 220.835938 80.835938 C 221.265625 81.351562 221.480469 82.117188 221.480469 83.121094 Z M 221.480469 83.121094 "/>
<path style=" stroke:none;fill-rule:nonzero;fill:rgb(0%,0%,0%);fill-opacity:1;" d="M 230.933594 81.074219 C 230.292969 81.074219 229.785156 81.324219 229.410156 81.824219 C 229.039062 82.328125 228.851562 83.011719 228.851562 83.886719 C 228.851562 84.757812 229.035156 85.445312 229.40625 85.945312 C 229.777344 86.445312 230.289062 86.699219 230.933594 86.699219 C 231.574219 86.699219 232.078125 86.445312 232.449219 85.945312 C 232.824219 85.441406 233.011719 84.753906 233.011719 83.886719 C 233.011719 83.023438 232.824219 82.335938 232.449219 81.832031 C 232.078125 81.324219 231.574219 81.074219 230.933594 81.074219 Z M 230.933594 80.058594 C 231.976562 80.058594 232.792969 80.398438 233.386719 81.074219 C 233.984375 81.75 234.28125 82.6875 234.28125 83.886719 C 234.28125 85.078125 233.984375 86.015625 233.386719 86.695312 C 232.792969 87.375 231.976562 87.714844 230.933594 87.714844 C 229.886719 87.714844 229.070312 87.375 228.476562 86.695312 C 227.882812 86.015625 227.585938 85.078125 227.585938 83.886719 C 227.585938 82.6875 227.882812 81.75 228.476562 81.074219 C 229.070312 80.398438 229.886719 80.058594 230.933594 80.058594 Z M 230.933594 80.058594 "/>
<path style=" stroke:none;fill-rule:nonzero;fill:rgb(0%,0%,0%);fill-opacity:1;" d="M 239.957031 77.394531 L 239.957031 78.390625 L 238.8125 78.390625 C 238.382812 78.390625 238.085938 78.476562 237.917969 78.652344 C 237.75 78.824219 237.667969 79.136719 237.667969 79.589844 L 237.667969 80.234375 L 239.640625 80.234375 L 239.640625 81.164062 L 237.667969 81.164062 L 237.667969 87.523438 L 236.460938 87.523438 L 236.460938 81.164062 L 235.316406 81.164062 L 235.316406 80.234375 L 236.460938 80.234375 L 236.460938 79.726562 C 236.460938 78.914062 236.652344 78.324219 237.027344 77.953125 C 237.40625 77.578125 238.003906 77.394531 238.824219 77.394531 Z M 239.957031 77.394531 "/>
<path style=" stroke:none;fill-rule:nonzero;fill:rgb(0%,0%,0%);fill-opacity:1;" d="M 249.421875 81.351562 C 249.289062 81.273438 249.140625 81.21875 248.984375 81.179688 C 248.824219 81.144531 248.652344 81.125 248.460938 81.125 C 247.785156 81.125 247.261719 81.34375 246.902344 81.785156 C 246.539062 82.226562 246.355469 82.859375 246.355469 83.683594 L 246.355469 87.523438 L 245.152344 87.523438 L 245.152344 80.234375 L 246.355469 80.234375 L 246.355469 81.367188 C 246.609375 80.921875 246.9375 80.59375 247.339844 80.382812 C 247.746094 80.164062 248.234375 80.058594 248.8125 80.058594 C 248.894531 80.058594 248.984375 80.0625 249.085938 80.074219 C 249.1875 80.085938 249.296875 80.101562 249.417969 80.121094 Z M 249.421875 81.351562 "/>
<path style=" stroke:none;fill-rule:nonzero;fill:rgb(0%,0%,0%);fill-opacity:1;" d="M 250.679688 80.234375 L 251.878906 80.234375 L 251.878906 87.523438 L 250.679688 87.523438 Z M 250.679688 77.394531 L 251.878906 77.394531 L 251.878906 78.914062 L 250.679688 78.914062 Z M 250.679688 77.394531 "/>
<path style=" stroke:none;fill-rule:nonzero;fill:rgb(0%,0%,0%);fill-opacity:1;" d="M 259.03125 80.449219 L 259.03125 81.582031 C 258.695312 81.40625 258.34375 81.277344 257.976562 81.191406 C 257.613281 81.105469 257.238281 81.058594 256.84375 81.058594 C 256.25 81.058594 255.804688 81.152344 255.507812 81.332031 C 255.210938 81.515625 255.0625 81.789062 255.0625 82.152344 C 255.0625 82.433594 255.167969 82.648438 255.378906 82.808594 C 255.59375 82.964844 256.019531 83.117188 256.664062 83.261719 L 257.074219 83.351562 C 257.925781 83.535156 258.527344 83.789062 258.886719 84.121094 C 259.246094 84.453125 259.425781 84.917969 259.425781 85.511719 C 259.425781 86.191406 259.15625 86.726562 258.621094 87.121094 C 258.085938 87.515625 257.347656 87.714844 256.410156 87.714844 C 256.019531 87.714844 255.613281 87.675781 255.1875 87.601562 C 254.765625 87.523438 254.320312 87.410156 253.851562 87.257812 L 253.851562 86.019531 C 254.292969 86.25 254.730469 86.425781 255.160156 86.539062 C 255.589844 86.652344 256.015625 86.710938 256.4375 86.710938 C 257 86.710938 257.433594 86.613281 257.738281 86.421875 C 258.039062 86.226562 258.191406 85.957031 258.191406 85.605469 C 258.191406 85.277344 258.082031 85.03125 257.863281 84.855469 C 257.644531 84.683594 257.164062 84.515625 256.421875 84.355469 L 256.003906 84.257812 C 255.265625 84.101562 254.726562 83.859375 254.398438 83.539062 C 254.066406 83.214844 253.902344 82.769531 253.902344 82.207031 C 253.902344 81.519531 254.148438 80.992188 254.632812 80.617188 C 255.117188 80.246094 255.808594 80.058594 256.703125 80.058594 C 257.144531 80.058594 257.5625 80.089844 257.953125 80.15625 C 258.34375 80.21875 258.703125 80.316406 259.03125 80.449219 Z M 259.03125 80.449219 "/>
<path style=" stroke:none;fill-rule:nonzero;fill:rgb(0%,0%,0%);fill-opacity:1;" d="M 261.285156 77.394531 L 262.488281 77.394531 L 262.488281 83.378906 L 266.066406 80.234375 L 267.59375 80.234375 L 263.726562 83.644531 L 267.757812 87.523438 L 266.195312 87.523438 L 262.488281 83.964844 L 262.488281 87.523438 L 261.285156 87.523438 Z M 261.285156 77.394531 "/>
</g>
</svg>
