<?xml version="1.0" encoding="UTF-8"?>
<svg xmlns="http://www.w3.org/2000/svg" xmlns:xlink="http://www.w3.org/1999/xlink" width="353.824992" height="249.540629" viewBox="0 0 353.824992 249.540629" version="1.1">
<defs>
<clipPath id="clip1">
  <path d="M 75.339844 14.664062 L 77 14.664062 L 77 199.464844 L 75.339844 199.464844 Z M 75.339844 14.664062 "/>
</clipPath>
<clipPath id="clip2">
  <path d="M 126 14.664062 L 129 14.664062 L 129 199.464844 L 126 199.464844 Z M 126 14.664062 "/>
</clipPath>
<clipPath id="clip3">
  <path d="M 178 14.664062 L 181 14.664062 L 181 199.464844 L 178 199.464844 Z M 178 14.664062 "/>
</clipPath>
<clipPath id="clip4">
  <path d="M 230 14.664062 L 233 14.664062 L 233 199.464844 L 230 199.464844 Z M 230 14.664062 "/>
</clipPath>
<clipPath id="clip5">
  <path d="M 282 14.664062 L 285 14.664062 L 285 199.464844 L 282 199.464844 Z M 282 14.664062 "/>
</clipPath>
<clipPath id="clip6">
  <path d="M 334 14.664062 L 335.742188 14.664062 L 335.742188 199.464844 L 334 199.464844 Z M 334 14.664062 "/>
</clipPath>
<clipPath id="clip7">
  <path d="M 75.339844 191 L 335.742188 191 L 335.742188 194 L 75.339844 194 Z M 75.339844 191 "/>
</clipPath>
<clipPath id="clip8">
  <path d="M 75.339844 156 L 335.742188 156 L 335.742188 158 L 75.339844 158 Z M 75.339844 156 "/>
</clipPath>
<clipPath id="clip9">
  <path d="M 75.339844 120 L 335.742188 120 L 335.742188 123 L 75.339844 123 Z M 75.339844 120 "/>
</clipPath>
<clipPath id="clip10">
  <path d="M 75.339844 84 L 335.742188 84 L 335.742188 87 L 75.339844 87 Z M 75.339844 84 "/>
</clipPath>
<clipPath id="clip11">
  <path d="M 75.339844 49 L 335.742188 49 L 335.742188 51 L 75.339844 51 Z M 75.339844 49 "/>
</clipPath>
<clipPath id="clip12">
  <path d="M 75.339844 14.664062 L 335.742188 14.664062 L 335.742188 16 L 75.339844 16 Z M 75.339844 14.664062 "/>
</clipPath>
<clipPath id="clip13">
  <path d="M 126 149 L 335.742188 149 L 335.742188 162 L 126 162 Z M 126 149 "/>
</clipPath>
</defs>
<g id="surface1">
<path style=" stroke:none;fill-rule:nonzero;fill:rgb(100%,100%,100%);fill-opacity:1;" d="M 0 249.539062 L 353.824219 249.539062 L 353.824219 0 L 0 0 Z M 0 249.539062 "/>
<path style=" stroke:none;fill-rule:nonzero;fill:rgb(100%,100%,100%);fill-opacity:1;" d="M 75.339844 199.464844 L 335.742188 199.464844 L 335.742188 14.664062 L 75.339844 14.664062 Z M 75.339844 199.464844 "/>
<g clip-path="url(#clip1)" clip-rule="nonzero">
<path style="fill:none;stroke-width:0.8;stroke-linecap:square;stroke-linejoin:round;stroke:rgb(69.01961%,69.01961%,69.01961%);stroke-opacity:1;stroke-miterlimit:4;" d="M 56.504883 149.598633 L 56.504883 10.998047 " transform="matrix(1.333333,0,0,1.333333,0.000000000000028422,0)"/>
</g>
<path style="fill:none;stroke-width:0.8;stroke-linecap:butt;stroke-linejoin:round;stroke:rgb(0%,0%,0%);stroke-opacity:1;stroke-miterlimit:4;" d="M -0.00136566 -0.000579834 L -0.00136566 3.500397 " transform="matrix(1.333333,0,0,1.333333,75.341665,199.465617)"/>
<path style=" stroke:none;fill-rule:nonzero;fill:rgb(0%,0%,0%);fill-opacity:1;" d="M 75.335938 210.074219 C 74.660156 210.074219 74.152344 210.410156 73.808594 211.074219 C 73.46875 211.742188 73.300781 212.742188 73.300781 214.082031 C 73.300781 215.414062 73.46875 216.410156 73.808594 217.078125 C 74.152344 217.746094 74.660156 218.078125 75.335938 218.078125 C 76.019531 218.078125 76.53125 217.746094 76.871094 217.078125 C 77.210938 216.410156 77.382812 215.414062 77.382812 214.082031 C 77.382812 212.742188 77.210938 211.742188 76.871094 211.074219 C 76.53125 210.410156 76.019531 210.074219 75.335938 210.074219 Z M 75.335938 209.035156 C 76.429688 209.035156 77.261719 209.464844 77.835938 210.328125 C 78.410156 211.1875 78.699219 212.441406 78.699219 214.082031 C 78.699219 215.714844 78.410156 216.964844 77.835938 217.828125 C 77.261719 218.6875 76.429688 219.121094 75.335938 219.121094 C 74.25 219.121094 73.417969 218.6875 72.839844 217.828125 C 72.265625 216.964844 71.980469 215.714844 71.980469 214.082031 C 71.980469 212.441406 72.265625 211.1875 72.839844 210.328125 C 73.417969 209.464844 74.25 209.035156 75.335938 209.035156 Z M 75.335938 209.035156 "/>
<g clip-path="url(#clip2)" clip-rule="nonzero">
<path style="fill:none;stroke-width:0.8;stroke-linecap:square;stroke-linejoin:round;stroke:rgb(69.01961%,69.01961%,69.01961%);stroke-opacity:1;stroke-miterlimit:4;" d="M 95.566406 149.598633 L 95.566406 10.998047 " transform="matrix(1.333333,0,0,1.333333,0.000000000000028422,0)"/>
</g>
<path style="fill:none;stroke-width:0.8;stroke-linecap:butt;stroke-linejoin:round;stroke:rgb(0%,0%,0%);stroke-opacity:1;stroke-miterlimit:4;" d="M 0.000152588 -0.000579834 L 0.000152588 3.500397 " transform="matrix(1.333333,0,0,1.333333,127.421672,199.465617)"/>
<path style=" stroke:none;fill-rule:nonzero;fill:rgb(0%,0%,0%);fill-opacity:1;" d="M 125.738281 217.824219 L 130.328125 217.824219 L 130.328125 218.929688 L 124.15625 218.929688 L 124.15625 217.824219 C 124.65625 217.308594 125.335938 216.613281 126.195312 215.746094 C 127.058594 214.875 127.601562 214.3125 127.820312 214.058594 C 128.242188 213.585938 128.535156 213.1875 128.703125 212.859375 C 128.871094 212.53125 128.953125 212.210938 128.953125 211.894531 C 128.953125 211.375 128.773438 210.957031 128.410156 210.628906 C 128.046875 210.304688 127.578125 210.140625 126.996094 210.140625 C 126.582031 210.140625 126.148438 210.210938 125.6875 210.355469 C 125.230469 210.5 124.742188 210.714844 124.222656 211.007812 L 124.222656 209.679688 C 124.75 209.464844 125.246094 209.304688 125.703125 209.195312 C 126.167969 209.089844 126.585938 209.035156 126.96875 209.035156 C 127.976562 209.035156 128.78125 209.285156 129.378906 209.789062 C 129.976562 210.292969 130.277344 210.964844 130.277344 211.808594 C 130.277344 212.207031 130.199219 212.585938 130.050781 212.945312 C 129.902344 213.300781 129.628906 213.722656 129.234375 214.210938 C 129.125 214.335938 128.78125 214.699219 128.199219 215.300781 C 127.617188 215.902344 126.796875 216.742188 125.738281 217.824219 Z M 125.738281 217.824219 "/>
<g clip-path="url(#clip3)" clip-rule="nonzero">
<path style="fill:none;stroke-width:0.8;stroke-linecap:square;stroke-linejoin:round;stroke:rgb(69.01961%,69.01961%,69.01961%);stroke-opacity:1;stroke-miterlimit:4;" d="M 134.625 149.598633 L 134.625 10.998047 " transform="matrix(1.333333,0,0,1.333333,0.000000000000028422,0)"/>
</g>
<path style="fill:none;stroke-width:0.8;stroke-linecap:butt;stroke-linejoin:round;stroke:rgb(0%,0%,0%);stroke-opacity:1;stroke-miterlimit:4;" d="M -0.00125122 -0.000579834 L -0.00125122 3.500397 " transform="matrix(1.333333,0,0,1.333333,179.501668,199.465617)"/>
<path style=" stroke:none;fill-rule:nonzero;fill:rgb(0%,0%,0%);fill-opacity:1;" d="M 180.300781 210.355469 L 176.980469 215.542969 L 180.300781 215.542969 Z M 179.953125 209.210938 L 181.609375 209.210938 L 181.609375 215.542969 L 182.996094 215.542969 L 182.996094 216.636719 L 181.609375 216.636719 L 181.609375 218.929688 L 180.300781 218.929688 L 180.300781 216.636719 L 175.910156 216.636719 L 175.910156 215.371094 Z M 179.953125 209.210938 "/>
<g clip-path="url(#clip4)" clip-rule="nonzero">
<path style="fill:none;stroke-width:0.8;stroke-linecap:square;stroke-linejoin:round;stroke:rgb(69.01961%,69.01961%,69.01961%);stroke-opacity:1;stroke-miterlimit:4;" d="M 173.686523 149.598633 L 173.686523 10.998047 " transform="matrix(1.333333,0,0,1.333333,0.000000000000028422,0)"/>
</g>
<path style="fill:none;stroke-width:0.8;stroke-linecap:butt;stroke-linejoin:round;stroke:rgb(0%,0%,0%);stroke-opacity:1;stroke-miterlimit:4;" d="M 0.000274658 -0.000579834 L 0.000274658 3.500397 " transform="matrix(1.333333,0,0,1.333333,231.581665,199.465617)"/>
<path style=" stroke:none;fill-rule:nonzero;fill:rgb(0%,0%,0%);fill-opacity:1;" d="M 231.742188 213.546875 C 231.152344 213.546875 230.683594 213.75 230.339844 214.152344 C 229.992188 214.554688 229.820312 215.109375 229.820312 215.8125 C 229.820312 216.511719 229.992188 217.0625 230.339844 217.46875 C 230.683594 217.875 231.152344 218.078125 231.742188 218.078125 C 232.332031 218.078125 232.800781 217.875 233.144531 217.46875 C 233.488281 217.0625 233.660156 216.511719 233.660156 215.8125 C 233.660156 215.109375 233.488281 214.554688 233.144531 214.152344 C 232.800781 213.75 232.332031 213.546875 231.742188 213.546875 Z M 234.351562 209.425781 L 234.351562 210.621094 C 234.023438 210.464844 233.6875 210.347656 233.351562 210.265625 C 233.015625 210.183594 232.683594 210.140625 232.351562 210.140625 C 231.484375 210.140625 230.820312 210.433594 230.363281 211.019531 C 229.90625 211.605469 229.644531 212.492188 229.578125 213.675781 C 229.835938 213.296875 230.15625 213.007812 230.542969 212.808594 C 230.929688 212.605469 231.355469 212.503906 231.820312 212.503906 C 232.796875 212.503906 233.566406 212.800781 234.132812 213.394531 C 234.699219 213.988281 234.984375 214.792969 234.984375 215.8125 C 234.984375 216.808594 234.6875 217.613281 234.097656 218.214844 C 233.507812 218.820312 232.722656 219.121094 231.742188 219.121094 C 230.617188 219.121094 229.757812 218.6875 229.164062 217.828125 C 228.570312 216.964844 228.269531 215.714844 228.269531 214.082031 C 228.269531 212.542969 228.636719 211.320312 229.363281 210.40625 C 230.09375 209.492188 231.074219 209.035156 232.300781 209.035156 C 232.632812 209.035156 232.964844 209.066406 233.300781 209.132812 C 233.636719 209.199219 233.988281 209.292969 234.351562 209.425781 Z M 234.351562 209.425781 "/>
<g clip-path="url(#clip5)" clip-rule="nonzero">
<path style="fill:none;stroke-width:0.8;stroke-linecap:square;stroke-linejoin:round;stroke:rgb(69.01961%,69.01961%,69.01961%);stroke-opacity:1;stroke-miterlimit:4;" d="M 212.745117 149.598633 L 212.745117 10.998047 " transform="matrix(1.333333,0,0,1.333333,0.000000000000028422,0)"/>
</g>
<path style="fill:none;stroke-width:0.8;stroke-linecap:butt;stroke-linejoin:round;stroke:rgb(0%,0%,0%);stroke-opacity:1;stroke-miterlimit:4;" d="M -0.00112915 -0.000579834 L -0.00112915 3.500397 " transform="matrix(1.333333,0,0,1.333333,283.661662,199.465617)"/>
<path style=" stroke:none;fill-rule:nonzero;fill:rgb(0%,0%,0%);fill-opacity:1;" d="M 283.65625 214.3125 C 283.03125 214.3125 282.539062 214.480469 282.183594 214.816406 C 281.824219 215.148438 281.648438 215.609375 281.648438 216.195312 C 281.648438 216.78125 281.824219 217.242188 282.183594 217.574219 C 282.539062 217.910156 283.03125 218.078125 283.65625 218.078125 C 284.28125 218.078125 284.773438 217.910156 285.132812 217.574219 C 285.496094 217.238281 285.675781 216.777344 285.675781 216.195312 C 285.675781 215.609375 285.496094 215.148438 285.140625 214.816406 C 284.78125 214.480469 284.289062 214.3125 283.65625 214.3125 Z M 282.34375 213.753906 C 281.777344 213.617188 281.339844 213.355469 281.023438 212.96875 C 280.710938 212.582031 280.554688 212.109375 280.554688 211.554688 C 280.554688 210.777344 280.828125 210.164062 281.382812 209.710938 C 281.9375 209.261719 282.695312 209.035156 283.65625 209.035156 C 284.625 209.035156 285.386719 209.261719 285.9375 209.710938 C 286.488281 210.164062 286.765625 210.777344 286.765625 211.554688 C 286.765625 212.109375 286.605469 212.582031 286.289062 212.96875 C 285.976562 213.355469 285.539062 213.617188 284.980469 213.753906 C 285.613281 213.902344 286.105469 214.191406 286.460938 214.621094 C 286.8125 215.050781 286.992188 215.574219 286.992188 216.195312 C 286.992188 217.136719 286.703125 217.863281 286.128906 218.367188 C 285.554688 218.867188 284.730469 219.121094 283.65625 219.121094 C 282.585938 219.121094 281.761719 218.867188 281.1875 218.367188 C 280.613281 217.863281 280.324219 217.136719 280.324219 216.195312 C 280.324219 215.574219 280.5 215.050781 280.859375 214.621094 C 281.214844 214.191406 281.710938 213.902344 282.34375 213.753906 Z M 281.863281 211.679688 C 281.863281 212.179688 282.019531 212.574219 282.332031 212.855469 C 282.648438 213.136719 283.089844 213.277344 283.65625 213.277344 C 284.222656 213.277344 284.664062 213.136719 284.984375 212.855469 C 285.300781 212.574219 285.460938 212.179688 285.460938 211.679688 C 285.460938 211.175781 285.300781 210.78125 284.984375 210.5 C 284.664062 210.21875 284.222656 210.074219 283.65625 210.074219 C 283.089844 210.074219 282.648438 210.21875 282.332031 210.5 C 282.019531 210.78125 281.863281 211.175781 281.863281 211.679688 Z M 281.863281 211.679688 "/>
<g clip-path="url(#clip6)" clip-rule="nonzero">
<path style="fill:none;stroke-width:0.8;stroke-linecap:square;stroke-linejoin:round;stroke:rgb(69.01961%,69.01961%,69.01961%);stroke-opacity:1;stroke-miterlimit:4;" d="M 251.806641 149.598633 L 251.806641 10.998047 " transform="matrix(1.333333,0,0,1.333333,0.000000000000028422,0)"/>
</g>
<path style="fill:none;stroke-width:0.8;stroke-linecap:butt;stroke-linejoin:round;stroke:rgb(0%,0%,0%);stroke-opacity:1;stroke-miterlimit:4;" d="M 0.000396729 -0.000579834 L 0.000396729 3.500397 " transform="matrix(1.333333,0,0,1.333333,335.741659,199.465617)"/>
<path style=" stroke:none;fill-rule:nonzero;fill:rgb(0%,0%,0%);fill-opacity:1;" d="M 328.914062 217.824219 L 331.058594 217.824219 L 331.058594 210.40625 L 328.722656 210.875 L 328.722656 209.679688 L 331.046875 209.210938 L 332.363281 209.210938 L 332.363281 217.824219 L 334.511719 217.824219 L 334.511719 218.929688 L 328.914062 218.929688 Z M 328.914062 217.824219 "/>
<path style=" stroke:none;fill-rule:nonzero;fill:rgb(0%,0%,0%);fill-opacity:1;" d="M 339.980469 210.074219 C 339.300781 210.074219 338.792969 210.410156 338.453125 211.074219 C 338.113281 211.742188 337.941406 212.742188 337.941406 214.082031 C 337.941406 215.414062 338.113281 216.410156 338.453125 217.078125 C 338.792969 217.746094 339.300781 218.078125 339.980469 218.078125 C 340.660156 218.078125 341.171875 217.746094 341.511719 217.078125 C 341.855469 216.410156 342.023438 215.414062 342.023438 214.082031 C 342.023438 212.742188 341.855469 211.742188 341.511719 211.074219 C 341.171875 210.410156 340.660156 210.074219 339.980469 210.074219 Z M 339.980469 209.035156 C 341.070312 209.035156 341.902344 209.464844 342.476562 210.328125 C 343.050781 211.1875 343.339844 212.441406 343.339844 214.082031 C 343.339844 215.714844 343.050781 216.964844 342.476562 217.828125 C 341.902344 218.6875 341.070312 219.121094 339.980469 219.121094 C 338.890625 219.121094 338.058594 218.6875 337.484375 217.828125 C 336.90625 216.964844 336.621094 215.714844 336.621094 214.082031 C 336.621094 212.441406 336.90625 211.1875 337.484375 210.328125 C 338.058594 209.464844 338.890625 209.035156 339.980469 209.035156 Z M 339.980469 209.035156 "/>
<path style=" stroke:none;fill-rule:nonzero;fill:rgb(0%,0%,0%);fill-opacity:1;" d="M 192.730469 233.222656 L 192.730469 233.808594 L 187.222656 233.808594 C 187.277344 234.632812 187.523438 235.261719 187.96875 235.691406 C 188.414062 236.125 189.03125 236.339844 189.828125 236.339844 C 190.285156 236.339844 190.734375 236.285156 191.164062 236.171875 C 191.597656 236.058594 192.027344 235.890625 192.453125 235.664062 L 192.453125 236.796875 C 192.023438 236.980469 191.582031 237.117188 191.128906 237.214844 C 190.679688 237.308594 190.21875 237.355469 189.757812 237.355469 C 188.59375 237.355469 187.671875 237.019531 186.992188 236.34375 C 186.3125 235.664062 185.972656 234.75 185.972656 233.59375 C 185.972656 232.398438 186.296875 231.453125 186.941406 230.753906 C 187.585938 230.050781 188.453125 229.699219 189.546875 229.699219 C 190.527344 229.699219 191.304688 230.015625 191.875 230.648438 C 192.445312 231.28125 192.730469 232.136719 192.730469 233.222656 Z M 191.535156 232.871094 C 191.523438 232.214844 191.339844 231.695312 190.984375 231.304688 C 190.625 230.910156 190.152344 230.714844 189.558594 230.714844 C 188.890625 230.714844 188.359375 230.90625 187.957031 231.28125 C 187.554688 231.660156 187.324219 232.191406 187.261719 232.878906 Z M 191.535156 232.871094 "/>
<path style=" stroke:none;fill-rule:nonzero;fill:rgb(0%,0%,0%);fill-opacity:1;" d="M 195.855469 236.074219 L 195.855469 239.941406 L 194.652344 239.941406 L 194.652344 229.875 L 195.855469 229.875 L 195.855469 230.980469 C 196.109375 230.550781 196.425781 230.226562 196.808594 230.019531 C 197.195312 229.804688 197.652344 229.699219 198.1875 229.699219 C 199.074219 229.699219 199.792969 230.050781 200.34375 230.753906 C 200.898438 231.457031 201.175781 232.382812 201.175781 233.527344 C 201.175781 234.675781 200.898438 235.597656 200.34375 236.304688 C 199.792969 237.007812 199.074219 237.355469 198.1875 237.355469 C 197.652344 237.355469 197.195312 237.25 196.808594 237.039062 C 196.425781 236.828125 196.109375 236.507812 195.855469 236.074219 Z M 199.933594 233.527344 C 199.933594 232.648438 199.75 231.957031 199.386719 231.457031 C 199.027344 230.953125 198.527344 230.703125 197.894531 230.703125 C 197.261719 230.703125 196.761719 230.953125 196.398438 231.457031 C 196.035156 231.957031 195.855469 232.648438 195.855469 233.527344 C 195.855469 234.410156 196.035156 235.101562 196.398438 235.601562 C 196.761719 236.101562 197.261719 236.351562 197.894531 236.351562 C 198.527344 236.351562 199.027344 236.101562 199.386719 235.601562 C 199.75 235.101562 199.933594 234.410156 199.933594 233.527344 Z M 199.933594 233.527344 "/>
<path style=" stroke:none;fill-rule:nonzero;fill:rgb(0%,0%,0%);fill-opacity:1;" d="M 205.984375 230.714844 C 205.34375 230.714844 204.835938 230.964844 204.460938 231.46875 C 204.089844 231.96875 203.902344 232.65625 203.902344 233.527344 C 203.902344 234.398438 204.085938 235.085938 204.457031 235.589844 C 204.832031 236.089844 205.339844 236.339844 205.984375 236.339844 C 206.625 236.339844 207.128906 236.089844 207.503906 235.585938 C 207.875 235.082031 208.0625 234.394531 208.0625 233.527344 C 208.0625 232.664062 207.875 231.980469 207.503906 231.472656 C 207.128906 230.96875 206.625 230.714844 205.984375 230.714844 Z M 205.984375 229.699219 C 207.027344 229.699219 207.84375 230.039062 208.441406 230.71875 C 209.035156 231.394531 209.332031 232.332031 209.332031 233.527344 C 209.332031 234.722656 209.035156 235.65625 208.441406 236.339844 C 207.84375 237.019531 207.027344 237.355469 205.984375 237.355469 C 204.941406 237.355469 204.121094 237.019531 203.527344 236.339844 C 202.933594 235.65625 202.640625 234.722656 202.640625 233.527344 C 202.640625 232.332031 202.933594 231.394531 203.527344 230.71875 C 204.121094 230.039062 204.941406 229.699219 205.984375 229.699219 Z M 205.984375 229.699219 "/>
<path style=" stroke:none;fill-rule:nonzero;fill:rgb(0%,0%,0%);fill-opacity:1;" d="M 216.566406 230.15625 L 216.566406 231.277344 C 216.226562 231.089844 215.886719 230.949219 215.546875 230.855469 C 215.207031 230.761719 214.863281 230.714844 214.515625 230.714844 C 213.738281 230.714844 213.132812 230.960938 212.703125 231.457031 C 212.273438 231.945312 212.058594 232.636719 212.058594 233.527344 C 212.058594 234.417969 212.273438 235.109375 212.703125 235.601562 C 213.132812 236.09375 213.738281 236.339844 214.515625 236.339844 C 214.863281 236.339844 215.207031 236.292969 215.546875 236.199219 C 215.886719 236.109375 216.226562 235.96875 216.566406 235.78125 L 216.566406 236.886719 C 216.230469 237.042969 215.882812 237.160156 215.527344 237.238281 C 215.167969 237.316406 214.789062 237.355469 214.382812 237.355469 C 213.285156 237.355469 212.414062 237.011719 211.765625 236.320312 C 211.121094 235.632812 210.796875 234.699219 210.796875 233.527344 C 210.796875 232.339844 211.125 231.40625 211.777344 230.722656 C 212.429688 230.042969 213.328125 229.699219 214.464844 229.699219 C 214.832031 229.699219 215.191406 229.738281 215.542969 229.816406 C 215.894531 229.890625 216.234375 230.003906 216.566406 230.15625 Z M 216.566406 230.15625 "/>
<path style=" stroke:none;fill-rule:nonzero;fill:rgb(0%,0%,0%);fill-opacity:1;" d="M 224.710938 232.765625 L 224.710938 237.167969 L 223.511719 237.167969 L 223.511719 232.804688 C 223.511719 232.113281 223.378906 231.597656 223.109375 231.257812 C 222.839844 230.914062 222.4375 230.742188 221.898438 230.742188 C 221.25 230.742188 220.742188 230.949219 220.367188 231.363281 C 219.992188 231.773438 219.808594 232.335938 219.808594 233.046875 L 219.808594 237.167969 L 218.601562 237.167969 L 218.601562 227.035156 L 219.808594 227.035156 L 219.808594 231.007812 C 220.09375 230.570312 220.433594 230.242188 220.820312 230.027344 C 221.207031 229.808594 221.65625 229.699219 222.164062 229.699219 C 223.003906 229.699219 223.636719 229.960938 224.066406 230.476562 C 224.496094 230.996094 224.710938 231.757812 224.710938 232.765625 Z M 224.710938 232.765625 "/>
<g clip-path="url(#clip7)" clip-rule="nonzero">
<path style="fill:none;stroke-width:0.8;stroke-linecap:square;stroke-linejoin:round;stroke:rgb(69.01961%,69.01961%,69.01961%);stroke-opacity:1;stroke-miterlimit:4;" d="M 56.504883 144.269531 L 251.806641 144.269531 " transform="matrix(1.333333,0,0,1.333333,0.000000000000028422,0)"/>
</g>
<path style="fill:none;stroke-width:0.8;stroke-linecap:butt;stroke-linejoin:round;stroke:rgb(0%,0%,0%);stroke-opacity:1;stroke-miterlimit:4;" d="M -0.00136566 0.00108337 L -3.499413 0.00108337 " transform="matrix(1.333333,0,0,1.333333,75.341665,192.357931)"/>
<path style=" stroke:none;fill-rule:nonzero;fill:rgb(0%,0%,0%);fill-opacity:1;" d="M 32.074219 188.570312 C 31.398438 188.570312 30.890625 188.902344 30.546875 189.570312 C 30.207031 190.234375 30.039062 191.234375 30.039062 192.574219 C 30.039062 193.90625 30.207031 194.90625 30.546875 195.570312 C 30.890625 196.238281 31.398438 196.570312 32.074219 196.570312 C 32.757812 196.570312 33.269531 196.238281 33.609375 195.570312 C 33.949219 194.90625 34.121094 193.90625 34.121094 192.574219 C 34.121094 191.234375 33.949219 190.234375 33.609375 189.570312 C 33.269531 188.902344 32.757812 188.570312 32.074219 188.570312 Z M 32.074219 187.527344 C 33.164062 187.527344 33.996094 187.957031 34.574219 188.820312 C 35.148438 189.683594 35.433594 190.933594 35.433594 192.574219 C 35.433594 194.210938 35.148438 195.457031 34.574219 196.320312 C 33.996094 197.183594 33.164062 197.613281 32.074219 197.613281 C 30.984375 197.613281 30.152344 197.183594 29.578125 196.320312 C 29.003906 195.457031 28.714844 194.210938 28.714844 192.574219 C 28.714844 190.933594 29.003906 189.683594 29.578125 188.820312 C 30.152344 187.957031 30.984375 187.527344 32.074219 187.527344 Z M 32.074219 187.527344 "/>
<path style=" stroke:none;fill-rule:nonzero;fill:rgb(0%,0%,0%);fill-opacity:1;" d="M 37.746094 195.769531 L 39.121094 195.769531 L 39.121094 197.421875 L 37.746094 197.421875 Z M 37.746094 195.769531 "/>
<path style=" stroke:none;fill-rule:nonzero;fill:rgb(0%,0%,0%);fill-opacity:1;" d="M 43.117188 196.316406 L 47.707031 196.316406 L 47.707031 197.421875 L 41.535156 197.421875 L 41.535156 196.316406 C 42.035156 195.800781 42.714844 195.109375 43.574219 194.238281 C 44.4375 193.367188 44.980469 192.804688 45.199219 192.550781 C 45.621094 192.082031 45.914062 191.679688 46.082031 191.351562 C 46.25 191.023438 46.332031 190.703125 46.332031 190.386719 C 46.332031 189.871094 46.152344 189.449219 45.789062 189.125 C 45.425781 188.796875 44.957031 188.632812 44.375 188.632812 C 43.960938 188.632812 43.527344 188.707031 43.066406 188.847656 C 42.609375 188.992188 42.121094 189.207031 41.601562 189.5 L 41.601562 188.171875 C 42.128906 187.957031 42.625 187.796875 43.082031 187.691406 C 43.546875 187.582031 43.964844 187.527344 44.347656 187.527344 C 45.355469 187.527344 46.15625 187.78125 46.757812 188.285156 C 47.355469 188.785156 47.65625 189.457031 47.65625 190.300781 C 47.65625 190.699219 47.578125 191.078125 47.429688 191.4375 C 47.28125 191.796875 47.007812 192.214844 46.613281 192.703125 C 46.503906 192.828125 46.160156 193.191406 45.578125 193.792969 C 44.996094 194.394531 44.175781 195.238281 43.117188 196.316406 Z M 43.117188 196.316406 "/>
<path style=" stroke:none;fill-rule:nonzero;fill:rgb(0%,0%,0%);fill-opacity:1;" d="M 51.601562 196.316406 L 56.191406 196.316406 L 56.191406 197.421875 L 50.019531 197.421875 L 50.019531 196.316406 C 50.519531 195.800781 51.199219 195.109375 52.058594 194.238281 C 52.921875 193.367188 53.460938 192.804688 53.683594 192.550781 C 54.105469 192.082031 54.398438 191.679688 54.566406 191.351562 C 54.734375 191.023438 54.816406 190.703125 54.816406 190.386719 C 54.816406 189.871094 54.636719 189.449219 54.273438 189.125 C 53.910156 188.796875 53.4375 188.632812 52.855469 188.632812 C 52.445312 188.632812 52.007812 188.707031 51.550781 188.847656 C 51.09375 188.992188 50.605469 189.207031 50.082031 189.5 L 50.082031 188.171875 C 50.613281 187.957031 51.105469 187.796875 51.566406 187.691406 C 52.027344 187.582031 52.449219 187.527344 52.832031 187.527344 C 53.839844 187.527344 54.640625 187.78125 55.238281 188.285156 C 55.839844 188.785156 56.136719 189.457031 56.136719 190.300781 C 56.136719 190.699219 56.0625 191.078125 55.914062 191.4375 C 55.765625 191.796875 55.492188 192.214844 55.097656 192.703125 C 54.988281 192.828125 54.644531 193.191406 54.0625 193.792969 C 53.480469 194.394531 52.660156 195.238281 51.601562 196.316406 Z M 51.601562 196.316406 "/>
<path style=" stroke:none;fill-rule:nonzero;fill:rgb(0%,0%,0%);fill-opacity:1;" d="M 58.964844 187.703125 L 64.128906 187.703125 L 64.128906 188.8125 L 60.167969 188.8125 L 60.167969 191.191406 C 60.359375 191.128906 60.550781 191.078125 60.738281 191.046875 C 60.929688 191.015625 61.121094 191 61.316406 191 C 62.398438 191 63.257812 191.296875 63.890625 191.890625 C 64.527344 192.484375 64.84375 193.289062 64.84375 194.304688 C 64.84375 195.351562 64.519531 196.164062 63.867188 196.746094 C 63.214844 197.324219 62.296875 197.613281 61.113281 197.613281 C 60.703125 197.613281 60.289062 197.578125 59.863281 197.507812 C 59.441406 197.441406 59.003906 197.335938 58.554688 197.195312 L 58.554688 195.875 C 58.945312 196.085938 59.347656 196.246094 59.765625 196.347656 C 60.179688 196.453125 60.621094 196.503906 61.085938 196.503906 C 61.835938 196.503906 62.429688 196.308594 62.867188 195.914062 C 63.308594 195.519531 63.527344 194.984375 63.527344 194.304688 C 63.527344 193.628906 63.308594 193.09375 62.867188 192.699219 C 62.429688 192.300781 61.835938 192.105469 61.085938 192.105469 C 60.734375 192.105469 60.382812 192.144531 60.035156 192.222656 C 59.683594 192.300781 59.328125 192.421875 58.964844 192.585938 Z M 58.964844 187.703125 "/>
<g clip-path="url(#clip8)" clip-rule="nonzero">
<path style="fill:none;stroke-width:0.8;stroke-linecap:square;stroke-linejoin:round;stroke:rgb(69.01961%,69.01961%,69.01961%);stroke-opacity:1;stroke-miterlimit:4;" d="M 56.504883 117.615234 L 251.806641 117.615234 " transform="matrix(1.333333,0,0,1.333333,0.000000000000028422,0)"/>
</g>
<path style="fill:none;stroke-width:0.8;stroke-linecap:butt;stroke-linejoin:round;stroke:rgb(0%,0%,0%);stroke-opacity:1;stroke-miterlimit:4;" d="M -0.00136566 0.00063324 L -3.499413 0.00063324 " transform="matrix(1.333333,0,0,1.333333,75.341665,156.819468)"/>
<path style=" stroke:none;fill-rule:nonzero;fill:rgb(0%,0%,0%);fill-opacity:1;" d="M 32.074219 153.03125 C 31.398438 153.03125 30.890625 153.363281 30.546875 154.03125 C 30.207031 154.695312 30.039062 155.699219 30.039062 157.035156 C 30.039062 158.367188 30.207031 159.367188 30.546875 160.03125 C 30.890625 160.699219 31.398438 161.03125 32.074219 161.03125 C 32.757812 161.03125 33.269531 160.699219 33.609375 160.03125 C 33.949219 159.367188 34.121094 158.367188 34.121094 157.035156 C 34.121094 155.699219 33.949219 154.695312 33.609375 154.03125 C 33.269531 153.363281 32.757812 153.03125 32.074219 153.03125 Z M 32.074219 151.988281 C 33.164062 151.988281 33.996094 152.421875 34.574219 153.28125 C 35.148438 154.144531 35.433594 155.394531 35.433594 157.035156 C 35.433594 158.671875 35.148438 159.921875 34.574219 160.78125 C 33.996094 161.644531 33.164062 162.074219 32.074219 162.074219 C 30.984375 162.074219 30.152344 161.644531 29.578125 160.78125 C 29.003906 159.921875 28.714844 158.671875 28.714844 157.035156 C 28.714844 155.394531 29.003906 154.144531 29.578125 153.28125 C 30.152344 152.421875 30.984375 151.988281 32.074219 151.988281 Z M 32.074219 151.988281 "/>
<path style=" stroke:none;fill-rule:nonzero;fill:rgb(0%,0%,0%);fill-opacity:1;" d="M 37.746094 160.230469 L 39.121094 160.230469 L 39.121094 161.886719 L 37.746094 161.886719 Z M 37.746094 160.230469 "/>
<path style=" stroke:none;fill-rule:nonzero;fill:rgb(0%,0%,0%);fill-opacity:1;" d="M 43.117188 160.777344 L 47.707031 160.777344 L 47.707031 161.886719 L 41.535156 161.886719 L 41.535156 160.777344 C 42.035156 160.261719 42.714844 159.570312 43.574219 158.699219 C 44.4375 157.828125 44.980469 157.265625 45.199219 157.015625 C 45.621094 156.542969 45.914062 156.140625 46.082031 155.8125 C 46.25 155.488281 46.332031 155.164062 46.332031 154.847656 C 46.332031 154.332031 46.152344 153.910156 45.789062 153.585938 C 45.425781 153.257812 44.957031 153.09375 44.375 153.09375 C 43.960938 153.09375 43.527344 153.167969 43.066406 153.308594 C 42.609375 153.453125 42.121094 153.671875 41.601562 153.960938 L 41.601562 152.632812 C 42.128906 152.421875 42.625 152.261719 43.082031 152.152344 C 43.546875 152.042969 43.964844 151.988281 44.347656 151.988281 C 45.355469 151.988281 46.15625 152.242188 46.757812 152.746094 C 47.355469 153.25 47.65625 153.921875 47.65625 154.761719 C 47.65625 155.164062 47.578125 155.542969 47.429688 155.898438 C 47.28125 156.257812 47.007812 156.679688 46.613281 157.164062 C 46.503906 157.289062 46.160156 157.65625 45.578125 158.257812 C 44.996094 158.855469 44.175781 159.699219 43.117188 160.777344 Z M 43.117188 160.777344 "/>
<path style=" stroke:none;fill-rule:nonzero;fill:rgb(0%,0%,0%);fill-opacity:1;" d="M 50.480469 152.164062 L 55.644531 152.164062 L 55.644531 153.273438 L 51.6875 153.273438 L 51.6875 155.652344 C 51.875 155.589844 52.066406 155.539062 52.257812 155.507812 C 52.449219 155.476562 52.640625 155.460938 52.832031 155.460938 C 53.917969 155.460938 54.773438 155.757812 55.410156 156.351562 C 56.042969 156.945312 56.359375 157.75 56.359375 158.765625 C 56.359375 159.8125 56.035156 160.625 55.382812 161.207031 C 54.730469 161.785156 53.8125 162.074219 52.628906 162.074219 C 52.222656 162.074219 51.804688 162.039062 51.382812 161.96875 C 50.960938 161.902344 50.523438 161.796875 50.070312 161.65625 L 50.070312 160.335938 C 50.460938 160.546875 50.863281 160.707031 51.28125 160.808594 C 51.699219 160.914062 52.136719 160.964844 52.601562 160.964844 C 53.355469 160.964844 53.949219 160.769531 54.386719 160.375 C 54.824219 159.980469 55.042969 159.445312 55.042969 158.765625 C 55.042969 158.089844 54.824219 157.554688 54.386719 157.160156 C 53.949219 156.765625 53.355469 156.566406 52.601562 156.566406 C 52.25 156.566406 51.898438 156.605469 51.550781 156.683594 C 51.203125 156.761719 50.84375 156.882812 50.480469 157.046875 Z M 50.480469 152.164062 "/>
<path style=" stroke:none;fill-rule:nonzero;fill:rgb(0%,0%,0%);fill-opacity:1;" d="M 61.761719 153.03125 C 61.085938 153.03125 60.578125 153.363281 60.234375 154.03125 C 59.894531 154.695312 59.726562 155.699219 59.726562 157.035156 C 59.726562 158.367188 59.894531 159.367188 60.234375 160.03125 C 60.578125 160.699219 61.085938 161.03125 61.761719 161.03125 C 62.445312 161.03125 62.957031 160.699219 63.296875 160.03125 C 63.636719 159.367188 63.808594 158.367188 63.808594 157.035156 C 63.808594 155.699219 63.636719 154.695312 63.296875 154.03125 C 62.957031 153.363281 62.445312 153.03125 61.761719 153.03125 Z M 61.761719 151.988281 C 62.851562 151.988281 63.683594 152.421875 64.261719 153.28125 C 64.835938 154.144531 65.121094 155.394531 65.121094 157.035156 C 65.121094 158.671875 64.835938 159.921875 64.261719 160.78125 C 63.683594 161.644531 62.851562 162.074219 61.761719 162.074219 C 60.671875 162.074219 59.839844 161.644531 59.265625 160.78125 C 58.691406 159.921875 58.402344 158.671875 58.402344 157.035156 C 58.402344 155.394531 58.691406 154.144531 59.265625 153.28125 C 59.839844 152.421875 60.671875 151.988281 61.761719 151.988281 Z M 61.761719 151.988281 "/>
<g clip-path="url(#clip9)" clip-rule="nonzero">
<path style="fill:none;stroke-width:0.8;stroke-linecap:square;stroke-linejoin:round;stroke:rgb(69.01961%,69.01961%,69.01961%);stroke-opacity:1;stroke-miterlimit:4;" d="M 56.504883 90.960938 L 251.806641 90.960938 " transform="matrix(1.333333,0,0,1.333333,0.000000000000028422,0)"/>
</g>
<path style="fill:none;stroke-width:0.8;stroke-linecap:butt;stroke-linejoin:round;stroke:rgb(0%,0%,0%);stroke-opacity:1;stroke-miterlimit:4;" d="M -0.00136566 0.000183105 L -3.499413 0.000183105 " transform="matrix(1.333333,0,0,1.333333,75.341665,121.281006)"/>
<path style=" stroke:none;fill-rule:nonzero;fill:rgb(0%,0%,0%);fill-opacity:1;" d="M 32.074219 117.492188 C 31.398438 117.492188 30.890625 117.824219 30.546875 118.492188 C 30.207031 119.15625 30.039062 120.160156 30.039062 121.496094 C 30.039062 122.828125 30.207031 123.828125 30.546875 124.496094 C 30.890625 125.160156 31.398438 125.496094 32.074219 125.496094 C 32.757812 125.496094 33.269531 125.160156 33.609375 124.496094 C 33.949219 123.828125 34.121094 122.828125 34.121094 121.496094 C 34.121094 120.160156 33.949219 119.15625 33.609375 118.492188 C 33.269531 117.824219 32.757812 117.492188 32.074219 117.492188 Z M 32.074219 116.449219 C 33.164062 116.449219 33.996094 116.882812 34.574219 117.746094 C 35.148438 118.605469 35.433594 119.855469 35.433594 121.496094 C 35.433594 123.132812 35.148438 124.382812 34.574219 125.246094 C 33.996094 126.105469 33.164062 126.535156 32.074219 126.535156 C 30.984375 126.535156 30.152344 126.105469 29.578125 125.246094 C 29.003906 124.382812 28.714844 123.132812 28.714844 121.496094 C 28.714844 119.855469 29.003906 118.605469 29.578125 117.746094 C 30.152344 116.882812 30.984375 116.449219 32.074219 116.449219 Z M 32.074219 116.449219 "/>
<path style=" stroke:none;fill-rule:nonzero;fill:rgb(0%,0%,0%);fill-opacity:1;" d="M 37.746094 124.691406 L 39.121094 124.691406 L 39.121094 126.347656 L 37.746094 126.347656 Z M 37.746094 124.691406 "/>
<path style=" stroke:none;fill-rule:nonzero;fill:rgb(0%,0%,0%);fill-opacity:1;" d="M 43.117188 125.242188 L 47.707031 125.242188 L 47.707031 126.347656 L 41.535156 126.347656 L 41.535156 125.242188 C 42.035156 124.722656 42.714844 124.03125 43.574219 123.160156 C 44.4375 122.289062 44.980469 121.730469 45.199219 121.476562 C 45.621094 121.003906 45.914062 120.605469 46.082031 120.277344 C 46.25 119.949219 46.332031 119.625 46.332031 119.308594 C 46.332031 118.792969 46.152344 118.371094 45.789062 118.046875 C 45.425781 117.71875 44.957031 117.558594 44.375 117.558594 C 43.960938 117.558594 43.527344 117.628906 43.066406 117.773438 C 42.609375 117.914062 42.121094 118.132812 41.601562 118.421875 L 41.601562 117.09375 C 42.128906 116.882812 42.625 116.722656 43.082031 116.613281 C 43.546875 116.503906 43.964844 116.449219 44.347656 116.449219 C 45.355469 116.449219 46.15625 116.703125 46.757812 117.207031 C 47.355469 117.710938 47.65625 118.382812 47.65625 119.222656 C 47.65625 119.625 47.578125 120.003906 47.429688 120.359375 C 47.28125 120.71875 47.007812 121.140625 46.613281 121.625 C 46.503906 121.753906 46.160156 122.117188 45.578125 122.71875 C 44.996094 123.320312 44.175781 124.160156 43.117188 125.242188 Z M 43.117188 125.242188 "/>
<path style=" stroke:none;fill-rule:nonzero;fill:rgb(0%,0%,0%);fill-opacity:1;" d="M 50.136719 116.625 L 56.386719 116.625 L 56.386719 117.1875 L 52.855469 126.347656 L 51.484375 126.347656 L 54.804688 117.734375 L 50.136719 117.734375 Z M 50.136719 116.625 "/>
<path style=" stroke:none;fill-rule:nonzero;fill:rgb(0%,0%,0%);fill-opacity:1;" d="M 58.964844 116.625 L 64.128906 116.625 L 64.128906 117.734375 L 60.167969 117.734375 L 60.167969 120.117188 C 60.359375 120.050781 60.550781 120 60.738281 119.96875 C 60.929688 119.9375 61.121094 119.921875 61.316406 119.921875 C 62.398438 119.921875 63.257812 120.21875 63.890625 120.8125 C 64.527344 121.40625 64.84375 122.210938 64.84375 123.226562 C 64.84375 124.273438 64.519531 125.085938 63.867188 125.667969 C 63.214844 126.246094 62.296875 126.535156 61.113281 126.535156 C 60.703125 126.535156 60.289062 126.5 59.863281 126.433594 C 59.441406 126.363281 59.003906 126.257812 58.554688 126.121094 L 58.554688 124.796875 C 58.945312 125.007812 59.347656 125.167969 59.765625 125.273438 C 60.179688 125.375 60.621094 125.429688 61.085938 125.429688 C 61.835938 125.429688 62.429688 125.230469 62.867188 124.835938 C 63.308594 124.441406 63.527344 123.90625 63.527344 123.226562 C 63.527344 122.550781 63.308594 122.015625 62.867188 121.621094 C 62.429688 121.226562 61.835938 121.027344 61.085938 121.027344 C 60.734375 121.027344 60.382812 121.066406 60.035156 121.144531 C 59.683594 121.222656 59.328125 121.34375 58.964844 121.507812 Z M 58.964844 116.625 "/>
<g clip-path="url(#clip10)" clip-rule="nonzero">
<path style="fill:none;stroke-width:0.8;stroke-linecap:square;stroke-linejoin:round;stroke:rgb(69.01961%,69.01961%,69.01961%);stroke-opacity:1;stroke-miterlimit:4;" d="M 56.504883 64.306641 L 251.806641 64.306641 " transform="matrix(1.333333,0,0,1.333333,0.000000000000028422,0)"/>
</g>
<path style="fill:none;stroke-width:0.8;stroke-linecap:butt;stroke-linejoin:round;stroke:rgb(0%,0%,0%);stroke-opacity:1;stroke-miterlimit:4;" d="M -0.00136566 -0.000267029 L -3.499413 -0.000267029 " transform="matrix(1.333333,0,0,1.333333,75.341665,85.742544)"/>
<path style=" stroke:none;fill-rule:nonzero;fill:rgb(0%,0%,0%);fill-opacity:1;" d="M 32.074219 81.953125 C 31.398438 81.953125 30.890625 82.289062 30.546875 82.953125 C 30.207031 83.621094 30.039062 84.621094 30.039062 85.957031 C 30.039062 87.289062 30.207031 88.289062 30.546875 88.957031 C 30.890625 89.621094 31.398438 89.957031 32.074219 89.957031 C 32.757812 89.957031 33.269531 89.621094 33.609375 88.957031 C 33.949219 88.289062 34.121094 87.289062 34.121094 85.957031 C 34.121094 84.621094 33.949219 83.621094 33.609375 82.953125 C 33.269531 82.289062 32.757812 81.953125 32.074219 81.953125 Z M 32.074219 80.914062 C 33.164062 80.914062 33.996094 81.34375 34.574219 82.207031 C 35.148438 83.066406 35.433594 84.316406 35.433594 85.957031 C 35.433594 87.59375 35.148438 88.84375 34.574219 89.707031 C 33.996094 90.566406 33.164062 90.996094 32.074219 90.996094 C 30.984375 90.996094 30.152344 90.566406 29.578125 89.707031 C 29.003906 88.84375 28.714844 87.59375 28.714844 85.957031 C 28.714844 84.316406 29.003906 83.066406 29.578125 82.207031 C 30.152344 81.34375 30.984375 80.914062 32.074219 80.914062 Z M 32.074219 80.914062 "/>
<path style=" stroke:none;fill-rule:nonzero;fill:rgb(0%,0%,0%);fill-opacity:1;" d="M 37.746094 89.152344 L 39.121094 89.152344 L 39.121094 90.808594 L 37.746094 90.808594 Z M 37.746094 89.152344 "/>
<path style=" stroke:none;fill-rule:nonzero;fill:rgb(0%,0%,0%);fill-opacity:1;" d="M 45.96875 85.566406 C 46.597656 85.703125 47.089844 85.980469 47.441406 86.40625 C 47.796875 86.832031 47.972656 87.359375 47.972656 87.984375 C 47.972656 88.941406 47.644531 89.683594 46.984375 90.210938 C 46.324219 90.734375 45.386719 90.996094 44.171875 90.996094 C 43.765625 90.996094 43.34375 90.957031 42.914062 90.875 C 42.480469 90.796875 42.035156 90.675781 41.574219 90.515625 L 41.574219 89.246094 C 41.9375 89.457031 42.339844 89.617188 42.769531 89.726562 C 43.207031 89.835938 43.660156 89.890625 44.132812 89.890625 C 44.957031 89.890625 45.585938 89.726562 46.015625 89.402344 C 46.449219 89.078125 46.664062 88.605469 46.664062 87.984375 C 46.664062 87.410156 46.464844 86.960938 46.0625 86.640625 C 45.660156 86.316406 45.101562 86.152344 44.386719 86.152344 L 43.253906 86.152344 L 43.253906 85.074219 L 44.441406 85.074219 C 45.085938 85.074219 45.582031 84.945312 45.921875 84.683594 C 46.265625 84.425781 46.4375 84.054688 46.4375 83.570312 C 46.4375 83.070312 46.261719 82.6875 45.90625 82.421875 C 45.554688 82.152344 45.046875 82.019531 44.386719 82.019531 C 44.027344 82.019531 43.640625 82.058594 43.226562 82.136719 C 42.816406 82.214844 42.363281 82.335938 41.867188 82.5 L 41.867188 81.328125 C 42.367188 81.191406 42.835938 81.085938 43.269531 81.015625 C 43.707031 80.945312 44.117188 80.914062 44.503906 80.914062 C 45.503906 80.914062 46.292969 81.140625 46.875 81.59375 C 47.457031 82.046875 47.746094 82.660156 47.746094 83.429688 C 47.746094 83.96875 47.59375 84.425781 47.285156 84.796875 C 46.976562 85.167969 46.539062 85.421875 45.96875 85.566406 Z M 45.96875 85.566406 "/>
<path style=" stroke:none;fill-rule:nonzero;fill:rgb(0%,0%,0%);fill-opacity:1;" d="M 53.28125 81.953125 C 52.601562 81.953125 52.09375 82.289062 51.753906 82.953125 C 51.410156 83.621094 51.242188 84.621094 51.242188 85.957031 C 51.242188 87.289062 51.410156 88.289062 51.753906 88.957031 C 52.09375 89.621094 52.601562 89.957031 53.28125 89.957031 C 53.960938 89.957031 54.472656 89.621094 54.8125 88.957031 C 55.15625 88.289062 55.324219 87.289062 55.324219 85.957031 C 55.324219 84.621094 55.15625 83.621094 54.8125 82.953125 C 54.472656 82.289062 53.960938 81.953125 53.28125 81.953125 Z M 53.28125 80.914062 C 54.371094 80.914062 55.203125 81.34375 55.777344 82.207031 C 56.351562 83.066406 56.640625 84.316406 56.640625 85.957031 C 56.640625 87.59375 56.351562 88.84375 55.777344 89.707031 C 55.203125 90.566406 54.371094 90.996094 53.28125 90.996094 C 52.191406 90.996094 51.359375 90.566406 50.785156 89.707031 C 50.207031 88.84375 49.921875 87.59375 49.921875 85.957031 C 49.921875 84.316406 50.207031 83.066406 50.785156 82.207031 C 51.359375 81.34375 52.191406 80.914062 53.28125 80.914062 Z M 53.28125 80.914062 "/>
<path style=" stroke:none;fill-rule:nonzero;fill:rgb(0%,0%,0%);fill-opacity:1;" d="M 61.761719 81.953125 C 61.085938 81.953125 60.578125 82.289062 60.234375 82.953125 C 59.894531 83.621094 59.726562 84.621094 59.726562 85.957031 C 59.726562 87.289062 59.894531 88.289062 60.234375 88.957031 C 60.578125 89.621094 61.085938 89.957031 61.761719 89.957031 C 62.445312 89.957031 62.957031 89.621094 63.296875 88.957031 C 63.636719 88.289062 63.808594 87.289062 63.808594 85.957031 C 63.808594 84.621094 63.636719 83.621094 63.296875 82.953125 C 62.957031 82.289062 62.445312 81.953125 61.761719 81.953125 Z M 61.761719 80.914062 C 62.851562 80.914062 63.683594 81.34375 64.261719 82.207031 C 64.835938 83.066406 65.121094 84.316406 65.121094 85.957031 C 65.121094 87.59375 64.835938 88.84375 64.261719 89.707031 C 63.683594 90.566406 62.851562 90.996094 61.761719 90.996094 C 60.671875 90.996094 59.839844 90.566406 59.265625 89.707031 C 58.691406 88.84375 58.402344 87.59375 58.402344 85.957031 C 58.402344 84.316406 58.691406 83.066406 59.265625 82.207031 C 59.839844 81.34375 60.671875 80.914062 61.761719 80.914062 Z M 61.761719 80.914062 "/>
<g clip-path="url(#clip11)" clip-rule="nonzero">
<path style="fill:none;stroke-width:0.8;stroke-linecap:square;stroke-linejoin:round;stroke:rgb(69.01961%,69.01961%,69.01961%);stroke-opacity:1;stroke-miterlimit:4;" d="M 56.504883 37.652344 L 251.806641 37.652344 " transform="matrix(1.333333,0,0,1.333333,0.000000000000028422,0)"/>
</g>
<path style="fill:none;stroke-width:0.8;stroke-linecap:butt;stroke-linejoin:round;stroke:rgb(0%,0%,0%);stroke-opacity:1;stroke-miterlimit:4;" d="M -0.00136566 -0.000720978 L -3.499413 -0.000720978 " transform="matrix(1.333333,0,0,1.333333,75.341665,50.204086)"/>
<path style=" stroke:none;fill-rule:nonzero;fill:rgb(0%,0%,0%);fill-opacity:1;" d="M 32.074219 46.414062 C 31.398438 46.414062 30.890625 46.75 30.546875 47.414062 C 30.207031 48.082031 30.039062 49.082031 30.039062 50.417969 C 30.039062 51.75 30.207031 52.75 30.546875 53.417969 C 30.890625 54.085938 31.398438 54.417969 32.074219 54.417969 C 32.757812 54.417969 33.269531 54.085938 33.609375 53.417969 C 33.949219 52.75 34.121094 51.75 34.121094 50.417969 C 34.121094 49.082031 33.949219 48.082031 33.609375 47.414062 C 33.269531 46.75 32.757812 46.414062 32.074219 46.414062 Z M 32.074219 45.375 C 33.164062 45.375 33.996094 45.804688 34.574219 46.667969 C 35.148438 47.527344 35.433594 48.78125 35.433594 50.417969 C 35.433594 52.054688 35.148438 53.304688 34.574219 54.167969 C 33.996094 55.027344 33.164062 55.460938 32.074219 55.460938 C 30.984375 55.460938 30.152344 55.027344 29.578125 54.167969 C 29.003906 53.304688 28.714844 52.054688 28.714844 50.417969 C 28.714844 48.78125 29.003906 47.527344 29.578125 46.667969 C 30.152344 45.804688 30.984375 45.375 32.074219 45.375 Z M 32.074219 45.375 "/>
<path style=" stroke:none;fill-rule:nonzero;fill:rgb(0%,0%,0%);fill-opacity:1;" d="M 37.746094 53.617188 L 39.121094 53.617188 L 39.121094 55.269531 L 37.746094 55.269531 Z M 37.746094 53.617188 "/>
<path style=" stroke:none;fill-rule:nonzero;fill:rgb(0%,0%,0%);fill-opacity:1;" d="M 45.96875 50.027344 C 46.597656 50.164062 47.089844 50.441406 47.441406 50.871094 C 47.796875 51.292969 47.972656 51.820312 47.972656 52.445312 C 47.972656 53.402344 47.644531 54.144531 46.984375 54.671875 C 46.324219 55.195312 45.386719 55.460938 44.171875 55.460938 C 43.765625 55.460938 43.34375 55.417969 42.914062 55.339844 C 42.480469 55.257812 42.035156 55.136719 41.574219 54.976562 L 41.574219 53.707031 C 41.9375 53.917969 42.339844 54.082031 42.769531 54.1875 C 43.207031 54.296875 43.660156 54.351562 44.132812 54.351562 C 44.957031 54.351562 45.585938 54.1875 46.015625 53.863281 C 46.449219 53.539062 46.664062 53.066406 46.664062 52.445312 C 46.664062 51.871094 46.464844 51.421875 46.0625 51.101562 C 45.660156 50.777344 45.101562 50.617188 44.386719 50.617188 L 43.253906 50.617188 L 43.253906 49.535156 L 44.441406 49.535156 C 45.085938 49.535156 45.582031 49.40625 45.921875 49.148438 C 46.265625 48.886719 46.4375 48.515625 46.4375 48.03125 C 46.4375 47.53125 46.261719 47.148438 45.90625 46.882812 C 45.554688 46.613281 45.046875 46.480469 44.386719 46.480469 C 44.027344 46.480469 43.640625 46.519531 43.226562 46.597656 C 42.816406 46.675781 42.363281 46.796875 41.867188 46.960938 L 41.867188 45.789062 C 42.367188 45.652344 42.835938 45.546875 43.269531 45.476562 C 43.707031 45.410156 44.117188 45.375 44.503906 45.375 C 45.503906 45.375 46.292969 45.601562 46.875 46.054688 C 47.457031 46.507812 47.746094 47.121094 47.746094 47.894531 C 47.746094 48.429688 47.59375 48.886719 47.285156 49.257812 C 46.976562 49.628906 46.539062 49.886719 45.96875 50.027344 Z M 45.96875 50.027344 "/>
<path style=" stroke:none;fill-rule:nonzero;fill:rgb(0%,0%,0%);fill-opacity:1;" d="M 51.601562 54.164062 L 56.191406 54.164062 L 56.191406 55.269531 L 50.019531 55.269531 L 50.019531 54.164062 C 50.519531 53.648438 51.199219 52.953125 52.058594 52.085938 C 52.921875 51.214844 53.460938 50.652344 53.683594 50.398438 C 54.105469 49.925781 54.398438 49.527344 54.566406 49.199219 C 54.734375 48.871094 54.816406 48.550781 54.816406 48.230469 C 54.816406 47.714844 54.636719 47.292969 54.273438 46.96875 C 53.910156 46.644531 53.4375 46.480469 52.855469 46.480469 C 52.445312 46.480469 52.007812 46.550781 51.550781 46.695312 C 51.09375 46.835938 50.605469 47.054688 50.082031 47.347656 L 50.082031 46.019531 C 50.613281 45.804688 51.105469 45.644531 51.566406 45.535156 C 52.027344 45.429688 52.449219 45.375 52.832031 45.375 C 53.839844 45.375 54.640625 45.625 55.238281 46.128906 C 55.839844 46.632812 56.136719 47.304688 56.136719 48.148438 C 56.136719 48.546875 56.0625 48.925781 55.914062 49.285156 C 55.765625 49.640625 55.492188 50.0625 55.097656 50.550781 C 54.988281 50.675781 54.644531 51.039062 54.0625 51.640625 C 53.480469 52.242188 52.660156 53.082031 51.601562 54.164062 Z M 51.601562 54.164062 "/>
<path style=" stroke:none;fill-rule:nonzero;fill:rgb(0%,0%,0%);fill-opacity:1;" d="M 58.964844 45.550781 L 64.128906 45.550781 L 64.128906 46.65625 L 60.167969 46.65625 L 60.167969 49.039062 C 60.359375 48.972656 60.550781 48.925781 60.738281 48.894531 C 60.929688 48.859375 61.121094 48.84375 61.316406 48.84375 C 62.398438 48.84375 63.257812 49.140625 63.890625 49.738281 C 64.527344 50.332031 64.84375 51.136719 64.84375 52.152344 C 64.84375 53.195312 64.519531 54.011719 63.867188 54.589844 C 63.214844 55.167969 62.296875 55.460938 61.113281 55.460938 C 60.703125 55.460938 60.289062 55.425781 59.863281 55.355469 C 59.441406 55.285156 59.003906 55.179688 58.554688 55.042969 L 58.554688 53.71875 C 58.945312 53.933594 59.347656 54.089844 59.765625 54.195312 C 60.179688 54.300781 60.621094 54.351562 61.085938 54.351562 C 61.835938 54.351562 62.429688 54.152344 62.867188 53.757812 C 63.308594 53.363281 63.527344 52.828125 63.527344 52.152344 C 63.527344 51.472656 63.308594 50.9375 62.867188 50.542969 C 62.429688 50.148438 61.835938 49.949219 61.085938 49.949219 C 60.734375 49.949219 60.382812 49.988281 60.035156 50.066406 C 59.683594 50.144531 59.328125 50.265625 58.964844 50.433594 Z M 58.964844 45.550781 "/>
<g clip-path="url(#clip12)" clip-rule="nonzero">
<path style="fill:none;stroke-width:0.8;stroke-linecap:square;stroke-linejoin:round;stroke:rgb(69.01961%,69.01961%,69.01961%);stroke-opacity:1;stroke-miterlimit:4;" d="M 56.504883 10.998047 L 251.806641 10.998047 " transform="matrix(1.333333,0,0,1.333333,0.000000000000028422,0)"/>
</g>
<path style="fill:none;stroke-width:0.8;stroke-linecap:butt;stroke-linejoin:round;stroke:rgb(0%,0%,0%);stroke-opacity:1;stroke-miterlimit:4;" d="M -0.00136566 -0.00117207 L -3.499413 -0.00117207 " transform="matrix(1.333333,0,0,1.333333,75.341665,14.665625)"/>
<path style=" stroke:none;fill-rule:nonzero;fill:rgb(0%,0%,0%);fill-opacity:1;" d="M 32.074219 10.878906 C 31.398438 10.878906 30.890625 11.210938 30.546875 11.878906 C 30.207031 12.542969 30.039062 13.542969 30.039062 14.882812 C 30.039062 16.214844 30.207031 17.210938 30.546875 17.878906 C 30.890625 18.546875 31.398438 18.878906 32.074219 18.878906 C 32.757812 18.878906 33.269531 18.546875 33.609375 17.878906 C 33.949219 17.210938 34.121094 16.214844 34.121094 14.882812 C 34.121094 13.542969 33.949219 12.542969 33.609375 11.878906 C 33.269531 11.210938 32.757812 10.878906 32.074219 10.878906 Z M 32.074219 9.835938 C 33.164062 9.835938 33.996094 10.265625 34.574219 11.128906 C 35.148438 11.992188 35.433594 13.242188 35.433594 14.882812 C 35.433594 16.515625 35.148438 17.765625 34.574219 18.628906 C 33.996094 19.492188 33.164062 19.921875 32.074219 19.921875 C 30.984375 19.921875 30.152344 19.492188 29.578125 18.628906 C 29.003906 17.765625 28.714844 16.515625 28.714844 14.882812 C 28.714844 13.242188 29.003906 11.992188 29.578125 11.128906 C 30.152344 10.265625 30.984375 9.835938 32.074219 9.835938 Z M 32.074219 9.835938 "/>
<path style=" stroke:none;fill-rule:nonzero;fill:rgb(0%,0%,0%);fill-opacity:1;" d="M 37.746094 18.078125 L 39.121094 18.078125 L 39.121094 19.730469 L 37.746094 19.730469 Z M 37.746094 18.078125 "/>
<path style=" stroke:none;fill-rule:nonzero;fill:rgb(0%,0%,0%);fill-opacity:1;" d="M 45.96875 14.488281 C 46.597656 14.625 47.089844 14.90625 47.441406 15.332031 C 47.796875 15.757812 47.972656 16.28125 47.972656 16.90625 C 47.972656 17.863281 47.644531 18.605469 46.984375 19.132812 C 46.324219 19.660156 45.386719 19.921875 44.171875 19.921875 C 43.765625 19.921875 43.34375 19.878906 42.914062 19.800781 C 42.480469 19.71875 42.035156 19.597656 41.574219 19.4375 L 41.574219 18.167969 C 41.9375 18.382812 42.339844 18.542969 42.769531 18.648438 C 43.207031 18.757812 43.660156 18.8125 44.132812 18.8125 C 44.957031 18.8125 45.585938 18.648438 46.015625 18.324219 C 46.449219 18 46.664062 17.527344 46.664062 16.90625 C 46.664062 16.332031 46.464844 15.882812 46.0625 15.5625 C 45.660156 15.238281 45.101562 15.078125 44.386719 15.078125 L 43.253906 15.078125 L 43.253906 13.996094 L 44.441406 13.996094 C 45.085938 13.996094 45.582031 13.867188 45.921875 13.609375 C 46.265625 13.351562 46.4375 12.976562 46.4375 12.492188 C 46.4375 11.992188 46.261719 11.609375 45.90625 11.34375 C 45.554688 11.074219 45.046875 10.941406 44.386719 10.941406 C 44.027344 10.941406 43.640625 10.980469 43.226562 11.058594 C 42.816406 11.136719 42.363281 11.257812 41.867188 11.421875 L 41.867188 10.253906 C 42.367188 10.113281 42.835938 10.007812 43.269531 9.941406 C 43.707031 9.871094 44.117188 9.835938 44.503906 9.835938 C 45.503906 9.835938 46.292969 10.0625 46.875 10.515625 C 47.457031 10.96875 47.746094 11.582031 47.746094 12.355469 C 47.746094 12.894531 47.59375 13.347656 47.285156 13.71875 C 46.976562 14.089844 46.539062 14.347656 45.96875 14.488281 Z M 45.96875 14.488281 "/>
<path style=" stroke:none;fill-rule:nonzero;fill:rgb(0%,0%,0%);fill-opacity:1;" d="M 50.480469 10.011719 L 55.644531 10.011719 L 55.644531 11.117188 L 51.6875 11.117188 L 51.6875 13.5 C 51.875 13.433594 52.066406 13.386719 52.257812 13.355469 C 52.449219 13.320312 52.640625 13.304688 52.832031 13.304688 C 53.917969 13.304688 54.773438 13.601562 55.410156 14.199219 C 56.042969 14.792969 56.359375 15.597656 56.359375 16.613281 C 56.359375 17.660156 56.035156 18.472656 55.382812 19.050781 C 54.730469 19.632812 53.8125 19.921875 52.628906 19.921875 C 52.222656 19.921875 51.804688 19.886719 51.382812 19.816406 C 50.960938 19.746094 50.523438 19.644531 50.070312 19.503906 L 50.070312 18.179688 C 50.460938 18.394531 50.863281 18.550781 51.28125 18.65625 C 51.699219 18.761719 52.136719 18.8125 52.601562 18.8125 C 53.355469 18.8125 53.949219 18.617188 54.386719 18.222656 C 54.824219 17.828125 55.042969 17.289062 55.042969 16.613281 C 55.042969 15.9375 54.824219 15.402344 54.386719 15.007812 C 53.949219 14.609375 53.355469 14.414062 52.601562 14.414062 C 52.25 14.414062 51.898438 14.453125 51.550781 14.527344 C 51.203125 14.605469 50.84375 14.726562 50.480469 14.894531 Z M 50.480469 10.011719 "/>
<path style=" stroke:none;fill-rule:nonzero;fill:rgb(0%,0%,0%);fill-opacity:1;" d="M 61.761719 10.878906 C 61.085938 10.878906 60.578125 11.210938 60.234375 11.878906 C 59.894531 12.542969 59.726562 13.542969 59.726562 14.882812 C 59.726562 16.214844 59.894531 17.210938 60.234375 17.878906 C 60.578125 18.546875 61.085938 18.878906 61.761719 18.878906 C 62.445312 18.878906 62.957031 18.546875 63.296875 17.878906 C 63.636719 17.210938 63.808594 16.214844 63.808594 14.882812 C 63.808594 13.542969 63.636719 12.542969 63.296875 11.878906 C 62.957031 11.210938 62.445312 10.878906 61.761719 10.878906 Z M 61.761719 9.835938 C 62.851562 9.835938 63.683594 10.265625 64.261719 11.128906 C 64.835938 11.992188 65.121094 13.242188 65.121094 14.882812 C 65.121094 16.515625 64.835938 17.765625 64.261719 18.628906 C 63.683594 19.492188 62.851562 19.921875 61.761719 19.921875 C 60.671875 19.921875 59.839844 19.492188 59.265625 18.628906 C 58.691406 17.765625 58.402344 16.515625 58.402344 14.882812 C 58.402344 13.242188 58.691406 11.992188 59.265625 11.128906 C 59.839844 10.265625 60.671875 9.835938 61.761719 9.835938 Z M 61.761719 9.835938 "/>
<path style=" stroke:none;fill-rule:nonzero;fill:rgb(0%,0%,0%);fill-opacity:1;" d="M 9.601562 118.6875 L 9.601562 117.488281 L 19.730469 117.488281 L 19.730469 118.6875 Z M 9.601562 118.6875 "/>
<path style=" stroke:none;fill-rule:nonzero;fill:rgb(0%,0%,0%);fill-opacity:1;" d="M 13.277344 112.15625 C 13.277344 112.796875 13.53125 113.304688 14.03125 113.679688 C 14.53125 114.054688 15.21875 114.242188 16.089844 114.242188 C 16.964844 114.242188 17.652344 114.054688 18.152344 113.683594 C 18.652344 113.3125 18.902344 112.804688 18.902344 112.15625 C 18.902344 111.519531 18.652344 111.011719 18.148438 110.640625 C 17.644531 110.265625 16.960938 110.078125 16.089844 110.078125 C 15.226562 110.078125 14.542969 110.265625 14.039062 110.640625 C 13.53125 111.011719 13.277344 111.519531 13.277344 112.15625 Z M 12.265625 112.15625 C 12.265625 111.117188 12.601562 110.296875 13.28125 109.703125 C 13.957031 109.105469 14.894531 108.808594 16.089844 108.808594 C 17.285156 108.808594 18.222656 109.105469 18.902344 109.703125 C 19.582031 110.296875 19.921875 111.117188 19.921875 112.15625 C 19.921875 113.203125 19.582031 114.023438 18.902344 114.617188 C 18.222656 115.207031 17.285156 115.503906 16.089844 115.503906 C 14.894531 115.503906 13.957031 115.207031 13.28125 114.617188 C 12.601562 114.023438 12.265625 113.203125 12.265625 112.15625 Z M 12.265625 112.15625 "/>
<path style=" stroke:none;fill-rule:nonzero;fill:rgb(0%,0%,0%);fill-opacity:1;" d="M 12.652344 102.175781 L 13.789062 102.175781 C 13.613281 102.515625 13.484375 102.867188 13.398438 103.230469 C 13.308594 103.59375 13.265625 103.972656 13.265625 104.363281 C 13.265625 104.957031 13.359375 105.40625 13.539062 105.703125 C 13.722656 106 13.996094 106.148438 14.359375 106.148438 C 14.636719 106.148438 14.855469 106.042969 15.015625 105.828125 C 15.171875 105.617188 15.324219 105.1875 15.464844 104.546875 L 15.558594 104.136719 C 15.742188 103.285156 15.996094 102.679688 16.328125 102.324219 C 16.660156 101.964844 17.125 101.785156 17.71875 101.785156 C 18.398438 101.785156 18.933594 102.054688 19.328125 102.589844 C 19.722656 103.125 19.921875 103.863281 19.921875 104.800781 C 19.921875 105.191406 19.882812 105.597656 19.804688 106.019531 C 19.730469 106.445312 19.617188 106.890625 19.464844 107.359375 L 18.226562 107.359375 C 18.457031 106.914062 18.628906 106.480469 18.746094 106.050781 C 18.859375 105.621094 18.917969 105.195312 18.917969 104.773438 C 18.917969 104.207031 18.820312 103.773438 18.628906 103.472656 C 18.433594 103.167969 18.160156 103.015625 17.808594 103.015625 C 17.484375 103.015625 17.234375 103.125 17.0625 103.34375 C 16.890625 103.5625 16.722656 104.042969 16.558594 104.785156 L 16.460938 105.203125 C 16.308594 105.945312 16.066406 106.480469 15.742188 106.8125 C 15.421875 107.140625 14.976562 107.304688 14.414062 107.304688 C 13.726562 107.304688 13.195312 107.0625 12.824219 106.578125 C 12.453125 106.089844 12.265625 105.398438 12.265625 104.503906 C 12.265625 104.0625 12.296875 103.648438 12.363281 103.257812 C 12.425781 102.867188 12.523438 102.503906 12.652344 102.175781 Z M 12.652344 102.175781 "/>
<path style=" stroke:none;fill-rule:nonzero;fill:rgb(0%,0%,0%);fill-opacity:1;" d="M 12.652344 95.230469 L 13.789062 95.230469 C 13.613281 95.566406 13.484375 95.917969 13.398438 96.285156 C 13.308594 96.648438 13.265625 97.027344 13.265625 97.417969 C 13.265625 98.011719 13.359375 98.457031 13.539062 98.753906 C 13.722656 99.050781 13.996094 99.199219 14.359375 99.199219 C 14.636719 99.199219 14.855469 99.09375 15.015625 98.882812 C 15.171875 98.667969 15.324219 98.242188 15.464844 97.597656 L 15.558594 97.1875 C 15.742188 96.339844 15.996094 95.734375 16.328125 95.375 C 16.660156 95.015625 17.125 94.839844 17.71875 94.839844 C 18.398438 94.839844 18.933594 95.105469 19.328125 95.640625 C 19.722656 96.179688 19.921875 96.914062 19.921875 97.851562 C 19.921875 98.242188 19.882812 98.648438 19.804688 99.074219 C 19.730469 99.496094 19.617188 99.941406 19.464844 100.410156 L 18.226562 100.410156 C 18.457031 99.96875 18.628906 99.53125 18.746094 99.101562 C 18.859375 98.671875 18.917969 98.246094 18.917969 97.824219 C 18.917969 97.261719 18.820312 96.828125 18.628906 96.527344 C 18.433594 96.222656 18.160156 96.070312 17.808594 96.070312 C 17.484375 96.070312 17.234375 96.179688 17.0625 96.398438 C 16.890625 96.617188 16.722656 97.097656 16.558594 97.839844 L 16.460938 98.257812 C 16.308594 99 16.066406 99.535156 15.742188 99.867188 C 15.421875 100.195312 14.976562 100.359375 14.414062 100.359375 C 13.726562 100.359375 13.195312 100.117188 12.824219 99.628906 C 12.453125 99.144531 12.265625 98.453125 12.265625 97.558594 C 12.265625 97.117188 12.296875 96.703125 12.363281 96.3125 C 12.425781 95.917969 12.523438 95.558594 12.652344 95.230469 Z M 12.652344 95.230469 "/>
<g clip-path="url(#clip13)" clip-rule="nonzero">
<path style="fill:none;stroke-width:1.5;stroke-linecap:square;stroke-linejoin:round;stroke:rgb(12.156863%,46.666667%,70.588237%);stroke-opacity:1;stroke-miterlimit:4;" d="M 95.566406 115.980469 L 134.625 120.169922 L 173.686523 119.455078 L 212.745117 117.234375 L 251.806641 113.475586 " transform="matrix(1.333333,0,0,1.333333,0.000000000000028422,0)"/>
</g>
<path style="fill:none;stroke-width:0.8;stroke-linecap:square;stroke-linejoin:miter;stroke:rgb(0%,0%,0%);stroke-opacity:1;stroke-miterlimit:4;" d="M 56.504883 149.598633 L 56.504883 10.998047 " transform="matrix(1.333333,0,0,1.333333,0.000000000000028422,0)"/>
<path style="fill:none;stroke-width:0.8;stroke-linecap:square;stroke-linejoin:miter;stroke:rgb(0%,0%,0%);stroke-opacity:1;stroke-miterlimit:4;" d="M 251.806641 149.598633 L 251.806641 10.998047 " transform="matrix(1.333333,0,0,1.333333,0.000000000000028422,0)"/>
<path style="fill:none;stroke-width:0.8;stroke-linecap:square;stroke-linejoin:miter;stroke:rgb(0%,0%,0%);stroke-opacity:1;stroke-miterlimit:4;" d="M 56.504883 149.598633 L 251.806641 149.598633 " transform="matrix(1.333333,0,0,1.333333,0.000000000000028422,0)"/>
<path style="fill:none;stroke-width:0.8;stroke-linecap:square;stroke-linejoin:miter;stroke:rgb(0%,0%,0%);stroke-opacity:1;stroke-miterlimit:4;" d="M 56.504883 10.998047 L 251.806641 10.998047 " transform="matrix(1.333333,0,0,1.333333,0.000000000000028422,0)"/>
</g>
</svg>
