<?xml version="1.0" encoding="UTF-8"?>
<svg xmlns="http://www.w3.org/2000/svg" xmlns:xlink="http://www.w3.org/1999/xlink" width="326.827087" height="244.474996" viewBox="0 0 326.827087 244.474996" version="1.1">
<defs>
<clipPath id="clip1">
  <path d="M 164 9.601562 L 317.226562 9.601562 L 317.226562 149 L 164 149 Z M 164 9.601562 "/>
</clipPath>
<clipPath id="clip2">
  <path d="M 116 9.601562 L 317.226562 9.601562 L 317.226562 188 L 116 188 Z M 116 9.601562 "/>
</clipPath>
<clipPath id="clip3">
  <path d="M 80 9.601562 L 182 9.601562 L 182 194.398438 L 80 194.398438 Z M 80 9.601562 "/>
</clipPath>
<clipPath id="clip4">
  <path d="M 56.828125 95 L 130 95 L 130 194.398438 L 56.828125 194.398438 Z M 56.828125 95 "/>
</clipPath>
<clipPath id="clip5">
  <path d="M 56.828125 155 L 91 155 L 91 194.398438 L 56.828125 194.398438 Z M 56.828125 155 "/>
</clipPath>
<clipPath id="clip6">
  <path d="M 56.828125 192 L 59 192 L 59 194.398438 L 56.828125 194.398438 Z M 56.828125 192 "/>
</clipPath>
</defs>
<g id="surface1">
<path style=" stroke:none;fill-rule:nonzero;fill:rgb(100%,100%,100%);fill-opacity:1;" d="M 0 244.476562 L 326.828125 244.476562 L 326.828125 0 L 0 0 Z M 0 244.476562 "/>
<path style=" stroke:none;fill-rule:nonzero;fill:rgb(100%,100%,100%);fill-opacity:1;" d="M 56.828125 194.398438 L 317.226562 194.398438 L 317.226562 9.601562 L 56.828125 9.601562 Z M 56.828125 194.398438 "/>
<path style="fill:none;stroke-width:0.8;stroke-linecap:butt;stroke-linejoin:round;stroke:rgb(0%,0%,0%);stroke-opacity:1;stroke-miterlimit:4;" d="M 0.000785828 -0.00117493 L 0.000785828 3.499802 " transform="matrix(1.333333,0,0,1.333333,117.858327,194.400004)"/>
<path style=" stroke:none;fill-rule:nonzero;fill:rgb(0%,0%,0%);fill-opacity:1;" d="M 109.441406 209.132812 L 117.789062 209.132812 L 117.789062 210.238281 L 109.441406 210.238281 Z M 109.441406 209.132812 "/>
<path style=" stroke:none;fill-rule:nonzero;fill:rgb(0%,0%,0%);fill-opacity:1;" d="M 124.242188 205.289062 L 120.921875 210.480469 L 124.242188 210.480469 Z M 123.894531 204.144531 L 125.550781 204.144531 L 125.550781 210.480469 L 126.9375 210.480469 L 126.9375 211.574219 L 125.550781 211.574219 L 125.550781 213.863281 L 124.242188 213.863281 L 124.242188 211.574219 L 119.855469 211.574219 L 119.855469 210.304688 Z M 123.894531 204.144531 "/>
<path style="fill:none;stroke-width:0.8;stroke-linecap:butt;stroke-linejoin:round;stroke:rgb(0%,0%,0%);stroke-opacity:1;stroke-miterlimit:4;" d="M 0.000778198 -0.00117493 L 0.000778198 3.499802 " transform="matrix(1.333333,0,0,1.333333,199.233337,194.400004)"/>
<path style=" stroke:none;fill-rule:nonzero;fill:rgb(0%,0%,0%);fill-opacity:1;" d="M 190.816406 209.132812 L 199.164062 209.132812 L 199.164062 210.238281 L 190.816406 210.238281 Z M 190.816406 209.132812 "/>
<path style=" stroke:none;fill-rule:nonzero;fill:rgb(0%,0%,0%);fill-opacity:1;" d="M 203.136719 212.757812 L 207.726562 212.757812 L 207.726562 213.863281 L 201.554688 213.863281 L 201.554688 212.757812 C 202.054688 212.242188 202.734375 211.546875 203.59375 210.679688 C 204.457031 209.808594 204.996094 209.246094 205.21875 208.992188 C 205.640625 208.523438 205.933594 208.121094 206.101562 207.792969 C 206.269531 207.464844 206.351562 207.144531 206.351562 206.828125 C 206.351562 206.308594 206.171875 205.890625 205.808594 205.566406 C 205.445312 205.238281 204.972656 205.074219 204.390625 205.074219 C 203.980469 205.074219 203.542969 205.148438 203.085938 205.289062 C 202.628906 205.433594 202.140625 205.648438 201.617188 205.941406 L 201.617188 204.613281 C 202.148438 204.398438 202.640625 204.238281 203.101562 204.132812 C 203.5625 204.023438 203.984375 203.96875 204.367188 203.96875 C 205.375 203.96875 206.175781 204.222656 206.773438 204.726562 C 207.375 205.226562 207.671875 205.898438 207.671875 206.742188 C 207.671875 207.140625 207.597656 207.519531 207.449219 207.878906 C 207.300781 208.234375 207.027344 208.65625 206.632812 209.144531 C 206.523438 209.269531 206.179688 209.632812 205.597656 210.234375 C 205.015625 210.835938 204.195312 211.679688 203.136719 212.757812 Z M 203.136719 212.757812 "/>
<path style="fill:none;stroke-width:0.8;stroke-linecap:butt;stroke-linejoin:round;stroke:rgb(0%,0%,0%);stroke-opacity:1;stroke-miterlimit:4;" d="M 0.000778198 -0.00117493 L 0.000778198 3.499802 " transform="matrix(1.333333,0,0,1.333333,280.608337,194.400004)"/>
<path style=" stroke:none;fill-rule:nonzero;fill:rgb(0%,0%,0%);fill-opacity:1;" d="M 280.605469 205.011719 C 279.929688 205.011719 279.417969 205.34375 279.078125 206.011719 C 278.738281 206.675781 278.566406 207.675781 278.566406 209.015625 C 278.566406 210.347656 278.738281 211.347656 279.078125 212.011719 C 279.417969 212.679688 279.929688 213.011719 280.605469 213.011719 C 281.285156 213.011719 281.796875 212.679688 282.136719 212.011719 C 282.480469 211.347656 282.648438 210.347656 282.648438 209.015625 C 282.648438 207.675781 282.480469 206.675781 282.136719 206.011719 C 281.796875 205.34375 281.285156 205.011719 280.605469 205.011719 Z M 280.605469 203.96875 C 281.695312 203.96875 282.527344 204.398438 283.101562 205.261719 C 283.675781 206.125 283.964844 207.375 283.964844 209.015625 C 283.964844 210.652344 283.675781 211.898438 283.101562 212.761719 C 282.527344 213.625 281.695312 214.054688 280.605469 214.054688 C 279.515625 214.054688 278.683594 213.625 278.109375 212.761719 C 277.535156 211.898438 277.246094 210.652344 277.246094 209.015625 C 277.246094 207.375 277.535156 206.125 278.109375 205.261719 C 278.683594 204.398438 279.515625 203.96875 280.605469 203.96875 Z M 280.605469 203.96875 "/>
<path style=" stroke:none;fill-rule:nonzero;fill:rgb(0%,0%,0%);fill-opacity:1;" d="M 186.160156 224.808594 L 183.519531 228.359375 L 186.292969 232.101562 L 184.882812 232.101562 L 182.757812 229.238281 L 180.636719 232.101562 L 179.222656 232.101562 L 182.054688 228.289062 L 179.464844 224.808594 L 180.878906 224.808594 L 182.808594 227.410156 L 184.742188 224.808594 Z M 186.160156 224.808594 "/>
<path style=" stroke:none;fill-rule:nonzero;fill:rgb(0%,0%,0%);fill-opacity:1;" d="M 188.382812 230.996094 L 190.53125 230.996094 L 190.53125 223.578125 L 188.195312 224.046875 L 188.195312 222.851562 L 190.519531 222.382812 L 191.835938 222.382812 L 191.835938 230.996094 L 193.980469 230.996094 L 193.980469 232.101562 L 188.382812 232.101562 Z M 188.382812 230.996094 "/>
<path style="fill:none;stroke-width:0.8;stroke-linecap:butt;stroke-linejoin:round;stroke:rgb(0%,0%,0%);stroke-opacity:1;stroke-miterlimit:4;" d="M 0.000782013 -0.00117493 L -3.500195 -0.00117493 " transform="matrix(1.333333,0,0,1.333333,56.827082,194.400004)"/>
<path style=" stroke:none;fill-rule:nonzero;fill:rgb(0%,0%,0%);fill-opacity:1;" d="M 29.25 194.730469 L 37.597656 194.730469 L 37.597656 195.839844 L 29.25 195.839844 Z M 29.25 194.730469 "/>
<path style=" stroke:none;fill-rule:nonzero;fill:rgb(0%,0%,0%);fill-opacity:1;" d="M 44.417969 194.222656 C 45.050781 194.359375 45.539062 194.640625 45.894531 195.066406 C 46.246094 195.492188 46.425781 196.015625 46.425781 196.640625 C 46.425781 197.597656 46.09375 198.339844 45.433594 198.867188 C 44.773438 199.394531 43.835938 199.65625 42.621094 199.65625 C 42.214844 199.65625 41.796875 199.613281 41.363281 199.535156 C 40.929688 199.453125 40.484375 199.332031 40.027344 199.171875 L 40.027344 197.902344 C 40.390625 198.117188 40.789062 198.277344 41.222656 198.382812 C 41.65625 198.492188 42.109375 198.546875 42.585938 198.546875 C 43.40625 198.546875 44.035156 198.382812 44.46875 198.058594 C 44.898438 197.734375 45.117188 197.261719 45.117188 196.640625 C 45.117188 196.066406 44.914062 195.617188 44.511719 195.296875 C 44.113281 194.972656 43.554688 194.8125 42.839844 194.8125 L 41.707031 194.8125 L 41.707031 193.730469 L 42.890625 193.730469 C 43.535156 193.730469 44.03125 193.601562 44.375 193.34375 C 44.71875 193.085938 44.886719 192.710938 44.886719 192.226562 C 44.886719 191.726562 44.710938 191.34375 44.355469 191.078125 C 44.003906 190.808594 43.5 190.675781 42.839844 190.675781 C 42.476562 190.675781 42.089844 190.714844 41.679688 190.792969 C 41.265625 190.871094 40.8125 190.992188 40.316406 191.15625 L 40.316406 189.988281 C 40.816406 189.847656 41.285156 189.742188 41.722656 189.675781 C 42.15625 189.605469 42.570312 189.570312 42.957031 189.570312 C 43.953125 189.570312 44.742188 189.796875 45.324219 190.25 C 45.90625 190.703125 46.195312 191.316406 46.195312 192.089844 C 46.195312 192.628906 46.042969 193.082031 45.734375 193.453125 C 45.425781 193.824219 44.988281 194.082031 44.417969 194.222656 Z M 44.417969 194.222656 "/>
<path style="fill:none;stroke-width:0.8;stroke-linecap:butt;stroke-linejoin:round;stroke:rgb(0%,0%,0%);stroke-opacity:1;stroke-miterlimit:4;" d="M 0.000782013 0.000183105 L -3.500195 0.000183105 " transform="matrix(1.333333,0,0,1.333333,56.827082,147.015381)"/>
<path style=" stroke:none;fill-rule:nonzero;fill:rgb(0%,0%,0%);fill-opacity:1;" d="M 29.25 147.347656 L 37.597656 147.347656 L 37.597656 148.453125 L 29.25 148.453125 Z M 29.25 147.347656 "/>
<path style=" stroke:none;fill-rule:nonzero;fill:rgb(0%,0%,0%);fill-opacity:1;" d="M 41.566406 150.976562 L 46.15625 150.976562 L 46.15625 152.082031 L 39.988281 152.082031 L 39.988281 150.976562 C 40.484375 150.457031 41.164062 149.765625 42.027344 148.894531 C 42.886719 148.023438 43.429688 147.464844 43.652344 147.210938 C 44.070312 146.738281 44.367188 146.339844 44.53125 146.011719 C 44.699219 145.683594 44.785156 145.359375 44.785156 145.042969 C 44.785156 144.527344 44.601562 144.105469 44.242188 143.78125 C 43.878906 143.453125 43.40625 143.292969 42.824219 143.292969 C 42.410156 143.292969 41.976562 143.363281 41.519531 143.507812 C 41.0625 143.648438 40.570312 143.867188 40.050781 144.15625 L 40.050781 142.828125 C 40.582031 142.617188 41.074219 142.457031 41.535156 142.347656 C 41.996094 142.238281 42.417969 142.183594 42.800781 142.183594 C 43.804688 142.183594 44.609375 142.4375 45.207031 142.941406 C 45.804688 143.445312 46.105469 144.117188 46.105469 144.957031 C 46.105469 145.359375 46.03125 145.738281 45.878906 146.09375 C 45.730469 146.453125 45.460938 146.875 45.0625 147.359375 C 44.957031 147.488281 44.609375 147.851562 44.027344 148.453125 C 43.449219 149.054688 42.628906 149.894531 41.566406 150.976562 Z M 41.566406 150.976562 "/>
<path style="fill:none;stroke-width:0.8;stroke-linecap:butt;stroke-linejoin:round;stroke:rgb(0%,0%,0%);stroke-opacity:1;stroke-miterlimit:4;" d="M 0.000782013 -0.00139618 L -3.500195 -0.00139618 " transform="matrix(1.333333,0,0,1.333333,56.827082,99.630768)"/>
<path style=" stroke:none;fill-rule:nonzero;fill:rgb(0%,0%,0%);fill-opacity:1;" d="M 29.25 99.964844 L 37.597656 99.964844 L 37.597656 101.070312 L 29.25 101.070312 Z M 29.25 99.964844 "/>
<path style=" stroke:none;fill-rule:nonzero;fill:rgb(0%,0%,0%);fill-opacity:1;" d="M 40.664062 103.589844 L 42.8125 103.589844 L 42.8125 96.171875 L 40.472656 96.640625 L 40.472656 95.445312 L 42.800781 94.976562 L 44.113281 94.976562 L 44.113281 103.589844 L 46.261719 103.589844 L 46.261719 104.695312 L 40.664062 104.695312 Z M 40.664062 103.589844 "/>
<path style="fill:none;stroke-width:0.8;stroke-linecap:butt;stroke-linejoin:round;stroke:rgb(0%,0%,0%);stroke-opacity:1;stroke-miterlimit:4;" d="M 0.000782013 -0.0000495911 L -3.500195 -0.0000495911 " transform="matrix(1.333333,0,0,1.333333,56.827082,52.24616)"/>
<path style=" stroke:none;fill-rule:nonzero;fill:rgb(0%,0%,0%);fill-opacity:1;" d="M 43.246094 48.457031 C 42.570312 48.457031 42.0625 48.789062 41.722656 49.457031 C 41.378906 50.121094 41.210938 51.125 41.210938 52.460938 C 41.210938 53.792969 41.378906 54.792969 41.722656 55.460938 C 42.0625 56.125 42.570312 56.460938 43.246094 56.460938 C 43.929688 56.460938 44.441406 56.125 44.78125 55.460938 C 45.121094 54.792969 45.292969 53.792969 45.292969 52.460938 C 45.292969 51.125 45.121094 50.121094 44.78125 49.457031 C 44.441406 48.789062 43.929688 48.457031 43.246094 48.457031 Z M 43.246094 47.414062 C 44.339844 47.414062 45.171875 47.847656 45.746094 48.710938 C 46.320312 49.570312 46.609375 50.820312 46.609375 52.460938 C 46.609375 54.097656 46.320312 55.347656 45.746094 56.210938 C 45.171875 57.070312 44.339844 57.5 43.246094 57.5 C 42.160156 57.5 41.328125 57.070312 40.753906 56.210938 C 40.175781 55.347656 39.890625 54.097656 39.890625 52.460938 C 39.890625 50.820312 40.175781 49.570312 40.753906 48.710938 C 41.328125 47.847656 42.160156 47.414062 43.246094 47.414062 Z M 43.246094 47.414062 "/>
<path style=" stroke:none;fill-rule:nonzero;fill:rgb(0%,0%,0%);fill-opacity:1;" d="M 12.441406 102.867188 L 15.988281 105.507812 L 19.730469 102.734375 L 19.730469 104.144531 L 16.867188 106.269531 L 19.730469 108.390625 L 19.730469 109.804688 L 15.917969 106.972656 L 12.441406 109.5625 L 12.441406 108.148438 L 15.039062 106.214844 L 12.441406 104.285156 Z M 12.441406 102.867188 "/>
<path style=" stroke:none;fill-rule:nonzero;fill:rgb(0%,0%,0%);fill-opacity:1;" d="M 18.625 99.738281 L 18.625 95.148438 L 19.730469 95.148438 L 19.730469 101.320312 L 18.625 101.320312 C 18.109375 100.820312 17.414062 100.140625 16.546875 99.28125 C 15.675781 98.417969 15.113281 97.875 14.859375 97.65625 C 14.386719 97.234375 13.988281 96.941406 13.660156 96.773438 C 13.332031 96.605469 13.011719 96.523438 12.695312 96.523438 C 12.175781 96.523438 11.757812 96.703125 11.429688 97.066406 C 11.105469 97.429688 10.941406 97.898438 10.941406 98.480469 C 10.941406 98.894531 11.011719 99.332031 11.15625 99.789062 C 11.300781 100.246094 11.515625 100.734375 11.808594 101.253906 L 10.480469 101.253906 C 10.265625 100.726562 10.105469 100.230469 9.996094 99.773438 C 9.890625 99.3125 9.835938 98.890625 9.835938 98.507812 C 9.835938 97.5 10.085938 96.699219 10.589844 96.097656 C 11.09375 95.5 11.765625 95.199219 12.609375 95.199219 C 13.007812 95.199219 13.386719 95.277344 13.746094 95.425781 C 14.101562 95.574219 14.523438 95.847656 15.011719 96.242188 C 15.136719 96.351562 15.5 96.695312 16.101562 97.277344 C 16.703125 97.859375 17.542969 98.679688 18.625 99.738281 Z M 18.625 99.738281 "/>
<path style="fill:none;stroke-width:1.5;stroke-linecap:square;stroke-linejoin:round;stroke:rgb(100%,49.803922%,5.490196%);stroke-opacity:1;stroke-miterlimit:4;" d="M 57.878906 110.261719 L 85.098633 83.81543 L 107.384766 72.205078 L 130.998047 55.189453 L 146.671875 46.004883 L 160.004883 42.477539 L 164.709961 44.361328 L 169.939453 38.416992 L 178.628906 40.415039 L 184.514648 40.072266 L 189.102539 41.390625 L 193.96582 42.914062 L 194.768555 41.90918 L 196.602539 39.451172 L 199.5 42.131836 L 203.165039 43.998047 L 202.555664 38.525391 L 202.03418 40.136719 L 205.03125 37.693359 L 206.009766 38.496094 L 207.310547 39.331055 L 209.358398 39.389648 L 212.619141 39.697266 L 211.101562 42.755859 L 209.99707 45.123047 L 210.017578 43.007812 L 211.207031 44.466797 L 211.007812 43.608398 L 210.723633 46.790039 L 207.275391 46.142578 L 209.390625 45.75293 L 210.269531 41.285156 L 209.510742 40.69043 L 211.514648 41.024414 L 210.74707 39.325195 L 210.943359 37.300781 L 208.268555 39.644531 L 209.396484 39.729492 L 210.732422 40.658203 L 211.291992 40.119141 L 210.732422 41.566406 L 210.366211 42.117187 L 208.910156 41.882812 L 209.355469 40.016602 L 207.210938 36.943359 L 207.005859 35.455078 L 206.62207 32.689453 L 208.22168 34.476562 L 209.610352 34.631836 L 210.849609 36.363281 L 211.21875 35.068359 " transform="matrix(1.333333,0,0,1.333333,0,0.000000000000014211)"/>
<path style="fill-rule:nonzero;fill:rgb(100%,49.803922%,5.490196%);fill-opacity:1;stroke-width:1;stroke-linecap:butt;stroke-linejoin:round;stroke:rgb(100%,49.803922%,5.490196%);stroke-opacity:1;stroke-miterlimit:4;" d="M 0.000782013 3.000183 C 0.794727 3.000183 1.559376 2.683777 2.121876 2.121277 C 2.684376 1.558777 3.000782 0.797058 3.000782 0.000183105 C 3.000782 -0.796692 2.684376 -1.558411 2.121876 -2.120911 C 1.559376 -2.683411 0.794727 -2.999817 0.000782013 -2.999817 C -0.796093 -2.999817 -1.557812 -2.683411 -2.120312 -2.120911 C -2.682812 -1.558411 -2.999218 -0.796692 -2.999218 0.000183105 C -2.999218 0.797058 -2.682812 1.558777 -2.120312 2.121277 C -1.557812 2.683777 -0.796093 3.000183 0.000782013 3.000183 Z M 0.000782013 3.000183 " transform="matrix(1.333333,0,0,1.333333,77.170832,147.015381)"/>
<path style="fill-rule:nonzero;fill:rgb(100%,49.803922%,5.490196%);fill-opacity:1;stroke-width:1;stroke-linecap:butt;stroke-linejoin:round;stroke:rgb(100%,49.803922%,5.490196%);stroke-opacity:1;stroke-miterlimit:4;" d="M 0.000183105 2.999641 C 0.797058 2.999641 1.558777 2.683235 2.121277 2.120735 C 2.683777 1.558235 3.000183 0.796516 3.000183 -0.000358582 C 3.000183 -0.794304 2.683777 -1.558952 2.121277 -2.121452 C 1.558777 -2.683952 0.797058 -3.000359 0.000183105 -3.000359 C -0.796692 -3.000359 -1.558411 -2.683952 -2.120911 -2.121452 C -2.683411 -1.558952 -2.999817 -0.794304 -2.999817 -0.000358582 C -2.999817 0.796516 -2.683411 1.558235 -2.120911 2.120735 C -1.558411 2.683235 -0.796692 2.999641 0.000183105 2.999641 Z M 0.000183105 2.999641 " transform="matrix(1.333333,0,0,1.333333,113.4646,111.754384)"/>
<path style="fill-rule:nonzero;fill:rgb(100%,49.803922%,5.490196%);fill-opacity:1;stroke-width:1;stroke-linecap:butt;stroke-linejoin:round;stroke:rgb(100%,49.803922%,5.490196%);stroke-opacity:1;stroke-miterlimit:4;" d="M -0.000442505 2.999954 C 0.796432 2.999954 1.558151 2.683548 2.120651 2.121048 C 2.683151 1.558548 2.999557 0.796829 2.999557 -0.0000457764 C 2.999557 -0.796921 2.683151 -1.55864 2.120651 -2.12114 C 1.558151 -2.68364 0.796432 -3.000046 -0.000442505 -3.000046 C -0.794388 -3.000046 -1.559036 -2.68364 -2.121536 -2.12114 C -2.684036 -1.55864 -3.000443 -0.796921 -3.000443 -0.0000457764 C -3.000443 0.796829 -2.684036 1.558548 -2.121536 2.121048 C -1.559036 2.683548 -0.794388 2.999954 -0.000442505 2.999954 Z M -0.000442505 2.999954 " transform="matrix(1.333333,0,0,1.333333,143.180278,96.273499)"/>
<path style="fill-rule:nonzero;fill:rgb(100%,49.803922%,5.490196%);fill-opacity:1;stroke-width:1;stroke-linecap:butt;stroke-linejoin:round;stroke:rgb(100%,49.803922%,5.490196%);stroke-opacity:1;stroke-miterlimit:4;" d="M -0.00123596 3.000225 C 0.795639 3.000225 1.557358 2.683819 2.119858 2.121319 C 2.685287 1.558819 2.998764 0.79417 2.998764 0.000225067 C 2.998764 -0.79665 2.685287 -1.558369 2.119858 -2.120869 C 1.557358 -2.683369 0.795639 -2.999775 -0.00123596 -2.999775 C -0.795181 -2.999775 -1.55983 -2.683369 -2.12233 -2.120869 C -2.68483 -1.558369 -3.001236 -0.79665 -3.001236 0.000225067 C -3.001236 0.79417 -2.68483 1.558819 -2.12233 2.121319 C -1.55983 2.683819 -0.795181 3.000225 -0.00123596 3.000225 Z M -0.00123596 3.000225 " transform="matrix(1.333333,0,0,1.333333,174.66571,73.585637)"/>
<path style="fill-rule:nonzero;fill:rgb(100%,49.803922%,5.490196%);fill-opacity:1;stroke-width:1;stroke-linecap:butt;stroke-linejoin:round;stroke:rgb(100%,49.803922%,5.490196%);stroke-opacity:1;stroke-miterlimit:4;" d="M 0.0000457764 3.000809 C 0.796921 3.000809 1.55864 2.684402 2.12114 2.121902 C 2.68364 1.559402 3.000046 0.794754 3.000046 0.000808716 C 3.000046 -0.796066 2.68364 -1.557785 2.12114 -2.120285 C 1.55864 -2.682785 0.796921 -2.999191 0.0000457764 -2.999191 C -0.796829 -2.999191 -1.558548 -2.682785 -2.121048 -2.120285 C -2.683548 -1.557785 -2.999954 -0.796066 -2.999954 0.000808716 C -2.999954 0.794754 -2.683548 1.559402 -2.121048 2.121902 C -1.558548 2.684402 -0.796829 3.000809 0.0000457764 3.000809 Z M 0.0000457764 3.000809 " transform="matrix(1.333333,0,0,1.333333,195.562439,61.338765)"/>
<path style="fill-rule:nonzero;fill:rgb(100%,49.803922%,5.490196%);fill-opacity:1;stroke-width:1;stroke-linecap:butt;stroke-linejoin:round;stroke:rgb(100%,49.803922%,5.490196%);stroke-opacity:1;stroke-miterlimit:4;" d="M -0.00125122 2.999084 C 0.795624 2.999084 1.557343 2.682678 2.122772 2.120178 C 2.685272 1.557678 2.998749 0.795959 2.998749 -0.000915527 C 2.998749 -0.794861 2.685272 -1.559509 2.122772 -2.122009 C 1.557343 -2.684509 0.795624 -3.000916 -0.00125122 -3.000916 C -0.795197 -3.000916 -1.559845 -2.684509 -2.122345 -2.122009 C -2.684845 -1.559509 -3.001251 -0.794861 -3.001251 -0.000915527 C -3.001251 0.795959 -2.684845 1.557678 -2.122345 2.120178 C -1.559845 2.682678 -0.795197 2.999084 -0.00125122 2.999084 Z M -0.00125122 2.999084 " transform="matrix(1.333333,0,0,1.333333,213.341512,56.637939)"/>
<path style="fill-rule:nonzero;fill:rgb(100%,49.803922%,5.490196%);fill-opacity:1;stroke-width:1;stroke-linecap:butt;stroke-linejoin:round;stroke:rgb(100%,49.803922%,5.490196%);stroke-opacity:1;stroke-miterlimit:4;" d="M -0.000976562 2.999088 C 0.795898 2.999088 1.557617 2.682682 2.120117 2.120182 C 2.682617 1.557682 2.999023 0.795963 2.999023 -0.000911713 C 2.999023 -0.794857 2.682617 -1.559505 2.120117 -2.122005 C 1.557617 -2.684505 0.795898 -3.000912 -0.000976562 -3.000912 C -0.794922 -3.000912 -1.55957 -2.684505 -2.12207 -2.122005 C -2.68457 -1.559505 -3.000977 -0.794857 -3.000977 -0.000911713 C -3.000977 0.795963 -2.68457 1.557682 -2.12207 2.120182 C -1.55957 2.682682 -0.794922 2.999088 -0.000976562 2.999088 Z M -0.000976562 2.999088 " transform="matrix(1.333333,0,0,1.333333,219.614583,59.149653)"/>
<path style="fill-rule:nonzero;fill:rgb(100%,49.803922%,5.490196%);fill-opacity:1;stroke-width:1;stroke-linecap:butt;stroke-linejoin:round;stroke:rgb(100%,49.803922%,5.490196%);stroke-opacity:1;stroke-miterlimit:4;" d="M 0.00131226 3.000599 C 0.795258 3.000599 1.559906 2.684193 2.122406 2.121693 C 2.684906 1.559193 3.001312 0.794544 3.001312 0.000598907 C 3.001312 -0.796276 2.684906 -1.557995 2.122406 -2.120495 C 1.559906 -2.682995 0.795258 -2.999401 0.00131226 -2.999401 C -0.795563 -2.999401 -1.557281 -2.682995 -2.122711 -2.120495 C -2.685211 -1.557995 -2.998688 -0.796276 -2.998688 0.000598907 C -2.998688 0.794544 -2.685211 1.559193 -2.122711 2.121693 C -1.557281 2.684193 -0.795563 3.000599 0.00131226 3.000599 Z M 0.00131226 3.000599 " transform="matrix(1.333333,0,0,1.333333,226.584188,51.221858)"/>
<path style="fill-rule:nonzero;fill:rgb(100%,49.803922%,5.490196%);fill-opacity:1;stroke-width:1;stroke-linecap:butt;stroke-linejoin:round;stroke:rgb(100%,49.803922%,5.490196%);stroke-opacity:1;stroke-miterlimit:4;" d="M -0.000137329 3.000923 C 0.796738 3.000923 1.558456 2.684517 2.120956 2.122017 C 2.683456 1.559517 2.999863 0.794868 2.999863 0.000923157 C 2.999863 -0.795952 2.683456 -1.557671 2.120956 -2.120171 C 1.558456 -2.682671 0.796738 -2.999077 -0.000137329 -2.999077 C -0.797012 -2.999077 -1.558731 -2.682671 -2.121231 -2.120171 C -2.683731 -1.557671 -3.000137 -0.795952 -3.000137 0.000923157 C -3.000137 0.794868 -2.683731 1.559517 -2.121231 2.122017 C -1.558731 2.684517 -0.797012 3.000923 -0.000137329 3.000923 Z M -0.000137329 3.000923 " transform="matrix(1.333333,0,0,1.333333,238.172058,53.885488)"/>
<path style="fill-rule:nonzero;fill:rgb(100%,49.803922%,5.490196%);fill-opacity:1;stroke-width:1;stroke-linecap:butt;stroke-linejoin:round;stroke:rgb(100%,49.803922%,5.490196%);stroke-opacity:1;stroke-miterlimit:4;" d="M -0.00143433 3.000355 C 0.795441 3.000355 1.560089 2.683949 2.122589 2.121449 C 2.685089 1.558949 2.998566 0.7943 2.998566 0.000354767 C 2.998566 -0.79652 2.685089 -1.558239 2.122589 -2.120739 C 1.560089 -2.683239 0.795441 -2.999645 -0.00143433 -2.999645 C -0.79538 -2.999645 -1.560028 -2.683239 -2.122528 -2.120739 C -2.685028 -1.558239 -3.001434 -0.79652 -3.001434 0.000354767 C -3.001434 0.7943 -2.685028 1.558949 -2.122528 2.121449 C -1.560028 2.683949 -0.79538 3.000355 -0.00143433 3.000355 Z M -0.00143433 3.000355 " transform="matrix(1.333333,0,0,1.333333,246.021444,53.429214)"/>
<path style="fill-rule:nonzero;fill:rgb(100%,49.803922%,5.490196%);fill-opacity:1;stroke-width:1;stroke-linecap:butt;stroke-linejoin:round;stroke:rgb(100%,49.803922%,5.490196%);stroke-opacity:1;stroke-miterlimit:4;" d="M 0.000991821 3.000027 C 0.794937 3.000027 1.559586 2.68362 2.122086 2.12112 C 2.684586 1.55862 3.000992 0.796902 3.000992 0.0000267029 C 3.000992 -0.796848 2.684586 -1.558567 2.122086 -2.121067 C 1.559586 -2.683567 0.794937 -2.999973 0.000991821 -2.999973 C -0.795883 -2.999973 -1.557602 -2.683567 -2.120102 -2.121067 C -2.682602 -1.558567 -2.999008 -0.796848 -2.999008 0.0000267029 C -2.999008 0.796902 -2.682602 1.55862 -2.120102 2.12112 C -1.557602 2.68362 -0.795883 3.000027 0.000991821 3.000027 Z M 0.000991821 3.000027 " transform="matrix(1.333333,0,0,1.333333,252.135396,55.187464)"/>
<path style="fill-rule:nonzero;fill:rgb(100%,49.803922%,5.490196%);fill-opacity:1;stroke-width:1;stroke-linecap:butt;stroke-linejoin:round;stroke:rgb(100%,49.803922%,5.490196%);stroke-opacity:1;stroke-miterlimit:4;" d="M -0.00123596 2.999107 C 0.795639 2.999107 1.557358 2.682701 2.119858 2.120201 C 2.685287 1.557701 2.998764 0.795982 2.998764 -0.000892639 C 2.998764 -0.794838 2.685287 -1.559486 2.119858 -2.121986 C 1.557358 -2.684486 0.795639 -3.000893 -0.00123596 -3.000893 C -0.795181 -3.000893 -1.55983 -2.684486 -2.12233 -2.121986 C -2.68483 -1.559486 -3.001236 -0.794838 -3.001236 -0.000892639 C -3.001236 0.795982 -2.68483 1.557701 -2.12233 2.120201 C -1.55983 2.682701 -0.795181 2.999107 -0.00123596 2.999107 Z M -0.00123596 2.999107 " transform="matrix(1.333333,0,0,1.333333,258.622742,57.21994)"/>
<path style="fill-rule:nonzero;fill:rgb(100%,49.803922%,5.490196%);fill-opacity:1;stroke-width:1;stroke-linecap:butt;stroke-linejoin:round;stroke:rgb(100%,49.803922%,5.490196%);stroke-opacity:1;stroke-miterlimit:4;" d="M 0.00119019 2.998974 C 0.795135 2.998974 1.559784 2.682568 2.122284 2.120068 C 2.684784 1.557568 3.00119 0.795849 3.00119 -0.00102615 C 3.00119 -0.794971 2.684784 -1.55962 2.122284 -2.12212 C 1.559784 -2.68462 0.795135 -3.001026 0.00119019 -3.001026 C -0.795685 -3.001026 -1.557404 -2.68462 -2.119904 -2.12212 C -2.685333 -1.55962 -2.99881 -0.794971 -2.99881 -0.00102615 C -2.99881 0.795849 -2.685333 1.557568 -2.119904 2.120068 C -1.557404 2.682568 -0.795685 2.998974 0.00119019 2.998974 Z M 0.00119019 2.998974 " transform="matrix(1.333333,0,0,1.333333,259.689819,55.880274)"/>
<path style="fill-rule:nonzero;fill:rgb(100%,49.803922%,5.490196%);fill-opacity:1;stroke-width:1;stroke-linecap:butt;stroke-linejoin:round;stroke:rgb(100%,49.803922%,5.490196%);stroke-opacity:1;stroke-miterlimit:4;" d="M 0.000106812 2.999989 C 0.796982 2.999989 1.558701 2.683582 2.121201 2.121082 C 2.683701 1.558582 3.000107 0.796864 3.000107 -0.0000114441 C 3.000107 -0.796886 2.683701 -1.558605 2.121201 -2.121105 C 1.558701 -2.683605 0.796982 -3.000011 0.000106812 -3.000011 C -0.796768 -3.000011 -1.558487 -2.683605 -2.120987 -2.121105 C -2.683487 -1.558605 -2.999893 -0.796886 -2.999893 -0.0000114441 C -2.999893 0.796864 -2.683487 1.558582 -2.120987 2.121082 C -1.558487 2.683582 -0.796768 2.999989 0.000106812 2.999989 Z M 0.000106812 2.999989 " transform="matrix(1.333333,0,0,1.333333,262.136576,52.601578)"/>
<path style="fill-rule:nonzero;fill:rgb(100%,49.803922%,5.490196%);fill-opacity:1;stroke-width:1;stroke-linecap:butt;stroke-linejoin:round;stroke:rgb(100%,49.803922%,5.490196%);stroke-opacity:1;stroke-miterlimit:4;" d="M -0.00141907 3.000568 C 0.795456 3.000568 1.560104 2.684162 2.122604 2.121662 C 2.685104 1.559162 2.998581 0.794514 2.998581 0.00056839 C 2.998581 -0.796307 2.685104 -1.558025 2.122604 -2.120525 C 1.560104 -2.683025 0.795456 -2.999432 -0.00141907 -2.999432 C -0.795364 -2.999432 -1.560013 -2.683025 -2.122513 -2.120525 C -2.685013 -1.558025 -3.001419 -0.796307 -3.001419 0.00056839 C -3.001419 0.794514 -2.685013 1.559162 -2.122513 2.121662 C -1.560013 2.684162 -0.795364 3.000568 -0.00141907 3.000568 Z M -0.00141907 3.000568 " transform="matrix(1.333333,0,0,1.333333,266.001892,56.175023)"/>
<path style="fill-rule:nonzero;fill:rgb(100%,49.803922%,5.490196%);fill-opacity:1;stroke-width:1;stroke-linecap:butt;stroke-linejoin:round;stroke:rgb(100%,49.803922%,5.490196%);stroke-opacity:1;stroke-miterlimit:4;" d="M -0.0000152588 2.998669 C 0.79686 2.998669 1.558578 2.685192 2.121078 2.122692 C 2.683578 1.560192 2.999985 0.795544 2.999985 -0.00133133 C 2.999985 -0.795277 2.683578 -1.559925 2.121078 -2.122425 C 1.558578 -2.684925 0.79686 -3.001331 -0.0000152588 -3.001331 C -0.79689 -3.001331 -1.558609 -2.684925 -2.121109 -2.122425 C -2.683609 -1.559925 -3.000015 -0.795277 -3.000015 -0.00133133 C -3.000015 0.795544 -2.683609 1.560192 -2.121109 2.122692 C -1.558609 2.685192 -0.79689 2.998669 -0.0000152588 2.998669 Z M -0.0000152588 2.998669 " transform="matrix(1.333333,0,0,1.333333,270.886739,58.665838)"/>
<path style="fill-rule:nonzero;fill:rgb(100%,49.803922%,5.490196%);fill-opacity:1;stroke-width:1;stroke-linecap:butt;stroke-linejoin:round;stroke:rgb(100%,49.803922%,5.490196%);stroke-opacity:1;stroke-miterlimit:4;" d="M -0.000167847 3.001427 C 0.796707 3.001427 1.558426 2.68502 2.120926 2.12252 C 2.683426 1.56002 2.999832 0.795372 2.999832 0.0014267 C 2.999832 -0.795448 2.683426 -1.560097 2.120926 -2.122597 C 1.558426 -2.685097 0.796707 -2.998573 -0.000167847 -2.998573 C -0.797043 -2.998573 -1.558762 -2.685097 -2.121262 -2.122597 C -2.683762 -1.560097 -3.000168 -0.795448 -3.000168 0.0014267 C -3.000168 0.795372 -2.683762 1.56002 -2.121262 2.12252 C -1.558762 2.68502 -0.797043 3.001427 -0.000167847 3.001427 Z M -0.000167847 3.001427 " transform="matrix(1.333333,0,0,1.333333,270.074443,51.365285)"/>
<path style="fill-rule:nonzero;fill:rgb(100%,49.803922%,5.490196%);fill-opacity:1;stroke-width:1;stroke-linecap:butt;stroke-linejoin:round;stroke:rgb(100%,49.803922%,5.490196%);stroke-opacity:1;stroke-miterlimit:4;" d="M -0.000106812 3.000214 C 0.796768 3.000214 1.558487 2.683807 2.120987 2.121307 C 2.683487 1.558807 2.999893 0.794159 2.999893 0.000213623 C 2.999893 -0.796661 2.683487 -1.55838 2.120987 -2.12088 C 1.558487 -2.68338 0.796768 -2.999786 -0.000106812 -2.999786 C -0.796982 -2.999786 -1.558701 -2.68338 -2.121201 -2.12088 C -2.683701 -1.55838 -3.000107 -0.796661 -3.000107 0.000213623 C -3.000107 0.794159 -2.683701 1.558807 -2.121201 2.121307 C -1.558701 2.683807 -0.796982 3.000214 -0.000106812 3.000214 Z M -0.000106812 3.000214 " transform="matrix(1.333333,0,0,1.333333,269.379049,53.51534)"/>
<path style="fill-rule:nonzero;fill:rgb(100%,49.803922%,5.490196%);fill-opacity:1;stroke-width:1;stroke-linecap:butt;stroke-linejoin:round;stroke:rgb(100%,49.803922%,5.490196%);stroke-opacity:1;stroke-miterlimit:4;" d="M 0.00146484 3.000626 C 0.79541 3.000626 1.560059 2.684219 2.122559 2.121719 C 2.685059 1.559219 3.001465 0.794571 3.001465 0.00062561 C 3.001465 -0.796249 2.685059 -1.557968 2.122559 -2.120468 C 1.560059 -2.682968 0.79541 -2.999374 0.00146484 -2.999374 C -0.79541 -2.999374 -1.560059 -2.682968 -2.122559 -2.120468 C -2.685059 -1.557968 -2.998535 -0.796249 -2.998535 0.00062561 C -2.998535 0.794571 -2.685059 1.559219 -2.122559 2.121719 C -1.560059 2.684219 -0.79541 3.000626 0.00146484 3.000626 Z M 0.00146484 3.000626 " transform="matrix(1.333333,0,0,1.333333,273.373047,50.256978)"/>
<path style="fill-rule:nonzero;fill:rgb(100%,49.803922%,5.490196%);fill-opacity:1;stroke-width:1;stroke-linecap:butt;stroke-linejoin:round;stroke:rgb(100%,49.803922%,5.490196%);stroke-opacity:1;stroke-miterlimit:4;" d="M 0.00131226 2.999252 C 0.795258 2.999252 1.559906 2.682846 2.122406 2.120346 C 2.684906 1.557846 3.001312 0.796127 3.001312 -0.000747681 C 3.001312 -0.794693 2.684906 -1.559341 2.122406 -2.121841 C 1.559906 -2.684341 0.795258 -3.000748 0.00131226 -3.000748 C -0.795563 -3.000748 -1.557281 -2.684341 -2.122711 -2.121841 C -2.685211 -1.559341 -2.998688 -0.794693 -2.998688 -0.000747681 C -2.998688 0.796127 -2.685211 1.557846 -2.122711 2.120346 C -1.557281 2.682846 -0.795563 2.999252 0.00131226 2.999252 Z M 0.00131226 2.999252 " transform="matrix(1.333333,0,0,1.333333,274.677938,51.329122)"/>
<path style="fill-rule:nonzero;fill:rgb(100%,49.803922%,5.490196%);fill-opacity:1;stroke-width:1;stroke-linecap:butt;stroke-linejoin:round;stroke:rgb(100%,49.803922%,5.490196%);stroke-opacity:1;stroke-miterlimit:4;" d="M 0.00038147 2.998707 C 0.794327 2.998707 1.558975 2.68523 2.121475 2.12273 C 2.683975 1.557301 3.000381 0.795582 3.000381 -0.00129318 C 3.000381 -0.795238 2.683975 -1.559887 2.121475 -2.122387 C 1.558975 -2.684887 0.794327 -3.001293 0.00038147 -3.001293 C -0.796494 -3.001293 -1.558212 -2.684887 -2.120712 -2.122387 C -2.683212 -1.559887 -2.999619 -0.795238 -2.999619 -0.00129318 C -2.999619 0.795582 -2.683212 1.557301 -2.120712 2.12273 C -1.558212 2.68523 -0.796494 2.998707 0.00038147 2.998707 Z M 0.00038147 2.998707 " transform="matrix(1.333333,0,0,1.333333,276.413554,52.44313)"/>
<path style="fill-rule:nonzero;fill:rgb(100%,49.803922%,5.490196%);fill-opacity:1;stroke-width:1;stroke-linecap:butt;stroke-linejoin:round;stroke:rgb(100%,49.803922%,5.490196%);stroke-opacity:1;stroke-miterlimit:4;" d="M -0.0000915527 3.001453 C 0.796783 3.001453 1.558502 2.685047 2.121002 2.122547 C 2.683502 1.560047 2.999908 0.795399 2.999908 0.0014534 C 2.999908 -0.795422 2.683502 -1.56007 2.121002 -2.12257 C 1.558502 -2.68507 0.796783 -2.998547 -0.0000915527 -2.998547 C -0.796967 -2.998547 -1.558685 -2.68507 -2.121185 -2.12257 C -2.683685 -1.56007 -3.000092 -0.795422 -3.000092 0.0014534 C -3.000092 0.795399 -2.683685 1.560047 -2.121185 2.122547 C -1.558685 2.685047 -0.796967 3.001453 -0.0000915527 3.001453 Z M -0.0000915527 3.001453 " transform="matrix(1.333333,0,0,1.333333,279.144653,52.517593)"/>
<path style="fill-rule:nonzero;fill:rgb(100%,49.803922%,5.490196%);fill-opacity:1;stroke-width:1;stroke-linecap:butt;stroke-linejoin:round;stroke:rgb(100%,49.803922%,5.490196%);stroke-opacity:1;stroke-miterlimit:4;" d="M -0.00125122 2.998901 C 0.795624 2.998901 1.557343 2.682495 2.122772 2.119995 C 2.685272 1.557495 2.998749 0.795776 2.998749 -0.00109863 C 2.998749 -0.795044 2.685272 -1.559692 2.122772 -2.122192 C 1.557343 -2.684692 0.795624 -3.001099 -0.00125122 -3.001099 C -0.795197 -3.001099 -1.559845 -2.684692 -2.122345 -2.122192 C -2.684845 -1.559692 -3.001251 -0.795044 -3.001251 -0.00109863 C -3.001251 0.795776 -2.684845 1.557495 -2.122345 2.119995 C -1.559845 2.682495 -0.795197 2.998901 -0.00125122 2.998901 Z M -0.00125122 2.998901 " transform="matrix(1.333333,0,0,1.333333,283.493856,52.931152)"/>
<path style="fill-rule:nonzero;fill:rgb(100%,49.803922%,5.490196%);fill-opacity:1;stroke-width:1;stroke-linecap:butt;stroke-linejoin:round;stroke:rgb(100%,49.803922%,5.490196%);stroke-opacity:1;stroke-miterlimit:4;" d="M 0.0000762939 2.999676 C 0.796951 2.999676 1.55867 2.68327 2.12117 2.12077 C 2.68367 1.55827 3.000076 0.796551 3.000076 -0.000324249 C 3.000076 -0.79427 2.68367 -1.558918 2.12117 -2.121418 C 1.55867 -2.683918 0.796951 -3.000324 0.0000762939 -3.000324 C -0.796799 -3.000324 -1.558517 -2.683918 -2.121017 -2.121418 C -2.683517 -1.558918 -2.999924 -0.79427 -2.999924 -0.000324249 C -2.999924 0.796551 -2.683517 1.55827 -2.121017 2.12077 C -1.558517 2.68327 -0.796799 2.999676 0.0000762939 2.999676 Z M 0.0000762939 2.999676 " transform="matrix(1.333333,0,0,1.333333,281.468648,57.008245)"/>
<path style="fill-rule:nonzero;fill:rgb(100%,49.803922%,5.490196%);fill-opacity:1;stroke-width:1;stroke-linecap:butt;stroke-linejoin:round;stroke:rgb(100%,49.803922%,5.490196%);stroke-opacity:1;stroke-miterlimit:4;" d="M 0.000289917 3.000557 C 0.794235 3.000557 1.558884 2.684151 2.121384 2.121651 C 2.683884 1.559151 3.00029 0.794502 3.00029 0.000556946 C 3.00029 -0.796318 2.683884 -1.558037 2.121384 -2.120537 C 1.558884 -2.683037 0.794235 -2.999443 0.000289917 -2.999443 C -0.796585 -2.999443 -1.558304 -2.683037 -2.120804 -2.120537 C -2.683304 -1.558037 -2.99971 -0.796318 -2.99971 0.000556946 C -2.99971 0.794502 -2.683304 1.559151 -2.120804 2.121651 C -1.558304 2.684151 -0.796585 3.000557 0.000289917 3.000557 Z M 0.000289917 3.000557 " transform="matrix(1.333333,0,0,1.333333,279.995707,60.16332)"/>
<path style="fill-rule:nonzero;fill:rgb(100%,49.803922%,5.490196%);fill-opacity:1;stroke-width:1;stroke-linecap:butt;stroke-linejoin:round;stroke:rgb(100%,49.803922%,5.490196%);stroke-opacity:1;stroke-miterlimit:4;" d="M -0.000518799 3.000164 C 0.796356 3.000164 1.558075 2.683758 2.120575 2.121258 C 2.683075 1.558758 2.999481 0.797039 2.999481 0.000164032 C 2.999481 -0.796711 2.683075 -1.55843 2.120575 -2.12093 C 1.558075 -2.68343 0.796356 -2.999836 -0.000518799 -2.999836 C -0.794464 -2.999836 -1.559113 -2.68343 -2.121613 -2.12093 C -2.684113 -1.55843 -3.000519 -0.796711 -3.000519 0.000164032 C -3.000519 0.797039 -2.684113 1.558758 -2.121613 2.121258 C -1.559113 2.683758 -0.794464 3.000164 -0.000518799 3.000164 Z M -0.000518799 3.000164 " transform="matrix(1.333333,0,0,1.333333,280.024129,57.343531)"/>
<path style="fill-rule:nonzero;fill:rgb(100%,49.803922%,5.490196%);fill-opacity:1;stroke-width:1;stroke-linecap:butt;stroke-linejoin:round;stroke:rgb(100%,49.803922%,5.490196%);stroke-opacity:1;stroke-miterlimit:4;" d="M 0.00102234 2.999149 C 0.794968 2.999149 1.559616 2.682743 2.122116 2.120243 C 2.684616 1.557743 3.001022 0.796024 3.001022 -0.000850677 C 3.001022 -0.794796 2.684616 -1.559444 2.122116 -2.121944 C 1.559616 -2.684444 0.794968 -3.000851 0.00102234 -3.000851 C -0.795853 -3.000851 -1.557571 -2.684444 -2.120071 -2.121944 C -2.682571 -1.559444 -2.998978 -0.794796 -2.998978 -0.000850677 C -2.998978 0.796024 -2.682571 1.557743 -2.120071 2.120243 C -1.557571 2.682743 -0.795853 2.999149 0.00102234 2.999149 Z M 0.00102234 2.999149 " transform="matrix(1.333333,0,0,1.333333,281.608012,59.290197)"/>
<path style="fill-rule:nonzero;fill:rgb(100%,49.803922%,5.490196%);fill-opacity:1;stroke-width:1;stroke-linecap:butt;stroke-linejoin:round;stroke:rgb(100%,49.803922%,5.490196%);stroke-opacity:1;stroke-miterlimit:4;" d="M 0.0010376 3.001385 C 0.794983 3.001385 1.559631 2.684978 2.122131 2.122478 C 2.684631 1.559978 3.001038 0.79533 3.001038 0.00138474 C 3.001038 -0.79549 2.684631 -1.560139 2.122131 -2.122639 C 1.559631 -2.685139 0.794983 -2.998615 0.0010376 -2.998615 C -0.795837 -2.998615 -1.557556 -2.685139 -2.120056 -2.122639 C -2.682556 -1.560139 -2.998962 -0.79549 -2.998962 0.00138474 C -2.998962 0.79533 -2.682556 1.559978 -2.120056 2.122478 C -1.557556 2.684978 -0.795837 3.001385 0.0010376 3.001385 Z M 0.0010376 3.001385 " transform="matrix(1.333333,0,0,1.333333,281.342367,58.142685)"/>
<path style="fill-rule:nonzero;fill:rgb(100%,49.803922%,5.490196%);fill-opacity:1;stroke-width:1;stroke-linecap:butt;stroke-linejoin:round;stroke:rgb(100%,49.803922%,5.490196%);stroke-opacity:1;stroke-miterlimit:4;" d="M 0.00012207 2.998623 C 0.796997 2.998623 1.558716 2.685146 2.121216 2.122646 C 2.683716 1.560146 3.000122 0.795498 3.000122 -0.00137711 C 3.000122 -0.795322 2.683716 -1.559971 2.121216 -2.122471 C 1.558716 -2.684971 0.796997 -3.001377 0.00012207 -3.001377 C -0.796753 -3.001377 -1.558472 -2.684971 -2.120972 -2.122471 C -2.683472 -1.559971 -2.999878 -0.795322 -2.999878 -0.00137711 C -2.999878 0.795498 -2.683472 1.560146 -2.120972 2.122646 C -1.558472 2.685146 -0.796753 2.998623 0.00012207 2.998623 Z M 0.00012207 2.998623 " transform="matrix(1.333333,0,0,1.333333,280.964681,62.388555)"/>
<path style="fill-rule:nonzero;fill:rgb(100%,49.803922%,5.490196%);fill-opacity:1;stroke-width:1;stroke-linecap:butt;stroke-linejoin:round;stroke:rgb(100%,49.803922%,5.490196%);stroke-opacity:1;stroke-miterlimit:4;" d="M -0.000961304 2.999973 C 0.795914 2.999973 1.557632 2.683567 2.120132 2.121067 C 2.682632 1.558567 2.999039 0.796848 2.999039 -0.0000267029 C 2.999039 -0.796902 2.682632 -1.55862 2.120132 -2.12112 C 1.557632 -2.68362 0.795914 -3.000027 -0.000961304 -3.000027 C -0.794907 -3.000027 -1.559555 -2.68362 -2.122055 -2.12112 C -2.684555 -1.55862 -3.000961 -0.796902 -3.000961 -0.0000267029 C -3.000961 0.796848 -2.684555 1.558567 -2.122055 2.121067 C -1.559555 2.683567 -0.794907 2.999973 -0.000961304 2.999973 Z M -0.000961304 2.999973 " transform="matrix(1.333333,0,0,1.333333,276.368469,61.523473)"/>
<path style="fill-rule:nonzero;fill:rgb(100%,49.803922%,5.490196%);fill-opacity:1;stroke-width:1;stroke-linecap:butt;stroke-linejoin:round;stroke:rgb(100%,49.803922%,5.490196%);stroke-opacity:1;stroke-miterlimit:4;" d="M -0.000473022 2.99926 C 0.796402 2.99926 1.558121 2.682854 2.120621 2.120354 C 2.683121 1.557854 2.999527 0.796135 2.999527 -0.000740051 C 2.999527 -0.794685 2.683121 -1.559334 2.120621 -2.121834 C 1.558121 -2.684334 0.796402 -3.00074 -0.000473022 -3.00074 C -0.794418 -3.00074 -1.559067 -2.684334 -2.121567 -2.121834 C -2.684067 -1.559334 -3.000473 -0.794685 -3.000473 -0.000740051 C -3.000473 0.796135 -2.684067 1.557854 -2.121567 2.120354 C -1.559067 2.682854 -0.794418 2.99926 -0.000473022 2.99926 Z M -0.000473022 2.99926 " transform="matrix(1.333333,0,0,1.333333,279.188131,61.004893)"/>
<path style="fill-rule:nonzero;fill:rgb(100%,49.803922%,5.490196%);fill-opacity:1;stroke-width:1;stroke-linecap:butt;stroke-linejoin:round;stroke:rgb(100%,49.803922%,5.490196%);stroke-opacity:1;stroke-miterlimit:4;" d="M 0.000640869 3.000011 C 0.794586 3.000011 1.559235 2.683605 2.121735 2.121105 C 2.684235 1.558605 3.000641 0.796886 3.000641 0.0000114441 C 3.000641 -0.796864 2.684235 -1.558582 2.121735 -2.121082 C 1.559235 -2.683582 0.794586 -2.999989 0.000640869 -2.999989 C -0.796234 -2.999989 -1.557953 -2.683582 -2.120453 -2.121082 C -2.682953 -1.558582 -2.999359 -0.796864 -2.999359 0.0000114441 C -2.999359 0.796886 -2.682953 1.558605 -2.120453 2.121105 C -1.557953 2.683605 -0.796234 3.000011 0.000640869 3.000011 Z M 0.000640869 3.000011 " transform="matrix(1.333333,0,0,1.333333,280.358521,55.04686)"/>
<path style="fill-rule:nonzero;fill:rgb(100%,49.803922%,5.490196%);fill-opacity:1;stroke-width:1;stroke-linecap:butt;stroke-linejoin:round;stroke:rgb(100%,49.803922%,5.490196%);stroke-opacity:1;stroke-miterlimit:4;" d="M 0.000595093 2.999763 C 0.79454 2.999763 1.559189 2.683357 2.121689 2.120857 C 2.684189 1.558357 3.000595 0.796638 3.000595 -0.000236511 C 3.000595 -0.794182 2.684189 -1.55883 2.121689 -2.12133 C 1.559189 -2.68383 0.79454 -3.000237 0.000595093 -3.000237 C -0.79628 -3.000237 -1.557999 -2.68383 -2.120499 -2.12133 C -2.682999 -1.55883 -2.999405 -0.794182 -2.999405 -0.000236511 C -2.999405 0.796638 -2.682999 1.558357 -2.120499 2.120857 C -1.557999 2.683357 -0.79628 2.999763 0.000595093 2.999763 Z M 0.000595093 2.999763 " transform="matrix(1.333333,0,0,1.333333,279.346863,54.254222)"/>
<path style="fill-rule:nonzero;fill:rgb(100%,49.803922%,5.490196%);fill-opacity:1;stroke-width:1;stroke-linecap:butt;stroke-linejoin:round;stroke:rgb(100%,49.803922%,5.490196%);stroke-opacity:1;stroke-miterlimit:4;" d="M -0.00109863 2.999672 C 0.795776 2.999672 1.557495 2.683266 2.119995 2.120766 C 2.682495 1.558266 2.998901 0.796547 2.998901 -0.000328064 C 2.998901 -0.794273 2.682495 -1.558922 2.119995 -2.121422 C 1.557495 -2.683922 0.795776 -3.000328 -0.00109863 -3.000328 C -0.795044 -3.000328 -1.559692 -2.683922 -2.122192 -2.121422 C -2.684692 -1.558922 -3.001099 -0.794273 -3.001099 -0.000328064 C -3.001099 0.796547 -2.684692 1.558266 -2.122192 2.120766 C -1.559692 2.683266 -0.795044 2.999672 -0.00109863 2.999672 Z M -0.00109863 2.999672 " transform="matrix(1.333333,0,0,1.333333,282.020996,54.699656)"/>
<path style="fill-rule:nonzero;fill:rgb(100%,49.803922%,5.490196%);fill-opacity:1;stroke-width:1;stroke-linecap:butt;stroke-linejoin:round;stroke:rgb(100%,49.803922%,5.490196%);stroke-opacity:1;stroke-miterlimit:4;" d="M -0.00132751 3.000645 C 0.795547 3.000645 1.560196 2.684238 2.122696 2.121738 C 2.685196 1.559238 2.998672 0.79459 2.998672 0.000644684 C 2.998672 -0.79623 2.685196 -1.557949 2.122696 -2.120449 C 1.560196 -2.682949 0.795547 -2.999355 -0.00132751 -2.999355 C -0.795273 -2.999355 -1.559921 -2.682949 -2.122421 -2.120449 C -2.684921 -1.557949 -3.001328 -0.79623 -3.001328 0.000644684 C -3.001328 0.79459 -2.684921 1.559238 -2.122421 2.121738 C -1.559921 2.684238 -0.795273 3.000645 -0.00132751 3.000645 Z M -0.00132751 3.000645 " transform="matrix(1.333333,0,0,1.333333,280.997864,52.432734)"/>
<path style="fill-rule:nonzero;fill:rgb(100%,49.803922%,5.490196%);fill-opacity:1;stroke-width:1;stroke-linecap:butt;stroke-linejoin:round;stroke:rgb(100%,49.803922%,5.490196%);stroke-opacity:1;stroke-miterlimit:4;" d="M 0.000396729 2.998898 C 0.794342 2.998898 1.55899 2.682491 2.12149 2.119991 C 2.68399 1.557491 3.000397 0.795773 3.000397 -0.00110245 C 3.000397 -0.795048 2.68399 -1.559696 2.12149 -2.122196 C 1.55899 -2.684696 0.794342 -3.001102 0.000396729 -3.001102 C -0.796478 -3.001102 -1.558197 -2.684696 -2.120697 -2.122196 C -2.683197 -1.559696 -2.999603 -0.795048 -2.999603 -0.00110245 C -2.999603 0.795773 -2.683197 1.557491 -2.120697 2.119991 C -1.558197 2.682491 -0.796478 2.998898 0.000396729 2.998898 Z M 0.000396729 2.998898 " transform="matrix(1.333333,0,0,1.333333,281.257284,49.735845)"/>
<path style="fill-rule:nonzero;fill:rgb(100%,49.803922%,5.490196%);fill-opacity:1;stroke-width:1;stroke-linecap:butt;stroke-linejoin:round;stroke:rgb(100%,49.803922%,5.490196%);stroke-opacity:1;stroke-miterlimit:4;" d="M -0.000366211 2.999969 C 0.796509 2.999969 1.558228 2.683563 2.120728 2.121063 C 2.683228 1.558563 2.999634 0.796844 2.999634 -0.0000305176 C 2.999634 -0.796906 2.683228 -1.558624 2.120728 -2.121124 C 1.558228 -2.683624 0.796509 -3.000031 -0.000366211 -3.000031 C -0.794312 -3.000031 -1.55896 -2.683624 -2.12146 -2.121124 C -2.68396 -1.558624 -3.000366 -0.796906 -3.000366 -0.0000305176 C -3.000366 0.796844 -2.68396 1.558563 -2.12146 2.121063 C -1.55896 2.683563 -0.794312 2.999969 -0.000366211 2.999969 Z M -0.000366211 2.999969 " transform="matrix(1.333333,0,0,1.333333,277.691895,52.859416)"/>
<path style="fill-rule:nonzero;fill:rgb(100%,49.803922%,5.490196%);fill-opacity:1;stroke-width:1;stroke-linecap:butt;stroke-linejoin:round;stroke:rgb(100%,49.803922%,5.490196%);stroke-opacity:1;stroke-miterlimit:4;" d="M 0.000274658 3.000965 C 0.79422 3.000965 1.558868 2.684559 2.121368 2.122059 C 2.683868 1.559559 3.000275 0.79491 3.000275 0.000965118 C 3.000275 -0.79591 2.683868 -1.557629 2.121368 -2.120129 C 1.558868 -2.682629 0.79422 -2.999035 0.000274658 -2.999035 C -0.7966 -2.999035 -1.558319 -2.682629 -2.120819 -2.120129 C -2.683319 -1.557629 -2.999725 -0.79591 -2.999725 0.000965118 C -2.999725 0.79491 -2.683319 1.559559 -2.120819 2.122059 C -1.558319 2.684559 -0.7966 3.000965 0.000274658 3.000965 Z M 0.000274658 3.000965 " transform="matrix(1.333333,0,0,1.333333,279.194946,52.971369)"/>
<path style="fill-rule:nonzero;fill:rgb(100%,49.803922%,5.490196%);fill-opacity:1;stroke-width:1;stroke-linecap:butt;stroke-linejoin:round;stroke:rgb(100%,49.803922%,5.490196%);stroke-opacity:1;stroke-miterlimit:4;" d="M -0.000106812 2.998737 C 0.796768 2.998737 1.558487 2.685261 2.120987 2.122761 C 2.683487 1.557331 2.999893 0.795612 2.999893 -0.00126266 C 2.999893 -0.795208 2.683487 -1.559856 2.120987 -2.122356 C 1.558487 -2.684856 0.796768 -3.001263 -0.000106812 -3.001263 C -0.796982 -3.001263 -1.558701 -2.684856 -2.121201 -2.122356 C -2.683701 -1.559856 -3.000107 -0.795208 -3.000107 -0.00126266 C -3.000107 0.795612 -2.683701 1.557331 -2.121201 2.122761 C -1.558701 2.685261 -0.796982 2.998737 -0.000106812 2.998737 Z M -0.000106812 2.998737 " transform="matrix(1.333333,0,0,1.333333,280.976705,54.212621)"/>
<path style="fill-rule:nonzero;fill:rgb(100%,49.803922%,5.490196%);fill-opacity:1;stroke-width:1;stroke-linecap:butt;stroke-linejoin:round;stroke:rgb(100%,49.803922%,5.490196%);stroke-opacity:1;stroke-miterlimit:4;" d="M 0.00137329 2.999016 C 0.795319 2.999016 1.559967 2.68261 2.122467 2.12011 C 2.684967 1.55761 3.001373 0.795891 3.001373 -0.000984192 C 3.001373 -0.79493 2.684967 -1.559578 2.122467 -2.122078 C 1.559967 -2.684578 0.795319 -3.000984 0.00137329 -3.000984 C -0.795502 -3.000984 -1.56015 -2.684578 -2.12265 -2.122078 C -2.68515 -1.559578 -2.998627 -0.79493 -2.998627 -0.000984192 C -2.998627 0.795891 -2.68515 1.55761 -2.12265 2.12011 C -1.56015 2.68261 -0.795502 2.999016 0.00137329 2.999016 Z M 0.00137329 2.999016 " transform="matrix(1.333333,0,0,1.333333,281.720825,53.4935)"/>
<path style="fill-rule:nonzero;fill:rgb(100%,49.803922%,5.490196%);fill-opacity:1;stroke-width:1;stroke-linecap:butt;stroke-linejoin:round;stroke:rgb(100%,49.803922%,5.490196%);stroke-opacity:1;stroke-miterlimit:4;" d="M -0.000518799 2.99926 C 0.796356 2.99926 1.558075 2.682854 2.120575 2.120354 C 2.683075 1.557854 2.999481 0.796135 2.999481 -0.000740051 C 2.999481 -0.794685 2.683075 -1.559334 2.120575 -2.121834 C 1.558075 -2.684334 0.796356 -3.00074 -0.000518799 -3.00074 C -0.794464 -3.00074 -1.559113 -2.684334 -2.121613 -2.121834 C -2.684113 -1.559334 -3.000519 -0.794685 -3.000519 -0.000740051 C -3.000519 0.796135 -2.684113 1.557854 -2.121613 2.120354 C -1.559113 2.682854 -0.794464 2.99926 -0.000518799 2.99926 Z M -0.000518799 2.99926 " transform="matrix(1.333333,0,0,1.333333,280.977254,55.422862)"/>
<path style="fill-rule:nonzero;fill:rgb(100%,49.803922%,5.490196%);fill-opacity:1;stroke-width:1;stroke-linecap:butt;stroke-linejoin:round;stroke:rgb(100%,49.803922%,5.490196%);stroke-opacity:1;stroke-miterlimit:4;" d="M -0.00144958 3.000023 C 0.795425 3.000023 1.560074 2.683617 2.122574 2.121117 C 2.685074 1.558617 2.99855 0.796898 2.99855 0.0000228882 C 2.99855 -0.796852 2.685074 -1.558571 2.122574 -2.121071 C 1.560074 -2.683571 0.795425 -2.999977 -0.00144958 -2.999977 C -0.795395 -2.999977 -1.560043 -2.683571 -2.122543 -2.121071 C -2.685043 -1.558571 -3.00145 -0.796852 -3.00145 0.0000228882 C -3.00145 0.796898 -2.685043 1.558617 -2.122543 2.121117 C -1.560043 2.683617 -0.795395 3.000023 -0.00144958 3.000023 Z M -0.00144958 3.000023 " transform="matrix(1.333333,0,0,1.333333,280.490214,56.156219)"/>
<path style="fill-rule:nonzero;fill:rgb(100%,49.803922%,5.490196%);fill-opacity:1;stroke-width:1;stroke-linecap:butt;stroke-linejoin:round;stroke:rgb(100%,49.803922%,5.490196%);stroke-opacity:1;stroke-miterlimit:4;" d="M -0.000427246 3.000286 C 0.796448 3.000286 1.558167 2.68388 2.120667 2.12138 C 2.683167 1.55888 2.999573 0.794231 2.999573 0.000286102 C 2.999573 -0.796589 2.683167 -1.558308 2.120667 -2.120808 C 1.558167 -2.683308 0.796448 -2.999714 -0.000427246 -2.999714 C -0.794373 -2.999714 -1.559021 -2.683308 -2.121521 -2.120808 C -2.684021 -1.558308 -3.000427 -0.796589 -3.000427 0.000286102 C -3.000427 0.794231 -2.684021 1.55888 -2.121521 2.12138 C -1.559021 2.68388 -0.794373 3.000286 -0.000427246 3.000286 Z M -0.000427246 3.000286 " transform="matrix(1.333333,0,0,1.333333,278.547445,55.843369)"/>
<path style="fill-rule:nonzero;fill:rgb(100%,49.803922%,5.490196%);fill-opacity:1;stroke-width:1;stroke-linecap:butt;stroke-linejoin:round;stroke:rgb(100%,49.803922%,5.490196%);stroke-opacity:1;stroke-miterlimit:4;" d="M -0.001297 2.999435 C 0.795578 2.999435 1.557297 2.683029 2.122726 2.120529 C 2.685226 1.558029 2.998703 0.79631 2.998703 -0.000564575 C 2.998703 -0.79451 2.685226 -1.559158 2.122726 -2.121658 C 1.557297 -2.684158 0.795578 -3.000565 -0.001297 -3.000565 C -0.795242 -3.000565 -1.559891 -2.684158 -2.122391 -2.121658 C -2.684891 -1.559158 -3.001297 -0.79451 -3.001297 -0.000564575 C -3.001297 0.79631 -2.684891 1.558029 -2.122391 2.120529 C -1.559891 2.683029 -0.795242 2.999435 -0.001297 2.999435 Z M -0.001297 2.999435 " transform="matrix(1.333333,0,0,1.333333,279.142354,53.356222)"/>
<path style="fill-rule:nonzero;fill:rgb(100%,49.803922%,5.490196%);fill-opacity:1;stroke-width:1;stroke-linecap:butt;stroke-linejoin:round;stroke:rgb(100%,49.803922%,5.490196%);stroke-opacity:1;stroke-miterlimit:4;" d="M 0.000473022 3.000618 C 0.794418 3.000618 1.559067 2.684212 2.121567 2.121712 C 2.684067 1.559212 3.000473 0.794563 3.000473 0.000617981 C 3.000473 -0.796257 2.684067 -1.557976 2.121567 -2.120476 C 1.559067 -2.682976 0.794418 -2.999382 0.000473022 -2.999382 C -0.796402 -2.999382 -1.558121 -2.682976 -2.120621 -2.120476 C -2.683121 -1.557976 -2.999527 -0.796257 -2.999527 0.000617981 C -2.999527 0.794563 -2.683121 1.559212 -2.120621 2.121712 C -1.558121 2.684212 -0.796402 3.000618 0.000473022 3.000618 Z M 0.000473022 3.000618 " transform="matrix(1.333333,0,0,1.333333,276.280619,49.256989)"/>
<path style="fill-rule:nonzero;fill:rgb(100%,49.803922%,5.490196%);fill-opacity:1;stroke-width:1;stroke-linecap:butt;stroke-linejoin:round;stroke:rgb(100%,49.803922%,5.490196%);stroke-opacity:1;stroke-miterlimit:4;" d="M -0.000457764 2.999706 C 0.796417 2.999706 1.558136 2.6833 2.120636 2.1208 C 2.683136 1.5583 2.999542 0.796581 2.999542 -0.000293732 C 2.999542 -0.794239 2.683136 -1.558887 2.120636 -2.121387 C 1.558136 -2.683887 0.796417 -3.000294 -0.000457764 -3.000294 C -0.794403 -3.000294 -1.559052 -2.683887 -2.121552 -2.121387 C -2.684052 -1.558887 -3.000458 -0.794239 -3.000458 -0.000293732 C -3.000458 0.796581 -2.684052 1.5583 -2.121552 2.1208 C -1.559052 2.6833 -0.794403 2.999706 -0.000457764 2.999706 Z M -0.000457764 2.999706 " transform="matrix(1.333333,0,0,1.333333,276.008423,47.273829)"/>
<path style="fill-rule:nonzero;fill:rgb(100%,49.803922%,5.490196%);fill-opacity:1;stroke-width:1;stroke-linecap:butt;stroke-linejoin:round;stroke:rgb(100%,49.803922%,5.490196%);stroke-opacity:1;stroke-miterlimit:4;" d="M 0.000167847 2.99892 C 0.797043 2.99892 1.558762 2.682514 2.121262 2.120014 C 2.683762 1.557514 3.000168 0.795795 3.000168 -0.00107956 C 3.000168 -0.795025 2.683762 -1.559673 2.121262 -2.122173 C 1.558762 -2.684673 0.797043 -3.00108 0.000167847 -3.00108 C -0.796707 -3.00108 -1.558426 -2.684673 -2.120926 -2.122173 C -2.683426 -1.559673 -2.999832 -0.795025 -2.999832 -0.00107956 C -2.999832 0.795795 -2.683426 1.557514 -2.120926 2.120014 C -1.558426 2.682514 -0.796707 2.99892 0.000167847 2.99892 Z M 0.000167847 2.99892 " transform="matrix(1.333333,0,0,1.333333,275.49587,43.587377)"/>
<path style="fill-rule:nonzero;fill:rgb(100%,49.803922%,5.490196%);fill-opacity:1;stroke-width:1;stroke-linecap:butt;stroke-linejoin:round;stroke:rgb(100%,49.803922%,5.490196%);stroke-opacity:1;stroke-miterlimit:4;" d="M 0.000747681 2.99992 C 0.794693 2.99992 1.559341 2.683514 2.121841 2.121014 C 2.684341 1.558514 3.000748 0.796795 3.000748 -0.0000801086 C 3.000748 -0.796955 2.684341 -1.558674 2.121841 -2.121174 C 1.559341 -2.683674 0.794693 -3.00008 0.000747681 -3.00008 C -0.796127 -3.00008 -1.557846 -2.683674 -2.120346 -2.121174 C -2.682846 -1.558674 -2.999252 -0.796955 -2.999252 -0.0000801086 C -2.999252 0.796795 -2.682846 1.558514 -2.120346 2.121014 C -1.557846 2.683514 -0.796127 2.99992 0.000747681 2.99992 Z M 0.000747681 2.99992 " transform="matrix(1.333333,0,0,1.333333,277.627909,45.968857)"/>
<path style="fill-rule:nonzero;fill:rgb(100%,49.803922%,5.490196%);fill-opacity:1;stroke-width:1;stroke-linecap:butt;stroke-linejoin:round;stroke:rgb(100%,49.803922%,5.490196%);stroke-opacity:1;stroke-miterlimit:4;" d="M -0.00119019 2.999924 C 0.795685 2.999924 1.557404 2.683517 2.119904 2.121017 C 2.685333 1.558517 2.99881 0.796799 2.99881 -0.0000762939 C 2.99881 -0.796951 2.685333 -1.55867 2.119904 -2.12117 C 1.557404 -2.68367 0.795685 -3.000076 -0.00119019 -3.000076 C -0.795135 -3.000076 -1.559784 -2.68367 -2.122284 -2.12117 C -2.684784 -1.55867 -3.00119 -0.796951 -3.00119 -0.0000762939 C -3.00119 0.796799 -2.684784 1.558517 -2.122284 2.121017 C -1.559784 2.683517 -0.795135 2.999924 -0.00119019 2.999924 Z M -0.00119019 2.999924 " transform="matrix(1.333333,0,0,1.333333,279.482056,46.175883)"/>
<path style="fill-rule:nonzero;fill:rgb(100%,49.803922%,5.490196%);fill-opacity:1;stroke-width:1;stroke-linecap:butt;stroke-linejoin:round;stroke:rgb(100%,49.803922%,5.490196%);stroke-opacity:1;stroke-miterlimit:4;" d="M -0.000320435 2.999134 C 0.796555 2.999134 1.558273 2.682728 2.120773 2.120228 C 2.683273 1.557728 2.99968 0.796009 2.99968 -0.000865936 C 2.99968 -0.794811 2.683273 -1.55946 2.120773 -2.12196 C 1.558273 -2.68446 0.796555 -3.000866 -0.000320435 -3.000866 C -0.794266 -3.000866 -1.558914 -2.68446 -2.121414 -2.12196 C -2.683914 -1.55946 -3.00032 -0.794811 -3.00032 -0.000865936 C -3.00032 0.796009 -2.683914 1.557728 -2.121414 2.120228 C -1.558914 2.682728 -0.794266 2.999134 -0.000320435 2.999134 Z M -0.000320435 2.999134 " transform="matrix(1.333333,0,0,1.333333,281.13324,48.48553)"/>
<path style="fill-rule:nonzero;fill:rgb(100%,49.803922%,5.490196%);fill-opacity:1;stroke-width:1;stroke-linecap:butt;stroke-linejoin:round;stroke:rgb(100%,49.803922%,5.490196%);stroke-opacity:1;stroke-miterlimit:4;" d="M -0.00126648 2.999821 C 0.795609 2.999821 1.557327 2.683414 2.122757 2.120914 C 2.685257 1.558414 2.998734 0.796696 2.998734 -0.000179291 C 2.998734 -0.797054 2.685257 -1.558773 2.122757 -2.121273 C 1.557327 -2.683773 0.795609 -3.000179 -0.00126648 -3.000179 C -0.795212 -3.000179 -1.55986 -2.683773 -2.12236 -2.121273 C -2.68486 -1.558773 -3.001266 -0.797054 -3.001266 -0.000179291 C -3.001266 0.796696 -2.68486 1.558414 -2.12236 2.120914 C -1.55986 2.683414 -0.795212 2.999821 -0.00126648 2.999821 Z M -0.00126648 2.999821 " transform="matrix(1.333333,0,0,1.333333,281.626689,46.758052)"/>
<g clip-path="url(#clip1)" clip-rule="nonzero">
<path style="fill:none;stroke-width:1.5;stroke-linecap:butt;stroke-linejoin:round;stroke:rgb(12.156863%,46.666667%,70.588237%);stroke-opacity:1;stroke-miterlimit:4;" d="M 237.919922 106.564453 L 237.380859 106.708008 L 234.870117 107.34668 L 231.817383 108.029297 L 228.764648 108.621094 L 225.714844 109.12207 L 222.662109 109.532227 L 219.612305 109.851562 L 216.55957 110.080078 L 213.506836 110.214844 L 210.457031 110.261719 L 207.404297 110.214844 L 204.354492 110.080078 L 201.301758 109.851562 L 198.249023 109.532227 L 195.199219 109.12207 L 192.146484 108.621094 L 189.09668 108.029297 L 186.043945 107.34668 L 183.530273 106.708008 L 182.991211 106.564453 L 179.941406 105.650391 L 176.888672 104.642578 L 173.838867 103.538086 L 172.860352 103.154297 L 170.786133 102.290039 L 167.733398 100.918945 L 164.99707 99.600586 L 164.683594 99.439453 L 161.630859 97.769531 L 158.671875 96.046875 L 158.581055 95.988281 L 155.52832 93.981445 L 153.383789 92.493164 L 152.475586 91.819336 L 149.425781 89.428711 L 148.828125 88.939453 L 146.373047 86.765625 L 144.881836 85.385742 L 143.323242 83.821289 L 141.421875 81.832031 L 140.270508 80.516602 L 138.386719 78.27832 L 137.217773 76.754883 L 135.723633 74.72168 L 134.167969 72.383789 L 133.388672 71.167969 L 131.355469 67.614258 L 131.115234 67.142578 L 129.618164 64.060547 L 128.121094 60.506836 L 128.06543 60.345703 L 126.899414 56.953125 L 125.900391 53.399414 L 125.124023 49.845703 L 125.012695 49.136719 L 124.584961 46.291992 L 124.262695 42.738281 L 124.157227 39.18457 L 124.262695 35.630859 L 124.584961 32.077148 L 125.012695 29.232422 L 125.124023 28.523437 L 125.900391 24.969727 L 126.899414 21.416016 L 128.06543 18.023437 L 128.121094 17.862305 L 129.618164 14.308594 L 131.115234 11.226562 L 131.355469 10.754883 L 133.388672 7.201172 " transform="matrix(1.333333,0,0,1.333333,0,0.000000000000014211)"/>
</g>
<g clip-path="url(#clip2)" clip-rule="nonzero">
<path style="fill:none;stroke-width:1.5;stroke-linecap:butt;stroke-linejoin:round;stroke:rgb(12.156863%,46.666667%,70.588237%);stroke-opacity:1;stroke-miterlimit:4;" d="M 237.919922 137.109375 L 234.870117 137.657227 L 231.817383 138.143555 L 228.764648 138.5625 L 227.657227 138.691406 L 225.714844 138.911133 L 222.662109 139.192383 L 219.612305 139.40918 L 216.55957 139.564453 L 213.506836 139.658203 L 210.457031 139.69043 L 207.404297 139.658203 L 204.354492 139.564453 L 201.301758 139.40918 L 198.249023 139.192383 L 195.199219 138.911133 L 193.256836 138.691406 L 192.146484 138.5625 L 189.09668 138.143555 L 186.043945 137.657227 L 182.991211 137.109375 L 179.941406 136.494141 L 176.888672 135.817383 L 174.102539 135.137695 L 173.838867 135.070312 L 170.786133 134.232422 L 167.733398 133.327148 L 164.683594 132.354492 L 162.418945 131.583984 L 161.630859 131.305664 L 158.581055 130.157227 L 155.52832 128.935547 L 153.383789 128.030273 L 152.475586 127.631836 L 149.425781 126.216797 L 146.373047 124.731445 L 145.87793 124.476562 L 143.323242 123.117187 L 140.270508 121.415039 L 139.426758 120.922852 L 137.217773 119.581055 L 134.167969 117.644531 L 133.749023 117.369141 L 131.115234 115.549805 L 128.698242 113.81543 L 128.06543 113.337891 L 125.012695 110.956055 L 124.157227 110.261719 L 121.959961 108.392578 L 120.046875 106.708008 L 118.910156 105.650391 L 116.308594 103.154297 L 115.857422 102.697266 L 112.904297 99.600586 L 112.807617 99.492187 L 109.801758 96.046875 L 109.754883 95.988281 L 106.977539 92.493164 L 106.702148 92.124023 L 104.402344 88.939453 L 103.652344 87.820312 L 102.061523 85.385742 L 100.599609 82.96875 L 99.931641 81.832031 L 98.006836 78.27832 L 97.549805 77.34668 L 96.287109 74.72168 L 94.740234 71.167969 L 94.49707 70.541016 L 93.386719 67.614258 L 92.197266 64.060547 L 91.444336 61.464844 L 91.174805 60.506836 L 90.325195 56.953125 L 89.630859 53.399414 L 89.088867 49.845703 L 88.702148 46.291992 L 88.470703 42.738281 L 88.394531 39.18457 L 88.470703 35.630859 L 88.702148 32.077148 L 89.088867 28.523437 L 89.630859 24.969727 L 90.325195 21.416016 L 91.174805 17.862305 L 91.444336 16.904297 L 92.197266 14.308594 L 93.386719 10.754883 L 94.49707 7.828125 L 94.740234 7.201172 " transform="matrix(1.333333,0,0,1.333333,0,0.000000000000014211)"/>
</g>
<g clip-path="url(#clip3)" clip-rule="nonzero">
<path style="fill:none;stroke-width:1.5;stroke-linecap:butt;stroke-linejoin:round;stroke:rgb(12.156863%,46.666667%,70.588237%);stroke-opacity:1;stroke-miterlimit:4;" d="M 135.723633 145.798828 L 134.167969 145.045898 L 131.115234 143.510742 L 128.698242 142.245117 L 128.06543 141.902344 L 125.012695 140.188477 L 122.443359 138.691406 L 121.959961 138.401367 L 118.910156 136.494141 L 116.80957 135.137695 L 115.857422 134.501953 L 112.807617 132.389648 L 111.679688 131.583984 L 109.754883 130.157227 L 106.977539 128.030273 L 106.702148 127.813477 L 103.652344 125.311523 L 102.662109 124.476562 L 100.599609 122.663086 L 98.677734 120.922852 L 97.549805 119.856445 L 94.986328 117.369141 L 94.49707 116.874023 L 91.564453 113.81543 L 91.444336 113.686523 L 88.394531 110.261719 L 85.456055 106.708008 L 85.341797 106.564453 L 82.731445 103.154297 L 82.291992 102.544922 L 80.208984 99.600586 L 79.239258 98.147461 L 77.871094 96.046875 L 76.186523 93.295898 L 75.706055 92.493164 L 73.719727 88.939453 L 73.136719 87.820312 L 71.894531 85.385742 L 70.21875 81.832031 L 70.083984 81.521484 L 68.707031 78.27832 L 67.327148 74.72168 L 67.03418 73.880859 L 66.102539 71.167969 L 65.009766 67.614258 L 64.045898 64.060547 L 63.981445 63.788086 L 63.225586 60.506836 L 62.53418 56.953125 L 61.96875 53.399414 L 61.526367 49.845703 L 61.212891 46.291992 L 61.025391 42.738281 L 60.960938 39.18457 L 61.025391 35.630859 L 61.212891 32.077148 L 61.526367 28.523437 L 61.96875 24.969727 L 62.53418 21.416016 L 63.225586 17.862305 L 63.981445 14.581055 L 64.045898 14.308594 L 65.009766 10.754883 L 66.102539 7.201172 " transform="matrix(1.333333,0,0,1.333333,0,0.000000000000014211)"/>
</g>
<g clip-path="url(#clip4)" clip-rule="nonzero">
<path style="fill:none;stroke-width:1.5;stroke-linecap:butt;stroke-linejoin:round;stroke:rgb(12.156863%,46.666667%,70.588237%);stroke-opacity:1;stroke-miterlimit:4;" d="M 96.287109 145.798828 L 94.49707 144.474609 L 91.564453 142.245117 L 91.444336 142.151367 L 88.394531 139.69043 L 87.1875 138.691406 L 85.341797 137.109375 L 83.100586 135.137695 L 82.291992 134.402344 L 79.274414 131.583984 L 79.239258 131.548828 L 76.186523 128.519531 L 75.706055 128.030273 L 73.136719 125.311523 L 72.363281 124.476562 L 70.083984 121.907227 L 69.231445 120.922852 L 67.03418 118.277344 L 66.292969 117.369141 L 63.981445 114.392578 L 63.541992 113.81543 L 60.960938 110.261719 L 60.928711 110.214844 L 58.555664 106.708008 L 57.878906 105.650391 L 56.305664 103.154297 L 54.826172 100.666992 L 54.205078 99.600586 L 52.248047 96.046875 L 51.776367 95.129883 L 50.4375 92.493164 L 48.75293 88.939453 L 48.723633 88.87207 L 47.211914 85.385742 L 45.785156 81.832031 L 45.670898 81.521484 L 44.496094 78.27832 L 43.321289 74.72168 L 42.621094 72.383789 " transform="matrix(1.333333,0,0,1.333333,0,0.000000000000014211)"/>
</g>
<g clip-path="url(#clip5)" clip-rule="nonzero">
<path style="fill:none;stroke-width:1.5;stroke-linecap:butt;stroke-linejoin:round;stroke:rgb(12.156863%,46.666667%,70.588237%);stroke-opacity:1;stroke-miterlimit:4;" d="M 67.327148 145.798828 L 67.03418 145.529297 L 63.981445 142.666992 L 63.541992 142.245117 L 60.928711 139.658203 L 59.973633 138.691406 L 57.878906 136.494141 L 56.610352 135.137695 L 54.826172 133.160156 L 53.43457 131.583984 L 51.776367 129.632812 L 50.4375 128.030273 L 48.723633 125.891602 L 47.610352 124.476562 L 45.670898 121.907227 L 44.944336 120.922852 L 42.621094 117.644531 " transform="matrix(1.333333,0,0,1.333333,0,0.000000000000014211)"/>
</g>
<g clip-path="url(#clip6)" clip-rule="nonzero">
<path style="fill:none;stroke-width:1.5;stroke-linecap:butt;stroke-linejoin:round;stroke:rgb(12.156863%,46.666667%,70.588237%);stroke-opacity:1;stroke-miterlimit:4;" d="M 43.321289 145.798828 L 42.621094 145.045898 " transform="matrix(1.333333,0,0,1.333333,0,0.000000000000014211)"/>
</g>
<path style="fill:none;stroke-width:0.8;stroke-linecap:square;stroke-linejoin:miter;stroke:rgb(0%,0%,0%);stroke-opacity:1;stroke-miterlimit:4;" d="M 42.621094 145.798828 L 42.621094 7.201172 " transform="matrix(1.333333,0,0,1.333333,0,0.000000000000014211)"/>
<path style="fill:none;stroke-width:0.8;stroke-linecap:square;stroke-linejoin:miter;stroke:rgb(0%,0%,0%);stroke-opacity:1;stroke-miterlimit:4;" d="M 237.919922 145.798828 L 237.919922 7.201172 " transform="matrix(1.333333,0,0,1.333333,0,0.000000000000014211)"/>
<path style="fill:none;stroke-width:0.8;stroke-linecap:square;stroke-linejoin:miter;stroke:rgb(0%,0%,0%);stroke-opacity:1;stroke-miterlimit:4;" d="M 42.621094 145.798828 L 237.919922 145.798828 " transform="matrix(1.333333,0,0,1.333333,0,0.000000000000014211)"/>
<path style="fill:none;stroke-width:0.8;stroke-linecap:square;stroke-linejoin:miter;stroke:rgb(0%,0%,0%);stroke-opacity:1;stroke-miterlimit:4;" d="M 42.621094 7.201172 L 237.919922 7.201172 " transform="matrix(1.333333,0,0,1.333333,0,0.000000000000014211)"/>
</g>
</svg>
