<?xml version="1.0" encoding="UTF-8"?>
<svg xmlns="http://www.w3.org/2000/svg" xmlns:xlink="http://www.w3.org/1999/xlink" width="326.827087" height="244.474996" viewBox="0 0 326.827087 244.474996" version="1.1">
<defs>
<clipPath id="clip1">
  <path d="M 164 9.601562 L 317.226562 9.601562 L 317.226562 149 L 164 149 Z M 164 9.601562 "/>
</clipPath>
<clipPath id="clip2">
  <path d="M 116 9.601562 L 317.226562 9.601562 L 317.226562 188 L 116 188 Z M 116 9.601562 "/>
</clipPath>
<clipPath id="clip3">
  <path d="M 80 9.601562 L 182 9.601562 L 182 194.398438 L 80 194.398438 Z M 80 9.601562 "/>
</clipPath>
<clipPath id="clip4">
  <path d="M 56.828125 95 L 130 95 L 130 194.398438 L 56.828125 194.398438 Z M 56.828125 95 "/>
</clipPath>
<clipPath id="clip5">
  <path d="M 56.828125 155 L 91 155 L 91 194.398438 L 56.828125 194.398438 Z M 56.828125 155 "/>
</clipPath>
<clipPath id="clip6">
  <path d="M 56.828125 192 L 59 192 L 59 194.398438 L 56.828125 194.398438 Z M 56.828125 192 "/>
</clipPath>
</defs>
<g id="surface1">
<path style=" stroke:none;fill-rule:nonzero;fill:rgb(100%,100%,100%);fill-opacity:1;" d="M 0 244.476562 L 326.828125 244.476562 L 326.828125 0 L 0 0 Z M 0 244.476562 "/>
<path style=" stroke:none;fill-rule:nonzero;fill:rgb(100%,100%,100%);fill-opacity:1;" d="M 56.828125 194.398438 L 317.226562 194.398438 L 317.226562 9.601562 L 56.828125 9.601562 Z M 56.828125 194.398438 "/>
<path style="fill:none;stroke-width:0.8;stroke-linecap:butt;stroke-linejoin:round;stroke:rgb(0%,0%,0%);stroke-opacity:1;stroke-miterlimit:4;" d="M 0.000785828 -0.00117493 L 0.000785828 3.499802 " transform="matrix(1.333333,0,0,1.333333,117.858327,194.400004)"/>
<path style=" stroke:none;fill-rule:nonzero;fill:rgb(0%,0%,0%);fill-opacity:1;" d="M 109.441406 209.132812 L 117.789062 209.132812 L 117.789062 210.238281 L 109.441406 210.238281 Z M 109.441406 209.132812 "/>
<path style=" stroke:none;fill-rule:nonzero;fill:rgb(0%,0%,0%);fill-opacity:1;" d="M 124.242188 205.289062 L 120.921875 210.480469 L 124.242188 210.480469 Z M 123.894531 204.144531 L 125.550781 204.144531 L 125.550781 210.480469 L 126.9375 210.480469 L 126.9375 211.574219 L 125.550781 211.574219 L 125.550781 213.863281 L 124.242188 213.863281 L 124.242188 211.574219 L 119.855469 211.574219 L 119.855469 210.304688 Z M 123.894531 204.144531 "/>
<path style="fill:none;stroke-width:0.8;stroke-linecap:butt;stroke-linejoin:round;stroke:rgb(0%,0%,0%);stroke-opacity:1;stroke-miterlimit:4;" d="M 0.000778198 -0.00117493 L 0.000778198 3.499802 " transform="matrix(1.333333,0,0,1.333333,199.233337,194.400004)"/>
<path style=" stroke:none;fill-rule:nonzero;fill:rgb(0%,0%,0%);fill-opacity:1;" d="M 190.816406 209.132812 L 199.164062 209.132812 L 199.164062 210.238281 L 190.816406 210.238281 Z M 190.816406 209.132812 "/>
<path style=" stroke:none;fill-rule:nonzero;fill:rgb(0%,0%,0%);fill-opacity:1;" d="M 203.136719 212.757812 L 207.726562 212.757812 L 207.726562 213.863281 L 201.554688 213.863281 L 201.554688 212.757812 C 202.054688 212.242188 202.734375 211.546875 203.59375 210.679688 C 204.457031 209.808594 204.996094 209.246094 205.21875 208.992188 C 205.640625 208.523438 205.933594 208.121094 206.101562 207.792969 C 206.269531 207.464844 206.351562 207.144531 206.351562 206.828125 C 206.351562 206.308594 206.171875 205.890625 205.808594 205.566406 C 205.445312 205.238281 204.972656 205.074219 204.390625 205.074219 C 203.980469 205.074219 203.542969 205.148438 203.085938 205.289062 C 202.628906 205.433594 202.140625 205.648438 201.617188 205.941406 L 201.617188 204.613281 C 202.148438 204.398438 202.640625 204.238281 203.101562 204.132812 C 203.5625 204.023438 203.984375 203.96875 204.367188 203.96875 C 205.375 203.96875 206.175781 204.222656 206.773438 204.726562 C 207.375 205.226562 207.671875 205.898438 207.671875 206.742188 C 207.671875 207.140625 207.597656 207.519531 207.449219 207.878906 C 207.300781 208.234375 207.027344 208.65625 206.632812 209.144531 C 206.523438 209.269531 206.179688 209.632812 205.597656 210.234375 C 205.015625 210.835938 204.195312 211.679688 203.136719 212.757812 Z M 203.136719 212.757812 "/>
<path style="fill:none;stroke-width:0.8;stroke-linecap:butt;stroke-linejoin:round;stroke:rgb(0%,0%,0%);stroke-opacity:1;stroke-miterlimit:4;" d="M 0.000778198 -0.00117493 L 0.000778198 3.499802 " transform="matrix(1.333333,0,0,1.333333,280.608337,194.400004)"/>
<path style=" stroke:none;fill-rule:nonzero;fill:rgb(0%,0%,0%);fill-opacity:1;" d="M 280.605469 205.011719 C 279.929688 205.011719 279.417969 205.34375 279.078125 206.011719 C 278.738281 206.675781 278.566406 207.675781 278.566406 209.015625 C 278.566406 210.347656 278.738281 211.347656 279.078125 212.011719 C 279.417969 212.679688 279.929688 213.011719 280.605469 213.011719 C 281.285156 213.011719 281.796875 212.679688 282.136719 212.011719 C 282.480469 211.347656 282.648438 210.347656 282.648438 209.015625 C 282.648438 207.675781 282.480469 206.675781 282.136719 206.011719 C 281.796875 205.34375 281.285156 205.011719 280.605469 205.011719 Z M 280.605469 203.96875 C 281.695312 203.96875 282.527344 204.398438 283.101562 205.261719 C 283.675781 206.125 283.964844 207.375 283.964844 209.015625 C 283.964844 210.652344 283.675781 211.898438 283.101562 212.761719 C 282.527344 213.625 281.695312 214.054688 280.605469 214.054688 C 279.515625 214.054688 278.683594 213.625 278.109375 212.761719 C 277.535156 211.898438 277.246094 210.652344 277.246094 209.015625 C 277.246094 207.375 277.535156 206.125 278.109375 205.261719 C 278.683594 204.398438 279.515625 203.96875 280.605469 203.96875 Z M 280.605469 203.96875 "/>
<path style=" stroke:none;fill-rule:nonzero;fill:rgb(0%,0%,0%);fill-opacity:1;" d="M 186.160156 224.808594 L 183.519531 228.359375 L 186.292969 232.101562 L 184.882812 232.101562 L 182.757812 229.238281 L 180.636719 232.101562 L 179.222656 232.101562 L 182.054688 228.289062 L 179.464844 224.808594 L 180.878906 224.808594 L 182.808594 227.410156 L 184.742188 224.808594 Z M 186.160156 224.808594 "/>
<path style=" stroke:none;fill-rule:nonzero;fill:rgb(0%,0%,0%);fill-opacity:1;" d="M 188.382812 230.996094 L 190.53125 230.996094 L 190.53125 223.578125 L 188.195312 224.046875 L 188.195312 222.851562 L 190.519531 222.382812 L 191.835938 222.382812 L 191.835938 230.996094 L 193.980469 230.996094 L 193.980469 232.101562 L 188.382812 232.101562 Z M 188.382812 230.996094 "/>
<path style="fill:none;stroke-width:0.8;stroke-linecap:butt;stroke-linejoin:round;stroke:rgb(0%,0%,0%);stroke-opacity:1;stroke-miterlimit:4;" d="M 0.000782013 -0.00117493 L -3.500195 -0.00117493 " transform="matrix(1.333333,0,0,1.333333,56.827082,194.400004)"/>
<path style=" stroke:none;fill-rule:nonzero;fill:rgb(0%,0%,0%);fill-opacity:1;" d="M 29.25 194.730469 L 37.597656 194.730469 L 37.597656 195.839844 L 29.25 195.839844 Z M 29.25 194.730469 "/>
<path style=" stroke:none;fill-rule:nonzero;fill:rgb(0%,0%,0%);fill-opacity:1;" d="M 44.417969 194.222656 C 45.050781 194.359375 45.539062 194.640625 45.894531 195.066406 C 46.246094 195.492188 46.425781 196.015625 46.425781 196.640625 C 46.425781 197.597656 46.09375 198.339844 45.433594 198.867188 C 44.773438 199.394531 43.835938 199.65625 42.621094 199.65625 C 42.214844 199.65625 41.796875 199.613281 41.363281 199.535156 C 40.929688 199.453125 40.484375 199.332031 40.027344 199.171875 L 40.027344 197.902344 C 40.390625 198.117188 40.789062 198.277344 41.222656 198.382812 C 41.65625 198.492188 42.109375 198.546875 42.585938 198.546875 C 43.40625 198.546875 44.035156 198.382812 44.46875 198.058594 C 44.898438 197.734375 45.117188 197.261719 45.117188 196.640625 C 45.117188 196.066406 44.914062 195.617188 44.511719 195.296875 C 44.113281 194.972656 43.554688 194.8125 42.839844 194.8125 L 41.707031 194.8125 L 41.707031 193.730469 L 42.890625 193.730469 C 43.535156 193.730469 44.03125 193.601562 44.375 193.34375 C 44.71875 193.085938 44.886719 192.710938 44.886719 192.226562 C 44.886719 191.726562 44.710938 191.34375 44.355469 191.078125 C 44.003906 190.808594 43.5 190.675781 42.839844 190.675781 C 42.476562 190.675781 42.089844 190.714844 41.679688 190.792969 C 41.265625 190.871094 40.8125 190.992188 40.316406 191.15625 L 40.316406 189.988281 C 40.816406 189.847656 41.285156 189.742188 41.722656 189.675781 C 42.15625 189.605469 42.570312 189.570312 42.957031 189.570312 C 43.953125 189.570312 44.742188 189.796875 45.324219 190.25 C 45.90625 190.703125 46.195312 191.316406 46.195312 192.089844 C 46.195312 192.628906 46.042969 193.082031 45.734375 193.453125 C 45.425781 193.824219 44.988281 194.082031 44.417969 194.222656 Z M 44.417969 194.222656 "/>
<path style="fill:none;stroke-width:0.8;stroke-linecap:butt;stroke-linejoin:round;stroke:rgb(0%,0%,0%);stroke-opacity:1;stroke-miterlimit:4;" d="M 0.000782013 0.000183105 L -3.500195 0.000183105 " transform="matrix(1.333333,0,0,1.333333,56.827082,147.015381)"/>
<path style=" stroke:none;fill-rule:nonzero;fill:rgb(0%,0%,0%);fill-opacity:1;" d="M 29.25 147.347656 L 37.597656 147.347656 L 37.597656 148.453125 L 29.25 148.453125 Z M 29.25 147.347656 "/>
<path style=" stroke:none;fill-rule:nonzero;fill:rgb(0%,0%,0%);fill-opacity:1;" d="M 41.566406 150.976562 L 46.15625 150.976562 L 46.15625 152.082031 L 39.988281 152.082031 L 39.988281 150.976562 C 40.484375 150.457031 41.164062 149.765625 42.027344 148.894531 C 42.886719 148.023438 43.429688 147.464844 43.652344 147.210938 C 44.070312 146.738281 44.367188 146.339844 44.53125 146.011719 C 44.699219 145.683594 44.785156 145.359375 44.785156 145.042969 C 44.785156 144.527344 44.601562 144.105469 44.242188 143.78125 C 43.878906 143.453125 43.40625 143.292969 42.824219 143.292969 C 42.410156 143.292969 41.976562 143.363281 41.519531 143.507812 C 41.0625 143.648438 40.570312 143.867188 40.050781 144.15625 L 40.050781 142.828125 C 40.582031 142.617188 41.074219 142.457031 41.535156 142.347656 C 41.996094 142.238281 42.417969 142.183594 42.800781 142.183594 C 43.804688 142.183594 44.609375 142.4375 45.207031 142.941406 C 45.804688 143.445312 46.105469 144.117188 46.105469 144.957031 C 46.105469 145.359375 46.03125 145.738281 45.878906 146.09375 C 45.730469 146.453125 45.460938 146.875 45.0625 147.359375 C 44.957031 147.488281 44.609375 147.851562 44.027344 148.453125 C 43.449219 149.054688 42.628906 149.894531 41.566406 150.976562 Z M 41.566406 150.976562 "/>
<path style="fill:none;stroke-width:0.8;stroke-linecap:butt;stroke-linejoin:round;stroke:rgb(0%,0%,0%);stroke-opacity:1;stroke-miterlimit:4;" d="M 0.000782013 -0.00139618 L -3.500195 -0.00139618 " transform="matrix(1.333333,0,0,1.333333,56.827082,99.630768)"/>
<path style=" stroke:none;fill-rule:nonzero;fill:rgb(0%,0%,0%);fill-opacity:1;" d="M 29.25 99.964844 L 37.597656 99.964844 L 37.597656 101.070312 L 29.25 101.070312 Z M 29.25 99.964844 "/>
<path style=" stroke:none;fill-rule:nonzero;fill:rgb(0%,0%,0%);fill-opacity:1;" d="M 40.664062 103.589844 L 42.8125 103.589844 L 42.8125 96.171875 L 40.472656 96.640625 L 40.472656 95.445312 L 42.800781 94.976562 L 44.113281 94.976562 L 44.113281 103.589844 L 46.261719 103.589844 L 46.261719 104.695312 L 40.664062 104.695312 Z M 40.664062 103.589844 "/>
<path style="fill:none;stroke-width:0.8;stroke-linecap:butt;stroke-linejoin:round;stroke:rgb(0%,0%,0%);stroke-opacity:1;stroke-miterlimit:4;" d="M 0.000782013 -0.0000495911 L -3.500195 -0.0000495911 " transform="matrix(1.333333,0,0,1.333333,56.827082,52.24616)"/>
<path style=" stroke:none;fill-rule:nonzero;fill:rgb(0%,0%,0%);fill-opacity:1;" d="M 43.246094 48.457031 C 42.570312 48.457031 42.0625 48.789062 41.722656 49.457031 C 41.378906 50.121094 41.210938 51.125 41.210938 52.460938 C 41.210938 53.792969 41.378906 54.792969 41.722656 55.460938 C 42.0625 56.125 42.570312 56.460938 43.246094 56.460938 C 43.929688 56.460938 44.441406 56.125 44.78125 55.460938 C 45.121094 54.792969 45.292969 53.792969 45.292969 52.460938 C 45.292969 51.125 45.121094 50.121094 44.78125 49.457031 C 44.441406 48.789062 43.929688 48.457031 43.246094 48.457031 Z M 43.246094 47.414062 C 44.339844 47.414062 45.171875 47.847656 45.746094 48.710938 C 46.320312 49.570312 46.609375 50.820312 46.609375 52.460938 C 46.609375 54.097656 46.320312 55.347656 45.746094 56.210938 C 45.171875 57.070312 44.339844 57.5 43.246094 57.5 C 42.160156 57.5 41.328125 57.070312 40.753906 56.210938 C 40.175781 55.347656 39.890625 54.097656 39.890625 52.460938 C 39.890625 50.820312 40.175781 49.570312 40.753906 48.710938 C 41.328125 47.847656 42.160156 47.414062 43.246094 47.414062 Z M 43.246094 47.414062 "/>
<path style=" stroke:none;fill-rule:nonzero;fill:rgb(0%,0%,0%);fill-opacity:1;" d="M 12.441406 102.867188 L 15.988281 105.507812 L 19.730469 102.734375 L 19.730469 104.144531 L 16.867188 106.269531 L 19.730469 108.390625 L 19.730469 109.804688 L 15.917969 106.972656 L 12.441406 109.5625 L 12.441406 108.148438 L 15.039062 106.214844 L 12.441406 104.285156 Z M 12.441406 102.867188 "/>
<path style=" stroke:none;fill-rule:nonzero;fill:rgb(0%,0%,0%);fill-opacity:1;" d="M 18.625 99.738281 L 18.625 95.148438 L 19.730469 95.148438 L 19.730469 101.320312 L 18.625 101.320312 C 18.109375 100.820312 17.414062 100.140625 16.546875 99.28125 C 15.675781 98.417969 15.113281 97.875 14.859375 97.65625 C 14.386719 97.234375 13.988281 96.941406 13.660156 96.773438 C 13.332031 96.605469 13.011719 96.523438 12.695312 96.523438 C 12.175781 96.523438 11.757812 96.703125 11.429688 97.066406 C 11.105469 97.429688 10.941406 97.898438 10.941406 98.480469 C 10.941406 98.894531 11.011719 99.332031 11.15625 99.789062 C 11.300781 100.246094 11.515625 100.734375 11.808594 101.253906 L 10.480469 101.253906 C 10.265625 100.726562 10.105469 100.230469 9.996094 99.773438 C 9.890625 99.3125 9.835938 98.890625 9.835938 98.507812 C 9.835938 97.5 10.085938 96.699219 10.589844 96.097656 C 11.09375 95.5 11.765625 95.199219 12.609375 95.199219 C 13.007812 95.199219 13.386719 95.277344 13.746094 95.425781 C 14.101562 95.574219 14.523438 95.847656 15.011719 96.242188 C 15.136719 96.351562 15.5 96.695312 16.101562 97.277344 C 16.703125 97.859375 17.542969 98.679688 18.625 99.738281 Z M 18.625 99.738281 "/>
<path style="fill:none;stroke-width:1.5;stroke-linecap:square;stroke-linejoin:round;stroke:rgb(100%,49.803922%,5.490196%);stroke-opacity:1;stroke-miterlimit:4;" d="M 57.878906 110.261719 L 81.641602 84.580078 L 104.220703 70.628906 L 119.695312 53.663086 L 143.25293 46.268555 L 154.924805 36.837891 L 172.063477 37.037109 L 178.995117 37.763672 L 186.776367 38.25293 L 189.758789 43.836914 L 191.803711 43.236328 L 192.260742 42.043945 L 198.861328 38.141602 L 203.586914 41.194336 L 209.458008 36.577148 L 212.838867 32.900391 L 216.861328 33.550781 L 211.716797 38.985352 L 213.301758 43.344727 L 215.695312 39.609375 L 213.512695 42.744141 L 217.242188 39.480469 L 209.756836 40.379883 L 208.186523 43.347656 L 210.251953 34.96875 L 208.294922 35.039062 L 207.735352 32.077148 L 207.155273 40.083984 L 207.079102 41.425781 L 204.799805 36.899414 L 206.138672 36.679687 L 207.539062 38.950195 L 205.851562 41.80957 L 204.914062 44.578125 L 205.819336 45.436523 L 209.191406 42.336914 L 206.586914 42.345703 L 204.981445 37.491211 L 207.272461 42.84668 L 209.229492 43.924805 L 206.651367 38.8125 L 207.638672 41.885742 L 213.93457 43.954102 L 207.404297 43.230469 L 207.65332 34.790039 L 210.275391 40.12793 L 211.391602 45.553711 L 212.223633 36.829102 L 209.507812 40.939453 L 199.655273 35.982422 L 196.037109 35.24707 " transform="matrix(1.333333,0,0,1.333333,0,0.000000000000014211)"/>
<path style="fill-rule:nonzero;fill:rgb(100%,49.803922%,5.490196%);fill-opacity:1;stroke-width:1;stroke-linecap:butt;stroke-linejoin:round;stroke:rgb(100%,49.803922%,5.490196%);stroke-opacity:1;stroke-miterlimit:4;" d="M 0.000782013 3.000183 C 0.794727 3.000183 1.559376 2.683777 2.121876 2.121277 C 2.684376 1.558777 3.000782 0.797058 3.000782 0.000183105 C 3.000782 -0.796692 2.684376 -1.558411 2.121876 -2.120911 C 1.559376 -2.683411 0.794727 -2.999817 0.000782013 -2.999817 C -0.796093 -2.999817 -1.557812 -2.683411 -2.120312 -2.120911 C -2.682812 -1.558411 -2.999218 -0.796692 -2.999218 0.000183105 C -2.999218 0.797058 -2.682812 1.558777 -2.120312 2.121277 C -1.557812 2.683777 -0.796093 3.000183 0.000782013 3.000183 Z M 0.000782013 3.000183 " transform="matrix(1.333333,0,0,1.333333,77.170832,147.015381)"/>
<path style="fill-rule:nonzero;fill:rgb(100%,49.803922%,5.490196%);fill-opacity:1;stroke-width:1;stroke-linecap:butt;stroke-linejoin:round;stroke:rgb(100%,49.803922%,5.490196%);stroke-opacity:1;stroke-miterlimit:4;" d="M 0.00146484 2.998619 C 0.79541 2.998619 1.560059 2.685143 2.122559 2.122643 C 2.685059 1.560143 3.001465 0.795494 3.001465 -0.00138092 C 3.001465 -0.795326 2.685059 -1.559975 2.122559 -2.122475 C 1.560059 -2.684975 0.79541 -3.001381 0.00146484 -3.001381 C -0.79541 -3.001381 -1.560059 -2.684975 -2.122559 -2.122475 C -2.685059 -1.559975 -2.998535 -0.795326 -2.998535 -0.00138092 C -2.998535 0.795494 -2.685059 1.560143 -2.122559 2.122643 C -1.560059 2.685143 -0.79541 2.998619 0.00146484 2.998619 Z M 0.00146484 2.998619 " transform="matrix(1.333333,0,0,1.333333,108.857422,112.775279)"/>
<path style="fill-rule:nonzero;fill:rgb(100%,49.803922%,5.490196%);fill-opacity:1;stroke-width:1;stroke-linecap:butt;stroke-linejoin:round;stroke:rgb(100%,49.803922%,5.490196%);stroke-opacity:1;stroke-miterlimit:4;" d="M -0.00087738 2.998695 C 0.795998 2.998695 1.557716 2.685219 2.120216 2.122719 C 2.682716 1.557289 2.999123 0.79557 2.999123 -0.00130463 C 2.999123 -0.79525 2.682716 -1.559898 2.120216 -2.122398 C 1.557716 -2.684898 0.795998 -3.001305 -0.00087738 -3.001305 C -0.794823 -3.001305 -1.559471 -2.684898 -2.121971 -2.122398 C -2.684471 -1.559898 -3.000877 -0.79525 -3.000877 -0.00130463 C -3.000877 0.79557 -2.684471 1.557289 -2.121971 2.122719 C -1.559471 2.685219 -0.794823 2.998695 -0.00087738 2.998695 Z M -0.00087738 2.998695 " transform="matrix(1.333333,0,0,1.333333,138.962107,94.173615)"/>
<path style="fill-rule:nonzero;fill:rgb(100%,49.803922%,5.490196%);fill-opacity:1;stroke-width:1;stroke-linecap:butt;stroke-linejoin:round;stroke:rgb(100%,49.803922%,5.490196%);stroke-opacity:1;stroke-miterlimit:4;" d="M -0.000526428 2.999191 C 0.796349 2.999191 1.558067 2.682785 2.120567 2.120285 C 2.683067 1.557785 2.999474 0.796066 2.999474 -0.000808716 C 2.999474 -0.794754 2.683067 -1.559402 2.120567 -2.121902 C 1.558067 -2.684402 0.796349 -3.000809 -0.000526428 -3.000809 C -0.794472 -3.000809 -1.55912 -2.684402 -2.12162 -2.121902 C -2.68412 -1.559402 -3.000526 -0.794754 -3.000526 -0.000808716 C -3.000526 0.796066 -2.68412 1.557785 -2.12162 2.120285 C -1.55912 2.682785 -0.794472 2.999191 -0.000526428 2.999191 Z M -0.000526428 2.999191 " transform="matrix(1.333333,0,0,1.333333,159.594452,71.55186)"/>
<path style="fill-rule:nonzero;fill:rgb(100%,49.803922%,5.490196%);fill-opacity:1;stroke-width:1;stroke-linecap:butt;stroke-linejoin:round;stroke:rgb(100%,49.803922%,5.490196%);stroke-opacity:1;stroke-miterlimit:4;" d="M 0.000610352 3.000523 C 0.794556 3.000523 1.559204 2.684116 2.121704 2.121616 C 2.684204 1.559116 3.00061 0.794468 3.00061 0.000522614 C 3.00061 -0.796352 2.684204 -1.558071 2.121704 -2.120571 C 1.559204 -2.683071 0.794556 -2.999477 0.000610352 -2.999477 C -0.796265 -2.999477 -1.557983 -2.683071 -2.120483 -2.120571 C -2.682983 -1.558071 -2.99939 -0.796352 -2.99939 0.000522614 C -2.99939 0.794468 -2.682983 1.559116 -2.120483 2.121616 C -1.557983 2.684116 -0.796265 3.000523 0.000610352 3.000523 Z M 0.000610352 3.000523 " transform="matrix(1.333333,0,0,1.333333,191.003092,61.690709)"/>
<path style="fill-rule:nonzero;fill:rgb(100%,49.803922%,5.490196%);fill-opacity:1;stroke-width:1;stroke-linecap:butt;stroke-linejoin:round;stroke:rgb(100%,49.803922%,5.490196%);stroke-opacity:1;stroke-miterlimit:4;" d="M -0.000274658 2.999454 C 0.7966 2.999454 1.558319 2.683048 2.120819 2.120548 C 2.683319 1.558048 2.999725 0.796329 2.999725 -0.000545502 C 2.999725 -0.794491 2.683319 -1.559139 2.120819 -2.121639 C 1.558319 -2.684139 0.7966 -3.000546 -0.000274658 -3.000546 C -0.79422 -3.000546 -1.558868 -2.684139 -2.121368 -2.121639 C -2.683868 -1.559139 -3.000275 -0.794491 -3.000275 -0.000545502 C -3.000275 0.796329 -2.683868 1.558048 -2.121368 2.120548 C -1.558868 2.683048 -0.79422 2.999454 -0.000274658 2.999454 Z M -0.000274658 2.999454 " transform="matrix(1.333333,0,0,1.333333,206.566772,49.117915)"/>
<path style="fill-rule:nonzero;fill:rgb(100%,49.803922%,5.490196%);fill-opacity:1;stroke-width:1;stroke-linecap:butt;stroke-linejoin:round;stroke:rgb(100%,49.803922%,5.490196%);stroke-opacity:1;stroke-miterlimit:4;" d="M -0.000411987 2.99947 C 0.796463 2.99947 1.558182 2.683064 2.120682 2.120564 C 2.683182 1.558064 2.999588 0.796345 2.999588 -0.000530243 C 2.999588 -0.794476 2.683182 -1.559124 2.120682 -2.121624 C 1.558182 -2.684124 0.796463 -3.00053 -0.000411987 -3.00053 C -0.794357 -3.00053 -1.559006 -2.684124 -2.121506 -2.121624 C -2.684006 -1.559124 -3.000412 -0.794476 -3.000412 -0.000530243 C -3.000412 0.796345 -2.684006 1.558064 -2.121506 2.120564 C -1.559006 2.683064 -0.794357 2.99947 -0.000411987 2.99947 Z M -0.000411987 2.99947 " transform="matrix(1.333333,0,0,1.333333,229.418518,49.383519)"/>
<path style="fill-rule:nonzero;fill:rgb(100%,49.803922%,5.490196%);fill-opacity:1;stroke-width:1;stroke-linecap:butt;stroke-linejoin:round;stroke:rgb(100%,49.803922%,5.490196%);stroke-opacity:1;stroke-miterlimit:4;" d="M -0.00137329 2.999302 C 0.795502 2.999302 1.56015 2.682896 2.12265 2.120396 C 2.68515 1.557896 2.998627 0.796177 2.998627 -0.00069809 C 2.998627 -0.794643 2.68515 -1.559292 2.12265 -2.121792 C 1.56015 -2.684292 0.795502 -3.000698 -0.00137329 -3.000698 C -0.795319 -3.000698 -1.559967 -2.684292 -2.122467 -2.121792 C -2.684967 -1.559292 -3.001373 -0.794643 -3.001373 -0.00069809 C -3.001373 0.796177 -2.684967 1.557896 -2.122467 2.120396 C -1.559967 2.682896 -0.795319 2.999302 -0.00137329 2.999302 Z M -0.00137329 2.999302 " transform="matrix(1.333333,0,0,1.333333,238.661987,50.352493)"/>
<path style="fill-rule:nonzero;fill:rgb(100%,49.803922%,5.490196%);fill-opacity:1;stroke-width:1;stroke-linecap:butt;stroke-linejoin:round;stroke:rgb(100%,49.803922%,5.490196%);stroke-opacity:1;stroke-miterlimit:4;" d="M -0.000473022 3.000839 C 0.796402 3.000839 1.558121 2.684433 2.120621 2.121933 C 2.683121 1.559433 2.999527 0.794785 2.999527 0.000839233 C 2.999527 -0.796036 2.683121 -1.557755 2.120621 -2.120255 C 1.558121 -2.682755 0.796402 -2.999161 -0.000473022 -2.999161 C -0.794418 -2.999161 -1.559067 -2.682755 -2.121567 -2.120255 C -2.684067 -1.557755 -3.000473 -0.796036 -3.000473 0.000839233 C -3.000473 0.794785 -2.684067 1.559433 -2.121567 2.121933 C -1.559067 2.684433 -0.794418 3.000839 -0.000473022 3.000839 Z M -0.000473022 3.000839 " transform="matrix(1.333333,0,0,1.333333,249.035787,51.002787)"/>
<path style="fill-rule:nonzero;fill:rgb(100%,49.803922%,5.490196%);fill-opacity:1;stroke-width:1;stroke-linecap:butt;stroke-linejoin:round;stroke:rgb(100%,49.803922%,5.490196%);stroke-opacity:1;stroke-miterlimit:4;" d="M -0.000457764 3.001427 C 0.796417 3.001427 1.558136 2.68502 2.120636 2.12252 C 2.683136 1.56002 2.999542 0.795372 2.999542 0.0014267 C 2.999542 -0.795448 2.683136 -1.560097 2.120636 -2.122597 C 1.558136 -2.685097 0.796417 -2.998573 -0.000457764 -2.998573 C -0.794403 -2.998573 -1.559052 -2.685097 -2.121552 -2.122597 C -2.684052 -1.560097 -3.000458 -0.795448 -3.000458 0.0014267 C -3.000458 0.795372 -2.684052 1.56002 -2.121552 2.12252 C -1.559052 2.68502 -0.794403 3.001427 -0.000457764 3.001427 Z M -0.000457764 3.001427 " transform="matrix(1.333333,0,0,1.333333,253.012329,58.447316)"/>
<path style="fill-rule:nonzero;fill:rgb(100%,49.803922%,5.490196%);fill-opacity:1;stroke-width:1;stroke-linecap:butt;stroke-linejoin:round;stroke:rgb(100%,49.803922%,5.490196%);stroke-opacity:1;stroke-miterlimit:4;" d="M -0.000686646 2.99971 C 0.796188 2.99971 1.557907 2.683304 2.120407 2.120804 C 2.682907 1.558304 2.999313 0.796585 2.999313 -0.000289917 C 2.999313 -0.794235 2.682907 -1.558884 2.120407 -2.121384 C 1.557907 -2.683884 0.796188 -3.00029 -0.000686646 -3.00029 C -0.794632 -3.00029 -1.55928 -2.683884 -2.12178 -2.121384 C -2.68428 -1.558884 -3.000687 -0.794235 -3.000687 -0.000289917 C -3.000687 0.796585 -2.68428 1.558304 -2.12178 2.120804 C -1.55928 2.683304 -0.794632 2.99971 -0.000686646 2.99971 Z M -0.000686646 2.99971 " transform="matrix(1.333333,0,0,1.333333,255.739197,57.648824)"/>
<path style="fill-rule:nonzero;fill:rgb(100%,49.803922%,5.490196%);fill-opacity:1;stroke-width:1;stroke-linecap:butt;stroke-linejoin:round;stroke:rgb(100%,49.803922%,5.490196%);stroke-opacity:1;stroke-miterlimit:4;" d="M 0.000823975 3.001045 C 0.794769 3.001045 1.559418 2.684639 2.121918 2.122139 C 2.684418 1.559639 3.000824 0.794991 3.000824 0.00104523 C 3.000824 -0.79583 2.684418 -1.557549 2.121918 -2.120049 C 1.559418 -2.682549 0.794769 -2.998955 0.000823975 -2.998955 C -0.796051 -2.998955 -1.55777 -2.682549 -2.12027 -2.120049 C -2.68277 -1.557549 -2.999176 -0.79583 -2.999176 0.00104523 C -2.999176 0.794991 -2.68277 1.559639 -2.12027 2.122139 C -1.55777 2.684639 -0.796051 3.001045 0.000823975 3.001045 Z M 0.000823975 3.001045 " transform="matrix(1.333333,0,0,1.333333,256.346558,56.0572)"/>
<path style="fill-rule:nonzero;fill:rgb(100%,49.803922%,5.490196%);fill-opacity:1;stroke-width:1;stroke-linecap:butt;stroke-linejoin:round;stroke:rgb(100%,49.803922%,5.490196%);stroke-opacity:1;stroke-miterlimit:4;" d="M -0.00126648 2.998722 C 0.795609 2.998722 1.557327 2.685246 2.122757 2.122746 C 2.685257 1.557316 2.998734 0.795597 2.998734 -0.00127792 C 2.998734 -0.795223 2.685257 -1.559872 2.122757 -2.122372 C 1.557327 -2.684872 0.795609 -3.001278 -0.00126648 -3.001278 C -0.795212 -3.001278 -1.55986 -2.684872 -2.12236 -2.122372 C -2.68486 -1.559872 -3.001266 -0.795223 -3.001266 -0.00127792 C -3.001266 0.795597 -2.68486 1.557316 -2.12236 2.122746 C -1.55986 2.685246 -0.795212 2.998722 -0.00126648 2.998722 Z M -0.00126648 2.998722 " transform="matrix(1.333333,0,0,1.333333,265.150126,50.857173)"/>
<path style="fill-rule:nonzero;fill:rgb(100%,49.803922%,5.490196%);fill-opacity:1;stroke-width:1;stroke-linecap:butt;stroke-linejoin:round;stroke:rgb(100%,49.803922%,5.490196%);stroke-opacity:1;stroke-miterlimit:4;" d="M 0.000305176 2.998615 C 0.79425 2.998615 1.558899 2.685139 2.121399 2.122639 C 2.683899 1.560139 3.000305 0.79549 3.000305 -0.00138474 C 3.000305 -0.79533 2.683899 -1.559978 2.121399 -2.122478 C 1.558899 -2.684978 0.79425 -3.001385 0.000305176 -3.001385 C -0.79657 -3.001385 -1.558289 -2.684978 -2.120789 -2.122478 C -2.683289 -1.559978 -2.999695 -0.79533 -2.999695 -0.00138474 C -2.999695 0.79549 -2.683289 1.560139 -2.120789 2.122639 C -1.558289 2.685139 -0.79657 2.998615 0.000305176 2.998615 Z M 0.000305176 2.998615 " transform="matrix(1.333333,0,0,1.333333,271.448812,54.927628)"/>
<path style="fill-rule:nonzero;fill:rgb(100%,49.803922%,5.490196%);fill-opacity:1;stroke-width:1;stroke-linecap:butt;stroke-linejoin:round;stroke:rgb(100%,49.803922%,5.490196%);stroke-opacity:1;stroke-miterlimit:4;" d="M 0.00115967 2.999474 C 0.795105 2.999474 1.559753 2.683067 2.122253 2.120567 C 2.684753 1.558067 3.00116 0.796349 3.00116 -0.000526428 C 3.00116 -0.794472 2.684753 -1.55912 2.122253 -2.12162 C 1.559753 -2.68412 0.795105 -3.000526 0.00115967 -3.000526 C -0.795715 -3.000526 -1.557434 -2.68412 -2.119934 -2.12162 C -2.685364 -1.55912 -2.99884 -0.794472 -2.99884 -0.000526428 C -2.99884 0.796349 -2.685364 1.558067 -2.119934 2.120567 C -1.557434 2.683067 -0.795715 2.999474 0.00115967 2.999474 Z M 0.00115967 2.999474 " transform="matrix(1.333333,0,0,1.333333,279.275798,48.770233)"/>
<path style="fill-rule:nonzero;fill:rgb(100%,49.803922%,5.490196%);fill-opacity:1;stroke-width:1;stroke-linecap:butt;stroke-linejoin:round;stroke:rgb(100%,49.803922%,5.490196%);stroke-opacity:1;stroke-miterlimit:4;" d="M 0.000930786 2.999039 C 0.794876 2.999039 1.559525 2.682632 2.122025 2.120132 C 2.684525 1.557632 3.000931 0.795914 3.000931 -0.000961304 C 3.000931 -0.794907 2.684525 -1.559555 2.122025 -2.122055 C 1.559525 -2.684555 0.794876 -3.000961 0.000930786 -3.000961 C -0.795944 -3.000961 -1.557663 -2.684555 -2.120163 -2.122055 C -2.682663 -1.559555 -2.999069 -0.794907 -2.999069 -0.000961304 C -2.999069 0.795914 -2.682663 1.557632 -2.120163 2.120132 C -1.557663 2.682632 -0.795944 2.999039 0.000930786 2.999039 Z M 0.000930786 2.999039 " transform="matrix(1.333333,0,0,1.333333,283.783915,43.868469)"/>
<path style="fill-rule:nonzero;fill:rgb(100%,49.803922%,5.490196%);fill-opacity:1;stroke-width:1;stroke-linecap:butt;stroke-linejoin:round;stroke:rgb(100%,49.803922%,5.490196%);stroke-opacity:1;stroke-miterlimit:4;" d="M -0.0012207 2.998844 C 0.795654 2.998844 1.557373 2.682438 2.119873 2.119938 C 2.685303 1.557438 2.998779 0.795719 2.998779 -0.00115585 C 2.998779 -0.795101 2.685303 -1.55975 2.119873 -2.12225 C 1.557373 -2.68475 0.795654 -3.001156 -0.0012207 -3.001156 C -0.795166 -3.001156 -1.559814 -2.68475 -2.122314 -2.12225 C -2.684814 -1.55975 -3.001221 -0.795101 -3.001221 -0.00115585 C -3.001221 0.795719 -2.684814 1.557438 -2.122314 2.119938 C -1.559814 2.682438 -0.795166 2.998844 -0.0012207 2.998844 Z M -0.0012207 2.998844 " transform="matrix(1.333333,0,0,1.333333,289.150065,44.735916)"/>
<path style="fill-rule:nonzero;fill:rgb(100%,49.803922%,5.490196%);fill-opacity:1;stroke-width:1;stroke-linecap:butt;stroke-linejoin:round;stroke:rgb(100%,49.803922%,5.490196%);stroke-opacity:1;stroke-miterlimit:4;" d="M -0.000427246 2.99942 C 0.796448 2.99942 1.558167 2.683014 2.120667 2.120514 C 2.683167 1.558014 2.999573 0.796295 2.999573 -0.000579834 C 2.999573 -0.794525 2.683167 -1.559174 2.120667 -2.121674 C 1.558167 -2.684174 0.796448 -3.00058 -0.000427246 -3.00058 C -0.794373 -3.00058 -1.559021 -2.684174 -2.121521 -2.121674 C -2.684021 -1.559174 -3.000427 -0.794525 -3.000427 -0.000579834 C -3.000427 0.796295 -2.684021 1.558014 -2.121521 2.120514 C -1.559021 2.683014 -0.794373 2.99942 -0.000427246 2.99942 Z M -0.000427246 2.99942 " transform="matrix(1.333333,0,0,1.333333,282.289632,51.981242)"/>
<path style="fill-rule:nonzero;fill:rgb(100%,49.803922%,5.490196%);fill-opacity:1;stroke-width:1;stroke-linecap:butt;stroke-linejoin:round;stroke:rgb(100%,49.803922%,5.490196%);stroke-opacity:1;stroke-miterlimit:4;" d="M 0.000930786 3.00029 C 0.794876 3.00029 1.559525 2.683884 2.122025 2.121384 C 2.684525 1.558884 3.000931 0.794235 3.000931 0.000289917 C 3.000931 -0.796585 2.684525 -1.558304 2.122025 -2.120804 C 1.559525 -2.683304 0.794876 -2.99971 0.000930786 -2.99971 C -0.795944 -2.99971 -1.557663 -2.683304 -2.120163 -2.120804 C -2.682663 -1.558304 -2.999069 -0.796585 -2.999069 0.000289917 C -2.999069 0.794235 -2.682663 1.558884 -2.120163 2.121384 C -1.557663 2.683884 -0.795944 3.00029 0.000930786 3.00029 Z M 0.000930786 3.00029 " transform="matrix(1.333333,0,0,1.333333,284.401103,57.792582)"/>
<path style="fill-rule:nonzero;fill:rgb(100%,49.803922%,5.490196%);fill-opacity:1;stroke-width:1;stroke-linecap:butt;stroke-linejoin:round;stroke:rgb(100%,49.803922%,5.490196%);stroke-opacity:1;stroke-miterlimit:4;" d="M -0.000335693 2.999203 C 0.796539 2.999203 1.558258 2.682796 2.120758 2.120296 C 2.683258 1.557796 2.999664 0.796078 2.999664 -0.000797272 C 2.999664 -0.794743 2.683258 -1.559391 2.120758 -2.121891 C 1.558258 -2.684391 0.796539 -3.000797 -0.000335693 -3.000797 C -0.794281 -3.000797 -1.558929 -2.684391 -2.121429 -2.121891 C -2.683929 -1.559391 -3.000336 -0.794743 -3.000336 -0.000797272 C -3.000336 0.796078 -2.683929 1.557796 -2.121429 2.120296 C -1.558929 2.682796 -0.794281 2.999203 -0.000335693 2.999203 Z M -0.000335693 2.999203 " transform="matrix(1.333333,0,0,1.333333,287.594198,52.813563)"/>
<path style="fill-rule:nonzero;fill:rgb(100%,49.803922%,5.490196%);fill-opacity:1;stroke-width:1;stroke-linecap:butt;stroke-linejoin:round;stroke:rgb(100%,49.803922%,5.490196%);stroke-opacity:1;stroke-miterlimit:4;" d="M -0.000793457 2.999088 C 0.796082 2.999088 1.5578 2.682682 2.1203 2.120182 C 2.6828 1.557682 2.999207 0.795963 2.999207 -0.000911713 C 2.999207 -0.794857 2.6828 -1.559505 2.1203 -2.122005 C 1.5578 -2.684505 0.796082 -3.000912 -0.000793457 -3.000912 C -0.794739 -3.000912 -1.559387 -2.684505 -2.121887 -2.122005 C -2.684387 -1.559505 -3.000793 -0.794857 -3.000793 -0.000911713 C -3.000793 0.795963 -2.684387 1.557682 -2.121887 2.120182 C -1.559387 2.682682 -0.794739 2.999088 -0.000793457 2.999088 Z M -0.000793457 2.999088 " transform="matrix(1.333333,0,0,1.333333,284.684652,56.993403)"/>
<path style="fill-rule:nonzero;fill:rgb(100%,49.803922%,5.490196%);fill-opacity:1;stroke-width:1;stroke-linecap:butt;stroke-linejoin:round;stroke:rgb(100%,49.803922%,5.490196%);stroke-opacity:1;stroke-miterlimit:4;" d="M -0.000930786 2.99913 C 0.795944 2.99913 1.557663 2.682724 2.120163 2.120224 C 2.682663 1.557724 2.999069 0.796005 2.999069 -0.000869751 C 2.999069 -0.794815 2.682663 -1.559464 2.120163 -2.121964 C 1.557663 -2.684464 0.795944 -3.00087 -0.000930786 -3.00087 C -0.794876 -3.00087 -1.559525 -2.684464 -2.122025 -2.121964 C -2.684525 -1.559464 -3.000931 -0.794815 -3.000931 -0.000869751 C -3.000931 0.796005 -2.684525 1.557724 -2.122025 2.120224 C -1.559525 2.682724 -0.794876 2.99913 -0.000930786 2.99913 Z M -0.000930786 2.99913 " transform="matrix(1.333333,0,0,1.333333,289.657491,52.641785)"/>
<path style="fill-rule:nonzero;fill:rgb(100%,49.803922%,5.490196%);fill-opacity:1;stroke-width:1;stroke-linecap:butt;stroke-linejoin:round;stroke:rgb(100%,49.803922%,5.490196%);stroke-opacity:1;stroke-miterlimit:4;" d="M 0.00117493 2.999737 C 0.79512 2.999737 1.559769 2.683331 2.122269 2.120831 C 2.684769 1.558331 3.001175 0.796612 3.001175 -0.000263214 C 3.001175 -0.794209 2.684769 -1.558857 2.122269 -2.121357 C 1.559769 -2.683857 0.79512 -3.000263 0.00117493 -3.000263 C -0.7957 -3.000263 -1.557419 -2.683857 -2.119919 -2.121357 C -2.685349 -1.558857 -2.998825 -0.794209 -2.998825 -0.000263214 C -2.998825 0.796612 -2.685349 1.558331 -2.119919 2.120831 C -1.557419 2.683331 -0.7957 2.999737 0.00117493 2.999737 Z M 0.00117493 2.999737 " transform="matrix(1.333333,0,0,1.333333,279.674215,53.840195)"/>
<path style="fill-rule:nonzero;fill:rgb(100%,49.803922%,5.490196%);fill-opacity:1;stroke-width:1;stroke-linecap:butt;stroke-linejoin:round;stroke:rgb(100%,49.803922%,5.490196%);stroke-opacity:1;stroke-miterlimit:4;" d="M 0.00102234 2.999344 C 0.794968 2.999344 1.559616 2.682938 2.122116 2.120438 C 2.684616 1.557938 3.001022 0.796219 3.001022 -0.000656128 C 3.001022 -0.794601 2.684616 -1.55925 2.122116 -2.12175 C 1.559616 -2.68425 0.794968 -3.000656 0.00102234 -3.000656 C -0.795853 -3.000656 -1.557571 -2.68425 -2.120071 -2.12175 C -2.682571 -1.55925 -2.998978 -0.794601 -2.998978 -0.000656128 C -2.998978 0.796219 -2.682571 1.557938 -2.120071 2.120438 C -1.557571 2.682938 -0.795853 2.999344 0.00102234 2.999344 Z M 0.00102234 2.999344 " transform="matrix(1.333333,0,0,1.333333,277.580668,57.79775)"/>
<path style="fill-rule:nonzero;fill:rgb(100%,49.803922%,5.490196%);fill-opacity:1;stroke-width:1;stroke-linecap:butt;stroke-linejoin:round;stroke:rgb(100%,49.803922%,5.490196%);stroke-opacity:1;stroke-miterlimit:4;" d="M -0.000564575 2.999451 C 0.79631 2.999451 1.558029 2.683044 2.120529 2.120544 C 2.683029 1.558044 2.999435 0.796326 2.999435 -0.000549316 C 2.999435 -0.794495 2.683029 -1.559143 2.120529 -2.121643 C 1.558029 -2.684143 0.79631 -3.000549 -0.000564575 -3.000549 C -0.79451 -3.000549 -1.559158 -2.684143 -2.121658 -2.121643 C -2.684158 -1.559143 -3.000565 -0.794495 -3.000565 -0.000549316 C -3.000565 0.796326 -2.684158 1.558044 -2.121658 2.120544 C -1.559158 2.683044 -0.79451 2.999451 -0.000564575 2.999451 Z M -0.000564575 2.999451 " transform="matrix(1.333333,0,0,1.333333,280.33669,46.625732)"/>
<path style="fill-rule:nonzero;fill:rgb(100%,49.803922%,5.490196%);fill-opacity:1;stroke-width:1;stroke-linecap:butt;stroke-linejoin:round;stroke:rgb(100%,49.803922%,5.490196%);stroke-opacity:1;stroke-miterlimit:4;" d="M -0.000198364 2.999973 C 0.796677 2.999973 1.558395 2.683567 2.120895 2.121067 C 2.683395 1.558567 2.999802 0.796848 2.999802 -0.0000267029 C 2.999802 -0.796902 2.683395 -1.55862 2.120895 -2.12112 C 1.558395 -2.68362 0.796677 -3.000027 -0.000198364 -3.000027 C -0.797073 -3.000027 -1.558792 -2.68362 -2.121292 -2.12112 C -2.683792 -1.55862 -3.000198 -0.796902 -3.000198 -0.0000267029 C -3.000198 0.796848 -2.683792 1.558567 -2.121292 2.121067 C -1.558792 2.683567 -0.797073 2.999973 -0.000198364 2.999973 Z M -0.000198364 2.999973 " transform="matrix(1.333333,0,0,1.333333,277.726827,46.718786)"/>
<path style="fill-rule:nonzero;fill:rgb(100%,49.803922%,5.490196%);fill-opacity:1;stroke-width:1;stroke-linecap:butt;stroke-linejoin:round;stroke:rgb(100%,49.803922%,5.490196%);stroke-opacity:1;stroke-miterlimit:4;" d="M 0.0000915527 3.000679 C 0.796967 3.000679 1.558685 2.684273 2.121185 2.121773 C 2.683685 1.559273 3.000092 0.794624 3.000092 0.000679016 C 3.000092 -0.796196 2.683685 -1.557915 2.121185 -2.120415 C 1.558685 -2.682915 0.796967 -2.999321 0.0000915527 -2.999321 C -0.796783 -2.999321 -1.558502 -2.682915 -2.121002 -2.120415 C -2.683502 -1.557915 -2.999908 -0.796196 -2.999908 0.000679016 C -2.999908 0.794624 -2.683502 1.559273 -2.121002 2.121773 C -1.558502 2.684273 -0.796783 3.000679 0.0000915527 3.000679 Z M 0.0000915527 3.000679 " transform="matrix(1.333333,0,0,1.333333,276.980347,42.768626)"/>
<path style="fill-rule:nonzero;fill:rgb(100%,49.803922%,5.490196%);fill-opacity:1;stroke-width:1;stroke-linecap:butt;stroke-linejoin:round;stroke:rgb(100%,49.803922%,5.490196%);stroke-opacity:1;stroke-miterlimit:4;" d="M -0.00141907 2.999001 C 0.795456 2.999001 1.560104 2.682594 2.122604 2.120094 C 2.685104 1.557594 2.998581 0.795876 2.998581 -0.000999451 C 2.998581 -0.794945 2.685104 -1.559593 2.122604 -2.122093 C 1.560104 -2.684593 0.795456 -3.000999 -0.00141907 -3.000999 C -0.795364 -3.000999 -1.560013 -2.684593 -2.122513 -2.122093 C -2.685013 -1.559593 -3.001419 -0.794945 -3.001419 -0.000999451 C -3.001419 0.795876 -2.685013 1.557594 -2.122513 2.120094 C -1.560013 2.682594 -0.795364 2.999001 -0.00141907 2.999001 Z M -0.00141907 2.999001 " transform="matrix(1.333333,0,0,1.333333,276.208923,53.446645)"/>
<path style="fill-rule:nonzero;fill:rgb(100%,49.803922%,5.490196%);fill-opacity:1;stroke-width:1;stroke-linecap:butt;stroke-linejoin:round;stroke:rgb(100%,49.803922%,5.490196%);stroke-opacity:1;stroke-miterlimit:4;" d="M -0.000411987 2.998722 C 0.796463 2.998722 1.558182 2.685246 2.120682 2.122746 C 2.683182 1.557316 2.999588 0.795597 2.999588 -0.00127792 C 2.999588 -0.795223 2.683182 -1.559872 2.120682 -2.122372 C 1.558182 -2.684872 0.796463 -3.001278 -0.000411987 -3.001278 C -0.794357 -3.001278 -1.559006 -2.684872 -2.121506 -2.122372 C -2.684006 -1.559872 -3.000412 -0.795223 -3.000412 -0.00127792 C -3.000412 0.795597 -2.684006 1.557316 -2.121506 2.122746 C -1.559006 2.685246 -0.794357 2.998722 -0.000411987 2.998722 Z M -0.000411987 2.998722 " transform="matrix(1.333333,0,0,1.333333,276.106018,55.236079)"/>
<path style="fill-rule:nonzero;fill:rgb(100%,49.803922%,5.490196%);fill-opacity:1;stroke-width:1;stroke-linecap:butt;stroke-linejoin:round;stroke:rgb(100%,49.803922%,5.490196%);stroke-opacity:1;stroke-miterlimit:4;" d="M 0.00144958 3.00074 C 0.795395 3.00074 1.560043 2.684334 2.122543 2.121834 C 2.685043 1.559334 3.00145 0.794685 3.00145 0.000740051 C 3.00145 -0.796135 2.685043 -1.557854 2.122543 -2.120354 C 1.560043 -2.682854 0.795395 -2.99926 0.00144958 -2.99926 C -0.795425 -2.99926 -1.560074 -2.682854 -2.122574 -2.120354 C -2.685074 -1.557854 -2.99855 -0.796135 -2.99855 0.000740051 C -2.99855 0.794685 -2.685074 1.559334 -2.122574 2.121834 C -1.560074 2.684334 -0.795425 3.00074 0.00144958 3.00074 Z M 0.00144958 3.00074 " transform="matrix(1.333333,0,0,1.333333,273.064473,49.198232)"/>
<path style="fill-rule:nonzero;fill:rgb(100%,49.803922%,5.490196%);fill-opacity:1;stroke-width:1;stroke-linecap:butt;stroke-linejoin:round;stroke:rgb(100%,49.803922%,5.490196%);stroke-opacity:1;stroke-miterlimit:4;" d="M 0.000839233 2.999187 C 0.794785 2.999187 1.559433 2.682781 2.121933 2.120281 C 2.684433 1.557781 3.000839 0.796062 3.000839 -0.000812531 C 3.000839 -0.794758 2.684433 -1.559406 2.121933 -2.121906 C 1.559433 -2.684406 0.794785 -3.000813 0.000839233 -3.000813 C -0.796036 -3.000813 -1.557755 -2.684406 -2.120255 -2.121906 C -2.682755 -1.559406 -2.999161 -0.794758 -2.999161 -0.000812531 C -2.999161 0.796062 -2.682755 1.557781 -2.120255 2.120281 C -1.557755 2.682781 -0.796036 2.999187 0.000839233 2.999187 Z M 0.000839233 2.999187 " transform="matrix(1.333333,0,0,1.333333,274.850444,48.907333)"/>
<path style="fill-rule:nonzero;fill:rgb(100%,49.803922%,5.490196%);fill-opacity:1;stroke-width:1;stroke-linecap:butt;stroke-linejoin:round;stroke:rgb(100%,49.803922%,5.490196%);stroke-opacity:1;stroke-miterlimit:4;" d="M -0.000564575 3.000916 C 0.79631 3.000916 1.558029 2.684509 2.120529 2.122009 C 2.683029 1.559509 2.999435 0.794861 2.999435 0.000915527 C 2.999435 -0.795959 2.683029 -1.557678 2.120529 -2.120178 C 1.558029 -2.682678 0.79631 -2.999084 -0.000564575 -2.999084 C -0.79451 -2.999084 -1.559158 -2.682678 -2.121658 -2.120178 C -2.684158 -1.557678 -3.000565 -0.795959 -3.000565 0.000915527 C -3.000565 0.794861 -2.684158 1.559509 -2.121658 2.122009 C -1.559158 2.684509 -0.79451 3.000916 -0.000564575 3.000916 Z M -0.000564575 3.000916 " transform="matrix(1.333333,0,0,1.333333,276.719503,51.932373)"/>
<path style="fill-rule:nonzero;fill:rgb(100%,49.803922%,5.490196%);fill-opacity:1;stroke-width:1;stroke-linecap:butt;stroke-linejoin:round;stroke:rgb(100%,49.803922%,5.490196%);stroke-opacity:1;stroke-miterlimit:4;" d="M -0.000442505 2.998623 C 0.796432 2.998623 1.558151 2.685146 2.120651 2.122646 C 2.683151 1.560146 2.999557 0.795498 2.999557 -0.00137711 C 2.999557 -0.795322 2.683151 -1.559971 2.120651 -2.122471 C 1.558151 -2.684971 0.796432 -3.001377 -0.000442505 -3.001377 C -0.794388 -3.001377 -1.559036 -2.684971 -2.121536 -2.122471 C -2.684036 -1.559971 -3.000443 -0.795322 -3.000443 -0.00137711 C -3.000443 0.795498 -2.684036 1.560146 -2.121536 2.122646 C -1.559036 2.685146 -0.794388 2.998623 -0.000442505 2.998623 Z M -0.000442505 2.998623 " transform="matrix(1.333333,0,0,1.333333,274.46934,55.74793)"/>
<path style="fill-rule:nonzero;fill:rgb(100%,49.803922%,5.490196%);fill-opacity:1;stroke-width:1;stroke-linecap:butt;stroke-linejoin:round;stroke:rgb(100%,49.803922%,5.490196%);stroke-opacity:1;stroke-miterlimit:4;" d="M -0.00105286 3.000256 C 0.795822 3.000256 1.557541 2.683849 2.120041 2.121349 C 2.682541 1.558849 2.998947 0.794201 2.998947 0.000255585 C 2.998947 -0.796619 2.682541 -1.558338 2.120041 -2.120838 C 1.557541 -2.683338 0.795822 -2.999744 -0.00105286 -2.999744 C -0.794998 -2.999744 -1.559647 -2.683338 -2.122147 -2.120838 C -2.684647 -1.558338 -3.001053 -0.796619 -3.001053 0.000255585 C -3.001053 0.794201 -2.684647 1.558849 -2.122147 2.121349 C -1.559647 2.683849 -0.794998 3.000256 -0.00105286 3.000256 Z M -0.00105286 3.000256 " transform="matrix(1.333333,0,0,1.333333,273.220154,59.437159)"/>
<path style="fill-rule:nonzero;fill:rgb(100%,49.803922%,5.490196%);fill-opacity:1;stroke-width:1;stroke-linecap:butt;stroke-linejoin:round;stroke:rgb(100%,49.803922%,5.490196%);stroke-opacity:1;stroke-miterlimit:4;" d="M -0.001297 2.999809 C 0.795578 2.999809 1.557297 2.683403 2.122726 2.120903 C 2.685226 1.558403 2.998703 0.796684 2.998703 -0.000190735 C 2.998703 -0.797066 2.685226 -1.558784 2.122726 -2.121284 C 1.557297 -2.683784 0.795578 -3.000191 -0.001297 -3.000191 C -0.795242 -3.000191 -1.559891 -2.683784 -2.122391 -2.121284 C -2.684891 -1.558784 -3.001297 -0.797066 -3.001297 -0.000190735 C -3.001297 0.796684 -2.684891 1.558403 -2.122391 2.120903 C -1.559891 2.683403 -0.795242 2.999809 -0.001297 2.999809 Z M -0.001297 2.999809 " transform="matrix(1.333333,0,0,1.333333,274.427511,60.582286)"/>
<path style="fill-rule:nonzero;fill:rgb(100%,49.803922%,5.490196%);fill-opacity:1;stroke-width:1;stroke-linecap:butt;stroke-linejoin:round;stroke:rgb(100%,49.803922%,5.490196%);stroke-opacity:1;stroke-miterlimit:4;" d="M 0.00123596 3.001007 C 0.795181 3.001007 1.55983 2.684601 2.12233 2.122101 C 2.68483 1.559601 3.001236 0.794952 3.001236 0.00100708 C 3.001236 -0.795868 2.68483 -1.557587 2.12233 -2.120087 C 1.55983 -2.682587 0.795181 -2.998993 0.00123596 -2.998993 C -0.795639 -2.998993 -1.557358 -2.682587 -2.119858 -2.120087 C -2.685287 -1.557587 -2.998764 -0.795868 -2.998764 0.00100708 C -2.998764 0.794952 -2.685287 1.559601 -2.119858 2.122101 C -1.557358 2.684601 -0.795639 3.001007 0.00123596 3.001007 Z M 0.00123596 3.001007 " transform="matrix(1.333333,0,0,1.333333,278.920227,56.447876)"/>
<path style="fill-rule:nonzero;fill:rgb(100%,49.803922%,5.490196%);fill-opacity:1;stroke-width:1;stroke-linecap:butt;stroke-linejoin:round;stroke:rgb(100%,49.803922%,5.490196%);stroke-opacity:1;stroke-miterlimit:4;" d="M 0.000793457 3.000011 C 0.794739 3.000011 1.559387 2.683605 2.121887 2.121105 C 2.684387 1.558605 3.000793 0.796886 3.000793 0.0000114441 C 3.000793 -0.796864 2.684387 -1.558582 2.121887 -2.121082 C 1.559387 -2.683582 0.794739 -2.999989 0.000793457 -2.999989 C -0.796082 -2.999989 -1.5578 -2.683582 -2.1203 -2.121082 C -2.6828 -1.558582 -2.999207 -0.796864 -2.999207 0.0000114441 C -2.999207 0.796886 -2.6828 1.558605 -2.1203 2.121105 C -1.5578 2.683605 -0.796082 3.000011 0.000793457 3.000011 Z M 0.000793457 3.000011 " transform="matrix(1.333333,0,0,1.333333,275.448161,56.460922)"/>
<path style="fill-rule:nonzero;fill:rgb(100%,49.803922%,5.490196%);fill-opacity:1;stroke-width:1;stroke-linecap:butt;stroke-linejoin:round;stroke:rgb(100%,49.803922%,5.490196%);stroke-opacity:1;stroke-miterlimit:4;" d="M -0.000534058 3.000423 C 0.796341 3.000423 1.55806 2.684017 2.12056 2.121517 C 2.68306 1.559017 2.999466 0.794369 2.999466 0.000423431 C 2.999466 -0.796452 2.68306 -1.55817 2.12056 -2.12067 C 1.55806 -2.68317 0.796341 -2.999577 -0.000534058 -2.999577 C -0.794479 -2.999577 -1.559128 -2.68317 -2.121628 -2.12067 C -2.684128 -1.55817 -3.000534 -0.796452 -3.000534 0.000423431 C -3.000534 0.794369 -2.684128 1.559017 -2.121628 2.121517 C -1.559128 2.684017 -0.794479 3.000423 -0.000534058 3.000423 Z M -0.000534058 3.000423 " transform="matrix(1.333333,0,0,1.333333,273.309306,49.987717)"/>
<path style="fill-rule:nonzero;fill:rgb(100%,49.803922%,5.490196%);fill-opacity:1;stroke-width:1;stroke-linecap:butt;stroke-linejoin:round;stroke:rgb(100%,49.803922%,5.490196%);stroke-opacity:1;stroke-miterlimit:4;" d="M 0.000717163 2.999302 C 0.794662 2.999302 1.559311 2.682896 2.121811 2.120396 C 2.684311 1.557896 3.000717 0.796177 3.000717 -0.00069809 C 3.000717 -0.794643 2.684311 -1.559292 2.121811 -2.121792 C 1.559311 -2.684292 0.794662 -3.000698 0.000717163 -3.000698 C -0.796158 -3.000698 -1.557877 -2.684292 -2.120377 -2.121792 C -2.682877 -1.559292 -2.999283 -0.794643 -2.999283 -0.00069809 C -2.999283 0.796177 -2.682877 1.557896 -2.120377 2.120396 C -1.557877 2.682896 -0.796158 2.999302 0.000717163 2.999302 Z M 0.000717163 2.999302 " transform="matrix(1.333333,0,0,1.333333,276.362325,57.129837)"/>
<path style="fill-rule:nonzero;fill:rgb(100%,49.803922%,5.490196%);fill-opacity:1;stroke-width:1;stroke-linecap:butt;stroke-linejoin:round;stroke:rgb(100%,49.803922%,5.490196%);stroke-opacity:1;stroke-miterlimit:4;" d="M -0.000244141 3.000252 C 0.796631 3.000252 1.55835 2.683846 2.12085 2.121346 C 2.68335 1.558846 2.999756 0.794197 2.999756 0.00025177 C 2.999756 -0.796623 2.68335 -1.558342 2.12085 -2.120842 C 1.55835 -2.683342 0.796631 -2.999748 -0.000244141 -2.999748 C -0.794189 -2.999748 -1.558838 -2.683342 -2.121338 -2.120842 C -2.683838 -1.558342 -3.000244 -0.796623 -3.000244 0.00025177 C -3.000244 0.794197 -2.683838 1.558846 -2.121338 2.121346 C -1.558838 2.683846 -0.794189 3.000252 -0.000244141 3.000252 Z M -0.000244141 3.000252 " transform="matrix(1.333333,0,0,1.333333,278.972982,58.566071)"/>
<path style="fill-rule:nonzero;fill:rgb(100%,49.803922%,5.490196%);fill-opacity:1;stroke-width:1;stroke-linecap:butt;stroke-linejoin:round;stroke:rgb(100%,49.803922%,5.490196%);stroke-opacity:1;stroke-miterlimit:4;" d="M 0.000289917 2.999977 C 0.794235 2.999977 1.558884 2.683571 2.121384 2.121071 C 2.683884 1.558571 3.00029 0.796852 3.00029 -0.0000228882 C 3.00029 -0.796898 2.683884 -1.558617 2.121384 -2.121117 C 1.558884 -2.683617 0.794235 -3.000023 0.000289917 -3.000023 C -0.796585 -3.000023 -1.558304 -2.683617 -2.120804 -2.121117 C -2.683304 -1.558617 -2.99971 -0.796898 -2.99971 -0.0000228882 C -2.99971 0.796852 -2.683304 1.558571 -2.120804 2.121071 C -1.558304 2.683571 -0.796585 2.999977 0.000289917 2.999977 Z M 0.000289917 2.999977 " transform="matrix(1.333333,0,0,1.333333,275.53477,51.750031)"/>
<path style="fill-rule:nonzero;fill:rgb(100%,49.803922%,5.490196%);fill-opacity:1;stroke-width:1;stroke-linecap:butt;stroke-linejoin:round;stroke:rgb(100%,49.803922%,5.490196%);stroke-opacity:1;stroke-miterlimit:4;" d="M -0.00134277 3.001202 C 0.795532 3.001202 1.560181 2.684795 2.122681 2.122295 C 2.685181 1.559795 2.998657 0.795147 2.998657 0.00120163 C 2.998657 -0.795673 2.685181 -1.557392 2.122681 -2.119892 C 1.560181 -2.685322 0.795532 -2.998798 -0.00134277 -2.998798 C -0.795288 -2.998798 -1.559937 -2.685322 -2.122437 -2.119892 C -2.684937 -1.557392 -3.001343 -0.795673 -3.001343 0.00120163 C -3.001343 0.795147 -2.684937 1.559795 -2.122437 2.122295 C -1.559937 2.684795 -0.795288 3.001202 -0.00134277 3.001202 Z M -0.00134277 3.001202 " transform="matrix(1.333333,0,0,1.333333,276.853353,55.846054)"/>
<path style="fill-rule:nonzero;fill:rgb(100%,49.803922%,5.490196%);fill-opacity:1;stroke-width:1;stroke-linecap:butt;stroke-linejoin:round;stroke:rgb(100%,49.803922%,5.490196%);stroke-opacity:1;stroke-miterlimit:4;" d="M -0.00108337 3.001236 C 0.795792 3.001236 1.55751 2.68483 2.12001 2.12233 C 2.68251 1.55983 2.998917 0.795181 2.998917 0.00123596 C 2.998917 -0.795639 2.68251 -1.557358 2.12001 -2.119858 C 1.55751 -2.685287 0.795792 -2.998764 -0.00108337 -2.998764 C -0.795029 -2.998764 -1.559677 -2.685287 -2.122177 -2.119858 C -2.684677 -1.557358 -3.001083 -0.795639 -3.001083 0.00123596 C -3.001083 0.795181 -2.684677 1.55983 -2.122177 2.12233 C -1.559677 2.68483 -0.795029 3.001236 -0.00108337 3.001236 Z M -0.00108337 3.001236 " transform="matrix(1.333333,0,0,1.333333,285.247538,58.603821)"/>
<path style="fill-rule:nonzero;fill:rgb(100%,49.803922%,5.490196%);fill-opacity:1;stroke-width:1;stroke-linecap:butt;stroke-linejoin:round;stroke:rgb(100%,49.803922%,5.490196%);stroke-opacity:1;stroke-miterlimit:4;" d="M -0.00128174 2.999969 C 0.795593 2.999969 1.557312 2.683563 2.122742 2.121063 C 2.685242 1.558563 2.998718 0.796844 2.998718 -0.0000305176 C 2.998718 -0.796906 2.685242 -1.558624 2.122742 -2.121124 C 1.557312 -2.683624 0.795593 -3.000031 -0.00128174 -3.000031 C -0.795227 -3.000031 -1.559875 -2.683624 -2.122375 -2.121124 C -2.684875 -1.558624 -3.001282 -0.796906 -3.001282 -0.0000305176 C -3.001282 0.796844 -2.684875 1.558563 -2.122375 2.121063 C -1.559875 2.683563 -0.795227 2.999969 -0.00128174 2.999969 Z M -0.00128174 2.999969 " transform="matrix(1.333333,0,0,1.333333,276.540771,57.640666)"/>
<path style="fill-rule:nonzero;fill:rgb(100%,49.803922%,5.490196%);fill-opacity:1;stroke-width:1;stroke-linecap:butt;stroke-linejoin:round;stroke:rgb(100%,49.803922%,5.490196%);stroke-opacity:1;stroke-miterlimit:4;" d="M 0.000259399 3.000885 C 0.794205 3.000885 1.558853 2.684479 2.121353 2.121979 C 2.683853 1.559479 3.000259 0.79483 3.000259 0.00088501 C 3.000259 -0.79599 2.683853 -1.557709 2.121353 -2.120209 C 1.558853 -2.682709 0.794205 -2.999115 0.000259399 -2.999115 C -0.796616 -2.999115 -1.558334 -2.682709 -2.120834 -2.120209 C -2.683334 -1.557709 -2.999741 -0.79599 -2.999741 0.00088501 C -2.999741 0.79483 -2.683334 1.559479 -2.120834 2.121979 C -1.558334 2.684479 -0.796616 3.000885 0.000259399 3.000885 Z M 0.000259399 3.000885 " transform="matrix(1.333333,0,0,1.333333,276.870748,46.385539)"/>
<path style="fill-rule:nonzero;fill:rgb(100%,49.803922%,5.490196%);fill-opacity:1;stroke-width:1;stroke-linecap:butt;stroke-linejoin:round;stroke:rgb(100%,49.803922%,5.490196%);stroke-opacity:1;stroke-miterlimit:4;" d="M 0.0000915527 2.999207 C 0.796967 2.999207 1.558685 2.6828 2.121185 2.1203 C 2.683685 1.5578 3.000092 0.796082 3.000092 -0.000793457 C 3.000092 -0.794739 2.683685 -1.559387 2.121185 -2.121887 C 1.558685 -2.684387 0.796967 -3.000793 0.0000915527 -3.000793 C -0.796783 -3.000793 -1.558502 -2.684387 -2.121002 -2.121887 C -2.683502 -1.559387 -2.999908 -0.794739 -2.999908 -0.000793457 C -2.999908 0.796082 -2.683502 1.5578 -2.121002 2.1203 C -1.558502 2.6828 -0.796783 2.999207 0.0000915527 2.999207 Z M 0.0000915527 2.999207 " transform="matrix(1.333333,0,0,1.333333,280.367065,53.504964)"/>
<path style="fill-rule:nonzero;fill:rgb(100%,49.803922%,5.490196%);fill-opacity:1;stroke-width:1;stroke-linecap:butt;stroke-linejoin:round;stroke:rgb(100%,49.803922%,5.490196%);stroke-opacity:1;stroke-miterlimit:4;" d="M 0.000137329 3.001362 C 0.797012 3.001362 1.558731 2.684956 2.121231 2.122456 C 2.683731 1.559956 3.000137 0.795307 3.000137 0.00136185 C 3.000137 -0.795513 2.683731 -1.560162 2.121231 -2.122662 C 1.558731 -2.685162 0.797012 -2.998638 0.000137329 -2.998638 C -0.796738 -2.998638 -1.558456 -2.685162 -2.120956 -2.122662 C -2.683456 -1.560162 -2.999863 -0.795513 -2.999863 0.00136185 C -2.999863 0.795307 -2.683456 1.559956 -2.120956 2.122456 C -1.558456 2.684956 -0.796738 3.001362 0.000137329 3.001362 Z M 0.000137329 3.001362 " transform="matrix(1.333333,0,0,1.333333,281.855286,60.736465)"/>
<path style="fill-rule:nonzero;fill:rgb(100%,49.803922%,5.490196%);fill-opacity:1;stroke-width:1;stroke-linecap:butt;stroke-linejoin:round;stroke:rgb(100%,49.803922%,5.490196%);stroke-opacity:1;stroke-miterlimit:4;" d="M 0.00137329 2.999863 C 0.795319 2.999863 1.559967 2.683456 2.122467 2.120956 C 2.684967 1.558456 3.001373 0.796738 3.001373 -0.000137329 C 3.001373 -0.797012 2.684967 -1.558731 2.122467 -2.121231 C 1.559967 -2.683731 0.795319 -3.000137 0.00137329 -3.000137 C -0.795502 -3.000137 -1.56015 -2.683731 -2.12265 -2.121231 C -2.68515 -1.558731 -2.998627 -0.797012 -2.998627 -0.000137329 C -2.998627 0.796738 -2.68515 1.558456 -2.12265 2.120956 C -1.56015 2.683456 -0.795502 2.999863 0.00137329 2.999863 Z M 0.00137329 2.999863 " transform="matrix(1.333333,0,0,1.333333,282.963013,49.105652)"/>
<path style="fill-rule:nonzero;fill:rgb(100%,49.803922%,5.490196%);fill-opacity:1;stroke-width:1;stroke-linecap:butt;stroke-linejoin:round;stroke:rgb(100%,49.803922%,5.490196%);stroke-opacity:1;stroke-miterlimit:4;" d="M -0.000137329 3.000641 C 0.796738 3.000641 1.558456 2.684235 2.120956 2.121735 C 2.683456 1.559235 2.999863 0.794586 2.999863 0.000640869 C 2.999863 -0.796234 2.683456 -1.557953 2.120956 -2.120453 C 1.558456 -2.682953 0.796738 -2.999359 -0.000137329 -2.999359 C -0.797012 -2.999359 -1.558731 -2.682953 -2.121231 -2.120453 C -2.683731 -1.557953 -3.000137 -0.796234 -3.000137 0.000640869 C -3.000137 0.794586 -2.683731 1.559235 -2.121231 2.121735 C -1.558731 2.684235 -0.797012 3.000641 -0.000137329 3.000641 Z M -0.000137329 3.000641 " transform="matrix(1.333333,0,0,1.333333,279.343933,54.585083)"/>
<path style="fill-rule:nonzero;fill:rgb(100%,49.803922%,5.490196%);fill-opacity:1;stroke-width:1;stroke-linecap:butt;stroke-linejoin:round;stroke:rgb(100%,49.803922%,5.490196%);stroke-opacity:1;stroke-miterlimit:4;" d="M -0.00131226 3.001457 C 0.795563 3.001457 1.557281 2.685051 2.122711 2.122551 C 2.685211 1.560051 2.998688 0.795403 2.998688 0.00145721 C 2.998688 -0.795418 2.685211 -1.560066 2.122711 -2.122566 C 1.557281 -2.685066 0.795563 -2.998543 -0.00131226 -2.998543 C -0.795258 -2.998543 -1.559906 -2.685066 -2.122406 -2.122566 C -2.684906 -1.560066 -3.001312 -0.795418 -3.001312 0.00145721 C -3.001312 0.795403 -2.684906 1.560051 -2.122406 2.122551 C -1.559906 2.685051 -0.795258 3.001457 -0.00131226 3.001457 Z M -0.00131226 3.001457 " transform="matrix(1.333333,0,0,1.333333,266.208781,47.97462)"/>
<path style="fill-rule:nonzero;fill:rgb(100%,49.803922%,5.490196%);fill-opacity:1;stroke-width:1;stroke-linecap:butt;stroke-linejoin:round;stroke:rgb(100%,49.803922%,5.490196%);stroke-opacity:1;stroke-miterlimit:4;" d="M -0.0000915527 2.999416 C 0.796783 2.999416 1.558502 2.68301 2.121002 2.12051 C 2.683502 1.55801 2.999908 0.796291 2.999908 -0.000583649 C 2.999908 -0.794529 2.683502 -1.559177 2.121002 -2.121677 C 1.558502 -2.684177 0.796783 -3.000584 -0.0000915527 -3.000584 C -0.796967 -3.000584 -1.558685 -2.684177 -2.121185 -2.121677 C -2.683685 -1.559177 -3.000092 -0.794529 -3.000092 -0.000583649 C -3.000092 0.796291 -2.683685 1.55801 -2.121185 2.12051 C -1.558685 2.68301 -0.796967 2.999416 -0.0000915527 2.999416 Z M -0.0000915527 2.999416 " transform="matrix(1.333333,0,0,1.333333,261.382935,46.996872)"/>
<g clip-path="url(#clip1)" clip-rule="nonzero">
<path style="fill:none;stroke-width:1.5;stroke-linecap:butt;stroke-linejoin:round;stroke:rgb(12.156863%,46.666667%,70.588237%);stroke-opacity:1;stroke-miterlimit:4;" d="M 237.919922 106.564453 L 237.380859 106.708008 L 234.870117 107.34668 L 231.817383 108.029297 L 228.764648 108.621094 L 225.714844 109.12207 L 222.662109 109.532227 L 219.612305 109.851562 L 216.55957 110.080078 L 213.506836 110.214844 L 210.457031 110.261719 L 207.404297 110.214844 L 204.354492 110.080078 L 201.301758 109.851562 L 198.249023 109.532227 L 195.199219 109.12207 L 192.146484 108.621094 L 189.09668 108.029297 L 186.043945 107.34668 L 183.530273 106.708008 L 182.991211 106.564453 L 179.941406 105.650391 L 176.888672 104.642578 L 173.838867 103.538086 L 172.860352 103.154297 L 170.786133 102.290039 L 167.733398 100.918945 L 164.99707 99.600586 L 164.683594 99.439453 L 161.630859 97.769531 L 158.671875 96.046875 L 158.581055 95.988281 L 155.52832 93.981445 L 153.383789 92.493164 L 152.475586 91.819336 L 149.425781 89.428711 L 148.828125 88.939453 L 146.373047 86.765625 L 144.881836 85.385742 L 143.323242 83.821289 L 141.421875 81.832031 L 140.270508 80.516602 L 138.386719 78.27832 L 137.217773 76.754883 L 135.723633 74.72168 L 134.167969 72.383789 L 133.388672 71.167969 L 131.355469 67.614258 L 131.115234 67.142578 L 129.618164 64.060547 L 128.121094 60.506836 L 128.06543 60.345703 L 126.899414 56.953125 L 125.900391 53.399414 L 125.124023 49.845703 L 125.012695 49.136719 L 124.584961 46.291992 L 124.262695 42.738281 L 124.157227 39.18457 L 124.262695 35.630859 L 124.584961 32.077148 L 125.012695 29.232422 L 125.124023 28.523437 L 125.900391 24.969727 L 126.899414 21.416016 L 128.06543 18.023437 L 128.121094 17.862305 L 129.618164 14.308594 L 131.115234 11.226562 L 131.355469 10.754883 L 133.388672 7.201172 " transform="matrix(1.333333,0,0,1.333333,0,0.000000000000014211)"/>
</g>
<g clip-path="url(#clip2)" clip-rule="nonzero">
<path style="fill:none;stroke-width:1.5;stroke-linecap:butt;stroke-linejoin:round;stroke:rgb(12.156863%,46.666667%,70.588237%);stroke-opacity:1;stroke-miterlimit:4;" d="M 237.919922 137.109375 L 234.870117 137.657227 L 231.817383 138.143555 L 228.764648 138.5625 L 227.657227 138.691406 L 225.714844 138.911133 L 222.662109 139.192383 L 219.612305 139.40918 L 216.55957 139.564453 L 213.506836 139.658203 L 210.457031 139.69043 L 207.404297 139.658203 L 204.354492 139.564453 L 201.301758 139.40918 L 198.249023 139.192383 L 195.199219 138.911133 L 193.256836 138.691406 L 192.146484 138.5625 L 189.09668 138.143555 L 186.043945 137.657227 L 182.991211 137.109375 L 179.941406 136.494141 L 176.888672 135.817383 L 174.102539 135.137695 L 173.838867 135.070312 L 170.786133 134.232422 L 167.733398 133.327148 L 164.683594 132.354492 L 162.418945 131.583984 L 161.630859 131.305664 L 158.581055 130.157227 L 155.52832 128.935547 L 153.383789 128.030273 L 152.475586 127.631836 L 149.425781 126.216797 L 146.373047 124.731445 L 145.87793 124.476562 L 143.323242 123.117187 L 140.270508 121.415039 L 139.426758 120.922852 L 137.217773 119.581055 L 134.167969 117.644531 L 133.749023 117.369141 L 131.115234 115.549805 L 128.698242 113.81543 L 128.06543 113.337891 L 125.012695 110.956055 L 124.157227 110.261719 L 121.959961 108.392578 L 120.046875 106.708008 L 118.910156 105.650391 L 116.308594 103.154297 L 115.857422 102.697266 L 112.904297 99.600586 L 112.807617 99.492187 L 109.801758 96.046875 L 109.754883 95.988281 L 106.977539 92.493164 L 106.702148 92.124023 L 104.402344 88.939453 L 103.652344 87.820312 L 102.061523 85.385742 L 100.599609 82.96875 L 99.931641 81.832031 L 98.006836 78.27832 L 97.549805 77.34668 L 96.287109 74.72168 L 94.740234 71.167969 L 94.49707 70.541016 L 93.386719 67.614258 L 92.197266 64.060547 L 91.444336 61.464844 L 91.174805 60.506836 L 90.325195 56.953125 L 89.630859 53.399414 L 89.088867 49.845703 L 88.702148 46.291992 L 88.470703 42.738281 L 88.394531 39.18457 L 88.470703 35.630859 L 88.702148 32.077148 L 89.088867 28.523437 L 89.630859 24.969727 L 90.325195 21.416016 L 91.174805 17.862305 L 91.444336 16.904297 L 92.197266 14.308594 L 93.386719 10.754883 L 94.49707 7.828125 L 94.740234 7.201172 " transform="matrix(1.333333,0,0,1.333333,0,0.000000000000014211)"/>
</g>
<g clip-path="url(#clip3)" clip-rule="nonzero">
<path style="fill:none;stroke-width:1.5;stroke-linecap:butt;stroke-linejoin:round;stroke:rgb(12.156863%,46.666667%,70.588237%);stroke-opacity:1;stroke-miterlimit:4;" d="M 135.723633 145.798828 L 134.167969 145.045898 L 131.115234 143.510742 L 128.698242 142.245117 L 128.06543 141.902344 L 125.012695 140.188477 L 122.443359 138.691406 L 121.959961 138.401367 L 118.910156 136.494141 L 116.80957 135.137695 L 115.857422 134.501953 L 112.807617 132.389648 L 111.679688 131.583984 L 109.754883 130.157227 L 106.977539 128.030273 L 106.702148 127.813477 L 103.652344 125.311523 L 102.662109 124.476562 L 100.599609 122.663086 L 98.677734 120.922852 L 97.549805 119.856445 L 94.986328 117.369141 L 94.49707 116.874023 L 91.564453 113.81543 L 91.444336 113.686523 L 88.394531 110.261719 L 85.456055 106.708008 L 85.341797 106.564453 L 82.731445 103.154297 L 82.291992 102.544922 L 80.208984 99.600586 L 79.239258 98.147461 L 77.871094 96.046875 L 76.186523 93.295898 L 75.706055 92.493164 L 73.719727 88.939453 L 73.136719 87.820312 L 71.894531 85.385742 L 70.21875 81.832031 L 70.083984 81.521484 L 68.707031 78.27832 L 67.327148 74.72168 L 67.03418 73.880859 L 66.102539 71.167969 L 65.009766 67.614258 L 64.045898 64.060547 L 63.981445 63.788086 L 63.225586 60.506836 L 62.53418 56.953125 L 61.96875 53.399414 L 61.526367 49.845703 L 61.212891 46.291992 L 61.025391 42.738281 L 60.960938 39.18457 L 61.025391 35.630859 L 61.212891 32.077148 L 61.526367 28.523437 L 61.96875 24.969727 L 62.53418 21.416016 L 63.225586 17.862305 L 63.981445 14.581055 L 64.045898 14.308594 L 65.009766 10.754883 L 66.102539 7.201172 " transform="matrix(1.333333,0,0,1.333333,0,0.000000000000014211)"/>
</g>
<g clip-path="url(#clip4)" clip-rule="nonzero">
<path style="fill:none;stroke-width:1.5;stroke-linecap:butt;stroke-linejoin:round;stroke:rgb(12.156863%,46.666667%,70.588237%);stroke-opacity:1;stroke-miterlimit:4;" d="M 96.287109 145.798828 L 94.49707 144.474609 L 91.564453 142.245117 L 91.444336 142.151367 L 88.394531 139.69043 L 87.1875 138.691406 L 85.341797 137.109375 L 83.100586 135.137695 L 82.291992 134.402344 L 79.274414 131.583984 L 79.239258 131.548828 L 76.186523 128.519531 L 75.706055 128.030273 L 73.136719 125.311523 L 72.363281 124.476562 L 70.083984 121.907227 L 69.231445 120.922852 L 67.03418 118.277344 L 66.292969 117.369141 L 63.981445 114.392578 L 63.541992 113.81543 L 60.960938 110.261719 L 60.928711 110.214844 L 58.555664 106.708008 L 57.878906 105.650391 L 56.305664 103.154297 L 54.826172 100.666992 L 54.205078 99.600586 L 52.248047 96.046875 L 51.776367 95.129883 L 50.4375 92.493164 L 48.75293 88.939453 L 48.723633 88.87207 L 47.211914 85.385742 L 45.785156 81.832031 L 45.670898 81.521484 L 44.496094 78.27832 L 43.321289 74.72168 L 42.621094 72.383789 " transform="matrix(1.333333,0,0,1.333333,0,0.000000000000014211)"/>
</g>
<g clip-path="url(#clip5)" clip-rule="nonzero">
<path style="fill:none;stroke-width:1.5;stroke-linecap:butt;stroke-linejoin:round;stroke:rgb(12.156863%,46.666667%,70.588237%);stroke-opacity:1;stroke-miterlimit:4;" d="M 67.327148 145.798828 L 67.03418 145.529297 L 63.981445 142.666992 L 63.541992 142.245117 L 60.928711 139.658203 L 59.973633 138.691406 L 57.878906 136.494141 L 56.610352 135.137695 L 54.826172 133.160156 L 53.43457 131.583984 L 51.776367 129.632812 L 50.4375 128.030273 L 48.723633 125.891602 L 47.610352 124.476562 L 45.670898 121.907227 L 44.944336 120.922852 L 42.621094 117.644531 " transform="matrix(1.333333,0,0,1.333333,0,0.000000000000014211)"/>
</g>
<g clip-path="url(#clip6)" clip-rule="nonzero">
<path style="fill:none;stroke-width:1.5;stroke-linecap:butt;stroke-linejoin:round;stroke:rgb(12.156863%,46.666667%,70.588237%);stroke-opacity:1;stroke-miterlimit:4;" d="M 43.321289 145.798828 L 42.621094 145.045898 " transform="matrix(1.333333,0,0,1.333333,0,0.000000000000014211)"/>
</g>
<path style="fill:none;stroke-width:0.8;stroke-linecap:square;stroke-linejoin:miter;stroke:rgb(0%,0%,0%);stroke-opacity:1;stroke-miterlimit:4;" d="M 42.621094 145.798828 L 42.621094 7.201172 " transform="matrix(1.333333,0,0,1.333333,0,0.000000000000014211)"/>
<path style="fill:none;stroke-width:0.8;stroke-linecap:square;stroke-linejoin:miter;stroke:rgb(0%,0%,0%);stroke-opacity:1;stroke-miterlimit:4;" d="M 237.919922 145.798828 L 237.919922 7.201172 " transform="matrix(1.333333,0,0,1.333333,0,0.000000000000014211)"/>
<path style="fill:none;stroke-width:0.8;stroke-linecap:square;stroke-linejoin:miter;stroke:rgb(0%,0%,0%);stroke-opacity:1;stroke-miterlimit:4;" d="M 42.621094 145.798828 L 237.919922 145.798828 " transform="matrix(1.333333,0,0,1.333333,0,0.000000000000014211)"/>
<path style="fill:none;stroke-width:0.8;stroke-linecap:square;stroke-linejoin:miter;stroke:rgb(0%,0%,0%);stroke-opacity:1;stroke-miterlimit:4;" d="M 42.621094 7.201172 L 237.919922 7.201172 " transform="matrix(1.333333,0,0,1.333333,0,0.000000000000014211)"/>
</g>
</svg>
