<?xml version="1.0" encoding="UTF-8"?>
<svg xmlns="http://www.w3.org/2000/svg" xmlns:xlink="http://www.w3.org/1999/xlink" width="640" height="162.666667" viewBox="0 0 640 162.666667" version="1.1">
<g id="surface1">
<path style="fill-rule:nonzero;fill:rgb(39.215687%,74.901962%,100%);fill-opacity:1;stroke-width:1;stroke-linecap:round;stroke-linejoin:round;stroke:rgb(0%,0%,0%);stroke-opacity:1;stroke-miterlimit:10;" d="M 343 960.500977 L 394.999023 903 L 469 914.499023 L 480.000977 986.000977 L 379 1020.999023 Z M 343 960.500977 " transform="matrix(1.333333,0,0,1.333333,-237.333333,-1200)"/>
<path style="fill-rule:nonzero;fill:rgb(69.803923%,85.09804%,100%);fill-opacity:1;stroke-width:1;stroke-linecap:round;stroke-linejoin:round;stroke:rgb(0%,0%,0%);stroke-opacity:1;stroke-miterlimit:10;" d="M 291.961914 932.768555 C 289.237305 927.667969 285.727539 922.875 281.426758 918.574219 C 257.995117 895.139648 220.00293 895.139648 196.574219 918.574219 C 173.139648 942.00293 173.139648 979.995117 196.574219 1003.426758 C 220.00293 1026.858398 257.995117 1026.858398 281.426758 1003.426758 C 285.727539 999.125977 289.237305 994.333008 291.961914 989.229492 L 235.500977 960.999023 Z M 291.961914 932.768555 " transform="matrix(1.333333,0,0,1.333333,-237.333333,-1200)"/>
<path style="fill-rule:nonzero;fill:rgb(39.215687%,74.901962%,100%);fill-opacity:1;stroke-width:1;stroke-linecap:round;stroke-linejoin:round;stroke:rgb(0%,0%,0%);stroke-opacity:1;stroke-miterlimit:10;" d="M 540.308594 938.592773 L 558.018555 919.010742 C 567.05957 909.020508 580.518555 904.245117 593.831055 906.316406 L 617.561523 910.004883 C 634.793945 912.679688 648.299805 926.211914 650.954102 943.444336 L 652.430664 953.041992 C 655.366211 972.131836 644.242188 990.594727 625.993164 996.916992 L 587.300781 1010.323242 C 569.368164 1016.540039 549.53418 1009.297852 539.831055 992.985352 L 535.600586 985.87793 C 526.624023 970.792969 528.53418 951.618164 540.308594 938.592773 Z M 540.308594 938.592773 " transform="matrix(1.333333,0,0,1.333333,-237.333333,-1200)"/>
<path style="fill:none;stroke-width:1;stroke-linecap:round;stroke-linejoin:round;stroke:rgb(0%,0%,0%);stroke-opacity:1;stroke-miterlimit:10;" d="M 267.835938 926.636719 L 262.032227 997.362305 " transform="matrix(1.333333,0,0,1.333333,-237.333333,-1200)"/>
<path style="fill-rule:nonzero;fill:rgb(0%,0%,0%);fill-opacity:1;stroke-width:1;stroke-linecap:butt;stroke-linejoin:miter;stroke:rgb(0%,0%,0%);stroke-opacity:1;stroke-miterlimit:10;" d="M 259.84375 998.0625 C 261.109375 996.993164 263.004883 997.148438 264.074219 998.411133 C 265.143555 999.676758 264.991211 1001.566406 263.725586 1002.641602 C 262.46582 1003.710938 260.570312 1003.555664 259.500977 1002.292969 C 258.425781 1001.027344 258.581055 999.137695 259.84375 998.0625 " transform="matrix(1.333333,0,0,1.333333,-237.333333,-1200)"/>
<path style="fill-rule:nonzero;fill:rgb(0%,0%,0%);fill-opacity:1;stroke-width:1;stroke-linecap:butt;stroke-linejoin:miter;stroke:rgb(0%,0%,0%);stroke-opacity:1;stroke-miterlimit:10;" d="M 270.024414 925.936523 C 268.758789 927.008789 266.863281 926.850586 265.793945 925.59082 C 264.72168 924.325195 264.874023 922.432617 266.139648 921.360352 C 267.402344 920.288086 269.297852 920.446289 270.367188 921.706055 C 271.442383 922.97168 271.28418 924.864258 270.024414 925.936523 " transform="matrix(1.333333,0,0,1.333333,-237.333333,-1200)"/>
<path style="fill:none;stroke-width:1;stroke-linecap:round;stroke-linejoin:round;stroke:rgb(0%,0%,0%);stroke-opacity:1;stroke-miterlimit:10;" d="M 426.671875 920.976562 L 420.868164 991.702148 " transform="matrix(1.333333,0,0,1.333333,-237.333333,-1200)"/>
<path style="fill-rule:nonzero;fill:rgb(0%,0%,0%);fill-opacity:1;stroke-width:1;stroke-linecap:butt;stroke-linejoin:miter;stroke:rgb(0%,0%,0%);stroke-opacity:1;stroke-miterlimit:10;" d="M 418.682617 992.402344 C 419.945312 991.333008 421.84082 991.488281 422.910156 992.750977 C 423.979492 994.016602 423.827148 995.90625 422.561523 996.981445 C 421.301758 998.050781 419.40625 997.895508 418.336914 996.632812 C 417.261719 995.367188 417.416992 993.477539 418.682617 992.402344 " transform="matrix(1.333333,0,0,1.333333,-237.333333,-1200)"/>
<path style="fill-rule:nonzero;fill:rgb(0%,0%,0%);fill-opacity:1;stroke-width:1;stroke-linecap:butt;stroke-linejoin:miter;stroke:rgb(0%,0%,0%);stroke-opacity:1;stroke-miterlimit:10;" d="M 428.860352 920.276367 C 427.594727 921.348633 425.702148 921.19043 424.629883 919.930664 C 423.557617 918.665039 423.71582 916.772461 424.975586 915.700195 C 426.238281 914.62793 428.133789 914.786133 429.203125 916.045898 C 430.27832 917.311523 430.120117 919.204102 428.860352 920.276367 " transform="matrix(1.333333,0,0,1.333333,-237.333333,-1200)"/>
<path style="fill:none;stroke-width:1;stroke-linecap:round;stroke-linejoin:round;stroke:rgb(0%,0%,0%);stroke-opacity:1;stroke-miterlimit:10;" d="M 606.334961 920.976562 L 600.53125 991.702148 " transform="matrix(1.333333,0,0,1.333333,-237.333333,-1200)"/>
<path style="fill-rule:nonzero;fill:rgb(0%,0%,0%);fill-opacity:1;stroke-width:1;stroke-linecap:butt;stroke-linejoin:miter;stroke:rgb(0%,0%,0%);stroke-opacity:1;stroke-miterlimit:10;" d="M 598.342773 992.402344 C 599.608398 991.333008 601.503906 991.488281 602.573242 992.750977 C 603.645508 994.016602 603.493164 995.90625 602.227539 996.981445 C 600.964844 998.050781 599.069336 997.895508 598 996.632812 C 596.924805 995.367188 597.083008 993.477539 598.342773 992.402344 " transform="matrix(1.333333,0,0,1.333333,-237.333333,-1200)"/>
<path style="fill-rule:nonzero;fill:rgb(0%,0%,0%);fill-opacity:1;stroke-width:1;stroke-linecap:butt;stroke-linejoin:miter;stroke:rgb(0%,0%,0%);stroke-opacity:1;stroke-miterlimit:10;" d="M 608.523438 920.276367 C 607.257812 921.348633 605.362305 921.19043 604.292969 919.930664 C 603.223633 918.665039 603.375977 916.772461 604.641602 915.700195 C 605.901367 914.62793 607.796875 914.786133 608.866211 916.045898 C 609.941406 917.311523 609.786133 919.204102 608.523438 920.276367 " transform="matrix(1.333333,0,0,1.333333,-237.333333,-1200)"/>
</g>
</svg>
