<?xml version="1.0" encoding="UTF-8"?>
<svg xmlns="http://www.w3.org/2000/svg" xmlns:xlink="http://www.w3.org/1999/xlink" width="440" height="136" viewBox="0 0 440 136" version="1.1">
<g id="surface1">
<path style="fill-rule:nonzero;fill:rgb(69.803923%,85.09804%,100%);fill-opacity:1;stroke-width:1;stroke-linecap:round;stroke-linejoin:round;stroke:rgb(0%,0%,0%);stroke-opacity:1;stroke-miterlimit:10;" d="M 510.105469 1570.500977 L 560.308594 1620.704102 L 510.105469 1670.910156 L 459.899414 1620.704102 Z M 510.105469 1570.500977 " transform="matrix(1.333333,0,0,1.333333,-364,-2093.333333)"/>
<path style="fill-rule:nonzero;fill:rgb(69.803923%,85.09804%,100%);fill-opacity:1;stroke-width:1;stroke-linecap:round;stroke-linejoin:round;stroke:rgb(0%,0%,0%);stroke-opacity:1;stroke-miterlimit:10;" d="M 359.355469 1585.143555 C 378.881836 1604.672852 378.881836 1636.328125 359.355469 1655.854492 C 339.829102 1675.383789 308.170898 1675.383789 288.644531 1655.854492 C 269.118164 1636.328125 269.118164 1604.672852 288.644531 1585.143555 C 308.170898 1565.617188 339.829102 1565.617188 359.355469 1585.143555 " transform="matrix(1.333333,0,0,1.333333,-364,-2093.333333)"/>
<path style="fill:none;stroke-width:1;stroke-linecap:round;stroke-linejoin:round;stroke:rgb(0%,0%,0%);stroke-opacity:1;stroke-miterlimit:10;" d="M 324.500977 1620.000977 L 414.600586 1620.72168 " transform="matrix(1.333333,0,0,1.333333,-364,-2093.333333)"/>
<path style="fill-rule:nonzero;fill:rgb(0%,0%,0%);fill-opacity:1;stroke-width:1;stroke-linecap:butt;stroke-linejoin:miter;stroke:rgb(0%,0%,0%);stroke-opacity:1;stroke-miterlimit:10;" d="M 422.601562 1620.786133 L 414.624023 1617.72168 L 414.577148 1623.72168 Z M 422.601562 1620.786133 " transform="matrix(1.333333,0,0,1.333333,-364,-2093.333333)"/>
<path style="fill:none;stroke-width:3;stroke-linecap:round;stroke-linejoin:round;stroke:rgb(100%,14.901961%,0%);stroke-opacity:1;stroke-miterlimit:10;" d="M 324.500977 1618.999023 L 366.105469 1619.664062 " transform="matrix(1.333333,0,0,1.333333,-364,-2093.333333)"/>
<path style="fill-rule:nonzero;fill:rgb(100%,14.901961%,0%);fill-opacity:1;stroke-width:3;stroke-linecap:butt;stroke-linejoin:miter;stroke:rgb(100%,14.901961%,0%);stroke-opacity:1;stroke-miterlimit:10;" d="M 369.799805 1619.725586 L 366.128906 1618.28125 L 366.082031 1621.049805 Z M 369.799805 1619.725586 " transform="matrix(1.333333,0,0,1.333333,-364,-2093.333333)"/>
<path style="fill:none;stroke-width:3;stroke-linecap:round;stroke-linejoin:round;stroke:rgb(100%,98.431373%,0%);stroke-opacity:1;stroke-miterlimit:10;" d="M 324.500977 1618.999023 L 340.851562 1591.946289 " transform="matrix(1.333333,0,0,1.333333,-364,-2093.333333)"/>
<path style="fill-rule:nonzero;fill:rgb(100%,98.431373%,0%);fill-opacity:1;stroke-width:3;stroke-linecap:butt;stroke-linejoin:miter;stroke:rgb(100%,98.431373%,0%);stroke-opacity:1;stroke-miterlimit:10;" d="M 342.761719 1588.782227 L 339.665039 1591.225586 L 342.035156 1592.661133 Z M 342.761719 1588.782227 " transform="matrix(1.333333,0,0,1.333333,-364,-2093.333333)"/>
<path style="fill:none;stroke-width:1;stroke-linecap:round;stroke-linejoin:round;stroke:rgb(0%,0%,0%);stroke-opacity:1;stroke-miterlimit:10;" d="M 510.307617 1618.999023 L 592.441406 1605.414062 " transform="matrix(1.333333,0,0,1.333333,-364,-2093.333333)"/>
<path style="fill-rule:nonzero;fill:rgb(0%,0%,0%);fill-opacity:1;stroke-width:1;stroke-linecap:butt;stroke-linejoin:miter;stroke:rgb(0%,0%,0%);stroke-opacity:1;stroke-miterlimit:10;" d="M 600.336914 1604.110352 L 591.952148 1602.458008 L 592.930664 1608.375977 Z M 600.336914 1604.110352 " transform="matrix(1.333333,0,0,1.333333,-364,-2093.333333)"/>
<path style="fill:none;stroke-width:3;stroke-linecap:round;stroke-linejoin:round;stroke:rgb(100%,14.901961%,0%);stroke-opacity:1;stroke-miterlimit:10;" d="M 510.307617 1620.399414 L 551.915039 1620.399414 " transform="matrix(1.333333,0,0,1.333333,-364,-2093.333333)"/>
<path style="fill-rule:nonzero;fill:rgb(100%,14.901961%,0%);fill-opacity:1;stroke-width:3;stroke-linecap:butt;stroke-linejoin:miter;stroke:rgb(100%,14.901961%,0%);stroke-opacity:1;stroke-miterlimit:10;" d="M 555.609375 1620.399414 L 551.915039 1619.016602 L 551.915039 1621.785156 Z M 555.609375 1620.399414 " transform="matrix(1.333333,0,0,1.333333,-364,-2093.333333)"/>
<path style="fill:none;stroke-width:3;stroke-linecap:round;stroke-linejoin:round;stroke:rgb(100%,98.431373%,0%);stroke-opacity:1;stroke-miterlimit:10;" d="M 510.307617 1618 L 520.453125 1594.65918 " transform="matrix(1.333333,0,0,1.333333,-364,-2093.333333)"/>
<path style="fill-rule:nonzero;fill:rgb(100%,98.431373%,0%);fill-opacity:1;stroke-width:3;stroke-linecap:butt;stroke-linejoin:miter;stroke:rgb(100%,98.431373%,0%);stroke-opacity:1;stroke-miterlimit:10;" d="M 521.929688 1591.269531 L 519.18457 1594.105469 L 521.727539 1595.209961 Z M 521.929688 1591.269531 " transform="matrix(1.333333,0,0,1.333333,-364,-2093.333333)"/>
</g>
</svg>
